<svg xmlns="http://www.w3.org/2000/svg" width="21.667" height="13.948" viewBox="0 0 21.667 13.948">
  <g id="eye" transform="translate(0 -82.176)">
    <g id="Group_147" data-name="Group 147" transform="translate(7.347 85.663)">
      <g id="Group_146" data-name="Group 146" transform="translate(0 0)">
        <path id="Path_326" data-name="Path 326" d="M159.9,156.416a3.487,3.487,0,1,0,3.487,3.487A3.489,3.489,0,0,0,159.9,156.416Zm-.265,2.453a.8.8,0,0,0-.794.794h-1.154a1.971,1.971,0,0,1,1.948-1.948Z" transform="translate(-156.416 -156.416)" fill="#7f8c8d"/>
      </g>
    </g>
    <g id="Group_149" data-name="Group 149" transform="translate(0 82.176)">
      <g id="Group_148" data-name="Group 148" transform="translate(0 0)">
        <path id="Path_327" data-name="Path 327" d="M21.414,88.428c-1.178-1.467-5.387-6.252-10.581-6.252S1.431,86.962.253,88.428a1.157,1.157,0,0,0,0,1.443c1.178,1.467,5.387,6.252,10.581,6.252s9.4-4.785,10.581-6.252A1.157,1.157,0,0,0,21.414,88.428ZM10.833,94.2a5.05,5.05,0,1,1,5.05-5.05A5.049,5.049,0,0,1,10.833,94.2Z" transform="translate(0 -82.176)" fill="#7f8c8d"/>
      </g>
    </g>
  </g>
</svg>
