<svg xmlns="http://www.w3.org/2000/svg" width="28.5" height="28.5" viewBox="0 0 28.5 28.5">
  <g id="man_1_" data-name="man(1)" transform="translate(-0.75 -0.75)">
    <g id="Group_210" data-name="Group 210" transform="translate(7.774 9.595)">
      <path id="Path_5215" data-name="Path 5215" d="M23.226,29.5a3.681,3.681,0,0,1-2.574-.723,1.584,1.584,0,0,0-.361-.226,6.29,6.29,0,0,1-2.8-4.2A2.429,2.429,0,0,1,16,21.824a2.02,2.02,0,0,1,.632-1.716.457.457,0,0,1,.5.768c-.226.135-.271.226-.271.994,0,1.535.948,1.716,1.039,1.716a.551.551,0,0,1,.406.361A5.7,5.7,0,0,0,20.7,27.83a3.972,3.972,0,0,1,.452.271,2.873,2.873,0,0,0,2.032.542,2.792,2.792,0,0,0,2.032-.542,3.971,3.971,0,0,1,.452-.271,5.458,5.458,0,0,0,2.394-3.884.48.48,0,0,1,.406-.361c.09,0,1.039-.181,1.039-1.716,0-.768-.271-.994-.271-.994a.405.405,0,0,1-.09-.632.409.409,0,0,1,.632-.09,2.117,2.117,0,0,1,.632,1.716,2.429,2.429,0,0,1-1.49,2.529,6.245,6.245,0,0,1-2.8,4.2,4.165,4.165,0,0,1-.361.226,3.73,3.73,0,0,1-2.529.677Z" transform="translate(-16 -20.031)" fill="#ff2a2a" stroke="#ff2a2a" stroke-width="0.5"/>
    </g>
    <g id="Group_211" data-name="Group 211" transform="translate(8.236 5.499)">
      <path id="Path_5216" data-name="Path 5216" d="M17.464,15.947a.434.434,0,0,1-.406-.271.448.448,0,0,1,.226-.587c1.174-.542,2.077-1.716,2.935-3.839a.477.477,0,0,1,.316-.271.364.364,0,0,1,.406.135c1.31,1.219,3.161.948,4.381.768a8.622,8.622,0,0,1,.9-.09c1.806,0,2.529,1.31,3.026,2.258.316.632.542,1.039.858,1.039a.452.452,0,1,1,0,.9c-.858,0-1.265-.768-1.671-1.49-.5-.9-.948-1.761-2.213-1.761a6.743,6.743,0,0,0-.768.09c-1.174.181-3.116.452-4.652-.587-.9,1.987-1.9,3.161-3.161,3.748a.272.272,0,0,0-.181-.045Z" transform="translate(-17.023 -10.962)" fill="#ff2a2a" stroke="#ff2a2a" stroke-width="0.5"/>
    </g>
    <g id="Group_212" data-name="Group 212" transform="translate(18.161 16.581)">
      <path id="Path_5217" data-name="Path 5217" d="M49.387,47.919a.427.427,0,0,1-.452-.452c0-2.484,0-4.471-3.523-5.329C42.477,41.461,39,40.106,39,37.8V35.952a.452.452,0,0,1,.9,0V37.8c0,1.31,2.077,2.574,5.69,3.477,4.245.994,4.245,3.748,4.245,6.142A.464.464,0,0,1,49.387,47.919Z" transform="translate(-39 -35.5)" fill="#ff2a2a" stroke="#ff2a2a" stroke-width="0.5"/>
    </g>
    <g id="Group_213" data-name="Group 213" transform="translate(1 16.581)">
      <path id="Path_5218" data-name="Path 5218" d="M1.452,47.468H1c0-2.439,0-5.194,4.245-6.187,3.613-.858,5.69-2.123,5.69-3.477V35.952a.452.452,0,0,1,.9,0V37.8c0,2.3-3.477,3.658-6.413,4.335C1.9,43,1.9,44.984,1.9,47.423Z" transform="translate(-1 -35.5)" fill="#ff2a2a" stroke="#ff2a2a" stroke-width="0.5"/>
    </g>
    <g id="Group_214" data-name="Group 214" transform="translate(8.111 21.433)">
      <path id="Path_5219" data-name="Path 5219" d="M23.635,50.2a8.908,8.908,0,0,1-6.774-3.206.448.448,0,0,1,.677-.587,7.875,7.875,0,0,0,12.194,0,.448.448,0,0,1,.677.587A8.908,8.908,0,0,1,23.635,50.2Z" transform="translate(-16.745 -46.245)" fill="#ff2a2a" stroke="#ff2a2a" stroke-width="0.5"/>
    </g>
    <g id="Group_215" data-name="Group 215" transform="translate(7.774 1)">
      <path id="Path_5220" data-name="Path 5220" d="M16.768,10.619a.4.4,0,0,1-.406-.271C16,9.4,16,9.084,16,6.871A4.416,4.416,0,0,1,18.394,2.9c.948-1.31,2.439-1.9,4.832-1.9a8.348,8.348,0,0,1,3.252.632,8.222,8.222,0,0,0,2.981.271.447.447,0,0,1,.5.361,2.664,2.664,0,0,1-.361,1.9,6.675,6.675,0,0,1,.813,3.252,8.445,8.445,0,0,1-.361,2.935.457.457,0,1,1-.858-.316A7.206,7.206,0,0,0,29.5,7.413a5.685,5.685,0,0,0-.813-2.981.475.475,0,0,1,0-.587,1.7,1.7,0,0,0,.361-1.039,10.716,10.716,0,0,1-2.845-.316c-.045,0-.045,0-.09-.045a7.175,7.175,0,0,0-2.89-.542c-2.665,0-3.568.768-4.155,1.626a.451.451,0,0,1-.226.181A3.411,3.411,0,0,0,16.9,6.871c0,2.168,0,2.348.316,3.116a.47.47,0,0,1-.271.587.272.272,0,0,1-.181.045Z" transform="translate(-16 -1)" fill="#ff2a2a" stroke="#ff2a2a" stroke-width="0.5"/>
    </g>
  </g>
</svg>
