<svg xmlns="http://www.w3.org/2000/svg" xmlns:xlink="http://www.w3.org/1999/xlink" width="61.5" height="66.5" viewBox="0 0 61.5 66.5">
  <defs>
    <clipPath id="clip-path">
      <path id="path567" d="M0-682.665H61.5v66.5H0Z" transform="translate(0 680.415)" fill="#ff2a2a"/>
    </clipPath>
  </defs>
  <g id="g561" transform="translate(0 684.915)">
    <g id="g563" transform="translate(0 -682.665)">
      <g id="g565" transform="translate(0 0)" clip-path="url(#clip-path)">
        <g id="g571" transform="translate(12.732 60.299)">
          <path id="path573" d="M0,0H36.035" transform="translate(0 0)" fill="none" stroke="#ff2a2a" stroke-linecap="round" stroke-linejoin="round" stroke-width="4"/>
        </g>
        <g id="g575" transform="translate(21.141 13.213)">
          <path id="path577" d="M-97.057-194.114a9.621,9.621,0,0,1-9.609-9.609,9.621,9.621,0,0,1,9.609-9.609,9.621,9.621,0,0,1,9.609,9.609A9.621,9.621,0,0,1-97.057-194.114Z" transform="translate(106.666 213.333)" fill="none" stroke="#ff2a2a" stroke-linecap="round" stroke-linejoin="round" stroke-width="4"/>
        </g>
        <g id="g579" transform="translate(40.359 43.963)">
          <path id="path581" d="M-24.264-12.132a1.2,1.2,0,0,1-1.2,1.2,1.2,1.2,0,0,1-1.2-1.2,1.2,1.2,0,0,1,1.2-1.2,1.2,1.2,0,0,1,1.2,1.2" transform="translate(26.667 13.333)" fill="#ff2a2a"/>
        </g>
        <g id="g583" transform="translate(9.129 1.201)">
          <path id="path585" d="M-295.25-488.014l-7.611,10.781-17.308-24.516a21.526,21.526,0,0,1-4.313-12.961,21.621,21.621,0,0,1,21.621-21.621A21.621,21.621,0,0,1-281.24-514.71a21.527,21.527,0,0,1-4.313,12.961l-3.465,4.908" transform="translate(324.482 536.331)" fill="none" stroke="#ff2a2a" stroke-linecap="round" stroke-linejoin="round" stroke-width="4"/>
        </g>
      </g>
    </g>
  </g>
</svg>
