<svg xmlns="http://www.w3.org/2000/svg" width="192" height="192" viewBox="0 0 192 192" version="1.1"><path d="M 93.264 31.718 C 94.784 31.947, 97.034 31.941, 98.264 31.704 C 99.494 31.467, 98.250 31.279, 95.500 31.286 C 92.750 31.294, 91.744 31.488, 93.264 31.718 M 83.813 32.683 C 84.534 32.972, 85.397 32.936, 85.729 32.604 C 86.061 32.272, 85.471 32.036, 84.417 32.079 C 83.252 32.127, 83.015 32.364, 83.813 32.683 M 105.813 32.683 C 106.534 32.972, 107.397 32.936, 107.729 32.604 C 108.061 32.272, 107.471 32.036, 106.417 32.079 C 105.252 32.127, 105.015 32.364, 105.813 32.683 M 78.333 33.667 C 78.700 34.033, 79.300 34.033, 79.667 33.667 C 80.033 33.300, 79.733 33, 79 33 C 78.267 33, 77.967 33.300, 78.333 33.667 M 111.333 33.667 C 111.700 34.033, 112.300 34.033, 112.667 33.667 C 113.033 33.300, 112.733 33, 112 33 C 111.267 33, 110.967 33.300, 111.333 33.667 M 74.333 34.667 C 74.700 35.033, 75.300 35.033, 75.667 34.667 C 76.033 34.300, 75.733 34, 75 34 C 74.267 34, 73.967 34.300, 74.333 34.667 M 115.333 34.667 C 115.700 35.033, 116.300 35.033, 116.667 34.667 C 117.033 34.300, 116.733 34, 116 34 C 115.267 34, 114.967 34.300, 115.333 34.667 M 71.333 35.667 C 71.700 36.033, 72.300 36.033, 72.667 35.667 C 73.033 35.300, 72.733 35, 72 35 C 71.267 35, 70.967 35.300, 71.333 35.667 M 118.333 35.667 C 118.700 36.033, 119.300 36.033, 119.667 35.667 C 120.033 35.300, 119.733 35, 119 35 C 118.267 35, 117.967 35.300, 118.333 35.667 M 66.333 37.667 C 66.700 38.033, 67.300 38.033, 67.667 37.667 C 68.033 37.300, 67.733 37, 67 37 C 66.267 37, 65.967 37.300, 66.333 37.667 M 123.333 37.667 C 123.700 38.033, 124.300 38.033, 124.667 37.667 C 125.033 37.300, 124.733 37, 124 37 C 123.267 37, 122.967 37.300, 123.333 37.667 M 130.500 41 C 130.840 41.550, 131.343 42, 131.618 42 C 131.893 42, 131.840 41.550, 131.500 41 C 131.160 40.450, 130.657 40, 130.382 40 C 130.107 40, 130.160 40.450, 130.500 41 M 56.405 43.155 C 55.962 43.870, 56.130 44.038, 56.845 43.595 C 57.998 42.883, 58.393 42, 57.559 42 C 57.316 42, 56.797 42.520, 56.405 43.155 M 133.500 43 C 133.840 43.550, 134.343 44, 134.618 44 C 134.893 44, 134.840 43.550, 134.500 43 C 134.160 42.450, 133.657 42, 133.382 42 C 133.107 42, 133.160 42.450, 133.500 43 M 53.405 45.155 C 52.962 45.870, 53.130 46.038, 53.845 45.595 C 54.998 44.883, 55.393 44, 54.559 44 C 54.316 44, 53.797 44.520, 53.405 45.155 M 136.500 45 C 136.840 45.550, 137.343 46, 137.618 46 C 137.893 46, 137.840 45.550, 137.500 45 C 137.160 44.450, 136.657 44, 136.382 44 C 136.107 44, 136.160 44.450, 136.500 45 M 46 51.500 C 43.571 53.975, 41.809 56, 42.084 56 C 42.359 56, 44.571 53.975, 47 51.500 C 49.429 49.025, 51.191 47, 50.916 47 C 50.641 47, 48.429 49.025, 46 51.500 M 144.500 52 C 147.209 54.750, 149.650 57, 149.925 57 C 150.200 57, 148.209 54.750, 145.500 52 C 142.791 49.250, 140.350 47, 140.075 47 C 139.800 47, 141.791 49.250, 144.500 52 M 39.405 59.155 C 38.962 59.870, 39.130 60.038, 39.845 59.595 C 40.998 58.883, 41.393 58, 40.559 58 C 40.316 58, 39.797 58.520, 39.405 59.155 M 132.655 59.829 C 130.469 62.244, 130.552 66.284, 132.829 68.345 C 136.793 71.933, 143 69.175, 143 63.826 C 143 58.705, 136.089 56.034, 132.655 59.829 M 151.500 60 C 151.840 60.550, 152.343 61, 152.618 61 C 152.893 61, 152.840 60.550, 152.500 60 C 152.160 59.450, 151.657 59, 151.382 59 C 151.107 59, 151.160 59.450, 151.500 60 M 153.500 63 C 153.840 63.550, 154.343 64, 154.618 64 C 154.893 64, 154.840 63.550, 154.500 63 C 154.160 62.450, 153.657 62, 153.382 62 C 153.107 62, 153.160 62.450, 153.500 63 M 60.445 72.282 C 60.175 72.987, 60.087 81.875, 60.251 92.032 L 60.548 110.500 60.774 91.302 L 61 72.105 66.250 71.737 L 71.500 71.370 66.219 71.185 C 62.702 71.062, 60.773 71.428, 60.445 72.282 M 100.813 71.683 C 101.534 71.972, 102.397 71.936, 102.729 71.604 C 103.061 71.272, 102.471 71.036, 101.417 71.079 C 100.252 71.127, 100.015 71.364, 100.813 71.683 M 113.813 71.683 C 114.534 71.972, 115.397 71.936, 115.729 71.604 C 116.061 71.272, 115.471 71.036, 114.417 71.079 C 113.252 71.127, 113.015 71.364, 113.813 71.683 M 96.333 72.667 C 96.700 73.033, 97.300 73.033, 97.667 72.667 C 98.033 72.300, 97.733 72, 97 72 C 96.267 72, 95.967 72.300, 96.333 72.667 M 118 72.393 C 118 72.609, 118.698 73.054, 119.552 73.382 C 120.442 73.723, 120.843 73.555, 120.493 72.989 C 119.906 72.038, 118 71.583, 118 72.393 M 159 74 C 159 74.733, 159.300 75.033, 159.667 74.667 C 160.033 74.300, 160.033 73.700, 159.667 73.333 C 159.300 72.967, 159 73.267, 159 74 M 142.435 99 C 142.435 113.025, 142.575 118.763, 142.747 111.750 C 142.919 104.738, 142.919 93.263, 142.747 86.250 C 142.575 79.238, 142.435 84.975, 142.435 99 M 30 77 C 30 77.733, 30.300 78.033, 30.667 77.667 C 31.033 77.300, 31.033 76.700, 30.667 76.333 C 30.300 75.967, 30 76.267, 30 77 M 119 77 C 119 77.733, 119.300 78.033, 119.667 77.667 C 120.033 77.300, 120.033 76.700, 119.667 76.333 C 119.300 75.967, 119 76.267, 119 77 M 160 77 C 160 77.733, 160.300 78.033, 160.667 77.667 C 161.033 77.300, 161.033 76.700, 160.667 76.333 C 160.300 75.967, 160 76.267, 160 77 M 85.872 78.750 C 84.629 80.336, 84.664 80.371, 86.250 79.128 C 87.916 77.821, 88.445 77, 87.622 77 C 87.415 77, 86.627 77.787, 85.872 78.750 M 105.750 79.706 C 106.987 79.944, 109.013 79.944, 110.250 79.706 C 111.487 79.467, 110.475 79.272, 108 79.272 C 105.525 79.272, 104.513 79.467, 105.750 79.706 M 161 80 C 161 80.733, 161.300 81.033, 161.667 80.667 C 162.033 80.300, 162.033 79.700, 161.667 79.333 C 161.300 78.967, 161 79.267, 161 80 M 29 81 C 29 81.733, 29.300 82.033, 29.667 81.667 C 30.033 81.300, 30.033 80.700, 29.667 80.333 C 29.300 79.967, 29 80.267, 29 81 M 100.333 80.667 C 100.700 81.033, 101.300 81.033, 101.667 80.667 C 102.033 80.300, 101.733 80, 101 80 C 100.267 80, 99.967 80.300, 100.333 80.667 M 115.333 80.667 C 115.700 81.033, 116.300 81.033, 116.667 80.667 C 117.033 80.300, 116.733 80, 116 80 C 115.267 80, 114.967 80.300, 115.333 80.667 M 97.405 82.155 C 96.962 82.870, 97.130 83.038, 97.845 82.595 C 98.998 81.883, 99.393 81, 98.559 81 C 98.316 81, 97.797 81.520, 97.405 82.155 M 82.405 83.155 C 81.962 83.870, 82.130 84.038, 82.845 83.595 C 83.998 82.883, 84.393 82, 83.559 82 C 83.316 82, 82.797 82.520, 82.405 83.155 M 162.079 84.583 C 162.127 85.748, 162.364 85.985, 162.683 85.188 C 162.972 84.466, 162.936 83.603, 162.604 83.271 C 162.272 82.939, 162.036 83.529, 162.079 84.583 M 28.079 85.583 C 28.127 86.748, 28.364 86.985, 28.683 86.188 C 28.972 85.466, 28.936 84.603, 28.604 84.271 C 28.272 83.939, 28.036 84.529, 28.079 85.583 M 80 88 C 80 88.733, 80.300 89.033, 80.667 88.667 C 81.033 88.300, 81.033 87.700, 80.667 87.333 C 80.300 86.967, 80 87.267, 80 88 M 163.320 96 C 163.320 99.575, 163.502 101.037, 163.723 99.250 C 163.945 97.463, 163.945 94.537, 163.723 92.750 C 163.502 90.963, 163.320 92.425, 163.320 96 M 27.300 96 C 27.300 99.025, 27.487 100.263, 27.716 98.750 C 27.945 97.237, 27.945 94.763, 27.716 93.250 C 27.487 91.737, 27.300 92.975, 27.300 96 M 79 92 C 79 92.733, 79.300 93.033, 79.667 92.667 C 80.033 92.300, 80.033 91.700, 79.667 91.333 C 79.300 90.967, 79 91.267, 79 92 M 90 93 C 90 93.733, 90.300 94.033, 90.667 93.667 C 91.033 93.300, 91.033 92.700, 90.667 92.333 C 90.300 91.967, 90 92.267, 90 93 M 107.250 94.689 C 108.213 94.941, 109.787 94.941, 110.750 94.689 C 111.713 94.438, 110.925 94.232, 109 94.232 C 107.075 94.232, 106.287 94.438, 107.250 94.689 M 114.269 94.693 C 115.242 94.947, 116.592 94.930, 117.269 94.656 C 117.946 94.382, 117.150 94.175, 115.500 94.195 C 113.850 94.215, 113.296 94.439, 114.269 94.693 M 105.750 102.706 C 106.987 102.944, 109.013 102.944, 110.250 102.706 C 111.487 102.467, 110.475 102.272, 108 102.272 C 105.525 102.272, 104.513 102.467, 105.750 102.706 M 79.079 104.583 C 79.127 105.748, 79.364 105.985, 79.683 105.188 C 79.972 104.466, 79.936 103.603, 79.604 103.271 C 79.272 102.939, 79.036 103.529, 79.079 104.583 M 90 104 C 90 104.733, 90.300 105.033, 90.667 104.667 C 91.033 104.300, 91.033 103.700, 90.667 103.333 C 90.300 102.967, 90 103.267, 90 104 M 28.079 106.583 C 28.127 107.748, 28.364 107.985, 28.683 107.188 C 28.972 106.466, 28.936 105.603, 28.604 105.271 C 28.272 104.939, 28.036 105.529, 28.079 106.583 M 162.079 107.583 C 162.127 108.748, 162.364 108.985, 162.683 108.188 C 162.972 107.466, 162.936 106.603, 162.604 106.271 C 162.272 105.939, 162.036 106.529, 162.079 107.583 M 29 111 C 29 111.733, 29.300 112.033, 29.667 111.667 C 30.033 111.300, 30.033 110.700, 29.667 110.333 C 29.300 109.967, 29 110.267, 29 111 M 81 111 C 81 111.733, 81.300 112.033, 81.667 111.667 C 82.033 111.300, 82.033 110.700, 81.667 110.333 C 81.300 109.967, 81 110.267, 81 111 M 161 112 C 161 112.733, 161.300 113.033, 161.667 112.667 C 162.033 112.300, 162.033 111.700, 161.667 111.333 C 161.300 110.967, 161 111.267, 161 112 M 70 113 C 70 113.733, 70.300 114.033, 70.667 113.667 C 71.033 113.300, 71.033 112.700, 70.667 112.333 C 70.300 111.967, 70 112.267, 70 113 M 96.500 114 C 96.840 114.550, 97.343 115, 97.618 115 C 97.893 115, 97.840 114.550, 97.500 114 C 97.160 113.450, 96.657 113, 96.382 113 C 96.107 113, 96.160 113.450, 96.500 114 M 30 115 C 30 115.733, 30.300 116.033, 30.667 115.667 C 31.033 115.300, 31.033 114.700, 30.667 114.333 C 30.300 113.967, 30 114.267, 30 115 M 57.405 115.155 C 56.962 115.870, 57.130 116.038, 57.845 115.595 C 58.480 115.203, 59 114.684, 59 114.441 C 59 113.607, 58.117 114.002, 57.405 115.155 M 160 115 C 160 115.733, 160.300 116.033, 160.667 115.667 C 161.033 115.300, 161.033 114.700, 160.667 114.333 C 160.300 113.967, 160 114.267, 160 115 M 50.762 116.707 C 52.006 116.946, 53.806 116.937, 54.762 116.687 C 55.718 116.437, 54.700 116.241, 52.500 116.252 C 50.300 116.263, 49.518 116.468, 50.762 116.707 M 104.264 116.718 C 105.784 116.947, 108.034 116.941, 109.264 116.704 C 110.494 116.467, 109.250 116.279, 106.500 116.286 C 103.750 116.294, 102.744 116.488, 104.264 116.718 M 159 118 C 159 118.733, 159.300 119.033, 159.667 118.667 C 160.033 118.300, 160.033 117.700, 159.667 117.333 C 159.300 116.967, 159 117.267, 159 118 M 46.158 121 C 46.158 122.375, 46.385 122.938, 46.662 122.250 C 46.940 121.563, 46.940 120.438, 46.662 119.750 C 46.385 119.063, 46.158 119.625, 46.158 121 M 89.500 121 C 89.840 121.550, 90.343 122, 90.618 122 C 90.893 122, 90.840 121.550, 90.500 121 C 90.160 120.450, 89.657 120, 89.382 120 C 89.107 120, 89.160 120.450, 89.500 121 M 120.333 122.667 C 120.700 123.033, 121.300 123.033, 121.667 122.667 C 122.033 122.300, 121.733 122, 121 122 C 120.267 122, 119.967 122.300, 120.333 122.667 M 117.333 123.667 C 117.700 124.033, 118.300 124.033, 118.667 123.667 C 119.033 123.300, 118.733 123, 118 123 C 117.267 123, 116.967 123.300, 117.333 123.667 M 47.813 124.683 C 48.534 124.972, 49.397 124.936, 49.729 124.604 C 50.061 124.272, 49.471 124.036, 48.417 124.079 C 47.252 124.127, 47.015 124.364, 47.813 124.683 M 58.813 124.683 C 59.534 124.972, 60.397 124.936, 60.729 124.604 C 61.061 124.272, 60.471 124.036, 59.417 124.079 C 58.252 124.127, 58.015 124.364, 58.813 124.683 M 98.813 124.683 C 99.534 124.972, 100.397 124.936, 100.729 124.604 C 101.061 124.272, 100.471 124.036, 99.417 124.079 C 98.252 124.127, 98.015 124.364, 98.813 124.683 M 111.750 124.662 C 112.438 124.940, 113.563 124.940, 114.250 124.662 C 114.938 124.385, 114.375 124.158, 113 124.158 C 111.625 124.158, 111.063 124.385, 111.750 124.662 M 35.500 127 C 35.840 127.550, 36.343 128, 36.618 128 C 36.893 128, 36.840 127.550, 36.500 127 C 36.160 126.450, 35.657 126, 35.382 126 C 35.107 126, 35.160 126.450, 35.500 127 M 39.500 133 C 39.840 133.550, 40.343 134, 40.618 134 C 40.893 134, 40.840 133.550, 40.500 133 C 40.160 132.450, 39.657 132, 39.382 132 C 39.107 132, 39.160 132.450, 39.500 133 M 150.405 133.155 C 149.962 133.870, 150.130 134.038, 150.845 133.595 C 151.480 133.203, 152 132.684, 152 132.441 C 152 131.607, 151.117 132.002, 150.405 133.155 M 45.500 140 C 47.648 142.200, 49.631 144, 49.906 144 C 50.181 144, 48.648 142.200, 46.500 140 C 44.352 137.800, 42.369 136, 42.094 136 C 41.819 136, 43.352 137.800, 45.500 140 M 144.453 140.250 L 140.500 144.500 144.750 140.547 C 148.702 136.871, 149.460 136, 148.703 136 C 148.540 136, 146.627 137.912, 144.453 140.250 M 52 145.378 C 52 145.585, 52.788 146.373, 53.750 147.128 C 55.336 148.371, 55.371 148.336, 54.128 146.750 C 52.821 145.084, 52 144.555, 52 145.378 M 136.405 147.155 C 135.962 147.870, 136.130 148.038, 136.845 147.595 C 137.480 147.203, 138 146.684, 138 146.441 C 138 145.607, 137.117 146.002, 136.405 147.155 M 56.500 149 C 56.840 149.550, 57.343 150, 57.618 150 C 57.893 150, 57.840 149.550, 57.500 149 C 57.160 148.450, 56.657 148, 56.382 148 C 56.107 148, 56.160 148.450, 56.500 149 M 133.405 149.155 C 132.962 149.870, 133.130 150.038, 133.845 149.595 C 134.480 149.203, 135 148.684, 135 148.441 C 135 147.607, 134.117 148.002, 133.405 149.155 M 125.333 153.667 C 125.700 154.033, 126.300 154.033, 126.667 153.667 C 127.033 153.300, 126.733 153, 126 153 C 125.267 153, 124.967 153.300, 125.333 153.667 M 114.333 157.667 C 114.700 158.033, 115.300 158.033, 115.667 157.667 C 116.033 157.300, 115.733 157, 115 157 C 114.267 157, 113.967 157.300, 114.333 157.667 M 78.333 158.667 C 78.700 159.033, 79.300 159.033, 79.667 158.667 C 80.033 158.300, 79.733 158, 79 158 C 78.267 158, 77.967 158.300, 78.333 158.667 M 110.813 158.683 C 111.534 158.972, 112.397 158.936, 112.729 158.604 C 113.061 158.272, 112.471 158.036, 111.417 158.079 C 110.252 158.127, 110.015 158.364, 110.813 158.683 M 83.813 159.683 C 84.534 159.972, 85.397 159.936, 85.729 159.604 C 86.061 159.272, 85.471 159.036, 84.417 159.079 C 83.252 159.127, 83.015 159.364, 83.813 159.683 M 104.750 159.662 C 105.438 159.940, 106.563 159.940, 107.250 159.662 C 107.938 159.385, 107.375 159.158, 106 159.158 C 104.625 159.158, 104.063 159.385, 104.750 159.662 M 94.269 160.693 C 95.242 160.947, 96.592 160.930, 97.269 160.656 C 97.946 160.382, 97.150 160.175, 95.500 160.195 C 93.850 160.215, 93.296 160.439, 94.269 160.693" stroke="none" fill="#e6c028" fill-rule="evenodd"/><path d="M 80.500 33.403 C 66.138 36.690, 54.180 43.632, 44.293 54.422 C 29.991 70.030, 24.747 90.962, 29.997 111.489 C 37.075 139.162, 64.799 159.911, 94.792 159.983 C 103.316 160.003, 115.408 157.708, 122.500 154.723 C 141.632 146.673, 156.617 129.690, 161.485 110.540 C 163.427 102.902, 163.427 89.098, 161.485 81.460 C 156.168 60.544, 139.203 42.676, 117.901 35.557 C 107.674 32.139, 90.375 31.143, 80.500 33.403 M 132.655 59.829 C 130.469 62.244, 130.552 66.284, 132.829 68.345 C 136.793 71.933, 143 69.175, 143 63.826 C 143 58.705, 136.089 56.034, 132.655 59.829 M 60.667 71.667 C 60.300 72.033, 60 81.158, 60 91.944 C 60 115.248, 59.750 116, 51.989 116 C 47.200 116, 47.076 116.077, 46.446 119.435 C 46.092 121.324, 46.098 123.349, 46.460 123.935 C 46.822 124.521, 50.175 125, 53.911 125 C 59.309 125, 61.402 124.534, 64.102 122.730 C 70.450 118.489, 70.997 116.074, 70.998 92.250 L 71 71 66.167 71 C 63.508 71, 61.033 71.300, 60.667 71.667 M 96.882 72.323 C 87.317 75.893, 80.689 83.225, 79.428 91.632 C 78.467 98.040, 79.357 106.939, 81.380 111.150 C 83.952 116.506, 89.586 121.671, 94.788 123.444 C 100.130 125.263, 111.221 125.477, 117.557 123.881 L 122 122.763 122 108.600 L 122 94.437 115.250 94.230 C 104.927 93.912, 104 94.306, 104 99.019 C 104 102.997, 104.003 103, 108 103 L 112 103 112 109.500 L 112 116 106.368 116 C 95.589 116, 90.553 110.427, 90.553 98.500 C 90.553 90.411, 92.278 86.364, 97.235 82.829 C 100.089 80.793, 101.657 80.502, 109.689 80.513 L 118.877 80.525 119.834 76.757 C 120.513 74.080, 120.459 72.783, 119.645 72.280 C 117.411 70.898, 100.618 70.930, 96.882 72.323 M 132 99 L 132 124 137.500 124 L 143 124 143 99 L 143 74 137.500 74 L 132 74 132 99" stroke="none" fill="#061f53" fill-rule="evenodd"/></svg>