<svg xmlns="http://www.w3.org/2000/svg" width="52.909" height="51.364" viewBox="0 0 52.909 51.364">
  <g id="online-class" transform="translate(0 -7.476)">
    <circle id="Ellipse_1" data-name="Ellipse 1" cx="0.775" cy="0.775" r="0.775" transform="translate(25.679 46.934)" fill="#ed1c24"/>
    <path id="Path_8" data-name="Path 8" d="M46.966,241.79H33.623a1.436,1.436,0,0,0-1.435,1.435v3.258a1.436,1.436,0,0,0,1.435,1.435H40.15L41.35,249a1.432,1.432,0,0,0,1.919,0l1.2-1.08h2.5a1.436,1.436,0,0,0,1.435-1.435v-3.258A1.436,1.436,0,0,0,46.966,241.79Zm-.115,4.578H44.424a1.433,1.433,0,0,0-.96.368l-1.156,1.04-1.156-1.04a1.433,1.433,0,0,0-.96-.368H33.738V243.34H46.851Z" transform="translate(-28.862 -210.1)" fill="#ed1c24"/>
    <path id="Path_9" data-name="Path 9" d="M50.6,16.423H44.211a4.413,4.413,0,0,0-1.586-.845,8.706,8.706,0,0,0-8.674-8.1h-.525a8.706,8.706,0,0,0-8.67,8.056A4.411,4.411,0,0,0,23,16.423H10.015a.775.775,0,1,0,0,1.55h11.8a4.418,4.418,0,0,0,4.014,6.268c.143,0,.286-.009.427-.023a8.727,8.727,0,0,0,3.383,5.408s-.01,2.722-.019,2.733l0,0c-.008.01-6.01,2.38-6.01,2.38a4.226,4.226,0,0,0-2.319,2.251,17.424,17.424,0,0,0-1.417,6.737H1.55v-25a.756.756,0,0,1,.756-.756H7.1a.775.775,0,0,0,0-1.55H2.306A2.308,2.308,0,0,0,0,18.729V49.383a2.308,2.308,0,0,0,2.306,2.306H20.474l-.809,5.6H17.916a.775.775,0,0,0,0,1.55H34.993a.775.775,0,1,0,0-1.55H33.244l-.809-5.6H40a.775.775,0,0,0,0-1.55H2.306a.756.756,0,0,1-.756-.756v-4.1H51.359v4.1a.756.756,0,0,1-.756.756H43.1a.775.775,0,0,0,0,1.55h7.5a2.308,2.308,0,0,0,2.306-2.306V18.729A2.308,2.308,0,0,0,50.6,16.423ZM22.04,51.688h8.829l.809,5.6H21.231ZM44.257,19.821a2.874,2.874,0,0,1-2.87,2.87h-.045a18.3,18.3,0,0,0-.538-5.68,2.873,2.873,0,0,1,3.453,2.811ZM28.337,16.4a5.039,5.039,0,0,1,4.122-3.6l.105-.015a8.363,8.363,0,0,1,2.246,0l.106.015a5.025,5.025,0,0,1,4.115,3.576c.185.641.333,1.248.45,1.824a5.291,5.291,0,0,1-3.918-2.985.776.776,0,0,0-1.33-.072,9.174,9.174,0,0,1-6.423,3.513A22.17,22.17,0,0,1,28.337,16.4Zm5.088-7.374h.525a7.156,7.156,0,0,1,7.105,6.387,4.453,4.453,0,0,0-.676.1,6.578,6.578,0,0,0-5.246-4.25l-.115-.016a9.908,9.908,0,0,0-2.662,0l-.115.016a6.588,6.588,0,0,0-5.259,4.288,4.4,4.4,0,0,0-.665-.127,7.156,7.156,0,0,1,7.107-6.4ZM22.956,19.821a2.872,2.872,0,0,1,3.608-2.774,18.481,18.481,0,0,0-.529,5.636c-.07.005-.139.008-.209.008a2.874,2.874,0,0,1-2.87-2.87Zm4.657,3.091a13.538,13.538,0,0,1-.013-2.677A11.061,11.061,0,0,0,34.779,16.9a6.684,6.684,0,0,0,4.958,2.9c.529,6.863-2.753,8.5-3.4,8.91a4.962,4.962,0,0,1-5.251.034,7.461,7.461,0,0,1-3.476-5.83ZM36.2,32.468a6.614,6.614,0,0,1-5.019,0c.005-.053.009-1.94.009-1.94a6.531,6.531,0,0,0,5,0S36.192,32.415,36.2,32.468Zm4.9,11.261h-5.07V40.9a.141.141,0,0,1,.141-.141h4.789a.141.141,0,0,1,.141.141v2.832Zm1.55,0V40.9a1.693,1.693,0,0,0-1.691-1.691H36.167A1.693,1.693,0,0,0,34.477,40.9v2.832H21.42A15.886,15.886,0,0,1,22.712,37.6a2.666,2.666,0,0,1,1.463-1.42s6.063-2.4,6.1-2.416a8.17,8.17,0,0,0,6.82,0c.041.02,6.1,2.416,6.1,2.416a2.665,2.665,0,0,1,1.463,1.42,15.886,15.886,0,0,1,1.292,6.126Zm8.712,0H47.506a17.428,17.428,0,0,0-1.417-6.737,4.226,4.226,0,0,0-2.319-2.251s-6-2.37-6.01-2.38l0,0c-.009-.011-.02-2.716-.021-2.731a8.7,8.7,0,0,0,1.456-1.358v0a8.578,8.578,0,0,0,1.265-2,9.908,9.908,0,0,0,.66-2.031c.089.005.179.009.268.009A4.418,4.418,0,0,0,45.4,17.973h5.2a.756.756,0,0,1,.756.756v25Z" fill="#ed1c24"/>
    <path id="Path_10" data-name="Path 10" d="M48.4,148.962a1.436,1.436,0,0,0-1.435-1.435H33.623a1.436,1.436,0,0,0-1.435,1.435v3.258a1.436,1.436,0,0,0,1.435,1.435h2.5l1.2,1.08a1.432,1.432,0,0,0,1.919,0l1.2-1.08h6.527A1.436,1.436,0,0,0,48.4,152.22Zm-1.55,3.143H40.4a1.433,1.433,0,0,0-.96.368l-1.156,1.04-1.156-1.04a1.433,1.433,0,0,0-.96-.368H33.738v-3.027H46.851Z" transform="translate(-28.862 -125.578)" fill="#ed1c24"/>
  </g>
</svg>
