<svg width="41" height="41" viewBox="0 0 41 41" fill="none" xmlns="http://www.w3.org/2000/svg">
<g clip-path="url(#clip0_1_1315)">
<g clip-path="url(#clip1_1_1315)">
<g clip-path="url(#clip2_1_1315)">
<path d="M39.2975 14.741V32.5831C39.2975 34.7643 37.5293 36.5325 35.3481 36.5325H5.142C2.96083 36.5325 1.19263 34.7643 1.19263 32.5831V14.741C1.19263 12.5598 2.96083 10.7916 5.142 10.7916H35.348C37.5293 10.7916 39.2975 12.5598 39.2975 14.741Z" fill="#FF6767"/>
<path d="M39.2975 19.7906V14.741C39.2975 12.5598 37.5293 10.7916 35.3481 10.7916H5.142C2.96083 10.7916 1.19263 12.5598 1.19263 14.741V19.7906C13.0631 24.1916 25.7647 24.1915 39.2975 19.7906Z" fill="white"/>
<path d="M23.1332 22.1012V25.0718C23.1332 25.8466 22.5051 26.4746 21.7304 26.4746H18.7597C17.985 26.4746 17.3569 25.8466 17.3569 25.0718V22.1012C17.3569 21.3264 17.985 20.6984 18.7597 20.6984H21.7304C22.5051 20.6984 23.1332 21.3264 23.1332 22.1012Z" fill="white"/>
<path d="M35.3482 10.3152H28.313V6.89962C28.313 5.00892 26.775 3.47095 24.8843 3.47095H15.6058C13.7151 3.47095 12.1772 5.00892 12.1772 6.89962V10.3153H5.14193C2.70162 10.3153 0.716309 12.3009 0.716309 14.7413V32.5831C0.716309 35.0234 2.70154 37.0091 5.14193 37.0091H35.3482C37.7885 37.0091 39.7738 35.0234 39.7738 32.5831C39.7738 28.4226 39.7738 18.8736 39.7738 14.7413C39.7738 12.3009 37.7885 10.3152 35.3482 10.3152ZM13.1298 6.89962C13.1298 5.53431 14.2406 4.42353 15.6059 4.42353H24.8843C26.2496 4.42353 27.3604 5.53431 27.3604 6.89962V10.3153H13.1298V6.89962ZM35.3482 36.0565H5.14193C3.22701 36.0565 1.66896 34.4984 1.66896 32.5831V20.461C6.57896 22.2109 11.6579 23.2134 16.8808 23.4731V25.072C16.8808 26.1083 17.7236 26.9512 18.76 26.9512H21.7302C22.7665 26.9512 23.6094 26.1084 23.6094 25.072V23.4043C28.5715 23.058 33.6486 22.0692 38.8212 20.4366V32.5831C38.8212 34.4984 37.2631 36.0565 35.3482 36.0565ZM17.8333 25.072V22.1013C17.8333 21.5904 18.249 21.1748 18.7599 21.1748H21.7301C22.2411 21.1748 22.6567 21.5904 22.6567 22.1013V25.072C22.6567 25.5829 22.2411 25.9985 21.7301 25.9985H18.7599C18.249 25.9985 17.8333 25.5829 17.8333 25.072ZM38.8212 19.4441C33.6454 21.1008 28.5687 22.0978 23.6094 22.4495V22.1014C23.6094 21.0651 22.7665 20.2222 21.7301 20.2222H18.7599C17.7236 20.2222 16.8807 21.065 16.8807 22.1014V22.5191C11.653 22.2547 6.57232 21.2413 1.66889 19.4583V14.7413C1.66889 12.826 3.22693 11.268 5.14186 11.268H35.3481C37.263 11.268 38.8211 12.826 38.8211 14.7413L38.8212 19.4441Z" fill="#FF3737"/>
</g>
</g>
</g>
<defs>
<clipPath id="clip0_1_1315">
<rect width="1712" height="992" fill="white" transform="translate(0.244995 0.23999)"/>
</clipPath>
<clipPath id="clip1_1_1315">
<rect width="40" height="40" fill="white" transform="translate(0.244995 0.23999)"/>
</clipPath>
<clipPath id="clip2_1_1315">
<rect width="40" height="40" fill="white" transform="translate(0.244995 0.23999)"/>
</clipPath>
</defs>
</svg>
