<svg width="56" height="148" viewBox="0 0 56 148" fill="none" xmlns="http://www.w3.org/2000/svg">
<path d="M4 147.24C1.79086 147.24 -7.8281e-08 145.449 -1.74846e-07 143.24L-6.25073e-06 4.23999C-6.34729e-06 2.03085 1.79085 0.23999 3.99999 0.23999L60 0.239988L60 147.24L4 147.24Z" fill="#EC1E24"/>
<path d="M19.572 128.746L19.572 124.414L20.604 124.414L20.604 128.746L19.572 128.746ZM24 128.626L24 129.826L15.6 129.826L15.6 123.898L16.644 123.898L16.644 128.626L24 128.626ZM24.072 119.852C24.072 120.492 23.932 121.06 23.652 121.556C23.372 122.052 22.988 122.444 22.5 122.732C22.004 123.02 21.444 123.164 20.82 123.164C20.188 123.164 19.628 123.02 19.14 122.732C18.652 122.444 18.272 122.052 18 121.556C17.72 121.06 17.58 120.492 17.58 119.852C17.58 119.22 17.72 118.656 18 118.16C18.272 117.656 18.652 117.264 19.14 116.984C19.62 116.696 20.18 116.552 20.82 116.552C21.452 116.552 22.012 116.696 22.5 116.984C22.988 117.264 23.372 117.656 23.652 118.16C23.932 118.656 24.072 119.22 24.072 119.852ZM23.064 119.852C23.064 119.444 22.972 119.08 22.788 118.76C22.604 118.432 22.344 118.176 22.008 117.992C21.664 117.808 21.268 117.716 20.82 117.716C20.364 117.716 19.972 117.808 19.644 117.992C19.308 118.176 19.048 118.432 18.864 118.76C18.68 119.08 18.588 119.444 18.588 119.852C18.588 120.26 18.68 120.624 18.864 120.944C19.048 121.264 19.308 121.52 19.644 121.712C19.972 121.904 20.364 122 20.82 122C21.268 122 21.664 121.904 22.008 121.712C22.344 121.52 22.604 121.264 22.788 120.944C22.972 120.624 23.064 120.26 23.064 119.852ZM24 114.959L17.64 114.959L17.64 113.855L19.368 113.855L18.936 113.963C18.496 113.787 18.16 113.491 17.928 113.075C17.696 112.659 17.58 112.147 17.58 111.539L18.696 111.539C18.688 111.587 18.684 111.635 18.684 111.683C18.684 111.723 18.684 111.763 18.684 111.803C18.684 112.419 18.868 112.907 19.236 113.267C19.604 113.627 20.136 113.807 20.832 113.807L24 113.807L24 114.959ZM24.096 102.854C24.096 103.494 23.988 104.09 23.772 104.642C23.556 105.186 23.256 105.658 22.872 106.058C22.48 106.458 22.024 106.77 21.504 106.994C20.984 107.218 20.416 107.33 19.8 107.33C19.184 107.33 18.616 107.218 18.096 106.994C17.576 106.77 17.124 106.458 16.74 106.058C16.348 105.658 16.044 105.186 15.828 104.642C15.612 104.098 15.504 103.502 15.504 102.854C15.504 102.214 15.612 101.626 15.828 101.09C16.036 100.546 16.336 100.074 16.728 99.674C17.112 99.266 17.564 98.954 18.084 98.738C18.604 98.514 19.176 98.402 19.8 98.402C20.424 98.402 20.996 98.514 21.516 98.738C22.036 98.954 22.492 99.266 22.884 99.674C23.268 100.074 23.568 100.546 23.784 101.09C23.992 101.626 24.096 102.214 24.096 102.854ZM25.752 100.106C25.752 100.386 25.716 100.654 25.644 100.91C25.58 101.166 25.472 101.422 25.32 101.678C25.176 101.934 24.984 102.198 24.744 102.47C24.512 102.742 24.224 103.038 23.88 103.358L23.544 102.074C23.84 101.834 24.08 101.606 24.264 101.39C24.456 101.166 24.592 100.946 24.672 100.73C24.76 100.514 24.804 100.302 24.804 100.094C24.804 99.494 24.564 98.982 24.084 98.558L24.768 97.994C25.424 98.538 25.752 99.242 25.752 100.106ZM23.028 102.854C23.028 102.39 22.948 101.962 22.788 101.57C22.628 101.17 22.4 100.826 22.104 100.538C21.808 100.242 21.464 100.014 21.072 99.854C20.68 99.686 20.256 99.602 19.8 99.602C19.336 99.602 18.908 99.686 18.516 99.854C18.124 100.014 17.784 100.242 17.496 100.538C17.2 100.826 16.972 101.17 16.812 101.57C16.652 101.962 16.572 102.39 16.572 102.854C16.572 103.326 16.652 103.762 16.812 104.162C16.972 104.554 17.2 104.898 17.496 105.194C17.784 105.49 18.124 105.722 18.516 105.89C18.908 106.05 19.336 106.13 19.8 106.13C20.256 106.13 20.68 106.05 21.072 105.89C21.464 105.722 21.808 105.49 22.104 105.194C22.4 104.898 22.628 104.554 22.788 104.162C22.948 103.762 23.028 103.326 23.028 102.854ZM24.072 94.0599C24.072 94.6039 23.972 95.0839 23.772 95.4999C23.572 95.9079 23.268 96.2279 22.86 96.4599C22.444 96.6839 21.924 96.7959 21.3 96.7959L17.64 96.7959L17.64 95.6439L21.168 95.6439C21.792 95.6439 22.26 95.4959 22.572 95.1999C22.884 94.8959 23.04 94.4719 23.04 93.9279C23.04 93.5279 22.96 93.1799 22.8 92.8839C22.632 92.5879 22.392 92.3599 22.08 92.1999C21.76 92.0399 21.376 91.9599 20.928 91.9599L17.64 91.9599L17.64 90.8079L24 90.8079L24 91.8999L22.284 91.8999L22.74 91.7199C23.164 91.9279 23.492 92.2399 23.724 92.6559C23.956 93.0719 24.072 93.5399 24.072 94.0599ZM24.072 85.7828C24.072 86.4628 23.932 87.0628 23.652 87.5828C23.372 88.0948 22.988 88.4948 22.5 88.7828C22.012 89.0628 21.452 89.2028 20.82 89.2028C20.188 89.2028 19.628 89.0668 19.14 88.7948C18.652 88.5148 18.272 88.1348 18 87.6548C17.72 87.1668 17.58 86.6188 17.58 86.0108C17.58 85.3948 17.716 84.8508 17.988 84.3788C18.26 83.9068 18.644 83.5388 19.14 83.2748C19.628 83.0028 20.2 82.8668 20.856 82.8668C20.904 82.8668 20.96 82.8708 21.024 82.8788C21.088 82.8788 21.148 82.8828 21.204 82.8908L21.204 88.3028L20.376 88.3028L20.376 83.4908L20.664 83.9588C20.256 83.9508 19.892 84.0348 19.572 84.2108C19.252 84.3868 19.004 84.6308 18.828 84.9428C18.644 85.2468 18.552 85.6028 18.552 86.0108C18.552 86.4108 18.644 86.7668 18.828 87.0788C19.004 87.3908 19.256 87.6348 19.584 87.8108C19.904 87.9868 20.272 88.0748 20.688 88.0748L20.88 88.0748C21.304 88.0748 21.684 87.9788 22.02 87.7868C22.348 87.5868 22.604 87.3108 22.788 86.9588C22.972 86.6068 23.064 86.2028 23.064 85.7468C23.064 85.3708 23 85.0308 22.872 84.7268C22.744 84.4148 22.552 84.1428 22.296 83.9108L23.04 83.2748C23.376 83.5628 23.632 83.9228 23.808 84.3548C23.984 84.7788 24.072 85.2548 24.072 85.7828ZM24 81.2671L17.64 81.2671L17.64 80.1631L19.368 80.1631L18.936 80.2711C18.496 80.0951 18.16 79.7991 17.928 79.3831C17.696 78.9671 17.58 78.4551 17.58 77.8471L18.696 77.8471C18.688 77.8951 18.684 77.9431 18.684 77.9911C18.684 78.0311 18.684 78.0711 18.684 78.1111C18.684 78.7271 18.868 79.2151 19.236 79.5751C19.604 79.9351 20.136 80.1151 20.832 80.1151L24 80.1151L24 81.2671ZM24 76.4273L17.64 76.4273L17.64 75.2753L24 75.2753L24 76.4273ZM16.416 75.8513C16.416 76.0753 16.344 76.2633 16.2 76.4153C16.056 76.5593 15.88 76.6313 15.672 76.6313C15.456 76.6313 15.276 76.5593 15.132 76.4153C14.988 76.2633 14.916 76.0753 14.916 75.8513C14.916 75.6273 14.988 75.4433 15.132 75.2993C15.268 75.1473 15.44 75.0713 15.648 75.0713C15.864 75.0713 16.048 75.1433 16.2 75.2873C16.344 75.4313 16.416 75.6193 16.416 75.8513ZM24.072 70.2437C24.072 70.9237 23.932 71.5237 23.652 72.0437C23.372 72.5557 22.988 72.9557 22.5 73.2437C22.012 73.5237 21.452 73.6637 20.82 73.6637C20.188 73.6637 19.628 73.5277 19.14 73.2557C18.652 72.9757 18.272 72.5957 18 72.1157C17.72 71.6277 17.58 71.0797 17.58 70.4717C17.58 69.8557 17.716 69.3117 17.988 68.8397C18.26 68.3677 18.644 67.9997 19.14 67.7357C19.628 67.4637 20.2 67.3277 20.856 67.3277C20.904 67.3277 20.96 67.3317 21.024 67.3397C21.088 67.3397 21.148 67.3437 21.204 67.3517L21.204 72.7637L20.376 72.7637L20.376 67.9517L20.664 68.4197C20.256 68.4117 19.892 68.4957 19.572 68.6717C19.252 68.8477 19.004 69.0917 18.828 69.4037C18.644 69.7077 18.552 70.0637 18.552 70.4717C18.552 70.8717 18.644 71.2277 18.828 71.5397C19.004 71.8517 19.256 72.0957 19.584 72.2717C19.904 72.4477 20.272 72.5357 20.688 72.5357L20.88 72.5357C21.304 72.5357 21.684 72.4397 22.02 72.2477C22.348 72.0477 22.604 71.7717 22.788 71.4197C22.972 71.0677 23.064 70.6637 23.064 70.2077C23.064 69.8317 23 69.4917 22.872 69.1877C22.744 68.8757 22.552 68.6037 22.296 68.3717L23.04 67.7357C23.376 68.0237 23.632 68.3837 23.808 68.8157C23.984 69.2397 24.072 69.7157 24.072 70.2437ZM24.072 63.9041C24.072 64.4321 24 64.9361 23.856 65.4161C23.712 65.8881 23.536 66.2601 23.328 66.5321L22.416 66.0521C22.6 65.7801 22.756 65.4441 22.884 65.0441C23.012 64.6441 23.076 64.2361 23.076 63.8201C23.076 63.2841 23 62.9001 22.848 62.6681C22.696 62.4281 22.484 62.3081 22.212 62.3081C22.012 62.3081 21.856 62.3801 21.744 62.5241C21.632 62.6681 21.548 62.8601 21.492 63.1001C21.436 63.3321 21.388 63.5921 21.348 63.8801C21.3 64.1681 21.244 64.4561 21.18 64.7441C21.108 65.0321 21.012 65.2961 20.892 65.5361C20.764 65.7761 20.592 65.9681 20.376 66.1121C20.152 66.2561 19.856 66.3281 19.488 66.3281C19.104 66.3281 18.768 66.2201 18.48 66.0041C18.192 65.7881 17.972 65.4841 17.82 65.0921C17.66 64.6921 17.58 64.2201 17.58 63.6761C17.58 63.2601 17.632 62.8401 17.736 62.4161C17.832 61.9841 17.972 61.6321 18.156 61.3601L19.068 61.8521C18.876 62.1401 18.744 62.4401 18.672 62.7521C18.6 63.0641 18.564 63.3761 18.564 63.6881C18.564 64.1921 18.648 64.5681 18.816 64.8161C18.976 65.0641 19.184 65.1881 19.44 65.1881C19.656 65.1881 19.824 65.1161 19.944 64.9721C20.056 64.8201 20.144 64.6281 20.208 64.3961C20.272 64.1561 20.328 63.8921 20.376 63.6041C20.416 63.3161 20.472 63.0281 20.544 62.7401C20.608 62.4521 20.7 62.1921 20.82 61.9601C20.94 61.7201 21.108 61.5281 21.324 61.3841C21.54 61.2321 21.828 61.1561 22.188 61.1561C22.572 61.1561 22.904 61.2681 23.184 61.4921C23.464 61.7161 23.684 62.0321 23.844 62.4401C23.996 62.8481 24.072 63.3361 24.072 63.9041ZM24.096 52.5697C24.096 53.2097 23.992 53.8017 23.784 54.3457C23.568 54.8817 23.268 55.3497 22.884 55.7497C22.492 56.1417 22.036 56.4497 21.516 56.6737C20.996 56.8977 20.424 57.0097 19.8 57.0097C19.176 57.0097 18.604 56.8977 18.084 56.6737C17.564 56.4497 17.112 56.1377 16.728 55.7377C16.336 55.3377 16.036 54.8697 15.828 54.3337C15.612 53.7897 15.504 53.1977 15.504 52.5577C15.504 51.9097 15.616 51.3137 15.84 50.7697C16.056 50.2177 16.38 49.7497 16.812 49.3657L17.568 50.1457C17.232 50.4657 16.984 50.8257 16.824 51.2257C16.656 51.6257 16.572 52.0537 16.572 52.5097C16.572 52.9817 16.652 53.4217 16.812 53.8297C16.972 54.2297 17.196 54.5777 17.484 54.8737C17.772 55.1697 18.116 55.4017 18.516 55.5697C18.908 55.7297 19.336 55.8097 19.8 55.8097C20.264 55.8097 20.696 55.7297 21.096 55.5697C21.488 55.4017 21.828 55.1697 22.116 54.8737C22.404 54.5777 22.628 54.2297 22.788 53.8297C22.948 53.4217 23.028 52.9817 23.028 52.5097C23.028 52.0537 22.948 51.6257 22.788 51.2257C22.62 50.8257 22.364 50.4657 22.02 50.1457L22.776 49.3657C23.208 49.7497 23.536 50.2177 23.76 50.7697C23.984 51.3137 24.096 51.9137 24.096 52.5697ZM24 43.9558L22.656 43.9558L22.404 44.0158L20.112 44.0158C19.624 44.0158 19.248 44.1598 18.984 44.4478C18.712 44.7278 18.576 45.1518 18.576 45.7198C18.576 46.0958 18.64 46.4638 18.768 46.8238C18.888 47.1838 19.052 47.4878 19.26 47.7358L18.396 48.2158C18.132 47.8878 17.932 47.4958 17.796 47.0398C17.652 46.5758 17.58 46.0918 17.58 45.5878C17.58 44.7158 17.792 44.0438 18.216 43.5718C18.64 43.0998 19.288 42.8638 20.16 42.8638L24 42.8638L24 43.9558ZM24.072 46.0438C24.072 46.5158 23.992 46.9318 23.832 47.2918C23.672 47.6438 23.452 47.9158 23.172 48.1078C22.884 48.2998 22.56 48.3958 22.2 48.3958C21.856 48.3958 21.544 48.3158 21.264 48.1558C20.984 47.9878 20.76 47.7198 20.592 47.3518C20.424 46.9758 20.34 46.4718 20.34 45.8398L20.34 43.8238L21.168 43.8238L21.168 45.7918C21.168 46.3678 21.264 46.7558 21.456 46.9558C21.648 47.1558 21.88 47.2558 22.152 47.2558C22.464 47.2558 22.716 47.1318 22.908 46.8838C23.092 46.6358 23.184 46.2918 23.184 45.8518C23.184 45.4198 23.088 45.0438 22.896 44.7238C22.704 44.3958 22.424 44.1598 22.056 44.0158L22.848 43.7878C23.224 43.9398 23.524 44.2078 23.748 44.5918C23.964 44.9758 24.072 45.4598 24.072 46.0438ZM24 40.732L15.096 40.732L15.096 39.58L24 39.58L24 40.732ZM24 37.3804L15.096 37.3804L15.096 36.2284L24 36.2284L24 37.3804ZM24.096 27.1582C24.096 28.2622 23.78 29.1302 23.148 29.7622C22.516 30.3942 21.592 30.7102 20.376 30.7102L15.6 30.7102L15.6 29.5102L20.328 29.5102C21.264 29.5102 21.948 29.3062 22.38 28.8982C22.812 28.4822 23.028 27.8982 23.028 27.1462C23.028 26.3862 22.812 25.8022 22.38 25.3942C21.948 24.9782 21.264 24.7702 20.328 24.7702L15.6 24.7702L15.6 23.6062L20.376 23.6062C21.592 23.6062 22.516 23.9222 23.148 24.5542C23.78 25.1782 24.096 26.0462 24.096 27.1582ZM24.072 19.49C24.072 20.018 24 20.522 23.856 21.002C23.712 21.474 23.536 21.846 23.328 22.118L22.416 21.638C22.6 21.366 22.756 21.03 22.884 20.63C23.012 20.23 23.076 19.822 23.076 19.406C23.076 18.87 23 18.486 22.848 18.254C22.696 18.014 22.484 17.894 22.212 17.894C22.012 17.894 21.856 17.966 21.744 18.11C21.632 18.254 21.548 18.446 21.492 18.686C21.436 18.918 21.388 19.178 21.348 19.466C21.3 19.754 21.244 20.042 21.18 20.33C21.108 20.618 21.012 20.882 20.892 21.122C20.764 21.362 20.592 21.554 20.376 21.698C20.152 21.842 19.856 21.914 19.488 21.914C19.104 21.914 18.768 21.806 18.48 21.59C18.192 21.374 17.972 21.07 17.82 20.678C17.66 20.278 17.58 19.806 17.58 19.262C17.58 18.846 17.632 18.426 17.736 18.002C17.832 17.57 17.972 17.218 18.156 16.946L19.068 17.438C18.876 17.726 18.744 18.026 18.672 18.338C18.6 18.65 18.564 18.962 18.564 19.274C18.564 19.778 18.648 20.154 18.816 20.402C18.976 20.65 19.184 20.774 19.44 20.774C19.656 20.774 19.824 20.702 19.944 20.558C20.056 20.406 20.144 20.214 20.208 19.982C20.272 19.742 20.328 19.478 20.376 19.19C20.416 18.902 20.472 18.614 20.544 18.326C20.608 18.038 20.7 17.778 20.82 17.546C20.94 17.306 21.108 17.114 21.324 16.97C21.54 16.818 21.828 16.742 22.188 16.742C22.572 16.742 22.904 16.854 23.184 17.078C23.464 17.302 23.684 17.618 23.844 18.026C23.996 18.434 24.072 18.922 24.072 19.49Z" fill="white"/>
<path d="M42.488 118.428C42.488 117.908 42.316 117.508 41.972 117.228C41.62 116.94 41.144 116.764 40.544 116.7C40.888 117.212 41.06 117.764 41.06 118.356C41.06 119.14 40.804 119.796 40.292 120.324C39.772 120.844 39.088 121.104 38.24 121.104C37.392 121.104 36.712 120.824 36.2 120.264C35.68 119.696 35.42 118.984 35.42 118.128C35.42 117.536 35.536 117.024 35.768 116.592C35.992 116.152 36.308 115.808 36.716 115.56C37.508 115.088 38.5 114.852 39.692 114.852C40.46 114.852 41.136 114.948 41.72 115.14C42.296 115.324 42.752 115.576 43.088 115.896C43.76 116.552 44.096 117.348 44.096 118.284C44.096 118.676 44.04 119.052 43.928 119.412C43.808 119.772 43.692 120.044 43.58 120.228C43.46 120.412 43.308 120.624 43.124 120.864L41.804 119.928C41.852 119.872 41.916 119.8 41.996 119.712C42.068 119.616 42.168 119.436 42.296 119.172C42.424 118.908 42.488 118.66 42.488 118.428ZM39.464 118.176C39.464 117.8 39.356 117.488 39.14 117.24C38.924 116.992 38.64 116.868 38.288 116.868C37.936 116.868 37.632 116.988 37.376 117.228C37.12 117.468 36.992 117.768 36.992 118.128C36.992 118.488 37.108 118.784 37.34 119.016C37.564 119.24 37.852 119.352 38.204 119.352C38.556 119.352 38.856 119.248 39.104 119.04C39.344 118.832 39.464 118.544 39.464 118.176ZM38.3 113.617L35.612 113.617L35.612 107.557L37.028 107.557L44 110.953L44 112.993L37.22 109.753L37.22 111.865L38.3 111.865L38.3 113.617ZM36.08 105.468C35.64 104.908 35.42 104.212 35.42 103.38C35.42 102.548 35.64 101.856 36.08 101.304C36.52 100.752 37.064 100.476 37.712 100.476C38.352 100.476 38.904 100.724 39.368 101.22C39.904 100.524 40.608 100.176 41.48 100.176C42.216 100.176 42.836 100.472 43.34 101.064C43.844 101.656 44.096 102.428 44.096 103.38C44.096 104.332 43.844 105.104 43.34 105.696C42.836 106.288 42.216 106.584 41.48 106.584C40.608 106.584 39.904 106.236 39.368 105.54C38.896 106.044 38.34 106.296 37.7 106.296C37.06 106.296 36.52 106.02 36.08 105.468ZM42.26 104.292C42.444 104.012 42.536 103.708 42.536 103.38C42.536 103.052 42.444 102.748 42.26 102.468C42.068 102.188 41.792 102.048 41.432 102.048C41.072 102.048 40.796 102.184 40.604 102.456C40.412 102.728 40.316 103.036 40.316 103.38C40.316 103.724 40.412 104.032 40.604 104.304C40.796 104.576 41.072 104.712 41.432 104.712C41.792 104.712 42.068 104.572 42.26 104.292ZM38.588 104.184C38.78 103.952 38.876 103.684 38.876 103.38C38.876 103.076 38.78 102.812 38.588 102.588C38.396 102.356 38.16 102.24 37.88 102.24C37.592 102.24 37.352 102.352 37.16 102.576C36.968 102.8 36.872 103.068 36.872 103.38C36.872 103.692 36.968 103.96 37.16 104.184C37.352 104.408 37.592 104.52 37.88 104.52C38.16 104.52 38.396 104.408 38.588 104.184ZM35.612 93.461L37.232 93.461L37.232 96.773L38.636 96.773C38.564 96.525 38.528 96.241 38.528 95.921C38.528 95.113 38.772 94.417 39.26 93.833C39.748 93.249 40.408 92.957 41.24 92.957C42.064 92.957 42.748 93.261 43.292 93.869C43.828 94.469 44.096 95.213 44.096 96.101C44.096 97.237 43.676 98.185 42.836 98.945L41.468 97.961C41.54 97.889 41.628 97.793 41.732 97.673C41.836 97.553 41.976 97.333 42.152 97.013C42.32 96.693 42.404 96.373 42.404 96.053C42.404 95.733 42.308 95.449 42.116 95.201C41.924 94.953 41.64 94.829 41.264 94.829C40.888 94.829 40.6 94.965 40.4 95.237C40.192 95.501 40.088 95.845 40.088 96.269C40.088 96.693 40.24 97.185 40.544 97.745L39.704 98.525L35.612 98.525L35.612 93.461ZM41.192 91.5805L39.596 91.5805L39.596 87.3085L41.192 87.3085L41.192 91.5805ZM36.08 81.5736C35.64 81.0136 35.42 80.3176 35.42 79.4856C35.42 78.6536 35.64 77.9616 36.08 77.4096C36.52 76.8576 37.064 76.5816 37.712 76.5816C38.352 76.5816 38.904 76.8296 39.368 77.3256C39.904 76.6296 40.608 76.2816 41.48 76.2816C42.216 76.2816 42.836 76.5776 43.34 77.1696C43.844 77.7616 44.096 78.5336 44.096 79.4856C44.096 80.4376 43.844 81.2096 43.34 81.8016C42.836 82.3936 42.216 82.6896 41.48 82.6896C40.608 82.6896 39.904 82.3416 39.368 81.6456C38.896 82.1496 38.34 82.4016 37.7 82.4016C37.06 82.4016 36.52 82.1256 36.08 81.5736ZM42.26 80.3976C42.444 80.1176 42.536 79.8136 42.536 79.4856C42.536 79.1576 42.444 78.8536 42.26 78.5736C42.068 78.2936 41.792 78.1536 41.432 78.1536C41.072 78.1536 40.796 78.2896 40.604 78.5616C40.412 78.8336 40.316 79.1416 40.316 79.4856C40.316 79.8296 40.412 80.1376 40.604 80.4096C40.796 80.6816 41.072 80.8176 41.432 80.8176C41.792 80.8176 42.068 80.6776 42.26 80.3976ZM38.588 80.2896C38.78 80.0576 38.876 79.7896 38.876 79.4856C38.876 79.1816 38.78 78.9176 38.588 78.6936C38.396 78.4616 38.16 78.3456 37.88 78.3456C37.592 78.3456 37.352 78.4576 37.16 78.6816C36.968 78.9056 36.872 79.1736 36.872 79.4856C36.872 79.7976 36.968 80.0656 37.16 80.2896C37.352 80.5136 37.592 80.6256 37.88 80.6256C38.16 80.6256 38.396 80.5136 38.588 80.2896ZM37.736 72.7344C38.248 72.9984 38.924 73.1304 39.764 73.1304C40.604 73.1304 41.28 72.9984 41.792 72.7344C42.304 72.4704 42.56 72.0584 42.56 71.4984C42.56 70.9384 42.304 70.5264 41.792 70.2624C41.28 69.9984 40.604 69.8664 39.764 69.8664C38.924 69.8664 38.248 69.9984 37.736 70.2624C37.224 70.5264 36.968 70.9384 36.968 71.4984C36.968 72.0584 37.224 72.4704 37.736 72.7344ZM44.096 71.4984C44.096 72.6584 43.704 73.5264 42.92 74.1024C42.128 74.6784 41.076 74.9664 39.764 74.9664C38.444 74.9664 37.392 74.6784 36.608 74.1024C35.816 73.5264 35.42 72.6584 35.42 71.4984C35.42 70.3384 35.816 69.4704 36.608 68.8944C37.392 68.3184 38.444 68.0304 39.764 68.0304C41.076 68.0304 42.128 68.3184 42.92 68.8944C43.704 69.4704 44.096 70.3384 44.096 71.4984ZM37.736 64.4493C38.248 64.7133 38.924 64.8453 39.764 64.8453C40.604 64.8453 41.28 64.7133 41.792 64.4493C42.304 64.1853 42.56 63.7733 42.56 63.2133C42.56 62.6533 42.304 62.2413 41.792 61.9773C41.28 61.7133 40.604 61.5813 39.764 61.5813C38.924 61.5813 38.248 61.7133 37.736 61.9773C37.224 62.2413 36.968 62.6533 36.968 63.2133C36.968 63.7733 37.224 64.1853 37.736 64.4493ZM44.096 63.2133C44.096 64.3733 43.704 65.2413 42.92 65.8173C42.128 66.3933 41.076 66.6813 39.764 66.6813C38.444 66.6813 37.392 66.3933 36.608 65.8173C35.816 65.2413 35.42 64.3733 35.42 63.2133C35.42 62.0533 35.816 61.1853 36.608 60.6093C37.392 60.0333 38.444 59.7453 39.764 59.7453C41.076 59.7453 42.128 60.0333 42.92 60.6093C43.704 61.1853 44.096 62.0533 44.096 63.2133ZM41.192 58.2641L39.596 58.2641L39.596 53.9921L41.192 53.9921L41.192 58.2641ZM37.736 47.1172C38.248 47.3812 38.924 47.5132 39.764 47.5132C40.604 47.5132 41.28 47.3812 41.792 47.1172C42.304 46.8532 42.56 46.4412 42.56 45.8812C42.56 45.3212 42.304 44.9092 41.792 44.6452C41.28 44.3812 40.604 44.2492 39.764 44.2492C38.924 44.2492 38.248 44.3812 37.736 44.6452C37.224 44.9092 36.968 45.3212 36.968 45.8812C36.968 46.4412 37.224 46.8532 37.736 47.1172ZM44.096 45.8812C44.096 47.0412 43.704 47.9092 42.92 48.4852C42.128 49.0612 41.076 49.3492 39.764 49.3492C38.444 49.3492 37.392 49.0612 36.608 48.4852C35.816 47.9092 35.42 47.0412 35.42 45.8812C35.42 44.7212 35.816 43.8532 36.608 43.2772C37.392 42.7012 38.444 42.4132 39.764 42.4132C41.076 42.4132 42.128 42.7012 42.92 43.2772C43.704 43.8532 44.096 44.7212 44.096 45.8812ZM37.736 38.8321C38.248 39.0961 38.924 39.2281 39.764 39.2281C40.604 39.2281 41.28 39.0961 41.792 38.8321C42.304 38.5681 42.56 38.1561 42.56 37.5961C42.56 37.0361 42.304 36.6241 41.792 36.3601C41.28 36.0961 40.604 35.9641 39.764 35.9641C38.924 35.9641 38.248 36.0961 37.736 36.3601C37.224 36.6241 36.968 37.0361 36.968 37.5961C36.968 38.1561 37.224 38.5681 37.736 38.8321ZM44.096 37.5961C44.096 38.7561 43.704 39.6241 42.92 40.2001C42.128 40.7761 41.076 41.0641 39.764 41.0641C38.444 41.0641 37.392 40.7761 36.608 40.2001C35.816 39.6241 35.42 38.7561 35.42 37.5961C35.42 36.4361 35.816 35.5681 36.608 34.9921C37.392 34.4161 38.444 34.1281 39.764 34.1281C41.076 34.1281 42.128 34.4161 42.92 34.9921C43.704 35.5681 44.096 36.4361 44.096 37.5961ZM36.08 31.6869C35.64 31.1269 35.42 30.4309 35.42 29.5989C35.42 28.7669 35.64 28.0749 36.08 27.5229C36.52 26.9709 37.064 26.6949 37.712 26.6949C38.352 26.6949 38.904 26.9429 39.368 27.4389C39.904 26.7429 40.608 26.3949 41.48 26.3949C42.216 26.3949 42.836 26.6909 43.34 27.2829C43.844 27.8749 44.096 28.6469 44.096 29.5989C44.096 30.5509 43.844 31.3229 43.34 31.9149C42.836 32.5069 42.216 32.8029 41.48 32.8029C40.608 32.8029 39.904 32.4549 39.368 31.7589C38.896 32.2629 38.34 32.5149 37.7 32.5149C37.06 32.5149 36.52 32.2389 36.08 31.6869ZM42.26 30.5109C42.444 30.2309 42.536 29.9269 42.536 29.5989C42.536 29.2709 42.444 28.9669 42.26 28.6869C42.068 28.4069 41.792 28.2669 41.432 28.2669C41.072 28.2669 40.796 28.4029 40.604 28.6749C40.412 28.9469 40.316 29.2549 40.316 29.5989C40.316 29.9429 40.412 30.2509 40.604 30.5229C40.796 30.7949 41.072 30.9309 41.432 30.9309C41.792 30.9309 42.068 30.7909 42.26 30.5109ZM38.588 30.4029C38.78 30.1709 38.876 29.9029 38.876 29.5989C38.876 29.2949 38.78 29.0309 38.588 28.8069C38.396 28.5749 38.16 28.4589 37.88 28.4589C37.592 28.4589 37.352 28.5709 37.16 28.7949C36.968 29.0189 36.872 29.2869 36.872 29.5989C36.872 29.9109 36.968 30.1789 37.16 30.4029C37.352 30.6269 37.592 30.7389 37.88 30.7389C38.16 30.7389 38.396 30.6269 38.588 30.4029Z" fill="white"/>
</svg>
