<svg width="20" height="20" viewBox="0 0 20 20" fill="none" xmlns="http://www.w3.org/2000/svg">
<path d="M8.49185 2.71938H6.90826C6.90826 2.50938 6.82484 2.30798 6.67635 2.15949C6.52786 2.011 6.32646 1.92758 6.11646 1.92758C5.90647 1.92758 5.70507 2.011 5.55658 2.15949C5.40809 2.30798 5.32467 2.50938 5.32467 2.71938H3.74255C3.74255 2.08958 3.99274 1.48558 4.43807 1.04024C4.88341 0.594912 5.48741 0.344727 6.1172 0.344727C6.747 0.344727 7.351 0.594912 7.79633 1.04024C8.24167 1.48558 8.49185 2.08958 8.49185 2.71938Z" fill="#EC1E24"/>
<path d="M16.4081 2.71938H14.8245C14.8245 2.50938 14.7411 2.30798 14.5926 2.15949C14.4441 2.011 14.2427 1.92758 14.0327 1.92758C13.8227 1.92758 13.6213 2.011 13.4728 2.15949C13.3243 2.30798 13.2409 2.50938 13.2409 2.71938H11.6588C11.6588 2.08958 11.909 1.48558 12.3543 1.04024C12.7997 0.594912 13.4037 0.344727 14.0335 0.344727C14.6633 0.344727 15.2673 0.594912 15.7126 1.04024C16.1579 1.48558 16.4081 2.08958 16.4081 2.71938Z" fill="#EC1E24"/>
<path d="M0.576294 9.85107V17.1426C0.60021 17.7486 0.862466 18.3206 1.306 18.7342C1.74954 19.1478 2.33846 19.3695 2.94463 19.3511H17.1946C17.8008 19.3695 18.3897 19.1478 18.8333 18.7342C19.2768 18.3206 19.5391 17.7486 19.563 17.1426V9.85107H0.576294ZM5.32629 16.9753C5.16967 16.9753 5.01656 16.9289 4.88633 16.8419C4.7561 16.7549 4.6546 16.6312 4.59466 16.4865C4.53472 16.3418 4.51904 16.1825 4.5496 16.0289C4.58015 15.8753 4.65558 15.7342 4.76633 15.6235C4.87708 15.5127 5.01818 15.4373 5.1718 15.4067C5.32542 15.3762 5.48464 15.3919 5.62935 15.4518C5.77405 15.5117 5.89773 15.6132 5.98475 15.7435C6.07176 15.8737 6.11821 16.0268 6.11821 16.1834C6.11821 16.3934 6.03477 16.5949 5.88626 16.7434C5.73775 16.8919 5.53632 16.9753 5.32629 16.9753ZM5.32629 13.8092C5.16967 13.8092 5.01656 13.7627 4.88633 13.6757C4.7561 13.5887 4.6546 13.465 4.59466 13.3203C4.53472 13.1756 4.51904 13.0164 4.5496 12.8628C4.58015 12.7091 4.65558 12.568 4.76633 12.4573C4.87708 12.3465 5.01818 12.2711 5.1718 12.2406C5.32542 12.21 5.48464 12.2257 5.62935 12.2856C5.77405 12.3456 5.89773 12.4471 5.98475 12.5773C6.07176 12.7075 6.11821 12.8606 6.11821 13.0172C6.11821 13.2273 6.03477 13.4287 5.88626 13.5772C5.73775 13.7257 5.53632 13.8092 5.32629 13.8092ZM10.0763 16.9753C9.91967 16.9753 9.76656 16.9289 9.63633 16.8419C9.5061 16.7549 9.4046 16.6312 9.34466 16.4865C9.28472 16.3418 9.26904 16.1825 9.2996 16.0289C9.33015 15.8753 9.40558 15.7342 9.51633 15.6235C9.62708 15.5127 9.76818 15.4373 9.9218 15.4067C10.0754 15.3762 10.2346 15.3919 10.3793 15.4518C10.524 15.5117 10.6477 15.6132 10.7347 15.7435C10.8218 15.8737 10.8682 16.0268 10.8682 16.1834C10.8682 16.3934 10.7848 16.5949 10.6363 16.7434C10.4877 16.8919 10.2863 16.9753 10.0763 16.9753ZM10.0763 13.8092C9.91967 13.8092 9.76656 13.7627 9.63633 13.6757C9.5061 13.5887 9.4046 13.465 9.34466 13.3203C9.28472 13.1756 9.26904 13.0164 9.2996 12.8628C9.33015 12.7091 9.40558 12.568 9.51633 12.4573C9.62708 12.3465 9.76818 12.2711 9.9218 12.2406C10.0754 12.21 10.2346 12.2257 10.3793 12.2856C10.524 12.3456 10.6477 12.4471 10.7347 12.5773C10.8218 12.7075 10.8682 12.8606 10.8682 13.0172C10.8682 13.2273 10.7848 13.4287 10.6363 13.5772C10.4877 13.7257 10.2863 13.8092 10.0763 13.8092ZM14.8263 16.9753C14.6697 16.9753 14.5166 16.9289 14.3863 16.8419C14.2561 16.7549 14.1546 16.6312 14.0947 16.4865C14.0347 16.3418 14.019 16.1825 14.0496 16.0289C14.0802 15.8753 14.1556 15.7342 14.2663 15.6235C14.3771 15.5127 14.5182 15.4373 14.6718 15.4067C14.8254 15.3762 14.9846 15.3919 15.1293 15.4518C15.274 15.5117 15.3977 15.6132 15.4847 15.7435C15.5718 15.8737 15.6182 16.0268 15.6182 16.1834C15.6182 16.2874 15.5977 16.3904 15.5579 16.4865C15.5181 16.5826 15.4598 16.6699 15.3863 16.7434C15.3127 16.8169 15.2254 16.8753 15.1293 16.9151C15.0333 16.9549 14.9303 16.9753 14.8263 16.9753ZM14.8263 13.8092C14.6697 13.8092 14.5166 13.7627 14.3863 13.6757C14.2561 13.5887 14.1546 13.465 14.0947 13.3203C14.0347 13.1756 14.019 13.0164 14.0496 12.8628C14.0802 12.7091 14.1556 12.568 14.2663 12.4573C14.3771 12.3465 14.5182 12.2711 14.6718 12.2406C14.8254 12.21 14.9846 12.2257 15.1293 12.2856C15.274 12.3456 15.3977 12.4471 15.4847 12.5773C15.5718 12.7075 15.6182 12.8606 15.6182 13.0172C15.6182 13.1212 15.5977 13.2242 15.5579 13.3203C15.5181 13.4164 15.4598 13.5037 15.3863 13.5772C15.3127 13.6508 15.2254 13.7091 15.1293 13.7489C15.0333 13.7887 14.9303 13.8092 14.8263 13.8092Z" fill="#EC1E24"/>
<path d="M19.5749 6.51812V8.26773H0.576416V6.51812C0.600712 5.9124 0.863134 5.34076 1.30663 4.92748C1.75012 4.5142 2.33883 4.29269 2.94476 4.31112H3.73667C3.74017 4.93817 3.99081 5.53853 4.4342 5.98193C4.8776 6.42532 5.47796 6.67596 6.10501 6.67946C6.31504 6.67946 6.51646 6.59603 6.66497 6.44752C6.81349 6.299 6.89692 6.09758 6.89692 5.88755C6.89692 5.67752 6.81349 5.47609 6.66497 5.32758C6.51646 5.17907 6.31504 5.09564 6.10501 5.09564C5.89857 5.09217 5.70165 5.00822 5.55621 4.86168C5.41077 4.71513 5.32832 4.51758 5.32642 4.31112H11.6588C11.6623 4.93817 11.9129 5.53853 12.3563 5.98193C12.7997 6.42532 13.4001 6.67596 14.0271 6.67946C14.2371 6.67946 14.4386 6.59603 14.5871 6.44752C14.7356 6.299 14.819 6.09758 14.819 5.88755C14.819 5.67752 14.7356 5.47609 14.5871 5.32758C14.4386 5.17907 14.2371 5.09564 14.0271 5.09564C13.8196 5.09371 13.6212 5.01043 13.4745 4.86372C13.3278 4.71702 13.2445 4.51859 13.2426 4.31112H17.2007C17.8068 4.2927 18.3958 4.51441 18.8393 4.928C19.2828 5.3416 19.5451 5.91362 19.569 6.5196L19.5749 6.51812Z" fill="#EC1E24"/>
</svg>
