<svg width="29" height="29" viewBox="0 0 29 29" fill="none" xmlns="http://www.w3.org/2000/svg">
<path d="M24.7142 8.18625C24.6948 7.99019 24.626 7.80225 24.5142 7.64004C24.4024 7.47782 24.2512 7.34663 24.0749 7.25875L14.7416 2.59209C14.5795 2.51098 14.4007 2.46875 14.2195 2.46875C14.0382 2.46875 13.8595 2.51098 13.6974 2.59209L4.36407 7.25875C4.18822 7.34713 4.03753 7.47848 3.92597 7.64062C3.81441 7.80275 3.7456 7.99043 3.7259 8.18625C3.71307 8.31109 2.60473 20.7477 13.7464 25.7026C13.8953 25.7698 14.0567 25.8045 14.2201 25.8045C14.3834 25.8045 14.5449 25.7698 14.6937 25.7026C25.8354 20.7477 24.7271 8.31225 24.7142 8.18625ZM14.2201 23.3494C6.3229 19.5321 5.94957 11.3853 6.01373 9.04375L14.2201 4.94059L22.4206 9.04142C22.4637 11.3619 22.0379 19.5624 14.2201 23.3494Z" fill="#B5B7BC"/>
<path d="M13.0533 14.82L10.3782 12.1449L8.72852 13.7945L13.0533 18.1194L19.7115 11.4612L18.0618 9.81152L13.0533 14.82Z" fill="#B5B7BC"/>
</svg>
