<svg width="192" height="65" viewBox="0 0 192 65" fill="none" xmlns="http://www.w3.org/2000/svg">
<circle cx="26.7742" cy="32.3816" r="26.7742" fill="#050505"/>
<path d="M38.9441 32.3798H34.076L30.425 43.3329L23.123 21.4268L19.4719 32.3798H14.6039" stroke="white" stroke-width="2.43402" stroke-linecap="round" stroke-linejoin="round"/>
<path d="M80.4898 25.4363C79.3698 25.4363 78.3365 25.2563 77.3898 24.8962C76.4431 24.5362 75.6165 24.0296 74.9098 23.3762C74.2165 22.7096 73.6765 21.9362 73.2898 21.0562C72.9031 20.1762 72.7098 19.2096 72.7098 18.1562C72.7098 17.1029 72.9031 16.1362 73.2898 15.2562C73.6765 14.3762 74.2165 13.6096 74.9098 12.9562C75.6165 12.2896 76.4431 11.7762 77.3898 11.4162C78.3365 11.0562 79.3698 10.8762 80.4898 10.8762C81.6231 10.8762 82.6565 11.0562 83.5898 11.4162C84.5365 11.7762 85.3565 12.2896 86.0498 12.9562C86.7431 13.6096 87.2831 14.3762 87.6698 15.2562C88.0698 16.1362 88.2698 17.1029 88.2698 18.1562C88.2698 19.2096 88.0698 20.1829 87.6698 21.0762C87.2831 21.9562 86.7431 22.7229 86.0498 23.3762C85.3565 24.0296 84.5365 24.5362 83.5898 24.8962C82.6565 25.2563 81.6231 25.4363 80.4898 25.4363ZM80.4898 22.1562C81.0231 22.1562 81.5165 22.0629 81.9698 21.8762C82.4365 21.6896 82.8365 21.4229 83.1698 21.0762C83.5165 20.7162 83.7831 20.2896 83.9698 19.7962C84.1698 19.3029 84.2698 18.7562 84.2698 18.1562C84.2698 17.5429 84.1698 16.9962 83.9698 16.5162C83.7831 16.0229 83.5165 15.6029 83.1698 15.2562C82.8365 14.8962 82.4365 14.6229 81.9698 14.4362C81.5165 14.2496 81.0231 14.1562 80.4898 14.1562C79.9565 14.1562 79.4565 14.2496 78.9898 14.4362C78.5365 14.6229 78.1365 14.8962 77.7898 15.2562C77.4565 15.6029 77.1898 16.0229 76.9898 16.5162C76.8031 16.9962 76.7098 17.5429 76.7098 18.1562C76.7098 18.7562 76.8031 19.3029 76.9898 19.7962C77.1898 20.2896 77.4565 20.7162 77.7898 21.0762C78.1365 21.4229 78.5365 21.6896 78.9898 21.8762C79.4565 22.0629 79.9565 22.1562 80.4898 22.1562ZM93.1838 25.1562L88.7238 14.3162H92.6238L96.1838 23.3762H94.2238L97.9638 14.3162H101.584L97.1038 25.1562H93.1838ZM107.953 25.3363C106.673 25.3363 105.553 25.0963 104.593 24.6162C103.647 24.1229 102.907 23.4562 102.373 22.6162C101.853 21.7629 101.593 20.7962 101.593 19.7162C101.593 18.6362 101.847 17.6762 102.353 16.8362C102.873 15.9829 103.587 15.3229 104.493 14.8562C105.4 14.3762 106.42 14.1363 107.553 14.1363C108.62 14.1363 109.593 14.3562 110.473 14.7962C111.353 15.2229 112.053 15.8562 112.573 16.6962C113.093 17.5362 113.353 18.5562 113.353 19.7562C113.353 19.8896 113.347 20.0429 113.333 20.2162C113.32 20.3896 113.307 20.5496 113.293 20.6962H104.713V18.6962H111.273L109.833 19.2562C109.847 18.7629 109.753 18.3362 109.553 17.9762C109.367 17.6162 109.1 17.3362 108.753 17.1362C108.42 16.9362 108.027 16.8362 107.573 16.8362C107.12 16.8362 106.72 16.9362 106.373 17.1362C106.04 17.3362 105.78 17.6229 105.593 17.9962C105.407 18.3562 105.313 18.7829 105.313 19.2763V19.8562C105.313 20.3896 105.42 20.8496 105.633 21.2362C105.86 21.6229 106.18 21.9229 106.593 22.1362C107.007 22.3362 107.5 22.4362 108.073 22.4362C108.607 22.4362 109.06 22.3629 109.433 22.2163C109.82 22.0562 110.2 21.8162 110.573 21.4962L112.573 23.5762C112.053 24.1496 111.413 24.5896 110.653 24.8962C109.893 25.1896 108.993 25.3363 107.953 25.3363ZM115.105 25.1562V14.3162H118.725V17.4762L118.185 16.5762C118.505 15.7629 119.025 15.1562 119.745 14.7562C120.465 14.3429 121.339 14.1363 122.365 14.1363V17.5562C122.192 17.5296 122.039 17.5162 121.905 17.5162C121.785 17.5029 121.652 17.4962 121.505 17.4962C120.732 17.4962 120.105 17.7096 119.625 18.1362C119.145 18.5496 118.905 19.2296 118.905 20.1762V25.1562H115.105ZM129.173 25.1562V22.6762L134.413 17.7762C134.786 17.4296 135.059 17.1229 135.233 16.8562C135.419 16.5896 135.539 16.3496 135.593 16.1362C135.659 15.9096 135.693 15.7029 135.693 15.5162C135.693 15.0629 135.539 14.7096 135.233 14.4562C134.939 14.2029 134.493 14.0762 133.893 14.0762C133.386 14.0762 132.913 14.1896 132.473 14.4162C132.033 14.6429 131.673 14.9829 131.393 15.4362L128.453 13.7962C128.973 12.9162 129.726 12.2096 130.713 11.6762C131.699 11.1429 132.879 10.8762 134.253 10.8762C135.333 10.8762 136.279 11.0496 137.093 11.3962C137.906 11.7429 138.539 12.2362 138.993 12.8762C139.459 13.5162 139.693 14.2696 139.693 15.1362C139.693 15.5896 139.633 16.0429 139.513 16.4962C139.393 16.9362 139.159 17.4096 138.813 17.9162C138.479 18.4096 137.979 18.9629 137.313 19.5762L133.153 23.4162L132.493 22.0162H140.073V25.1562H129.173ZM146.125 25.4363C145.165 25.4363 144.199 25.3163 143.225 25.0762C142.252 24.8362 141.412 24.4962 140.705 24.0562L142.125 21.0762C142.699 21.4496 143.319 21.7362 143.985 21.9362C144.665 22.1362 145.339 22.2362 146.005 22.2362C146.672 22.2362 147.212 22.1096 147.625 21.8562C148.039 21.5896 148.245 21.2229 148.245 20.7562C148.245 20.4762 148.165 20.2296 148.005 20.0163C147.845 19.7896 147.572 19.6229 147.185 19.5162C146.799 19.3962 146.245 19.3362 145.525 19.3362H141.725L142.425 11.1562H151.345V14.2162H143.825L145.845 12.4762L145.385 17.9962L143.365 16.2562H146.465C147.852 16.2562 148.965 16.4562 149.805 16.8562C150.645 17.2429 151.259 17.7696 151.645 18.4362C152.032 19.0896 152.225 19.8296 152.225 20.6562C152.225 21.4829 152.005 22.2629 151.565 22.9962C151.139 23.7162 150.479 24.3029 149.585 24.7562C148.692 25.2096 147.539 25.4363 146.125 25.4363ZM159.554 25.4363C158.354 25.4363 157.287 25.1496 156.354 24.5762C155.434 24.0029 154.707 23.1762 154.174 22.0962C153.641 21.0162 153.374 19.7029 153.374 18.1562C153.374 16.6096 153.641 15.2962 154.174 14.2162C154.707 13.1362 155.434 12.3096 156.354 11.7362C157.287 11.1629 158.354 10.8762 159.554 10.8762C160.741 10.8762 161.794 11.1629 162.714 11.7362C163.647 12.3096 164.381 13.1362 164.914 14.2162C165.447 15.2962 165.714 16.6096 165.714 18.1562C165.714 19.7029 165.447 21.0162 164.914 22.0962C164.381 23.1762 163.647 24.0029 162.714 24.5762C161.794 25.1496 160.741 25.4363 159.554 25.4363ZM159.554 22.1962C159.981 22.1962 160.354 22.0629 160.674 21.7962C161.007 21.5296 161.267 21.1029 161.454 20.5162C161.641 19.9162 161.734 19.1296 161.734 18.1562C161.734 17.1696 161.641 16.3829 161.454 15.7962C161.267 15.2096 161.007 14.7829 160.674 14.5162C160.354 14.2496 159.981 14.1162 159.554 14.1162C159.127 14.1162 158.747 14.2496 158.414 14.5162C158.094 14.7829 157.834 15.2096 157.634 15.7962C157.447 16.3829 157.354 17.1696 157.354 18.1562C157.354 19.1296 157.447 19.9162 157.634 20.5162C157.834 21.1029 158.094 21.5296 158.414 21.7962C158.747 22.0629 159.127 22.1962 159.554 22.1962ZM171.325 22.0562L171.105 17.6162L177.125 11.1562H181.485L175.485 17.6562L173.285 19.9562L171.325 22.0562ZM167.785 25.1562V11.1562H171.705V25.1562H167.785ZM177.185 25.1562L172.625 19.3762L175.205 16.6162L181.785 25.1562H177.185ZM185.223 22.9162V13.3963H188.303V22.9162H185.223ZM181.823 19.6162V16.6962H191.683V19.6162H181.823Z" fill="#050505"/>
<path d="M74.4858 39.2043C74.0698 39.2043 73.6698 39.1376 73.2858 39.0042C72.9071 38.8656 72.6138 38.6896 72.4058 38.4762L72.6378 38.0202C72.8351 38.2122 73.0991 38.3749 73.4298 38.5082C73.7658 38.6362 74.1178 38.7002 74.4858 38.7002C74.8378 38.7002 75.1231 38.6576 75.3418 38.5722C75.5658 38.4816 75.7285 38.3616 75.8298 38.2122C75.9365 38.0629 75.9898 37.8976 75.9898 37.7162C75.9898 37.4976 75.9258 37.3216 75.7978 37.1882C75.6751 37.0549 75.5125 36.9509 75.3098 36.8762C75.1071 36.7962 74.8831 36.7269 74.6378 36.6682C74.3925 36.6096 74.1471 36.5482 73.9018 36.4842C73.6565 36.4149 73.4298 36.3242 73.2218 36.2122C73.0191 36.1002 72.8538 35.9536 72.7258 35.7722C72.6031 35.5856 72.5418 35.3429 72.5418 35.0443C72.5418 34.7669 72.6138 34.5136 72.7578 34.2842C72.9071 34.0496 73.1338 33.8629 73.4378 33.7242C73.7418 33.5802 74.1311 33.5082 74.6058 33.5082C74.9205 33.5082 75.2325 33.5536 75.5418 33.6442C75.8511 33.7296 76.1178 33.8496 76.3418 34.0042L76.1418 34.4762C75.9018 34.3162 75.6458 34.1989 75.3738 34.1242C75.1071 34.0496 74.8485 34.0122 74.5978 34.0122C74.2618 34.0122 73.9845 34.0576 73.7658 34.1482C73.5471 34.2389 73.3845 34.3616 73.2778 34.5162C73.1765 34.6656 73.1258 34.8362 73.1258 35.0282C73.1258 35.2469 73.1871 35.4229 73.3098 35.5562C73.4378 35.6896 73.6031 35.7936 73.8058 35.8682C74.0138 35.9429 74.2405 36.0096 74.4858 36.0682C74.7311 36.1269 74.9738 36.1909 75.2138 36.2602C75.4591 36.3296 75.6831 36.4202 75.8858 36.5322C76.0938 36.6389 76.2591 36.7829 76.3818 36.9642C76.5098 37.1456 76.5738 37.3829 76.5738 37.6762C76.5738 37.9482 76.4991 38.2016 76.3498 38.4362C76.2005 38.6656 75.9711 38.8522 75.6618 38.9962C75.3578 39.1349 74.9658 39.2043 74.4858 39.2043ZM80.3757 39.1562V38.2282L80.3517 38.0762V36.5242C80.3517 36.1669 80.2503 35.8922 80.0477 35.7002C79.8503 35.5082 79.5543 35.4122 79.1597 35.4122C78.8877 35.4122 78.629 35.4576 78.3837 35.5482C78.1383 35.6389 77.9303 35.7589 77.7597 35.9082L77.5037 35.4842C77.717 35.3029 77.973 35.1642 78.2717 35.0682C78.5703 34.9669 78.885 34.9162 79.2157 34.9162C79.7597 34.9162 80.1783 35.0522 80.4717 35.3242C80.7703 35.5909 80.9197 35.9989 80.9197 36.5482V39.1562H80.3757ZM78.9277 39.1963C78.613 39.1963 78.3383 39.1456 78.1037 39.0442C77.8743 38.9376 77.6983 38.7936 77.5757 38.6122C77.453 38.4256 77.3917 38.2122 77.3917 37.9722C77.3917 37.7536 77.4423 37.5562 77.5437 37.3802C77.6503 37.1989 77.821 37.0549 78.0557 36.9482C78.2957 36.8362 78.6157 36.7802 79.0157 36.7802H80.4637V37.2042H79.0317C78.6263 37.2042 78.3437 37.2762 78.1837 37.4202C78.029 37.5642 77.9517 37.7429 77.9517 37.9562C77.9517 38.1962 78.045 38.3882 78.2317 38.5322C78.4183 38.6762 78.6797 38.7482 79.0157 38.7482C79.3357 38.7482 79.6103 38.6762 79.8397 38.5322C80.0743 38.3829 80.245 38.1696 80.3517 37.8922L80.4797 38.2842C80.373 38.5616 80.1863 38.7829 79.9197 38.9482C79.6583 39.1136 79.3277 39.1963 78.9277 39.1963ZM83.7904 39.1963C83.3957 39.1963 83.0917 39.0896 82.8784 38.8762C82.6651 38.6629 82.5584 38.3616 82.5584 37.9722V34.0282H83.1264V37.9402C83.1264 38.1856 83.1877 38.3749 83.3104 38.5082C83.4384 38.6416 83.6197 38.7082 83.8544 38.7082C84.1051 38.7082 84.3131 38.6362 84.4784 38.4922L84.6784 38.9002C84.5664 39.0016 84.4304 39.0762 84.2704 39.1242C84.1157 39.1723 83.9557 39.1963 83.7904 39.1963ZM81.8064 35.4282V34.9562H84.4064V35.4282H81.8064ZM85.7124 39.1562V34.9562H86.2804V39.1562H85.7124ZM86.0004 34.0282C85.8831 34.0282 85.7844 33.9882 85.7044 33.9082C85.6244 33.8282 85.5844 33.7322 85.5844 33.6202C85.5844 33.5082 85.6244 33.4149 85.7044 33.3402C85.7844 33.2602 85.8831 33.2202 86.0004 33.2202C86.1177 33.2202 86.2164 33.2576 86.2964 33.3322C86.3764 33.4069 86.4164 33.5002 86.4164 33.6122C86.4164 33.7296 86.3764 33.8282 86.2964 33.9082C86.2217 33.9882 86.1231 34.0282 86.0004 34.0282ZM88.9888 39.1963C88.6422 39.1963 88.3142 39.1483 88.0048 39.0522C87.6955 38.9509 87.4528 38.8256 87.2768 38.6762L87.5328 38.2282C87.7035 38.3562 87.9222 38.4682 88.1888 38.5642C88.4555 38.6549 88.7355 38.7002 89.0288 38.7002C89.4288 38.7002 89.7168 38.6389 89.8928 38.5162C90.0688 38.3882 90.1568 38.2202 90.1568 38.0122C90.1568 37.8576 90.1062 37.7376 90.0048 37.6522C89.9088 37.5616 89.7808 37.4949 89.6208 37.4522C89.4608 37.4042 89.2822 37.3642 89.0848 37.3322C88.8875 37.3002 88.6902 37.2629 88.4928 37.2202C88.3008 37.1776 88.1248 37.1162 87.9648 37.0362C87.8048 36.9509 87.6742 36.8362 87.5728 36.6922C87.4768 36.5482 87.4288 36.3562 87.4288 36.1162C87.4288 35.8869 87.4928 35.6816 87.6208 35.5002C87.7488 35.3189 87.9355 35.1776 88.1808 35.0762C88.4315 34.9696 88.7355 34.9162 89.0928 34.9162C89.3648 34.9162 89.6368 34.9536 89.9088 35.0282C90.1808 35.0976 90.4048 35.1909 90.5808 35.3082L90.3328 35.7642C90.1462 35.6362 89.9462 35.5456 89.7328 35.4922C89.5195 35.4336 89.3062 35.4042 89.0928 35.4042C88.7142 35.4042 88.4342 35.4709 88.2528 35.6042C88.0768 35.7322 87.9888 35.8976 87.9888 36.1002C87.9888 36.2602 88.0368 36.3856 88.1328 36.4762C88.2342 36.5669 88.3648 36.6389 88.5248 36.6922C88.6902 36.7402 88.8688 36.7802 89.0608 36.8122C89.2582 36.8442 89.4528 36.8842 89.6448 36.9322C89.8422 36.9749 90.0208 37.0362 90.1808 37.1162C90.3462 37.1909 90.4768 37.3002 90.5728 37.4442C90.6742 37.5829 90.7248 37.7669 90.7248 37.9962C90.7248 38.2416 90.6555 38.4549 90.5168 38.6362C90.3835 38.8122 90.1862 38.9509 89.9248 39.0522C89.6688 39.1483 89.3568 39.1963 88.9888 39.1963ZM91.8631 39.1562V34.4282C91.8631 34.0549 91.9724 33.7536 92.1911 33.5242C92.4098 33.2949 92.7244 33.1802 93.1351 33.1802C93.2951 33.1802 93.4498 33.2016 93.5991 33.2442C93.7484 33.2869 93.8738 33.3536 93.9751 33.4442L93.7831 33.8682C93.7031 33.7989 93.6098 33.7482 93.5031 33.7162C93.3964 33.6789 93.2818 33.6602 93.1591 33.6602C92.9191 33.6602 92.7351 33.7269 92.6071 33.8602C92.4791 33.9936 92.4151 34.1909 92.4151 34.4523V35.0922L92.4311 35.3562V39.1562H91.8631ZM91.1111 35.4282V34.9562H93.7111V35.4282H91.1111ZM94.4791 39.1562V34.9562H95.0471V39.1562H94.4791ZM94.7671 34.0282C94.6498 34.0282 94.5511 33.9882 94.4711 33.9082C94.3911 33.8282 94.3511 33.7322 94.3511 33.6202C94.3511 33.5082 94.3911 33.4149 94.4711 33.3402C94.5511 33.2602 94.6498 33.2202 94.7671 33.2202C94.8844 33.2202 94.9831 33.2576 95.0631 33.3322C95.1431 33.4069 95.1831 33.5002 95.1831 33.6122C95.1831 33.7296 95.1431 33.8282 95.0631 33.9082C94.9884 33.9882 94.8898 34.0282 94.7671 34.0282ZM98.4261 39.1963C97.9888 39.1963 97.6048 39.1056 97.2741 38.9242C96.9434 38.7376 96.6848 38.4842 96.4981 38.1642C96.3114 37.8389 96.2181 37.4682 96.2181 37.0522C96.2181 36.6362 96.3061 36.2682 96.4821 35.9482C96.6634 35.6282 96.9088 35.3776 97.2181 35.1962C97.5328 35.0096 97.8848 34.9162 98.2741 34.9162C98.6688 34.9162 99.0181 35.0069 99.3221 35.1882C99.6314 35.3642 99.8741 35.6149 100.05 35.9402C100.226 36.2602 100.314 36.6309 100.314 37.0522C100.314 37.0789 100.311 37.1082 100.306 37.1402C100.306 37.1669 100.306 37.1962 100.306 37.2282H96.6501V36.8043H100.002L99.7781 36.9722C99.7781 36.6682 99.7114 36.3989 99.5781 36.1642C99.4501 35.9242 99.2741 35.7376 99.0501 35.6042C98.8261 35.4709 98.5674 35.4042 98.2741 35.4042C97.9861 35.4042 97.7274 35.4709 97.4981 35.6042C97.2688 35.7376 97.0901 35.9242 96.9621 36.1642C96.8341 36.4042 96.7701 36.6789 96.7701 36.9882V37.0762C96.7701 37.3962 96.8394 37.6789 96.9781 37.9242C97.1221 38.1642 97.3194 38.3536 97.5701 38.4922C97.8261 38.6256 98.1168 38.6922 98.4421 38.6922C98.6981 38.6922 98.9354 38.6469 99.1541 38.5562C99.3781 38.4656 99.5701 38.3269 99.7301 38.1402L100.05 38.5082C99.8634 38.7322 99.6288 38.9029 99.3461 39.0202C99.0688 39.1376 98.7621 39.1963 98.4261 39.1963ZM103.142 39.1963C102.742 39.1963 102.382 39.1056 102.062 38.9242C101.748 38.7429 101.5 38.4922 101.318 38.1722C101.137 37.8469 101.046 37.4736 101.046 37.0522C101.046 36.6256 101.137 36.2522 101.318 35.9322C101.5 35.6122 101.748 35.3642 102.062 35.1882C102.382 35.0069 102.742 34.9162 103.142 34.9162C103.51 34.9162 103.838 34.9989 104.126 35.1642C104.42 35.3296 104.652 35.5722 104.822 35.8922C104.998 36.2069 105.086 36.5936 105.086 37.0522C105.086 37.5056 105.001 37.8922 104.83 38.2122C104.66 38.5322 104.428 38.7776 104.134 38.9482C103.846 39.1136 103.516 39.1963 103.142 39.1963ZM103.182 38.6922C103.481 38.6922 103.748 38.6256 103.982 38.4922C104.222 38.3536 104.409 38.1616 104.542 37.9162C104.681 37.6656 104.75 37.3776 104.75 37.0522C104.75 36.7216 104.681 36.4336 104.542 36.1882C104.409 35.9429 104.222 35.7536 103.982 35.6202C103.748 35.4816 103.481 35.4122 103.182 35.4122C102.889 35.4122 102.625 35.4816 102.39 35.6202C102.156 35.7536 101.969 35.9429 101.83 36.1882C101.692 36.4336 101.622 36.7216 101.622 37.0522C101.622 37.3776 101.692 37.6656 101.83 37.9162C101.969 38.1616 102.156 38.3536 102.39 38.4922C102.625 38.6256 102.889 38.6922 103.182 38.6922ZM104.766 39.1562V37.8922L104.822 37.0443L104.742 36.1962V33.2202H105.31V39.1562H104.766ZM110.65 39.2043C110.234 39.2043 109.834 39.1376 109.45 39.0042C109.071 38.8656 108.778 38.6896 108.57 38.4762L108.802 38.0202C108.999 38.2122 109.263 38.3749 109.594 38.5082C109.93 38.6362 110.282 38.7002 110.65 38.7002C111.002 38.7002 111.287 38.6576 111.506 38.5722C111.73 38.4816 111.893 38.3616 111.994 38.2122C112.101 38.0629 112.154 37.8976 112.154 37.7162C112.154 37.4976 112.09 37.3216 111.962 37.1882C111.839 37.0549 111.677 36.9509 111.474 36.8762C111.271 36.7962 111.047 36.7269 110.802 36.6682C110.557 36.6096 110.311 36.5482 110.066 36.4842C109.821 36.4149 109.594 36.3242 109.386 36.2122C109.183 36.1002 109.018 35.9536 108.89 35.7722C108.767 35.5856 108.706 35.3429 108.706 35.0443C108.706 34.7669 108.778 34.5136 108.922 34.2842C109.071 34.0496 109.298 33.8629 109.602 33.7242C109.906 33.5802 110.295 33.5082 110.77 33.5082C111.085 33.5082 111.397 33.5536 111.706 33.6442C112.015 33.7296 112.282 33.8496 112.506 34.0042L112.306 34.4762C112.066 34.3162 111.81 34.1989 111.538 34.1242C111.271 34.0496 111.013 34.0122 110.762 34.0122C110.426 34.0122 110.149 34.0576 109.93 34.1482C109.711 34.2389 109.549 34.3616 109.442 34.5162C109.341 34.6656 109.29 34.8362 109.29 35.0282C109.29 35.2469 109.351 35.4229 109.474 35.5562C109.602 35.6896 109.767 35.7936 109.97 35.8682C110.178 35.9429 110.405 36.0096 110.65 36.0682C110.895 36.1269 111.138 36.1909 111.378 36.2602C111.623 36.3296 111.847 36.4202 112.05 36.5322C112.258 36.6389 112.423 36.7829 112.546 36.9642C112.674 37.1456 112.738 37.3829 112.738 37.6762C112.738 37.9482 112.663 38.2016 112.514 38.4362C112.365 38.6656 112.135 38.8522 111.826 38.9962C111.522 39.1349 111.13 39.2043 110.65 39.2043ZM115.236 39.1963C114.841 39.1963 114.537 39.0896 114.324 38.8762C114.11 38.6629 114.004 38.3616 114.004 37.9722V34.0282H114.572V37.9402C114.572 38.1856 114.633 38.3749 114.756 38.5082C114.884 38.6416 115.065 38.7082 115.3 38.7082C115.55 38.7082 115.758 38.6362 115.924 38.4922L116.124 38.9002C116.012 39.0016 115.876 39.0762 115.716 39.1242C115.561 39.1723 115.401 39.1963 115.236 39.1963ZM113.252 35.4282V34.9562H115.852V35.4282H113.252ZM118.894 39.1963C118.536 39.1963 118.224 39.1296 117.958 38.9962C117.691 38.8629 117.483 38.6629 117.334 38.3962C117.19 38.1296 117.118 37.7962 117.118 37.3962V34.9562H117.686V37.3322C117.686 37.7802 117.795 38.1189 118.014 38.3482C118.238 38.5722 118.55 38.6842 118.95 38.6842C119.243 38.6842 119.496 38.6256 119.71 38.5082C119.928 38.3856 120.094 38.2096 120.206 37.9803C120.323 37.7509 120.382 37.4762 120.382 37.1562V34.9562H120.95V39.1562H120.406V38.0042L120.494 38.2122C120.36 38.5216 120.152 38.7642 119.87 38.9402C119.592 39.1109 119.267 39.1963 118.894 39.1963ZM124.205 39.1963C123.805 39.1963 123.445 39.1056 123.125 38.9242C122.81 38.7429 122.562 38.4922 122.381 38.1722C122.199 37.8469 122.109 37.4736 122.109 37.0522C122.109 36.6256 122.199 36.2522 122.381 35.9322C122.562 35.6122 122.81 35.3642 123.125 35.1882C123.445 35.0069 123.805 34.9162 124.205 34.9162C124.573 34.9162 124.901 34.9989 125.189 35.1642C125.482 35.3296 125.714 35.5722 125.885 35.8922C126.061 36.2069 126.149 36.5936 126.149 37.0522C126.149 37.5056 126.063 37.8922 125.893 38.2122C125.722 38.5322 125.49 38.7776 125.197 38.9482C124.909 39.1136 124.578 39.1963 124.205 39.1963ZM124.245 38.6922C124.543 38.6922 124.81 38.6256 125.045 38.4922C125.285 38.3536 125.471 38.1616 125.605 37.9162C125.743 37.6656 125.813 37.3776 125.813 37.0522C125.813 36.7216 125.743 36.4336 125.605 36.1882C125.471 35.9429 125.285 35.7536 125.045 35.6202C124.81 35.4816 124.543 35.4122 124.245 35.4122C123.951 35.4122 123.687 35.4816 123.453 35.6202C123.218 35.7536 123.031 35.9429 122.893 36.1882C122.754 36.4336 122.685 36.7216 122.685 37.0522C122.685 37.3776 122.754 37.6656 122.893 37.9162C123.031 38.1616 123.218 38.3536 123.453 38.4922C123.687 38.6256 123.951 38.6922 124.245 38.6922ZM125.829 39.1562V37.8922L125.885 37.0443L125.805 36.1962V33.2202H126.373V39.1562H125.829ZM129.739 39.1963C129.301 39.1963 128.917 39.1056 128.587 38.9242C128.256 38.7376 127.997 38.4842 127.811 38.1642C127.624 37.8389 127.531 37.4682 127.531 37.0522C127.531 36.6362 127.619 36.2682 127.795 35.9482C127.976 35.6282 128.221 35.3776 128.531 35.1962C128.845 35.0096 129.197 34.9162 129.587 34.9162C129.981 34.9162 130.331 35.0069 130.635 35.1882C130.944 35.3642 131.187 35.6149 131.363 35.9402C131.539 36.2602 131.627 36.6309 131.627 37.0522C131.627 37.0789 131.624 37.1082 131.619 37.1402C131.619 37.1669 131.619 37.1962 131.619 37.2282H127.963V36.8043H131.315L131.091 36.9722C131.091 36.6682 131.024 36.3989 130.891 36.1642C130.763 35.9242 130.587 35.7376 130.363 35.6042C130.139 35.4709 129.88 35.4042 129.587 35.4042C129.299 35.4042 129.04 35.4709 128.811 35.6042C128.581 35.7376 128.403 35.9242 128.275 36.1642C128.147 36.4042 128.083 36.6789 128.083 36.9882V37.0762C128.083 37.3962 128.152 37.6789 128.291 37.9242C128.435 38.1642 128.632 38.3536 128.883 38.4922C129.139 38.6256 129.429 38.6922 129.755 38.6922C130.011 38.6922 130.248 38.6469 130.467 38.5562C130.691 38.4656 130.883 38.3269 131.043 38.1402L131.363 38.5082C131.176 38.7322 130.941 38.9029 130.659 39.0202C130.381 39.1376 130.075 39.1963 129.739 39.1963ZM134.927 34.9162C135.268 34.9162 135.567 34.9829 135.823 35.1163C136.084 35.2442 136.287 35.4416 136.431 35.7082C136.58 35.9749 136.655 36.3109 136.655 36.7162V39.1562H136.087V36.7722C136.087 36.3296 135.975 35.9962 135.751 35.7722C135.532 35.5429 135.223 35.4282 134.823 35.4282C134.524 35.4282 134.263 35.4896 134.039 35.6122C133.82 35.7296 133.649 35.9029 133.527 36.1322C133.409 36.3562 133.351 36.6282 133.351 36.9482V39.1562H132.783V34.9562H133.327V36.1082L133.239 35.8922C133.372 35.5882 133.585 35.3509 133.879 35.1802C134.172 35.0042 134.521 34.9162 134.927 34.9162ZM139.517 39.1963C139.122 39.1963 138.818 39.0896 138.605 38.8762C138.392 38.6629 138.285 38.3616 138.285 37.9722V34.0282H138.853V37.9402C138.853 38.1856 138.914 38.3749 139.037 38.5082C139.165 38.6416 139.346 38.7082 139.581 38.7082C139.832 38.7082 140.04 38.6362 140.205 38.4922L140.405 38.9002C140.293 39.0016 140.157 39.0762 139.997 39.1242C139.842 39.1723 139.682 39.1963 139.517 39.1963ZM137.533 35.4282V34.9562H140.133V35.4282H137.533ZM142.567 39.1963C142.22 39.1963 141.892 39.1483 141.583 39.0522C141.274 38.9509 141.031 38.8256 140.855 38.6762L141.111 38.2282C141.282 38.3562 141.5 38.4682 141.767 38.5642C142.034 38.6549 142.314 38.7002 142.607 38.7002C143.007 38.7002 143.295 38.6389 143.471 38.5162C143.647 38.3882 143.735 38.2202 143.735 38.0122C143.735 37.8576 143.684 37.7376 143.583 37.6522C143.487 37.5616 143.359 37.4949 143.199 37.4522C143.039 37.4042 142.86 37.3642 142.663 37.3322C142.466 37.3002 142.268 37.2629 142.071 37.2202C141.879 37.1776 141.703 37.1162 141.543 37.0362C141.383 36.9509 141.252 36.8362 141.151 36.6922C141.055 36.5482 141.007 36.3562 141.007 36.1162C141.007 35.8869 141.071 35.6816 141.199 35.5002C141.327 35.3189 141.514 35.1776 141.759 35.0762C142.01 34.9696 142.314 34.9162 142.671 34.9162C142.943 34.9162 143.215 34.9536 143.487 35.0282C143.759 35.0976 143.983 35.1909 144.159 35.3082L143.911 35.7642C143.724 35.6362 143.524 35.5456 143.311 35.4922C143.098 35.4336 142.884 35.4042 142.671 35.4042C142.292 35.4042 142.012 35.4709 141.831 35.6042C141.655 35.7322 141.567 35.8976 141.567 36.1002C141.567 36.2602 141.615 36.3856 141.711 36.4762C141.812 36.5669 141.943 36.6389 142.103 36.6922C142.268 36.7402 142.447 36.7802 142.639 36.8122C142.836 36.8442 143.031 36.8842 143.223 36.9322C143.42 36.9749 143.599 37.0362 143.759 37.1162C143.924 37.1909 144.055 37.3002 144.151 37.4442C144.252 37.5829 144.303 37.7669 144.303 37.9962C144.303 38.2416 144.234 38.4549 144.095 38.6362C143.962 38.8122 143.764 38.9509 143.503 39.0522C143.247 39.1483 142.935 39.1963 142.567 39.1963ZM145.401 39.1963C145.284 39.1963 145.183 39.1536 145.097 39.0682C145.017 38.9829 144.977 38.8789 144.977 38.7562C144.977 38.6282 145.017 38.5242 145.097 38.4442C145.183 38.3642 145.284 38.3242 145.401 38.3242C145.519 38.3242 145.617 38.3642 145.697 38.4442C145.783 38.5242 145.825 38.6282 145.825 38.7562C145.825 38.8789 145.783 38.9829 145.697 39.0682C145.617 39.1536 145.519 39.1963 145.401 39.1963ZM147.097 39.1963C146.979 39.1963 146.878 39.1536 146.793 39.0682C146.713 38.9829 146.673 38.8789 146.673 38.7562C146.673 38.6282 146.713 38.5242 146.793 38.4442C146.878 38.3642 146.979 38.3242 147.097 38.3242C147.214 38.3242 147.313 38.3642 147.393 38.4442C147.478 38.5242 147.521 38.6282 147.521 38.7562C147.521 38.8789 147.478 38.9829 147.393 39.0682C147.313 39.1536 147.214 39.1963 147.097 39.1963ZM148.792 39.1963C148.675 39.1963 148.573 39.1536 148.488 39.0682C148.408 38.9829 148.368 38.8789 148.368 38.7562C148.368 38.6282 148.408 38.5242 148.488 38.4442C148.573 38.3642 148.675 38.3242 148.792 38.3242C148.909 38.3242 149.008 38.3642 149.088 38.4442C149.173 38.5242 149.216 38.6282 149.216 38.7562C149.216 38.8789 149.173 38.9829 149.088 39.0682C149.008 39.1536 148.909 39.1963 148.792 39.1963Z" fill="#868686"/>
<g clip-path="url(#clip0_4002_410)">
<path d="M80.0298 64.1562C84.4481 64.1562 88.0298 60.5745 88.0298 56.1562C88.0298 51.738 84.4481 48.1562 80.0298 48.1562C75.6115 48.1562 72.0298 51.738 72.0298 56.1562C72.0298 60.5745 75.6115 64.1562 80.0298 64.1562Z" fill="#EC1E24"/>
<path d="M80.0295 59.3561L83.2295 56.1561L80.0295 52.9561" stroke="white" stroke-width="1.1854" stroke-linecap="round" stroke-linejoin="round"/>
<path d="M76.8291 56.1562H83.2291" stroke="white" stroke-width="1.1854" stroke-linecap="round" stroke-linejoin="round"/>
</g>
<path d="M93.8214 59.6562V52.6562H96.5514C97.1647 52.6562 97.688 52.7529 98.1214 52.9462C98.5547 53.1396 98.888 53.4196 99.1214 53.7862C99.3547 54.1529 99.4714 54.5896 99.4714 55.0962C99.4714 55.6029 99.3547 56.0396 99.1214 56.4062C98.888 56.7662 98.5547 57.0429 98.1214 57.2362C97.688 57.4296 97.1647 57.5262 96.5514 57.5262H94.3714L94.8214 57.0662V59.6562H93.8214ZM98.5014 59.6562L96.7214 57.1162H97.7914L99.5914 59.6562H98.5014ZM94.8214 57.1662L94.3714 56.6762H96.5214C97.1614 56.6762 97.6447 56.5396 97.9714 56.2662C98.3047 55.9862 98.4714 55.5962 98.4714 55.0962C98.4714 54.5962 98.3047 54.2096 97.9714 53.9362C97.6447 53.6629 97.1614 53.5262 96.5214 53.5262H94.3714L94.8214 53.0262V57.1662ZM103.307 59.7163C102.74 59.7163 102.24 59.5996 101.807 59.3662C101.38 59.1329 101.047 58.8129 100.807 58.4062C100.574 57.9996 100.457 57.5329 100.457 57.0062C100.457 56.4796 100.57 56.0129 100.797 55.6062C101.03 55.1996 101.347 54.8829 101.747 54.6562C102.154 54.4229 102.61 54.3062 103.117 54.3062C103.63 54.3062 104.084 54.4196 104.477 54.6462C104.87 54.8729 105.177 55.1929 105.397 55.6062C105.624 56.0129 105.737 56.4896 105.737 57.0362C105.737 57.0762 105.734 57.1229 105.727 57.1762C105.727 57.2296 105.724 57.2796 105.717 57.3262H101.207V56.6362H105.217L104.827 56.8762C104.834 56.5362 104.764 56.2329 104.617 55.9662C104.47 55.6996 104.267 55.4929 104.007 55.3462C103.754 55.1929 103.457 55.1162 103.117 55.1162C102.784 55.1162 102.487 55.1929 102.227 55.3462C101.967 55.4929 101.764 55.7029 101.617 55.9762C101.47 56.2429 101.397 56.5496 101.397 56.8962V57.0562C101.397 57.4096 101.477 57.7262 101.637 58.0062C101.804 58.2796 102.034 58.4929 102.327 58.6462C102.62 58.7996 102.957 58.8762 103.337 58.8762C103.65 58.8762 103.934 58.8229 104.187 58.7162C104.447 58.6096 104.674 58.4496 104.867 58.2362L105.397 58.8562C105.157 59.1362 104.857 59.3496 104.497 59.4962C104.144 59.6429 103.747 59.7163 103.307 59.7163ZM110.214 59.6562V58.5362L110.164 58.3262V56.4162C110.164 56.0096 110.044 55.6962 109.804 55.4762C109.57 55.2496 109.217 55.1362 108.744 55.1362C108.43 55.1362 108.124 55.1896 107.824 55.2962C107.524 55.3962 107.27 55.5329 107.064 55.7062L106.664 54.9862C106.937 54.7662 107.264 54.5996 107.644 54.4862C108.03 54.3662 108.434 54.3062 108.854 54.3062C109.58 54.3062 110.14 54.4829 110.534 54.8362C110.927 55.1896 111.124 55.7296 111.124 56.4562V59.6562H110.214ZM108.474 59.7163C108.08 59.7163 107.734 59.6496 107.434 59.5162C107.14 59.3829 106.914 59.1996 106.754 58.9662C106.594 58.7262 106.514 58.4562 106.514 58.1562C106.514 57.8696 106.58 57.6096 106.714 57.3762C106.854 57.1429 107.077 56.9562 107.384 56.8162C107.697 56.6762 108.117 56.6062 108.644 56.6062H110.324V57.2962H108.684C108.204 57.2962 107.88 57.3762 107.714 57.5362C107.547 57.6962 107.464 57.8896 107.464 58.1162C107.464 58.3762 107.567 58.5862 107.774 58.7462C107.98 58.8996 108.267 58.9762 108.634 58.9762C108.994 58.9762 109.307 58.8962 109.574 58.7362C109.847 58.5762 110.044 58.3429 110.164 58.0362L110.354 58.6962C110.227 59.0096 110.004 59.2596 109.684 59.4462C109.364 59.6262 108.96 59.7163 108.474 59.7163ZM115.09 59.7163C114.577 59.7163 114.117 59.6029 113.71 59.3762C113.31 59.1496 112.993 58.8329 112.76 58.4262C112.527 58.0196 112.41 57.5462 112.41 57.0062C112.41 56.4662 112.527 55.9962 112.76 55.5962C112.993 55.1896 113.31 54.8729 113.71 54.6462C114.117 54.4196 114.577 54.3062 115.09 54.3062C115.537 54.3062 115.94 54.4062 116.3 54.6063C116.66 54.8062 116.947 55.1062 117.16 55.5062C117.38 55.9062 117.49 56.4062 117.49 57.0062C117.49 57.6062 117.383 58.1062 117.17 58.5062C116.963 58.9062 116.68 59.2096 116.32 59.4162C115.96 59.6162 115.55 59.7163 115.09 59.7163ZM115.17 58.8762C115.503 58.8762 115.803 58.7996 116.07 58.6462C116.343 58.4929 116.557 58.2762 116.71 57.9962C116.87 57.7096 116.95 57.3796 116.95 57.0062C116.95 56.6262 116.87 56.2996 116.71 56.0262C116.557 55.7462 116.343 55.5296 116.07 55.3762C115.803 55.2229 115.503 55.1462 115.17 55.1462C114.83 55.1462 114.527 55.2229 114.26 55.3762C113.993 55.5296 113.78 55.7462 113.62 56.0262C113.46 56.2996 113.38 56.6262 113.38 57.0062C113.38 57.3796 113.46 57.7096 113.62 57.9962C113.78 58.2762 113.993 58.4929 114.26 58.6462C114.527 58.7996 114.83 58.8762 115.17 58.8762ZM116.98 59.6562V58.2262L117.04 56.9962L116.94 55.7662V52.2362H117.9V59.6562H116.98ZM122.542 59.6562V52.6562H125.272C125.885 52.6562 126.409 52.7529 126.842 52.9462C127.275 53.1396 127.609 53.4196 127.842 53.7862C128.075 54.1529 128.192 54.5896 128.192 55.0962C128.192 55.6029 128.075 56.0396 127.842 56.4062C127.609 56.7662 127.275 57.0429 126.842 57.2362C126.409 57.4296 125.885 57.5262 125.272 57.5262H123.092L123.542 57.0662V59.6562H122.542ZM127.222 59.6562L125.442 57.1162H126.512L128.312 59.6562H127.222ZM123.542 57.1662L123.092 56.6762H125.242C125.882 56.6762 126.365 56.5396 126.692 56.2662C127.025 55.9862 127.192 55.5962 127.192 55.0962C127.192 54.5962 127.025 54.2096 126.692 53.9362C126.365 53.6629 125.882 53.5262 125.242 53.5262H123.092L123.542 53.0262V57.1662ZM132.028 59.7163C131.461 59.7163 130.961 59.5996 130.528 59.3662C130.101 59.1329 129.768 58.8129 129.528 58.4062C129.294 57.9996 129.178 57.5329 129.178 57.0062C129.178 56.4796 129.291 56.0129 129.518 55.6062C129.751 55.1996 130.068 54.8829 130.468 54.6562C130.874 54.4229 131.331 54.3062 131.838 54.3062C132.351 54.3062 132.804 54.4196 133.198 54.6462C133.591 54.8729 133.898 55.1929 134.118 55.6062C134.344 56.0129 134.458 56.4896 134.458 57.0362C134.458 57.0762 134.454 57.1229 134.448 57.1762C134.448 57.2296 134.444 57.2796 134.438 57.3262H129.928V56.6362H133.938L133.548 56.8762C133.554 56.5362 133.484 56.2329 133.338 55.9662C133.191 55.6996 132.988 55.4929 132.728 55.3462C132.474 55.1929 132.178 55.1162 131.838 55.1162C131.504 55.1162 131.208 55.1929 130.948 55.3462C130.688 55.4929 130.484 55.7029 130.338 55.9762C130.191 56.2429 130.118 56.5496 130.118 56.8962V57.0562C130.118 57.4096 130.198 57.7262 130.358 58.0062C130.524 58.2796 130.754 58.4929 131.048 58.6462C131.341 58.7996 131.678 58.8762 132.058 58.8762C132.371 58.8762 132.654 58.8229 132.908 58.7162C133.168 58.6096 133.394 58.4496 133.588 58.2362L134.118 58.8562C133.878 59.1362 133.578 59.3496 133.218 59.4962C132.864 59.6429 132.468 59.7163 132.028 59.7163ZM137.083 59.6562L134.763 54.3562H135.763L137.823 59.1562H137.343L139.443 54.3562H140.383L138.063 59.6562H137.083ZM141.279 59.6562V54.3562H142.239V59.6562H141.279ZM141.759 53.3362C141.572 53.3362 141.416 53.2762 141.289 53.1562C141.169 53.0362 141.109 52.8896 141.109 52.7162C141.109 52.5362 141.169 52.3862 141.289 52.2662C141.416 52.1462 141.572 52.0862 141.759 52.0862C141.946 52.0862 142.099 52.1462 142.219 52.2662C142.346 52.3796 142.409 52.5229 142.409 52.6962C142.409 52.8762 142.349 53.0296 142.229 53.1562C142.109 53.2762 141.952 53.3362 141.759 53.3362ZM146.432 59.7163C145.865 59.7163 145.365 59.5996 144.932 59.3662C144.505 59.1329 144.172 58.8129 143.932 58.4062C143.699 57.9996 143.582 57.5329 143.582 57.0062C143.582 56.4796 143.695 56.0129 143.922 55.6062C144.155 55.1996 144.472 54.8829 144.872 54.6562C145.279 54.4229 145.735 54.3062 146.242 54.3062C146.755 54.3062 147.209 54.4196 147.602 54.6462C147.995 54.8729 148.302 55.1929 148.522 55.6062C148.749 56.0129 148.862 56.4896 148.862 57.0362C148.862 57.0762 148.859 57.1229 148.852 57.1762C148.852 57.2296 148.849 57.2796 148.842 57.3262H144.332V56.6362H148.342L147.952 56.8762C147.959 56.5362 147.889 56.2329 147.742 55.9662C147.595 55.6996 147.392 55.4929 147.132 55.3462C146.879 55.1929 146.582 55.1162 146.242 55.1162C145.909 55.1162 145.612 55.1929 145.352 55.3462C145.092 55.4929 144.889 55.7029 144.742 55.9762C144.595 56.2429 144.522 56.5496 144.522 56.8962V57.0562C144.522 57.4096 144.602 57.7262 144.762 58.0062C144.929 58.2796 145.159 58.4929 145.452 58.6462C145.745 58.7996 146.082 58.8762 146.462 58.8762C146.775 58.8762 147.059 58.8229 147.312 58.7162C147.572 58.6096 147.799 58.4496 147.992 58.2362L148.522 58.8562C148.282 59.1362 147.982 59.3496 147.622 59.4962C147.269 59.6429 146.872 59.7163 146.432 59.7163ZM151.217 59.6562L149.247 54.3562H150.157L151.907 59.1562H151.477L153.297 54.3562H154.107L155.887 59.1562H155.467L157.257 54.3562H158.117L156.137 59.6562H155.217L153.547 55.2762H153.827L152.137 59.6562H151.217ZM160.543 59.7163C160.103 59.7163 159.683 59.6562 159.283 59.5362C158.89 59.4162 158.58 59.2696 158.353 59.0962L158.753 58.3363C158.98 58.4896 159.26 58.6196 159.593 58.7262C159.926 58.8329 160.266 58.8862 160.613 58.8862C161.06 58.8862 161.38 58.8229 161.573 58.6962C161.773 58.5696 161.873 58.3929 161.873 58.1662C161.873 57.9996 161.813 57.8696 161.693 57.7762C161.573 57.6829 161.413 57.6129 161.213 57.5662C161.02 57.5196 160.803 57.4796 160.563 57.4462C160.323 57.4062 160.083 57.3596 159.843 57.3062C159.603 57.2462 159.383 57.1662 159.183 57.0662C158.983 56.9596 158.823 56.8162 158.703 56.6362C158.583 56.4496 158.523 56.2029 158.523 55.8962C158.523 55.5762 158.613 55.2962 158.793 55.0562C158.973 54.8162 159.226 54.6329 159.553 54.5062C159.886 54.3729 160.28 54.3062 160.733 54.3062C161.08 54.3062 161.43 54.3496 161.783 54.4362C162.143 54.5162 162.436 54.6329 162.663 54.7862L162.253 55.5462C162.013 55.3862 161.763 55.2762 161.503 55.2162C161.243 55.1562 160.983 55.1262 160.723 55.1262C160.303 55.1262 159.99 55.1962 159.783 55.3362C159.576 55.4696 159.473 55.6429 159.473 55.8562C159.473 56.0362 159.533 56.1762 159.653 56.2762C159.78 56.3696 159.94 56.4429 160.133 56.4962C160.333 56.5496 160.553 56.5962 160.793 56.6362C161.033 56.6696 161.273 56.7162 161.513 56.7762C161.753 56.8296 161.97 56.9062 162.163 57.0062C162.363 57.1062 162.523 57.2462 162.643 57.4262C162.77 57.6062 162.833 57.8462 162.833 58.1462C162.833 58.4662 162.74 58.7429 162.553 58.9762C162.366 59.2096 162.103 59.3929 161.763 59.5262C161.423 59.6529 161.016 59.7163 160.543 59.7163Z" fill="#001136"/>
<defs>
<clipPath id="clip0_4002_410">
<rect width="16" height="16" fill="white" transform="translate(72.0298 48.1562)"/>
</clipPath>
</defs>
</svg>
