<svg width="180" height="32" viewBox="0 0 180 32" fill="none" xmlns="http://www.w3.org/2000/svg">
<path d="M15.5908 0.727051L19.0626 11.4122H30.2976L21.2083 18.0159L24.6801 28.701L15.5908 22.0973L6.50153 28.701L9.97333 18.0159L0.884041 11.4122H12.119L15.5908 0.727051Z" fill="#00B57A"/>
<path d="M53.8788 25.6909V10.0506H47.7287V7.13456H63.4751V10.0506H57.325V25.6909H53.8788ZM65.4068 25.6909V11.5351H68.5613V15.4319L68.1902 14.292C68.6144 13.3377 69.2771 12.6131 70.1784 12.1183C71.0974 11.6234 72.2373 11.376 73.5981 11.376V14.5306C73.4567 14.4952 73.3241 14.4776 73.2004 14.4776C73.0767 14.4599 72.953 14.4511 72.8293 14.4511C71.5745 14.4511 70.576 14.8222 69.8338 15.5644C69.0915 16.289 68.7204 17.3759 68.7204 18.8251V25.6909H65.4068ZM82.5295 25.8765C81.3278 25.8765 80.2674 25.6556 79.3485 25.2138C78.4295 24.7543 77.7137 24.065 77.2012 23.146C76.6887 22.2094 76.4325 21.0342 76.4325 19.6203V11.5351H79.7461V19.1697C79.7461 20.4421 80.0289 21.3964 80.5944 22.0327C81.1776 22.6512 81.9994 22.9605 83.0597 22.9605C83.8373 22.9605 84.5089 22.8014 85.0744 22.4833C85.6576 22.1652 86.1083 21.688 86.4264 21.0518C86.7622 20.4156 86.9301 19.6292 86.9301 18.6925V11.5351H90.2437V25.6909H87.0891V21.8736L87.6458 23.04C87.1686 23.959 86.4706 24.6659 85.5516 25.1607C84.6326 25.6379 83.6253 25.8765 82.5295 25.8765ZM98.9563 25.8765C97.7722 25.8765 96.6323 25.7263 95.5366 25.4258C94.4586 25.1077 93.6014 24.7278 92.9652 24.2859L94.2377 21.7676C94.8739 22.174 95.6338 22.5098 96.5174 22.7749C97.4011 23.04 98.2847 23.1726 99.1683 23.1726C100.211 23.1726 100.962 23.0312 101.422 22.7484C101.899 22.4656 102.137 22.0857 102.137 21.6085C102.137 21.2197 101.978 20.9281 101.66 20.7337C101.342 20.5216 100.927 20.3626 100.414 20.2566C99.9018 20.1505 99.3274 20.0533 98.6912 19.965C98.0726 19.8766 97.4453 19.7617 96.809 19.6203C96.1905 19.4613 95.625 19.2404 95.1125 18.9576C94.5999 18.6572 94.1846 18.2595 93.8665 17.7647C93.5484 17.2699 93.3894 16.616 93.3894 15.803C93.3894 14.9017 93.6456 14.1241 94.1581 13.4702C94.6706 12.7987 95.3864 12.2862 96.3054 11.9327C97.242 11.5616 98.3466 11.376 99.619 11.376C100.573 11.376 101.536 11.4821 102.508 11.6941C103.48 11.9062 104.285 12.2066 104.921 12.5954L103.648 15.1138C102.977 14.7073 102.296 14.4334 101.607 14.292C100.936 14.133 100.264 14.0534 99.5925 14.0534C98.5851 14.0534 97.8341 14.2036 97.3392 14.5041C96.8621 14.8045 96.6235 15.1845 96.6235 15.644C96.6235 16.0681 96.7825 16.3862 97.1006 16.5983C97.4187 16.8104 97.8341 16.9783 98.3466 17.102C98.8591 17.2257 99.4246 17.3317 100.043 17.4201C100.679 17.4908 101.307 17.6056 101.925 17.7647C102.544 17.9238 103.109 18.1447 103.622 18.4274C104.152 18.6925 104.576 19.0725 104.894 19.5673C105.212 20.0622 105.371 20.7072 105.371 21.5025C105.371 22.3861 105.106 23.1549 104.576 23.8088C104.064 24.4627 103.33 24.9752 102.376 25.3463C101.422 25.6998 100.282 25.8765 98.9563 25.8765ZM113.553 25.8765C111.998 25.8765 110.797 25.4788 109.948 24.6836C109.1 23.8706 108.676 22.6777 108.676 21.1048V8.407H111.989V21.0253C111.989 21.6969 112.157 22.2182 112.493 22.5894C112.847 22.9605 113.333 23.146 113.951 23.146C114.693 23.146 115.312 22.9516 115.807 22.5628L116.735 24.9222C116.346 25.2403 115.869 25.4788 115.303 25.6379C114.738 25.797 114.154 25.8765 113.553 25.8765ZM106.343 14.292V11.6411H115.78V14.292H106.343ZM127.307 25.8765C126.158 25.8765 125.107 25.6114 124.153 25.0812C123.216 24.551 122.465 23.7558 121.899 22.6954C121.351 21.6174 121.077 20.2566 121.077 18.613C121.077 16.9518 121.343 15.591 121.873 14.5306C122.421 13.4702 123.163 12.6838 124.1 12.1713C125.036 11.6411 126.105 11.376 127.307 11.376C128.703 11.376 129.932 11.6764 130.992 12.2773C132.07 12.8782 132.918 13.7176 133.537 14.7957C134.173 15.8737 134.491 17.1462 134.491 18.613C134.491 20.0798 134.173 21.3611 133.537 22.4568C132.918 23.5348 132.07 24.3743 130.992 24.9752C129.932 25.576 128.703 25.8765 127.307 25.8765ZM119.46 30.8337V11.5351H122.615V14.8752L122.509 18.6395L122.774 22.4038V30.8337H119.46ZM126.936 23.04C127.731 23.04 128.438 22.8633 129.057 22.5098C129.693 22.1564 130.197 21.6439 130.568 20.9723C130.939 20.3007 131.124 19.5143 131.124 18.613C131.124 17.694 130.939 16.9076 130.568 16.2537C130.197 15.5821 129.693 15.0696 129.057 14.7162C128.438 14.3627 127.731 14.186 126.936 14.186C126.141 14.186 125.425 14.3627 124.789 14.7162C124.153 15.0696 123.649 15.5821 123.278 16.2537C122.907 16.9076 122.721 17.694 122.721 18.613C122.721 19.5143 122.907 20.3007 123.278 20.9723C123.649 21.6439 124.153 22.1564 124.789 22.5098C125.425 22.8633 126.141 23.04 126.936 23.04ZM137.634 25.6909V11.5351H140.947V25.6909H137.634ZM139.304 9.20227C138.685 9.20227 138.173 9.00787 137.766 8.61907C137.377 8.23027 137.183 7.76194 137.183 7.21409C137.183 6.64856 137.377 6.18023 137.766 5.80911C138.173 5.42031 138.685 5.22591 139.304 5.22591C139.922 5.22591 140.426 5.41147 140.815 5.7826C141.221 6.13605 141.424 6.58671 141.424 7.13456C141.424 7.71776 141.23 8.2126 140.841 8.61907C140.452 9.00787 139.94 9.20227 139.304 9.20227ZM145.296 25.6909V6.02118H148.61V25.6909H145.296ZM159.321 25.8765C157.872 25.8765 156.582 25.5672 155.451 24.9487C154.32 24.3124 153.428 23.4465 152.774 22.3508C152.12 21.2551 151.793 20.0091 151.793 18.613C151.793 17.1992 152.12 15.9532 152.774 14.8752C153.428 13.7795 154.32 12.9224 155.451 12.3038C156.582 11.6853 157.872 11.376 159.321 11.376C160.788 11.376 162.087 11.6853 163.218 12.3038C164.367 12.9224 165.259 13.7707 165.896 14.8487C166.55 15.9267 166.876 17.1815 166.876 18.613C166.876 20.0091 166.55 21.2551 165.896 22.3508C165.259 23.4465 164.367 24.3124 163.218 24.9487C162.087 25.5672 160.788 25.8765 159.321 25.8765ZM159.321 23.04C160.134 23.04 160.859 22.8633 161.495 22.5098C162.131 22.1564 162.626 21.6439 162.98 20.9723C163.351 20.3007 163.536 19.5143 163.536 18.613C163.536 17.694 163.351 16.9076 162.98 16.2537C162.626 15.5821 162.131 15.0696 161.495 14.7162C160.859 14.3627 160.143 14.186 159.348 14.186C158.535 14.186 157.81 14.3627 157.174 14.7162C156.556 15.0696 156.061 15.5821 155.69 16.2537C155.319 16.9076 155.133 17.694 155.133 18.613C155.133 19.5143 155.319 20.3007 155.69 20.9723C156.061 21.6439 156.556 22.1564 157.174 22.5098C157.81 22.8633 158.526 23.04 159.321 23.04ZM175.373 25.8765C173.818 25.8765 172.617 25.4788 171.768 24.6836C170.92 23.8706 170.496 22.6777 170.496 21.1048V8.407H173.809V21.0253C173.809 21.6969 173.977 22.2182 174.313 22.5894C174.667 22.9605 175.153 23.146 175.771 23.146C176.513 23.146 177.132 22.9516 177.627 22.5628L178.555 24.9222C178.166 25.2403 177.689 25.4788 177.123 25.6379C176.558 25.797 175.974 25.8765 175.373 25.8765ZM168.163 14.292V11.6411H177.6V14.292H168.163Z" fill="black"/>
</svg>
