<svg width="21" height="20" viewBox="0 0 21 20" fill="none" xmlns="http://www.w3.org/2000/svg">
<path d="M19.22 9.86328L11.175 1.82422C11.1171 1.76618 11.0483 1.72013 10.9726 1.68872C10.8968 1.6573 10.8156 1.64113 10.7336 1.64113C10.6516 1.64113 10.5704 1.6573 10.4947 1.68872C10.419 1.72013 10.3502 1.76618 10.2922 1.82422L2.24731 9.86328C2.01294 10.0977 1.88013 10.416 1.88013 10.748C1.88013 11.4375 2.44067 11.998 3.13013 11.998H3.97778V17.7344C3.97778 18.0801 4.25708 18.3594 4.60278 18.3594H9.48364V13.9844H11.6711V18.3594H16.8645C17.2102 18.3594 17.4895 18.0801 17.4895 17.7344V11.998H18.3372C18.6692 11.998 18.9875 11.8672 19.2219 11.6309C19.7083 11.1426 19.7083 10.3516 19.22 9.86328Z" fill="black"/>
</svg>
