<svg width="8" height="12" viewBox="0 0 8 12" fill="none" xmlns="http://www.w3.org/2000/svg">
<path d="M6.07358 0.2868C6.14087 0.325807 6.19293 0.38648 6.22128 0.458907C6.24963 0.531333 6.25257 0.611232 6.22964 0.68555L4.99145 4.7088H7.27602C7.34315 4.70877 7.40883 4.72841 7.46494 4.76528C7.52104 4.80215 7.56513 4.85464 7.59174 4.91628C7.61835 4.97792 7.62634 5.046 7.6147 5.11212C7.60307 5.17825 7.57232 5.23951 7.52627 5.28836L2.02627 11.1321C1.97305 11.1887 1.90223 11.2256 1.82536 11.2368C1.74849 11.248 1.67009 11.2328 1.60295 11.1937C1.53581 11.1547 1.48388 11.094 1.45563 11.0216C1.42739 10.9493 1.42448 10.8695 1.44739 10.7952L2.68558 6.7713H0.401016C0.333878 6.77133 0.268202 6.75169 0.212095 6.71482C0.155988 6.67795 0.111907 6.62545 0.085292 6.56382C0.0586776 6.50218 0.0506953 6.4341 0.0623306 6.36798C0.073966 6.30185 0.104709 6.24059 0.150766 6.19174L5.65077 0.347987C5.70392 0.291474 5.77463 0.254603 5.85139 0.243369C5.92815 0.232136 6.00646 0.2472 6.07358 0.286112V0.2868Z" fill="white"/>
</svg>
