<svg width="21" height="20" viewBox="0 0 21 20" fill="none" xmlns="http://www.w3.org/2000/svg">
<path d="M17.9289 4.40703L10.4289 1.90703C10.3006 1.86426 10.1618 1.86426 10.0335 1.90703L2.53354 4.40703C2.4091 4.44852 2.30086 4.52811 2.22416 4.63453C2.14746 4.74096 2.10619 4.86882 2.1062 5V11.25C2.1062 11.4158 2.17205 11.5747 2.28926 11.6919C2.40647 11.8092 2.56544 11.875 2.7312 11.875C2.89696 11.875 3.05593 11.8092 3.17314 11.6919C3.29035 11.5747 3.3562 11.4158 3.3562 11.25V5.86719L5.98042 6.74141C5.2832 7.86782 5.06149 9.22488 5.36396 10.5146C5.66644 11.8043 6.46838 12.9213 7.5937 13.6203C6.18745 14.1719 4.97183 15.1695 4.08276 16.5336C4.03653 16.6023 4.00441 16.6795 3.98828 16.7608C3.97215 16.842 3.97233 16.9257 3.98881 17.0068C4.00529 17.088 4.03774 17.1651 4.08428 17.2336C4.13081 17.3021 4.1905 17.3607 4.25987 17.406C4.32925 17.4512 4.40693 17.4822 4.48839 17.4972C4.56986 17.5122 4.65349 17.5108 4.73442 17.4932C4.81535 17.4755 4.89196 17.442 4.95981 17.3945C5.02766 17.3469 5.08539 17.2864 5.12964 17.2164C6.30698 15.4102 8.16636 14.375 10.2312 14.375C12.296 14.375 14.1554 15.4102 15.3328 17.2164C15.4244 17.3527 15.566 17.4473 15.727 17.48C15.8879 17.5127 16.0552 17.4807 16.1928 17.391C16.3303 17.3013 16.427 17.1611 16.462 17.0006C16.4969 16.8402 16.4674 16.6724 16.3796 16.5336C15.4906 15.1695 14.2703 14.1719 12.8687 13.6203C13.9929 12.9214 14.7941 11.8051 15.0965 10.5163C15.399 9.22752 15.178 7.87139 14.482 6.74531L17.9289 5.59688C18.0533 5.55541 18.1616 5.47583 18.2383 5.3694C18.3151 5.26298 18.3563 5.13511 18.3563 5.00391C18.3563 4.87271 18.3151 4.74484 18.2383 4.63841C18.1616 4.53198 18.0533 4.4524 17.9289 4.41094V4.40703ZM13.9812 9.375C13.9814 9.96786 13.841 10.5523 13.5715 11.0804C13.3021 11.6085 12.9113 12.0652 12.4311 12.413C11.951 12.7608 11.3953 12.9898 10.8095 13.0812C10.2238 13.1726 9.62467 13.1239 9.0614 12.9389C8.49812 12.754 7.98673 12.4381 7.56916 12.0173C7.1516 11.5964 6.83977 11.0826 6.65926 10.5179C6.47874 9.95316 6.43469 9.3537 6.53072 8.76867C6.62675 8.18364 6.86011 7.62972 7.21167 7.15234L10.0335 8.08984C10.1618 8.13261 10.3006 8.13261 10.4289 8.08984L13.2507 7.15234C13.7256 7.79609 13.9816 8.57508 13.9812 9.375ZM10.2312 6.84141L4.70776 5L10.2312 3.15859L15.7546 5L10.2312 6.84141Z" fill="black"/>
</svg>
