<svg width="17" height="11" viewBox="0 0 17 11" fill="none" xmlns="http://www.w3.org/2000/svg">
<path d="M8.63277 0.92296C8.25332 1.20501 8.25332 1.66229 8.63277 1.94434L12.804 5.04476H1.54656C1.00993 5.04476 0.574903 5.36811 0.574903 5.76698C0.574903 6.16585 1.00993 6.4892 1.54656 6.4892H12.804L8.63277 9.58963C8.25332 9.87167 8.25332 10.329 8.63277 10.611C9.01223 10.893 9.62745 10.893 10.0069 10.611L15.8369 6.27767C16.0191 6.14223 16.1215 5.95853 16.1215 5.76698C16.1215 5.57544 16.0191 5.39174 15.8369 5.25629L10.0069 0.92296C9.62745 0.640914 9.01223 0.640914 8.63277 0.92296Z" fill="#EC1E24"/>
</svg>
