<svg width="15" height="15" viewBox="0 0 15 15" fill="none" xmlns="http://www.w3.org/2000/svg">
<path fill-rule="evenodd" clip-rule="evenodd" d="M11.4623 6.66279C11.4623 9.38997 9.24865 11.6035 6.51471 11.6035C3.78077 11.6035 1.56715 9.38997 1.56715 6.66279C1.56715 3.93562 3.78077 1.72213 6.51471 1.72213C9.24865 1.72213 11.4623 3.93562 11.4623 6.66279ZM10.4896 11.6743C9.39776 12.5396 8.01665 13.0563 6.51471 13.0563C2.97984 13.0563 0.114258 10.1939 0.114258 6.66279C0.114258 3.13173 2.97984 0.269241 6.51471 0.269241C10.0496 0.269241 12.9152 3.13173 12.9152 6.66279C12.9152 8.17035 12.3928 9.55604 11.5191 10.6491L13.8442 12.9718C14.1281 13.2553 14.1281 13.715 13.8442 13.9986C13.5604 14.2821 13.1002 14.2821 12.8163 13.9986L10.4896 11.6743Z" fill="black"/>
</svg>
