<svg width="16" height="16" viewBox="0 0 16 16" fill="none" xmlns="http://www.w3.org/2000/svg">
<path d="M15.2139 8.78125H0.776367C0.557617 8.78125 0.372721 8.70573 0.22168 8.55469C0.070638 8.40365 -0.00488281 8.21875 -0.00488281 8C-0.00488281 7.78125 0.070638 7.59635 0.22168 7.44531C0.372721 7.29427 0.557617 7.21875 0.776367 7.21875H15.2139C15.4326 7.21875 15.6175 7.29427 15.7686 7.44531C15.9196 7.59635 15.9951 7.78125 15.9951 8C15.9951 8.21875 15.9196 8.40365 15.7686 8.55469C15.6175 8.70573 15.4326 8.78125 15.2139 8.78125ZM15.2139 4.125H0.776367C0.557617 4.125 0.372721 4.04948 0.22168 3.89844C0.070638 3.7474 -0.00488281 3.56771 -0.00488281 3.35938C-0.00488281 3.14062 0.070638 2.95573 0.22168 2.80469C0.372721 2.65365 0.557617 2.57812 0.776367 2.57812H15.2139C15.4326 2.57812 15.6175 2.65365 15.7686 2.80469C15.9196 2.95573 15.9951 3.14062 15.9951 3.35938C15.9951 3.56771 15.9196 3.7474 15.7686 3.89844C15.6175 4.04948 15.4326 4.125 15.2139 4.125ZM15.2139 13.4219H0.776367C0.557617 13.4219 0.372721 13.3464 0.22168 13.1953C0.070638 13.0443 -0.00488281 12.8594 -0.00488281 12.6406C-0.00488281 12.4323 0.070638 12.2526 0.22168 12.1016C0.372721 11.9505 0.557617 11.875 0.776367 11.875H15.2139C15.4326 11.875 15.6175 11.9505 15.7686 12.1016C15.9196 12.2526 15.9951 12.4323 15.9951 12.6406C15.9951 12.8594 15.9196 13.0443 15.7686 13.1953C15.6175 13.3464 15.4326 13.4219 15.2139 13.4219Z" fill="#212529"/>
</svg>
