<svg width="21" height="20" viewBox="0 0 21 20" fill="none" xmlns="http://www.w3.org/2000/svg">
<g clip-path="url(#clip0_1_2850)">
<path d="M19.9051 6.94844L10.5301 1.94844C10.4397 1.90029 10.3388 1.8751 10.2364 1.8751C10.1339 1.8751 10.0331 1.90029 9.94263 1.94844L0.567627 6.94844C0.46763 7.00173 0.384002 7.0812 0.325689 7.17836C0.267376 7.27551 0.236572 7.38669 0.236572 7.5C0.236572 7.61331 0.267376 7.72449 0.325689 7.82164C0.384002 7.9188 0.46763 7.99827 0.567627 8.05156L2.73638 9.20859V12.9914C2.73573 13.2984 2.84871 13.5948 3.05356 13.8234C4.077 14.9633 6.36997 16.875 10.2364 16.875C11.5184 16.8856 12.7908 16.6534 13.9864 16.1906V18.75C13.9864 18.9158 14.0522 19.0747 14.1694 19.1919C14.2866 19.3092 14.4456 19.375 14.6114 19.375C14.7771 19.375 14.9361 19.3092 15.0533 19.1919C15.1705 19.0747 15.2364 18.9158 15.2364 18.75V15.5867C16.0514 15.1162 16.7879 14.5213 17.4192 13.8234C17.624 13.5948 17.737 13.2984 17.7364 12.9914V9.20859L19.9051 8.05156C20.0051 7.99827 20.0888 7.9188 20.1471 7.82164C20.2054 7.72449 20.2362 7.61331 20.2362 7.5C20.2362 7.38669 20.2054 7.27551 20.1471 7.17836C20.0888 7.0812 20.0051 7.00173 19.9051 6.94844ZM10.2364 15.625C6.85591 15.625 4.86763 13.9734 3.98638 12.9914V9.875L9.94263 13.0516C10.0331 13.0997 10.1339 13.1249 10.2364 13.1249C10.3388 13.1249 10.4397 13.0997 10.5301 13.0516L13.9864 11.2086V14.8289C13.002 15.2883 11.7614 15.625 10.2364 15.625ZM16.4864 12.9883C16.1117 13.404 15.6925 13.7774 15.2364 14.1016V10.5414L16.4864 9.875V12.9883ZM14.9239 9.29219L14.9067 9.28203L10.5317 6.94844C10.3857 6.87388 10.2163 6.85965 10.0599 6.90881C9.90359 6.95796 9.7728 7.06658 9.69575 7.21124C9.6187 7.35591 9.60157 7.52505 9.64804 7.68223C9.69451 7.83941 9.80086 7.97205 9.94419 8.05156L13.5958 10L10.2364 11.7914L2.1895 7.5L10.2364 3.20859L18.2833 7.5L14.9239 9.29219Z" fill="#FF2A2A"/>
</g>
<defs>
<clipPath id="clip0_1_2850">
<rect width="20" height="20" fill="white" transform="translate(0.236328)"/>
</clipPath>
</defs>
</svg>
