<svg xmlns="http://www.w3.org/2000/svg" width="49.285" height="51.364" viewBox="0 0 49.285 51.364">
  <g id="discount_1_" data-name="discount (1)" transform="translate(-10.359 0.002)">
    <g id="Group_8" data-name="Group 8" transform="translate(10.359 -0.002)">
      <g id="Group_7" data-name="Group 7" transform="translate(0)">
        <path id="Path_4" data-name="Path 4" d="M57.268,26.345a1.505,1.505,0,0,1,0-1.331L59.184,21.1a4.459,4.459,0,0,0-1.924-5.921L53.407,13.13a1.505,1.505,0,0,1-.782-1.076l-.754-4.3A4.459,4.459,0,0,0,46.834,4.1l-4.319.611A1.505,1.505,0,0,1,41.25,4.3L38.115,1.265a4.459,4.459,0,0,0-6.226,0L28.754,4.3a1.506,1.506,0,0,1-1.265.411L23.169,4.1a4.459,4.459,0,0,0-5.037,3.66l-.754,4.3a1.506,1.506,0,0,1-.782,1.076l-3.853,2.045A4.459,4.459,0,0,0,10.82,21.1l1.916,3.919a1.505,1.505,0,0,1,0,1.331L10.82,30.265a4.459,4.459,0,0,0,1.924,5.921L16.6,38.23a1.505,1.505,0,0,1,.782,1.076l.754,4.3a4.456,4.456,0,0,0,4.4,3.7,4.581,4.581,0,0,0,.641-.045l4.319-.611a1.5,1.5,0,0,1,1.265.411L31.889,50.1a4.459,4.459,0,0,0,6.226,0l3.135-3.033a1.507,1.507,0,0,1,1.265-.411l4.319.611a4.458,4.458,0,0,0,5.037-3.66l.754-4.3a1.506,1.506,0,0,1,.782-1.076l3.853-2.045a4.459,4.459,0,0,0,1.924-5.921Zm-1.4,7.223-3.853,2.045a4.449,4.449,0,0,0-2.311,3.181l-.754,4.3a1.509,1.509,0,0,1-1.7,1.238l-4.319-.611a4.448,4.448,0,0,0-3.74,1.215l-3.135,3.033a1.509,1.509,0,0,1-2.106,0l-3.135-3.033a4.444,4.444,0,0,0-3.1-1.26,4.547,4.547,0,0,0-.638.045l-4.319.611a1.509,1.509,0,0,1-1.7-1.238l-.754-4.3a4.448,4.448,0,0,0-2.311-3.181l-3.853-2.045a1.509,1.509,0,0,1-.651-2L15.4,27.646a4.449,4.449,0,0,0,0-3.932L13.481,19.8a1.509,1.509,0,0,1,.651-2l3.853-2.045A4.449,4.449,0,0,0,20.3,12.566l.754-4.3a1.509,1.509,0,0,1,1.7-1.238l4.319.611a4.449,4.449,0,0,0,3.74-1.215l3.135-3.033a1.509,1.509,0,0,1,2.106,0L39.19,6.427a4.448,4.448,0,0,0,3.74,1.215l4.319-.611a1.509,1.509,0,0,1,1.7,1.238l.754,4.3a4.448,4.448,0,0,0,2.311,3.181l3.853,2.045a1.509,1.509,0,0,1,.651,2l-1.916,3.919a4.449,4.449,0,0,0,0,3.932l1.916,3.919A1.509,1.509,0,0,1,55.871,33.569Z" transform="translate(-10.359 0.002)" fill="#ed1c24"/>
      </g>
    </g>
    <g id="Group_10" data-name="Group 10" transform="translate(23.745 14.423)">
      <g id="Group_9" data-name="Group 9">
        <path id="Path_5" data-name="Path 5" d="M165.871,144.225a1.481,1.481,0,0,0-2.095,0l-19.551,19.551a1.481,1.481,0,1,0,2.095,2.095l19.551-19.551A1.481,1.481,0,0,0,165.871,144.225Z" transform="translate(-143.791 -143.791)" fill="#ed1c24"/>
      </g>
    </g>
    <g id="Group_12" data-name="Group 12" transform="translate(23.646 12.349)">
      <g id="Group_11" data-name="Group 11" transform="translate(0)">
        <path id="Path_6" data-name="Path 6" d="M148.233,123.116a5.431,5.431,0,1,0,5.431,5.431A5.437,5.437,0,0,0,148.233,123.116Zm0,7.9a2.469,2.469,0,1,1,2.469-2.469A2.471,2.471,0,0,1,148.233,131.016Z" transform="translate(-142.802 -123.116)" fill="#ed1c24"/>
      </g>
    </g>
    <g id="Group_14" data-name="Group 14" transform="translate(35.495 28.149)">
      <g id="Group_13" data-name="Group 13">
        <path id="Path_7" data-name="Path 7" d="M266.353,280.61a5.431,5.431,0,1,0,5.431,5.431A5.437,5.437,0,0,0,266.353,280.61Zm0,7.9a2.469,2.469,0,1,1,2.469-2.469A2.472,2.472,0,0,1,266.353,288.51Z" transform="translate(-260.922 -280.61)" fill="#ed1c24"/>
      </g>
    </g>
  </g>
</svg>
