<svg width="21" height="21" viewBox="0 0 21 21" fill="none" xmlns="http://www.w3.org/2000/svg">
<path d="M10.23 2.00781C8.62301 2.00781 7.05213 2.48434 5.71598 3.37712C4.37983 4.26991 3.33842 5.53886 2.72346 7.02351C2.1085 8.50816 1.9476 10.1418 2.2611 11.7179C2.57461 13.294 3.34844 14.7418 4.48474 15.8781C5.62104 17.0144 7.06878 17.7882 8.64488 18.1017C10.221 18.4152 11.8546 18.2543 13.3393 17.6393C14.8239 17.0244 16.0929 15.983 16.9857 14.6468C17.8785 13.3107 18.355 11.7398 18.355 10.1328C18.3527 7.97863 17.496 5.91332 15.9727 4.39008C14.4495 2.86684 12.3842 2.01009 10.23 2.00781ZM10.855 16.9789V12.0078H12.73C12.8957 12.0078 13.0547 11.942 13.1719 11.8248C13.2891 11.7075 13.355 11.5486 13.355 11.3828C13.355 11.2171 13.2891 11.0581 13.1719 10.9409C13.0547 10.8237 12.8957 10.7578 12.73 10.7578H10.855V8.88281C10.855 8.55129 10.9867 8.23335 11.2211 7.99893C11.4555 7.76451 11.7735 7.63281 12.105 7.63281H13.355C13.5207 7.63281 13.6797 7.56696 13.7969 7.44975C13.9141 7.33254 13.98 7.17357 13.98 7.00781C13.98 6.84205 13.9141 6.68308 13.7969 6.56587C13.6797 6.44866 13.5207 6.38281 13.355 6.38281H12.105C11.4419 6.38281 10.8061 6.6462 10.3372 7.11505C9.86838 7.58389 9.60498 8.21977 9.60498 8.88281V10.7578H7.72998C7.56422 10.7578 7.40525 10.8237 7.28804 10.9409C7.17083 11.0581 7.10498 11.2171 7.10498 11.3828C7.10498 11.5486 7.17083 11.7075 7.28804 11.8248C7.40525 11.942 7.56422 12.0078 7.72998 12.0078H9.60498V16.9789C7.8431 16.8181 6.21105 15.9842 5.04829 14.6508C3.88554 13.3173 3.2816 11.5869 3.3621 9.81955C3.44261 8.05218 4.20135 6.38387 5.48051 5.16165C6.75967 3.93942 8.46078 3.25737 10.23 3.25737C11.9992 3.25737 13.7003 3.93942 14.9795 5.16165C16.2586 6.38387 17.0174 8.05218 17.0979 9.81955C17.1784 11.5869 16.5744 13.3173 15.4117 14.6508C14.2489 15.9842 12.6169 16.8181 10.855 16.9789Z" fill="#001136"/>
</svg>
