<svg width="21" height="21" viewBox="0 0 21 21" fill="none" xmlns="http://www.w3.org/2000/svg">
<path d="M13.0769 9.6125L9.32686 7.1125C9.23271 7.04969 9.12327 7.01362 9.01023 7.00814C8.89718 7.00266 8.78477 7.02799 8.68499 7.08141C8.58521 7.13482 8.50181 7.21433 8.44369 7.31145C8.38557 7.40856 8.35491 7.51964 8.35498 7.63282V12.6328C8.35491 12.746 8.38557 12.8571 8.44369 12.9542C8.50181 13.0513 8.58521 13.1308 8.68499 13.1842C8.78477 13.2376 8.89718 13.263 9.01023 13.2575C9.12327 13.252 9.23271 13.2159 9.32686 13.1531L13.0769 10.6531C13.1626 10.5961 13.2329 10.5187 13.2815 10.428C13.3301 10.3372 13.3556 10.2358 13.3556 10.1328C13.3556 10.0298 13.3301 9.92845 13.2815 9.83768C13.2329 9.74691 13.1626 9.66956 13.0769 9.6125ZM9.60498 11.4648V8.80469L11.6034 10.1328L9.60498 11.4648ZM18.537 5.56407C18.4634 5.27606 18.3224 5.00968 18.1255 4.7869C17.9287 4.56413 17.6817 4.39135 17.405 4.28282C14.7269 3.24844 10.4644 3.25782 10.23 3.25782C9.99561 3.25782 5.73311 3.24844 3.05498 4.28282C2.77823 4.39135 2.53126 4.56413 2.33443 4.7869C2.1376 5.00968 1.99656 5.27606 1.92295 5.56407C1.72061 6.34375 1.47998 7.76875 1.47998 10.1328C1.47998 12.4969 1.72061 13.9219 1.92295 14.7016C1.99645 14.9897 2.13744 15.2563 2.33428 15.4792C2.53111 15.7021 2.77814 15.875 3.05498 15.9836C5.62061 16.9734 9.63623 17.0078 10.1784 17.0078H10.2815C10.8237 17.0078 14.8417 16.9734 17.405 15.9836C17.6818 15.875 17.9289 15.7021 18.1257 15.4792C18.3225 15.2563 18.4635 14.9897 18.537 14.7016C18.7394 13.9203 18.98 12.4969 18.98 10.1328C18.98 7.76875 18.7394 6.34375 18.537 5.56407ZM17.3269 14.3922C17.303 14.488 17.2569 14.5769 17.1921 14.6514C17.1273 14.726 17.0458 14.7841 16.9542 14.8211C14.4815 15.7758 10.2761 15.7586 10.2354 15.7586H10.23C10.1878 15.7586 5.98545 15.7742 3.51123 14.8211C3.41964 14.7841 3.33812 14.726 3.27335 14.6514C3.20857 14.5769 3.16238 14.488 3.13857 14.3922C2.94873 13.6789 2.72998 12.3648 2.72998 10.1328C2.72998 7.90078 2.94873 6.58672 3.13311 5.87735C3.15647 5.78093 3.20246 5.69145 3.26726 5.61633C3.33206 5.5412 3.41381 5.48258 3.50576 5.44532C5.89014 4.52422 9.88545 4.50782 10.2128 4.50782H10.2339C10.2761 4.50782 14.4823 4.49375 16.9526 5.44532C17.0442 5.48228 17.1257 5.54042 17.1905 5.61497C17.2553 5.68953 17.3015 5.77837 17.3253 5.87422C17.5112 6.58672 17.73 7.90078 17.73 10.1328C17.73 12.3648 17.5112 13.6789 17.3269 14.3883V14.3922Z" fill="#001136"/>
</svg>
