<svg xmlns="http://www.w3.org/2000/svg" xmlns:xlink="http://www.w3.org/1999/xlink" width="51.364" height="51.364" viewBox="0 0 51.364 51.364">
  <defs>
    <clipPath id="clip-path">
      <path id="path291" d="M0-682.665H51.364V-631.3H0Z" transform="translate(0 682.665)"/>
    </clipPath>
  </defs>
  <g id="g285" transform="translate(0 682.665)">
    <g id="g287" transform="translate(0 -682.665)">
      <g id="g289" transform="translate(0 0)" clip-path="url(#clip-path)">
        <g id="g295" transform="translate(10.701 10.668)">
          <path id="path297" d="M-424.887,0A24.571,24.571,0,0,1-419.8,15.014a24.679,24.679,0,0,1-24.679,24.679,24.571,24.571,0,0,1-14.981-5.066" transform="translate(459.456)" fill="none" stroke="#ed1c24" stroke-linecap="round" stroke-linejoin="round" stroke-miterlimit="10" stroke-width="2"/>
        </g>
        <g id="g299" transform="translate(11.468 1.003)">
          <path id="path301" d="M0-55.336a24.565,24.565,0,0,1,14.214-4.5,24.571,24.571,0,0,1,15.019,5.095" transform="translate(0 59.839)" fill="none" stroke="#ed1c24" stroke-linecap="round" stroke-linejoin="round" stroke-miterlimit="10" stroke-width="2"/>
        </g>
        <g id="g303" transform="translate(1.003 11.935)">
          <path id="path305" d="M-62.16-352.955a24.57,24.57,0,0,1-5.057-14.97,24.564,24.564,0,0,1,4.18-13.747" transform="translate(67.217 381.672)" fill="none" stroke="#ed1c24" stroke-linecap="round" stroke-linejoin="round" stroke-miterlimit="10" stroke-width="2"/>
        </g>
        <g id="g307" transform="translate(17.456 20.668)">
          <path id="path309" d="M-190.724-202.189c-1.375,7.872-4.124,13.242-7.291,13.242-4.543,0-8.226-11.049-8.226-24.679,0-1.718.058-3.395.17-5.014" transform="translate(206.242 218.639)" fill="none" stroke="#ed1c24" stroke-linecap="round" stroke-linejoin="round" stroke-miterlimit="10" stroke-width="2"/>
        </g>
        <g id="g311" transform="translate(18.383 1.003)">
          <path id="path313" d="M0-163.291c1.372-7.9,4.126-13.286,7.3-13.286,4.543,0,8.226,11.049,8.226,24.679,0,1.719-.059,3.4-.17,5.016" transform="translate(0 176.577)" fill="none" stroke="#ed1c24" stroke-linecap="round" stroke-linejoin="round" stroke-miterlimit="10" stroke-width="2"/>
        </g>
        <g id="g315" transform="translate(2.776 33.908)">
          <path id="path317" d="M0,0H27.454" fill="none" stroke="#ed1c24" stroke-linecap="round" stroke-linejoin="round" stroke-miterlimit="10" stroke-width="2"/>
        </g>
        <g id="g319" transform="translate(21.502 17.456)">
          <path id="path321" d="M0,0H27.086" fill="none" stroke="#ed1c24" stroke-linecap="round" stroke-linejoin="round" stroke-miterlimit="10" stroke-width="2"/>
        </g>
        <g id="g323" transform="translate(2.776 17.456)">
          <path id="path325" d="M0,0H11.871" fill="none" stroke="#ed1c24" stroke-linecap="round" stroke-linejoin="round" stroke-miterlimit="10" stroke-width="2"/>
        </g>
        <g id="g327" transform="translate(30.229 30.698)">
          <path id="path329" d="M-78.913-39.456a3.21,3.21,0,0,0-3.21-3.21,3.21,3.21,0,0,0-3.21,3.21,3.21,3.21,0,0,0,3.21,3.21A3.21,3.21,0,0,0-78.913-39.456Z" transform="translate(85.333 42.667)" fill="none" stroke="#ed1c24" stroke-linecap="round" stroke-linejoin="round" stroke-miterlimit="10" stroke-width="2"/>
        </g>
        <g id="g331" transform="translate(14.646 14.246)">
          <path id="path333" d="M-78.913-39.456a3.21,3.21,0,0,0-3.21-3.21,3.21,3.21,0,0,0-3.21,3.21,3.21,3.21,0,0,0,3.21,3.21A3.21,3.21,0,0,0-78.913-39.456Z" transform="translate(85.333 42.667)" fill="none" stroke="#ed1c24" stroke-linecap="round" stroke-linejoin="round" stroke-miterlimit="10" stroke-width="2"/>
        </g>
        <g id="g335" transform="translate(39.928 5.016)">
          <path id="path337" d="M-78.913-39.456a3.21,3.21,0,0,0-3.21-3.21,3.21,3.21,0,0,0-3.21,3.21,3.21,3.21,0,0,0,3.21,3.21A3.21,3.21,0,0,0-78.913-39.456Z" transform="translate(85.333 42.667)" fill="none" stroke="#ed1c24" stroke-linecap="round" stroke-linejoin="round" stroke-miterlimit="10" stroke-width="2"/>
        </g>
        <g id="g339" transform="translate(5.016 39.927)">
          <path id="path341" d="M-78.913-39.456a3.21,3.21,0,0,0-3.21-3.21,3.21,3.21,0,0,0-3.21,3.21,3.21,3.21,0,0,0,3.21,3.21A3.21,3.21,0,0,0-78.913-39.456Z" transform="translate(85.333 42.667)" fill="none" stroke="#ed1c24" stroke-linecap="round" stroke-linejoin="round" stroke-miterlimit="10" stroke-width="2"/>
        </g>
        <g id="g343" transform="translate(36.65 33.908)">
          <path id="path345" d="M0,0H11.939" fill="none" stroke="#ed1c24" stroke-linecap="round" stroke-linejoin="round" stroke-miterlimit="10" stroke-width="2"/>
        </g>
        <g id="g347" transform="translate(8.032 8.433)">
          <path id="path349" d="M0,0H0" fill="none" stroke="#ed1c24" stroke-linecap="round" stroke-linejoin="round" stroke-miterlimit="10" stroke-width="2"/>
        </g>
      </g>
    </g>
  </g>
</svg>
