<svg xmlns="http://www.w3.org/2000/svg" width="48.364" height="51.364" viewBox="0 0 48.364 51.364">
  <g id="tax" transform="translate(-14.983 0)">
    <path id="Path_11" data-name="Path 11" d="M269.742,118.048a.773.773,0,0,0,1.043-.2l9.023-13.293a.751.751,0,1,0-1.243-.843L269.542,117A.751.751,0,0,0,269.742,118.048Z" transform="translate(-228.954 -93.031)" fill="#ed1c24"/>
    <path id="Path_12" data-name="Path 12" d="M345.306,188.676c1.563,0,2.834-1.563,2.834-3.484-.16-4.623-5.509-4.622-5.669,0C342.472,187.113,343.743,188.676,345.306,188.676Zm0-5.465c.722,0,1.332.907,1.332,1.982s-.61,1.982-1.332,1.982-1.332-.907-1.332-1.982S344.584,183.21,345.306,183.21Z" transform="translate(-294.698 -163.529)" fill="#ed1c24"/>
    <path id="Path_13" data-name="Path 13" d="M249.525,106.867c0-1.921-1.271-3.484-2.834-3.484-3.759.186-3.757,6.783,0,6.967C248.254,110.35,249.525,108.788,249.525,106.867Zm-4.167,0c0-1.074.61-1.982,1.332-1.982s1.332.907,1.332,1.982-.61,1.982-1.332,1.982S245.359,107.941,245.359,106.867Z" transform="translate(-205.971 -93.032)" fill="#ed1c24"/>
    <path id="Path_14" data-name="Path 14" d="M40.332,34.638C58.763,40.132,71.523,17.057,57.171,4.309a.751.751,0,1,0-.98,1.138c13.323,11.868,1.1,33.194-15.859,27.608v-5.1c0-.644-.39-1.55-2.245-2.212a14.527,14.527,0,0,0-6.768-.51c-7.081-13.823,7.411-28.8,21.418-22.06A.751.751,0,0,0,53.4,1.82C38.289-5.461,22.5,10.459,29.8,25.539c-.224.062-.44.128-.644.2-1.855.662-2.245,1.569-2.245,2.212v5a12.151,12.151,0,0,0-5.2-.982.751.751,0,0,0,0,1.5,12.247,12.247,0,0,1,3.957.581c1.029.368,1.245.739,1.245.8s-.217.43-1.248.8a12.591,12.591,0,0,1-7.926,0c-1.031-.368-1.248-.74-1.248-.8s.264-.5,1.516-.886a.751.751,0,0,0-.447-1.434c-2.125.662-2.571,1.627-2.571,2.32V48.425c0,.644.39,1.55,2.245,2.212a14.1,14.1,0,0,0,8.936,0,4.9,4.9,0,0,0,1.494-.8,4.9,4.9,0,0,0,1.494.8,14.1,14.1,0,0,0,8.936,0,4.9,4.9,0,0,0,1.494-.8,4.9,4.9,0,0,0,1.494.8,14.1,14.1,0,0,0,8.936,0c1.855-.662,2.245-1.569,2.245-2.212V41.637c0-.644-.39-1.55-2.245-2.212a14.1,14.1,0,0,0-8.936,0,6.514,6.514,0,0,0-.743.315c0-.979,0-3.884,0-4.906,0-.027,0-.166,0-.2ZM50.754,45.031c0,.058-.217.43-1.248.8a12.591,12.591,0,0,1-7.926,0c-1.031-.368-1.248-.74-1.248-.8v-1.5a6.534,6.534,0,0,0,.743.315,14.1,14.1,0,0,0,8.936,0,6.515,6.515,0,0,0,.743-.315ZM38.83,31.347c0,.058-.217.43-1.248.8a12.591,12.591,0,0,1-7.926,0c-1.031-.368-1.248-.74-1.248-.8v-1.5a6.534,6.534,0,0,0,.743.315,14.1,14.1,0,0,0,8.936,0,6.515,6.515,0,0,0,.743-.315Zm-9.679,2.212a13.693,13.693,0,0,0,9.679-.315v1.551c0,.058-.217.43-1.248.8a12.592,12.592,0,0,1-7.926,0c-1.031-.368-1.248-.74-1.248-.8V33.244A6.526,6.526,0,0,0,29.151,33.559Zm-2.245,8.078c0,.058-.217.43-1.248.8a12.591,12.591,0,0,1-7.926,0c-1.031-.368-1.248-.74-1.248-.8v-1.5a6.533,6.533,0,0,0,.743.315,14.1,14.1,0,0,0,8.936,0,6.515,6.515,0,0,0,.743-.315Zm-10.422,1.9a6.533,6.533,0,0,0,.743.315,14.1,14.1,0,0,0,8.936,0,6.516,6.516,0,0,0,.743-.315v1.5c0,.058-.217.43-1.248.8a12.591,12.591,0,0,1-7.926,0c-1.031-.368-1.248-.74-1.248-.8Zm11.924,0a6.533,6.533,0,0,0,.743.315,14.1,14.1,0,0,0,8.936,0,6.516,6.516,0,0,0,.743-.315v1.5c0,.058-.217.43-1.248.8a12.591,12.591,0,0,1-7.926,0c-1.031-.368-1.248-.74-1.248-.8Zm9.174-1.1a12.592,12.592,0,0,1-7.926,0c-1.031-.368-1.248-.74-1.248-.8v-1.5a6.533,6.533,0,0,0,.743.315,14.1,14.1,0,0,0,8.936,0,6.515,6.515,0,0,0,.743-.315v1.5C38.83,41.695,38.613,42.066,37.582,42.434Zm1.248-4.192c0,.058-.217.43-1.248.8a12.592,12.592,0,0,1-7.926,0c-1.031-.368-1.248-.74-1.248-.8V36.692a6.533,6.533,0,0,0,.743.315,14.1,14.1,0,0,0,8.936,0,6.514,6.514,0,0,0,.743-.315ZM29.656,27.155a12.6,12.6,0,0,1,7.926,0c1.031.368,1.248.74,1.248.8s-.217.43-1.248.8a12.592,12.592,0,0,1-7.926,0c-1.031-.368-1.248-.74-1.248-.8S28.625,27.523,29.656,27.155ZM17.228,37.061a13.693,13.693,0,0,0,9.679-.315v1.5c0,.058-.217.43-1.248.8a12.591,12.591,0,0,1-7.926,0c-1.031-.368-1.248-.74-1.248-.8v-1.5A6.519,6.519,0,0,0,17.228,37.061Zm8.431,12.162a12.591,12.591,0,0,1-7.926,0c-1.031-.368-1.248-.74-1.248-.8v-1.5a13.423,13.423,0,0,0,10.422,0v1.5C26.906,48.483,26.69,48.855,25.659,49.223Zm11.924,0a12.592,12.592,0,0,1-7.926,0c-1.031-.368-1.248-.74-1.248-.8v-1.5a13.424,13.424,0,0,0,10.422,0v1.5C38.83,48.483,38.613,48.854,37.582,49.223Zm11.924,0a12.591,12.591,0,0,1-7.926,0c-1.031-.368-1.248-.74-1.248-.8v-1.5a13.423,13.423,0,0,0,10.422,0v1.5C50.754,48.483,50.537,48.855,49.506,49.223ZM41.58,40.839a12.591,12.591,0,0,1,7.926,0c1.031.368,1.248.74,1.248.8s-.217.43-1.248.8a12.591,12.591,0,0,1-7.926,0c-1.031-.368-1.248-.74-1.248-.8S40.549,41.207,41.58,40.839Z" transform="translate(0 0)" fill="#ed1c24"/>
  </g>
</svg>
