<svg xmlns="http://www.w3.org/2000/svg" width="185" height="44" viewBox="0 0 185 44">
  <g>
    <path d="M41.52,1.34c-.75.19-1.38.37-1.4.38s-.39,6.27-.51,9.86c-.29,8.71,0,12.73,1.06,14.86a5.48,5.48,0,0,0,2.63,2.62l.35.16,1-.65c.69-.47.94-.67.87-.71a8.9,8.9,0,0,1-1.59-1.12c-1.57-1.52-1.91-3-1.9-8.28,0-4.16.23-8.83.75-15.06.1-1.24.18-2.29.17-2.33S42.51,1.08,41.52,1.34Z" fill="#ec2226" fill-rule="evenodd"/>
    <path d="M49.56,1.34l-1.42.37c0,.05-.28,4.41-.4,7.06-.2,4.54-.25,10.28-.12,12.26a19.82,19.82,0,0,0,.65,4.34A5.64,5.64,0,0,0,51.22,29l.45.21,1-.64,1-.65-.48-.28a5.5,5.5,0,0,1-2.22-2.19,7.62,7.62,0,0,1-.8-3.05c-.1-.89-.1-7.21,0-9.29.18-3.55.43-7.27.71-10.49C50.89,1.73,51,1,51,1S50.32,1.15,49.56,1.34Z" fill="#ec2226" fill-rule="evenodd"/>
    <path d="M161.54,1.36l-2.46.32V28.92h4.64v-.24c0-1.23.21-5.95.29-6.55a10.84,10.84,0,0,1,2.64-6.31,2.49,2.49,0,0,1,2.27-.92c.81.15,1.21.76,1.35,2A52.5,52.5,0,0,1,170,22.6c-.16,2.76-.3,5.14-.3,5.29,0,.37.16.72.33.72.43,0,4.62-.29,4.64-.31s.52-13.69.47-14.12a3.66,3.66,0,0,0-1.84-3,4.53,4.53,0,0,0-2.44-.47,6.2,6.2,0,0,0-2.55.42,8.58,8.58,0,0,0-4.25,4.09l-.3.56v-.57c0-.62.34-11.86.4-13.27,0-.82,0-.86-.07-.86Z" fill="#ec2226" fill-rule="evenodd"/>
    <path d="M181.37,1.8a2.23,2.23,0,0,0-1.14,1.12,2.14,2.14,0,0,0,.39,2.16,2,2,0,0,0,2.94,0,1.79,1.79,0,0,0,.57-1.53,1.82,1.82,0,0,0-.69-1.41A2,2,0,0,0,181.37,1.8Z" fill="#ec2226" fill-rule="evenodd"/>
    <path d="M9.22,4.37C6.76,4.73,4.62,6.28,2.9,9A17.33,17.33,0,0,0,.72,14.06a22.11,22.11,0,0,0-.33,9.66,7.42,7.42,0,0,0,2.09,3.56c1.65,1.48,4.3,2.06,7.79,1.73a19.53,19.53,0,0,0,6-1.54c.5-.22,1.58-.76,1.71-.85s-.72-2.29-.76-2.34a2.61,2.61,0,0,0-.41.23A13.62,13.62,0,0,1,9.4,26.36a9.32,9.32,0,0,1-2.09-.12,4.51,4.51,0,0,1-4.06-3.93,22.11,22.11,0,0,1,.23-7.21c.76-3.85,2.67-7,4.85-8.13A3.5,3.5,0,0,1,11.8,7q1.75,1.2,2,5.51a1.67,1.67,0,0,0,.1.66l1.68-.33,1.68-.34A14.11,14.11,0,0,0,17,10.36a9,9,0,0,0-2.1-4.27A6.33,6.33,0,0,0,9.22,4.37Z" fill="#ec2226" fill-rule="evenodd"/>
    <path d="M150.08,7.51l-2.46.31s-.12,1.07-.25,2.32-.23,2.41-.25,2.55l0,.27h-1.83a15.29,15.29,0,0,0-1.82,0c0,.07-.29,2.11-.34,2.34l0,.18h3.81l-.05.59c-.13,1.91-.16,2.49-.19,4.2,0,1.29,0,2.19,0,2.81.29,3.61,1.31,5.25,3.61,5.82a6.3,6.3,0,0,0,1.62.12,10.1,10.1,0,0,0,3.1-.43,9.84,9.84,0,0,0,2.44-1s-.17-.6-.37-1.23-.37-1.17-.37-1.18a2.8,2.8,0,0,0-.52.21,7.13,7.13,0,0,1-1.95.61c-1,.14-1.43,0-1.9-.45s-.71-1.22-.83-2.88a47.06,47.06,0,0,1,.2-6.38l.07-.8h5l.11-1.06c0-.58.12-1.16.14-1.29l0-.22h-5l0-.2c0-.11.15-1.31.3-2.68s.29-2.56.31-2.67,0-.2,0-.19l-2.5.29Z" fill="#ec2226" fill-rule="evenodd"/>
    <path d="M27.14,10.27a6,6,0,0,0-3.47,2,9.79,9.79,0,0,0-2.53,6.41,13.71,13.71,0,0,0,.57,5.1,8.43,8.43,0,0,0,3.38,4.51,6.2,6.2,0,0,0,4.75.59,6.12,6.12,0,0,0,2.77-1.68,10.22,10.22,0,0,0,2.83-6.83c.32-4.83-1.55-8.63-4.83-9.83A6.8,6.8,0,0,0,27.14,10.27Zm2.39,2.36a5,5,0,0,1,2.83,3.23,10.69,10.69,0,0,1,.5,3.95c-.09,2.62-.78,4.54-2.11,5.86a3.2,3.2,0,0,1-2.46,1.11c-1.66,0-3-1.08-3.87-3.08a10.41,10.41,0,0,1-.69-4.48,8.86,8.86,0,0,1,.81-3.8,5.6,5.6,0,0,1,1.33-1.89,3.72,3.72,0,0,1,1.67-1A5.81,5.81,0,0,1,29.53,12.63Z" fill="#ec2226" fill-rule="evenodd"/>
    <path d="M61.15,10.29c-1.95.51-3.56,2-4.76,4.38a16.16,16.16,0,0,0-1.53,7.79,6.79,6.79,0,0,0,2,5.17A5.76,5.76,0,0,0,61,29.1a17.68,17.68,0,0,0,7.14-1.66l.68-.32-.3-.86c-.16-.48-.31-.9-.33-.94s-.12,0-.38.09a13.51,13.51,0,0,1-5.55,1.41,4.72,4.72,0,0,1-1.63-.1,3.45,3.45,0,0,1-1.81-1,4.79,4.79,0,0,1-1.25-3.22,15.29,15.29,0,0,1,.11-2.94l0-.22H68.48l0-.6a14,14,0,0,0-1.29-5.43,5.67,5.67,0,0,0-2.5-2.72,4,4,0,0,0-2.08-.46A4.15,4.15,0,0,0,61.15,10.29Zm1.86,2a1.56,1.56,0,0,1,.75.51,3.62,3.62,0,0,1,.95,1.62,12.57,12.57,0,0,1,.52,2.86v.23H61.7l-3.54,0,0-.18c.25-2.33,1.79-4.57,3.44-5A2.73,2.73,0,0,1,63,12.26Z" fill="#ec2226" fill-rule="evenodd"/>
    <path d="M78.57,10.24a6.49,6.49,0,0,0-3.93,2.34,12.23,12.23,0,0,0-2.5,6.89,26.32,26.32,0,0,0,0,4.08c.37,2.88,1.53,4.71,3.42,5.37a5.76,5.76,0,0,0,4-.35,7,7,0,0,0,2.37-2.1,13.71,13.71,0,0,0,1.17-2.2,3,3,0,0,1,.25-.53c.06-.06,0,4.63,0,5.76-.24,4-1.08,5.28-3.57,5.28a7,7,0,0,1-4.25-1.59L75,32.78l-.6.77-.85,1.12-.26.35.53.39a9,9,0,0,0,1.8,1.08,7.79,7.79,0,0,0,2.43.72,8.79,8.79,0,0,0,3.91-.41c2.42-1,3.52-3,3.93-7.49.12-1.21.11-10.65,0-11.86-.44-4.7-1.78-6.73-4.74-7.21A9.74,9.74,0,0,0,78.57,10.24Zm1.79,2.14a2.51,2.51,0,0,1,1.35.79c1,1,1.3,2.17,1.18,4.34a13.41,13.41,0,0,1-2.23,7.09,7.37,7.37,0,0,1-2,2,2.32,2.32,0,0,1-2.85-.31,5.53,5.53,0,0,1-1.19-3.19,24.1,24.1,0,0,1,0-4.07,9.86,9.86,0,0,1,2.14-5.24A3.62,3.62,0,0,1,80.36,12.38Z" fill="#ec2226" fill-rule="evenodd"/>
    <path d="M96.19,10.27a7.19,7.19,0,0,0-4.47,3.67,15,15,0,0,0-1.92,7c-.15,2.66.24,4.43,1.33,5.9a5.65,5.65,0,0,0,4.81,2.23A17.2,17.2,0,0,0,101.65,28a10.61,10.61,0,0,0,2.08-1s-.16-.46-.32-.93-.3-.86-.31-.86a5.67,5.67,0,0,0-.71.29,18.56,18.56,0,0,1-3.26,1.07,7.69,7.69,0,0,1-2.08.17,4.89,4.89,0,0,1-1.74-.13,3.48,3.48,0,0,1-1.6-.93,4.11,4.11,0,0,1-1-1.94,6,6,0,0,1-.17-2.19c0-.88,0-1.73.06-1.9l.06-.3,5.37,0h5.38l-.05-.72a14.21,14.21,0,0,0-.16-1.53c-.56-3.89-2.14-6.23-4.61-6.86A6,6,0,0,0,96.19,10.27Zm1.85,2c.87.32,1.53,1.41,1.88,3.1.07.38.28,1.86.28,2s-1.6.05-3.55.05H93.09l0-.35a7.72,7.72,0,0,1,.94-2.73,6.44,6.44,0,0,1,1.56-1.71A2.75,2.75,0,0,1,98,12.3Z" fill="#ec2226" fill-rule="evenodd"/>
    <path d="M133.25,10.21a9.08,9.08,0,0,0-3.44,1.26,8.89,8.89,0,0,0-3,3.64,12.08,12.08,0,0,0-.77,2.12c.06.06,3.91,1.1,4,1.07a.19.19,0,0,0,0-.15,6.94,6.94,0,0,1,.16-.81c.55-2.43,1.4-3.88,2.59-4.43a1.65,1.65,0,0,1,.91-.16,1.58,1.58,0,0,1,1.39.53c.63.7.8,1.74.86,5.31,0,1.18,0,2.13,0,2.13a3.5,3.5,0,0,1-.5-.15,11,11,0,0,0-2.57-.51,7.06,7.06,0,0,0-5.88,1.85,3.93,3.93,0,0,0-1.16,3.15,3.81,3.81,0,0,0,1.14,2.7,3.33,3.33,0,0,0,1,.75,5.22,5.22,0,0,0,2.43.57,7.13,7.13,0,0,0,5.42-1.85,1.36,1.36,0,0,1,.32-.26s.06.57.11,1.24.11,1.22.11,1.23S141,29,141.21,29s.2-.07.17-.14-.08-.56-.15-1.12a62.33,62.33,0,0,1-.43-7.88c-.09-5.21-.16-5.78-.87-7.09a4.69,4.69,0,0,0-3.87-2.51A17.57,17.57,0,0,0,133.25,10.21Zm1.37,12.38a3.06,3.06,0,0,1,1.16.62l.27.25-.07.33a3.54,3.54,0,0,1-2.37,2.47,2.32,2.32,0,0,1-1.07.14,1.9,1.9,0,0,1-1.4-.52,1.53,1.53,0,0,1-.57-1.34c0-1.16.61-1.81,2-2A7,7,0,0,1,134.62,22.59Z" fill="#ec2226" fill-rule="evenodd"/>
    <path d="M182.07,10.62c-1.36.24-2.48.45-2.49.47s.1,3.88.25,8.6.28,8.69.28,8.81v.23h4.59V19.44c0-7.4,0-9.3-.08-9.29Z" fill="#ec2226" fill-rule="evenodd"/>
    <path d="M114.41,10.32a8.37,8.37,0,0,0-3.11.8c-.1.06-.29.14-.4.19a6.17,6.17,0,0,0-1.55,1.22,5.66,5.66,0,0,0-1.07,1.89c0,.16-.11.36-.15.46a7.71,7.71,0,0,0,0,2.24,4.2,4.2,0,0,0,1.17,2.08,3.17,3.17,0,0,0,1,.75l.57.31c.3.17.51.2.51.08a8.81,8.81,0,0,1,.69-1.59.75.75,0,0,1,0,.35c0,.33,0,.41.38.83a2.15,2.15,0,0,1,.3.46c.19.38.17.36.33.25a.51.51,0,0,1,.8.33c0,.11.06.16.2.18a.36.36,0,0,1,.27.21,2.4,2.4,0,0,0,.3.39c.17.17.2.23.17.4-.08.42-.08.44.08.44s.16,0,.14-.19a2.41,2.41,0,0,0-.11-.48c-.1-.31-.07-.46.05-.25a3.14,3.14,0,0,1,.19.49c.14.45.19.52.41.52s.33-.11.15-.73a2.24,2.24,0,0,1-.12-.6c.06-.07.14.11.27.56.07.24.15.47.17.52a.37.37,0,0,0,.44.12c.16-.07.16-.16,0-.94a5.51,5.51,0,0,1-.13-.55c0-.12.18.18.18.31a.28.28,0,0,0,0,.17.93.93,0,0,1,.13.33c.12.42.21.53.4.48a.37.37,0,0,0,.21-.17,4.75,4.75,0,0,0-.14-1.26,4.87,4.87,0,0,0-1.25-1.41c-.56-.33-.57-.33-1-.12a1,1,0,0,1-.63.15c-.24,0-.5-.28-.5-.47a1.43,1.43,0,0,1,.35-.45c.19-.18.33-.36.31-.38a1.26,1.26,0,0,0-.36-.09,6.19,6.19,0,0,1-1.51-.58c-.07-.06-.08-.12,0-.22.23-.49.23-.52,0-.79a1.57,1.57,0,0,1,.49-2.29,2.83,2.83,0,0,1,1.35-.53,13.29,13.29,0,0,1,2.82,0l.7.15a7.94,7.94,0,0,1,2.08.75c.45.22.84.27.93.13s.59-1.37.79-1.9c0-.14.15-.38.22-.53a.82.82,0,0,0,.08-.41,1.25,1.25,0,0,0-.59-.48,12.39,12.39,0,0,0-2.78-.91l-.95-.16A25.19,25.19,0,0,0,114.41,10.32Z" fill="#ec2226" fill-rule="evenodd"/>
    <path d="M114.46,18.54a2.86,2.86,0,0,0-.5.57s.09.11.2.18.41.09.83-.18c.17-.12.32-.19.34-.17a1.94,1.94,0,0,0,.44.25,2.86,2.86,0,0,1,.83.65c.67.7.8.91.79,1.22a1.33,1.33,0,0,0,.14.7,2.2,2.2,0,0,0,.3-.13.93.93,0,0,1,.41-.08c.13,0,.12.11-.07.68l-.11.3.19.22a1.53,1.53,0,0,1,.13,2.07,3.23,3.23,0,0,1-1.95.92,17,17,0,0,1-3,0l-.55-.14a10.56,10.56,0,0,1-2.83-1.05c-.92-.5-1.09-.48-1.33.2a8,8,0,0,1-.42.94c-.16.34-.33.73-.38.86a1.1,1.1,0,0,1-.14.32c-.09.12.06.42.31.58a16.94,16.94,0,0,0,2,.94A21.73,21.73,0,0,0,113,29c.22,0,.82.1,1.33.14a11.72,11.72,0,0,0,4.4-.51,5,5,0,0,0,1.54-.68,5.28,5.28,0,0,0,2.52-3.25,8.14,8.14,0,0,0,0-2.56,4.32,4.32,0,0,0-1.63-2.32,6.61,6.61,0,0,0-1.62-.84c-.11,0-.16.09-.31.53-.22.66-.31.85-.36.76a1,1,0,0,1,0-.36c0-.34.14-.29-.88-.54a2,2,0,0,1-1.34-.76c-.17-.25-.22-.27-1-.46l-.52-.12C115,18,114.77,18.23,114.46,18.54Z" fill="#ec2226" fill-rule="evenodd"/>
    <path d="M112.3,20.42c-.17.17-.15.41,0,.49s.39,0,.39-.11a1.07,1.07,0,0,0-.27-.51A.57.57,0,0,0,112.3,20.42Z" fill="#ec2226" fill-rule="evenodd"/>
    <path d="M113.1,20.85c-.4.24-.49.53-.22.7s.17.09.36,0,.47-.32.47-.53a.22.22,0,0,0-.16-.24C113.34,20.7,113.34,20.7,113.1,20.85Z" fill="#ec2226" fill-rule="evenodd"/>
    <path d="M113.64,21.46c-.24.15-.3.23-.3.36a.38.38,0,0,0,.35.37c.16,0,.57-.43.57-.59a.55.55,0,0,0-.32-.33Z" fill="#ec2226" fill-rule="evenodd"/>
    <path d="M114.15,22c-.17.1-.2.16-.18.32s0,.19.22.2a.52.52,0,0,0,.35-.08c.13-.07.16-.14.14-.32s-.05-.23-.17-.24A.81.81,0,0,0,114.15,22Z" fill="#ec2226" fill-rule="evenodd"/>
    <path d="M154.52,32.52c-1.77.32-3.29,2.3-3.83,5a8.26,8.26,0,0,0-.14,2,4.43,4.43,0,0,0,.46,2.6,3.07,3.07,0,0,0,2,1.71,8.47,8.47,0,0,0,5.47-.74l.61-.28-.2-.59c-.12-.33-.23-.62-.24-.66s-.19,0-.56.16a7.47,7.47,0,0,1-3.23.74,2.17,2.17,0,0,1-2.39-1.78,9.62,9.62,0,0,1,0-3c.32-1.77,1.07-3.14,2-3.6a1.15,1.15,0,0,1,1.29,0c.4.33.59,1,.66,2.11a3.75,3.75,0,0,0,.07.72s.47-.08,1-.19l1-.2v-.22a6.51,6.51,0,0,0-.09-.77c-.27-1.61-1-2.54-2.11-2.9A4.36,4.36,0,0,0,154.52,32.52Z" fill="#ec2226" fill-rule="evenodd"/>
    <path d="M164.18,32.53a4.39,4.39,0,0,0-3.38,2.91,8.22,8.22,0,0,0,.17,6A4.66,4.66,0,0,0,162,43a3.59,3.59,0,0,0,2.72,1,3.91,3.91,0,0,0,1.44-.34A5.52,5.52,0,0,0,169,39.58a12.23,12.23,0,0,0,0-3.14,7.38,7.38,0,0,0-.72-1.94A5.64,5.64,0,0,0,166.75,33,4.25,4.25,0,0,0,164.18,32.53Zm1.43,1.73a3,3,0,0,1,.64.48,4.3,4.3,0,0,1,1.06,3,5.21,5.21,0,0,1-1.2,4,1.79,1.79,0,0,1-1.44.64,1.33,1.33,0,0,1-.87-.21,3.5,3.5,0,0,1-1.56-2.29,5.66,5.66,0,0,1-.13-1.59,5.29,5.29,0,0,1,.13-1.59,3.3,3.3,0,0,1,2.08-2.6A2.45,2.45,0,0,1,165.61,34.26Z" fill="#ec2226" fill-rule="evenodd"/>
    <path d="M172.56,32.71l-.86.2c-.13,0-.13.05,0,.57a34.93,34.93,0,0,1,.29,6.48v3.87h1.56l0-1.3a18.87,18.87,0,0,1,.39-3.52,7.84,7.84,0,0,1,1.76-3.75c.64-.57,1.37-.55,1.56,0s.2.93.2,4.4l0,3.53h1.46l0-.69c0-.37.07-1.36.1-2.18a11,11,0,0,1,.38-3,4.65,4.65,0,0,1,1.89-2.57,1.41,1.41,0,0,1,.71-.15c.42,0,.46,0,.6.17.28.33.29.46.25,4.3,0,2-.06,3.82-.08,4.07l0,.48h.83c.62,0,.83,0,.83-.08s.07-2,.16-4.3c.19-4.72.19-4.8-.17-5.48a2,2,0,0,0-1.92-1,3.87,3.87,0,0,0-3.2,1.82l-.18.27-.06-.3A2.08,2.08,0,0,0,178,33.13a2.74,2.74,0,0,0-2.93.8A5.68,5.68,0,0,0,174,35.38c-.15.28-.28.43-.29.38a5.18,5.18,0,0,1-.07-.7c0-.62-.19-2-.26-2.33l-.05-.19Z" fill="#ec2226" fill-rule="evenodd"/>
    <path d="M146.48,41.4a2,2,0,0,0-.46.41,1,1,0,0,0-.18.73,1,1,0,0,0,.17.74,1.3,1.3,0,1,0,1.83-1.79,1,1,0,0,0-.67-.21A1.05,1.05,0,0,0,146.48,41.4Z" fill="#ec2226" fill-rule="evenodd"/>
  </g>
</svg>
