<svg xmlns="http://www.w3.org/2000/svg" width="26.694" height="28.5" viewBox="0 0 26.694 28.5">
  <g id="woman_1_" data-name="woman(1)" transform="translate(-2.75 -0.75)">
    <g id="Group_216" data-name="Group 216" transform="translate(18.31 17.077)">
      <path id="Path_5221" data-name="Path 5221" d="M47.332,48.523a.427.427,0,0,1-.452-.452c0-1.084-.452-3.161-3.658-4.923a19.986,19.986,0,0,0-2.123-.9c-1.942-.723-4.2-1.581-4.2-3.387V37.052a.452.452,0,1,1,.9,0v1.806c0,1.174,1.852,1.9,3.613,2.574a17.133,17.133,0,0,1,2.213.948c3.613,1.987,4.155,4.426,4.155,5.69A.427.427,0,0,1,47.332,48.523Z" transform="translate(-36.9 -36.6)" fill="#ff2a2a" stroke="#ff2a2a" stroke-width="0.5"/>
    </g>
    <g id="Group_217" data-name="Group 217" transform="translate(3 17.077)">
      <path id="Path_5222" data-name="Path 5222" d="M3.452,48.523A.427.427,0,0,1,3,48.071c0-1.265.542-3.748,4.11-5.69a17.134,17.134,0,0,1,2.213-.948c1.761-.677,3.613-1.355,3.613-2.574V37.052a.452.452,0,0,1,.9,0v1.806c0,1.806-2.213,2.665-4.2,3.387-.768.316-1.535.587-2.123.9C4.355,44.91,3.9,46.987,3.9,48.071a.427.427,0,0,1-.452.452Z" transform="translate(-3 -36.6)" fill="#ff2a2a" stroke="#ff2a2a" stroke-width="0.5"/>
    </g>
    <g id="Group_218" data-name="Group 218" transform="translate(9.785 21.604)">
      <path id="Path_5223" data-name="Path 5223" d="M24.335,51.31a6.836,6.836,0,0,1-6.277-4.065.445.445,0,0,1,.813-.361,6,6,0,0,0,10.929,0,.445.445,0,0,1,.813.361,6.836,6.836,0,0,1-6.277,4.065Z" transform="translate(-18.023 -46.623)" fill="#ff2a2a" stroke="#ff2a2a" stroke-width="0.5"/>
    </g>
    <g id="Group_219" data-name="Group 219" transform="translate(9.323 5.019)">
      <path id="Path_5224" data-name="Path 5224" d="M23.774,23.945c-2.394,0-4.7-2.258-5.374-5.148-.632-.226-1.4-.9-1.4-2.529a2.966,2.966,0,0,1,.181-1.129,1.079,1.079,0,0,1,.948-.723c1.219-.135,1.581-1.084,1.987-2.484.271-.994.587-2.032,1.626-2.032a3.276,3.276,0,0,1,1.31.316,2.1,2.1,0,0,1,1.31-.316c1.039,0,1.761,1.039,2.574,2.168.768,1.084,1.581,2.213,2.574,2.348a1.167,1.167,0,0,1,.9.677,4.66,4.66,0,0,1,.135,1.174,2.447,2.447,0,0,1-1.4,2.529C28.471,21.687,26.168,23.945,23.774,23.945Zm-5.555-8.581c-.09,0-.135.045-.181.135a1.8,1.8,0,0,0-.135.768c0,1.581.9,1.716.948,1.716a.48.48,0,0,1,.406.361c.542,2.89,2.755,4.7,4.516,4.7s3.974-1.806,4.516-4.7a.434.434,0,0,1,.406-.361c.09,0,.948-.181.948-1.716a2.1,2.1,0,0,0-.135-.768c-.045-.09-.09-.135-.181-.135-1.4-.181-2.348-1.535-3.206-2.71-.632-.858-1.265-1.761-1.806-1.761-.677,0-.858.226-.858.226a.3.3,0,0,1-.271.181.351.351,0,0,1-.361-.09,1.89,1.89,0,0,0-1.084-.361c-.316,0-.5.542-.768,1.4-.361,1.219-.858,2.935-2.755,3.116Z" transform="translate(-17 -9.9)" fill="#ff2a2a" stroke="#ff2a2a" stroke-width="0.5"/>
    </g>
    <g id="Group_220" data-name="Group 220" transform="translate(14.753 1)">
      <path id="Path_5225" data-name="Path 5225" d="M37.64,19.065a6.31,6.31,0,0,1-2.3-.316.434.434,0,0,1,.406-.768c.226.135.542.226,1.9.226A1.662,1.662,0,0,0,39.4,16.4a8.869,8.869,0,0,0-.994-3.477,4.3,4.3,0,0,1-.181-2.032,6.157,6.157,0,0,0-.09-2.032A5.078,5.078,0,0,0,36.782,6.69a5.383,5.383,0,0,1-.677-.813,7.269,7.269,0,0,1-.542-1.039C34.975,3.484,34.253,1.9,32.175,1.9a3.143,3.143,0,0,0-2.348.723.436.436,0,0,1-.632.045.486.486,0,0,1-.09-.632A4.109,4.109,0,0,1,32.175,1c2.665,0,3.613,2.032,4.245,3.387a6.965,6.965,0,0,0,.452.858,9.044,9.044,0,0,0,.632.723,6.092,6.092,0,0,1,1.581,2.574,8.062,8.062,0,0,1,.09,2.3,3.669,3.669,0,0,0,.09,1.626A9.56,9.56,0,0,1,40.3,16.31a2.553,2.553,0,0,1-2.665,2.755Z" transform="translate(-29.026 -1)" fill="#ff2a2a" stroke="#ff2a2a" stroke-width="0.5"/>
    </g>
    <g id="Group_221" data-name="Group 221" transform="translate(6.161 1.452)">
      <path id="Path_5226" data-name="Path 5226" d="M12.665,19.613A2.54,2.54,0,0,1,10,16.9a10.109,10.109,0,0,1,1.039-3.839,3.614,3.614,0,0,0,.09-1.626,8.008,8.008,0,0,1,.09-2.3A5.446,5.446,0,0,1,12.8,6.561c.226-.271.452-.5.632-.723a7.43,7.43,0,0,0,.452-.858C14.426,3.761,15.239,2,17.677,2a2.73,2.73,0,0,1,1.581.542.457.457,0,1,1-.5.768A2.019,2.019,0,0,0,17.677,2.9c-1.852,0-2.439,1.265-2.981,2.439a5.158,5.158,0,0,1-.542.994l-.677.813a5.366,5.366,0,0,0-1.355,2.168,7.76,7.76,0,0,0-.09,2.032,4.243,4.243,0,0,1-.181,2.032A10.366,10.366,0,0,0,10.9,16.9a1.662,1.662,0,0,0,1.761,1.806,6.022,6.022,0,0,0,1.942-.226.448.448,0,0,1,.587.226.476.476,0,0,1-.181.587A7.078,7.078,0,0,1,12.665,19.613Z" transform="translate(-10 -2)" fill="#ff2a2a" stroke="#ff2a2a" stroke-width="0.5"/>
    </g>
  </g>
</svg>
