<svg xmlns="http://www.w3.org/2000/svg" width="44.32" height="62.954" viewBox="0 0 44.32 62.954">
  <g id="Layer_x0020_1" transform="translate(-31.85 -8.632)">
    <g id="_533493328" transform="translate(32.1 8.882)">
      <path id="_533500168" d="M46.836,50.968H76.359V10.312H46.836ZM77.074,52.4H46.121a.715.715,0,0,1-.715-.715V9.6a.715.715,0,0,1,.715-.715H77.074a.715.715,0,0,1,.715.715V51.683a.715.715,0,0,1-.715.715Z" transform="translate(-40.067 -8.882)" fill="#ff2a2a" stroke="#ff2a2a" stroke-width="0.5" fill-rule="evenodd"/>
      <path id="_533500672" d="M59.467,64.737l9.625,3.575,9.625-3.575-9.625-3.575Zm9.625,5.053a.708.708,0,0,1-.249-.045l-11.68-4.338a.715.715,0,0,1,0-1.341l11.68-4.338a.715.715,0,0,1,.5,0L81.02,64.066a.716.716,0,0,1,0,1.341L69.342,69.745A.715.715,0,0,1,69.092,69.79Z" transform="translate(-46.827 -39.298)" fill="#ff2a2a" stroke="#ff2a2a" stroke-width="0.5" fill-rule="evenodd"/>
      <path id="_533500288" d="M76.09,87.157a14.619,14.619,0,0,1-5.062-.8c-2.184-.841-2.642-2.061-2.642-2.936V75.55a.715.715,0,1,1,1.43,0v7.869c0,1.295,2.755,2.309,6.273,2.309s6.274-1.014,6.274-2.309V75.55a.715.715,0,1,1,1.43,0v7.869c0,2.583-3.87,3.739-7.7,3.739Z" transform="translate(-53.825 -48.369)" fill="#ff2a2a" stroke="#ff2a2a" stroke-width="0.5" fill-rule="evenodd"/>
      <path id="_533500504" d="M113.218,78.48a.715.715,0,0,1-.715-.715V72.1a.715.715,0,0,1,1.43,0v5.664A.715.715,0,0,1,113.218,78.48Z" transform="translate(-80.238 -46.305)" fill="#ff2a2a" stroke="#ff2a2a" stroke-width="0.5" fill-rule="evenodd"/>
      <path id="_533499952" d="M111.3,86.932a3.194,3.194,0,0,0,0,3.641,3.194,3.194,0,0,0,0-3.641Zm0,5.074c-1.14,0-2-1.4-2-3.254s.86-3.254,2-3.254,2,1.4,2,3.254S112.441,92.006,111.3,92.006Z" transform="translate(-78.321 -54.753)" fill="#ff2a2a" stroke="#ff2a2a" stroke-width="0.5" fill-rule="evenodd"/>
      <path id="_533499400" d="M57.621,27.6H61.33V19.856H57.621Zm4.423,1.43H56.906a.715.715,0,0,1-.715-.715V19.141a.715.715,0,0,1,.715-.715h5.139a.715.715,0,0,1,.715.715v9.176a.715.715,0,0,1-.715.715Z" transform="translate(-46.524 -14.596)" fill="#ff2a2a" stroke="#ff2a2a" stroke-width="0.5" fill-rule="evenodd"/>
      <path id="_533499376" d="M94.506,38.759H82.517a.715.715,0,1,1,0-1.43H94.506a.715.715,0,0,1,0,1.43Z" transform="translate(-61.857 -25.913)" fill="#ff2a2a" stroke="#ff2a2a" stroke-width="0.5" fill-rule="evenodd"/>
      <path id="_533499304" d="M94.506,23.819H82.517a.715.715,0,1,1,0-1.43H94.506a.715.715,0,0,1,0,1.43Z" transform="translate(-61.857 -16.969)" fill="#ff2a2a" stroke="#ff2a2a" stroke-width="0.5" fill-rule="evenodd"/>
      <path id="_533499544" d="M73.291,85.054H34.729A2.632,2.632,0,0,1,32.1,82.426V54.436a2.631,2.631,0,0,1,2.628-2.628h3.427a.715.715,0,0,1,0,1.43H34.729a1.2,1.2,0,0,0-1.2,1.2v27.99a1.2,1.2,0,0,0,1.2,1.2H73.291a1.2,1.2,0,0,0,1.2-1.2V54.436a1.2,1.2,0,0,0-1.2-1.2H69.108a.715.715,0,0,1,0-1.43h4.184a2.632,2.632,0,0,1,2.628,2.628v27.99a2.632,2.632,0,0,1-2.628,2.628Z" transform="translate(-32.1 -34.582)" fill="#ff2a2a" stroke="#ff2a2a" stroke-width="0.5" fill-rule="evenodd"/>
      <path id="_533494480" d="M72.081,139.471a.715.715,0,0,1-.715-.715v-6.947a.715.715,0,1,1,1.43,0v6.947A.715.715,0,0,1,72.081,139.471Zm10.874,0a.715.715,0,0,1-.715-.715v-6.947a.715.715,0,1,1,1.43,0v6.947a.715.715,0,0,1-.715.715Z" transform="translate(-55.609 -82.052)" fill="#ff2a2a" stroke="#ff2a2a" stroke-width="0.5" fill-rule="evenodd"/>
      <path id="_533493664" d="M64.061,149.836a1.8,1.8,0,0,0-1.8,1.8V153a.449.449,0,0,0,.443.443H79.718a.449.449,0,0,0,.443-.443v-1.358a1.8,1.8,0,0,0-1.8-1.8Zm15.656,5.034H62.7A1.876,1.876,0,0,1,60.829,153v-1.358a3.236,3.236,0,0,1,3.233-3.233h14.3a3.236,3.236,0,0,1,3.233,3.233V153a1.876,1.876,0,0,1-1.873,1.873Z" transform="translate(-49.3 -92.417)" fill="#ff2a2a" stroke="#ff2a2a" stroke-width="0.5" fill-rule="evenodd"/>
    </g>
  </g>
</svg>
