<?xml version="1.0" encoding="UTF-8"?>
<svg version="1.1" xmlns="http://www.w3.org/2000/svg" width="256" height="256">
<path d="M0 0 C7.73224439 6.05034014 14.08788888 13.20629525 20 21 C20.4007373 21.52045898 20.80147461 22.04091797 21.21435547 22.57714844 C26.39083924 29.34033262 30.94861223 36.31710162 35 43.8125 C35.37382813 44.49328613 35.74765625 45.17407227 36.1328125 45.87548828 C39.89363404 53.07502397 41.9656666 59.97690812 39.74609375 67.9453125 C37.16103205 75.06438295 31.55685845 79.20720958 26 84 C21.89876035 87.73646593 19.30285143 90.47623807 18.625 96.125 C20.2183662 112.58978404 32.59003009 127.88290204 44 139 C44.72703125 139.73605469 45.4540625 140.47210938 46.203125 141.23046875 C55.36026634 149.9856745 71.38177272 161.87207452 84.375 162.5 C89.11806086 161.84578471 91.81606593 160.398101 94.921875 156.73046875 C95.52515625 155.89128906 96.1284375 155.05210937 96.75 154.1875 C102.31462371 147.0493591 108.37143663 142.47125128 117.47265625 141.125 C132.59702277 140.37696333 144.84356493 150.76483138 156.09863281 159.53222656 C157.82759124 160.86690788 159.57305572 162.17157024 161.3359375 163.4609375 C182.4505181 178.93048884 182.4505181 178.93048884 184.625 188.8515625 C185.7757877 198.51338423 182.40631876 207.14358359 177 215 C167.28847669 227.20120474 154.70799593 238.55225363 138.60546875 240.38671875 C125.853729 240.794437 115.22116805 235.9390699 103.9375 230.4375 C102.85549316 229.9130127 101.77348633 229.38852539 100.65869141 228.84814453 C60.55824974 209.161613 21.38955865 180.5877939 -6 145 C-7.0150962 143.71312437 -8.03076379 142.42669933 -9.046875 141.140625 C-28.65029041 116.13790216 -46.52060565 87.50931121 -56 57 C-56.24492188 56.21882813 -56.48984375 55.43765625 -56.7421875 54.6328125 C-59.97665112 42.5368047 -58.61633396 30.14578423 -52.45703125 19.27734375 C-44.90185616 7.81491564 -33.89192064 0.51821376 -20.8125 -3.5 C-13.18005868 -4.50097591 -6.72415965 -3.88370629 0 0 Z " fill="#000000" transform="translate(61,16)"/>
<path d="M0 0 C29.16787944 6.42808457 55.51950822 24.12447717 72.13427734 49.04663086 C84.03187075 68.59267718 91.03765483 88.55849491 91.25927734 111.60913086 C91.27321533 112.55409424 91.28715332 113.49905762 91.30151367 114.47265625 C91.26735227 119.39855323 91.19053478 122.98671884 87.88427734 126.92163086 C84.83695149 128.95318143 83.99007929 129.23723151 80.50927734 129.29663086 C79.75904297 129.32499023 79.00880859 129.35334961 78.23583984 129.38256836 C74.89186654 128.72710515 73.26114391 127.32708517 70.88427734 124.92163086 C70.13427734 122.56616211 70.13427734 122.56616211 69.88427734 119.73413086 C66.46273287 91.66479375 59.86074452 61.83130976 37.19677734 42.73413086 C19.74050207 29.65527018 0.01457491 23.83225461 -21.30322266 20.40991211 C-31.39571703 18.73230334 -31.39571703 18.73230334 -34.11572266 15.92163086 C-35.52077677 11.4041151 -35.48094824 7.92600122 -33.86572266 3.48413086 C-27.82534625 -5.36070602 -9.32127131 -1.75996737 0 0 Z " fill="#000000" transform="translate(162.11572265625,1.078369140625)"/>
<path d="M0 0 C20.90358554 10.20441306 34.8535072 25.98643841 43.3515625 47.47265625 C45.43651928 54.24389438 45.57819777 61.0930323 45.6875 68.125 C45.70997803 69.08535156 45.73245605 70.04570313 45.75561523 71.03515625 C45.74067354 75.38740292 45.66802497 77.98369151 43.41015625 81.78515625 C39.61876315 85.12405036 36.12776091 84.94422426 31.25 84.6875 C29 84.125 29 84.125 27.25 82.6875 C24.6563868 77.48693884 23.59348077 72.72351715 22.8125 67 C20.47900195 51.81290715 15.77667332 37.51775381 3.25 27.6875 C-7.32701515 21.00977252 -19.75984444 17.6194081 -31.9375 15.25 C-35.69755023 14.41495162 -38.38062636 13.77669025 -41.0625 10.9375 C-43.08021973 7.05152126 -43.44441935 5.00833152 -42.75 0.6875 C-34.77867289 -14.40108346 -12.40261152 -5.34564906 0 0 Z " fill="#000000" transform="translate(173.75,39.3125)"/>
<path d="M0 0 C10.66550956 6.71910092 18.01762404 16.05287211 22 28 C22.17241708 30.43362472 22.26665768 32.87320596 22.3125 35.3125 C22.36857422 37.25576172 22.36857422 37.25576172 22.42578125 39.23828125 C21.93439461 43.57961456 20.78981889 45.67735083 18 49 C14.39427296 50.20190901 11.7897565 50.32670315 8 50 C3.41670191 47.14817008 1.59516883 44.34797373 0.2890625 39.1953125 C0.06992188 38.18210938 -0.14921875 37.16890625 -0.375 36.125 C-1.87205595 30.00271148 -3.54286913 25.85800462 -8.69140625 21.96484375 C-13.1872662 19.29492928 -17.7010822 18.3916853 -22.7578125 17.22265625 C-26.56041331 15.78866341 -27.89835817 14.43951626 -30 11 C-31.0606347 6.88224176 -30.44346929 3.75554027 -28.3125 0.125 C-20.27702292 -7.25895191 -8.92932043 -4.43197603 0 0 Z " fill="#000000" transform="translate(165,70)"/>
</svg>
