<svg xmlns="http://www.w3.org/2000/svg" width="60.001" height="60.036" viewBox="0 0 60.001 60.036">
  <path id="categories_shape04" d="M43.954,36.908c0,.012,0,.025,0,.036a16.722,16.722,0,0,0,.383,5.629c.039.209.077.409.111.6.331,2.517.825,5.025,1.307,7.48.042.276.084.546.126.812a14.112,14.112,0,0,1,.215,5.224l0,.021,0,.021a2.923,2.923,0,0,1-.616,1.393,1.063,1.063,0,0,1-.844.378,7.036,7.036,0,0,1-3.59-1.42,46.269,46.269,0,0,1-5.69-4.556c-.841-.749-1.7-1.513-2.608-2.274a7.174,7.174,0,0,0-7.44-1.257,25.783,25.783,0,0,0-5.4,2.856c-.225.144-.441.282-.648.412A20.748,20.748,0,0,1,13.663,54.9l-.038.009-.038.011a3.876,3.876,0,0,1-1.377.174,1.107,1.107,0,0,1-.8-.355,1.565,1.565,0,0,1-.268-.9,7.875,7.875,0,0,1,.1-1.539,20.446,20.446,0,0,1,1.36-4.286l.011-.026.01-.026c.137-.348.277-.7.418-1.046.5-1.243,1.009-2.507,1.409-3.857.016-.048.04-.119.069-.2.071-.207.17-.493.239-.717a4.834,4.834,0,0,0,.249-1.352V39.464h0a1.7,1.7,0,0,0-.059-.385,1.674,1.674,0,0,0-.1-.274v-.524l-.82-.417a.636.636,0,0,1-.12-.075c-.017-.014-.033-.028-.061-.055a4.965,4.965,0,0,0-1.007-.957c-.259-.194-.551-.387-.761-.526l-.169-.113c-.748-.507-1.535-1.012-2.3-1.505L9.6,34.393c-.772-.5-1.524-.979-2.235-1.461L7.045,32.7a20.364,20.364,0,0,1-3.8-3.168l-.067-.077L3.1,29.39a3.908,3.908,0,0,1-1.6-2.844c0-.915.626-1.846,2.026-2.955a6.255,6.255,0,0,1,3.466-1.183h.017c2.132-.241,4.236-.323,6.369-.385L14.264,22c1.814-.05,3.659-.1,5.5-.244a15.247,15.247,0,0,0,2.714-.335,6.226,6.226,0,0,0,1.71-.384l.067-.023.66-.224.255-.648a29.1,29.1,0,0,0,1.369-5.176l0-.017c.157-.638.3-1.267.443-1.887A33.985,33.985,0,0,1,28.737,7.1l.02-.047L28.775,7a9.925,9.925,0,0,1,3.5-5.052l.02-.014.02-.014a1.884,1.884,0,0,1,2.169-.146,7.028,7.028,0,0,1,1.875,3.374,45.658,45.658,0,0,1,1.63,8.375c.085.646.17,1.3.262,1.952.009.075.019.158.029.247a13.3,13.3,0,0,0,.433,2.362A3.555,3.555,0,0,0,41.2,20.722l.016,0,.016,0a8.237,8.237,0,0,0,3.16-.157c.5-.07,1-.107,1.563-.148l.023,0c.538-.039,1.132-.082,1.736-.167a36.312,36.312,0,0,1,7.1-.011c1.585.3,2.863.955,3.395,2.361l.025.067.032.064a2.663,2.663,0,0,1-.368,2.758A12.357,12.357,0,0,1,55.1,28.346l-.02.015-.019.016a48.505,48.505,0,0,1-5.546,3.854c-1.015.637-2.056,1.291-3.127,2.017-.072.049-.148.1-.227.15a7,7,0,0,0-1.3,1.034l-.1.1-.035.036-.031.032-.031.032-.035.036-.1.1a2.086,2.086,0,0,0-.5.812A1.936,1.936,0,0,0,43.954,36.908Z" transform="translate(0 0.036)" fill="none" stroke="#ffc3ce" stroke-width="3"/>
</svg>
