<?xml version="1.0" encoding="UTF-8"?>
<!DOCTYPE svg PUBLIC "-//W3C//DTD SVG 1.1//EN" "http://www.w3.org/Graphics/SVG/1.1/DTD/svg11.dtd">
<!-- Creator: CorelDRAW 2021 (64-Bit) -->
<svg xmlns="http://www.w3.org/2000/svg" xml:space="preserve" width="381mm" height="381mm" version="1.1" style="shape-rendering:geometricPrecision; text-rendering:geometricPrecision; image-rendering:optimizeQuality; fill-rule:evenodd; clip-rule:evenodd"
viewBox="0 0 38100 38100"
 xmlns:xlink="http://www.w3.org/1999/xlink"
 xmlns:xodm="http://www.corel.com/coreldraw/odm/2003">
 <defs>
  <style type="text/css">
   <![CDATA[
    .fil0 {fill:#EE3537}
   ]]>
  </style>
 </defs>
 <g id="New_x0020_Layer">
  <metadata id="CorelCorpID_0Corel-Layer"/>
  <path class="fil0" d="M9512.54 14535.11c-138.39,35.17 -255.23,68.05 -258.66,70.35 -12.49,13.61 -72.6,1162.79 -95.28,1829.85 -53.34,1615.44 -1.13,2361.89 196.25,2756.68 110.03,222.36 281.34,391.37 487.82,485.53l65.79 30.65 176.96 -121.39c128.2,-87.34 173.6,-123.65 161.11,-130.45 -124.78,-72.61 -240.52,-153.14 -296.09,-207.61 -290.44,-282.47 -352.81,-555.88 -351.68,-1537.16 0,-772.55 43.11,-1639.29 139.52,-2794.14 18.17,-230.3 32.92,-425.42 30.66,-433.36 -2.29,-10.23 -71.47,3.39 -256.4,51.05z"/>
  <path class="fil0" d="M11004.33 14535.11c-142.94,36.3 -260.91,66.92 -263.21,69.22 -6.77,7.93 -52.17,816.78 -73.73,1309.12 -36.3,841.76 -46.49,1908.14 -22.68,2274.57 22.68,349.39 64.66,631.86 120.26,805.46 100.97,322.16 284.73,547.94 547.94,673.84l82.79 39.73 180.38 -120.27 180.37 -120.26 -88.47 -51.05c-196.25,-115.71 -327.84,-245.04 -412.93,-407.24 -82.83,-158.82 -114.58,-282.51 -147.5,-564.98 -19.26,-165.63 -19.26,-1338.65 0,-1724.34 32.92,-659.09 79.41,-1348.84 131.63,-1945.57 13.58,-165.63 24.94,-300.64 24.94,-301.76 -1.13,-1.13 -117.97,28.36 -259.79,63.53z"/>
  <path class="fil0" d="M31782.76 14538.51l-457.16 58.99 0 2526.41 0 2527.52 431.06 0 431.09 0 0 -43.11c0,-228 37.43,-1104.94 52.18,-1216.1 62.4,-499.18 237.1,-914.36 491.24,-1169.63 145.2,-144.08 277.92,-198.51 420.86,-171.28 150.89,27.2 224.62,140.66 249.59,380.02 10.2,104.38 4.52,235.97 -45.4,1048.24 -30.62,511.63 -56.72,952.92 -56.72,982.41 0,68.09 30.65,132.75 61.27,132.75 80.54,-2.29 857.64,-53.34 862.19,-57.85 11.33,-11.36 95.29,-2538.91 86.22,-2619.45 -29.53,-267.72 -152.05,-470.78 -341.49,-563.81 -145.2,-71.47 -231.42,-88.47 -452.65,-87.34 -214.38,1.13 -308.54,17 -471.91,78.28 -308.57,115.71 -593.3,390.24 -788.42,757.8l-55.6 104.35 0 -105.48c0,-114.58 62.37,-2200.84 73.73,-2461.75 6.81,-152.01 6.81,-161.08 -13.62,-159.95 -11.32,1.13 -225.74,27.23 -476.46,58.98z"/>
  <path class="fil0" d="M35461.75 14620.19c-90.76,37.43 -180.37,125.91 -212.12,208.74 -51.08,137.27 -20.43,305.16 73.73,399.31 153.14,156.56 391.37,157.69 545.68,4.55 82.79,-82.79 111.16,-159.95 105.48,-283.6 -5.68,-112.32 -43.11,-188.34 -128.2,-262.07 -110.03,-96.42 -252.98,-121.39 -384.57,-66.93z"/>
  <path class="fil0" d="M3520.42 15097.79c-456.04,65.79 -854.25,353.94 -1173.02,848.57 -175.83,272.24 -315.39,600.11 -403.86,948.38 -152.01,602.4 -178.08,1361.33 -61.24,1792.42 73.73,268.86 207.6,498.02 387.98,660.26 306.28,274.54 796.36,383.44 1445.26,321.03 402.73,-38.56 760.1,-129.33 1120.85,-285.89 92.99,-39.69 292.66,-139.52 316.51,-157.66 3.38,-2.29 -133.88,-424.28 -140.69,-433.38 -1.13,-1.13 -35.17,17.04 -76.02,41.98 -392.5,238.23 -811.11,342.61 -1381.73,343.74 -214.42,1.13 -276.82,-2.25 -387.98,-22.68 -439.04,-80.54 -659.13,-293.83 -754.42,-728.31 -63.53,-296.09 -44.24,-895.07 43.11,-1338.65 140.69,-714.69 494.63,-1305.74 899.62,-1507.67 218.93,-108.9 475.33,-105.51 643.22,10.2 217.8,148.62 343.75,490.08 378.92,1023.27 4.51,68.08 12.49,122.52 18.13,122.52 4.55,0 146.37,-28.37 313.13,-62.38 166.75,-34.04 307.41,-62.4 310.83,-62.4 10.19,0 -31.75,-262.05 -64.67,-402.73 -82.83,-346.01 -209.86,-605.79 -389.11,-792.98 -254.11,-264.33 -626.22,-377.75 -1044.82,-317.64z"/>
  <path class="fil0" d="M29655.69 15679.76c-247.3,29.49 -452.65,55.6 -456.04,57.85 -2.29,3.43 -22.68,197.38 -45.4,431.1 -22.69,233.68 -44.24,446.97 -47.63,473.07l-6.81 48.76 -339.19 0c-195.12,0 -339.2,4.55 -339.2,10.23 0,12.45 -53.34,391.37 -61.28,434.48l-5.68 31.75 352.82 0 352.81 0 -7.94 110.07c-24.94,353.94 -30.62,461.71 -36.3,780.48 -5.68,238.23 -3.38,406.12 5.68,520.7 54.47,669.33 242.78,973.35 670.46,1080 69.21,17 125.94,21.55 300.63,21.55 229.17,-1.13 355.07,-18.17 574.01,-79.41 175.86,-49.92 452.65,-164.5 452.65,-188.31 0,-6.81 -30.62,-110.03 -68.05,-228.04 -37.43,-117.97 -68.09,-216.67 -68.09,-218.93 0,-2.26 -43.11,15.87 -96.41,39.69 -127.07,57.85 -251.85,97.57 -361.88,112.32 -184.93,26.11 -266.6,6.81 -352.82,-82.83 -94.15,-95.29 -131.62,-226.87 -154.3,-534.32 -18.13,-252.98 -3.39,-716.95 36.3,-1183.22l13.62 -149.75 461.71 0 460.59 0 20.42 -196.25c10.2,-106.65 22.69,-214.42 26.11,-238.23l6.81 -41.98 -467.4 0 -467.39 0 6.81 -37.43c2.25,-19.3 28.36,-242.78 56.72,-495.76 28.37,-252.98 54.44,-476.46 57.86,-496.89 3.39,-26.07 1.13,-36.3 -9.07,-35.17 -7.97,1.16 -217.84,24.98 -465.13,54.47z"/>
  <path class="fil0" d="M7289.03 16630.42c226.88,78.29 423.16,302.9 524.13,597.86 74.86,215.54 103.22,444.71 94.15,732.86 -17.04,486.65 -145.2,842.89 -392.53,1089.06 -146.34,146.33 -275.66,204.19 -456.04,204.19 -308.57,0 -559.29,-199.68 -718.11,-570.62 -97.55,-229.17 -138.4,-493.5 -128.17,-830.41 9.07,-298.38 52.18,-499.18 149.72,-706.75 71.47,-152.01 138.43,-246.2 247.33,-350.56 97.55,-93.02 206.45,-158.82 309.71,-183.79 72.6,-18.14 294.96,-6.78 369.81,18.16zm-444.71 -439.03c-267.72,56.73 -441.29,155.44 -642.09,366.43 -282.47,294.96 -434.48,679.52 -470.78,1188.9 -23.81,324.45 17,687.46 105.52,946.11 124.77,366.43 352.77,670.46 627.34,837.22 248.43,150.88 572.88,190.6 882.58,110.06 179.25,-46.53 357.36,-155.43 512.76,-311.99 316.51,-316.52 492.34,-740.8 526.38,-1267.18 58.99,-896.2 -288.15,-1601.82 -896.19,-1825.31 -184.93,-68.05 -450.4,-86.22 -645.52,-44.24z"/>
  <path class="fil0" d="M13501.24 16561.22c53.3,15.88 78.28,32.92 139.52,94.16 81.7,81.67 128.2,162.24 174.73,301.77 47.63,141.81 96.41,409.54 96.41,529.76l0 43.11 -654.57 -2.26 -655.71 -3.38 3.42 -34.05c46.5,-431.09 332.39,-847.44 638.67,-929.11 82.83,-22.68 180.37,-21.55 257.53,0zm-344.88 -365.3c-361.88,94.16 -661.39,368.69 -883.71,812.27 -204.22,406.12 -304.06,913.24 -284.76,1445.3 14.75,438.99 128.2,726.01 376.63,958.6 195.12,182.63 448.09,273.37 762.35,273.37 420.86,0 882.61,-107.74 1326.16,-308.54l125.94 -57.86 -55.6 -159.98c-30.62,-88.48 -57.85,-166.76 -61.27,-174.7 -3.39,-10.19 -22.69,-5.68 -70.31,15.88 -386.86,176.99 -686.37,253.01 -1030.08,262.08 -180.37,5.68 -215.54,3.38 -302.89,-18.17 -148.63,-35.17 -239.4,-82.8 -334.68,-178.08 -138.4,-136.14 -207.61,-314.26 -232.55,-597.86 -12.49,-137.26 -2.26,-405.02 20.42,-544.54l7.94 -41.98 997.16 0 998.33 0 -6.81 -111.16c-29.49,-419.74 -103.26,-731.74 -239.36,-1006.27 -121.39,-245.04 -272.28,-408.37 -465.14,-504.82 -131.59,-65.8 -203.06,-81.67 -385.69,-86.22 -138.43,-3.39 -172.44,0 -262.08,22.68z"/>
  <path class="fil0" d="M16719.65 16582.77c108.9,28.37 164.5,61.28 250.71,146.34 180.38,179.24 241.62,403.86 218.94,806.59 -27.24,520.73 -152.01,915.49 -412.93,1315.96 -86.22,132.72 -268.85,315.39 -365.3,366.44 -195.12,102.09 -394.79,80.53 -528.64,-57.86 -110.03,-112.32 -180.37,-301.77 -220.1,-591.04 -22.68,-166.76 -24.94,-611.47 -4.51,-755.55 58.98,-412.96 186.02,-721.5 397.05,-972.22 182.63,-215.55 441.29,-316.51 664.78,-258.66zm-332.39 -395.92c-289.28,52.18 -530.93,196.25 -728.31,433.35 -259.79,310.84 -414.09,737.42 -465.14,1278.54 -18.13,195.12 -15.87,597.85 4.55,756.67 68.05,534.32 284.73,874.65 635.28,996.04 207.61,71.47 523,43.11 738.54,-64.67 156.53,-79.41 322.16,-225.77 439,-389.11 63.54,-88.48 166.79,-283.63 217.84,-408.41 21.56,-51.05 40.82,-95.29 45.37,-98.71 11.36,-11.32 7.94,859.93 -4.55,1068.67 -45.37,750.99 -200.8,981.29 -663.65,981.29 -264.3,0 -524.08,-97.58 -788.42,-296.09l-102.1 -76.02 -110.06 142.94c-60.12,79.41 -131.59,172.44 -158.82,208.74l-48.76 63.54 99.8 72.6c137.31,100.96 195.16,136.14 333.56,200.8 148.59,70.34 277.91,108.9 451.48,133.84 221.23,31.79 530.93,-1.13 724.92,-77.11 449.23,-178.12 652.29,-564.98 729.44,-1388.57 21.56,-225.74 20.43,-1976.19 0,-2200.81 -81.67,-872.38 -330.13,-1249.04 -879.19,-1338.65 -125.91,-20.42 -357.33,-20.42 -470.78,1.13z"/>
  <path class="fil0" d="M20000.45 16568.03c161.08,60.11 283.6,262.04 348.27,576.3 13.61,69.21 52.21,343.74 52.21,376.62 0,4.55 -297.25,9.07 -659.13,9.07l-659.1 0 7.94 -64.63c20.43,-162.24 87.35,-359.62 174.7,-507.12 60.11,-104.35 203.05,-259.78 289.27,-317.64 139.56,-91.9 316.52,-121.39 445.84,-72.6zm-342.61 -376.63c-325.58,74.86 -606.92,305.16 -830.41,680.65 -212.12,356.24 -324.45,769.16 -356.2,1305.74 -28.36,493.5 45.37,821.34 247.3,1093.61 203.06,274.53 504.83,414.09 891.68,414.09 327.84,0 724.89,-74.89 1059.57,-199.67 174.69,-64.67 390.24,-165.63 385.69,-179.25 -2.26,-6.81 -28.36,-83.96 -58.98,-171.31 -30.62,-87.34 -55.57,-159.95 -56.73,-161.08 -1.13,-2.25 -60.11,22.69 -131.59,54.44 -170.18,77.15 -423.15,159.98 -605.79,198.54 -132.71,28.36 -171.3,31.75 -385.69,31.75 -220.1,1.17 -245.07,-1.13 -323.32,-24.94 -136.14,-43.11 -214.42,-88.48 -296.09,-172.44 -89.64,-91.9 -145.23,-198.54 -188.34,-358.49 -30.62,-108.9 -30.62,-121.39 -30.62,-407.25 1.12,-162.24 5.68,-321.06 11.36,-351.68l10.19 -56.73 997.2 -3.38 997.16 -2.3 -7.94 -133.84c-3.42,-73.77 -17.04,-200.8 -29.49,-282.47 -105.52,-721.54 -398.22,-1157.15 -855.38,-1273.99 -116.84,-29.49 -314.26,-29.49 -443.58,0z"/>
  <path class="fil0" d="M26787.82 18477.29c88.47,27.24 156.56,64.67 214.42,115.71l51.04 45.37 -13.61 61.28c-46.54,206.48 -216.68,384.56 -439.04,458.29 -79.41,27.24 -104.35,30.66 -198.5,26.11 -124.82,-5.68 -182.67,-27.24 -260.95,-96.42 -78.29,-69.21 -106.61,-137.26 -105.49,-247.33 1.13,-216.67 114.59,-335.77 361.88,-380.01 83.97,-15.91 317.65,-4.55 390.25,17zm-255.24 -2296.12c-206.48,27.23 -484.43,128.2 -637.57,232.59 -224.62,154.26 -408.41,381.17 -547.94,676.13 -58.98,127.03 -152.01,383.43 -141.81,393.63 11.36,10.23 724.92,204.19 733.99,198.54 5.68,-3.42 9.1,-15.91 9.1,-28.36 0,-12.49 13.58,-80.54 29.49,-149.76 103.22,-451.52 260.91,-720.37 480.98,-822.46 53.34,-24.98 78.28,-29.49 170.18,-29.49 127.07,0 189.44,23.81 256.4,97.54 116.84,130.46 148.59,324.45 159.94,986.97 3.39,217.8 3.39,394.79 0,394.79 -4.55,0 -46.53,-12.49 -93.02,-28.36 -144.08,-48.79 -321.07,-83.97 -476.46,-94.16 -477.63,-32.91 -830.41,79.41 -1090.23,343.75 -159.95,163.33 -229.13,349.39 -216.67,583.1 11.35,214.39 74.89,361.88 212.16,501.41 69.18,69.21 107.77,96.44 192.86,139.55 147.46,72.61 254.11,97.55 450.36,105.48 409.54,17.04 744.18,-96.41 1006.26,-342.58 30.62,-28.36 56.73,-49.92 58.98,-48.79 1.13,2.26 11.33,105.48 21.56,230.3 9.06,123.65 19.29,226.87 20.42,228 3.39,2.29 833.79,-83.93 879.2,-91.87 28.36,-5.68 36.3,-11.36 31.75,-26.1 -3.39,-10.2 -15.88,-103.22 -28.37,-206.48 -54.43,-446.97 -68.05,-693.14 -80.54,-1463.43 -15.87,-966.54 -28.36,-1070.89 -159.95,-1314.8 -147.49,-274.54 -367.55,-416.35 -719.24,-465.14 -102.09,-14.75 -407.25,-13.58 -521.83,0z"/>
  <path class="fil0" d="M35592.22 16256.06c-252.98,45.36 -460.59,85.09 -462.85,87.34 -2.29,1.13 19.27,720.38 47.63,1596.18 28.36,875.77 51.05,1612.02 51.05,1634.7l0 43.11 425.45 0 425.41 0 0 -1724.34c0,-1372.66 -3.42,-1724.34 -13.62,-1723.21 -7.93,1.13 -221.22,39.72 -473.07,86.22z"/>
  <path class="fil0" d="M23038.48 16201.61c-266.59,29.49 -461.71,79.41 -578.55,147.46 -18.17,11.36 -52.21,27.23 -73.73,35.17 -60.15,23.85 -203.1,136.14 -287.02,226.9 -77.15,82.8 -170.18,247.3 -199.67,351.69 -9.07,28.36 -20.43,65.79 -27.24,83.92 -19.26,51.05 -13.62,341.49 6.81,415.22 48.79,173.57 110.03,282.47 217.81,386.86 91.89,88.48 104.38,98.67 179.24,139.52 29.49,15.88 77.15,41.98 106.65,57.86 55.59,30.62 94.15,36.3 94.15,14.75 0,-27.24 119.14,-301.77 128.2,-296.09 5.68,3.39 6.81,32.88 3.39,64.66 -7.94,62.41 -1.13,77.16 70.34,154.27 14.75,15.88 39.73,53.34 55.6,85.09 36.3,71.48 31.75,68.09 62.41,46.53 57.85,-40.85 137.26,-6.8 147.46,61.25 2.26,21.55 11.36,29.49 37.43,34.04 22.68,3.39 39.72,17 51.04,39.69 10.24,18.17 35.18,51.04 55.6,71.47 31.75,31.79 37.43,43.11 30.62,73.73 -14.74,79.41 -13.61,81.7 15.88,81.7 24.98,0 28.36,-4.55 26.1,-34.04 -1.12,-19.3 -11.36,-58.98 -20.42,-89.6 -19.26,-56.73 -13.62,-85.09 9.06,-46.54 6.81,12.49 22.72,53.34 34.05,90.77 26.1,83.93 36.3,96.42 76.02,96.42 56.73,0 61.24,-20.43 28.36,-136.14 -15.91,-57.85 -26.1,-107.77 -22.68,-111.16 11.33,-11.36 27.2,20.43 51.05,105.48 12.45,43.11 27.2,86.22 31.75,95.32 13.62,23.81 49.92,34.01 80.54,22.69 30.62,-12.49 29.49,-29.5 -9.07,-173.57 -12.49,-49.92 -23.81,-95.32 -23.81,-102.1 1.13,-23.84 34.01,31.75 34.01,56.7 0,14.74 4.55,28.36 9.1,31.78 4.51,3.39 15.87,30.62 23.81,61.24 21.55,77.16 38.56,97.58 74.86,88.52 15.87,-4.56 32.91,-18.17 37.43,-30.66 7.97,-20.39 -5.65,-142.91 -26.07,-233.68 -11.36,-48.79 -162.24,-220.1 -231.42,-262.04 -103.26,-61.28 -105.52,-62.41 -188.32,-22.72 -57.85,26.1 -83.96,32.91 -116.87,28.36 -45.37,-7.94 -93.03,-52.18 -93.03,-87.35 0,-11.32 29.53,-48.79 64.67,-83.92 35.17,-34.05 61.27,-65.83 56.72,-70.35 -4.51,-4.55 -34.01,-12.49 -66.92,-17.04 -64.66,-10.19 -254.11,-82.79 -280.21,-107.73 -12.49,-11.36 -13.62,-21.56 -4.52,-40.86 41.95,-89.64 41.95,-96.41 1.13,-145.2 -105.51,-122.52 -66.96,-301.77 90.74,-425.41 58.98,-46.54 104.38,-64.67 251.84,-98.71 83.97,-19.3 425.42,-19.3 521.87,0 40.82,9.06 99.8,20.42 130.46,27.23 123.64,24.94 214.38,57.86 386.82,140.66 82.83,39.72 155.43,49.91 171.31,23.84 11.36,-18.16 110.03,-254.14 147.49,-353.94 9.07,-24.98 27.2,-69.21 39.69,-97.58 13.62,-30.62 19.3,-62.4 15.87,-76.02 -7.93,-23.81 -61.24,-68.05 -108.9,-89.61 -180.37,-80.54 -381.17,-146.33 -516.15,-167.88 -55.59,-10.23 -135.01,-22.69 -175.86,-29.5 -91.9,-14.74 -500.27,-22.71 -606.92,-11.35z"/>
  <path class="fil0" d="M23046.43 17726.29c-51.05,51.05 -93.03,98.71 -93.03,105.52 0,6.81 17.01,21.55 37.43,32.88 47.66,24.97 77.15,18.17 154.31,-32.88 31.75,-21.56 60.11,-35.17 63.5,-30.66 2.29,4.55 38.59,26.11 80.57,46.53 53.31,26.07 98.67,61.25 154.27,119.1 124.78,130.49 149.75,170.18 146.33,228.04 -2.26,41.98 15.91,129.33 27.24,129.33 1.13,0 26.1,-10.2 55.59,-23.82 29.5,-12.49 62.41,-19.29 74.86,-15.91 24.98,7.98 23.85,20.43 -11.32,125.94l-20.43 56.73 34.05 39.69c108.9,129.33 116.84,246.17 23.81,385.73 -46.53,70.34 -196.25,141.81 -360.75,170.14 -87.35,14.75 -484.4,7.97 -550.23,-10.19 -21.52,-5.68 -68.05,-17.01 -102.09,-24.95 -186.06,-40.85 -360.75,-106.64 -524.09,-195.15 -171.31,-92.99 -201.93,-88.48 -246.2,37.46 -12.46,34.01 -47.63,112.29 -78.25,174.7 -30.65,62.4 -62.4,133.84 -70.34,158.82 -7.94,24.94 -19.3,52.17 -26.11,58.98 -17,22.69 11.36,78.28 57.86,108.91 53.34,34.04 291.57,148.62 361.88,173.56 113.45,38.6 356.23,97.58 536.61,128.2 40.85,6.81 152.01,18.17 247.29,24.98 277.96,20.39 549.07,-10.23 816.83,-93.03 145.2,-45.4 147.46,-46.53 285.85,-127.07 239.36,-140.65 391.37,-335.81 466.27,-603.53 24.94,-87.35 21.55,-389.12 -5.68,-475.33 -56.73,-182.64 -157.69,-327.84 -300.64,-428.81 -89.6,-64.66 -267.72,-156.56 -301.73,-156.56 -19.3,0 -29.53,15.88 -56.73,98.71 -40.85,121.39 -57.85,156.56 -66.95,140.65 -4.52,-6.81 -4.52,-36.3 0,-66.92 7.93,-63.54 26.1,-53.31 -164.47,-99.84 -132.75,-31.75 -199.67,-70.34 -248.46,-141.78 -31.75,-46.53 -40.85,-49.92 -189.44,-83.96 -43.11,-10.23 -87.35,-20.43 -96.45,-22.68 -11.32,-3.43 -53.31,30.62 -111.16,88.47z"/>
  <path class="fil0" d="M22647.1 18074.57c-32.91,32.91 -29.49,77.15 6.81,91.89 37.43,13.62 72.6,3.39 72.6,-21.55 0,-19.3 -39.69,-93.03 -51.04,-93.03 -3.43,0 -15.88,10.2 -28.37,22.69z"/>
  <path class="fil0" d="M22794.58 18155.11c-73.73,44.24 -90.77,97.58 -40.85,130.46 26.1,15.87 31.78,15.87 66.96,-1.13 58.98,-28.36 87.34,-58.98 87.34,-97.58 0,-24.94 -6.8,-36.3 -29.49,-44.24 -38.59,-14.74 -38.59,-14.74 -83.96,12.49z"/>
  <path class="fil0" d="M22894.41 18268.56c-43.11,28.36 -54.47,41.98 -54.47,66.92 0,35.17 30.66,68.09 63.54,68.09 29.49,0 106.64,-79.41 106.64,-110.07 0,-18.13 -41.98,-61.24 -58.98,-60.11 -2.26,0 -27.23,15.87 -56.73,35.17z"/>
  <path class="fil0" d="M22989.71 18371.79c-31.75,19.3 -37.43,29.49 -34.05,58.99 3.42,30.62 7.94,35.17 40.85,38.59 21.56,2.26 49.92,-4.55 65.8,-14.78 23.81,-14.75 28.36,-26.07 24.97,-60.11 -3.42,-35.18 -7.97,-41.99 -31.78,-44.24 -15.88,-1.13 -45.37,7.93 -65.79,21.55z"/>
  <path class="fil0" d="M30480.42 20320.76c-329,58.99 -611.47,425.42 -711.3,921.18 -21.56,108.9 -24.94,165.62 -26.07,372.07 0,277.95 9.06,329 85.09,482.14 81.67,164.5 195.12,264.34 365.26,317.64 251.85,79.41 638.71,27.24 1015.33,-138.39l114.59 -51.05 -38.56 -110.03c-21.56,-60.11 -41.98,-115.71 -44.28,-122.52 -3.38,-10.23 -35.13,0 -103.22,30.62 -200.8,93.03 -392.5,136.14 -600.11,136.14 -243.91,0 -381.18,-102.1 -443.58,-329 -27.2,-100.97 -28.37,-403.86 0,-555.87 59.02,-327.84 198.54,-581.98 367.56,-668.17 91.89,-46.53 180.37,-44.27 240.52,6.78 72.6,60.15 108.9,179.24 121.39,391.4 3.39,73.74 10.2,133.85 13.58,133.85 3.42,1.13 87.39,-15.88 186.06,-36.3l178.12 -37.43 0 -40.85c0,-22.69 -7.94,-86.22 -17.01,-141.79 -51.05,-298.37 -178.12,-471.94 -392.53,-538.86 -81.67,-24.94 -231.43,-36.3 -310.84,-21.56z"/>
  <path class="fil0" d="M32537.17 20644.08c34.04,15.87 86.22,54.47 119.13,88.48 122.48,124.81 187.15,306.31 197.38,552.48 13.62,331.26 -63.54,591.05 -222.36,748.74 -89.6,88.47 -153.14,116.84 -267.72,117.97 -81.67,0 -97.58,-3.39 -162.24,-38.56 -130.46,-69.22 -231.42,-217.81 -288.15,-425.42 -20.39,-77.15 -23.81,-121.39 -24.94,-294.96 0,-172.43 3.38,-218.96 23.81,-294.95 68.09,-260.92 211.03,-437.91 385.73,-482.14 63.53,-14.75 170.14,-2.26 239.36,28.36zm-264.34 -322.19c-277.92,41.98 -502.53,235.97 -627.34,541.12 -132.72,327.87 -119.1,812.27 31.78,1115.17 63.5,127.07 104.35,184.93 198.51,276.82 137.27,134.98 322.19,206.45 503.7,193.96 115.71,-9.07 179.24,-23.81 267.72,-63.5 250.72,-113.45 448.1,-400.47 517.31,-754.41 23.81,-120.27 20.43,-462.85 -4.55,-584.24 -26.07,-119.13 -82.8,-272.27 -133.84,-359.62 -48.79,-83.96 -203.06,-239.36 -276.83,-280.21 -136.1,-74.86 -324.45,-108.91 -476.46,-85.09z"/>
  <path class="fil0" d="M33827.03 20355.93c-74.86,18.17 -146.34,35.17 -159.95,37.43 -22.69,5.68 -23.82,7.94 -9.07,105.52 49.88,333.51 55.56,462.84 54.43,1202.51l-1.13 718.08 144.08 0 144.07 0 6.81 -241.62c7.94,-265.46 28.36,-458.33 71.47,-653.45 66.93,-301.77 199.64,-584.23 326.71,-696.52 118.01,-104.39 254.11,-101 289.28,6.77 35.17,106.64 37.43,171.31 36.3,815.69l-2.26 655.71 135.01 0 136.14 0 6.81 -128.2c4.51,-69.21 12.45,-251.85 18.13,-404.99 12.49,-292.7 30.62,-434.51 70.34,-555.9 66.92,-207.58 212.13,-404.99 350.52,-477.6 38.6,-20.42 69.22,-26.07 132.75,-27.23 77.16,0 85.09,2.29 111.16,31.79 51.05,60.11 53.34,83.96 45.41,796.36 -4.55,367.56 -10.23,709.04 -13.62,756.67l-6.81 88.51 154.27 0c115.71,0 154.3,-3.42 154.3,-14.75 -1.16,-6.8 13.59,-366.43 30.63,-798.65 34.04,-874.68 34.04,-890.55 -32.92,-1016.46 -65.79,-122.52 -180.37,-180.37 -355.07,-179.24 -237.1,1.13 -452.65,123.64 -594.43,338.06l-32.91 48.79 -12.49 -54.47c-35.17,-138.39 -103.22,-233.68 -195.12,-274.53 -167.89,-71.47 -380.05,-14.74 -544.52,147.46 -80.57,79.41 -122.52,137.27 -198.54,270.02 -28.36,51.05 -51.05,79.41 -54.47,70.34 -2.26,-9.1 -7.94,-68.08 -11.32,-130.49 -6.81,-114.55 -36.3,-367.56 -49.92,-432.22l-7.94 -35.14 -136.13 31.75z"/>
  <path class="fil0" d="M28988.63 21967.97c-28.36,15.87 -65.79,49.92 -85.09,76.02 -30.62,44.24 -34.04,56.69 -34.04,136.1 0,77.16 3.42,94.16 31.78,136.14 104.36,157.69 331.26,144.08 418.61,-26.07 54.47,-105.51 20.43,-237.1 -79.41,-306.32 -39.72,-28.36 -62.41,-35.17 -124.78,-38.55 -63.53,-3.43 -83.96,0 -127.07,22.68z"/>
 </g>
</svg>
