<svg xmlns="http://www.w3.org/2000/svg" width="272" height="44" viewBox="0 0 272 44">
  <g>
    <path d="M61.68.35c-1.1.19-2,.38-2,.39s-.57,6.41-.75,10.09c-.42,8.91,0,13,1.56,15.2a7.32,7.32,0,0,0,3.85,2.68l.52.17,1.46-.67c1-.48,1.38-.68,1.28-.73a13.63,13.63,0,0,1-2.33-1.14c-2.31-1.56-2.8-3.07-2.79-8.47a129.57,129.57,0,0,1,1.1-15.41c.15-1.27.26-2.35.25-2.39A9.37,9.37,0,0,0,61.68.35Z" fill="#ec2226" fill-rule="evenodd"/>
    <path d="M73.48.35,71.39.73c0,.05-.41,4.51-.58,7.22a113.31,113.31,0,0,0-.18,12.55,14.71,14.71,0,0,0,1,4.44,6.79,6.79,0,0,0,4.33,3.71l.66.22L78,28.21l1.46-.66-.7-.29A7.48,7.48,0,0,1,75.54,25a6,6,0,0,1-1.17-3.12c-.15-.91-.15-7.38,0-9.51.26-3.63.63-7.44,1-10.73A9.93,9.93,0,0,1,75.59,0S74.59.15,73.48.35Z" fill="#ec2226" fill-rule="evenodd"/>
    <path d="M237.72.37,234.11.7V28.57h6.81v-.25c0-1.25.31-6.08.43-6.7a9.7,9.7,0,0,1,3.87-6.46,4.59,4.59,0,0,1,3.33-.94,2.11,2.11,0,0,1,2,2,36.78,36.78,0,0,1-.4,5.83c-.23,2.83-.44,5.26-.44,5.42,0,.37.24.73.49.73.63,0,6.77-.29,6.8-.32s.76-14,.69-14.44a3.85,3.85,0,0,0-2.7-3.07,9.07,9.07,0,0,0-3.58-.48,12.29,12.29,0,0,0-3.74.43,11.66,11.66,0,0,0-6.23,4.18l-.44.57v-.58c0-.63.5-12.14.59-13.58,0-.84,0-.88-.11-.88Z" fill="#ec2226" fill-rule="evenodd"/>
    <path d="M266.81.82A3,3,0,0,0,265.14,2a1.7,1.7,0,0,0,.57,2.21,3.85,3.85,0,0,0,4.14.12,1,1,0,0,0,.17-.12,1.57,1.57,0,0,0,.84-1.56,1.75,1.75,0,0,0-1-1.44A4,4,0,0,0,266.81.82Z" fill="#ec2226" fill-rule="evenodd"/>
    <path d="M14.31,3.45A14.13,14.13,0,0,0,5,8.19a15.42,15.42,0,0,0-3.2,5.17,16,16,0,0,0-.49,9.89,7.62,7.62,0,0,0,3.07,3.64c2.42,1.52,6.31,2.11,11.43,1.77a39.28,39.28,0,0,0,8.8-1.57c.73-.23,2.31-.78,2.5-.87s-1-2.35-1.11-2.4a5.36,5.36,0,0,0-.6.24A27.19,27.19,0,0,1,14.57,26a19.66,19.66,0,0,1-3.07-.12c-3.09-.2-5.56-1.88-5.95-4a15.9,15.9,0,0,1,.34-7.38C7,10.49,9.8,7.27,13,6.11a7.09,7.09,0,0,1,5.09,0Q20.66,7.37,21,11.78a1.32,1.32,0,0,0,.15.67l2.46-.33,2.47-.35a10.92,10.92,0,0,0-.38-2.19,8.55,8.55,0,0,0-3.08-4.37A12,12,0,0,0,14.31,3.45Z" fill="#ec2226" fill-rule="evenodd"/>
    <path d="M220.91,6.66l-3.6.32s-.18,1.09-.37,2.37-.34,2.47-.37,2.61v.28h-2.68q-1.33-.06-2.67,0c0,.07-.43,2.16-.5,2.39v.19h5.59l-.08.6c-.19,2-.23,2.55-.27,4.3v2.87c.42,3.7,1.92,5.38,5.29,6a13.47,13.47,0,0,0,2.38.12,20.75,20.75,0,0,0,4.54-.44,18.52,18.52,0,0,0,3.58-1s-.25-.62-.54-1.26-.54-1.2-.54-1.21a5.62,5.62,0,0,0-.76.22,14.12,14.12,0,0,1-2.86.62,3.73,3.73,0,0,1-2.79-.46c-.69-.46-1-1.25-1.22-2.95a33.88,33.88,0,0,1,.29-6.52l.11-.82h7.33l.16-1.09a5.6,5.6,0,0,1,.21-1.32V12.2H223.8V12c0-.11.22-1.34.44-2.74s.43-2.62.46-2.73a.36.36,0,0,0,0-.2l-3.67.3Z" fill="#ec2226" fill-rule="evenodd"/>
    <path d="M40.59,9.49a10.09,10.09,0,0,0-5.09,2,8.69,8.69,0,0,0-3.71,6.56,10.1,10.1,0,0,0,.84,5.22,9.68,9.68,0,0,0,4.95,4.61,12.57,12.57,0,0,0,7,.61,10.15,10.15,0,0,0,4.06-1.72,9.17,9.17,0,0,0,4.15-7A9,9,0,0,0,45.68,9.76,14,14,0,0,0,40.59,9.49ZM44.1,11.9a6.23,6.23,0,0,1,4.15,3.31,7.93,7.93,0,0,1,.73,4,7.21,7.21,0,0,1-3.09,6,5.79,5.79,0,0,1-3.61,1.14,6.43,6.43,0,0,1-5.68-3.15,7.76,7.76,0,0,1-1-4.59,6.75,6.75,0,0,1,1.19-3.88,6.12,6.12,0,0,1,1.95-1.94,6.09,6.09,0,0,1,2.45-1A11.89,11.89,0,0,1,44.1,11.9Z" fill="#ec2226" fill-rule="evenodd"/>
    <path d="M90.47,9.51a10.79,10.79,0,0,0-7,4.48,12.42,12.42,0,0,0-2.24,8,6,6,0,0,0,2.93,5.29,10.89,10.89,0,0,0,6.07,1.5,35.22,35.22,0,0,0,10.48-1.7l1-.32-.44-.88c-.23-.49-.45-.92-.48-1s-.18,0-.56.09a27,27,0,0,1-8.14,1.44,10,10,0,0,1-2.39-.1,5.9,5.9,0,0,1-2.65-1A4.23,4.23,0,0,1,85.22,22a10.89,10.89,0,0,1,.17-3v-.22h15.84v-.62a10.91,10.91,0,0,0-1.9-5.55,7.27,7.27,0,0,0-3.66-2.79,8.13,8.13,0,0,0-3-.47A8.56,8.56,0,0,0,90.47,9.51Zm2.73,2a2.56,2.56,0,0,1,1.1.52,3.72,3.72,0,0,1,1.4,1.66,9.61,9.61,0,0,1,.76,2.93v.23H86.09v-.18a6.63,6.63,0,0,1,5-5.12,5.94,5.94,0,0,1,2.06-.07Z" fill="#ec2226" fill-rule="evenodd"/>
    <path d="M116,9.45a10.89,10.89,0,0,0-5.77,2.4,10.49,10.49,0,0,0-3.67,7,19.38,19.38,0,0,0,0,4.17,6.42,6.42,0,0,0,5,5.5,11.88,11.88,0,0,0,5.87-.36A9.88,9.88,0,0,0,121,26.06a12.92,12.92,0,0,0,1.72-2.25,2.73,2.73,0,0,1,.37-.54c.08-.06,0,4.74,0,5.89-.36,4.1-1.59,5.41-5.24,5.41a13.22,13.22,0,0,1-6.23-1.63l-.78-.42-.88.79-1.25,1.14-.38.36.78.4a15.26,15.26,0,0,0,2.64,1.11,16,16,0,0,0,3.56.73,18,18,0,0,0,5.74-.42c3.55-1,5.16-3.07,5.76-7.66.18-1.24.16-10.9,0-12.14-.64-4.81-2.61-6.88-7-7.38A21.69,21.69,0,0,0,116,9.45Zm2.62,2.19a4.26,4.26,0,0,1,2,.81c1.47,1,1.91,2.22,1.73,4.44a11.12,11.12,0,0,1-3.27,7.26,10,10,0,0,1-2.93,2.05,4.62,4.62,0,0,1-4.18-.32,4.82,4.82,0,0,1-1.75-3.27,17,17,0,0,1,0-4.16,8.78,8.78,0,0,1,3.14-5.36A6.6,6.6,0,0,1,118.65,11.64Z" fill="#ec2226" fill-rule="evenodd"/>
    <path d="M141.87,9.49a10.52,10.52,0,0,0-6.56,3.75,12,12,0,0,0-2.81,7.16c-.22,2.73.35,4.54,1.95,6a10,10,0,0,0,7.05,2.28,35.25,35.25,0,0,0,8.38-1.09,18.53,18.53,0,0,0,3.05-1s-.24-.47-.47-1-.44-.88-.45-.88c-.36.09-.71.18-1,.3a35.34,35.34,0,0,1-4.78,1.09,15.49,15.49,0,0,1-3.05.18,10.35,10.35,0,0,1-2.55-.13,6,6,0,0,1-2.35-1,4,4,0,0,1-1.46-2,4.31,4.31,0,0,1-.25-2.24,10.75,10.75,0,0,1,.08-2l.09-.3h15.77l-.07-.74a10.65,10.65,0,0,0-.24-1.57c-.82-4-3.14-6.37-6.76-7A12.58,12.58,0,0,0,141.87,9.49Zm2.71,2a4.17,4.17,0,0,1,2.76,3.17c.1.39.41,1.91.41,2.05a44.85,44.85,0,0,1-5.21.05h-5.22v-.36a6.53,6.53,0,0,1,1.38-2.79A8.37,8.37,0,0,1,141,11.9a5.61,5.61,0,0,1,3.54-.34Z" fill="#ec2226" fill-rule="evenodd"/>
    <path d="M196.23,9.42a17.6,17.6,0,0,0-5,1.29,10.83,10.83,0,0,0-4.4,3.73,10.45,10.45,0,0,0-1.13,2.17c.09.06,5.74,1.12,5.87,1.09a.14.14,0,0,0,0-.15,4.87,4.87,0,0,1,.23-.83c.81-2.49,2.06-4,3.8-4.53a3.35,3.35,0,0,1,1.34-.17,3,3,0,0,1,2,.55c.92.71,1.17,1.78,1.26,5.43v2.18c-.25,0-.5-.09-.73-.15a22.52,22.52,0,0,0-3.77-.53,13.53,13.53,0,0,0-8.63,1.9,3.49,3.49,0,0,0,0,6,5.13,5.13,0,0,0,1.47.77,10.47,10.47,0,0,0,3.56.58A13.5,13.5,0,0,0,200,26.84a3,3,0,0,1,.47-.27s.09.59.16,1.27.16,1.25.16,1.26,6.8-.45,7.1-.45.3-.07.25-.14-.11-.58-.22-1.15a45.47,45.47,0,0,1-.63-8.06c-.13-5.33-.23-5.92-1.27-7.26a7.5,7.5,0,0,0-5.68-2.56A35.4,35.4,0,0,0,196.23,9.42Zm2,12.67a5.26,5.26,0,0,1,1.7.64l.4.25-.11.34a4.62,4.62,0,0,1-3.47,2.53,4.85,4.85,0,0,1-1.57.14,3.6,3.6,0,0,1-2.06-.53,1.41,1.41,0,0,1-.83-1.37c0-1.19.89-1.85,2.93-2.05A14.43,14.43,0,0,1,198.24,22.09Z" fill="#ec2226" fill-rule="evenodd"/>
    <path d="M267.84,9.84c-2,.25-3.64.46-3.66.48s.15,4,.37,8.8.41,8.9.41,9v.23h6.73v-9.5c0-7.57,0-9.52-.11-9.51Z" fill="#ec2226" fill-rule="evenodd"/>
    <path d="M168.59,9.54a16.35,16.35,0,0,0-4.56.82c-.14.06-.42.14-.58.19a9.41,9.41,0,0,0-2.28,1.25,5.79,5.79,0,0,0-1.57,1.93,1.08,1.08,0,0,1-.22.47,5.52,5.52,0,0,0,0,2.29,4.2,4.2,0,0,0,1.72,2.13,4.77,4.77,0,0,0,1.47.77l.83.32c.44.17.75.2.75.08a8.27,8.27,0,0,1,1-1.63.55.55,0,0,1,0,.36c0,.34,0,.42.56.85a2.43,2.43,0,0,1,.44.47c.28.39.25.37.48.26a1,1,0,0,1,1.05.12.52.52,0,0,1,.13.21c0,.12.09.17.29.19a.56.56,0,0,1,.4.21,2.12,2.12,0,0,0,.44.4c.25.18.29.24.25.41-.12.43-.12.45.11.45s.24,0,.21-.19a2.16,2.16,0,0,0-.16-.49c-.15-.32-.11-.47.07-.26a2.76,2.76,0,0,1,.28.5c.2.46.28.53.6.53s.48-.11.22-.74a1.76,1.76,0,0,1-.18-.62c.09-.07.21.12.4.58.1.24.22.48.25.53a.7.7,0,0,0,.65.12c.23-.07.23-.16,0-1a4.18,4.18,0,0,1-.2-.56c0-.13.27.18.27.31a.19.19,0,0,0,0,.18.83.83,0,0,1,.19.34c.18.43.31.54.59.49a.48.48,0,0,0,.3-.18,3.38,3.38,0,0,0-.2-1.29,6.06,6.06,0,0,0-1.83-1.44c-.83-.34-.84-.34-1.47-.12a2.05,2.05,0,0,1-.93.15c-.35,0-.73-.29-.73-.48a1.75,1.75,0,0,1,.51-.46c.28-.18.49-.37.46-.39a2.35,2.35,0,0,0-.53-.09,12,12,0,0,1-2.21-.59c-.11-.07-.12-.13,0-.23.33-.5.33-.53,0-.81-.75-.71-.53-1.72.5-2.24l.22-.1a5.1,5.1,0,0,1,2-.54,25.89,25.89,0,0,1,4.13,0l1,.15a15.14,15.14,0,0,1,3.05.77c.66.22,1.23.27,1.36.13a21.83,21.83,0,0,0,1.16-1.94c0-.15.22-.39.32-.55a.55.55,0,0,0,.12-.42,1.91,1.91,0,0,0-.86-.49,24.7,24.7,0,0,0-4.08-.93l-1.39-.16C171.81,9.5,170.2,9.48,168.59,9.54Z" fill="#ec2226" fill-rule="evenodd"/>
    <path d="M168.67,18a3.58,3.58,0,0,0-.74.58,2,2,0,0,0,.3.19,1.73,1.73,0,0,0,1.22-.19,1.25,1.25,0,0,1,.49-.17,3.37,3.37,0,0,0,.65.25,4.62,4.62,0,0,1,1.22.67c1,.71,1.17.93,1.16,1.25a1,1,0,0,0,.2.71,3.19,3.19,0,0,0,.44-.13,1.74,1.74,0,0,1,.6-.08c.19,0,.18.11-.1.69L174,22l.28.23a1.25,1.25,0,0,1,.19,2.11,5.76,5.76,0,0,1-2.86.95,35.89,35.89,0,0,1-4.4,0l-.81-.15a20.54,20.54,0,0,1-4.15-1.07c-1.35-.51-1.6-.49-1.95.2a7.12,7.12,0,0,1-.62,1c-.23.35-.48.75-.55.88a1.15,1.15,0,0,1-.21.33c-.13.12.09.43.45.6q1.43.54,2.94,1c1.4.27,2.82.48,4.27.62.32,0,1.2.1,1.95.14a23.92,23.92,0,0,0,6.45-.52,9.15,9.15,0,0,0,2.26-.69,6.23,6.23,0,0,0,3.7-3.33,6.09,6.09,0,0,0,0-2.62,4.91,4.91,0,0,0-2.39-2.37,12.23,12.23,0,0,0-2.38-.86c-.16,0-.24.09-.46.54-.32.68-.45.87-.52.78a.59.59,0,0,1,0-.37c0-.35.2-.3-1.29-.55a3.44,3.44,0,0,1-2-.78c-.25-.26-.32-.28-1.47-.47l-.76-.12C169.46,17.4,169.12,17.63,168.67,18Z" fill="#ec2226" fill-rule="evenodd"/>
    <path d="M165.5,19.87c-.25.18-.22.42,0,.5s.57,0,.57-.11a1,1,0,0,0-.39-.52A.83.83,0,0,0,165.5,19.87Z" fill="#ec2226" fill-rule="evenodd"/>
    <path d="M166.67,20.31c-.58.25-.72.54-.32.72s.25.09.53,0,.69-.33.69-.54-.08-.22-.24-.25S167,20.16,166.67,20.31Z" fill="#ec2226" fill-rule="evenodd"/>
    <path d="M167.47,20.94c-.36.15-.44.23-.44.36s.22.37.51.38.83-.44.83-.6a.69.69,0,0,0-.46-.34Z" fill="#ec2226" fill-rule="evenodd"/>
    <path d="M168.21,21.49c-.25.1-.29.16-.26.33s0,.19.32.2a1,1,0,0,0,.52-.08c.19-.07.23-.14.2-.33s-.07-.23-.25-.24A1.52,1.52,0,0,0,168.21,21.49Z" fill="#ec2226" fill-rule="evenodd"/>
    <path d="M227.43,32.25a7,7,0,0,0-5.62,5.12,5.92,5.92,0,0,0-.21,2.05,3.41,3.41,0,0,0,.68,2.66,4.42,4.42,0,0,0,2.93,1.75,17.3,17.3,0,0,0,8-.76l.9-.29-.29-.6-.36-.68s-.27,0-.82.17a15.11,15.11,0,0,1-4.73.75c-1.68.14-3.22-.66-3.51-1.82a6.92,6.92,0,0,1,0-3.07,5.08,5.08,0,0,1,2.93-3.68,2.33,2.33,0,0,1,1.9,0c.58.34.86,1,1,2.16a2.58,2.58,0,0,0,.11.73l1.46-.19,1.47-.2v-.23a5.42,5.42,0,0,0-.13-.79,3.78,3.78,0,0,0-3.1-3A9,9,0,0,0,227.43,32.25Z" fill="#ec2226" fill-rule="evenodd"/>
    <path d="M241.6,32.26a6.24,6.24,0,0,0-5,3,6.09,6.09,0,0,0,.25,6.14A5,5,0,0,0,238.4,43a6.8,6.8,0,0,0,4,1,7.77,7.77,0,0,0,2.11-.35,6.17,6.17,0,0,0,4.17-4.17,9.17,9.17,0,0,0,0-3.22,6.46,6.46,0,0,0-1.06-2,7.59,7.59,0,0,0-2.25-1.54A8.61,8.61,0,0,0,241.6,32.26ZM243.69,34a4.89,4.89,0,0,1,.94.49,3.73,3.73,0,0,1,1.56,3.07,4.36,4.36,0,0,1-1.76,4.1,3.25,3.25,0,0,1-2.12.65,2.57,2.57,0,0,1-1.27-.21,3.88,3.88,0,0,1-2.29-2.35,4.08,4.08,0,0,1-.19-1.62,3.77,3.77,0,0,1,.19-1.63,3.92,3.92,0,0,1,3.05-2.66,5,5,0,0,1,1.89.16Z" fill="#ec2226" fill-rule="evenodd"/>
    <path d="M253.89,32.45l-1.26.2c-.2,0-.2.05,0,.59a25.44,25.44,0,0,1,.42,6.63v4h2.29V42.5a14,14,0,0,1,.57-3.61,7.28,7.28,0,0,1,2.58-3.83c.94-.59,2-.57,2.29,0s.29.95.29,4.5v3.61h2.15v-.71c0-.37.1-1.39.14-2.23a8,8,0,0,1,.56-3.07,5.37,5.37,0,0,1,2.77-2.63,3,3,0,0,1,1-.15c.62,0,.68,0,.88.18.41.33.43.47.37,4.4,0,2-.09,3.9-.12,4.16v.49h1.22c.91,0,1.22,0,1.22-.08s.1-2.05.23-4.4c.28-4.83.28-4.91-.25-5.61a3.43,3.43,0,0,0-2.81-1,6.52,6.52,0,0,0-4.7,1.86l-.26.28-.09-.31a2.39,2.39,0,0,0-1.55-1.45,5.19,5.19,0,0,0-4.3.82A6.55,6.55,0,0,0,256,35.18c-.22.29-.41.44-.43.39a4.45,4.45,0,0,1-.1-.72,13.33,13.33,0,0,0-.38-2.38l-.07-.2Z" fill="#ec2226" fill-rule="evenodd"/>
    <path d="M215.63,41.34a2.82,2.82,0,0,0-.67.42,1.21,1.21,0,0,0,0,1.5,2.45,2.45,0,0,0,2.65.35c.87-.41,1.1-1.24.51-1.85a2.07,2.07,0,0,0-.47-.33,1.88,1.88,0,0,0-1-.21A2.18,2.18,0,0,0,215.63,41.34Z" fill="#ec2226" fill-rule="evenodd"/>
  </g>
</svg>
