<svg id="search-image" xmlns="http://www.w3.org/2000/svg" xmlns:xlink="http://www.w3.org/1999/xlink" viewBox="0 0 426.83 413.45"><defs><style>.cls-1{fill:none;}.cls-2{clip-path:url(#clip-path);}.cls-3{fill:#f5f5f5;}.cls-4{fill:#fff;}.cls-5{fill:#e0e0e0;}.cls-6{fill:#263238;}.cls-7{fill:#fff9f9;}.cls-8{fill:#ebebeb;}.cls-9{fill:#fafafa;}.cls-10{fill:#ed1c24;}.cls-11{fill:#455a64;}.cls-12{opacity:0.3;}.cls-13{clip-path:url(#clip-path-3);}.cls-14{opacity:0.6;}.cls-15{clip-path:url(#clip-path-4);}.cls-16{fill:#b78876;}.cls-17{fill:#aa6550;}.cls-18{clip-path:url(#clip-path-5);}</style><clipPath id="clip-path"><rect class="cls-1" width="426.83" height="413.45"/></clipPath><clipPath id="clip-path-3"><rect class="cls-1" x="48.98" y="271.21" width="28.79" height="81.8"/></clipPath><clipPath id="clip-path-4"><rect class="cls-1" x="235.23" y="399.93" width="2.96" height="3.13"/></clipPath><clipPath id="clip-path-5"><rect class="cls-1" x="190.92" y="240.2" width="67.63" height="10.17"/></clipPath></defs><rect class="cls-1" width="426.83" height="413.45"/><g id="Group_2" data-name="Group 2"><g class="cls-2"><g id="Group_1" data-name="Group 1"><path id="Path_1" data-name="Path 1" class="cls-3" d="M66.76,47.7A33.38,33.38,0,1,0,4.61,64.57h0l.09.12c1.29,2.16,2.89,3.7,4.5,6L28.57,96.33A6,6,0,0,0,37,97.51a5.5,5.5,0,0,0,1.18-1.18L57.25,71.08a70.13,70.13,0,0,0,4.85-6.42l.07-.09h0a33.23,33.23,0,0,0,4.6-16.87M33.38,62.24a14.69,14.69,0,1,1,14.69-14.7,14.69,14.69,0,0,1-14.69,14.7h0"/><path id="Path_2" data-name="Path 2" class="cls-3" d="M426.83,250.17a14.72,14.72,0,1,0-27.4,7.44h0l0,.05c.56.95,1.27,1.63,2,2.63L410,271.61a2.66,2.66,0,0,0,3.72.52,2.56,2.56,0,0,0,.52-.52l8.4-11.13a32.2,32.2,0,0,0,2.13-2.83l0,0h0a14.65,14.65,0,0,0,2-7.44m-14.72,6.41a6.48,6.48,0,1,1,6.48-6.48h0a6.48,6.48,0,0,1-6.48,6.47h0"/><path id="Path_3" data-name="Path 3" class="cls-3" d="M386.88,340.19A36.85,36.85,0,1,1,350,303.35h0a36.85,36.85,0,0,1,36.85,36.85"/><path id="Path_4" data-name="Path 4" class="cls-4" d="M350,370.86a30.67,30.67,0,1,1,30.67-30.67h0A30.71,30.71,0,0,1,350,370.86m0-56.09a25.42,25.42,0,1,0,25.42,25.42A25.42,25.42,0,0,0,350,314.77"/><path id="Path_5" data-name="Path 5" class="cls-4" d="M349.83,350.68a11.3,11.3,0,1,1,11.3-11.3,11.3,11.3,0,0,1-11.3,11.3m0-17.35a6.05,6.05,0,1,0,6,6.05,6.05,6.05,0,0,0-6-6.05"/><path id="Path_6" data-name="Path 6" class="cls-5" d="M349.83,339.38H335.55l2.49,4.4-33.6,15.4,1.13,1.89,33.72-15.22,2.31,4.37Z"/><path id="Path_7" data-name="Path 7" class="cls-5" d="M304.44,359.19l-.36-.35a6.81,6.81,0,0,0-6.67-1.67l-13.4,3.9,7.46,3.28-3,8,12.58-4.48a6.83,6.83,0,0,0,4.52-6.77Z"/><path id="Path_8" data-name="Path 8" class="cls-5" d="M141.83,366.92l.27-.09.8-.24,3-.87,11.42-3.2-.1.18c-.58-2-1.24-4.15-1.94-6.51l0-.1.09-.08a36.53,36.53,0,0,0,8-9.37,26,26,0,0,0,2.67-6.39,18.76,18.76,0,0,0,.43-7.31,23.13,23.13,0,0,0-7.51-13.7,27.63,27.63,0,0,0-15.55-6.69,22.84,22.84,0,0,0-12.49,2.5,25,25,0,0,0-9.3,7.83,22.56,22.56,0,0,0-4,10.63c0,.92-.2,1.83-.17,2.73s0,1.79.07,2.67a28.07,28.07,0,0,0,.91,5.07,24.43,24.43,0,0,0,1.86,4.49,22.56,22.56,0,0,0,2.64,3.74,24.82,24.82,0,0,0,6.36,5.13,32.79,32.79,0,0,0,11.33,3.92h.06l0,.05.87,4.15.21,1.07c0,.13.05.25.07.38a1.89,1.89,0,0,1-.09-.34l-.26-1-1-4.17.08.06a32.26,32.26,0,0,1-11.46-3.82,25,25,0,0,1-6.49-5.16,23.49,23.49,0,0,1-2.7-3.79,24.11,24.11,0,0,1-1.91-4.57,28.9,28.9,0,0,1-1-5.14c0-.89-.06-1.8-.09-2.71s.12-1.84.18-2.78a23,23,0,0,1,4-10.86,25.45,25.45,0,0,1,9.47-8,23.22,23.22,0,0,1,12.75-2.55,28,28,0,0,1,15.83,6.82,22.77,22.77,0,0,1,5.13,6.5,12.75,12.75,0,0,1,.87,1.83,12.33,12.33,0,0,1,.72,1.86c.19.64.4,1.26.58,1.89s.23,1.29.34,1.93a19.25,19.25,0,0,1-.46,7.48,26.4,26.4,0,0,1-2.74,6.48,36.81,36.81,0,0,1-8.1,9.44l.06-.18,1.9,6.51,0,.15-.14,0-11.56,3.07-3,.79-.77.2a1.22,1.22,0,0,1-.26.06"/><path id="Path_9" data-name="Path 9" class="cls-5" d="M158.82,366.92a69.22,69.22,0,0,1-7.94,2.43,65.85,65.85,0,0,1-8.07,1.95,70.63,70.63,0,0,1,7.94-2.43,69.72,69.72,0,0,1,8.07-1.95"/><path id="Path_10" data-name="Path 10" class="cls-5" d="M155.29,374.4a10,10,0,0,1-5.69,1.36,14.37,14.37,0,0,1,2.83-.74,13.4,13.4,0,0,1,2.86-.62"/><path id="Path_11" data-name="Path 11" class="cls-5" d="M145.09,366a1.14,1.14,0,0,1-.09-.26c-.05-.2-.12-.45-.21-.77-.19-.72-.44-1.72-.77-3-.65-2.64-1.59-6.4-2.73-11l-1.87-7.62a5.22,5.22,0,0,0-.8-1.88,1.32,1.32,0,0,0-1.66-.55,1.91,1.91,0,0,0-.86,1.74,3,3,0,0,0,.81,2,4.8,4.8,0,0,0,4.23,1.4,4.92,4.92,0,0,0,3.7-2.8,7.38,7.38,0,0,0,.53-5,4.42,4.42,0,0,0-1.14-2.23,1.8,1.8,0,0,0-2.19-.3,1.83,1.83,0,0,0-.41,2.18,5,5,0,0,0,1.71,1.87,9.27,9.27,0,0,0,4.67,1.93,5.31,5.31,0,0,0,2.4-.36,5,5,0,0,0,1.87-1.46,3.81,3.81,0,0,0,.84-2.12,2.75,2.75,0,0,0-.69-2,1.88,1.88,0,0,0-1.87-.64,2.26,2.26,0,0,0-1.39,1.44c-.45,1.35,0,2.85.11,4.22.44,2.78.94,5.35,1.39,7.71.94,4.67,1.71,8.46,2.25,11.12l.61,3,.15.79a1.18,1.18,0,0,1,0,.27,1.29,1.29,0,0,1-.08-.26l-.2-.78-.7-3c-.59-2.61-1.44-6.4-2.4-11.1-.48-2.35-1-4.92-1.46-7.71-.1-.7-.22-1.4-.3-2.14a5.22,5.22,0,0,1,.19-2.29,2.67,2.67,0,0,1,1.67-1.72,2.31,2.31,0,0,1,2.34.76,3.21,3.21,0,0,1,.82,2.38,4.25,4.25,0,0,1-.94,2.39,5.3,5.3,0,0,1-2.05,1.61,5.6,5.6,0,0,1-2.62.4,9.75,9.75,0,0,1-4.94-2,5.45,5.45,0,0,1-1.86-2.07,2.33,2.33,0,0,1,.57-2.79,2.29,2.29,0,0,1,2.82.35,4.84,4.84,0,0,1,1.29,2.48,7.86,7.86,0,0,1-.58,5.29,5.38,5.38,0,0,1-4.08,3.06,5.26,5.26,0,0,1-4.63-1.57,3.39,3.39,0,0,1-.92-2.28,2.36,2.36,0,0,1,1.11-2.13,1.62,1.62,0,0,1,1.26-.06,2.1,2.1,0,0,1,.94.75,5.73,5.73,0,0,1,.87,2l1.8,7.63c1.08,4.64,2,8.41,2.58,11.05l.68,3c.07.32.12.58.16.78a.84.84,0,0,1,0,.27"/><path id="Path_12" data-name="Path 12" class="cls-5" d="M158.23,370.34a46.55,46.55,0,0,1-6.43,2,45.92,45.92,0,0,1-6.56,1.53,46.55,46.55,0,0,1,6.43-2,46.24,46.24,0,0,1,6.56-1.53"/></g></g></g><g id="Group_4" data-name="Group 4"><g class="cls-2"><g id="Group_3" data-name="Group 3"><path id="Path_13" data-name="Path 13" class="cls-6" d="M406.53,412.52c0,.13-87.17.24-194.68.24s-194.7-.11-194.7-.24,87.16-.23,194.7-.23,194.68.1,194.68.23"/></g></g></g><rect id="Rectangle_3" data-name="Rectangle 3" class="cls-5" x="33.44" y="45.09" width="357.01" height="22.87"/><rect id="Rectangle_4" data-name="Rectangle 4" class="cls-7" x="33.38" y="88.97" width="357.01" height="200.22"/><path id="Path_14" data-name="Path 14" class="cls-8" d="M33.43,67.79h49l4.86-14.15h79.46l4.86,14.15H390.45V89.45h-357Z"/><rect class="cls-1" width="426.83" height="413.45"/><path id="Path_15" data-name="Path 15" class="cls-6" d="M45.22,54.21a2.69,2.69,0,1,1-2.69-2.68h0a2.68,2.68,0,0,1,2.69,2.68"/><path id="Path_16" data-name="Path 16" class="cls-6" d="M53.52,54.21a2.69,2.69,0,1,1-2.68-2.68,2.68,2.68,0,0,1,2.68,2.68"/><path id="Path_17" data-name="Path 17" class="cls-6" d="M61.82,54.21a2.68,2.68,0,1,1-2.68-2.68h0a2.68,2.68,0,0,1,2.68,2.68"/><path id="Path_18" data-name="Path 18" class="cls-9" d="M351,85.14H106.05a6.8,6.8,0,0,1,0-13.6H351a6.8,6.8,0,0,1,0,13.6"/><path id="Path_19" data-name="Path 19" class="cls-5" d="M111.91,79.25v2.3h-1.16V79.43c0-.65-.3-1-.81-1s-1,.35-1,1.08v2h-1.17V76H109V78a1.76,1.76,0,0,1,1.28-.47,1.57,1.57,0,0,1,1.67,1.46c0,.1,0,.21,0,.31"/><path id="Path_20" data-name="Path 20" class="cls-5" d="M115.56,81.35a1.7,1.7,0,0,1-1,.26,1.34,1.34,0,0,1-1.5-1.13,1.61,1.61,0,0,1,0-.31V78.52h-.62v-.9h.62v-1h1.16v1h1v.9h-1v1.63a.47.47,0,0,0,.4.53h.1a.72.72,0,0,0,.47-.15Z"/><path id="Path_21" data-name="Path 21" class="cls-5" d="M118.71,81.35a1.66,1.66,0,0,1-.95.26,1.33,1.33,0,0,1-1.49-1.13,1.08,1.08,0,0,1,0-.31V78.52h-.61v-.9h.61v-1h1.17v1h1v.9h-1v1.63a.46.46,0,0,0,.4.53h.1a.8.8,0,0,0,.47-.15Z"/><path id="Path_22" data-name="Path 22" class="cls-5" d="M123.74,79.54a2,2,0,0,1-1.83,2.06h-.17a1.56,1.56,0,0,1-1.21-.49V83h-1.16V77.53h1.11V78a1.57,1.57,0,0,1,1.26-.53,2,2,0,0,1,2,1.9v.17m-1.18,0a1,1,0,1,0-1,1.11,1,1,0,0,0,1-1v-.11"/><path id="Path_23" data-name="Path 23" class="cls-5" d="M124.23,78.2a.73.73,0,0,1,.72-.73.73.73,0,0,1,.73.73.73.73,0,0,1-.73.72.72.72,0,0,1-.72-.72m0,2.68a.73.73,0,0,1,.72-.73.73.73,0,0,1,.73.73h0a.73.73,0,0,1-.73.72.72.72,0,0,1-.72-.72"/><path id="Path_24" data-name="Path 24" class="cls-5" d="M128.54,75.27h1l-2.46,7h-1Z"/><path id="Path_25" data-name="Path 25" class="cls-5" d="M130.92,75.27h1l-2.46,7h-1Z"/><path id="Path_26" data-name="Path 26" class="cls-9" d="M350.77,125H137.37a12,12,0,0,1,0-24.1h213.4a12.05,12.05,0,0,1,0,24.1"/><path id="Path_27" data-name="Path 27" class="cls-6" d="M350.77,125a12.76,12.76,0,0,0,4.93-1.12,12.11,12.11,0,0,0,6.48-7.34,12,12,0,0,0-10-15.42A28.39,28.39,0,0,0,349,101H345.7l-30.68,0-177.64.06a11.82,11.82,0,0,0-5.52,22.26,12.16,12.16,0,0,0,5.92,1.37h59.54l79.86,0,53.84.08,14.64.05,3.81,0,1.3,0-1.3,0-3.81,0-14.64,0-53.84.07-79.86,0-47.16,0H137.78a12.69,12.69,0,0,1-6.14-1.42,12.29,12.29,0,0,1,5.74-23.15l177.64.07,30.68,0H349a28.87,28.87,0,0,1,3.22.1,12.15,12.15,0,0,1,8.42,19l-.14.19a12,12,0,0,1-4.79,3.85,12.41,12.41,0,0,1-3.67,1c-.86,0-1.3,0-1.3,0"/><path id="Path_28" data-name="Path 28" class="cls-5" d="M142.25,115.49l.46-1a3.35,3.35,0,0,0,1.91.6c.8,0,1.12-.26,1.12-.62,0-1.08-3.37-.34-3.37-2.49,0-1,.8-1.8,2.44-1.8a3.91,3.91,0,0,1,2,.51l-.41,1a3.36,3.36,0,0,0-1.61-.45c-.8,0-1.1.3-1.1.66,0,1.07,3.37.33,3.37,2.46,0,1-.8,1.8-2.46,1.8a4.1,4.1,0,0,1-2.35-.67"/><path id="Path_29" data-name="Path 29" class="cls-5" d="M152.24,114.2h-3.37a1.19,1.19,0,0,0,1.28.9,1.52,1.52,0,0,0,1.11-.43l.69.74a2.6,2.6,0,0,1-4.38-1.57,2.28,2.28,0,0,1,2.24-2.3H150a2.2,2.2,0,0,1,2.31,2.09.81.81,0,0,1,0,.22c0,.1,0,.24,0,.35m-3.39-.75h2.2a1.12,1.12,0,0,0-2.2,0"/><path id="Path_30" data-name="Path 30" class="cls-5" d="M157,113.53v2.54h-1.21v-.56a1.49,1.49,0,0,1-1.36.63c-1,0-1.66-.58-1.66-1.35s.55-1.34,1.91-1.34h1c0-.55-.33-.87-1-.87a2.1,2.1,0,0,0-1.28.41l-.46-.9a3.43,3.43,0,0,1,1.92-.54c1.35,0,2.14.63,2.14,2m-1.29,1.13v-.45h-.89c-.6,0-.79.22-.79.52s.27.54.73.54a1,1,0,0,0,.95-.6"/><path id="Path_31" data-name="Path 31" class="cls-5" d="M160.88,111.55v1.19l-.29,0a1.1,1.1,0,0,0-1.19,1,2,2,0,0,0,0,.25v2.1h-1.3v-4.45h1.24v.59a1.8,1.8,0,0,1,1.53-.66"/><path id="Path_32" data-name="Path 32" class="cls-5" d="M161.28,113.84a2.3,2.3,0,0,1,2.3-2.3h.19a2,2,0,0,1,2,1.13l-1,.54a1.1,1.1,0,0,0-1-.61,1.23,1.23,0,0,0,0,2.46,1.1,1.1,0,0,0,1-.61l1,.55a2.07,2.07,0,0,1-2,1.12,2.3,2.3,0,0,1-2.48-2.11,1.09,1.09,0,0,1,0-.18"/><path id="Path_33" data-name="Path 33" class="cls-5" d="M171,113.52v2.55h-1.29v-2.36c0-.72-.33-1-.9-1s-1.07.38-1.07,1.2v2.2h-1.29v-6.14h1.29v2.15a2,2,0,0,1,1.42-.53,1.74,1.74,0,0,1,1.85,1.63,1.29,1.29,0,0,1,0,.34"/><path id="Path_34" data-name="Path 34" class="cls-5" d="M174.23,115.32a.8.8,0,0,1,1.6,0h0a.8.8,0,1,1-1.6,0"/><path id="Path_35" data-name="Path 35" class="cls-5" d="M176.4,115.32a.81.81,0,0,1,1.61,0h0a.81.81,0,1,1-1.61,0"/><path id="Path_36" data-name="Path 36" class="cls-5" d="M178.57,115.32a.81.81,0,0,1,1.61,0h0a.81.81,0,1,1-1.61,0"/><path id="Path_37" data-name="Path 37" d="M100.47,146c0,.13-8.57.24-19.13.24s-19.13-.11-19.13-.24,8.56-.24,19.13-.24,19.13.11,19.13.24"/><rect id="Rectangle_5" data-name="Rectangle 5" class="cls-10" x="62.21" y="156.88" width="39.75" height="39.75"/><path id="Path_38" data-name="Path 38" d="M343.52,166.25c0,.13-49.35.24-110.2.24s-110.21-.11-110.21-.24,49.33-.24,110.21-.24,110.2.11,110.2.24"/><path id="Path_39" data-name="Path 39" d="M183.39,181.22c0,.13-13,.24-29,.24s-29-.11-29-.24,13-.24,29-.24,29,.11,29,.24"/><path id="Path_40" data-name="Path 40" class="cls-5" d="M308.29,195.09c0,.14-41,.24-91.48.24s-91.49-.1-91.49-.24,41-.23,91.49-.23,91.48.1,91.48.23"/><path id="Path_41" data-name="Path 41" d="M100.47,217.15c0,.13-8.57.24-19.13.24s-19.13-.11-19.13-.24,8.56-.24,19.13-.24,19.13.11,19.13.24"/><rect id="Rectangle_6" data-name="Rectangle 6" class="cls-10" x="62.21" y="228.08" width="39.75" height="39.75"/><path id="Path_42" data-name="Path 42" d="M356.61,237.45c0,.13-52.27.24-116.74.24s-116.76-.11-116.76-.24,52.27-.24,116.76-.24,116.74.11,116.74.24"/><path id="Path_43" data-name="Path 43" d="M183.39,252.41c0,.14-13,.24-29,.24s-29-.1-29-.24,13-.23,29-.23,29,.1,29,.23"/><path id="Path_44" data-name="Path 44" class="cls-5" d="M340.15,266.29c0,.13-48.1.24-107.41.24s-107.42-.11-107.42-.24,48.08-.23,107.42-.23,107.41.1,107.41.23"/><path id="Path_45" data-name="Path 45" class="cls-6" d="M390.45,289.67c0-1.57-.08-95.72-.19-244.58l.19.19-357,0h0l.23-.24c0,87.3,0,170.25,0,244.58l-.21-.22,357,.22-357,.22h-.22v-.22c0-74.33,0-157.28,0-244.58v-.23h.26l357,0h.19v.19c-.12,148.86-.19,243-.19,244.58"/><path id="Path_46" data-name="Path 46" d="M157.13,62.81c0,.13-12.6.24-28.15.24s-28.15-.11-28.15-.24,12.6-.24,28.15-.24,28.15.11,28.15.24"/><rect id="Rectangle_7" data-name="Rectangle 7" class="cls-11" x="56.34" y="107.77" width="50" height="15.06"/><path id="Path_47" data-name="Path 47" class="cls-10" d="M194.88,147.22c0,.13-15.55.24-34.72.24s-34.73-.11-34.73-.24S141,147,160.16,147s34.72.11,34.72.24"/><path id="Path_48" data-name="Path 48" class="cls-10" d="M194.88,217.15c0,.13-15.55.24-34.72.24s-34.73-.11-34.73-.24,15.55-.24,34.73-.24,34.72.11,34.72.24"/><path id="Path_49" data-name="Path 49" class="cls-10" d="M346.17,116.94a5.8,5.8,0,1,1,5.8-5.8h0a5.81,5.81,0,0,1-5.8,5.8m0-10.7a4.89,4.89,0,1,0,4.89,4.89,4.89,4.89,0,0,0-4.89-4.89"/><path id="Path_50" data-name="Path 50" class="cls-10" d="M353.3,119.51a.39.39,0,0,1-.32-.13l-3.78-3.75a.46.46,0,0,1,0-.65.47.47,0,0,1,.65,0l0,0,3.78,3.75a.46.46,0,0,1,0,.65h0a.39.39,0,0,1-.32.13"/><path id="Path_51" data-name="Path 51" d="M257.41,180.19c0,.13-15,.24-33.41.24s-33.41-.11-33.41-.24,15-.24,33.41-.24,33.41.11,33.41.24"/><path id="Path_52" data-name="Path 52" d="M300.58,179.16c0,.13-7.83.24-17.48.24s-17.47-.11-17.47-.24,7.82-.24,17.47-.24,17.48.11,17.48.24"/><path id="Path_53" data-name="Path 53" d="M257.09,252.41c0,.14-15,.24-33.41.24s-33.41-.1-33.41-.24,15-.23,33.41-.23,33.41.1,33.41.23"/><rect class="cls-1" width="426.83" height="413.45"/><path id="Path_54" data-name="Path 54" class="cls-11" d="M77.77,271.21c-7.41,3.84-13.09,10.45-17.18,17.73s-6.72,15.26-9.33,23.19L49,353c8.62-14.67,15.54-31.92,17.41-48.83l-5.74-.51c3.85-.59,7.08-3.38,9.13-6.68s3.12-7.12,4.15-10.87l-7,1a26,26,0,0,0,10.84-16"/><g id="Group_9" data-name="Group 9" class="cls-12"><g id="Group_8" data-name="Group 8"><g class="cls-13"><g id="Group_7" data-name="Group 7"><path id="Path_55" data-name="Path 55" d="M77.77,271.21c-7.41,3.84-13.1,10.45-17.18,17.73s-6.72,15.26-9.33,23.19L49,353c8.62-14.67,15.54-31.92,17.41-48.83l-5.74-.51c3.85-.59,7.08-3.38,9.13-6.68s3.12-7.12,4.15-10.87l-7,1a26,26,0,0,0,10.84-16"/></g></g></g></g><path id="Path_56" data-name="Path 56" class="cls-11" d="M47.7,362.6S29,340.2,29.2,318.81h7.56s-8.21-5.4-7.56-8.43.87-14.47.87-14.47L37,297.64s-5.19-2.59-5.83-6.7,1.51-23.11,1.51-23.11,8.42,8.85,11,17.93,9.4,19.65,7.4,47.3-3.38,29.53-3.38,29.53"/><path id="Path_57" data-name="Path 57" class="cls-11" d="M57.19,364.71S77.47,351.2,82,334l-6.08-1.65s7.79-2.55,7.93-5.12,2.47-11.83,2.47-11.83l-5.94-.12s4.74-.95,6.16-4.11,3.84-18.91,3.84-18.91-8.71,5.28-12.78,12S65.71,318,61.27,340.64s-4.08,24.07-4.08,24.07"/><path id="Path_58" data-name="Path 58" class="cls-6" d="M37.77,287.36a1,1,0,0,1,.07.23c0,.18.1.41.17.69.15.64.35,1.53.6,2.66.53,2.3,1.22,5.66,2,9.81,1.6,8.31,3.49,19.85,5,32.68s2.28,24.5,2.62,32.95c.17,4.23.27,7.65.28,10,0,1.15,0,2.06,0,2.72,0,.29,0,.52,0,.71a.65.65,0,0,1,0,.24,1,1,0,0,1,0-.24c0-.19,0-.42,0-.71,0-.66-.06-1.56-.1-2.72-.08-2.36-.22-5.78-.44-10-.42-8.44-1.27-20.1-2.75-32.91s-3.32-24.35-4.83-32.67c-.75-4.16-1.39-7.52-1.86-9.84-.22-1.13-.39-2-.52-2.67l-.12-.7a.69.69,0,0,1,0-.25"/><path id="Path_59" data-name="Path 59" class="cls-11" d="M45.11,376.31S28,356.88,22.66,345.13l4-1.71a10.4,10.4,0,0,1-8.15-2.67A30.78,30.78,0,0,1,13,333.89l5.29-.89a19.69,19.69,0,0,1-11.56-9c6.24,1,11.89,4.46,16.54,8.74a81.56,81.56,0,0,1,10,11.62,38.61,38.61,0,0,1,3.89,6.4c2.88,5.95,7.94,18.38,7.93,25.51"/><path id="Path_60" data-name="Path 60" class="cls-6" d="M82.24,303.53a.68.68,0,0,1-.07.2c-.07.15-.16.34-.26.57l-1,2.16c-.91,1.87-2.21,4.58-3.78,8-3.14,6.74-7.28,16.14-11.38,26.72s-7.34,20.33-9.55,27.43c-1.11,3.55-2,6.43-2.56,8.42l-.69,2.3c-.08.23-.14.43-.19.59a1.19,1.19,0,0,1-.08.2.76.76,0,0,1,0-.21l.15-.61.6-2.31c.52-2,1.35-4.91,2.41-8.48,2.13-7.13,5.34-16.9,9.44-27.5s8.3-20,11.51-26.69c1.61-3.35,2.95-6,3.92-7.89l1.11-2.12.3-.55a.94.94,0,0,1,.12-.18"/><path id="Path_61" data-name="Path 61" class="cls-6" d="M46.56,384.64a8,8,0,0,1-.28-1.38c-.13-.9-.36-2.19-.68-3.78a80.09,80.09,0,0,0-3.48-12.14,79.89,79.89,0,0,0-5.41-11.41c-.81-1.4-1.5-2.52-2-3.29a7.06,7.06,0,0,1-.71-1.22,8.53,8.53,0,0,1,.86,1.12c.54.73,1.26,1.83,2.11,3.22a68,68,0,0,1,5.57,11.41,68.39,68.39,0,0,1,3.37,12.25c.28,1.6.46,2.91.54,3.81a8.35,8.35,0,0,1,.09,1.41"/><rect id="Rectangle_10" data-name="Rectangle 10" class="cls-10" x="31.67" y="380.07" width="37.49" height="7.65"/><path id="Path_62" data-name="Path 62" class="cls-10" d="M35.24,387.72l4.06,25.72H62l3.78-25.72Z"/><path id="Path_63" data-name="Path 63" class="cls-6" d="M66.86,387.72c0,.13-7.09.24-15.84.24s-15.84-.11-15.84-.24,7.09-.24,15.84-.24,15.84.11,15.84.24"/><rect class="cls-1" width="426.83" height="413.45"/><path id="Path_64" data-name="Path 64" class="cls-11" d="M230.13,394.46v19l38.25-.19c-.27-3.84-21.27-11.52-21.27-11.52l.42-7.26Z"/><g id="Group_14" data-name="Group 14" class="cls-14"><g id="Group_13" data-name="Group 13"><g class="cls-15"><g id="Group_12" data-name="Group 12"><path id="Path_65" data-name="Path 65" class="cls-4" d="M236.32,400a1.64,1.64,0,0,0-1,1.89A1.48,1.48,0,0,0,237,403a1.74,1.74,0,0,0,1.1-2,1.51,1.51,0,0,0-1.93-.95h0"/></g></g></g></g><path id="Path_66" data-name="Path 66" class="cls-6" d="M230.13,413.43v-3l36.52.43s1.9,1.15,1.73,2.41Z"/><path id="Path_67" data-name="Path 67" class="cls-6" d="M247.11,402.09c0,.2-.93.3-1.84,1s-1.38,1.48-1.55,1.4.09-1.22,1.2-2,2.23-.55,2.19-.37"/><path id="Path_68" data-name="Path 68" class="cls-6" d="M252.12,403.84c0,.19-.75.54-1.37,1.38s-.79,1.73-1,1.72-.32-1.12.47-2.15,1.87-1.13,1.88-1"/><path id="Path_69" data-name="Path 69" class="cls-6" d="M254.38,408.68c-.17,0-.44-.94,0-2s1.32-1.53,1.4-1.37-.45.75-.81,1.65-.43,1.72-.61,1.74"/><path id="Path_70" data-name="Path 70" class="cls-6" d="M246.74,396.69c-.08.19-.93-.07-2,0s-1.86.45-2,.29.67-.89,1.91-1,2.12.52,2,.67"/><path id="Path_71" data-name="Path 71" class="cls-6" d="M247,402.94a2.68,2.68,0,0,0,.08-1.16,6.35,6.35,0,0,0-1-3,5.94,5.94,0,0,0-1.5-1.58,1.29,1.29,0,0,0-1.29-.22,1.45,1.45,0,0,0-.76,1.25,5,5,0,0,0,3.36,4.43,4.8,4.8,0,0,0,5.17-1.53,3.52,3.52,0,0,0,.68-1.17,1.23,1.23,0,0,0,0-.76.91.91,0,0,0-.52-.55,1.63,1.63,0,0,0-1.19.12,7.08,7.08,0,0,0-.89.51,7.77,7.77,0,0,0-2.19,2.16,3,3,0,0,0-.53,1,11,11,0,0,1,2.91-2.83c.52-.3,1.19-.72,1.73-.53.23.1.33.37.22.71a3.3,3.3,0,0,1-.6,1,4.37,4.37,0,0,1-4.63,1.35,4.58,4.58,0,0,1-3-3.86,1,1,0,0,1,.45-.82.85.85,0,0,1,.85.17A5.48,5.48,0,0,1,245.7,399a6.68,6.68,0,0,1,1.11,2.78c.11.71.08,1.13.13,1.13"/><path id="Path_72" data-name="Path 72" class="cls-11" d="M216.15,397.21l.65,4.88-.44,11-14.34.35-.51-11.36,1.63-6.75Z"/><path id="Path_73" data-name="Path 73" class="cls-6" d="M209.27,412.27c-.09,0,.12-3.37.46-7.52s.69-7.54.78-7.54-.12,3.36-.46,7.52-.69,7.53-.78,7.54"/><path id="Path_74" data-name="Path 74" class="cls-6" d="M216.42,411.26l-14.49.17v2l14.5,0Z"/><path id="Path_75" data-name="Path 75" class="cls-6" d="M202,404.93a1.94,1.94,0,0,1,.36-.58,11,11,0,0,1,1.28-1.37,10,10,0,0,1,2.32-1.55,7.64,7.64,0,0,1,8.94,1.65,6.89,6.89,0,0,1,1,1.56,1.85,1.85,0,0,1,.22.65,13.92,13.92,0,0,0-1.5-2,7.61,7.61,0,0,0-5.37-2.2,8.72,8.72,0,0,0-5.46,2.13c-1.2,1-1.78,1.76-1.84,1.71"/><path id="Path_76" data-name="Path 76" class="cls-16" d="M209.21,90l-.15,49.59,21.27,1,.62-12.06s7.56,1.5,9.5-5.52c1.25-4.48.94-39.12.94-39.12Z"/><path id="Path_77" data-name="Path 77" class="cls-6" d="M244.19,87.36c-3.35,1-4.08,6.43-4.08,6.43l-5.25,11.61c-2.68-2.1-6.28-2-7,2.73-.49,3.4,3.74,4.09,3.74,4.09-2.46,4.19-4.13,7.57-7.71,11.56-3.88,4.31-6.05,4.74-10.26,4.81H209s-2.27-7.37-6.47-25.8c-4.66-20.44,19.51-17.81,24-23,7.3-8.5,28.2,4.57,17.64,7.59"/><path id="Path_78" data-name="Path 78" class="cls-6" d="M250.09,82.92a4.64,4.64,0,0,0-4.63-3.86,2.88,2.88,0,0,0-.6-3.67,4.67,4.67,0,0,0-3.83-.93,14.07,14.07,0,0,0-3.82,1.37,6.4,6.4,0,0,0-2.46-3.26,7.39,7.39,0,0,0-4.1-1c-6.53,0-10,4.47-13.47,9a5.68,5.68,0,0,1-2.12,2,6,6,0,0,1-2,.22A14.18,14.18,0,0,0,201,90.31c-2.29,4.42-4,14.64,1.92,21l3.57,8,34.1-27c.24.12,2.37,1.17,4,.3,4.08-2.15,2.37-5.74,2.37-5.74.33-.17,3.44-1.7,3.1-3.87"/><path id="Path_79" data-name="Path 79" class="cls-11" d="M218.53,109.49a10,10,0,0,1-1.63,7.22c-.14-.07.54-1.59,1-3.57s.49-3.64.65-3.65"/><path id="Path_80" data-name="Path 80" class="cls-11" d="M221.1,107.06a9,9,0,0,1-.2,3.62,9,9,0,0,1-1.12,3.46,20.51,20.51,0,0,1,.59-3.56,20.19,20.19,0,0,1,.73-3.52"/><path id="Path_81" data-name="Path 81" class="cls-11" d="M228.47,98.88c.05.07-.55.51-1.32,1.4a13.74,13.74,0,0,0-2.29,4,32.46,32.46,0,0,0-1.27,4.46,7.25,7.25,0,0,1-.53,1.87,7,7,0,0,1,.15-1.94,21.89,21.89,0,0,1,1.15-4.59,11.61,11.61,0,0,1,2.51-4,4.08,4.08,0,0,1,1.6-1.15"/><path id="Path_82" data-name="Path 82" class="cls-11" d="M231.45,93.3a2.8,2.8,0,0,1,.41,1.34,8.85,8.85,0,0,1-1.62,6.46c-.52.7-1,1-1,1a18.44,18.44,0,0,0,1.91-4.19,18.69,18.69,0,0,0,.3-4.6"/><path id="Path_83" data-name="Path 83" class="cls-11" d="M206.06,105.69c-.07.13-.72-.1-1.46-.5s-1.26-.85-1.19-1,.73.1,1.46.5,1.26.85,1.19,1"/><path id="Path_84" data-name="Path 84" class="cls-11" d="M216.34,100.39c.14,0,0,1.07-.61,2.16s-1.54,1.66-1.63,1.54.57-.82,1.17-1.82.92-1.91,1.07-1.88"/><path id="Path_85" data-name="Path 85" class="cls-11" d="M219.5,98.7a4.23,4.23,0,0,1-.95,2.57c-.85,1.3-1.92,2-2,1.88s.76-1,1.56-2.17a22.1,22.1,0,0,1,1.4-2.28"/><path id="Path_86" data-name="Path 86" class="cls-11" d="M235.21,77.93s-.4-.3-1.17-.74a7.79,7.79,0,0,0-3.56-.92,9.52,9.52,0,0,0-5.23,1.4,13,13,0,0,0-4.46,5A22.87,22.87,0,0,0,219,87.28l-.08.32-.29-.15a10.47,10.47,0,0,0-4.74-1.22,11.54,11.54,0,0,0-3.87.58,16.88,16.88,0,0,0-3.15,1.58,3.3,3.3,0,0,1,.71-.63,9.88,9.88,0,0,1,2.33-1.25,11,11,0,0,1,4-.72,10.8,10.8,0,0,1,5,1.2l-.37.16a21.37,21.37,0,0,1,1.83-4.77A13.11,13.11,0,0,1,225,77.25a9.75,9.75,0,0,1,5.5-1.37A7.63,7.63,0,0,1,234.14,77a5.21,5.21,0,0,1,.82.65c.17.16.26.26.24.27"/><path id="Path_87" data-name="Path 87" class="cls-11" d="M246.39,80.62a1.29,1.29,0,0,1,1.22.56,2.09,2.09,0,0,1,.49,1.55,2.42,2.42,0,0,1-1.23,1.77,3.54,3.54,0,0,1-2.59.35,7.56,7.56,0,0,1-2.66-1.29A28.7,28.7,0,0,0,239,81.77a11.39,11.39,0,0,0-3.14-1.1,13.31,13.31,0,0,0-6.42.44,17.66,17.66,0,0,0-4.74,2.41,48,48,0,0,0-3.78,3.2,5.61,5.61,0,0,1,.84-1,20.49,20.49,0,0,1,2.72-2.46,16.9,16.9,0,0,1,4.81-2.57,13.37,13.37,0,0,1,6.67-.5,11.21,11.21,0,0,1,3.3,1.17,25.41,25.41,0,0,1,2.64,1.84,7,7,0,0,0,2.47,1.27,3.07,3.07,0,0,0,2.3-.25,2.09,2.09,0,0,0,1.13-1.47,1.92,1.92,0,0,0-.36-1.39,1.86,1.86,0,0,0-1-.68"/><path id="Path_88" data-name="Path 88" class="cls-16" d="M345.51,118.67c-.8-.71-11.64,3.83-11.64,3.83s-8.08,6.34-11.41,10.09l-2,1.71-30.75,23.91-37.81-15.73-8.21,21.1s42.46,16.9,48.93,14c7-3.14,33.2-30.53,33.26-30.62h0l3.77-3.65s2,0,3.52-.12,5.95-3,5.95-3a8.23,8.23,0,0,0,.86-2.59,1.64,1.64,0,0,0-.82-1.88,4.23,4.23,0,0,0-1.71-4.74,3.7,3.7,0,0,0,1-1.91c.38-1.39-1.42-2.7-1.42-2.7s6.28-4.27,7.81-5,1.51-1.92.71-2.63"/><path id="Path_89" data-name="Path 89" class="cls-6" d="M257.41,334.73c.12-1.39.2-2.46.2-3.13l4.27-68.17s-3.59-19.91-5.29-25.19l-15.27-5.91L221,240.25c-.14-1.64-.22-2.65-.22-2.65l-30,10.36s-.77,20.43,0,26.65c.25,2,1,7.16,2,13.25,0,0,1,13.22,1.16,13.95.72,2.7.89,9.3.89,15.91,0,8.41.46,18.41,1,23.16s.78,57,.78,57h22.1l2.84-83.28c.48-8.92,1.19-22.57,1.65-32.44L228.39,313c0,1.12,3.16,18.7,3.16,18.7a163.48,163.48,0,0,0-1.35,16.68c-.37,15.5-2.19,49.59-2.19,49.59h21.64s6.5-49.22,7.76-63.19Z"/><path id="Path_90" data-name="Path 90" class="cls-11" d="M261.13,259.34a8.17,8.17,0,0,1-2-1.06,27.76,27.76,0,0,1-7.8-7.55,8.23,8.23,0,0,1-1.12-1.95,15.81,15.81,0,0,1,1.39,1.76,36.7,36.7,0,0,0,7.72,7.47,14.85,14.85,0,0,1,1.81,1.34"/><path id="Path_91" data-name="Path 91" class="cls-11" d="M222.55,271.73a2.53,2.53,0,0,1-.43-.68c-.34-.64-.65-1.29-.93-2A32.46,32.46,0,0,1,218.74,255c0-.73.11-1.45.21-2.17a2.94,2.94,0,0,1,.17-.78c.08,0,0,1.14-.05,3A38.5,38.5,0,0,0,221.5,269c.64,1.71,1.12,2.74,1.05,2.77"/><path id="Path_92" data-name="Path 92" class="cls-11" d="M225.77,297.4a5.36,5.36,0,0,1-.29-1.18l-.6-3.27-1.81-10.78c-1.22-7.65-2.06-12.86-2.44-15.28a22.92,22.92,0,0,1,1,4.42c.53,2.75,1.19,6.56,1.88,10.78s1.27,8,1.67,10.81l.45,3.29a6.12,6.12,0,0,1,.1,1.21"/><path id="Path_93" data-name="Path 93" class="cls-16" d="M173.6,183.7s-2.92,20.54-3.46,27.74c-.33,4.34,4.07,10.09,7.43,10.51s14.69,1.1,14.69,1.1l.94-12.89-.29-2.56-3.52-.67,1.06-20.43Z"/><path id="Path_94" data-name="Path 94" class="cls-17" d="M190,187.19a5.2,5.2,0,0,1,.13,1.12c0,.72.1,1.76.12,3.05.06,2.58,0,6.15-.22,10.08s-.53,7.48-.79,10.05c-.13,1.28-.24,2.32-.33,3a5.16,5.16,0,0,1-.19,1.11,4.2,4.2,0,0,1,0-1.12c0-.82.11-1.84.18-3,.17-2.68.4-6.18.64-10.05s.34-7.48.37-10c0-1.21,0-2.23,0-3.05a4.2,4.2,0,0,1,.06-1.12"/><g id="Group_17" data-name="Group 17" class="cls-12"><g id="Group_16" data-name="Group 16"><g class="cls-18"><g id="Group_15" data-name="Group 15"><path id="Path_95" data-name="Path 95" d="M191.1,248.33c5.75,2.14,12.06,2.32,18.17,1.79s12.15-1.76,18.26-2.34a87.54,87.54,0,0,1,27.67,1.79,5,5,0,0,0,1.95.18,1.65,1.65,0,0,0,1.39-1.22c.16-1-1-1.73-1.91-2.13a81.59,81.59,0,0,0-65.7,1.46"/></g></g></g></g><path id="Path_96" data-name="Path 96" class="cls-10" d="M279.2,151.81l-32.44-16.15a105.88,105.88,0,0,0-15.42-.68H209.87s-26,7.68-30.31,14.75L168.4,183.17l22,3.32,2.75,24s-2.74,27.82-2.74,31.86a29.74,29.74,0,0,0,.35,5.58s44.11-6.7,55-3.17,13.8,3.17,13.8,3.17-.91-11.54-1.71-18.24l-2.52-33.51-1.86-25.59,20.41,6.24Z"/><path id="Path_97" data-name="Path 97" class="cls-6" d="M190.25,186.76c-.08,0-.3-1.38-.79-3.6a59.79,59.79,0,0,0-2.55-8.53,69.23,69.23,0,0,0-3.78-8.15l-1.34-2.4a4.21,4.21,0,0,1-.45-.9,4.11,4.11,0,0,1,.62.82c.38.53.89,1.33,1.48,2.33a53.67,53.67,0,0,1,3.94,8.15,48.41,48.41,0,0,1,2.43,8.62c.2,1.12.33,2,.39,2.67a3.66,3.66,0,0,1,.05,1"/><path id="Path_98" data-name="Path 98" class="cls-6" d="M231.85,196.25a1.36,1.36,0,0,1-.11.44l-.41,1.24c-.18.54-.41,1.19-.72,1.93s-.62,1.61-1,2.53c-.79,1.86-1.85,4-3.12,6.39a80.07,80.07,0,0,1-10,14.26c-1.78,2-3.45,3.74-4.93,5.12-.72.71-1.42,1.31-2,1.84s-1.13,1-1.57,1.34l-1,.81a1.9,1.9,0,0,1-.37.26s.1-.13.31-.33l1-.88c.42-.37.94-.83,1.52-1.39s1.26-1.16,2-1.88c1.44-1.41,3.09-3.16,4.84-5.18s3.55-4.32,5.32-6.84,3.29-5,4.6-7.34,2.37-4.48,3.2-6.31c.44-.91.78-1.76,1.1-2.49s.58-1.38.79-1.9l.49-1.2a1.42,1.42,0,0,1,.2-.41"/><path id="Path_99" data-name="Path 99" class="cls-6" d="M246.84,137.88a10.56,10.56,0,0,0-1.71,4.07,14.27,14.27,0,0,0,0,4.79c.36,1.95.82,3.89,1.37,5.79,1.12,4.09,2.31,7.74,3.2,10.37l1.08,3.11a6.17,6.17,0,0,1,.35,1.16,6.1,6.1,0,0,1-.53-1.09c-.3-.71-.73-1.76-1.22-3.06-1-2.61-2.23-6.25-3.35-10.36a51.1,51.1,0,0,1-1.35-5.85,14.07,14.07,0,0,1,.08-4.93A9,9,0,0,1,246,138.8a3.36,3.36,0,0,1,.8-.92"/><path id="Path_100" data-name="Path 100" class="cls-4" d="M185.63,173.07a4.54,4.54,0,0,1-1.73,1.17,8.73,8.73,0,0,1-9.55-1.45,4.67,4.67,0,0,1-1.3-1.63c.07,0,.54.59,1.52,1.38a9.2,9.2,0,0,0,9.2,1.4c1.17-.46,1.82-.94,1.86-.87"/><path id="Path_101" data-name="Path 101" class="cls-4" d="M247.81,158a3.79,3.79,0,0,1-.28.7c-.2.45-.51,1.11-.95,1.93a26.26,26.26,0,0,1-4.83,6.31,21.69,21.69,0,0,1-10.3,5.6,19.06,19.06,0,0,1-7,.3,20.44,20.44,0,0,1-7.06-2.51c-4.49-2.5-8.28-5.67-12.42-7.19a19.46,19.46,0,0,0-11.45-.62,20.1,20.1,0,0,0-7.11,3.26c-1.5,1.11-2.2,1.88-2.25,1.84a14.32,14.32,0,0,1,2.13-2,20,20,0,0,1,18.84-2.89c4.24,1.53,8.07,4.71,12.5,7.18a20.24,20.24,0,0,0,6.9,2.47,19.08,19.08,0,0,0,6.82-.27,21.73,21.73,0,0,0,10.16-5.42,27.76,27.76,0,0,0,4.89-6.16c.47-.8.81-1.45,1-1.88a4.22,4.22,0,0,1,.36-.66"/><path id="Path_102" data-name="Path 102" class="cls-4" d="M268.12,146.27a5,5,0,0,1,.42,1,12.65,12.65,0,0,1,.52,3.05,14.4,14.4,0,0,1-.5,4.57,13.92,13.92,0,0,1-2.57,5,36.08,36.08,0,0,1-4.07,3.85,11.06,11.06,0,0,0-2.77,3.49,5.94,5.94,0,0,0-.6,2.9c.05.71.2,1.09.16,1.1s-.06-.08-.14-.26a3.8,3.8,0,0,1-.21-.82,5.73,5.73,0,0,1,.49-3.06,10.74,10.74,0,0,1,2.77-3.67,39.11,39.11,0,0,0,4-3.83,14.43,14.43,0,0,0,3.11-9.26,21.93,21.93,0,0,0-.61-4.11"/><path id="Path_103" data-name="Path 103" class="cls-4" d="M215.35,223.28a4,4,0,0,1-.95.33,20.44,20.44,0,0,1-2.69.58,9.48,9.48,0,0,1-4.1-.24,6.35,6.35,0,0,1-2.15-1.21,18.71,18.71,0,0,1-1.75-1.92,8.08,8.08,0,0,0-3.93-2.7,9.28,9.28,0,0,0-3.92-.37,8.49,8.49,0,0,0-2.57.72,5.72,5.72,0,0,1-.91.42,3.13,3.13,0,0,1,.82-.58,7.62,7.62,0,0,1,2.62-.9,9.27,9.27,0,0,1,4.09.29,9,9,0,0,1,2.22,1,9.33,9.33,0,0,1,1.94,1.77,20.17,20.17,0,0,0,1.7,1.88,5.69,5.69,0,0,0,2,1.14,9.63,9.63,0,0,0,3.92.33c2.28-.27,3.66-.66,3.68-.57"/><path id="Path_104" data-name="Path 104" class="cls-4" d="M257.36,221.33s-.09.1-.29.24a7.5,7.5,0,0,1-.9.61,13.45,13.45,0,0,1-3.69,1.55,15.6,15.6,0,0,1-5.93.34,14.68,14.68,0,0,1-6.74-2.7,66.77,66.77,0,0,1-5.38-4.84,17.14,17.14,0,0,0-4.79-3.3,9,9,0,0,0-3.8-.84c-.92,0-1.43.15-1.44.1a1.09,1.09,0,0,1,.36-.12,5.53,5.53,0,0,1,1.08-.17,8.7,8.7,0,0,1,3.93.72,16.88,16.88,0,0,1,4.95,3.28c1.67,1.48,3.33,3.28,5.37,4.78a14.38,14.38,0,0,0,6.52,2.65,15.88,15.88,0,0,0,5.79-.23,15.13,15.13,0,0,0,3.68-1.38,11.45,11.45,0,0,1,1.28-.69"/><g id="Group_21" data-name="Group 21"><g class="cls-2"><g id="Group_20" data-name="Group 20"><path id="Path_105" data-name="Path 105" class="cls-6" d="M335,91.18A46.69,46.69,0,1,1,377.68,90,46.69,46.69,0,0,1,335,91.18M373.93,9.75A43.55,43.55,0,1,0,393.3,28,43.55,43.55,0,0,0,373.93,9.75"/><path id="Path_106" data-name="Path 106" class="cls-6" d="M413.81,142.23h0a5.81,5.81,0,0,1-8-1.9L375.28,90.84a1,1,0,0,1,.32-1.37l6.52-4a1,1,0,0,1,1.35.3l32.12,48.33a5.79,5.79,0,0,1-1.61,8l-.17.11"/><path id="Path_107" data-name="Path 107" class="cls-11" d="M336.13,88.82A46.69,46.69,0,1,1,378.8,87.6a46.68,46.68,0,0,1-42.67,1.22M375.05,7.4a43.54,43.54,0,1,0,19.38,18.27A43.54,43.54,0,0,0,375.05,7.4"/><path id="Path_108" data-name="Path 108" class="cls-11" d="M415.06,141.46l-.47.29a4.53,4.53,0,0,1-6.23-1.48L375.87,87.64l8.19-5,32.48,52.63a4.54,4.54,0,0,1-1.48,6.24"/><path id="Path_109" data-name="Path 109" class="cls-5" d="M321.4,35.61a8,8,0,0,1,.26-1.45,11.9,11.9,0,0,1,.43-1.66,18.28,18.28,0,0,1,.73-2.16c.15-.4.32-.81.49-1.24s.4-.85.61-1.3A31.28,31.28,0,0,1,325.45,25a36,36,0,0,1,4.47-5.74,36.06,36.06,0,0,1,5.61-4.63,31.27,31.27,0,0,1,2.75-1.6c.44-.22.86-.46,1.28-.65l1.22-.52c.7-.3,1.41-.56,2.14-.79a13.49,13.49,0,0,1,1.65-.47,8.77,8.77,0,0,1,1.44-.3,8.7,8.7,0,0,1-1.39.46c-.55.16-1.09.34-1.62.55s-1.34.47-2.1.84l-1.2.54c-.41.2-.82.44-1.26.67-.88.44-1.75,1-2.69,1.62a34.13,34.13,0,0,0-10,10.24A29.8,29.8,0,0,0,324.25,28c-.22.44-.46.86-.64,1.28s-.34.82-.51,1.21a22,22,0,0,0-.78,2.12,13.33,13.33,0,0,0-.5,1.63,9.46,9.46,0,0,1-.43,1.4"/></g></g></g></svg>