<svg xmlns="http://www.w3.org/2000/svg" width="38.601" height="36.517" viewBox="0 0 38.601 36.517">
  <path id="communication" d="M43.325,51.531a3.978,3.978,0,0,0,1.563-1.847c.842-1.887.629-4.423-.475-5.654a4.09,4.09,0,0,0-5.915,0c-1.1,1.231-1.317,3.767-.475,5.653a3.977,3.977,0,0,0,1.564,1.848,5.773,5.773,0,0,0-5.276,5.963v.662a1.584,1.584,0,0,0,1.529,1.63H47.072a1.584,1.584,0,0,0,1.529-1.63v-.662a5.773,5.773,0,0,0-5.276-5.963ZM38.881,49.3c-.681-1.525-.533-3.694.317-4.641a3.15,3.15,0,0,1,4.514,0c.85.947,1,3.116.316,4.642a2.747,2.747,0,0,1-5.147,0Zm8.778,8.856a.645.645,0,0,1-.588.689H35.838a.645.645,0,0,1-.588-.689v-.662A4.811,4.811,0,0,1,39.8,52.466h3.317a4.811,4.811,0,0,1,4.546,5.028ZM19.016,51.531a3.982,3.982,0,0,0,1.563-1.847c.842-1.887.629-4.423-.475-5.654a3.706,3.706,0,0,0-2.955-1.265,3.712,3.712,0,0,0-2.96,1.265c-1.1,1.231-1.317,3.767-.475,5.653a3.977,3.977,0,0,0,1.564,1.848A5.773,5.773,0,0,0,10,57.495v.662a1.584,1.584,0,0,0,1.529,1.63H22.762a1.584,1.584,0,0,0,1.529-1.63v-.662a5.772,5.772,0,0,0-5.275-5.963ZM14.572,49.3c-.681-1.525-.533-3.694.317-4.641a2.761,2.761,0,0,1,2.26-.952,2.754,2.754,0,0,1,2.254.952c.85.947,1,3.116.316,4.641a2.747,2.747,0,0,1-5.147,0Zm8.778,8.856a.645.645,0,0,1-.588.689H11.529a.645.645,0,0,1-.588-.689v-.662a4.811,4.811,0,0,1,4.546-5.028H18.8a4.811,4.811,0,0,1,4.546,5.028Zm.333-17.864H34.917a1.584,1.584,0,0,0,1.529-1.631V38a5.772,5.772,0,0,0-5.275-5.963,3.982,3.982,0,0,0,1.563-1.847c.842-1.887.629-4.423-.475-5.654A3.706,3.706,0,0,0,29.3,23.27a3.712,3.712,0,0,0-2.96,1.265c-1.1,1.231-1.317,3.767-.475,5.653a3.977,3.977,0,0,0,1.564,1.848A5.772,5.772,0,0,0,22.155,38v.662a1.583,1.583,0,0,0,1.528,1.631Zm3.043-10.487c-.681-1.525-.533-3.694.317-4.641a2.761,2.761,0,0,1,2.26-.952,2.754,2.754,0,0,1,2.254.952c.85.947,1,3.116.316,4.641a2.747,2.747,0,0,1-5.147,0ZM23.1,38a4.81,4.81,0,0,1,4.546-5.027h3.317A4.81,4.81,0,0,1,35.5,38v.662a.646.646,0,0,1-.588.69H23.683a.645.645,0,0,1-.588-.69Zm9.91,11.271-2.142-1.236a2.1,2.1,0,0,0-1.539-2.664V42.9a.471.471,0,0,0-.941,0V45.37a2.1,2.1,0,0,0-1.539,2.664L24.7,49.271a.471.471,0,0,0,.47.816l2.143-1.237a2.1,2.1,0,0,0,3.074,0l2.143,1.237a.471.471,0,0,0,.472-.816Zm-4.151-.693a1.16,1.16,0,1,1,1.16-1.16,1.162,1.162,0,0,1-1.16,1.16Z" transform="translate(-10 -23.27)"/>
</svg>
