<svg xmlns="http://www.w3.org/2000/svg" xmlns:xlink="http://www.w3.org/1999/xlink" width="17" height="17" viewBox="0 0 17 17">
  <defs>
    <clipPath id="clip-path">
      <path id="Path_28" data-name="Path 28" d="M0,0H17V17H0Z" fill="none"/>
    </clipPath>
  </defs>
  <g id="apps" clip-path="url(#clip-path)">
    <path id="Path_27" data-name="Path 27" d="M13.21,7.25H12.083V3.708A.71.71,0,0,0,11.375,3H8.542a.71.71,0,0,0-.708.708V7.25H6.707a.71.71,0,0,0-.5,1.211l3.251,3.251a.705.705,0,0,0,1,0l3.251-3.251A.708.708,0,0,0,13.21,7.25ZM5,14.333a.71.71,0,0,0,.708.708h8.5a.708.708,0,1,0,0-1.417h-8.5A.71.71,0,0,0,5,14.333Z" transform="translate(-1.458 -0.875)" fill="#2b6554"/>
  </g>
</svg>
