<?xml version="1.0" encoding="utf-8"?>
<!-- Generator: Adobe Illustrator 25.4.1, SVG Export Plug-In . SVG Version: 6.00 Build 0)  -->
<svg version="1.1" id="Layer_1" xmlns="http://www.w3.org/2000/svg" xmlns:xlink="http://www.w3.org/1999/xlink" x="0px" y="0px"
	 width="74px" height="66px" viewBox="0 0 74 66" style="enable-background:new 0 0 74 66;" xml:space="preserve">
<style type="text/css">
	.st0{fill:#F37131;}
</style>
<path id="email_1_" class="st0" d="M67.4,11.6h-51c-3.6,0-6.6,3-6.6,6.6v2.5c0,0.9,0.7,1.6,1.6,1.6c0.9,0,1.6-0.7,1.6-1.6v-2.5
	c0-0.3,0.1-0.7,0.2-1L31.7,33L13.3,48.8c-0.1-0.3-0.1-0.7-0.2-1v-2.5c0-0.9-0.7-1.6-1.6-1.6s-1.6,0.7-1.6,1.6v2.5
	c0,3.6,3,6.6,6.6,6.6h51c3.6,0,6.6-3,6.6-6.6V18.2C74,14.6,71.1,11.6,67.4,11.6z M15.8,15c0.2-0.1,0.4-0.1,0.7-0.1h51
	c0.2,0,0.4,0,0.7,0.1L43,36.5c-0.6,0.5-1.5,0.5-2.1,0L15.8,15z M67.4,51.1h-51c-0.2,0-0.4,0-0.7-0.1l18.5-15.9l4.4,3.9
	c1.8,1.6,4.6,1.6,6.4,0l4.4-3.9L68.1,51C67.9,51.1,67.6,51.1,67.4,51.1L67.4,51.1z M70.7,47.8c0,0.3-0.1,0.7-0.2,1L52.1,33
	l18.4-15.8c0.1,0.3,0.1,0.7,0.2,1L70.7,47.8z M4.9,28.9c0-0.9,0.7-1.6,1.6-1.6h9.9c0.9,0,1.6,0.7,1.6,1.6s-0.7,1.6-1.6,1.6H6.6
	C5.7,30.5,4.9,29.8,4.9,28.9z M16.4,38.8H1.6C0.7,38.8,0,38,0,37.1s0.7-1.6,1.6-1.6h14.8c0.9,0,1.6,0.7,1.6,1.6S17.4,38.8,16.4,38.8
	z"/>
</svg>
