<?xml version="1.0" encoding="utf-8"?>
<!-- Generator: Adobe Illustrator 24.3.0, SVG Export Plug-In . SVG Version: 6.00 Build 0)  -->
<svg version="1.1" id="Layer_1" xmlns="http://www.w3.org/2000/svg" xmlns:xlink="http://www.w3.org/1999/xlink" x="0px" y="0px"
	 viewBox="0 0 100 98" style="enable-background:new 0 0 100 98;" xml:space="preserve">
<style type="text/css">
	.st0{fill:#ED2024;}
	.st1{fill:#707070;}
	.st2{fill:none;stroke:#FFFFFF;stroke-width:1.2121;stroke-miterlimit:10;}
	.st3{fill:#FFFFFF;}
	.st4{fill:#EE3234;}
	.st5{fill:none;stroke:#FFFFFF;stroke-width:0.5;stroke-miterlimit:10;}
	.st6{fill:none;stroke:#707071;stroke-miterlimit:10;}
	.st7{fill:#707071;}
	.st8{fill:none;stroke:#000000;stroke-width:0.5;stroke-linecap:round;stroke-miterlimit:10;}
	.st9{fill:none;stroke:#707071;stroke-width:0.25;stroke-miterlimit:10;}
	.st10{fill:none;stroke:#707071;stroke-width:0.5;stroke-miterlimit:10;}
	.st11{fill:none;stroke:#FFFFFF;stroke-width:0.25;stroke-miterlimit:10;}
	.st12{fill:#F3F3EE;}
	.st13{fill:#717171;}
	.st14{fill:#EC2527;}
</style>
<path class="st0" d="M24.9,27.3h-0.5c-2.3,0-4.2,2-4.2,4.6v2.4c0,2.5,1.9,4.6,4.2,4.6h0.5c2.3,0,4.2-2,4.2-4.6v-2.4
	C29.1,29.3,27.2,27.3,24.9,27.3L24.9,27.3z M27.3,34.3c0,1.5-1.1,2.8-2.4,2.8h-0.5c-1.3,0-2.4-1.2-2.4-2.8v-2.4
	c0-1.5,1.1-2.8,2.4-2.8h0.5c1.3,0,2.4,1.2,2.4,2.8V34.3z"/>
<path class="st1" d="M74.7,77.7H30.2c0.4-0.7,0.7-1.4,0.7-2.2V63.1c0-0.1,0-0.2,0-0.3c0.7-0.5,1.2-1.3,1.2-2.2V45.9l7.7-7.3
	c1.3-1.2,1.3-3.2,0.1-4.5l0,0L39.8,34c-1.3-1.2-3.4-1.2-4.7,0L26,42.6l-2.3-2.1c-0.5-0.5-1.2-0.8-1.9-0.7h-2.4
	c-1.5,0-2.7,1.1-2.7,2.6v18.3c0,0.7,0.3,1.4,0.8,1.9c0.2,0.2,0.4,0.3,0.6,0.4v0.1v12.4c0,0.8,0.2,1.6,0.7,2.2h-3.2
	c-0.5-0.1-1,0.3-1,0.7c-0.1,0.5,0.3,1,0.7,1c0,0,0,0,0.1,0s0.2,0,0.2,0h59.3c0.5,0.1,1-0.3,1-0.7c0.1-0.5-0.3-1-0.7-1c0,0,0,0-0.1,0
	C74.9,77.7,74.8,77.7,74.7,77.7z M25.6,77.3c0.3-0.6,0.4-1.2,0.4-1.8V63.3h3.1v12.2c0,1.2-1,2.2-2.2,2.2
	C26.4,77.7,26,77.6,25.6,77.3L25.6,77.3z M18.5,42.3c0-0.5,0.4-0.9,0.9-0.8h2.4c0.2,0,0.5,0.1,0.7,0.3l2.9,2.7
	c0.3,0.3,0.9,0.3,1.2,0l9.7-9.2c0.6-0.6,1.6-0.6,2.3,0c0.6,0.5,0.6,1.4,0.1,2l0,0c0,0,0,0.1-0.1,0.1l-8,7.6
	c-0.2,0.2-0.3,0.4-0.3,0.6v15.1c0,0.5-0.4,0.9-0.9,0.9H23V51.3c0-0.5-0.4-0.9-0.9-0.9s-0.9,0.4-0.9,0.9l0,0v10.2h-1.8
	c-0.5,0-0.9-0.4-0.9-0.9l0,0L18.5,42.3z M19.8,75.5V63.3h4.5v12.2c0,1.2-0.9,2.3-2.2,2.3c-1.2,0-2.3-0.9-2.3-2.2
	C19.8,75.6,19.8,75.5,19.8,75.5z"/>
<ellipse class="st2" cx="50" cy="44.8" rx="34.1" ry="33.4"/>
<path class="st3" d="M25.3,13.1c-0.1-0.4-0.4-0.6-0.8-0.6c-0.4,0.1-0.6,0.4-0.6,0.8c0.1,0.4,0.4,0.6,0.8,0.6
	C25.1,13.8,25.3,13.5,25.3,13.1z"/>
<path class="st4" d="M95.6,56.5c-0.1-0.4-0.4-0.6-0.8-0.6c-0.4,0.1-0.6,0.4-0.6,0.8c0.1,0.4,0.4,0.6,0.8,0.6
	C95.4,57.2,95.6,56.9,95.6,56.5z"/>
<path class="st4" d="M5.1,36.4C5,36,4.7,35.8,4.3,35.8c-0.4,0.1-0.6,0.4-0.6,0.8c0.1,0.4,0.4,0.6,0.8,0.6
	C4.9,37.1,5.1,36.7,5.1,36.4z"/>
<path class="st2" d="M12.1,63.8c-0.8-0.3-1.7,0-2.1,0.8c-0.4,0.8,0,1.7,0.8,2s1.7,0,2.1-0.8C13.2,65.1,12.9,64.2,12.1,63.8z"/>
<ellipse class="st2" cx="90.1" cy="24.5" rx="1.6" ry="1.5"/>
<g>
	<g>
		<line class="st5" x1="8.4" y1="23.5" x2="13" y2="23.5"/>
		<line class="st5" x1="13.9" y1="23.5" x2="14.9" y2="23.5"/>
	</g>
	<g>
		<line class="st5" x1="8.4" y1="24.4" x2="9.8" y2="24.4"/>
		<line class="st5" x1="10.5" y1="24.4" x2="12.3" y2="24.4"/>
		<line class="st5" x1="13.1" y1="24.4" x2="14.8" y2="24.4"/>
	</g>
</g>
<path class="st6" d="M36.8,77.8h27.5c0.8,0,1.5-0.7,1.5-1.5V25.7c0-0.8-0.7-1.5-1.5-1.5H36.8c-0.8,0-1.5,0.7-1.5,1.5v50.5
	C35.3,77.1,36,77.8,36.8,77.8z"/>
<path class="st6" d="M37.3,77.4h27.1c0.9,0,1.7-0.8,1.7-1.7V25.5c0-0.9-0.8-1.7-1.7-1.7H37.3c-0.9,0-1.7,0.8-1.7,1.7v50.1
	C35.6,76.6,36.3,77.4,37.3,77.4z"/>
<path class="st3" d="M37.8,77.1h25.5c0.7,0,1.3-0.6,1.3-1.3V28.1c0-0.7-0.6-1.3-1.3-1.3H37.8c-0.7,0-1.3,0.6-1.3,1.3v47.6
	C36.5,76.5,37.1,77.1,37.8,77.1z"/>
<path class="st7" d="M46.6,27.2H54c1.3,0,2.3-1,2.3-2.3l0,0h-12l0,0C44.3,26.2,45.4,27.2,46.6,27.2z"/>
<line class="st8" x1="48.4" y1="25.7" x2="52.3" y2="25.7"/>
<rect x="38.7" y="51" class="st7" width="22.8" height="3"/>
<g>
	<polygon class="st3" points="46,51.6 46.2,52.2 46.9,52.2 46.4,52.6 46.6,53.3 46,52.9 45.5,53.3 45.6,52.6 45.1,52.2 45.8,52.2 	
		"/>
	<polygon class="st3" points="48.7,51.6 48.9,52.2 49.6,52.2 49,52.6 49.2,53.3 48.7,52.9 48.1,53.3 48.3,52.6 47.8,52.2 48.4,52.2 
			"/>
	<polygon class="st3" points="51.3,51.6 51.6,52.2 52.2,52.2 51.7,52.6 51.9,53.3 51.3,52.9 50.8,53.3 51,52.6 50.4,52.2 51.1,52.2 
			"/>
	<polygon class="st3" points="54,51.6 54.2,52.2 54.9,52.2 54.4,52.6 54.5,53.3 54,52.9 53.4,53.3 53.6,52.6 53.1,52.2 53.8,52.2 	
		"/>
</g>
<rect x="38.9" y="32.5" class="st7" width="22.7" height="14.3"/>
<rect x="39.4" y="59" class="st9" width="11.1" height="11.6"/>
<path class="st9" d="M47.6,63.8h-5.8c-0.6,0-1-0.5-1-1l0,0c0-0.6,0.5-1,1-1h5.8c0.6,0,1,0.5,1,1l0,0C48.7,63.3,48.2,63.8,47.6,63.8z
	"/>
<line class="st9" x1="40.8" y1="65.8" x2="48.7" y2="65.8"/>
<line class="st9" x1="40.8" y1="67.2" x2="43.7" y2="67.2"/>
<line class="st9" x1="40.8" y1="68.4" x2="46.6" y2="68.4"/>
<path class="st10" d="M85.4,77.7H55.9c-0.8,0-1.5-0.7-1.5-1.5V59.7c0-0.8,0.7-1.5,1.5-1.5h29.5c0.8,0,1.5,0.7,1.5,1.5v16.4
	C86.3,76.8,86,77.1,85.4,77.7z"/>
<g>
	<ellipse class="st7" cx="80.9" cy="62.4" rx="1.7" ry="1.6"/>
	<ellipse class="st7" cx="82.6" cy="62.4" rx="1.7" ry="1.6"/>
</g>
<rect x="57.2" y="61.9" class="st7" width="18.1" height="0.6"/>
<rect x="57.2" y="71.7" class="st7" width="6" height="0.7"/>
<rect x="64.2" y="71" class="st7" width="6" height="0.7"/>
<rect x="71.2" y="71" class="st7" width="13" height="0.7"/>
<rect x="57.2" y="73.6" class="st7" width="10.7" height="0.6"/>
<rect x="68.8" y="73.6" class="st7" width="3.3" height="0.6"/>
<path class="st7" d="M62.3,68.7h-4.7c-0.2,0-0.4-0.2-0.4-0.4v-2.7c0-0.2,0.2-0.4,0.4-0.4h4.7c0.2,0,0.4,0.2,0.4,0.4v2.7
	C62.7,68.5,62.6,68.7,62.3,68.7z"/>
<path class="st11" d="M60,67.7h-3.3V66H60c0.5,0,0.8,0.4,0.8,0.8l0,0C60.8,67.4,60.4,67.7,60,67.7z"/>
<line class="st11" x1="60.8" y1="66.9" x2="63.2" y2="66.9"/>
<path class="st1" d="M74.7,77.7H30.2c0.4-0.7,0.7-1.4,0.7-2.2V63.1c0-0.1,0-0.2,0-0.3c0.7-0.5,1.2-1.3,1.2-2.2V45.9l7.7-7.3
	c1.3-1.2,1.3-3.2,0.1-4.5l0,0L39.8,34c-1.3-1.2-3.4-1.2-4.7,0L26,42.6l-2.3-2.1c-0.5-0.5-1.2-0.8-1.9-0.7h-2.4
	c-1.5,0-2.7,1.1-2.7,2.6v18.3c0,0.7,0.3,1.4,0.8,1.9c0.2,0.2,0.4,0.3,0.6,0.4v0.1v12.4c0,0.8,0.2,1.6,0.7,2.2h-3.2
	c-0.5-0.1-1,0.3-1,0.7c-0.1,0.5,0.3,1,0.7,1c0,0,0,0,0.1,0s0.2,0,0.2,0h59.3c0.5,0.1,1-0.3,1-0.7c0.1-0.5-0.3-1-0.7-1c0,0,0,0-0.1,0
	C74.9,77.7,74.8,77.7,74.7,77.7z M25.6,77.3c0.3-0.6,0.4-1.2,0.4-1.8V63.3h3.1v12.2c0,1.2-1,2.2-2.2,2.2
	C26.4,77.7,26,77.6,25.6,77.3L25.6,77.3z M18.5,42.3c0-0.5,0.4-0.9,0.9-0.8h2.4c0.2,0,0.5,0.1,0.7,0.3l2.9,2.7
	c0.3,0.3,0.9,0.3,1.2,0l9.7-9.2c0.6-0.6,1.6-0.6,2.3,0c0.6,0.5,0.6,1.4,0.1,2l0,0c0,0,0,0.1-0.1,0.1l-8,7.6
	c-0.2,0.2-0.3,0.4-0.3,0.6v15.1c0,0.5-0.4,0.9-0.9,0.9H23V51.3c0-0.5-0.4-0.9-0.9-0.9s-0.9,0.4-0.9,0.9l0,0v10.2h-1.8
	c-0.5,0-0.9-0.4-0.9-0.9l0,0L18.5,42.3z M19.8,75.5V63.3h4.5v12.2c0,1.2-0.9,2.3-2.2,2.3c-1.2,0-2.3-0.9-2.3-2.2
	C19.8,75.6,19.8,75.5,19.8,75.5z"/>
<polygon class="st4" points="38.1,32.5 38.7,32.5 38.7,36.4 36.6,39.5 35.9,39.5 37.1,35.5 "/>
<path class="st4" d="M34.5,37.8l1.8,1.6c0.1,0.3,0.5,0.3,0.6,0l3.8-4.7c0.1-0.1,0.1-0.3,0-0.4l-1.8-1.8c-0.1-0.1-0.4-0.1-0.5,0
	l-3.8,4.7C34.4,37.5,34.4,37.7,34.5,37.8z"/>
<path class="st12" d="M34,37.8l1.8,1.6c0.1,0.3,0.5,0.3,0.6,0l3.8-4.7c0.1-0.1,0.1-0.3,0-0.4l-1.9-1.8c-0.1-0.1-0.4-0.1-0.5,0
	L34,37.3C33.9,37.4,33.9,37.7,34,37.8z"/>
<g>
	<path class="st3" d="M44.3,36.7h2.6v0.9h-1.6v1.6h1.3v0.9h-1.3V42h1.6v0.9h-2.6V36.7z"/>
	<path class="st3" d="M48.5,36.7h1.4l0.6,4.3l0,0l0.6-4.3h1.4v5.9h-0.9v-4.5l0,0l-0.7,4.5h-0.8l-0.7-4.5l0,0v4.5h-0.9
		C48.5,42.6,48.5,36.7,48.5,36.7z"/>
	<path class="st3" d="M54.2,36.7h0.9v5.9h-0.9V36.7z"/>
</g>
<g>
	<path class="st13" d="M24.6,23.6c0.8,0,1.5-0.7,1.5-1.5s-0.7-1.5-1.5-1.5s-1.5,0.7-1.5,1.5C23,22.9,23.7,23.6,24.6,23.6z
		 M24.6,21.3c0.4,0,0.8,0.3,0.8,0.8s-0.3,0.8-0.8,0.8s-0.8-0.3-0.8-0.8C23.8,21.6,24.1,21.3,24.6,21.3z M86.8,31.7c-0.6,0-1,0.5-1,1
		c0,0.6,0.5,1,1,1s1-0.5,1-1C87.9,32.1,87.4,31.7,86.8,31.7z M86.8,33.2c-0.3,0-0.5-0.2-0.5-0.5s0.2-0.5,0.5-0.5s0.5,0.2,0.5,0.5
		C87.4,33,87.1,33.2,86.8,33.2z M9.5,14.7c-0.6,0-1,0.5-1,1c0,0.6,0.5,1,1,1c0.6,0,1-0.5,1-1C10.6,15.1,10.1,14.7,9.5,14.7z
		 M9.5,16.2C9.3,16.2,9,16,9,15.7s0.2-0.5,0.5-0.5s0.5,0.2,0.5,0.5C10.1,16,9.8,16.2,9.5,16.2z M65.1,11.2c-0.6,0-1,0.5-1,1
		c0,0.6,0.5,1,1,1c0.6,0,1-0.5,1-1S65.7,11.2,65.1,11.2z M65.1,12.8c-0.3,0-0.5-0.2-0.5-0.5s0.2-0.5,0.5-0.5s0.5,0.2,0.5,0.5
		S65.4,12.8,65.1,12.8z M49.7,22c0-0.6-0.5-1-1-1s-1,0.5-1,1c0,0.6,0.5,1,1,1C49.2,23.1,49.7,22.6,49.7,22z M48.1,22
		c0-0.3,0.2-0.5,0.5-0.5s0.5,0.2,0.5,0.5s-0.2,0.5-0.5,0.5C48.4,22.6,48.1,22.3,48.1,22z"/>
</g>
<path class="st14" d="M13.4,33.2l0.8-1l-0.5-0.3L13.2,33l0,0l-0.5-1.1l-0.5,0.3l0.8,1l0,0L11.8,33v0.5l1.2-0.2l0,0l-0.8,1l0.5,0.3
	l0.5-1.1l0,0l0.5,1.1l0.5-0.3L13.4,33.2L13.4,33.2l1.2,0.3V33L13.4,33.2L13.4,33.2z M37.3,13.2l-0.4,0.6l0.3,0.2l0.3-0.7l0,0
	l0.3,0.6l0.3-0.2l-0.4-0.6l0,0l0.7,0.1v-0.3L37.5,13l0,0l0.4-0.6l-0.3-0.2l-0.3,0.6l0,0L37,12.2l-0.3,0.2l0.4,0.6l0,0l-0.7-0.1v0.3
	H37.3L37.3,13.2z M70.9,23.9v-0.5l-1.2,0.2l0,0l0.7-1l-0.5-0.3l-0.5,1.1l0,0l-0.5-1.1l-0.5,0.3l0.7,1l0,0L68,23.3v0.5l1.2-0.2l0,0
	l-0.7,1l0.5,0.3l0.5-1.1l0,0l0.5,1.1l0.5-0.3l-0.8-0.9l0,0L70.9,23.9z M82.8,15l0.6-0.8L83,14l-0.4,0.9l0,0L82.2,14l-0.4,0.2
	l0.6,0.8l0,0l-1-0.1v0.5l1-0.1l0,0L81.8,16l0.4,0.3l0.4-1l0,0l0.4,1l0.4-0.3l-0.7-0.8l0,0l1,0.1v-0.5L82.8,15L82.8,15z"/>
<path class="st0" d="M24.9,27.3h-0.5c-2.3,0-4.2,2-4.2,4.6v2.4c0,2.5,1.9,4.6,4.2,4.6h0.5c2.3,0,4.2-2,4.2-4.6v-2.4
	C29.1,29.3,27.2,27.3,24.9,27.3L24.9,27.3z M27.3,34.3c0,1.5-1.1,2.8-2.4,2.8h-0.5c-1.3,0-2.4-1.2-2.4-2.8v-2.4
	c0-1.5,1.1-2.8,2.4-2.8h0.5c1.3,0,2.4,1.2,2.4,2.8V34.3z"/>
<circle class="st1" cx="5.9" cy="78.8" r="1.1"/>
<path class="st1" d="M10.9,77.7H9.2c-0.6,0-1.1,0.5-1.1,1.2c0,0.6,0.5,1,1.1,1.1h1.7c0.6,0,1.1-0.5,1.2-1.1
	C12.1,78.2,11.6,77.7,10.9,77.7C10.9,77.7,10.9,77.7,10.9,77.7z"/>
<path class="st1" d="M82.9,77.7h-1.7c-0.6,0-1.1,0.5-1.2,1.1c0,0.6,0.5,1.1,1.1,1.2c0,0,0.1,0,0.1,0h1.7c0.6,0,1.1-0.5,1.1-1.2
	C83.9,78.2,83.5,77.7,82.9,77.7z"/>
<circle class="st1" cx="86.2" cy="78.8" r="1.1"/>
<path class="st0" d="M68.1,80.5h-4.6c-0.6,0-1.1,0.6-1,1.2c0,0.6,0.5,1,1,1h4.6c0.6,0,1.1-0.6,1-1.2C69.1,81,68.6,80.6,68.1,80.5z
	 M34.7,80.5h-4.6c-0.6,0-1.1,0.6-1,1.2c0,0.6,0.5,1,1,1h4.6c0.6,0,1.1-0.6,1-1.2C35.7,81,35.3,80.6,34.7,80.5L34.7,80.5z M60.2,80.5
	H38c-0.6,0-1.1,0.5-1.2,1.1c0,0.6,0.5,1.1,1.1,1.2c0,0,0.1,0,0.1,0h8.9v1.1h-4.4c-0.6,0-1.1,0.5-1.1,1.1s0.5,1.1,1.1,1.1h13.9
	c0.6,0,1.1-0.5,1.1-1.1s-0.5-1.1-1.1-1.1l0,0h-5v-1.1h8.9c0.6,0,1.1-0.5,1.2-1.1C61.4,81.1,60.9,80.6,60.2,80.5
	C60.3,80.5,60.2,80.5,60.2,80.5L60.2,80.5z"/>
</svg>
