<svg xmlns="http://www.w3.org/2000/svg" version="1.1" xmlns:xlink="http://www.w3.org/1999/xlink" width="512" height="512" x="0" y="0" viewBox="0 0 168 168" style="enable-background:new 0 0 512 512" xml:space="preserve" class=""><g><path fill="#707070" d="M139.979 34.75h-34.091v-4a2.005 2.005 0 0 0-4.01 0v4H67.785a8.02 8.02 0 0 0-8.02 8v1.642a11.599 11.599 0 0 1 4.027-1.81 4.001 4.001 0 0 1 3.993-3.832h72.193a4.01 4.01 0 0 1 4.01 4v46a4.01 4.01 0 0 1-4.01 4H67.786a4.01 4.01 0 0 1-4.01-4V71.955l-4.01 3.808V88.75a8.02 8.02 0 0 0 8.02 8h30.046l-10.186 8h-7.828a2 2 0 1 0 0 4h48.129a2 2 0 1 0 0-4h-7.828l-10.186-8h30.046a8.02 8.02 0 0 0 8.021-8v-46a8.02 8.02 0 0 0-8.021-8zm-26.343 70H94.13l9.754-7.661z" opacity="1" data-original="#2d4356" class=""></path><path fill="#fc6736" d="M38.583 33.258h-1.236c-5.188 0-9.409 4.597-9.409 10.249v5.5c0 5.653 4.221 10.25 9.409 10.25h1.236c5.187 0 9.409-4.597 9.409-10.25v-5.5c0-5.652-4.222-10.25-9.41-10.25zm5.398 15.75c0 3.446-2.422 6.25-5.398 6.25h-1.236c-2.977 0-5.398-2.804-5.398-6.25v-5.501c0-3.445 2.421-6.25 5.398-6.25h1.236c2.976 0 5.398 2.805 5.398 6.25z" opacity="1" data-original="#0bceb2" class=""></path><g fill="#2d4356"><path d="M38.11 27.25a3 3 0 1 0-3-3 3.003 3.003 0 0 0 3 3zm0-4.5a1.5 1.5 0 1 1-1.5 1.5 1.501 1.501 0 0 1 1.5-1.5zM159.11 42.914a2 2 0 1 0 2 2 2.002 2.002 0 0 0-2-2zm0 3a1 1 0 1 1 1-1 1.001 1.001 0 0 1-1 1zM8.89 9.914a2 2 0 1 0 2 2 2.002 2.002 0 0 0-2-2zm0 3a1 1 0 1 1 1-1 1.001 1.001 0 0 1-1 1zM116.89 3.25a2 2 0 1 0 2 2 2.002 2.002 0 0 0-2-2zm0 3a1 1 0 1 1 1-1 1.001 1.001 0 0 1-1 1zM86.89 24.25a2 2 0 1 0-2 2 2.002 2.002 0 0 0 2-2zm-3 0a1 1 0 1 1 1 1 1.001 1.001 0 0 1-1-1z" fill="#707070" opacity="1" data-original="#2d4356" class=""></path></g><path fill="#fc6736" d="m16.303 45.925 1.487-1.956-.939-.531-.954 2.189h-.032l-.97-2.174-.955.548 1.471 1.909v.031l-2.301-.298v1.064l2.316-.297v.032L13.94 48.35l.891.564 1.018-2.207h.031l.939 2.191.986-.563-1.502-1.878v-.031l2.362.281v-1.064l-2.362.313zM62.781 6.98l-.856 1.099.514.325.586-1.271h.018l.54 1.262.568-.325-.865-1.081v-.018l1.36.162v-.612l-1.36.18v-.018l.856-1.126-.54-.307-.55 1.261h-.018l-.558-1.252-.551.316.848 1.099v.018l-1.325-.171v.612l1.333-.171zM128.062 27.771v-1.043l-2.317.307v-.031l1.459-1.918-.921-.522-.936 2.148h-.032l-.951-2.133-.937.538 1.444 1.872v.031l-2.257-.292v1.043l2.272-.291v.031l-1.459 1.872.875.553.998-2.165h.03l.921 2.149.968-.552-1.474-1.842v-.031zM151.333 10.499l1.258-1.654-.795-.45-.807 1.853h-.027l-.82-1.84-.809.463 1.245 1.616v.026l-1.946-.252v.9l1.959-.251v.027l-1.258 1.614.755.477.861-1.867h.026l.794 1.854.835-.477-1.271-1.589v-.026l1.998.238v-.9l-1.998.265z" opacity="1" data-original="#0bceb2" class=""></path><circle cx="2" cy="148.75" r="2" fill="#707070" opacity="1" data-original="#2d4356" class=""></circle><path fill="#707070" d="M11 146.75H8a2 2 0 0 0 0 4h3a2 2 0 0 0 0-4zM160 146.75h-3a2 2 0 0 0 0 4h3a2 2 0 0 0 0-4z" opacity="1" data-original="#2d4356" class=""></path><circle cx="166" cy="148.75" r="2" fill="#707070" opacity="1" data-original="#2d4356" class=""></circle><path fill="#fc6736" d="M118.154 154.75h-8.308a2.006 2.006 0 0 0 0 4h8.308a2.006 2.006 0 0 0 0-4zM58.154 154.75h-8.308a2.006 2.006 0 0 0 0 4h8.308a2.006 2.006 0 0 0 0-4zM104 154.75H64a2 2 0 0 0 0 4h15.94v2H72a2 2 0 0 0 0 4h25a2 2 0 0 0 0-4h-8.94v-2H104a2 2 0 0 0 0-4z" opacity="1" data-original="#0bceb2" class=""></path><path fill="#707070" d="M150.721 146.75H50.518a8.93 8.93 0 0 0 1.525-5v-28a1.975 1.975 0 0 0-.093-.572 5.99 5.99 0 0 0 2.603-4.936V75.19L71.88 58.737a7.124 7.124 0 0 0 0-10.39 7.828 7.828 0 0 0-10.658 0L40.837 67.702l-5.062-4.806a6.16 6.16 0 0 0-4.263-1.684h-5.37a5.988 5.988 0 0 0-6.078 5.855L20 108.23a5.947 5.947 0 0 0 1.757 4.25 6.038 6.038 0 0 0 1.241.948 1.98 1.98 0 0 0-.032.322v28a8.93 8.93 0 0 0 1.526 5h-7.213a2.017 2.017 0 1 0 0 4H150.72a2.017 2.017 0 1 0 0-4zm-110.661-.996a8.912 8.912 0 0 0 .954-4.004v-27.508h7.019v27.508a5.013 5.013 0 0 1-5.014 5 4.918 4.918 0 0 1-2.96-.996zM24.074 67.076a1.98 1.98 0 0 1 2.068-1.864h5.37a2.192 2.192 0 0 1 1.498.581l6.444 6.12a2.007 2.007 0 0 0 2.765 0l21.77-20.67a3.812 3.812 0 0 1 5.125 0 3.133 3.133 0 0 1 0 4.598L51.165 72.884a1.995 1.995 0 0 0-.623 1.448v33.91a2.005 2.005 0 0 1-2.005 2H34.03v-23a2.005 2.005 0 0 0-4.011 0v23h-4.003a2 2 0 0 1-2.005-2.004zm2.903 74.674v-27.508h10.026v27.508a5.013 5.013 0 0 1-10.026 0z" opacity="1" data-original="#2d4356" class=""></path></g></svg>