<svg id="Layer_1" data-name="Layer 1" xmlns="http://www.w3.org/2000/svg" viewBox="0 0 512 492.19"><defs><style>.cls-1{fill:#707070;}.cls-2{fill:#ed2024;}</style></defs><path class="cls-1" d="M426.6,105.9H322.71V93.71a6.11,6.11,0,1,0-12.22,0h0V105.9H206.58a24.45,24.45,0,0,0-24.44,24.39v5a35.43,35.43,0,0,1,12.27-5.52,12.19,12.19,0,0,1,12.17-11.67h220a12.22,12.22,0,0,1,12.22,12.19V270.48a12.23,12.23,0,0,1-12.22,12.19h-220a12.23,12.23,0,0,1-12.23-12.19V219.29L182.14,230.9v39.58a24.45,24.45,0,0,0,24.45,24.38h91.56l-31,24.38H243.25a6.1,6.1,0,0,0,0,12.19H389.93a6.1,6.1,0,1,0,0-12.19H366.08L335,294.86H426.6a24.45,24.45,0,0,0,24.45-24.38V130.29A24.45,24.45,0,0,0,426.6,105.9ZM346.32,319.24H286.87l29.73-23.35Z" transform="translate(0 -9.9)"/><path class="cls-2" d="M117.59,101.36h-3.77c-15.81,0-28.68,14-28.68,31.23v16.76c0,17.23,12.87,31.24,28.68,31.24h3.77c15.8,0,28.67-14,28.67-31.24V132.59c0-17.22-12.87-31.24-28.68-31.24Zm16.45,48c0,10.5-7.38,19-16.45,19h-3.77c-9.07,0-16.45-8.55-16.45-19V132.59c0-10.5,7.38-19,16.45-19h3.77c9.07,0,16.45,8.54,16.45,19Z" transform="translate(0 -9.9)"/><path class="cls-1" d="M116.14,83.05A9.15,9.15,0,1,0,107,73.9,9.15,9.15,0,0,0,116.14,83.05Zm0-13.72a4.58,4.58,0,1,1-4.57,4.57A4.58,4.58,0,0,1,116.14,69.33Zm368.77,61.46a6.1,6.1,0,1,0,6.09,6.09A6.09,6.09,0,0,0,484.91,130.79Zm0,9.14a3.05,3.05,0,1,1,3-3.05A3,3,0,0,1,484.91,139.93ZM27.09,30.21a6.1,6.1,0,1,0,6.1,6.1A6.1,6.1,0,0,0,27.09,30.21Zm0,9.15a3,3,0,1,1,3.05-3A3,3,0,0,1,27.09,39.36ZM356.24,9.9a6.1,6.1,0,1,0,6.09,6.1A6.1,6.1,0,0,0,356.24,9.9Zm0,9.15a3.05,3.05,0,1,1,3-3.05A3,3,0,0,1,356.24,19.05ZM264.81,73.9a6.1,6.1,0,1,0-6.1,6.1A6.1,6.1,0,0,0,264.81,73.9Zm-9.15,0a3,3,0,1,1,3,3A3,3,0,0,1,255.66,73.9Z" transform="translate(0 -9.9)"/><path class="cls-2" d="M49.69,140l4.53-6-2.86-1.62-2.91,6.67h-.1l-3-6.62-2.91,1.67L47,139.92V140l-7-.91v3.25l7.06-.91v.1l-4.53,5.81,2.72,1.72,3.1-6.72h.1L51.26,149l3-1.71-4.57-5.73v-.09l7.19.86V139.1l-7.19,1ZM191.33,21.27l-2.61,3.35,1.57,1,1.79-3.87h0l1.65,3.84,1.73-1-2.64-3.29v-.06l4.15.5V19.87l-4.15.55v-.05l2.61-3.43L193.83,16l-1.67,3.84h-.06L190.4,16l-1.68,1,2.59,3.35v.05l-4-.52v1.87l4.06-.52ZM390.28,84.64V81.46l-7.06.93V82.3l4.45-5.85-2.81-1.59L382,81.41h-.1l-2.9-6.5-2.85,1.64,4.4,5.7v.1l-6.88-.89v3.18l6.93-.89v.09l-4.45,5.71,2.67,1.68,3-6.59H382l2.81,6.54,3-1.68-4.5-5.61v-.1ZM461.21,32,465,27l-2.42-1.38-2.46,5.65h-.09l-2.49-5.61L455.11,27,458.9,32V32L453,31.27V34l6-.76v.08l-3.83,4.92,2.3,1.45L460,34h.08l2.42,5.65,2.55-1.45-3.87-4.84v-.08l6.08.72V31.27l-6.08.81Z" transform="translate(0 -9.9)"/><circle class="cls-1" cx="6.1" cy="443.43" r="6.1"/><path class="cls-1" d="M33.52,447.24H24.38a6.1,6.1,0,0,0,0,12.19h9.14a6.1,6.1,0,1,0,0-12.19Zm454.1,0h-9.14a6.1,6.1,0,1,0,0,12.19h9.14a6.1,6.1,0,0,0,0-12.19Z" transform="translate(0 -9.9)"/><circle class="cls-1" cx="505.9" cy="443.43" r="6.1"/><path class="cls-2" d="M360.09,471.62H334.77a6.11,6.11,0,0,0,0,12.19h25.32a6.11,6.11,0,0,0,0-12.19Zm-182.86,0H151.91a6.11,6.11,0,0,0,0,12.19h25.32a6.11,6.11,0,0,0,0-12.19Zm139.72,0H195.05a6.1,6.1,0,1,0,0,12.19h48.58v6.09h-24.2a6.1,6.1,0,1,0,0,12.2h76.19a6.1,6.1,0,0,0,0-12.2H268.37v-6.09H317a6.1,6.1,0,1,0,0-12.19Z" transform="translate(0 -9.9)"/><path class="cls-1" d="M459.34,447.24H154A27.29,27.29,0,0,0,158.61,432V346.67a6.11,6.11,0,0,0-.29-1.75,18.27,18.27,0,0,0,7.94-15V229.15L219.06,179a21.71,21.71,0,0,0,1-30.69c-.32-.34-.64-.66-1-1a23.85,23.85,0,0,0-32.48,0l-62.12,59L109,191.68a18.78,18.78,0,0,0-13-5.13H79.67a18.25,18.25,0,0,0-18.52,17.84L61,329.84a18.17,18.17,0,0,0,5.36,13,18.66,18.66,0,0,0,3.78,2.89,6.38,6.38,0,0,0-.1,1V432a27.29,27.29,0,0,0,4.65,15.24h-22a6.15,6.15,0,1,0-1.59,12.19,6,6,0,0,0,1.59,0H459.34a6.15,6.15,0,1,0,1.59-12.19,6,6,0,0,0-1.59,0Zm-337.25-3A27.19,27.19,0,0,0,125,432V348.17h21.39V432a15.29,15.29,0,0,1-15.28,15.24,15,15,0,0,1-9-3ZM73.37,204.42a6,6,0,0,1,6.3-5.68H96a6.69,6.69,0,0,1,4.56,1.77l19.64,18.65a6.11,6.11,0,0,0,8.43,0l66.34-63a11.62,11.62,0,0,1,15.62,0,9.54,9.54,0,0,1,.52,13.49,6.38,6.38,0,0,1-.52.52l-54.7,51.94a6.11,6.11,0,0,0-1.9,4.42V329.88a6.11,6.11,0,0,1-6.11,6.1H103.71v-70.1a6.11,6.11,0,0,0-12.22,0h0V336H79.29a6.1,6.1,0,0,1-6.11-6.08v0ZM82.22,432V348.17h30.55V432a15.28,15.28,0,1,1-30.55,0Z" transform="translate(0 -9.9)"/></svg>