<?xml version="1.0" encoding="UTF-8"?>
<svg id="Layer_1" xmlns="http://www.w3.org/2000/svg" viewBox="0 0 34.11 34.11">
  <defs>
    <style>
      .cls-1 {
        fill: #fff;
        fill-rule: evenodd;
      }

      .cls-2 {
        fill: #ec1e24;
      }
    </style>
  </defs>
  <rect class="cls-2" x="0" y="0" width="34.11" height="34.11" rx="17.05" ry="17.05"/>
  <g>
    <path class="cls-1" d="M10.66,8.61c-1.67.21-3.14,1.24-4.35,3.04-.66.99-1.2,2.19-1.55,3.47-.6,2.21-.76,5.01-.37,6.61.25,1,.72,1.86,1.36,2.47,1.09,1.04,2.87,1.48,5.24,1.3,1.47-.11,2.78-.42,4.11-.96.22-.09.59-.26.86-.39.19-.09.31-.29.29-.51-.04-.56-.13-1.64-.17-2.17-.01-.15-.18-.23-.3-.16,0,0-.31.11-.31.12-1.6.6-2.54.98-4.58,1.04-.78-.01-1.2-.08-1.6-.16-1.04-.25-1.64-.49-2.06-1.31-.2-.38-.3-.8-.34-1.23-.1-1.1.02-2.62.32-4.01,0,0,0,0,0,0,.71-2.4,1.2-3.37,2.46-4.27.12-.08.25-.15.38-.2.21-.07.45-.13.62-.15.81-.13,1.62.16,2.21.72.42.39.72,1.08.81,2.39,0,0,0,.02,0,.02v.04c.04.22.14.38.37.34s.52-.08.82-.14c.32-.06.61-.11.82-.15.19-.03.39-.2.37-.4-.04-.33-.13-.85-.2-1.17-.27-1.28-.77-2.23-1.41-2.94-.9-1-2.25-1.45-3.78-1.26Z"/>
    <g>
      <path class="cls-1" d="M22.64,9.19c-1.24.14-2.15.37-2.69.69-.08.05-.24.13-.34.16-.28.11-.94.63-1.33,1.06-.36.39-.79,1.15-.93,1.64-.04.13-.09.31-.13.39-.09.24-.06,1.59.03,1.93.23.81.51,1.31,1.01,1.8.43.41.49.46.83.65.14.07.36.2.5.27.26.14.44.17.44.07,0-.13.55-1.4.6-1.38.03.02.03.15.02.3-.04.29,0,.36.33.72.07.07.18.25.26.4.17.33.15.32.29.22.27-.19.64-.03.69.28.01.1.05.14.17.16.11.02.18.08.24.18.05.08.16.24.26.33.15.15.17.2.14.34-.07.37-.06.38.07.38.12,0,.13-.02.12-.16,0-.09-.05-.27-.1-.42-.09-.26-.06-.4.04-.22.03.06.11.25.16.42.12.39.17.45.35.45.26,0,.28-.1.13-.63-.07-.27-.12-.5-.11-.52.05-.05.13.09.24.49.06.2.13.4.15.44.06.11.23.16.37.11.14-.06.14-.14-.04-.81-.06-.23-.11-.44-.11-.47,0-.11.16.15.16.26,0,.07.02.13.04.15s.07.14.11.28c.1.36.18.45.35.41.07-.02.15-.08.17-.14.04-.1-.03-.67-.12-1.09-.05-.23-.76-1.02-1.08-1.22-.48-.28-.49-.29-.88-.11-.27.12-.39.15-.54.13-.21-.04-.43-.24-.43-.41,0-.05.14-.23.3-.39.16-.16.28-.31.26-.33s-.16-.06-.31-.08c-.3-.05-1.18-.38-1.3-.5-.06-.05-.06-.1-.02-.19.2-.42.2-.45,0-.68-.49-.57-.31-1.4.42-1.98.27-.22.49-.3,1.17-.46.39-.09,1.98-.09,2.43,0,.19.04.46.09.61.13.58.12,1,.27,1.8.65.39.18.72.23.8.11.05-.08.51-1.18.69-1.65.04-.12.13-.32.18-.45.06-.14.09-.29.07-.35-.04-.11-.29-.32-.51-.42-.84-.37-1.77-.68-2.4-.78-.26-.05-.63-.11-.82-.14-.43-.07-2.33-.1-2.82-.05Z"/>
      <path class="cls-1" d="M22.68,16.29c-.24.24-.43.46-.43.49s.08.1.17.15c.22.12.36.08.72-.15.15-.1.28-.16.3-.14.01.02.18.12.37.22.25.12.46.28.72.55.58.61.7.79.68,1.06-.01.2.07.6.13.6,0,0,.12-.05.26-.11.14-.06.29-.09.35-.07.12.04.11.09-.05.59l-.09.26.16.18c.51.6.54,1.15.11,1.79-.22.33-.91.66-1.68.79-.41.07-2.25.04-2.56-.05-.1-.03-.32-.08-.48-.12-.87-.19-1.68-.5-2.44-.91-.8-.43-.94-.41-1.15.17-.06.16-.22.52-.36.81s-.29.62-.33.74-.11.2-.12.27c-.08.11.05.36.27.51.25.16,1.36.69,1.68.81.53.18,1.66.45,2.5.6.19.03.71.08,1.15.12,1.29.09,2.55-.05,3.8-.43.68-.21.69-.22,1.33-.59,1.11-.66,1.82-1.56,2.17-2.81.12-.41.1-1.81-.03-2.21-.26-.85-.73-1.53-1.4-1.99-.42-.3-1.25-.73-1.4-.73-.09,0-.14.07-.26.46-.19.56-.27.73-.31.65-.02-.03-.02-.17,0-.31.04-.3.12-.25-.77-.46-.62-.15-.93-.33-1.16-.66-.15-.22-.19-.23-.88-.39-.2-.05-.41-.09-.45-.11-.05-.02-.25.14-.52.41Z"/>
      <path class="cls-1" d="M20.82,17.91c-.15.15-.14.36.03.43.17.06.34.02.34-.1,0-.09-.18-.43-.24-.43-.02,0-.07.05-.13.11Z"/>
      <path class="cls-1" d="M21.51,18.28c-.34.21-.42.45-.19.61.12.07.15.07.31,0,.27-.13.41-.27.41-.45,0-.12-.03-.17-.14-.21q-.18-.07-.39.06Z"/>
      <path class="cls-1" d="M21.97,18.81c-.2.13-.25.2-.25.31,0,.16.14.32.3.32.14,0,.5-.37.5-.51,0-.08-.2-.28-.27-.28-.01,0-.13.07-.26.16Z"/>
      <path class="cls-1" d="M22.42,19.29c-.15.09-.17.14-.16.27.02.14.04.16.19.18.1.01.23-.02.31-.07.11-.07.13-.12.12-.28-.02-.16-.04-.2-.15-.21-.07,0-.21.04-.31.1Z"/>
    </g>
  </g>
</svg>