<svg xmlns="http://www.w3.org/2000/svg" width="1506.305" height="878.478" viewBox="0 0 1506.305 878.478">
  <path id="framebg" d="M1340.236,506.671v.4c-58.242-1.66-157.607-40.838-323.324-140.074-63.138-35.873-185.037-86.726-285.143-96.011-40.844-3.789-78.057-.656-106.152,13.24-28.068,13.886-47.042,38.526-51.455,77.761-4.774,42.486,7.511,102.076,43.791,183.635,20.028,47.15,29.1,112.222,18.006,171.019-7.131,37.8-22.6,73-48.849,99.193s-63.283,43.367-113.542,45.093c-66.2,2.269-155.359-22.263-273.069-88.308-71.082-39.57-138.477,27.459-203.823,106.8H-3.89c65.533-79.607,133.141-146.968,204.6-107.187,117.633,66,206.715,90.518,272.841,88.249,50.132-1.725,87.069-18.845,113.249-44.964s41.609-61.246,48.728-98.961c11.077-58.709,2.015-123.685-17.982-170.762-36.314-81.635-48.608-141.3-43.824-183.855,4.432-39.408,23.492-64.156,51.693-78.1,28.174-13.936,65.464-17.082,106.384-13.286,100.175,9.291,222.151,60.173,285.323,96.068h.009c165.725,99.247,265,138.4,323.1,140.046m0-20.2v.416c-55.14,5.453-154.811-29.9-330.362-134.129-71.069-38.462-192.7-87.4-291.924-95.876-41.556-3.551-79.18-.009-107.492,14.376-28.288,14.37-47.295,39.574-51.66,79.349-4.582,41.77,6.971,99.606,40.86,177.827v.006c18.928,47.982,27.674,113.358,16.686,172.142-7.109,38.049-22.482,73.338-48.708,99.379s-63.309,42.83-113.818,43.86c-63.891,1.3-149.283-22.609-261.411-84.895-75.339-41.209-146.2,35.757-214.876,120.5h-.56c68.856-85,139.923-162.309,215.644-120.888,112.057,62.246,197.376,86.145,261.191,84.843,50.389-1.027,87.368-17.765,113.524-43.733s41.492-61.182,48.59-99.15c10.969-58.7,2.235-123.986-16.663-171.9-33.918-78.294-45.481-136.2-40.889-178.044,4.383-39.941,23.477-65.253,51.894-79.689,28.394-14.425,66.1-17.979,107.728-14.421,99.291,8.486,220.995,57.447,292.1,95.926l.009.006c175.61,104.269,275.171,139.582,330.141,134.1Zm0-22.456v.443c-51.094,14.232-150.348-15.892-337.408-125.956-78.778-40.966-200.122-88.034-298.471-95.773-42.3-3.329-80.34.62-108.9,15.461-28.533,14.827-47.605,40.54-52,80.755-4.488,41.047,6.3,97.2,37.908,172.287l.006.008c17.811,48.831,26.234,114.515,15.367,173.3-7.076,38.287-22.335,73.649-48.511,99.527s-63.271,42.276-114,42.613c-61.572.413-143.248-22.826-249.918-81.454-79.6-42.77-153.837,44.643-225.8,134.207h-.56c72.145-89.8,146.571-177.576,226.568-134.593,106.6,58.591,188.2,81.816,249.708,81.4,50.6-.337,87.6-16.684,113.7-42.489s41.327-61.09,48.389-99.295c10.851-58.7,2.44-124.293-15.347-173.061-31.635-75.161-42.435-131.385-37.937-172.5,4.417-40.378,23.574-66.2,52.235-81.093,28.635-14.882,66.756-18.84,109.131-15.506,98.418,7.746,219.829,54.839,298.65,95.828l.009.006c187.171,110.134,286.3,140.191,337.187,125.89Zm0-25.779v.495c-45.73,25.39-143.361,2.708-344.446-114.482-86.267-43.378-207.3-88.648-304.781-95.716-43.1-3.124-81.584,1.221-110.414,16.5-28.8,15.265-47.976,41.459-52.471,82.048-4.468,40.32,5.54,94.839,34.946,166.948l.006.012c16.687,49.7,24.791,115.7,14.054,174.471-7.035,38.513-22.158,73.929-48.256,99.632s-63.168,41.7-114.086,41.359c-59.252-.4-137.266-22.917-238.588-77.989C93.314,687.773,16.632,783.329-57.758,876.035l-2.723,3.392h-.56l2.943-3.672c74.5-92.836,151.3-188.536,234.5-144.624,101.256,55.037,179.2,77.541,238.38,77.935,50.793.341,87.76-15.6,113.779-41.233s41.113-60.972,48.132-99.4c10.722-58.7,2.63-124.609-14.036-174.248-29.436-72.178-39.449-126.766-34.976-167.153,4.513-40.752,23.769-67.052,52.7-82.386,28.909-15.321,67.476-19.678,110.649-16.548,97.548,7.07,218.643,52.364,304.953,95.767l.017.006c201.289,117.31,298.75,139.883,344.225,114.367Zm0-31.132v.633C1301.841,447.971,1208.009,436.475,988.76,310c-93.492-45.688-214.2-89.236-310.82-95.707-43.971-2.946-82.946,1.79-112.083,17.5-29.117,15.7-48.415,42.357-53.064,83.28-4.5,39.585,4.709,92.511,31.987,161.752v.018c15.554,50.584,23.348,116.9,12.756,175.673-6.98,38.724-21.945,74.175-47.933,99.7s-63.005,41.113-114.074,40.1c-56.929-1.13-131.331-22.884-227.423-74.5C84.943,674.717,8.417,770-65.856,862.469q-6.833,8.517-13.641,16.958h-.56q6.918-8.568,13.864-17.23C8.188,769.585,84.828,674.162,168.31,717.426h0c96.023,51.582,170.362,73.323,227.224,74.45,50.94,1.009,87.85-14.53,113.764-39.977s40.842-60.821,47.81-99.463c10.58-58.694,2.8-124.932-12.735-175.459-27.3-69.307-36.512-122.3-32.008-161.957,4.667-41.08,24.047-67.852,53.287-83.614,29.216-15.751,68.275-20.5,112.321-17.552,96.686,6.474,217.454,50.042,310.98,95.749l.017.008c219.64,126.7,313.217,137.971,351.263,97.488Zm0-42.01v1.088a85.682,85.682,0,0,1-3.885,7.718c-31.238,54.787-119.162,56.209-354.646-78.155-100.394-47.876-220.747-89.776-316.514-95.734-44.942-2.8-84.464,2.322-113.954,18.455-30.775,16.835-48.928,43.252-53.775,84.488-4.567,38.848,3.827,90.209,29.023,156.672v.006l.007.012c14.4,51.489,21.889,118.136,11.45,176.9-6.914,38.926-21.7,74.4-47.547,99.723s-62.779,40.51-113.969,38.841c-54.6-1.78-125.448-22.732-216.422-70.995C76.564,661.66.192,756.668-73.963,848.914c-8.254,10.266-16.482,20.5-24.688,30.5h-.566c8.282-10.089,16.584-20.417,24.911-30.779C-.043,756.255,76.441,661.108,160.2,703.719c90.911,48.228,161.692,69.169,216.235,70.946,51.055,1.663,87.874-13.467,113.65-38.718S530.6,675.3,537.5,636.462c10.427-58.691,2.944-125.26-11.438-176.694-25.221-66.53-33.624-117.957-29.048-156.871,4.865-41.393,24.405-68.629,54-84.816,29.572-16.178,69.172-21.311,114.192-18.51,95.833,5.962,216.247,47.882,316.692,95.782l.017.009c235.187,134.2,322.933,132.885,354.043,78.318a85.822,85.822,0,0,0,4.267-8.589Zm0-237.855V132.2c-2.04,25.327-1.377,52.922-.714,80.324,1.292,53.6,2.567,106.45-16.431,140.166-31.28,55.495-117.377,59.1-348.424-71.2-106.973-49.931-226.938-90.272-321.858-95.816-46.035-2.687-86.175,2.811-116.069,19.374-29.872,16.551-49.524,44.158-54.613,85.7-4.669,38.1,2.908,87.919,26.069,151.672v.009l.006.013c13.231,52.413,20.431,119.395,10.158,178.155-6.836,39.109-21.414,74.582-47.1,99.7s-62.49,39.9-113.757,37.585c-52.284-2.355-119.627-22.471-205.6-67.479C68.186,648.61-8.029,743.34-82.063,835.357c-12.035,14.957-24.013,29.849-35.958,44.07h-.57c12.021-14.306,24.077-29.288,36.188-44.345C-8.261,742.928,68.069,648.058,152.1,690.018h0C238.015,735,305.295,755.1,357.518,757.451c51.136,2.305,87.826-12.414,113.436-37.461s40.152-60.439,46.972-99.466c10.261-58.688,3.067-125.6-10.149-177.96-23.182-63.818-30.762-113.7-26.086-151.867,5.106-41.7,24.835-69.413,54.832-86.03,29.972-16.606,70.193-22.121,116.307-19.428,94.984,5.543,215.017,45.905,322.033,95.86l.017.009c230.742,130.129,316.677,126.637,347.821,71.365,18.947-33.615,17.672-86.4,16.38-139.941-.705-29.2-1.411-58.622,1.148-85.3Zm0-57.363v1.338c-11.9,34.681-11.875,79.746-11.841,124.285.034,51.623.068,102.533-18.462,135.831-31.323,56.284-115.6,62.167-342.287-64.084-113.161-51.837-232.711-90.721-326.8-95.947-47.28-2.627-88.121,3.244-118.483,20.241-30.337,16.986-50.21,45.1-55.579,86.953-4.79,37.347,1.961,85.639,23.118,146.737l.007.009v.012c12.053,53.359,18.97,120.678,8.881,179.435-6.746,39.281-21.091,74.74-46.583,99.647S390.069,743.6,338.746,740.665c-49.963-2.856-113.854-22.1-194.944-63.96C59.811,635.553-16.25,730.009-90.164,821.8c-15.94,19.8-31.78,39.462-47.578,57.627h-.579c15.88-18.241,31.8-38.01,47.819-57.9C-16.479,729.6,59.694,635,144,676.313h0c81.03,41.827,144.86,61.059,194.769,63.912,51.181,2.926,87.712-11.382,113.126-36.211s39.727-60.212,46.457-99.406c10.078-58.688,3.17-125.941-8.869-179.252C468.306,364.2,461.551,315.842,466.35,278.432c5.39-42.008,25.342-70.224,55.8-87.278,30.436-17.042,71.359-22.929,118.72-20.3,94.147,5.233,213.76,44.131,326.964,95.99l.008.008c226.4,126.089,310.506,120.319,341.709,64.256,18.479-33.2,18.445-84.054,18.4-135.618-.034-45.087-.059-90.715,12.283-125.622Zm0-32.108v.883c-20.477,35.564-21.726,88.048-22.959,139.811-1.182,49.584-2.338,98.5-20.366,131.322-31.391,57.173-113.841,65.448-336.3-56.794-118.9-53.566-237.985-91.1-331.243-96.125-48.7-2.627-90.35,3.612-121.242,21.058-30.87,17.434-51,46.071-56.691,88.257-4.934,36.585.992,83.358,20.182,141.844v.013l.006.014c10.855,54.326,17.5,121.991,7.607,180.746-6.639,39.438-20.732,74.866-46,99.551s-61.719,38.633-113.056,35.1c-47.654-3.284-108.146-21.633-184.455-60.436C51.445,622.5-24.463,716.679-98.259,808.243c-20.013,24.833-39.869,49.466-59.7,71.183h-.593c19.913-21.777,39.857-46.52,59.953-71.458,73.9-91.7,149.921-186.018,234.5-145.357h0c76.257,38.778,136.693,57.112,184.291,60.4,51.2,3.528,87.534-10.366,112.722-34.976s39.248-59.957,45.875-99.31c9.881-58.688,3.244-126.291-7.6-180.574C451.984,349.6,446.055,302.768,451,266.12c5.709-42.336,25.92-71.08,56.908-88.58,30.97-17.488,72.7-23.742,121.48-21.112,93.318,5.031,212.46,42.577,331.4,96.168l.017.008c222.174,122.079,304.454,113.924,335.725,56.971,17.978-32.726,19.134-81.593,20.315-131.12,1.232-52.143,2.49-105.019,23.392-140.685Zm0-25.456V13c-28.45,34.624-31.28,91.962-34.068,148.427-2.337,47.472-4.649,94.324-22.117,126.607-31.484,58.176-112.1,68.976-330.5-49.3-124.126-55.1-242.686-91.393-335.121-96.346-50.334-2.7-92.914,3.9-124.416,21.8-31.482,17.9-51.907,47.107-57.957,89.648-5.091,35.811,0,81.072,17.257,136.985l.006.018v.012c9.643,55.315,16.023,123.335,6.344,182.084-6.522,39.585-20.332,74.963-45.348,99.419s-61.24,37.992-112.568,33.87c-45.348-3.645-102.5-21.07-174.148-56.923C43.055,609.446-32.7,703.354-106.375,794.689c-20,24.8-39.857,49.406-59.694,71.1v-.646c19.723-21.6,39.461-46.073,59.354-70.731C-32.931,702.947,42.929,608.9,127.79,648.914h0c71.6,35.828,128.691,53.241,173.989,56.88,51.18,4.112,87.289-9.372,112.225-33.748s38.714-59.679,45.222-99.177c9.667-58.686,3.293-126.649-6.342-181.928-17.271-55.971-22.362-101.289-17.265-137.16,6.068-42.688,26.568-72,58.171-89.965,31.581-17.955,74.242-24.564,124.654-21.862,92.492,4.959,211.116,41.269,335.293,96.39l.017.009c218.094,118.105,298.538,107.422,329.9,49.473,17.425-32.2,19.729-79,22.066-126.417,2.8-56.763,5.653-114.409,34.5-149.092ZM1330.146.955h.561c-27.328,34.356-31.518,89.3-35.632,143.42-3.443,45.276-6.843,89.977-23.715,121.639-31.595,59.315-110.356,72.809-324.837-41.528-128.788-56.414-246.757-91.6-338.376-96.617-52.223-2.862-95.879,4.076-128.083,22.468-32.184,18.38-52.935,48.21-59.381,91.142-5.26,35.028-1,78.78,14.343,132.147v.015l.006.012c12.276,82.226,19.693,190.116-19.1,256.259-38.82,66.184-123.848,90.574-296.417,5.691C34.686,596.389-40.908,690.02-114.47,781.13c-17.277,21.4-34.443,42.658-51.591,62.029v-.66c17.033-19.265,34.088-40.387,51.25-61.644C-41.146,689.614,34.56,595.847,119.7,635.206h.006C292,719.96,376.853,695.678,415.556,629.69c38.726-66.027,31.316-173.808,19.049-255.959-15.355-53.422-19.618-97.231-14.352-132.316,6.465-43.077,27.294-73.01,59.6-91.459,32.28-18.434,76.017-25.39,128.324-22.525,91.673,5.025,209.7,40.218,338.53,96.656l.017.009c214.192,114.18,292.775,100.8,324.259,41.712,16.822-31.581,20.222-76.236,23.664-121.464,4.114-54.052,8.287-108.917,35.5-143.387Zm-17.519,0h.51C1293.656,34.626,1288.794,81.273,1284,127.32c-4.471,42.972-8.891,85.419-25.1,116.361-31.748,60.616-108.622,77.011-319.414-33.452-132.791-57.474-250.076-91.676-340.873-96.911-54.422-3.139-99.319,4.127-132.328,23.025-32.99,18.886-54.109,49.4-61,92.767-5.435,34.229-2.007,76.465,11.448,127.312v.009l.006.021c10.369,83.063,18.079,189.961-18.82,255.834C361,678.208,279.477,703.052,111.414,621.9,26.311,583.33-49.13,676.684-122.574,767.568c-14.554,18.012-29.029,35.922-43.487,52.7v-.669c14.346-16.657,28.711-34.431,43.15-52.3,73.546-91.013,149.1-184.5,234.505-145.794h.006c167.784,81.026,249.136,56.293,285.943-9.423,36.829-65.759,29.131-172.552,18.768-255.545-13.469-50.9-16.9-93.2-11.454-127.484,6.908-43.507,28.1-74.121,61.207-93.076,33.084-18.943,78.068-26.228,132.571-23.086,90.854,5.239,208.191,39.453,341.028,96.948l.017.007c210.494,110.306,287.207,94.035,318.836,33.638,16.159-30.864,20.578-73.272,25.05-116.2,4.786-46,9.639-92.588,29.062-126.32Zm-15.547,0h.476c-14.212,31.295-19.448,70.516-24.625,109.3-5.415,40.543-10.761,80.611-26.223,110.7-31.943,62.125-106.913,81.68-314.271-24.977-136.047-58.246-252.523-91.6-342.49-97.216-56.989-3.555-103.335,4.019-137.268,23.45-33.913,19.419-55.438,50.693-62.809,94.541-5.619,33.415-3.019,74.133,8.573,122.476v.015l.007.012c8.462,83.9,16.46,189.8-18.537,255.41-35.024,65.659-113.05,90.959-276.6,13.526C17.933,570.276-57.354,663.356-130.674,754.011c-11.834,14.632-23.616,29.2-35.383,43.143v-.675c11.655-13.821,23.327-28.251,35.046-42.742,73.428-90.784,148.818-184,234.505-145.941h.006c163.267,77.3,241.118,52.115,276.031-13.334,34.937-65.5,26.944-171.311,18.488-255.148-11.6-48.395-14.2-89.164-8.574-122.634,7.4-43.987,28.993-75.362,63.023-94.847,34.012-19.477,80.439-27.072,137.512-23.508C680,103.943,796.53,137.311,932.634,195.58l.017.006c207.044,106.5,281.861,87.073,313.676,25.17,15.436-30.026,20.774-70.055,26.189-110.559,5.168-38.745,10.4-77.921,24.574-109.243Zm-14.552,0H1283c-10.515,27.8-15.844,60.164-21.105,92.225-6.239,37.949-12.41,75.471-27.047,104.549-32.181,63.884-105.2,86.937-309.435-16-138.475-58.7-253.986-91.345-343.1-97.512-60-4.154-108.034,3.7-143.034,23.7-34.977,19.986-56.944,52.106-64.853,96.5-5.8,32.578-4.033,71.769,5.724,117.623v.009l0,.018.09,1.181c6.381,82.482,14.214,183.731-16.023,249.015-31.9,68.891-106.136,97.725-269.012,22.241C9.549,557.229-65.581,650.034-138.787,740.46c-9.119,11.264-18.205,22.488-27.282,33.421V773.2c8.962-10.8,17.937-21.889,26.942-33.015C-65.82,649.631,9.417,556.692,95.378,594.1h.006c162.574,75.348,236.633,46.641,268.433-22.025,30.19-65.18,22.359-166.367,15.985-248.8l-.091-1.163c-9.767-45.9-11.535-85.145-5.723-117.78,7.929-44.527,29.969-76.749,65.063-96.8,35.075-20.04,83.186-27.915,143.278-23.754,89.164,6.17,204.726,38.833,343.242,97.547l.017.006c203.932,102.784,276.786,79.861,308.857,16.2,14.612-29.017,20.774-66.509,27-104.422,5.261-32.024,10.574-64.349,21.072-92.152Zm-14.11,0h.459c-7.854,23.522-12.954,49.427-18.011,75.134-6.919,35.141-13.762,69.913-27.472,97.753-32.487,65.972-103.462,92.972-305.032-6.369C778.452,108.7,664.118,76.628,575.906,69.72c-63.574-4.977-113.575,3.118-149.8,23.709-36.2,20.582-58.655,53.66-67.151,98.656q-8.982,47.583,2.9,112.743v.03q.5,9.188,1.042,18.64c4.552,80.261,9.778,172.4-17.6,232.89-30.475,67.337-101.28,95.463-258.2,24.4C1.171,544.169-73.8,636.7-146.885,726.9c-6.4,7.9-12.794,15.792-19.178,23.573v-.689c6.269-7.646,12.547-15.394,18.838-23.158C-74.038,636.3,1.042,543.636,87.286,580.389h0c156.609,70.925,227.245,42.929,257.618-24.182,27.333-60.4,22.109-152.473,17.56-232.684q-.533-9.43-1.042-18.626-11.93-65.131-2.9-112.891c8.52-45.128,31.041-78.306,67.361-98.954,36.3-20.639,86.386-28.752,150.048-23.77,88.259,6.911,202.638,38.995,342.6,97.789l.008.006c201.246,99.183,272.069,72.317,304.454,6.567,13.685-27.787,20.519-62.532,27.43-97.644,5.049-25.673,10.14-51.542,17.978-75.05Zm-14.1,0h.451c-5.814,18.672-10.37,38.41-14.9,58.028-7.4,32.051-14.73,63.786-27.361,90.086-32.9,68.485-101.728,100.048-301.181,4.151C716.534,72.076,574.59,42.643,480.763,56.8c-32.5,4.9-59.218,15.036-80.361,30.06s-36.7,34.931-46.882,59.4c-15.43,37.061-18.518,84.582-9.956,141.381v.025c.355,11.191.816,22.727,1.283,34.422,3.1,77.538,6.474,162.089-18.413,218.473-29.029,65.774-96.445,93.212-247.426,26.532-86.214-35.974-161.032,56.281-234,146.255q-5.54,6.833-11.075,13.635v-.693q5.364-6.589,10.734-13.219c73.07-90.1,147.993-182.484,234.512-146.381h0c150.675,66.547,217.924,39.236,246.852-26.306,24.845-56.293,21.47-140.79,18.376-218.28-.463-11.646-.925-23.134-1.28-34.406-8.574-56.875-5.471-104.468,9.99-141.6,10.215-24.54,25.826-44.517,47.029-59.583S448.131,61.282,480.7,56.368C574.6,42.2,716.628,71.642,911.5,152.819l.009.006c199.13,95.743,267.793,64.316,300.595-3.947,12.614-26.254,19.941-57.968,27.336-89.995,4.522-19.582,9.07-39.284,14.875-57.929Zm-14.424,0h.459c-4.123,13.418-7.795,27.192-11.458,40.9-7.616,28.556-15.173,56.859-26.546,81.183-33.456,71.585-99.909,108.616-298.053,15.928C710.825,59,571.978,29.812,478.552,40.558,441.786,44.788,412.058,55.2,388.8,71.133s-40.019,37.38-50.889,63.686c-15.059,36.461-18.777,82.256-12.644,135.62v.021c.15,15.912.581,32.346,1.016,48.952,1.952,74.549,3.994,152.578-18.664,205.334-27.568,64.2-91.631,90.98-236.714,28.635-86.495-35.325-161.155,56.654-234.006,146.4l-2.971,3.658v-.693l2.63-3.242C-90.484,609.635-15.717,517.528,71.078,552.978h0c144.776,62.216,208.673,35.557,236.138-28.4,22.622-52.675,20.579-130.65,18.63-205.154-.434-16.581-.865-32.99-1.016-48.946-6.142-53.434-2.416-99.295,12.674-135.825,10.9-26.387,27.728-47.9,51.045-63.882s53.1-26.411,89.94-30.647c93.5-10.755,232.421,18.437,425.962,98.44l.008.006c197.821,92.541,264.13,55.648,297.484-15.714,11.356-24.285,18.9-52.573,26.52-81.111,3.646-13.677,7.31-27.412,11.416-40.793Zm-15.045,0h.459c-2.508,7.887-4.938,15.834-7.353,23.763-7.446,24.456-14.85,48.723-24.667,70.389-34.247,75.55-97.937,119.479-296.039,29.607C661.946,28.14,510.284,6.172,419.493,35.419,328.772,64.641,298.851,145.05,306.991,253.25v.02c-.247,20.365.066,41.4.379,62.514,1.067,71.422,2.145,143.7-18.485,193.2-26.092,62.608-86.84,88.766-226.058,30.707C-21.908,505.825-94.942,592.47-166.055,679.916v-.693c71.1-87.429,144.15-173.869,229.044-139.941,138.913,57.935,199.5,31.9,225.492-30.469C309.075,459.4,308,387.165,306.934,315.791c-.314-21.124-.63-42.173-.383-62.517C298.4,144.869,328.4,64.3,419.355,35.006,510.241,5.73,662.009,27.694,897.427,124.32h.008c197.761,89.718,261.308,45.939,295.461-29.388,9.809-21.648,17.2-45.9,24.65-70.338,2.406-7.887,4.811-15.792,7.31-23.634Zm-15.972,0h.459q-1.148,3.3-2.278,6.595c-6.655,19.3-13.268,38.477-21.08,56.32-35.445,80.936-95.54,134.35-295.775,46.6C645.259,10.586,493.272-9.165,403.328,21.642,313.447,52.428,285.535,133.749,288.7,236.057v.012c-.825,24.6-.675,50.027-.527,75.3.4,68.22.792,135.343-17.966,181.864-24.6,61.011-82.079,86.575-215.479,32.746C-27.044,494.018-97.608,572.752-166.055,656.43v-.693c68.44-83.644,139.019-162.185,220.94-130.158h0c133.087,53.7,190.4,28.263,214.909-32.506,18.726-46.439,18.335-113.518,17.934-181.7-.148-25.288-.3-50.729.527-75.314-3.166-102.492,24.818-183.97,114.924-214.831C493.223-9.61,645.313,10.14,890.389,110.067h0c199.887,87.6,259.846,34.347,295.2-46.369,7.8-17.832,14.416-37,21.072-56.287q1.109-3.222,2.227-6.45ZM15.478,879.427C77.61,805.773,141.645,747.9,208.823,785.947c123.327,69.858,216.217,94.95,284.641,91.627,49.847-2.422,86.705-19.924,112.882-46.182s41.679-61.282,48.807-98.731c11.177-58.712,1.78-123.386-19.3-169.645C596.985,477.751,584,416.228,589.123,372.963c4.581-38.72,23.655-62.827,51.648-76.242,27.965-13.4,64.834-16.12,105.046-12.084,101.07,10.152,223.308,63.011,278.363,96.246,157.1,94.833,255.562,136.8,316.056,144.3v.4c-60.614-7.5-159.18-49.491-316.286-144.33-55.021-33.214-177.183-86.04-278.176-96.183-40.137-4.031-76.923-1.323-104.811,12.041-27.86,13.349-46.843,37.347-51.4,75.9-5.109,43.191,7.863,104.633,46.689,189.82,21.118,46.33,30.53,111.107,19.334,169.909-7.145,37.531-22.681,72.634-48.927,98.961s-63.2,43.877-113.168,46.308c-68.5,3.323-161.475-21.777-284.879-91.681-66.8-37.84-130.617,19.724-192.556,93.1h-.575Z" transform="translate(166.069 -0.949)" fill="#d4d7df" fill-rule="evenodd" opacity="0.8"/>
</svg>
