<svg xmlns="http://www.w3.org/2000/svg" width="19.195" height="18" viewBox="0 0 19.195 18">
  <path id="Icon" d="M16.622,18H2.57a1.319,1.319,0,0,1-1.317-1.318V9.657a1.317,1.317,0,0,1-.79-2.318L8.744.312a1.318,1.318,0,0,1,1.7,0L18.73,7.339a1.32,1.32,0,0,1-.79,2.323v7.021A1.319,1.319,0,0,1,16.622,18ZM8.279,11.417h2.635a1.319,1.319,0,0,1,1.317,1.318v3.952h4.391V8.344h1.256L9.6,1.319,1.315,8.344H2.57v8.343H6.962V12.735A1.319,1.319,0,0,1,8.279,11.417Zm0,1.318v3.952h2.635V12.735Z" transform="translate(0.001)" fill="#c79f49"/>
</svg>
