<svg xmlns="http://www.w3.org/2000/svg" width="36" height="36.517" viewBox="0 0 36 36.517">
  <g id="internet" transform="translate(-3.625)">
    <g id="Group_25570" data-name="Group 25570" transform="translate(3.625)">
      <path id="Path_14126" data-name="Path 14126" d="M38.02,4.234H30.363a11.135,11.135,0,0,0-17.476,0H5.23a1.607,1.607,0,0,0-1.6,1.6V27.391a1.964,1.964,0,0,0,1.961,1.961H17v3.135H8.945a.892.892,0,0,0-.892.892v2.247a.892.892,0,0,0,.892.892H34.3a.892.892,0,0,0,.892-.892V33.379a.892.892,0,0,0-.892-.892H28.686a.535.535,0,1,0,0,1.07h5.44v1.89h-25v-1.89H29.043a.535.535,0,1,0,0-1.07H26.255V29.353H37.664a1.964,1.964,0,0,0,1.961-1.961V5.838a1.607,1.607,0,0,0-1.6-1.6ZM30.651,6.669a10,10,0,0,1,1.038,3.944H27.418a20.377,20.377,0,0,0-.471-3.944ZM25.547,16.7c-.762,2.4-1.993,4.109-3.387,4.461V16.7Zm-3.387-1.07V11.683h4.188a19.136,19.136,0,0,1-.5,3.944Zm3.667,3.263a13.535,13.535,0,0,0,.845-2.193h3.361a10.121,10.121,0,0,1-5.45,4.086A8.57,8.57,0,0,0,25.827,18.89Zm1.12-3.263a20.377,20.377,0,0,0,.471-3.944h4.271a10,10,0,0,1-1.038,3.944ZM30.033,5.6H26.672a13.542,13.542,0,0,0-.845-2.193,8.572,8.572,0,0,0-1.243-1.892A10.122,10.122,0,0,1,30.033,5.6ZM22.16,1.138c1.394.352,2.625,2.057,3.387,4.461H22.16ZM21.625,7.81a.535.535,0,0,0,.535-.535V6.669h3.683a19.131,19.131,0,0,1,.5,3.944H22.16V6.99a.535.535,0,1,0-1.07,0v3.623H16.9a19.136,19.136,0,0,1,.5-3.944H21.09v.606a.535.535,0,0,0,.535.535ZM16.578,16.7a13.533,13.533,0,0,0,.845,2.193,8.572,8.572,0,0,0,1.243,1.892,10.122,10.122,0,0,1-5.45-4.086ZM12.6,15.627a10.005,10.005,0,0,1-1.038-3.944h4.271a20.377,20.377,0,0,0,.471,3.944Zm5.1,1.07H21.09v4.461C19.7,20.805,18.465,19.1,17.7,16.7Zm-.3-1.07a19.132,19.132,0,0,1-.5-3.944H21.09v3.944ZM21.09,1.138V5.6H17.7C18.465,3.194,19.7,1.49,21.09,1.138Zm-2.424.375a8.568,8.568,0,0,0-1.243,1.892A13.542,13.542,0,0,0,16.578,5.6H13.217a10.121,10.121,0,0,1,5.45-4.086ZM16.3,6.669a20.377,20.377,0,0,0-.471,3.944H11.561A10,10,0,0,1,12.6,6.669Zm8.882,25.818h-7.12V29.353h7.12Zm13.37-8.255H10.713a.535.535,0,0,0,0,1.07H38.555v2.089a.892.892,0,0,1-.892.892H5.586a.892.892,0,0,1-.892-.892V25.3h7.088a.535.535,0,1,0,0-1.07H4.695V5.838A.535.535,0,0,1,5.23,5.3h6.906a11.148,11.148,0,1,0,18.978,0H38.02a.535.535,0,0,1,.535.535Z" transform="translate(-3.625 0)"/>
    </g>
  </g>
</svg>
