<svg xmlns="http://www.w3.org/2000/svg" width="1430.571" height="1257.326" viewBox="0 0 1430.571 1257.326">
  <g id="wave-light-3.6ffc2a6e" transform="translate(288.138 0.649) rotate(18)" opacity="0.6">
    <path id="Path_5071" data-name="Path 5071" d="M571.372,525.866c4.269.181,16.289-64.468,11.327-136.442-2.549-36.979-5.885-75.473-16.63-112.723-9.039-31.336-22.063-57.657-38.418-80.234-13.211-18.351-30.916-34.982-51.742-48.834-10.124-6.734-20.311-12.535-30.132-18.2-34.458-19.887-72.073-23.118-107.343-23.361-54.34-.164-103.56,9.253-137.444,9.729-19.871.28-34.414-.352-41.3-8.369-12.088-14.068-25.233-34.488-44.065-53.9C92.118,29.294,52.578,13.073,0,0" transform="translate(82.073 566.183)" fill="none" stroke="#eeeeef" stroke-width="1" opacity="0.27"/>
    <path id="Path_5072" data-name="Path 5072" d="M585.573,524.273c6.4.271,18.893-66.709,12.045-138.22-3.625-37.865-6.993-76.418-18.807-114.34a257.706,257.706,0,0,0-40.934-79.982c-13.431-18.032-31.936-34.976-53.067-50.113-10.1-7.24-20.281-13.565-29.914-20.052C420.951,98.7,382.216,96.13,345.823,95.7c-54.972-.356-105.244,7.726-140.177,6.33-19.922-.8-34.8-1.518-42.176-9.321C150.454,78.929,136.5,60.141,117.437,43.052,93.667,21.744,51.231,12.739,0,0" transform="translate(79.966 563.632)" fill="none" stroke="#eeeeef" stroke-width="1" opacity="0.27"/>
    <path id="Path_5073" data-name="Path 5073" d="M599.774,522.679c8.54.362,21.424-68.957,12.765-140-4.726-38.767-8.111-77.363-20.983-115.961-11.062-33.165-26.475-57.837-43.452-79.729-13.69-17.653-32.956-34.952-54.391-51.391-10.09-7.738-20.254-14.6-29.7-21.9-33.433-25.855-73.266-27.881-110.8-28.378C297.635,84.589,246.3,91.563,210.3,88.256c-19.967-1.836-35.19-2.683-43.047-10.275-13.953-13.482-28.719-30.652-48-45.4C95.2,14.177,49.883,12.4,0,0" transform="translate(77.862 561.086)" fill="none" stroke="#eeeeef" stroke-width="1" opacity="0.27"/>
    <path id="Path_5074" data-name="Path 5074" d="M613.974,521.087c10.675.452,23.886-71.205,13.483-141.775-5.85-39.679-9.235-78.3-23.16-117.58-12.081-34.074-28.666-57.944-45.97-79.476-13.917-17.321-33.979-34.916-55.715-52.669-10.073-8.228-20.224-15.634-29.48-23.749C440.211,76.978,399.263,75.614,360.6,74.953c-56.207-.961-108.571,4.8-145.65-.468-20.01-2.842-35.58-3.845-43.918-11.226-14.891-13.186-30.483-28.75-49.97-41.156C96.714,6.6,48.535,12.07,0,0" transform="translate(75.758 558.537)" fill="none" stroke="#eeeeef" stroke-width="1" opacity="0.27"/>
    <path id="Path_5075" data-name="Path 5075" d="M628.176,519.493c12.809.542,26.286-73.447,14.2-143.55-7-40.6-10.367-79.24-25.338-119.2-13.106-34.98-30.855-58.052-48.485-79.225-14.144-16.985-35.007-34.867-57.04-53.946-10.06-8.711-20.2-16.676-29.263-25.6C449.843,66.094,407.78,65.41,367.993,64.581c-56.835-1.182-110.222,3.392-148.384-3.869-20.052-3.816-35.971-5-44.789-12.178-15.833-12.885-32.264-26.851-51.939-36.908C98.2-.986,47.187,11.734,0,0" transform="translate(73.653 555.99)" fill="none" stroke="#eeeeef" stroke-width="1" opacity="0.27"/>
    <path id="Path_5076" data-name="Path 5076" d="M642.377,519.511c14.944.633,28.627-75.678,14.92-145.327-8.171-41.521-11.5-80.172-27.514-120.821-14.136-35.884-33.047-58.161-51-78.972-14.371-16.654-36.036-34.808-58.365-55.224-10.05-9.191-20.165-17.723-29.045-27.445-31.891-34.916-75.075-34.9-115.987-35.9-57.465-1.4-110.576-4-151.121-7.269C203.5,46.877,187.9,42.392,178.6,35.423,161.825,22.841,144.536,10.473,124.7,2.763,99.665-6.961,45.838,13.01,0,1.611" transform="translate(71.55 551.83)" fill="none" stroke="#eeeeef" stroke-width="1" opacity="0.27"/>
    <path id="Path_5077" data-name="Path 5077" d="M656.577,525.962c17.081.722,30.916-77.894,15.641-147.1-9.368-42.439-12.646-81.1-29.693-122.44-15.169-36.785-35.233-58.273-53.518-78.721-14.6-16.321-37.07-34.738-59.691-56.5-10.041-9.661-20.131-18.771-28.827-29.294-31.371-37.96-75.678-37.239-117.715-38.408C324.679,51.88,270.79,47.628,228.917,42.825c-20.912-2.4-36.76-7.315-46.531-14.081C164.662,16.471,147.129,3,126.51.334,100.29-3.053,44.49,20.72,0,9.657" transform="translate(69.443 541.238)" fill="none" stroke="#eeeeef" stroke-width="1" opacity="0.27"/>
    <path id="Path_5078" data-name="Path 5078" d="M670.778,534.821c19.215.812,33.158-80.095,16.358-148.88-10.587-43.354-13.79-82.027-31.869-124.062-16.207-37.682-37.421-58.383-56.034-78.466-14.821-15.992-38.109-34.66-61.016-57.781-10.035-10.13-20.1-19.825-28.609-31.141-30.847-41.02-76.281-39.576-119.445-40.917A1368.307,1368.307,0,0,1,233.573,39.506c-21.061-3.145-37.156-8.469-47.4-15.033C167.5,12.51,148.428,3.361,128.324.312,102.5-3.606,43.142,30.836,0,20.108" transform="translate(67.342 528.237)" fill="none" stroke="#eeeeef" stroke-width="1" opacity="0.27"/>
    <path id="Path_5079" data-name="Path 5079" d="M684.979,543.407c21.351.9,35.356-82.275,17.077-150.656-11.83-44.256-14.94-82.949-34.045-125.682-17.248-38.576-39.608-58.5-58.551-78.214-15.045-15.662-39.151-34.569-62.34-59.058-10.03-10.593-20.065-20.878-28.392-32.99C488.41,52.721,441.841,54.9,397.553,53.383c-59.353-2.034-116.838-1.814-159.326-17.47-20.247-7.46-37.552-9.62-48.273-15.984C170.33,8.28,150.339.769,130.139.017,103.87-.962,41.793,40.68,0,30.288" transform="translate(65.237 515.509)" fill="none" stroke="#eeeeef" stroke-width="1" opacity="0.27"/>
    <path id="Path_5080" data-name="Path 5080" d="M699.18,552.507c23.485.993,37.515-84.434,17.8-152.434-13.094-45.15-16.093-83.867-36.223-127.3-18.292-39.469-41.793-58.607-61.067-77.962-15.268-15.331-40.2-34.473-63.666-60.339-10.028-11.052-20.028-21.934-28.174-34.836C498.066,52.474,450.356,55.4,404.945,53.7c-59.986-2.238-118.51-3.021-162.064-20.869-20.3-8.32-37.949-10.77-49.144-16.936C173.162,4.565,152.232-1.28,131.954.236,105.218,2.233,40.446,51.039,0,40.981" transform="translate(63.132 502.268)" fill="none" stroke="#eeeeef" stroke-width="1" opacity="0.27"/>
    <path id="Path_5081" data-name="Path 5081" d="M713.381,562.5C739,563.585,753.022,475.928,731.9,408.29c-14.378-46.031-17.25-84.782-38.4-128.919-19.339-40.358-43.979-58.722-63.584-77.71-15.49-15-41.249-34.368-64.991-61.616-10.026-11.509-19.99-23-27.956-36.685-29.241-50.246-78.093-46.567-124.63-48.441-60.617-2.439-120.19-4.2-164.8-24.269-20.368-9.164-38.346-11.918-50.015-17.887C175.993,1.75,154.11-2.4,133.768,1.348,106.545,6.36,39.1,62.29,0,52.569" transform="translate(61.028 488.133)" fill="none" stroke="#eeeeef" stroke-width="1" opacity="0.27"/>
    <path id="Path_5082" data-name="Path 5082" d="M727.582,573.206c27.755,1.174,41.737-88.689,19.232-155.986-15.681-46.9-18.407-85.7-40.576-130.541-20.388-41.244-46.163-58.835-66.1-77.456-15.712-14.675-42.3-34.257-66.316-62.9-10.028-11.961-19.951-24.057-27.738-38.532-28.693-53.336-78.7-48.9-126.359-50.949-61.249-2.64-121.882-5.342-167.534-27.669-20.436-9.994-38.747-13.065-50.887-18.84C178.824-.354,155.98-2.77,135.582,3.171,107.861,11.246,37.751,74.254,0,64.867" transform="translate(58.924 473.287)" fill="none" stroke="#eeeeef" stroke-width="1" opacity="0.27"/>
    <path id="Path_5083" data-name="Path 5083" d="M741.783,584.449c29.89,1.265,43.805-90.783,19.952-157.764-17.005-47.749-19.569-86.607-42.753-132.161-21.44-42.127-48.346-58.952-68.617-77.2-15.933-14.348-43.363-34.138-67.641-64.172-10.031-12.412-19.911-25.119-27.521-40.382C527.06,56.337,475.9,61.546,427.115,59.31c-61.88-2.836-123.587-6.457-170.27-31.067C236.335,17.429,217.7,14.029,205.087,8.45,181.653-1.917,157.846-2.57,137.4,5.532,109.169,16.716,36.4,86.754,0,77.7" transform="translate(56.817 457.902)" fill="none" stroke="#eeeeef" stroke-width="1" opacity="0.27"/>
    <path id="Path_5084" data-name="Path 5084" d="M755.983,596.094c32.024,1.355,45.851-92.857,20.672-159.541-18.346-48.586-20.733-87.514-44.931-133.781-22.493-43.007-50.529-59.069-71.133-76.951-16.154-14.021-44.428-34.013-68.965-65.45-10.037-12.86-19.868-26.183-27.3-42.228C536.737,58.613,484.412,64.6,434.505,62.178,371.992,59.146,309.2,54.631,261.5,27.709c-20.589-11.621-39.543-15.358-52.63-20.744-24.389-10.04-49.154-8.9-69.659,1.33C110.484,22.63,35.052,99.658,0,90.941" transform="translate(54.715 442.115)" fill="none" stroke="#eeeeef" stroke-width="1" opacity="0.27"/>
    <path id="Path_5085" data-name="Path 5085" d="M770.184,608.044c34.159,1.445,47.874-94.907,21.389-161.317-19.7-49.4-21.9-88.419-47.107-135.4-23.549-43.887-52.712-59.187-73.651-76.7-16.374-13.7-45.5-33.885-70.289-66.73-10.044-13.3-19.825-27.246-27.087-44.077C546.418,61.19,492.926,67.956,441.9,65.349c-63.147-3.225-127.034-8.61-175.743-37.868-20.672-12.418-39.943-16.5-53.5-21.7-25.345-9.712-51.062-6.756-71.628,5.579C111.81,28.89,33.7,112.865,0,104.486" transform="translate(52.61 426.024)" fill="none" stroke="#eeeeef" stroke-width="1" opacity="0.27"/>
    <path id="Path_5086" data-name="Path 5086" d="M784.385,620.226c36.3,1.535,49.881-96.936,22.108-163.094-21.076-50.2-23.064-89.321-49.284-137.02-24.606-44.762-54.893-59.3-76.166-76.447-16.6-13.372-46.571-33.749-71.615-68.006-10.052-13.749-19.781-28.312-26.869-45.925C556.1,64,501.439,71.547,449.284,68.754,385.508,65.336,320.51,59.1,270.809,27.485,250.048,14.278,230.466,9.841,216.436,4.837a80.017,80.017,0,0,0-73.6,9.828C113.149,35.411,32.357,126.306,0,118.26" transform="translate(50.505 409.701)" fill="none" stroke="#eeeeef" stroke-width="1" opacity="0.27"/>
    <path id="Path_5087" data-name="Path 5087" d="M798.586,632.587c38.43,1.625,51.871-98.946,22.827-164.871-22.463-50.986-24.233-90.221-51.461-138.64-25.663-45.636-57.075-59.424-78.683-76.193-16.814-13.049-47.646-33.61-72.94-69.286-10.062-14.191-19.736-29.377-26.651-47.773-25.882-68.844-81.725-60.507-135-63.488-64.411-3.606-130.53-10.671-181.212-44.668-20.855-13.989-40.743-18.786-55.244-23.6-27.255-9.048-54.843-2.412-75.565,14.079C114.508,42.132,31.008,139.925,0,132.215" transform="translate(48.401 393.199)" fill="none" stroke="#eeeeef" stroke-width="1" opacity="0.27"/>
    <path id="Path_5088" data-name="Path 5088" d="M812.786,645.086c40.565,1.715,53.848-100.936,23.546-166.647-23.865-51.753-25.4-91.12-53.638-140.26-26.725-46.508-59.255-59.546-81.2-75.941-17.034-12.725-48.727-33.466-74.266-70.563-10.072-14.632-19.688-30.444-26.434-49.621-25.309-71.953-82.33-62.823-136.73-66-65.045-3.794-132.3-11.67-183.948-48.067C259.164,13.224,238.974,8.062,224,3.437c-28.211-8.715-56.715-.223-77.535,18.327C115.885,49.01,29.659,153.683,0,146.307" transform="translate(46.297 376.557)" fill="none" stroke="#eeeeef" stroke-width="1" opacity="0.27"/>
    <path id="Path_5089" data-name="Path 5089" d="M826.988,657.694c42.7,1.806,55.812-102.906,24.264-168.423-25.278-52.5-26.572-92.016-55.815-141.88C767.652,300.011,734,287.721,711.722,271.7c-17.251-12.4-49.813-33.318-75.591-71.842-10.085-15.071-19.64-31.509-26.216-51.469-24.729-75.063-82.939-65.14-138.459-68.5-65.679-3.98-134.079-12.653-186.684-51.468-21.055-15.536-41.542-21.066-56.986-25.5-29.167-8.379-58.571,1.969-79.5,22.575C117.285,56,28.312,167.548,0,160.507" transform="translate(44.194 359.808)" fill="none" stroke="#eeeeef" stroke-width="1" opacity="0.27"/>
    <path id="Path_5090" data-name="Path 5090" d="M841.188,670.137c44.835,1.9,57.766-104.855,24.984-170.2-26.705-53.229-27.745-92.91-57.992-143.5-28.846-48.246-63.614-59.791-86.232-75.436-17.469-12.082-50.9-33.168-76.916-73.12-10.1-15.511-19.591-32.578-26-53.318C594.886,76.391,535.49,87.107,478.846,83.55c-66.312-4.165-135.871-13.617-189.42-54.868-21.162-16.3-41.853-22.545-57.857-26.455-30.292-7.4-60.415,4.163-81.472,26.824C118.7,62.838,26.962,181.249,0,174.545" transform="translate(42.088 343.223)" fill="none" stroke="#eeeeef" stroke-width="1" opacity="0.27"/>
    <path id="Path_5091" data-name="Path 5091" d="M855.389,683.151c46.97,1.987,59.712-106.79,25.7-171.977-28.143-53.942-28.919-93.8-60.17-145.12-29.91-49.114-65.791-59.917-88.749-75.184-17.687-11.762-51.992-33.012-78.24-74.4-10.114-15.947-19.543-33.643-25.781-55.166C604.593,80.024,544,91.538,486.236,87.787c-66.947-4.349-137.677-14.57-192.155-58.269C272.808,12.456,251.739,6.174,235.353,2.112c-31.079-7.7-62.249,6.353-83.441,31.072C120.136,70.244,25.616,195.522,0,189.152" transform="translate(39.982 326.068)" fill="none" stroke="#eeeeef" stroke-width="1" opacity="0.27"/>
    <path id="Path_5092" data-name="Path 5092" d="M869.59,695.97c49.1,2.077,61.65-108.707,26.422-173.755-29.589-54.636-30.092-94.694-62.347-146.738-30.974-49.98-67.969-60.044-91.265-74.932-17.9-11.443-53.086-32.855-79.563-75.677-10.132-16.383-19.494-34.71-25.564-57.012C614.3,83.463,552.514,95.776,493.626,91.827c-67.582-4.532-139.493-15.5-194.89-61.668C277.348,12.338,255.995,5.677,239.136,1.8c-32.035-7.366-64.07,8.541-85.41,35.32C121.587,77.45,24.267,209.6,0,203.565" transform="translate(37.878 309.107)" fill="none" stroke="#eeeeef" stroke-width="1" opacity="0.27"/>
    <path id="Path_5093" data-name="Path 5093" d="M883.79,708.834C935.03,711,947.37,598.228,910.93,533.3c-31.045-55.315-31.266-95.585-64.523-148.359-32.039-50.843-70.147-60.171-93.78-74.679-18.121-11.125-54.187-32.694-80.891-76.954-10.147-16.819-19.443-35.776-25.346-58.862-22.38-87.5-85.366-74.392-145.374-78.536C432.8,91.2,359.694,79.484,303.389,30.846c-21.505-18.577-43.14-25.621-60.471-29.311-32.991-7.024-65.881,10.723-87.38,39.569C123.051,84.7,22.919,223.721,0,218.022" transform="translate(35.775 292.101)" fill="none" stroke="#eeeeef" stroke-width="1" opacity="0.27"/>
    <path id="Path_5094" data-name="Path 5094" d="M897.992,721.738c53.376,2.257,65.505-112.491,27.858-177.307-32.512-55.974-32.441-96.474-66.7-149.979-33.106-51.7-72.325-60.3-96.3-74.427-18.337-10.806-55.288-32.531-82.215-78.232-10.166-17.252-19.389-36.842-25.127-60.708-21.785-90.615-85.975-76.7-147.1-81.046C439.555,95.144,365.246,82.7,308.044,31.571,286.416,12.239,264.505,4.812,246.7,1.308c-33.947-6.683-67.685,12.9-89.348,43.818C124.529,91.976,21.571,237.883,0,232.519" transform="translate(33.669 275.057)" fill="none" stroke="#eeeeef" stroke-width="1" opacity="0.27"/>
    <path id="Path_5095" data-name="Path 5095" d="M912.193,734.672c55.51,2.347,67.427-114.362,28.578-179.085-33.986-56.619-33.618-97.36-68.878-151.6-34.172-52.564-74.5-60.428-98.814-74.173-18.553-10.491-56.393-32.367-83.54-79.511-10.186-17.689-19.337-37.909-24.911-62.558-21.189-93.724-86.581-79.009-148.829-83.553C446.31,99.122,370.787,85.95,312.7,32.326,290.946,12.244,268.76,4.432,250.486,1.112,215.583-5.229,181,16.183,159.169,49.177,126.016,99.28,20.222,252.074,0,247.045" transform="translate(31.565 257.981)" fill="none" stroke="#eeeeef" stroke-width="1" opacity="0.27"/>
    <path id="Path_5096" data-name="Path 5096" d="M926.393,747.633c57.645,2.438,69.345-116.218,29.3-180.86-35.466-57.249-34.793-98.249-71.054-153.221C849.4,360.129,807.956,352.994,783.3,339.631c-18.769-10.173-57.5-32.2-84.866-80.789a224.123,224.123,0,0,1-24.692-64.4c-20.59-96.834-87.189-81.318-150.558-86.063-70.123-5.249-146.87-19.134-205.835-75.265C295.471,12.279,273.016,4.078,254.268.942c-35.859-6-71.274,17.236-93.286,52.317C127.51,106.6,18.875,266.294,0,261.6" transform="translate(29.461 240.879)" fill="none" stroke="#eeeeef" stroke-width="1" opacity="0.27"/>
    <path id="Path_5097" data-name="Path 5097" d="M940.594,760.616c59.78,2.528,71.259-118.059,30.015-182.637-36.955-57.862-35.971-99.132-73.231-154.839-36.308-54.283-78.855-60.691-103.848-73.668-18.985-9.86-58.612-32.031-86.19-82.067a227.582,227.582,0,0,1-24.475-66.254c-19.99-99.943-87.8-83.623-152.287-88.569-70.76-5.427-148.74-20.019-208.57-78.666C300,12.336,277.27,3.748,258.051.8c-36.814-5.653-73.059,19.4-95.254,56.565C129.014,113.939,17.526,280.535,0,276.177" transform="translate(27.356 223.754)" fill="none" stroke="#eeeeef" stroke-width="1" opacity="0.27"/>
    <path id="Path_5098" data-name="Path 5098" d="M954.794,773.619c61.915,2.619,73.169-119.889,30.734-184.415-38.449-58.461-37.149-100.015-75.408-156.458-37.376-55.14-81.032-60.823-106.364-73.416-19.2-9.545-59.726-31.86-87.515-83.346a231.09,231.09,0,0,1-24.258-68.1c-19.387-103.05-88.406-85.927-154.016-91.076-71.394-5.6-150.616-20.9-211.305-82.068-22.148-22.324-45.136-31.3-64.827-34.07-37.769-5.31-74.843,21.549-97.223,60.813C130.522,121.287,16.177,294.795,0,290.772" transform="translate(25.252 206.611)" fill="none" stroke="#eeeeef" stroke-width="1" opacity="0.27"/>
    <path id="Path_5099" data-name="Path 5099" d="M969,786.639c64.048,2.709,75.083-121.707,31.454-186.191-39.95-59.046-38.327-100.9-77.586-158.079-38.445-55.994-83.207-60.957-108.88-73.162-19.417-9.234-60.842-31.689-88.84-84.624a234.953,234.953,0,0,1-24.04-69.95c-18.783-106.157-89.013-88.233-155.745-93.586-72.029-5.778-152.5-21.76-214.041-85.467C309.032,12.511,285.78,3.142,265.618.558,226.894-4.4,189,24.256,166.426,65.62,132.037,128.645,14.83,309.074,0,305.386" transform="translate(23.148 189.448)" fill="none" stroke="#eeeeef" stroke-width="1" opacity="0.27"/>
    <path id="Path_5100" data-name="Path 5100" d="M983.2,799.673c66.185,2.8,76.986-123.513,32.171-187.967-41.455-59.618-39.5-101.781-79.762-159.7-39.515-56.849-85.385-61.092-111.4-72.91-19.633-8.92-61.96-31.514-90.164-85.9a238.849,238.849,0,0,1-23.822-71.8C692.042,112.132,620.6,130.861,552.748,125.3c-72.666-5.955-154.4-22.624-216.777-88.868C313.547,12.623,290.035,2.863,269.4.462,229.721-4.154,191,26.3,168.241,69.773,133.554,136.011,13.481,323.367,0,320.013" transform="translate(21.043 172.273)" fill="none" stroke="#eeeeef" stroke-width="1" opacity="0.27"/>
    <path id="Path_5101" data-name="Path 5101" d="M997.4,812.719c68.323,2.89,78.9-125.306,32.887-189.744C987.324,562.8,989.6,520.314,948.348,461.657c-40.584-57.7-87.559-61.228-113.913-72.659-19.849-8.608-63.082-31.34-91.49-87.18a242.9,242.9,0,0,1-23.606-73.646c-17.571-112.37-90.265-92.653-159.2-98.6-73.337-5.93-156.3-23.478-219.512-92.267C318.061,12.748,294.291,2.6,273.185.379c-40.637-4.27-80.171,27.979-103.13,73.56C135.075,143.383,12.135,337.67,0,334.654" transform="translate(18.939 155.086)" fill="none" stroke="#eeeeef" stroke-width="1" opacity="0.27"/>
    <path id="Path_5102" data-name="Path 5102" d="M1011.6,825.778c70.452,2.98,80.8-127.092,33.611-191.521-44.481-60.721-41.865-103.541-84.118-162.938-41.654-58.555-89.735-61.366-116.429-72.407-20.064-8.3-64.206-31.162-92.815-88.457a247.138,247.138,0,0,1-23.388-75.495c-16.965-115.475-90.871-94.97-160.93-101.109-73.971-6.122-158.216-24.328-222.248-95.665C322.57,12.885,298.545,2.343,276.967.307c-41.59-3.923-81.942,30.113-105.1,77.809C136.6,150.76,10.784,351.988,0,349.3" transform="translate(16.837 137.883)" fill="none" stroke="#eeeeef" stroke-width="1" opacity="0.27"/>
    <path id="Path_5103" data-name="Path 5103" d="M1025.8,838.846c72.592,3.07,82.708-128.866,34.324-193.3-45.994-61.256-43.038-104.42-86.29-164.56-42.725-59.407-91.911-61.5-118.945-72.153-20.279-7.988-65.332-30.985-94.141-89.737-10.37-21.149-18.9-46.429-23.169-77.341C721.222,123.18,646.1,144.471,574.92,138.14c-74.6-6.314-160.135-25.17-224.985-99.065C327.08,13.031,302.8,2.1,280.753.246,238.206-3.329,197.041,32.487,173.684,82.3,138.126,158.143,9.437,366.314,0,363.967" transform="translate(14.73 120.674)" fill="none" stroke="#eeeeef" stroke-width="1" opacity="0.27"/>
    <path id="Path_5104" data-name="Path 5104" d="M1040,851.911c74.723,3.161,84.617-130.632,35.049-195.074-47.523-61.777-44.224-105.3-88.473-166.179-43.8-60.257-94.086-61.642-121.462-71.9-20.494-7.678-66.458-30.806-95.465-91.013-10.4-21.58-18.851-47.494-22.951-79.19-15.748-121.682-92.084-99.607-164.388-106.126-75.238-6.506-162.061-26.013-227.721-102.465-23-26.786-47.542-38.049-70.055-39.782C241.013-2.928,199.054,34.549,175.5,86.486,139.652,165.515,8.089,380.637,0,378.624" transform="translate(12.626 103.47)" fill="none" stroke="#eeeeef" stroke-width="1" opacity="0.27"/>
    <path id="Path_5105" data-name="Path 5105" d="M1054.2,865c76.857,3.25,86.524-132.386,35.765-196.851-49.048-62.285-45.495-106.041-90.648-167.8-44.963-60.975-96.261-61.784-123.979-71.647-20.71-7.371-67.588-30.627-96.789-92.293-10.424-22.011-18.795-48.558-22.734-81.038C740.681,130.586,663.125,153.447,589.7,146.739c-75.872-6.7-163.993-26.849-230.455-105.866C336.089,13.344,311.3,1.68,288.318.139,243.847-2.638,201.072,36.63,177.313,90.693,141.182,172.907,6.741,394.984,0,393.308" transform="translate(10.522 86.24)" fill="none" stroke="#eeeeef" stroke-width="1" opacity="0.27"/>
    <path id="Path_5106" data-name="Path 5106" d="M1068.4,878.095c79,3.34,88.437-134.135,36.487-198.628-50.575-62.786-46.66-106.942-92.824-169.418-46.017-61.849-98.413-62.005-126.5-71.4-20.907-7.12-68.719-30.447-98.115-93.57C777,322.64,768.756,295.44,764.935,262.2c-14.357-127.963-93.3-104.241-167.846-111.141-76.5-6.893-165.93-27.681-233.19-109.266C340.591,13.519,315.562,1.452,292.1.1c-45.423-2.447-89.013,38.611-112.975,94.8C142.713,180.3,5.392,409.337,0,407.995" transform="translate(8.419 69.002)" fill="none" stroke="#eeeeef" stroke-width="1" opacity="0.27"/>
    <path id="Path_5107" data-name="Path 5107" d="M1082.6,891.2c81.127,3.431,90.337-135.875,37.2-200.4-52.108-63.275-47.82-107.846-95-171.039-47.07-62.723-100.595-62.13-129.012-71.143-21.128-6.8-69.853-30.267-99.441-94.849-10.479-22.874-18.649-50.7-22.3-84.734-13.785-131.044-93.9-106.559-169.575-113.648C527.342,148.294,436.6,126.869,368.552,42.713,345.091,13.7,319.82,1.233,295.883.075,249.51-2.043,205.106,40.8,180.94,99.127,144.242,187.7,4.044,423.7,0,422.691" transform="translate(6.314 51.759)" fill="none" stroke="#eeeeef" stroke-width="1" opacity="0.27"/>
    <path id="Path_5108" data-name="Path 5108" d="M1096.806,904.3c83.262,3.521,92.25-137.606,37.919-202.181-53.641-63.753-48.979-108.747-97.179-172.659-48.122-63.6-102.775-62.252-131.527-70.89-21.347-6.48-70.989-30.085-100.765-96.126-10.508-23.307-18.605-51.758-22.081-86.583-13.215-134.124-94.511-108.877-171.3-116.157C534.1,152.43,442.043,130.371,373.208,43.641,349.591,13.885,324.078,1.018,299.668.052c-47.325-1.789-92.543,42.843-116.912,103.3C145.776,195.1,2.7,438.061,0,437.39" transform="translate(4.209 34.51)" fill="none" stroke="#eeeeef" stroke-width="1" opacity="0.27"/>
    <path id="Path_5109" data-name="Path 5109" d="M1111,917.415c85.4,3.612,94.157-139.331,38.641-203.958-55.174-64.223-50.144-109.65-99.358-174.279-49.174-64.47-104.956-62.377-134.044-70.636-21.567-6.159-72.181-29.85-102.089-97.406-10.557-23.718-18.559-52.816-21.863-88.43C779.648,145.5,697.174,171.51,619.259,164.04c-78.4-7.468-171.782-30.158-241.4-119.466C354.087,14.077,328.335.807,303.449.033c-48.276-1.458-94.258,44.982-118.88,107.549C147.38,202.536,1.348,452.431,0,452.1" transform="translate(2.104 17.257)" fill="none" stroke="#eeeeef" stroke-width="1" opacity="0.27"/>
    <path id="Path_5110" data-name="Path 5110" d="M1125.207,930.531c87.531,3.7,96.07-141.051,39.357-205.734s-51.3-110.553-101.531-175.9-107.14-62.5-136.562-70.386S813.48,429.836,801.409,289.55,705.686,176.038,626.65,168.376,452.906,137.4,382.516,45.513,223.927,13.736,186.384,111.818,0,466.8,0,466.8" transform="translate(0 0)" fill="none" stroke="#eeeeef" stroke-width="1" opacity="0.27"/>
  </g>
</svg>
