<svg width="1440" height="1035" viewBox="0 0 1440 1035" fill="none" xmlns="http://www.w3.org/2000/svg">
<path fill-rule="evenodd" clip-rule="evenodd" d="M1606.05 595.915V596.39C1537.53 594.437 1420.63 548.345 1225.67 431.598C1151.39 389.394 1007.98 329.568 890.208 318.644C842.156 314.186 798.377 317.872 765.324 334.221C732.303 350.557 709.981 379.545 704.789 425.704C699.172 475.688 713.625 545.793 756.308 641.745C779.87 697.216 790.545 773.771 777.491 842.943C769.102 887.409 750.906 928.826 720.022 959.64C689.138 990.453 645.572 1010.66 586.444 1012.69C508.56 1015.36 403.669 986.498 265.187 908.798C181.561 862.245 102.273 941.103 25.396 1034.45H24.7296C101.827 940.795 181.366 861.547 265.438 908.348C403.829 985.998 508.631 1014.84 586.427 1012.17C645.406 1010.14 688.861 989.999 719.661 959.271C750.463 928.539 768.613 887.217 776.988 842.847C790.02 773.778 779.359 697.336 755.833 641.951C713.111 545.91 698.647 475.717 704.275 425.651C709.489 379.289 731.913 350.174 765.09 333.764C798.236 317.369 842.106 313.668 890.247 318.134C1008.1 329.064 1151.6 388.926 1225.92 431.155H1225.93C1420.9 547.916 1537.69 593.98 1606.05 595.915M1606.05 572.148V572.637C1541.18 579.052 1423.92 537.464 1217.39 414.838C1133.78 369.589 990.69 312.02 873.951 302.043C825.062 297.865 780.798 302.033 747.49 318.956C714.21 335.862 691.849 365.513 686.714 412.307C681.323 461.448 694.915 529.49 734.784 621.515V621.522C757.052 677.971 767.341 754.884 754.415 824.042C746.051 868.805 727.965 910.322 697.112 940.958C666.253 971.598 622.631 991.346 563.209 992.558C488.043 994.089 387.582 965.959 255.667 892.682C167.033 844.201 83.6663 934.749 2.8725 1034.45H2.21327C83.2197 934.454 166.828 843.499 255.911 892.229C387.742 965.459 488.117 993.576 563.194 992.044C622.475 990.836 665.98 971.144 696.751 940.593C727.522 910.038 745.565 868.614 753.915 823.946C766.82 754.884 756.545 678.081 734.312 621.71C694.408 529.599 680.805 461.473 686.207 412.247C691.364 365.258 713.827 335.479 747.259 318.496C780.664 301.526 825.019 297.344 873.997 301.53C990.81 311.514 1133.99 369.114 1217.64 414.384L1217.65 414.391C1424.25 537.06 1541.38 578.605 1606.05 572.151L1606.05 572.148ZM1606.05 545.729V546.25C1545.94 562.993 1429.17 527.554 1209.1 398.067C1116.42 349.872 973.663 294.498 857.959 285.393C808.199 281.476 763.442 286.123 729.847 303.582C696.279 321.026 673.841 351.276 668.666 398.588C663.386 446.878 676.081 512.938 713.263 601.278L713.27 601.288C734.224 658.736 744.133 736.011 731.349 805.165C723.024 850.209 705.073 891.811 674.277 922.255C643.478 952.704 599.841 971.991 540.157 972.388C467.72 972.874 371.63 945.534 246.136 876.56C152.491 826.243 65.1514 929.081 -19.5092 1034.45H-20.1684C64.7083 928.805 152.268 825.537 246.381 876.106C371.789 945.037 467.795 972.36 540.154 971.874C599.689 971.477 643.208 952.246 673.915 921.887C704.626 891.52 722.535 850.017 730.843 805.07C743.609 736.011 733.713 658.843 712.788 601.469C675.57 513.044 662.865 446.899 668.156 398.527C673.352 351.024 695.89 320.647 729.609 303.124C763.297 285.616 808.145 280.959 857.998 284.882C973.784 293.995 1116.62 349.398 1209.35 397.62L1209.36 397.627C1429.56 527.196 1546.18 562.557 1606.05 545.733V545.729ZM1606.05 515.401V515.983C1552.25 545.853 1437.39 519.169 1200.82 381.299C1099.33 330.266 956.938 277.007 842.255 268.692C791.551 265.017 746.274 270.128 712.356 288.104C678.47 306.063 655.914 336.879 650.626 384.631C645.37 432.066 657.144 496.206 691.739 581.04L691.746 581.054C711.378 639.523 720.912 717.17 708.28 786.314C700.004 831.623 682.212 873.289 651.509 903.528C620.805 933.774 577.194 952.59 517.29 952.186C447.582 951.718 355.801 925.225 236.599 860.434C139.087 808.975 48.8728 921.394 -38.6444 1030.46L-41.8483 1034.45H-42.5076L-39.0449 1030.13C48.607 920.912 138.952 808.323 236.84 859.984C355.964 924.733 447.66 951.208 517.286 951.672C577.042 952.073 620.533 933.317 651.144 903.163C681.762 873.001 699.512 831.431 707.77 786.221C720.384 717.166 710.864 639.622 691.257 581.224C656.627 496.309 644.846 432.088 650.109 384.574C655.418 336.631 678.073 305.69 712.108 287.65C746.118 269.625 791.491 264.5 842.283 268.182C957.045 276.5 1099.51 329.787 1201.05 380.849L1201.07 380.856C1437.88 518.867 1552.54 545.424 1606.04 515.405L1606.05 515.401ZM1606.05 478.775V479.52C1560.88 526.856 1450.49 513.331 1192.55 364.538C1082.56 310.787 940.553 259.555 826.88 251.942C775.149 248.476 729.297 254.048 695.018 272.527C660.763 290.993 638.059 322.359 632.59 370.503C627.299 417.074 638.13 479.339 670.222 560.799V560.82C688.521 620.331 697.69 698.353 685.229 767.494C677.017 813.051 659.412 854.759 628.837 884.786C598.257 914.816 554.713 933.154 494.632 931.963C427.657 930.634 340.125 905.041 227.076 844.315C129.238 793.615 39.2077 905.711 -48.1712 1014.5C-53.5301 1021.18 -58.8783 1027.84 -64.2194 1034.45H-64.8786C-59.4524 1027.73 -54.0156 1020.97 -48.5682 1014.18C38.9384 905.225 129.103 792.963 227.317 843.861H227.32C340.288 904.545 427.745 930.123 494.642 931.449C554.571 932.636 597.995 914.355 628.482 884.417C658.973 854.476 676.531 812.863 684.729 767.402C697.176 698.35 688.018 620.423 669.747 560.98C637.63 479.442 626.792 417.096 632.09 370.443C637.58 322.114 660.38 290.617 694.78 272.074C729.152 253.544 775.103 247.959 826.922 251.425C940.67 259.042 1082.75 310.298 1192.78 364.071L1192.8 364.081C1451.2 513.144 1561.29 526.399 1606.05 478.772L1606.05 478.775ZM1606.05 429.351V430.631C1604.65 433.778 1603.14 436.808 1601.48 439.711C1564.73 504.166 1461.29 505.839 1184.25 347.764C1066.14 291.439 924.548 242.146 811.881 235.136C759.008 231.847 712.512 237.868 677.818 256.848C641.612 276.654 620.256 307.732 614.553 356.245C609.18 401.948 619.055 462.373 648.698 540.565V540.572L648.706 540.586C665.643 601.161 674.458 679.569 662.177 748.702C654.043 794.497 636.652 836.227 606.239 866.023C575.819 895.826 532.381 913.682 472.158 911.718C407.922 909.624 324.573 884.974 217.545 828.195C119.381 778.254 29.532 890.028 -57.7087 998.552C-67.4198 1010.63 -77.099 1022.67 -86.7535 1034.44H-87.4198C-77.6767 1022.57 -67.9089 1010.42 -58.1127 998.229C29.2556 889.542 119.236 777.605 217.772 827.735C324.726 884.474 407.997 909.11 472.165 911.201C532.229 913.157 575.546 895.358 605.87 865.651C636.198 835.94 653.543 794.306 661.663 748.61C673.93 679.562 665.126 601.246 648.206 540.735C618.534 462.465 608.649 401.962 614.032 356.181C619.756 307.484 642.744 275.441 677.559 256.398C712.349 237.365 758.938 231.326 811.902 234.622C924.647 241.636 1066.31 290.954 1184.48 347.306L1184.5 347.317C1461.19 505.194 1564.42 503.652 1601.02 439.456C1602.86 436.241 1604.52 432.867 1606.04 429.351H1606.05ZM1606.05 149.522V155.356C1603.65 185.152 1604.43 217.617 1605.21 249.855C1606.73 312.917 1608.23 375.09 1585.88 414.756C1549.08 480.044 1447.79 484.287 1175.97 330.996C1050.12 272.254 908.985 224.794 797.314 218.272C743.155 215.111 695.932 221.579 660.763 241.065C625.619 260.537 602.5 293.016 596.513 341.891C591.02 386.715 599.934 445.325 627.182 520.328V520.338L627.189 520.353C642.755 582.015 651.225 660.817 639.14 729.947C631.098 775.957 613.947 817.69 583.729 847.246C553.504 876.804 510.212 894.182 449.897 891.463C388.387 888.692 309.16 865.027 208.015 812.076C109.525 762.901 19.8599 874.348 -67.2391 982.603C-81.3982 1000.2 -95.4899 1017.72 -109.543 1034.45H-110.213C-96.0712 1017.62 -81.8873 999.994 -67.6395 982.28C19.587 873.863 109.387 762.252 208.245 811.616H208.249C309.323 864.531 388.475 888.181 449.914 890.949C510.074 893.661 553.239 876.344 583.368 846.877C613.501 817.407 630.605 775.773 638.629 729.858C650.701 660.813 642.237 582.096 626.689 520.494C599.416 445.414 590.499 386.729 596 341.827C602.007 292.772 625.218 260.165 660.508 240.615C695.769 221.079 743.088 214.59 797.339 217.759C909.084 224.28 1050.3 271.765 1176.2 330.535L1176.22 330.546C1447.68 483.638 1548.78 479.53 1585.42 414.505C1607.71 374.958 1606.21 312.857 1604.69 249.869C1603.86 215.519 1603.03 180.902 1606.04 149.522H1606.05ZM1606.05 82.0366V83.6102C1592.05 124.411 1592.08 177.429 1592.12 229.827C1592.16 290.56 1592.2 350.454 1570.4 389.628C1533.55 455.844 1434.4 462.766 1167.71 314.235C1034.58 253.25 893.933 207.505 783.237 201.356C727.614 198.265 679.565 205.173 643.846 225.169C608.156 245.152 584.775 278.223 578.459 327.466C572.824 371.404 580.766 428.217 605.657 500.097L605.665 500.108V500.122C619.845 562.897 627.982 642.096 616.113 711.222C608.177 757.435 591.3 799.151 561.309 828.454C531.311 857.765 488.21 874.653 427.83 871.201C369.05 867.841 293.884 845.197 198.485 795.954C99.672 747.54 10.1878 858.665 -76.7694 966.654C-95.5218 989.943 -114.157 1013.08 -132.743 1034.45H-133.424C-114.742 1012.99 -96.0145 989.733 -77.1664 966.331C9.9184 858.183 99.5338 746.895 198.718 795.493H198.722C294.051 844.701 369.145 867.327 427.862 870.683C488.075 874.125 531.052 857.293 560.951 828.082C590.857 798.864 607.688 757.244 615.606 711.134C627.462 642.089 619.335 562.968 605.172 500.25C580.253 428.299 572.306 371.411 577.952 327.399C584.293 277.978 607.766 244.783 643.598 224.719C679.405 204.67 727.55 197.744 783.268 200.839C894.029 206.995 1034.75 252.758 1167.93 313.768L1167.94 313.778C1434.29 462.118 1533.24 455.33 1569.95 389.373C1591.69 350.316 1591.65 290.486 1591.6 229.823C1591.56 176.78 1591.53 123.1 1606.05 82.033V82.0366ZM1606.05 44.2624V45.3008C1581.96 87.1402 1580.49 148.887 1579.04 209.784C1577.65 268.118 1576.29 325.666 1555.08 364.28C1518.15 431.542 1421.15 441.278 1159.43 297.464C1019.55 234.445 879.448 190.291 769.733 184.376C712.441 181.285 663.439 188.625 627.096 209.15C590.779 229.66 567.093 263.351 560.401 312.981C554.596 356.022 561.568 411.049 584.144 479.856V479.871L584.151 479.888C596.921 543.801 604.736 623.407 593.1 692.53C585.289 738.927 568.709 780.607 538.984 809.649C509.251 838.701 466.374 855.1 405.977 850.939C349.914 847.076 278.747 825.488 188.972 779.838C89.8297 732.179 0.526245 842.982 -86.2927 950.705C-109.837 979.92 -133.197 1008.9 -156.532 1034.45H-157.23C-133.803 1008.83 -110.34 979.721 -86.6968 950.382C0.249786 842.503 89.6808 731.538 189.188 779.374H189.192C278.906 824.995 350.007 846.565 406.005 850.428C466.239 854.579 508.986 838.233 538.619 809.28C568.259 780.324 584.793 738.743 592.59 692.445C604.215 623.4 596.407 543.868 583.648 480.005C561.05 411.127 554.075 356.029 559.891 312.914C566.607 263.107 590.385 229.291 626.841 208.703C663.276 188.129 712.37 180.771 769.758 183.865C879.543 189.784 1019.71 233.956 1159.64 297.004L1159.66 297.014C1421.04 440.636 1517.84 431.042 1554.63 364.039C1575.78 325.538 1577.14 268.047 1578.53 209.781C1579.98 148.437 1581.46 86.2294 1606.05 44.2695V44.2624ZM1606.05 14.3138V15.1219C1572.58 55.8555 1569.25 123.312 1565.97 189.742C1563.22 245.591 1560.5 300.711 1539.95 338.691C1502.91 407.133 1408.07 419.839 1151.13 280.697C1005.1 215.873 865.618 173.176 756.871 167.349C697.655 164.174 647.561 171.932 610.499 192.999C573.462 214.055 549.432 248.419 542.315 298.467C536.326 340.597 542.315 393.846 562.617 459.626L562.624 459.647V459.661C573.969 524.737 581.475 604.761 570.088 673.877C562.415 720.448 546.168 762.068 516.737 790.84C487.299 819.619 444.69 835.536 384.304 830.687C330.953 826.399 263.719 805.899 179.424 763.719C79.9591 716.826 -9.1601 827.306 -95.8408 934.759C-119.374 963.935 -142.731 992.884 -166.069 1018.41V1017.65C-142.865 992.236 -119.644 963.446 -96.2413 934.437C-9.43654 826.827 79.8102 716.188 179.647 763.259H179.651C263.882 805.41 331.052 825.895 384.343 830.177C444.555 835.015 487.036 819.151 516.372 790.474C545.714 761.788 561.918 720.264 569.574 673.796C580.947 604.754 573.448 524.797 562.113 459.764C541.794 393.916 535.805 340.601 541.801 298.4C548.94 248.179 573.058 213.693 610.237 192.559C647.391 171.436 697.58 163.66 756.889 166.839C865.703 172.673 1005.26 215.391 1151.35 280.239L1151.37 280.25C1407.95 419.197 1502.59 406.629 1539.49 338.453C1559.99 300.576 1562.7 245.517 1565.45 189.727C1568.74 122.947 1572.1 55.1289 1606.04 14.3245L1606.05 14.3138ZM1594.18 0.955697H1594.84C1562.69 41.3739 1557.76 106.01 1552.92 169.685C1548.87 222.951 1544.87 275.54 1525.02 312.789C1487.85 382.571 1395.19 398.446 1142.86 263.933C991.345 197.564 852.558 156.174 744.771 150.266C683.332 146.899 631.973 155.061 594.086 176.699C556.223 198.322 531.81 233.417 524.226 283.925C518.038 325.134 523.053 376.607 541.1 439.392V439.41L541.107 439.424C555.549 536.16 564.275 663.089 518.633 740.905C472.962 818.768 372.93 847.462 169.908 747.6C70.1132 701.465 -18.8216 811.619 -105.364 918.807C-125.69 943.981 -145.885 968.993 -166.059 991.782V991.006C-146.02 968.341 -125.956 943.492 -105.765 918.484C-19.1016 811.141 69.9644 700.827 170.124 747.132H170.131C372.835 846.842 472.661 818.275 518.194 740.643C563.754 662.964 555.036 536.163 540.604 439.516C522.539 376.667 517.524 325.127 523.719 283.851C531.325 233.172 555.829 197.957 593.831 176.252C631.807 154.565 683.262 146.382 744.8 149.752C852.65 155.664 991.505 197.067 1143.07 263.465L1143.09 263.475C1395.08 397.804 1487.53 382.068 1524.57 312.548C1544.36 275.394 1548.36 222.859 1552.41 169.649C1557.25 106.059 1562.16 41.5121 1594.18 0.959241V0.955697ZM1573.57 0.955697H1574.17C1551.25 40.5693 1545.53 95.4479 1539.89 149.621C1534.63 200.176 1529.43 250.114 1510.36 286.516C1473.01 357.829 1382.57 377.117 1134.58 247.161C978.356 179.545 840.373 139.307 733.554 133.148C669.528 129.455 616.708 138.003 577.874 160.236C539.062 182.455 514.217 218.354 506.115 269.373C499.721 309.642 503.754 359.332 519.583 419.151V419.162L519.59 419.187C531.789 516.908 540.859 642.67 497.449 720.168C454.011 797.722 358.102 826.951 160.381 731.474C60.2604 686.101 -28.4938 795.929 -114.898 902.851C-132.02 924.042 -149.05 945.112 -166.059 964.846V964.059C-149.181 944.463 -132.282 923.552 -115.295 902.528C-28.7702 795.454 60.1115 685.467 160.593 731.006H160.6C357.992 826.331 453.7 797.233 497.003 719.92C540.331 642.557 531.275 516.918 519.083 419.279C503.237 359.396 499.204 309.635 505.608 269.298C513.735 218.113 538.668 182.097 577.616 159.797C616.538 137.511 669.46 128.941 733.582 132.637C840.469 138.801 978.512 179.052 1134.79 246.693L1134.81 246.701C1382.45 376.472 1472.7 357.33 1509.91 286.275C1528.92 249.965 1534.12 200.073 1539.38 149.564C1545.01 95.4514 1550.72 40.6367 1573.57 0.952153V0.955697ZM1555.28 0.955697H1555.84C1539.12 37.7729 1532.96 83.915 1526.87 129.543C1520.5 177.241 1514.21 224.379 1496.02 259.779C1458.44 332.867 1370.24 355.873 1126.29 230.394C966.235 161.87 829.205 122.625 723.361 116.022C656.315 111.84 601.791 120.75 561.869 143.61C521.972 166.456 496.648 203.249 487.976 254.835C481.366 294.147 484.424 342.05 498.062 398.924V398.942L498.07 398.956C508.025 497.662 517.435 622.252 476.262 699.438C435.057 776.684 343.262 806.448 150.85 715.351C50.4039 670.744 -38.1694 780.249 -124.428 886.902C-138.35 904.116 -152.211 921.252 -166.055 937.658V936.864C-152.343 920.604 -138.612 903.627 -124.825 886.579C-38.4388 779.775 50.255 670.113 151.063 714.884H151.07C343.148 805.824 434.738 776.195 475.812 699.197C516.914 622.142 507.511 497.655 497.563 399.024C483.914 342.089 480.855 294.126 487.476 254.749C496.177 203 521.585 166.088 561.621 143.164C601.635 120.25 656.255 111.315 723.4 115.508C829.304 122.118 966.398 161.374 1126.52 229.926L1126.54 229.933C1370.12 355.228 1458.14 332.371 1495.57 259.545C1513.73 224.22 1520.01 177.128 1526.38 129.476C1532.46 83.8937 1538.61 37.8048 1555.29 0.955697H1555.28ZM1538.16 0.955697H1538.71C1526.34 33.6652 1520.07 71.7371 1513.88 109.455C1506.54 154.101 1499.28 198.244 1482.06 232.453C1444.2 307.611 1358.3 334.732 1118.02 213.63C955.109 144.574 819.214 106.166 714.376 98.9106C643.783 94.0231 587.277 103.266 546.101 126.789C504.952 150.302 479.108 188.09 469.804 240.314C462.978 278.641 465.059 324.748 476.538 378.694V378.705L476.542 378.726L476.648 380.115C484.155 477.152 493.37 596.269 457.797 673.073C420.263 754.121 332.931 788.043 141.313 699.239C40.5404 655.394 -47.8487 764.577 -133.973 870.96C-144.701 884.212 -155.391 897.417 -166.069 910.279V909.478C-155.525 896.769 -144.967 883.726 -134.373 870.637C-48.1287 764.102 40.3844 654.763 141.515 698.768H141.522C332.785 787.412 419.913 753.64 457.325 672.856C492.842 596.174 483.63 477.131 476.131 380.154L476.024 378.786C464.534 324.783 462.454 278.616 469.291 240.222C478.619 187.838 504.548 149.929 545.835 126.343C587.1 102.767 643.701 93.5021 714.397 98.3967C819.295 105.655 955.251 144.082 1118.21 213.158L1118.23 213.165C1358.15 334.087 1443.86 307.119 1481.59 232.219C1498.78 198.081 1506.03 153.973 1513.36 109.37C1519.55 71.6946 1525.8 33.6652 1538.15 0.955697H1538.16ZM1521.56 0.955697H1522.1C1512.86 28.6289 1506.86 59.1055 1500.91 89.3483C1492.77 130.691 1484.72 171.599 1468.59 204.351C1430.37 281.965 1346.87 313.729 1109.73 196.858C945.129 127.714 810.619 89.9827 706.841 81.8558C632.048 76.0008 573.224 85.5241 530.609 109.749C488.015 133.963 461.603 172.878 451.608 225.815C444.563 263.135 445.672 307.427 455.022 358.453V358.471V358.488C455.415 365.694 455.83 373.013 456.248 380.417C461.603 474.841 467.752 583.237 435.546 654.405C399.693 733.625 316.393 766.714 131.786 683.11C30.6839 640.03 -57.5173 748.887 -143.5 855.004C-151.035 864.304 -158.552 873.583 -166.062 882.737V881.926C-158.687 872.931 -151.301 863.815 -143.9 854.681C-57.7973 748.415 30.5315 639.403 131.995 682.642H131.999C316.244 766.083 399.346 733.147 435.078 654.193C467.235 583.138 461.089 474.813 455.737 380.448C455.319 373.052 454.901 365.736 454.511 358.535C445.154 307.452 444.045 263.103 451.102 225.722C461.125 172.63 487.621 133.598 530.35 109.306C573.058 85.0244 631.98 75.4798 706.877 81.3419C810.711 89.4723 945.274 127.218 1109.94 196.387L1109.95 196.394C1346.71 313.08 1430.03 281.473 1468.13 204.12C1484.23 171.429 1492.27 130.553 1500.4 89.2455C1506.34 59.0417 1512.33 28.6076 1521.55 0.952153L1521.56 0.955697ZM1504.97 0.955697H1505.5C1498.66 22.9227 1493.3 46.1444 1487.97 69.2243C1479.26 106.931 1470.64 144.266 1455.78 175.207C1417.07 255.777 1336.1 292.91 1101.45 180.091C872.285 84.6274 705.292 50.0005 594.908 66.6547C556.677 72.4247 525.24 84.3439 500.366 102.019C475.504 119.69 457.194 143.114 445.211 171.896C427.058 215.497 423.425 271.404 433.498 338.226V338.237V338.255C433.916 351.421 434.458 364.992 435.007 378.751C438.651 469.972 442.624 569.443 413.345 635.777C379.193 713.158 299.881 745.438 122.256 666.991C20.8275 624.669 -67.193 733.204 -153.037 839.055C-157.382 844.414 -161.728 849.769 -166.066 855.096V854.281C-161.859 849.113 -157.652 843.925 -153.438 838.729C-67.473 732.729 20.6715 624.042 122.458 666.516H122.461C299.725 744.807 378.842 712.676 412.874 635.568C442.103 569.341 438.133 469.933 434.493 378.768C433.948 365.067 433.405 351.552 432.987 338.29C422.9 271.379 426.551 215.387 444.74 171.698C456.758 142.827 475.124 119.325 500.068 101.601C525.005 83.8796 556.517 71.9285 594.83 66.1479C705.307 49.483 872.395 84.117 1101.66 179.619L1101.67 179.626C1335.94 292.265 1416.72 255.292 1455.31 174.983C1470.15 144.096 1478.77 106.786 1487.47 69.1073C1492.79 46.0699 1498.14 22.8908 1504.97 0.955697H1504.97ZM1488 0.955697H1488.54C1483.69 16.7416 1479.37 32.9457 1475.06 49.079C1466.1 82.6745 1457.21 115.972 1443.83 144.588C1404.47 228.806 1326.29 272.371 1093.18 163.327C865.569 69.2384 702.22 34.9057 592.307 47.5479C549.053 52.5239 514.079 64.7727 486.721 83.5181C459.374 102.256 439.64 127.495 426.852 158.443C409.135 201.338 404.761 255.214 411.977 317.996V318.007V318.021C412.154 336.741 412.661 356.075 413.172 375.611C415.468 463.316 417.871 555.114 391.215 617.18C358.782 692.704 283.414 724.215 112.729 650.868C10.971 609.309 -76.8651 717.52 -162.571 823.106L-166.066 827.409V826.594L-162.972 822.78C-77.1451 717.049 10.8151 608.688 112.927 650.393H112.931C283.255 723.588 358.428 692.225 390.74 616.978C417.354 555.008 414.951 463.273 412.658 375.621C412.147 356.114 411.64 336.809 411.463 318.038C404.237 255.175 408.621 201.221 426.374 158.244C439.2 127.2 458.995 101.888 486.427 83.0892C513.848 64.2978 548.901 52.0171 592.239 47.034C702.241 34.3811 865.675 68.7245 1093.37 162.845L1093.38 162.852C1326.11 271.723 1404.12 228.32 1443.36 144.365C1456.72 115.795 1465.6 82.5151 1474.56 48.9408C1478.85 32.85 1483.16 16.692 1487.99 0.948608L1488 0.955697ZM1470.3 0.955697H1470.84C1467.89 10.2344 1465.03 19.5841 1462.19 28.9124C1453.43 57.6843 1444.72 86.2329 1433.17 111.723C1392.88 200.605 1317.95 252.286 1084.89 146.555C808.064 32.9386 629.638 7.09427 522.826 41.5015C416.095 75.8803 380.894 170.479 390.471 297.773V297.787V297.797C390.18 321.756 390.549 346.506 390.917 371.343C392.172 455.369 393.441 540.402 369.17 598.637C338.474 672.293 267.005 703.067 103.22 634.763C3.53171 594.919 -82.3905 696.854 -166.052 799.732V798.917C-82.4012 696.06 3.53525 594.366 103.411 634.281C266.838 702.44 338.116 671.811 368.695 598.435C392.923 540.299 391.658 455.32 390.404 371.35C390.035 346.498 389.663 321.735 389.953 297.801C380.366 170.266 415.66 75.4833 522.663 41.0159C629.588 6.57327 808.138 32.4141 1085.1 146.091H1085.11C1317.77 251.641 1392.53 200.137 1432.71 111.517C1444.25 86.0486 1452.95 57.5213 1461.71 28.7671C1464.54 19.4884 1467.37 10.1884 1470.31 0.962785L1470.3 0.955697ZM1451.51 0.955697H1452.05C1451.15 3.54297 1450.26 6.13024 1449.37 8.71397C1441.54 31.4182 1433.76 53.9806 1424.57 74.973C1382.87 170.192 1312.17 233.031 1076.6 129.791C788.432 12.2865 609.624 -10.9493 503.808 25.2938C398.066 61.5121 365.229 157.184 368.95 277.546V277.56C367.979 306.498 368.156 336.415 368.33 366.151C368.798 446.41 369.262 525.378 347.193 580.108C318.247 651.885 250.63 681.961 93.6893 618.633C-2.51114 581.029 -85.5272 673.657 -166.052 772.101V771.286C-85.5343 672.881 -2.50052 580.48 93.8772 618.159H93.8807C250.453 681.341 317.882 651.41 346.714 579.917C368.745 525.283 368.284 446.367 367.813 366.158C367.639 336.408 367.462 306.477 368.433 277.553C364.708 156.975 397.63 61.1187 503.637 24.8118C609.567 -11.4738 788.496 11.762 1076.82 129.323H1076.82C1311.98 232.385 1382.52 169.731 1424.11 74.771C1433.29 53.7928 1441.07 31.241 1448.9 8.55094C1449.77 6.02392 1450.64 3.49335 1451.52 0.962785L1451.51 0.955697ZM47.5154 1034.45C120.611 947.798 195.947 879.707 274.979 924.474C420.069 1006.66 529.351 1036.18 609.85 1032.27C668.493 1029.42 711.856 1008.83 742.652 977.938C773.451 947.043 791.686 905.842 800.072 861.784C813.221 792.711 802.166 716.624 777.364 662.202C731.64 561.891 716.368 489.511 722.39 438.612C727.78 393.059 750.219 364.698 783.152 348.916C816.052 333.147 859.427 329.951 906.735 334.7C1025.64 346.644 1169.45 408.83 1234.22 447.93C1419.04 559.498 1534.88 608.873 1606.05 617.691V618.166C1534.74 609.337 1418.78 559.941 1233.95 448.366C1169.22 409.291 1025.5 347.143 906.685 335.21C859.465 330.468 816.187 333.654 783.378 349.376C750.602 365.081 728.269 393.314 722.904 438.666C716.893 489.479 732.154 561.763 777.832 661.983C802.677 716.489 813.749 792.697 800.578 861.876C792.172 906.03 773.894 947.327 743.017 978.3C712.136 1009.28 668.663 1029.92 609.879 1032.78C529.29 1036.69 419.909 1007.16 274.728 924.92C196.135 880.402 121.061 948.125 48.1923 1034.45H47.5189H47.5154Z" fill="#D4D7DF"/>
</svg>
