<?xml version="1.0" encoding="utf-8"?>
<!-- Generator: Adobe Illustrator 25.4.1, SVG Export Plug-In . SVG Version: 6.00 Build 0)  -->
<svg version="1.1" id="Layer_1" xmlns="http://www.w3.org/2000/svg" xmlns:xlink="http://www.w3.org/1999/xlink" x="0px" y="0px"
	 width="270px" height="45.3px" viewBox="0 0 270 45.3" style="enable-background:new 0 0 270 45.3;" xml:space="preserve">
<style type="text/css">
	.st0{fill-rule:evenodd;clip-rule:evenodd;fill:#EE6F31;}
	.st1{fill:#EE6F31;}
	.st2{fill:#FFFFFF;}
</style>
<g>
	<g>
		<path class="st0" d="M22.3,5.6c-5.2,0-9.4,4.2-9.4,9.4c0,5.2,4.2,9.4,9.4,9.4c5.2,0,9.4-4.2,9.4-9.4C31.8,9.8,27.5,5.6,22.3,5.6
			 M14.3,26L6,34.3c-0.8,0.8-2.1,0.8-3,0c-0.8-0.8-0.8-2.1,0-3l8.3-8.3c-1.7-2.3-2.6-5-2.6-8.1c0-7.5,6.1-13.6,13.6-13.6
			c6.9,0,12.7,5.2,13.5,11.9v3.5c-0.9,6.7-6.6,11.9-13.5,11.9C19.3,28.6,16.5,27.7,14.3,26z"/>
	</g>
	<g>
		<path class="st1" d="M45,11.5l12,14.9c0.3,0.4,0.7,0.6,1.3,0.6h2.4c0.5,0,0.9-0.2,1.2-0.5c0.3-0.3,0.5-0.7,0.5-1.2V4.7
			c0-0.5-0.2-0.9-0.5-1.2C61.5,3.2,61.1,3,60.6,3h-2.1c-0.5,0-0.9,0.2-1.2,0.5c-0.3,0.3-0.5,0.7-0.5,1.2l0,13.9L45.1,3.6
			C44.7,3.2,44.3,3,43.8,3h-2.5c-0.5,0-0.9,0.2-1.2,0.5c-0.3,0.3-0.5,0.7-0.5,1.2v20.7c0,0.5,0.2,0.9,0.5,1.2
			c0.3,0.3,0.7,0.5,1.2,0.5h2.1c0.5,0,0.9-0.2,1.2-0.5c0.3-0.3,0.5-0.7,0.5-1.2L45,11.5z"/>
	</g>
	<g>
		<path class="st1" d="M67.1,3c-0.5,0-0.9,0.2-1.2,0.5c-0.3,0.3-0.5,0.7-0.5,1.2v20.8c0,0.5,0.2,0.9,0.5,1.2
			c0.3,0.3,0.7,0.5,1.2,0.5h12.4c0.5,0,0.9-0.2,1.2-0.5c0.3-0.3,0.5-0.7,0.5-1.2v-0.9c0-0.5-0.2-0.9-0.5-1.2
			c-0.3-0.3-0.7-0.5-1.2-0.5h-8.7l0-18.2c0-0.5-0.2-0.9-0.5-1.2C70.1,3.1,69.7,3,69.2,3H67.1z"/>
	</g>
	<g>
		<path class="st1" d="M83.6,3c-0.5,0-0.9,0.2-1.2,0.5c-0.3,0.3-0.5,0.7-0.5,1.2v20.7c0,0.5,0.2,0.9,0.5,1.2
			c0.3,0.3,0.7,0.5,1.2,0.5h2.1c0.5,0,0.9-0.2,1.2-0.5c0.3-0.3,0.5-0.7,0.5-1.2l0-20.7c0-0.5-0.2-0.9-0.5-1.2
			C86.6,3.1,86.2,3,85.7,3H83.6z"/>
	</g>
	<g>
		<path class="st1" d="M95.9,11.5l12,14.9c0.3,0.4,0.7,0.6,1.3,0.6h2.4c0.5,0,0.9-0.2,1.2-0.5c0.3-0.3,0.5-0.7,0.5-1.2V4.7
			c0-0.5-0.2-0.9-0.5-1.2C112.4,3.2,112,3,111.5,3h-2.1c-0.5,0-0.9,0.2-1.2,0.5c-0.3,0.3-0.5,0.7-0.5,1.2l0,13.9L96,3.6
			C95.7,3.2,95.2,3,94.7,3h-2.5c-0.5,0-0.9,0.2-1.2,0.5c-0.3,0.3-0.5,0.7-0.5,1.2v20.7c0,0.5,0.2,0.9,0.5,1.2
			c0.3,0.3,0.7,0.5,1.2,0.5h2.1c0.5,0,0.9-0.2,1.2-0.5c0.3-0.3,0.5-0.7,0.5-1.2L95.9,11.5z"/>
	</g>
	<g>
		<path class="st1" d="M118,3c-0.5,0-0.9,0.2-1.2,0.5c-0.3,0.3-0.5,0.7-0.5,1.2v20.8c0,0.5,0.2,0.9,0.5,1.2c0.3,0.3,0.7,0.5,1.2,0.5
			h13.6c0.5,0,0.9-0.2,1.2-0.5c0.3-0.3,0.5-0.7,0.5-1.2v-0.9c0-0.5-0.2-0.9-0.5-1.2s-0.7-0.5-1.2-0.5h-9.8l0-5.7h8.6
			c0.5,0,0.9-0.2,1.2-0.5c0.3-0.3,0.5-0.7,0.5-1.2v-1c0-0.5-0.2-0.9-0.5-1.2c-0.3-0.3-0.7-0.5-1.2-0.5h-8.6V7.2h9.8
			c0.5,0,0.9-0.2,1.2-0.5c0.3-0.3,0.5-0.7,0.5-1.2V4.6c0-0.5-0.2-0.9-0.5-1.2C132.4,3.1,132,3,131.5,3H118z"/>
	</g>
	<g>
		<path class="st2" d="M150.5,20.6l-7-16.7c-0.1-0.3-0.3-0.6-0.6-0.7c-0.3-0.2-0.6-0.3-0.9-0.3h-2.3c-0.8,0-1.3,0.2-1.5,0.6
			c-0.3,0.4-0.3,1,0,1.7l9,20.8c0.1,0.3,0.3,0.5,0.6,0.7c0.3,0.2,0.6,0.3,0.9,0.3h3.4c0.3,0,0.6-0.1,0.9-0.3
			c0.3-0.2,0.5-0.4,0.6-0.7l9-20.8c0.3-0.7,0.3-1.2,0-1.7c-0.3-0.4-0.8-0.6-1.5-0.6h-2c-0.3,0-0.6,0.1-0.9,0.3
			c-0.3,0.2-0.5,0.4-0.6,0.7L150.5,20.6z"/>
	</g>
	<g>
		<path class="st2" d="M165.7,2.8c-0.5,0-0.9,0.2-1.2,0.5C164.2,3.6,164,4,164,4.5v20.7c0,0.5,0.2,0.9,0.5,1.2
			c0.3,0.3,0.7,0.5,1.2,0.5h2.1c0.5,0,0.9-0.2,1.2-0.5c0.3-0.3,0.5-0.7,0.5-1.2l0-20.7c0-0.5-0.2-0.9-0.5-1.2
			c-0.3-0.3-0.7-0.5-1.2-0.5H165.7z"/>
	</g>
	<g>
		<path class="st2" d="M182,22.7h-4V7h4c1.2,0,2.3,0.1,3.3,0.4c1,0.3,1.7,0.6,2.4,1.1c0.6,0.5,1.1,1,1.6,1.7
			c0.4,0.7,0.7,1.4,0.9,2.2c0.2,0.8,0.3,1.6,0.3,2.5c0,1.1-0.2,2.1-0.5,3.1c-0.3,0.9-0.8,1.7-1.4,2.5c-0.6,0.7-1.5,1.3-2.6,1.7
			C184.7,22.5,183.5,22.7,182,22.7 M174.2,2.8c-0.5,0-0.9,0.2-1.2,0.5c-0.3,0.3-0.5,0.7-0.5,1.2v20.8c0,0.5,0.2,0.9,0.5,1.2
			c0.3,0.3,0.7,0.5,1.2,0.5h7.7c2,0,3.8-0.2,5.4-0.7c1.6-0.5,2.9-1.1,3.9-1.8c1-0.8,1.9-1.7,2.6-2.7c0.7-1,1.2-2.1,1.5-3.3
			c0.3-1.1,0.4-2.3,0.4-3.6c0-1-0.1-2-0.3-3c-0.2-1-0.5-1.9-0.9-2.8c-0.4-0.9-1-1.7-1.7-2.5c-0.7-0.7-1.6-1.4-2.6-2
			c-1-0.6-2.2-1-3.6-1.3c-1.4-0.3-3-0.5-4.6-0.5H174.2z"/>
	</g>
	<g>
		<path class="st2" d="M199,2.8c-0.5,0-0.9,0.2-1.2,0.5c-0.3,0.3-0.5,0.7-0.5,1.2v20.8c0,0.5,0.2,0.9,0.5,1.2
			c0.3,0.3,0.7,0.5,1.2,0.5h2.1c0.5,0,0.9-0.2,1.2-0.5c0.3-0.3,0.5-0.7,0.5-1.2V17h12v8.2c0,0.5,0.2,0.9,0.5,1.2
			c0.3,0.3,0.7,0.5,1.2,0.5h2.1c0.5,0,0.9-0.2,1.2-0.5c0.3-0.3,0.5-0.7,0.5-1.2V4.5c0-0.5-0.2-0.9-0.5-1.2c-0.3-0.3-0.7-0.5-1.2-0.5
			h-2.1c-0.5,0-0.9,0.2-1.2,0.5c-0.3,0.3-0.5,0.7-0.5,1.2v8.2h-12V4.5c0-0.5-0.2-0.9-0.5-1.2c-0.3-0.3-0.7-0.5-1.2-0.5H199z"/>
	</g>
	<g>
		<path class="st2" d="M232.7,12.2l-5.4-8.6c-0.3-0.5-0.8-0.8-1.4-0.8h-2.1c-0.9,0-1.5,0.2-1.7,0.7c-0.3,0.5-0.1,1.1,0.3,1.8
			l4.9,7.6c0.2,0.3,0.5,0.8,0.9,1.3c0.4,0.5,0.6,0.8,0.7,1c0.4,0.5,0.8,1.2,1.2,2.2l0,0.3v8.7c0,0.1,0,0.2,0.1,0.3
			c0.1,0.1,0.2,0.1,0.3,0.1h4.5c0.1,0,0.2,0,0.3-0.1c0.1-0.1,0.1-0.2,0.1-0.3V26c0-1.7,0-3.2,0-4.6v-2.9l0-0.8l0-0.3
			c0.2-0.8,0.6-1.5,1.2-2.2c0.8-1.1,1.3-1.8,1.6-2.3l4.8-7.7c0.5-0.8,0.6-1.4,0.3-1.8c-0.3-0.5-0.8-0.7-1.7-0.7h-2
			c-0.6,0-1.1,0.3-1.4,0.8L232.7,12.2z"/>
	</g>
	<g>
		<path class="st2" d="M255.4,9.6l2.9,7h-5.8L255.4,9.6z M262.2,25.9c0.1,0.3,0.3,0.5,0.6,0.7c0.3,0.2,0.6,0.3,0.9,0.3h2.1
			c0.8,0,1.3-0.2,1.5-0.6c0.3-0.4,0.3-1,0-1.7l-8.9-20.8c-0.1-0.3-0.3-0.5-0.6-0.7c-0.3-0.2-0.6-0.3-0.9-0.3h-3
			c-0.3,0-0.6,0.1-0.9,0.3c-0.3,0.2-0.5,0.4-0.6,0.7l-8.9,20.8c-0.3,0.7-0.3,1.3,0,1.7c0.3,0.4,0.8,0.6,1.5,0.6h2
			c0.3,0,0.6-0.1,0.9-0.3c0.3-0.2,0.5-0.4,0.6-0.7l2.1-5.1h9.4L262.2,25.9z"/>
	</g>
	<g>
		<path class="st1" d="M13.3,15.6c0.2,0,0.5,0,0.8,0.1c0.6,0.2,0.6,0.3,0.7,0.5c0,0.1,0.1,0.3,0.2,0.5c0.1,0.2,0.3,0.3,0.5,0.4
			c0.1,0,0.1,0,0.2,0c0.4,0,0.8-0.2,1-0.3c0.1-0.1,0.1-0.2,0.1-0.2c0-0.1-0.2-0.2-0.5-0.2c-0.1,0-0.2,0-0.3,0
			c0.1-0.1,0.2-0.2,0.2-0.3c0-0.2-0.1-0.3-0.2-0.3c-0.1-0.1-0.2-0.1-0.3-0.2c-0.1-0.1,0-0.1,0-0.2c0-0.1,0.1-0.2,0.1-0.4
			c0-0.1-0.1-0.2-0.1-0.2c-0.1-0.1-0.3,0-0.4,0.1c-0.1,0.1-0.3,0.2-0.4,0.2c0,0-0.1-0.1-0.1-0.1c-0.1-0.1,0-0.2,0-0.2
			c0.2-0.2,0.8-0.3,1-0.3c0.1,0,0.2,0.1,0.3,0.2c0.2,0.2,0.4,0.4,0.7,0.3c0.2-0.1,0.4-0.4,0.6-1c0.2-0.5,0.4-1,0.7-1.2
			c0.3-0.3,0.6-0.3,0.9-0.3c0.1,0,0.3,0,0.4,0c0.1,0,0.2-0.1,0.3-0.2c0.1-0.1,0-0.3-0.1-0.5c0,0,0-0.1-0.1-0.1c0.1,0,0.1,0,0.2,0
			c0,0,0,0,0,0c0,0,0.1,0.1,0.1,0.2c0.1,0.2,0.2,0.5,0.6,0.5c0.2,0,0.3-0.1,0.4-0.2c0.1-0.2,0.1-0.4,0-0.8c-0.1-0.2-0.1-0.5-0.2-0.7
			c0-0.3-0.1-0.5-0.3-0.6c-0.2-0.1-0.4,0-0.6,0c0,0,0,0,0,0c0-0.1-0.1-0.1-0.1-0.2c-0.1-0.2-0.2-0.5-0.4-0.6c-0.1,0-0.1-0.1-0.2-0.1
			c-0.2,0-0.3,0.2-0.4,0.5c-0.1,0.1-0.2,0.4-0.3,0.4c-0.3-0.1-0.5,0.2-0.6,0.4c0-0.1-0.1-0.1-0.1-0.4c0-0.2,0.6-0.6,1-0.8
			c0.4-0.2,0.7-0.5,0.8-0.7c0-0.1,0.1-0.2,0-0.3c-0.1-0.1-0.2-0.1-0.4,0C19,7.9,18.9,8,18.8,8c0-0.1,0.1-0.2,0.1-0.2
			c0-0.1,0.1-0.2,0-0.3c-0.1-0.1-0.2,0-0.3,0C18.3,7.7,17.7,8,17.5,8c0,0-0.1,0-0.1,0c0,0,0-0.1,0-0.2c0,0,0-0.1,0-0.2
			c0-0.1-0.1-0.3-0.2-0.3c0,0-0.1-0.1-0.1-0.1c0.3-0.2,0.6-0.4,1-0.6c0.1,0.1,0.4,0.3,1.3,0.5c0.2,0,0.4,0.1,0.5,0.2
			c0.1,0.1,0.2,0.1,0.3,0.1c0.1,0,0.3-0.1,0.4-0.4c0.1-0.2,0.3-0.4,0.6-0.7c0,0.1,0,0.1,0,0.1c0,0.2,0.1,0.4,0.2,0.5
			c0,0.1,0.1,0.1,0.1,0.2c0,0,0,0-0.1,0c-0.1,0.1-0.3,0.2-0.3,0.4c0,0.1,0,0.3,0.2,0.4c0.2,0.2,0.2,0.4,0.1,0.7
			c0,0.1-0.1,0.2-0.1,0.4c0,0.1,0,0.2,0,0.3c-0.1,0.6-0.1,1,0.2,1.1c0,0,0.1,0,0.2,0c0.1,0,0.1,0,0.2-0.1c0.3-0.1,0.3-0.3,0.4-0.5
			c0.1-0.2,0.3-0.5,0.9-1c1.1-0.9,1.9-2.7,1.9-3.1c1.5,0.4,2.9,1.2,4,2.2c-0.1,0.2-0.3,0.5-0.5,0.4c-0.1,0-0.1,0-0.1-0.2
			c0-0.2,0-0.6-0.6-0.7c-0.8-0.2-2,0.2-2.2,0.9c-0.2,0.5-0.2,1,0,1.3c0.1,0.1,0.2,0.2,0.4,0.3c0.1,0,0.1,0,0.2,0.1
			c0,0-0.1,0.1-0.1,0.1c-0.3,0.5-0.7,0.9-0.8,0.9c-0.2,0-0.4,0.2-0.4,0.5c0,0.1,0,0.3,0,0.4c0,0,0,0,0,0c-0.1-0.1-0.3-0.1-0.5-0.1
			c-0.1,0-0.2,0.1-0.2,0.2c-0.1,0.3,0,0.7,0.1,0.9c0.1,0.1,0.2,0.2,0.3,0.2c0,0,0.1,0,0.1,0c0,0,0,0,0.1,0c-0.1,0.1-0.2,0.1-0.3,0.2
			l-0.1,0.1c-0.1,0.2-0.3,0.5-0.4,0.6l0,0c-0.2,0.2-0.5,0.4-0.6,0.9c-0.1,0.6,0.2,1.8,0.9,2c0.5,0.1,1.1,0.1,1.5,0
			c0.1,0,0.3,0,0.4,0c0.2,0,0.3,0.1,0.3,0.6c0,0.3,0.1,0.4,0.2,0.6c0.1,0.1,0.1,0.2,0.2,0.4c0,0.2,0,0.3,0,0.4c0,0.2,0,0.4,0,0.8
			c0,0.2,0,0.3,0,0.5c0,0.6,0,1.3,0.5,1.5c0.1,0,0.1,0.1,0.2,0.1c0.1,0.1,0.3,0.1,0.4,0.1c0.3,0,0.5-0.2,1-0.9
			c0.9-1.2,1.1-1.8,1.2-2.4c0.2-0.6,0.6-1.2,1-1.5c0.4-0.3,0.6-0.7,0.6-0.9c0-0.1-0.1-0.1-0.2-0.1c0,0-0.1,0-0.1,0
			c-0.3,0-1,0.1-1.3-0.4c0,0,0-0.1-0.1-0.1c0.2,0.2,0.3,0.4,0.5,0.3c0.9-0.1,1.4-0.3,1.5-0.5c0-0.1,0.1-0.1,0.1-0.2
			c0,0,0-0.1,0.1-0.1c-0.1,5.3-4.4,9.5-9.7,9.5c-5.2,0-9.4-4.1-9.6-9.2C13,15.6,13.1,15.6,13.3,15.6 M12.8,15.2c0-3.2,1.5-6,3.9-7.7
			c0.1,0,0.2,0,0.3,0.1c0,0,0.1,0.1,0.1,0.1c0,0.1,0,0.1,0,0.2c0,0.3,0.1,0.5,0.4,0.5c0.2,0,0.6-0.1,1-0.3c0,0,0,0.1,0,0.1
			c0,0,0.1,0.1,0.2,0.2c0.1,0,0.2,0,0.3,0c-0.1,0.1-0.3,0.2-0.5,0.3c-0.6,0.4-1.1,0.8-1.1,1.1c0,0.4,0.1,0.5,0.2,0.6
			c0,0,0,0,0.1,0.1c0,0.1,0.1,0.1,0.2,0.1c0.1,0,0.2-0.1,0.2-0.2c0.1-0.2,0.2-0.3,0.2-0.2c0.3,0.1,0.5-0.3,0.7-0.5
			c0-0.1,0.1-0.2,0.2-0.3c0.1,0.1,0.2,0.3,0.2,0.4c0.1,0.2,0.2,0.5,0.4,0.4c0,0,0.1,0,0.1,0c0.1,0,0.2-0.1,0.3-0.1
			c0.1,0,0.1,0.2,0.1,0.3c0,0.3,0.1,0.5,0.2,0.8c0.1,0.2,0.1,0.4,0.1,0.5c0,0,0,0-0.1,0c-0.2,0-0.2-0.1-0.3-0.3
			c-0.1-0.2-0.2-0.4-0.5-0.4c-0.1,0-0.2,0-0.3-0.1c0,0-0.1-0.1-0.2,0c-0.1,0.1-0.1,0.2,0,0.4c0,0.1,0.1,0.2,0.1,0.3
			c0,0.1,0.1,0.2,0.1,0.2c0,0,0,0-0.1,0c-0.1,0-0.2,0-0.3,0c-0.3,0-0.8-0.1-1.2,0.4c-0.3,0.3-0.5,0.8-0.7,1.3
			c-0.1,0.3-0.3,0.8-0.4,0.8c-0.1,0-0.2-0.1-0.4-0.2c-0.2-0.1-0.3-0.3-0.5-0.3c0,0-1,0-1.3,0.5c-0.1,0.1-0.1,0.3,0,0.5
			c0.1,0.2,0.2,0.3,0.3,0.3c0.2,0.1,0.4-0.1,0.6-0.2c0,0,0.1,0,0.1-0.1c0,0.1,0,0.1,0,0.1c-0.1,0.1-0.1,0.3,0,0.5
			c0.1,0.2,0.3,0.3,0.4,0.3c0,0,0.1,0,0.1,0.1c0,0-0.1,0.1-0.1,0.1c-0.1,0.1-0.2,0.2-0.1,0.3c0,0.1,0.1,0.1,0.2,0.2
			c0.1,0.1,0.3,0.1,0.4,0.1c-0.2,0.1-0.4,0.2-0.6,0.1c-0.1,0-0.3-0.1-0.3-0.2c-0.1-0.2-0.1-0.3-0.2-0.4c-0.1-0.3-0.2-0.5-0.9-0.7
			c-0.4-0.1-0.7-0.1-0.9-0.1C13,15.3,12.9,15.3,12.8,15.2C12.8,15.2,12.8,15.2,12.8,15.2z M21.4,5.6c-0.1,0.1-0.2,0.2-0.3,0.3
			c-0.3,0.3-0.7,0.7-0.8,1c-0.1,0.2-0.1,0.2-0.1,0.2c0,0-0.1,0-0.2-0.1c-0.1-0.1-0.3-0.1-0.6-0.2c-0.6-0.1-0.9-0.2-1-0.3
			C19.3,6,20.3,5.7,21.4,5.6z M22.7,5.5c0.6,0,1.3,0.1,1.9,0.2c0,0,0,0,0,0.1c0,0.2-0.8,2-1.8,2.9c-0.7,0.6-0.8,0.9-0.9,1.1
			c-0.1,0.2-0.1,0.2-0.3,0.3c0,0,0,0,0,0c-0.1-0.1,0-0.6,0-0.8c0-0.1,0-0.2,0-0.3c0-0.1,0-0.2,0.1-0.3c0.1-0.3,0.2-0.6-0.1-1
			c-0.1-0.1-0.1-0.1-0.1-0.2c0-0.1,0.1-0.1,0.2-0.2c0.1-0.1,0.2-0.1,0.2-0.3c0-0.1-0.1-0.2-0.1-0.4c-0.1-0.1-0.1-0.3-0.2-0.4
			C21.5,6.3,22,5.9,22.7,5.5z M21.9,5.6c0.1,0,0.1,0,0.2,0c-0.1,0.1-0.3,0.2-0.4,0.3C21.7,5.7,21.8,5.6,21.9,5.6z M26.5,10.3
			c0.1,0,0.2,0,0.3-0.1C27,10.1,27,10,27.1,9.7c0-0.4,0.1-0.7,0.1-0.8c0,0.1,0.1,0.3,0.1,0.5c0,0.1,0.1,0.2,0.2,0.1c0,0,0,0,0,0
			c0,0,0,0.1,0,0.1c0,0.3-0.3,0.8-0.5,0.8C26.8,10.5,26.7,10.4,26.5,10.3C26.6,10.3,26.6,10.3,26.5,10.3z M26.5,13.2
			c0.1,0.1,0.1,0.1,0.3,0.1c0.3,0,0.5-0.1,0.6-0.3c0.1-0.1,0.1-0.1,0.1-0.2c0.1,0.1,0.1,0.2,0.2,0.2c0,0,0.1,0,0.3-0.2
			c0.1,0.2,0.2,0.4,0.5,0.5c0.2,0,0.4,0,0.6,0v0.4c-0.4,0-0.9,0.1-1,0c-0.3-0.2-0.6,0-0.6,0.1c-0.2,0.1-0.5,0.2-0.7,0.1
			c0,0,0,0-0.1-0.1c0-0.1-0.1-0.2-0.1-0.2c-0.1-0.3-0.2-0.6-0.5-0.6c0,0-0.1,0-0.1,0c-0.1,0-0.2,0-0.4,0.1c-0.1,0-0.2,0-0.4,0
			c0.1,0,0.1-0.1,0.2-0.1c0.4-0.3,0.8-0.6,0.9-0.5c0,0,0.1,0,0.1,0c0.1,0.1,0,0.2,0,0.3C26.4,12.9,26.4,13.1,26.5,13.2z M29.2,8.3
			c1.5,1.5,2.6,3.5,2.9,5.8c-1.3-0.2-1.3,0.1-1.3,0.2c-0.1,0.3,0.4,0.5,0.9,0.6c0.1,0,0.2,0.1,0.3,0.1c0,0,0,0,0,0
			c0,0.1-0.1,0.1-0.2,0.2c-0.1,0.1-0.1,0.2-0.2,0.3c0,0.1-0.5,0.2-1.2,0.4c-0.1,0-0.4-0.5-0.6-0.8c-0.3-0.5-0.4-0.7-0.6-0.7
			c-0.1,0-0.1,0.1-0.2,0.1c-0.1,0.2,0,0.5,0.3,1c0.1,0.2,0.2,0.4,0.3,0.6c0.3,0.6,1.1,0.6,1.5,0.6c-0.1,0.1-0.2,0.3-0.4,0.4
			c-0.4,0.3-0.9,0.9-1.1,1.7c-0.1,0.6-0.3,1.1-1.2,2.3c-0.6,0.8-0.7,0.8-1,0.7c-0.1,0-0.1-0.1-0.2-0.1C27,21.4,27,20.8,27,20.3
			c0-0.2,0-0.4,0-0.5c0-0.4,0-0.6,0-0.7c0-0.2,0-0.3,0-0.5c0-0.2-0.1-0.4-0.2-0.5c-0.1-0.1-0.2-0.2-0.2-0.4c0-0.3-0.1-0.9-0.6-0.9
			c0,0,0,0,0,0c-0.1,0-0.2,0-0.4,0c-0.4,0-1,0.1-1.4,0c-0.5-0.1-0.8-1.2-0.7-1.6c0.1-0.4,0.3-0.6,0.5-0.7l0,0
			c0.2-0.2,0.3-0.4,0.5-0.7l0.1-0.1c0.1-0.1,0.7-0.2,1-0.2c0.2,0,0.3,0,0.4-0.1c0.1,0,0.1,0,0.2,0.4c0,0.1,0.1,0.2,0.1,0.3
			c0,0.1,0.1,0.2,0.2,0.2c0.3,0.1,0.9-0.1,1-0.2c0,0,0.2-0.1,0.3,0c0.3,0.1,1.1,0,1.3,0c0.1,0,0.1-0.1,0.1-0.2v-0.8c0,0,0-0.1,0-0.1
			c0,0-0.1,0-0.1,0c0,0-0.4,0-0.7,0c-0.1,0-0.2-0.3-0.3-0.5c0-0.1-0.1-0.1-0.1-0.1c-0.1,0-0.1,0-0.2,0.1c-0.1,0.1-0.1,0.2-0.2,0.3
			c0-0.1,0-0.1-0.1-0.2c-0.1-0.3-0.2-0.5-0.3-0.6c-0.1,0-0.1,0-0.2,0c-0.2,0.1-0.1,0.4-0.1,0.5c0,0.1,0.1,0.2,0.1,0.3
			c0,0.1,0,0.1,0,0.2c-0.1,0.1-0.2,0.1-0.4,0.1c0,0,0-0.1,0-0.1c0-0.2,0.1-0.4-0.1-0.6c-0.1-0.1-0.2-0.1-0.3-0.1
			c-0.4,0-1,0.5-1.2,0.6C25,13,24.8,13,24.7,12.9c-0.1,0-0.1,0-0.2,0c0,0,0,0,0,0c-0.1,0-0.2-0.3-0.1-0.6c0,0,0,0,0,0
			c0,0,0.2,0,0.3,0.1c0.1,0,0.1,0,0.2,0c0.2-0.2,0.2-0.3,0.2-0.4c0,0,0-0.1,0-0.1c0-0.1,0-0.3,0.1-0.4c0,0,0,0,0,0
			c0.4,0,1-0.9,1.1-1.1c0,0,0.1,0.1,0.1,0.1c0.1,0.1,0.3,0.3,0.5,0.3c0.5,0,0.8-0.7,0.9-1.1c0-0.2,0-0.3-0.1-0.4
			c0,0-0.1-0.1-0.1-0.1c-0.1-0.4-0.1-0.7-0.3-0.8c-0.1,0-0.1,0-0.2,0c-0.2,0.1-0.4,0.5-0.4,1.2c0,0.1,0,0.2-0.1,0.2
			c-0.1,0-0.3,0-0.4-0.1c-0.1,0-0.2-0.1-0.3-0.1c-0.1,0-0.1,0-0.1-0.1c-0.1-0.2-0.1-0.6,0.1-1c0.2-0.5,1.1-0.9,1.9-0.7
			c0.3,0.1,0.3,0.2,0.3,0.4c0,0.1,0,0.4,0.3,0.5C28.8,8.9,29,8.6,29.2,8.3z M32.1,14.7C32.1,14.7,32.1,14.7,32.1,14.7
			c-0.1-0.1-0.3-0.1-0.4-0.1c-0.2,0-0.5-0.1-0.6-0.2c0.2,0,0.6,0,1,0C32.1,14.5,32.1,14.6,32.1,14.7z M22.5,25.5
			c5.7,0,10.3-4.6,10.3-10.3c0-5.7-4.6-10.3-10.3-10.3S12.2,9.5,12.2,15.2C12.2,20.9,16.8,25.5,22.5,25.5z"/>
	</g>
	<g>
		<path class="st1" d="M16.4,17.4c0.1-0.1,0.2-0.2,0.3-0.3c0.4-0.4,0.6-0.7,0.8-1c0,0,0,0,0,0c0.1,0,0.3,0.1,0.4,0.3
			c0.1,0.1,0.2,0.2,0.4,0.3c0,0,0,0,0.1,0c0,0,0.8,0.1,1.2,0.4c0.1,0.1,0.3,0.2,0.5,0.3c0.4,0.3,0.9,0.6,1.3,0.8
			c0.1,0,0.2,0.1,0.2,0.1c0,0.1,0,0.3-0.1,0.4c-0.1,0.2-0.1,0.3-0.2,0.5c-0.1,0.5-0.5,1.1-0.7,1.4c-0.3,0.3-0.2,0.6-0.1,0.8
			c0,0,0,0.1,0.1,0.1c0,0,0,0,0,0c-0.1,0-0.2,0.1-0.3,0.2c-0.2,0.3-0.1,0.6-0.1,1c0,0.3,0,0.5,0,0.7c0,0.1,0,0.2,0,0.3c0,0,0,0,0,0
			c0,0,0,0-0.1,0c-0.1,0-0.3-0.1-0.6-0.5c-0.4-0.5-1.3-1.8-1.5-3.2c-0.1-0.9-0.7-1.2-1.2-1.5c-0.2-0.1-0.5-0.3-0.7-0.4
			C16.1,18,16,17.9,16,17.8C16,17.7,16.2,17.6,16.4,17.4 M16.7,18.8c0.5,0.3,0.9,0.5,1,1.3c0.2,1.4,1.1,2.8,1.5,3.4
			c0.3,0.4,0.6,0.6,0.9,0.6c0.1,0,0.2,0,0.3-0.1c0.1-0.1,0.1-0.2,0.1-0.3c0-0.1,0-0.2,0-0.2c0-0.2,0-0.4,0-0.7
			c-0.1-0.4-0.1-0.6,0-0.8c0,0,0,0,0.1-0.1c0.1,0,0.2,0,0.2-0.1c0-0.1,0-0.2,0-0.3c0-0.1,0-0.1-0.1-0.2c-0.1-0.2-0.1-0.3,0-0.4
			c0.3-0.3,0.7-1,0.8-1.6c0-0.1,0.1-0.3,0.2-0.4c0.1-0.2,0.2-0.5,0.1-0.7c-0.1-0.1-0.2-0.2-0.4-0.3c-0.4-0.1-0.8-0.4-1.2-0.7
			c-0.2-0.1-0.4-0.3-0.5-0.4c-0.4-0.3-1.1-0.4-1.3-0.4c-0.1-0.1-0.2-0.2-0.3-0.2c-0.2-0.2-0.4-0.3-0.6-0.3c-0.1,0-0.2,0-0.3,0.2
			c-0.2,0.3-0.4,0.6-0.7,0.9c-0.1,0.1-0.2,0.1-0.3,0.2c-0.2,0.2-0.5,0.3-0.5,0.6c0,0.2,0.1,0.4,0.3,0.6
			C16.1,18.6,16.4,18.7,16.7,18.8z"/>
	</g>
	<g>
		<path class="st1" d="M20.5,8.4c-0.1,0.2-0.4,0.3-0.5,0.3c0,0,0,0,0,0c0-0.1,0.1-0.2,0.2-0.2c0.1-0.2,0.3-0.3,0.3-0.5
			c0-0.1,0-0.2,0.1-0.2C20.6,8,20.6,8.2,20.5,8.4 M20.7,7.4c0-0.1-0.1-0.1-0.2-0.1c0,0-0.4,0.2-0.4,0.6c0,0.1-0.1,0.2-0.2,0.3
			c-0.1,0.2-0.4,0.5-0.1,0.7C19.8,9,19.9,9,20,9c0.2,0,0.6-0.2,0.8-0.5C20.9,8.3,21,7.9,20.7,7.4z"/>
	</g>
	<g>
		<path class="st1" d="M23.4,9.5c0.1-0.1,0.4-0.3,0.6-0.4c0,0.3-0.1,0.7-0.4,0.8c-0.1,0-0.1,0-0.2,0c0,0-0.1,0-0.1-0.1
			C23.3,9.8,23.3,9.6,23.4,9.5 M23.5,10.3c0.1,0,0.2,0,0.3-0.1c0.6-0.3,0.6-1.3,0.6-1.4c0,0,0-0.1-0.1-0.1c0,0-0.1,0-0.1,0
			c-0.1,0-0.9,0.2-1,0.6c-0.1,0.2-0.1,0.6,0,0.8C23.2,10.2,23.3,10.3,23.5,10.3z"/>
	</g>
	<g>
		<path class="st2" d="M58.8,39.4l1.6,0.2c-0.3,0.9-0.8,1.5-1.4,2s-1.3,0.7-2.2,0.7c-0.9,0-1.7-0.3-2.2-0.8
			c-0.5-0.6-0.8-1.4-0.8-2.5c0-0.9,0.2-1.7,0.5-2.4s0.8-1.3,1.5-1.7c0.6-0.4,1.3-0.6,2-0.6c0.8,0,1.5,0.2,2,0.7
			c0.5,0.4,0.8,1.1,0.9,1.8L59.3,37c-0.1-0.4-0.2-0.8-0.5-1c-0.2-0.2-0.6-0.3-1-0.3c-0.4,0-0.8,0.1-1.2,0.4
			c-0.4,0.3-0.7,0.7-0.9,1.2c-0.2,0.6-0.3,1.1-0.3,1.7c0,0.6,0.1,1.1,0.4,1.4c0.3,0.3,0.7,0.5,1.1,0.5c0.4,0,0.8-0.1,1.1-0.4
			C58.4,40.3,58.7,39.9,58.8,39.4z"/>
		<path class="st2" d="M61.5,39.1c0-0.5,0.1-0.9,0.2-1.4c0.2-0.7,0.4-1.3,0.8-1.8c0.4-0.5,0.8-0.9,1.4-1.2c0.6-0.3,1.2-0.4,1.9-0.4
			c0.9,0,1.7,0.3,2.3,0.9c0.6,0.6,0.9,1.4,0.9,2.3c0,0.8-0.2,1.6-0.6,2.3c-0.4,0.8-0.9,1.3-1.5,1.7c-0.7,0.4-1.4,0.6-2.2,0.6
			c-0.7,0-1.3-0.2-1.8-0.5c-0.5-0.3-0.8-0.7-1-1.2S61.5,39.6,61.5,39.1z M63.1,39.1c0,0.5,0.2,1,0.5,1.3c0.3,0.4,0.7,0.5,1.3,0.5
			c0.4,0,0.8-0.1,1.2-0.4c0.4-0.3,0.7-0.7,1-1.3s0.4-1.1,0.4-1.7c0-0.6-0.2-1.1-0.5-1.4c-0.3-0.3-0.7-0.5-1.2-0.5
			c-0.8,0-1.4,0.4-1.9,1.1C63.3,37.5,63.1,38.2,63.1,39.1z"/>
		<path class="st2" d="M73.7,42.1h-1.5L72,35.7l-1.2,6.4h-1.4l1.6-7.7h2.2l0.2,5.4l2.6-5.4h2.3l-1.6,7.7h-1.4l1.5-6.4L73.7,42.1z"/>
		<path class="st2" d="M79.8,42.1h-1.6l1.6-7.7H83c0.6,0,1,0.1,1.3,0.2s0.6,0.3,0.8,0.6c0.2,0.3,0.3,0.7,0.3,1.1
			c0,0.4-0.1,0.8-0.2,1.1s-0.3,0.7-0.6,0.9s-0.5,0.4-0.7,0.5c-0.3,0.1-0.6,0.2-1,0.3c-0.2,0-0.7,0.1-1.4,0.1h-1L79.8,42.1z
			 M80.7,37.9h0.5c0.8,0,1.4-0.1,1.7-0.2c0.3-0.1,0.5-0.3,0.7-0.5c0.2-0.2,0.2-0.5,0.2-0.8c0-0.2,0-0.3-0.1-0.5s-0.2-0.2-0.3-0.3
			c-0.1-0.1-0.5-0.1-1-0.1h-1.1L80.7,37.9z"/>
	</g>
	<g>
		<path class="st2" d="M89.6,40.4h-3l-0.9,1.7H84l4.3-7.7h1.8l1.2,7.7h-1.5L89.6,40.4z M89.4,39.2L89,36.1l-1.9,3.1H89.4z"/>
		<path class="st2" d="M94,42.1h-1.6l1.6-7.7h3.4c0.6,0,1,0.1,1.4,0.2c0.3,0.1,0.6,0.3,0.8,0.7c0.2,0.3,0.3,0.7,0.3,1.2
			c0,0.7-0.2,1.2-0.6,1.6c-0.4,0.4-1,0.7-1.8,0.8c0.2,0.2,0.4,0.4,0.6,0.7c0.4,0.6,0.7,1.4,1.2,2.5h-1.7c-0.1-0.4-0.4-1.1-0.8-2
			c-0.2-0.5-0.4-0.8-0.7-1C95.9,39,95.6,39,95.3,39h-0.6L94,42.1z M94.9,37.8h0.8c0.8,0,1.4,0,1.7-0.2s0.5-0.3,0.7-0.5
			c0.2-0.2,0.2-0.4,0.2-0.7c0-0.3-0.1-0.5-0.3-0.6c-0.1-0.1-0.4-0.1-0.9-0.1h-1.7L94.9,37.8z"/>
		<path class="st2" d="M100.1,42.1l1.6-7.7h5.7l-0.3,1.3H103l-0.4,1.7h4l-0.3,1.3h-4l-0.5,2.1h4.5l-0.3,1.3H100.1z"/>
		<path class="st2" d="M110.2,42.1l1.6-7.7h1.6l-0.7,3.3l3.5-3.3h2.1l-3.4,3l2.5,4.7h-1.8l-1.9-3.7l-1.5,1.3l-0.5,2.3H110.2z"/>
		<path class="st2" d="M122.9,40.4h-3l-0.9,1.7h-1.6l4.3-7.7h1.8l1.2,7.7h-1.5L122.9,40.4z M122.8,39.2l-0.4-3.1l-1.9,3.1H122.8z"/>
		<path class="st2" d="M127.3,42.1h-1.6l1.6-7.7h3.4c0.6,0,1,0.1,1.4,0.2c0.3,0.1,0.6,0.3,0.8,0.7c0.2,0.3,0.3,0.7,0.3,1.2
			c0,0.7-0.2,1.2-0.6,1.6c-0.4,0.4-1,0.7-1.8,0.8c0.2,0.2,0.4,0.4,0.6,0.7c0.4,0.6,0.7,1.4,1.2,2.5h-1.7c-0.1-0.4-0.4-1.1-0.8-2
			c-0.2-0.5-0.4-0.8-0.7-1c-0.1-0.1-0.4-0.2-0.8-0.2h-0.6L127.3,42.1z M128.2,37.8h0.8c0.8,0,1.4,0,1.7-0.2s0.5-0.3,0.7-0.5
			c0.2-0.2,0.2-0.4,0.2-0.7c0-0.3-0.1-0.5-0.3-0.6c-0.1-0.1-0.4-0.1-0.9-0.1h-1.7L128.2,37.8z"/>
		<path class="st2" d="M133.9,39.1c0-0.5,0.1-0.9,0.2-1.4c0.2-0.7,0.4-1.3,0.8-1.8c0.4-0.5,0.8-0.9,1.4-1.2c0.6-0.3,1.2-0.4,1.9-0.4
			c0.9,0,1.7,0.3,2.3,0.9c0.6,0.6,0.9,1.4,0.9,2.3c0,0.8-0.2,1.6-0.6,2.3s-0.9,1.3-1.5,1.7c-0.7,0.4-1.4,0.6-2.2,0.6
			c-0.7,0-1.3-0.2-1.8-0.5c-0.5-0.3-0.8-0.7-1-1.2S133.9,39.6,133.9,39.1z M135.5,39.1c0,0.5,0.2,1,0.5,1.3c0.3,0.4,0.7,0.5,1.3,0.5
			c0.4,0,0.8-0.1,1.2-0.4c0.4-0.3,0.7-0.7,1-1.3s0.4-1.1,0.4-1.7c0-0.6-0.2-1.1-0.5-1.4c-0.3-0.3-0.7-0.5-1.2-0.5
			c-0.8,0-1.4,0.4-1.9,1.1C135.7,37.5,135.5,38.2,135.5,39.1z"/>
		<path class="st2" d="M142.1,40.7h1.5l-0.3,1.2c-0.1,0.7-0.4,1.2-0.7,1.5c-0.3,0.3-0.7,0.4-1.2,0.4l0.1-0.7
			c0.3-0.1,0.4-0.2,0.6-0.3c0.1-0.1,0.2-0.4,0.3-0.7h-0.7L142.1,40.7z"/>
		<path class="st2" d="M153.2,39.4l1.6,0.2c-0.3,0.9-0.8,1.5-1.4,2c-0.6,0.5-1.3,0.7-2.2,0.7c-0.9,0-1.7-0.3-2.2-0.8
			c-0.5-0.6-0.8-1.4-0.8-2.5c0-0.9,0.2-1.7,0.5-2.4c0.4-0.7,0.8-1.3,1.5-1.7c0.6-0.4,1.3-0.6,2-0.6c0.8,0,1.5,0.2,2,0.7
			s0.8,1.1,0.9,1.8l-1.5,0.1c-0.1-0.4-0.2-0.8-0.5-1c-0.2-0.2-0.6-0.3-1-0.3c-0.4,0-0.8,0.1-1.2,0.4c-0.4,0.3-0.7,0.7-0.9,1.2
			c-0.2,0.6-0.3,1.1-0.3,1.7c0,0.6,0.1,1.1,0.4,1.4c0.3,0.3,0.7,0.5,1.1,0.5c0.4,0,0.8-0.1,1.1-0.4
			C152.8,40.3,153.1,39.9,153.2,39.4z"/>
		<path class="st2" d="M160.7,38.7h-3l-0.7,3.4h-1.6l1.6-7.7h1.6l-0.6,3h3l0.6-3h1.6l-1.6,7.7H160L160.7,38.7z"/>
		<path class="st2" d="M163.6,39.1c0-0.5,0.1-0.9,0.2-1.4c0.2-0.7,0.4-1.3,0.8-1.8c0.4-0.5,0.8-0.9,1.4-1.2c0.6-0.3,1.2-0.4,1.9-0.4
			c0.9,0,1.7,0.3,2.3,0.9c0.6,0.6,0.9,1.4,0.9,2.3c0,0.8-0.2,1.6-0.6,2.3s-0.9,1.3-1.5,1.7c-0.7,0.4-1.4,0.6-2.2,0.6
			c-0.7,0-1.3-0.2-1.8-0.5s-0.8-0.7-1-1.2S163.6,39.6,163.6,39.1z M165.2,39.1c0,0.5,0.2,1,0.5,1.3c0.3,0.4,0.7,0.5,1.3,0.5
			c0.4,0,0.8-0.1,1.2-0.4c0.4-0.3,0.7-0.7,1-1.3s0.4-1.1,0.4-1.7c0-0.6-0.2-1.1-0.5-1.4c-0.3-0.3-0.7-0.5-1.2-0.5
			c-0.8,0-1.4,0.4-1.9,1.1C165.4,37.5,165.2,38.2,165.2,39.1z"/>
		<path class="st2" d="M172,39.1c0-0.5,0.1-0.9,0.2-1.4c0.2-0.7,0.4-1.3,0.8-1.8c0.4-0.5,0.8-0.9,1.4-1.2c0.6-0.3,1.2-0.4,1.9-0.4
			c0.9,0,1.7,0.3,2.3,0.9c0.6,0.6,0.9,1.4,0.9,2.3c0,0.8-0.2,1.6-0.6,2.3s-0.9,1.3-1.5,1.7c-0.7,0.4-1.4,0.6-2.2,0.6
			c-0.7,0-1.3-0.2-1.8-0.5s-0.8-0.7-1-1.2S172,39.6,172,39.1z M173.5,39.1c0,0.5,0.2,1,0.5,1.3c0.3,0.4,0.7,0.5,1.3,0.5
			c0.4,0,0.8-0.1,1.2-0.4c0.4-0.3,0.7-0.7,1-1.3s0.4-1.1,0.4-1.7c0-0.6-0.2-1.1-0.5-1.4c-0.3-0.3-0.7-0.5-1.2-0.5
			c-0.8,0-1.4,0.4-1.9,1.1C173.8,37.5,173.5,38.2,173.5,39.1z"/>
		<path class="st2" d="M180.1,39.7l1.5-0.1c0,0.5,0.1,0.8,0.2,1c0.2,0.3,0.7,0.4,1.3,0.4c0.5,0,0.9-0.1,1.1-0.3
			c0.2-0.2,0.3-0.4,0.3-0.7c0-0.2-0.1-0.4-0.3-0.6c-0.1-0.1-0.5-0.3-1.1-0.6s-1-0.5-1.3-0.6c-0.3-0.2-0.5-0.4-0.6-0.7
			c-0.2-0.3-0.2-0.6-0.2-1c0-0.6,0.2-1.2,0.7-1.6c0.5-0.4,1.1-0.6,2-0.6c0.9,0,1.6,0.2,2.1,0.6s0.8,1,0.8,1.7l-1.5,0.1
			c0-0.4-0.2-0.6-0.4-0.8s-0.6-0.3-1-0.3c-0.4,0-0.7,0.1-0.9,0.2s-0.3,0.3-0.3,0.6c0,0.2,0.1,0.4,0.3,0.5c0.2,0.1,0.5,0.3,1.1,0.6
			c0.9,0.4,1.4,0.7,1.7,0.9c0.4,0.3,0.5,0.8,0.5,1.3c0,0.7-0.3,1.3-0.8,1.7c-0.5,0.5-1.3,0.7-2.2,0.7c-0.7,0-1.2-0.1-1.7-0.3
			c-0.5-0.2-0.8-0.5-1-0.9C180.1,40.6,180,40.2,180.1,39.7z"/>
		<path class="st2" d="M187,42.1l1.6-7.7h5.7l-0.3,1.3h-4.1l-0.4,1.7h4l-0.3,1.3h-4l-0.5,2.1h4.5l-0.3,1.3H187z"/>
		<path class="st2" d="M197.1,42.1l1.6-7.7h1.6l-0.7,3.3l3.5-3.3h2.1l-3.4,3l2.5,4.7h-1.8l-1.9-3.7l-1.5,1.3l-0.5,2.3H197.1z"/>
		<path class="st2" d="M209.8,40.4h-3l-0.9,1.7h-1.6l4.3-7.7h1.8l1.2,7.7h-1.5L209.8,40.4z M209.6,39.2l-0.4-3.1l-1.9,3.1H209.6z"/>
		<path class="st2" d="M214.2,42.1h-1.6l1.6-7.7h3.4c0.6,0,1,0.1,1.4,0.2c0.3,0.1,0.6,0.3,0.8,0.7c0.2,0.3,0.3,0.7,0.3,1.2
			c0,0.7-0.2,1.2-0.6,1.6c-0.4,0.4-1,0.7-1.8,0.8c0.2,0.2,0.4,0.4,0.6,0.7c0.4,0.6,0.7,1.4,1.2,2.5h-1.7c-0.1-0.4-0.4-1.1-0.8-2
			c-0.2-0.5-0.4-0.8-0.7-1c-0.1-0.1-0.4-0.2-0.8-0.2h-0.6L214.2,42.1z M215.1,37.8h0.8c0.8,0,1.4,0,1.7-0.2c0.3-0.1,0.5-0.3,0.7-0.5
			c0.2-0.2,0.2-0.4,0.2-0.7c0-0.3-0.1-0.5-0.3-0.6c-0.1-0.1-0.4-0.1-0.9-0.1h-1.7L215.1,37.8z"/>
		<path class="st2" d="M220.8,39.1c0-0.5,0.1-0.9,0.2-1.4c0.2-0.7,0.4-1.3,0.8-1.8c0.4-0.5,0.8-0.9,1.4-1.2c0.6-0.3,1.2-0.4,1.9-0.4
			c0.9,0,1.7,0.3,2.3,0.9c0.6,0.6,0.9,1.4,0.9,2.3c0,0.8-0.2,1.6-0.6,2.3s-0.9,1.3-1.5,1.7c-0.7,0.4-1.4,0.6-2.2,0.6
			c-0.7,0-1.3-0.2-1.8-0.5s-0.8-0.7-1-1.2S220.8,39.6,220.8,39.1z M222.3,39.1c0,0.5,0.2,1,0.5,1.3c0.3,0.4,0.7,0.5,1.3,0.5
			c0.4,0,0.8-0.1,1.2-0.4c0.4-0.3,0.7-0.7,1-1.3s0.4-1.1,0.4-1.7c0-0.6-0.2-1.1-0.5-1.4c-0.3-0.3-0.7-0.5-1.2-0.5
			c-0.8,0-1.4,0.4-1.9,1.1C222.6,37.5,222.3,38.2,222.3,39.1z"/>
	</g>
</g>
</svg>
