<?xml version="1.0" encoding="utf-8"?>
<!-- Generator: Adobe Illustrator 25.4.1, SVG Export Plug-In . SVG Version: 6.00 Build 0)  -->
<svg version="1.1" id="Layer_1" xmlns="http://www.w3.org/2000/svg" xmlns:xlink="http://www.w3.org/1999/xlink" x="0px" y="0px"
	 width="900px" height="900px" viewBox="0 0 900 900" style="enable-background:new 0 0 900 900;" xml:space="preserve">
<style type="text/css">
	.st0{fill:#FFFFFF;}
</style>
<g>
	<path class="st0" d="M61.2,467.9c9.8-0.8,20.9-1.7,34.1,2.2c25.3,7.5,26.1,11.1,28,19.8c1.2,5.5,2.8,13.1,8.9,22.9
		c5.4,8.7,13.5,14.1,23.2,15.8c2.3,0.4,4.6,0.6,6.9,0.6c17.7,0,35-10.5,40.3-14.7c4.6-3.6,4.3-7.5,3.7-9.5
		c-1.8-6.3-8.7-7.2-19.2-8.6c-3.7-0.5-8-1-11.5-1.9c3.1-2.9,6.7-6.8,6.7-12.3c0-7.4-5.4-10.9-9.7-13.7c-3.6-2.3-7.6-4.9-10.9-10.2
		c-2.4-3.9-2-4.8-0.2-8.5c1.9-3.9,4.7-9.7,2.7-18.8c-1.1-5.1-4.3-7.1-6.1-7.8c-5.7-2.3-11.3,1.3-17.8,5.5c-4.6,3-11.5,7.5-14.9,6.5
		c-1.9-0.6-3.3-3.6-4.1-5.3c-2.1-5.1-0.9-7.9,0.2-9.6c6.5-9.6,31.9-13.6,44-13.6c2.5,0,8.1,4.6,12.1,7.9
		c8.2,6.8,18.4,15.3,29.4,11.2c8.7-3.2,15-16.6,26.4-42c8.6-19.2,18.3-40.9,28.3-50.8c12.6-12.6,25.6-11.7,38.1-10.8
		c6.1,0.4,11.8,0.8,17.2-0.4c4.6-1,10.1-2.8,12.7-7.9c3.1-6,0.4-12.3-3.6-21.8c-0.7-1.7-1.5-3.4-2.3-5.4c3,0.4,6.3,0.2,9.9-0.9
		c0.5-0.2,0.9-0.2,0.9-0.2c1,0.8,2.5,4.6,3.3,6.9c3.2,8.4,8.6,22.5,26.9,21.3c7-0.5,12.1-2.9,15.1-7.2c5.5-7.9,2.2-18.9-2-32.8
		c-2.7-8.9-5.7-19-6.8-29.4c-1.3-12.5-5.1-20.5-11.8-24.5c-8.9-5.3-18.8-1.2-24.7,1.3c0,0,0,0-0.1,0c-1-2.2-2.3-5.5-3.3-8.2
		c-3.5-9.5-7.5-20.3-15-25.9c-2.7-2.1-6-2.8-9.2-2.2c-7.3,1.6-11.9,10-17.3,19.7c-2.8,5.1-8.6,15.6-11.4,16.2
		c-13.3-4.4-21.1,7.9-25.2,14.8c-2-2.7-3.5-6.1-4.5-17.2c-0.6-7.6,26.5-25.5,41.1-35c16-10.5,29.9-19.6,34.6-27.6
		c1.9-3.2,5.6-9.3,1.5-14.1c-4-4.7-9.6-2.5-16.1,0c-4.7,1.8-11.5,4.5-16.6,4.1c0.8-2.7,3.5-7.1,4.6-8.7c1.9-3,5-8,0.5-12
		c-4.5-4-9.3-0.3-11.7,1.5c-10.9,8.6-38.8,18.9-48,18.9c-1.7,0-2.7,0-3.4-0.1c-0.3-1.7-0.5-4.8-0.7-7.9c-0.1-2-0.3-4.3-0.5-7
		c-0.5-5.8-3.1-10.8-7.7-14.3c-1.7-1.3-3.6-2.4-5.7-3.3c13.3-9.1,27.2-17.3,41.6-24.8c5.1,5,18.1,12.5,54.9,20.3
		c9.9,2.1,16.7,5.2,22.2,7.7c5,2.3,9.4,4.1,13.5,4.1c6.1,0,11.6-3.8,17.4-15.4c3.6-7.2,13.4-18.1,23.7-29c-0.7,2.1-1,4.2-0.5,6.2
		c1.9,8.7,5.8,16.3,8.9,22.5c1.2,2.4,2.8,5.4,3.5,7.4c-0.8,0.6-1.9,1.2-2.7,1.8c-5.6,3.5-13.4,8.3-14.7,17.1
		c-0.9,5.7,1.2,11.7,6.4,17.8c8.9,10.5,6.4,18.2,3.4,27.9c-1.6,5.1-3.3,10.3-3.3,16.2c0,2.8-0.4,7.5-0.9,12.4
		c-2.1,23.3-2.9,40.3,6.6,46.7c1.6,1.1,3.9,2.1,6.9,2.1c2.5,0,5.4-0.7,8.8-2.5c11.1-5.9,14.3-12.1,18.1-19.3
		c4.7-8.9,11.1-21.1,36.9-43.3c45.8-39.5,80.6-114,82.2-132.6c64.3,17,122.5,49.3,170.3,92.9c-5.7,10-13.2,19.1-19.2,18
		c-2.2-0.4-2.3-0.4-2.6-6.4c-0.4-8.7-1.1-23.2-25-27.9c-34.2-6.7-82.7,8.8-94.1,38.8c-7.8,20.7-8.6,41-2,52.9
		c3.4,6.2,8.7,10.1,15.2,11.4c2.7,0.6,5.7,1.4,8.9,2.4c-1.9,1.1-3.6,2.9-5.1,5.3c-13.7,22-30.1,39.1-35,39.2
		c-8.5,0-15.4,7.6-18.2,20.3c-1.1,5.1-1.9,11-0.4,15.4c-0.1,0.1-0.2,0.2-0.2,0.2c-5.2-2.7-13.5-5.8-20.2-3.2
		c-4.2,1.6-7.1,5.1-8.3,9.9c-3,11.9-0.3,28.2,6.1,36.3c4.1,5.3,8.8,6.4,11.9,6.4c1.8,0,3.6,0.2,5.5,0.4c0.7,0.1,1.4,0.1,2.1,0.2
		c-5.6,2.1-9.7,4.9-11.9,8.8l-2.9,5.2c-5.3,9.4-10.7,19.1-16.6,23.8l-1.2,1c-8.1,6.5-20.4,16.2-25.6,38.6
		c-5.5,24,6.5,75.6,37.6,83.2c20.3,5,45.1,2.8,63.2,1.2c6.1-0.5,11.4-1,15.1-1c7.3,0,10.8,3.7,12.7,24.6c1,10.9,5.6,17.8,9.6,23.8
		c3.4,5.1,6.1,9.2,6.7,15.4c0.7,6.7,0.1,11.3-0.6,17c-0.9,7.4-2,16.6-1.1,33.2c0.4,6.8,0.2,14.1,0,21.9
		c-0.6,25.6-1.2,54.6,20.4,63.8c3.2,1.4,5.9,2.8,8.4,4c6.2,3.2,11.3,5.2,16.2,5.2c10.8,0,21.1-9.6,42.2-37.5
		c37.8-49.8,45.5-73.9,51.8-100.3c6.4-27.2,26-51.7,41.4-62.9c15.4-11.2,26.3-28.7,23.4-37.5c-1.1-3.5-4.2-5.8-7.9-5.8
		c-0.7,0-2.2,0.1-4.3,0.4c-10.8,1.3-43.8,5.2-53.2-15.3c-0.7-1.5-1.4-3.1-2.2-4.6c6.7,9.3,13.7,15.3,21.4,14.2
		c36.5-5.2,57.4-12.7,62.2-22.3c1.1-2.2,3.6-5.2,6-8.1c1-1.2,2-2.4,3-3.6C854.9,677.4,673.2,857.7,450,857.7
		c-218.9,0-398-173.4-407.2-390C48.4,468.9,54.7,468.4,61.2,467.9 M42.3,450c0-133.6,64.6-252.3,164.1-326.7
		c4.6,0.4,9.1,1.3,11.9,3.5c1.6,1.2,2.3,2.7,2.5,4.8c0.2,2.6,0.4,4.8,0.5,6.8c1,14,2.1,20.7,17.7,20.7c9.1,0,26.7-5.7,40.8-12.6
		c-0.1,1.8,0.2,3.6,0.9,5.4c0.9,2.1,3.2,5.7,9,7c4.2,0.9,8.5,0.6,12.7-0.4c-5.8,4.3-13,9-19.8,13.5c-24.9,16.4-48.4,31.8-47.1,47.5
		c1.4,16.5,4.4,21.2,9,26.5c0.7,0.9,1.5,1.8,2.4,3c1.8,2.6,4.5,4,7.3,3.9c5.2-0.2,7.8-4.7,10.5-9.5c4.1-7,6.8-10.6,9.7-9.7
		c12.8,4.3,21-10.6,27.6-22.5c2.1-3.8,5.4-9.7,7.6-12.2c3.8,4,6.9,12.4,9.3,18.8c3.8,10.3,7.4,19.9,16.5,17.7
		c1.2-0.3,2.9-0.9,4.8-1.7c3.8-1.6,9.6-4,12.6-2.2c2.6,1.5,4.5,6.7,5.2,14.2c1.2,11.7,4.4,22.5,7.3,32c2.4,7.8,5.6,18.6,3.9,21.1
		c-0.4,0.5-1.8,1.2-4.8,1.4c-7.5,0.4-9.7-3.3-13.3-12.6c-2.5-6.6-7.3-18.9-20.8-14.8c-4.7,1.4-8.3-0.6-11.6-2.8
		c-1.6-1.1-6-4-10.1-0.7c-4.3,3.5-3,7,1,17.3c1.6,4.1,3.1,7.6,4.4,10.7c1.6,3.8,3.5,8.1,3.8,10.1c-0.6,0.2-1.6,0.6-3.3,1
		c-3.5,0.8-8.1,0.4-13.4,0.1c-13.4-0.9-31.7-2.2-48.7,14.8c-11.7,11.7-22,34.6-31,54.9c-6.2,13.8-14.6,32.7-18.7,34.8
		c-3.6,1.4-10.5-4.3-16-8.9c-6.9-5.7-13.3-11.1-20.8-11.1c-0.4,0-42.5,0.5-55.3,19.7c-3,4.5-5.7,12-1.5,22.3
		c2.9,7,7.1,11.4,12.6,13.1c9.5,3,18.8-3.2,26.3-8.1c1-0.7,2.3-1.5,3.5-2.2c-0.2,2.1-1,3.8-2,6c-2.3,4.8-5.5,11.3,0.9,21.6
		c4.9,7.9,10.8,11.7,15,14.4c1.1,0.7,2.6,1.7,3.3,2.3c-0.7,0.9-2.2,2.4-3.1,3.2c-3.1,2.9-7,6.4-6.2,11.8c0.5,3.4,2.8,6.2,6.8,8.2
		c4.8,2.4,11.6,3.4,18.3,4.2c-7.6,3.6-17.8,7-26.5,5.5c-6-1-10.6-4.2-14-9.6c-4.9-7.8-6.1-13.5-7.2-18.5c-3.1-14.4-7.4-21.1-37.4-30
		c-15.6-4.6-28.6-3.5-39.1-2.7c-9.3,0.8-14.7,1.1-17.7-1.6C42.4,451.8,42.3,450.9,42.3,450z M405,44.9c-4.1,4.5-8.7,9.3-12.7,13.4
		c-13.9,14.5-28.3,29.5-33.7,40.3c-3.7,7.3-5.3,8-5.4,8c-1,0.2-4.9-1.6-7.7-2.9c-5.8-2.7-13.6-6.3-25.1-8.7
		c-26.1-5.5-38.3-10.5-44-13.8C316.2,62.4,359.5,49.9,405,44.9z M460.7,42.6c27.4,0.7,54.1,4.1,80,10c-0.2,0.8-0.2,1.7-0.1,2.6
		c0.1,9.3-32,83.5-77.6,122.9c-27.7,23.9-35.1,38-40.1,47.2c-3.5,6.7-5.2,9.8-12.5,13.7c-1,0.5-1.6,0.7-2,0.8
		c-3.1-4.6-1.1-25.7-0.4-33.8c0.5-5.4,0.9-10.1,0.9-13.6c0-3.7,1.3-7.8,2.6-12.1c3.4-10.9,7.7-24.4-6-40.7c-2.4-2.8-3.6-5.3-3.3-6.9
		c0.4-2.6,5.1-5.5,8.5-7.7c4.7-2.9,9.6-6,9.6-11.7c0-4.5-2.4-9.2-5.4-15.2c-2.9-5.7-6.2-12.2-7.7-18.6
		C408.4,73.7,432.4,57.3,460.7,42.6z M424.1,43.2c2.6-0.2,5.2-0.3,7.9-0.4c-5.9,3.5-11.5,7.1-16.5,10.6
		C419.1,49.5,421.9,46.2,424.1,43.2z M621.9,241.5c4.8,0.3,9.4-0.4,13.3-3.1c5.2-3.6,8-9.9,8.6-19.1c1.2-18.6,3.8-29.3,5.7-34.7
		c1.5,5.5,3,13.9,3.8,22.1c0.4,3.5,3.2,6.4,6.7,6.1c0,0,0.5,0,0.8,0.3c0.4,0.5,0.8,2.1,0.5,4.9c-1.5,12.3-11.9,34.9-22.6,34.9
		c-4.8,0-9.3-4.3-13.6-8.4C624.1,243.5,623,242.5,621.9,241.5z M619.4,364.7c2.5,2.8,6.1,4.1,11,3.8c12.1-0.7,21.3-4.5,26.6-10.9
		c2.2-2.7,3.7-5.7,4.4-9.1c2.5,5.9,5.1,9.3,9.9,9.3c1.6,0,5.7,0,13.5-8.5c3.5,8.9,9.8,18.7,20.4,19.2c8.2,0.4,18,0.3,24.5,0.2v18.6
		c-18.1,1.7-37.9,2.2-42.3,0c-13-6.5-27.2,2.1-27.2,2.1c-6.4,3.2-22,8.8-28.9,6.1c-1.3-0.5-2-1.2-2.5-2.5c-1.3-3.4-2.4-6.8-3.5-10
		c-3.7-11.1-8.1-24.7-20.6-24.7c-1.6,0-3.3,0.2-5.1,0.7c-3.4,0.8-10.1,1.5-17.1,2.3c-5.2,0.5-10.2,1.1-14.8,1.7
		c2.3-1.4,4.6-3.1,7.1-5.3c15.8-14,32.3-23.4,40-22.9c1.6,0.1,2.2,0.6,2.6,1.1c2.3,2.7,1.7,7.1,0.5,13
		C616.6,354.2,615.5,360.2,619.4,364.7z M734.4,158.3c65.3,63.7,109.3,149,120.4,244.2c-53.8-6.3-55.8,5-56.5,9.3
		c-2.2,13.4,17.8,19.1,39,25.2c4.9,1.4,9.4,2.7,12.8,3.9c0.2,0.1,0.4,0.1,0.5,0.2c-1,2.2-4.3,6.2-6.4,8.7c-2.9,3.5-5.9,7.1-7.7,10.6
		c-2,3.4-19.4,10.3-51.8,15c-5.4-0.7-17.6-22.9-23.4-33.6c-10.8-19.7-16.7-30.6-25.8-29c-3.1,0.5-5.7,2.4-7,5.1
		c-3.7,7.4,2,19.1,14.3,42.8c4.2,8,8.5,16.3,12.1,24.3c12.2,26.5,46.1,25.3,62.4,23.6c-2.6,4.7-7.6,11.6-16.2,17.9
		c-18,13.1-39.4,40-46.7,70.8c-6,25.6-13.1,47.5-49.4,95.2c-27.1,35.7-29.6,34.5-41.4,28.4c-2.7-1.4-5.7-2.9-9.3-4.5
		c-13.2-5.6-12.6-28.7-12.1-51.1c0.2-7.7,0.3-15.7-0.1-22.9c-0.9-15.4,0.1-23.6,1-30.8c0.8-6.4,1.4-11.9,0.6-20
		c-1-9.6-5.2-16-9-21.6c-3.6-5.4-6.7-10-7.3-17.5c-1.2-13-3.4-37-26.1-37c-0.1,0-0.2,0-0.3,0c-4.2,0-9.7,0.5-16.1,1.1
		c-17.2,1.5-40.8,3.5-58.8-0.9c-21.5-5.3-31.8-48.7-27.6-67c4.1-17.8,13-24.8,20.8-31.1l1.3-1c8-6.4,14.1-17.3,20-27.8l2.9-5.1
		c2.9-5,30.1-7.8,40.4-8.9c7.9-0.8,14.6-1.5,19-2.6c3.1-0.8,4.6,0.3,9.5,15.1c1.1,3.4,2.3,7,3.7,10.6c1.9,4.8,5.4,8.3,10.2,10.2
		c14.4,5.6,37.3-5.3,40.4-6.9c0.1-0.1,8.5-4.9,14.6-1.9c10.8,5.4,45.6,1.9,56,0.7c3.4-0.4,6-3.3,6-6.8v-31.7c0-1.9-0.8-3.6-2.1-4.9
		c-1.3-1.3-3.2-2-5-1.9c-0.2,0-17.8,0.7-30.3,0c-4.9-0.3-10-12.9-11.6-21.5c-0.5-2.7-2.6-4.8-5.2-5.4c-2.7-0.6-5.4,0.5-7,2.7
		c-2.8,4-6.2,8.1-8.7,10.8c-0.9-2.2-1.8-4.9-2.5-7c-4.7-13.7-8-22.1-14.5-24.4c-2.7-1-5.6-0.7-8.2,0.9c-10.1,6.2-5.8,15.4-3.5,20.4
		c1.5,3.2,3,6.5,3.6,10.6c0.4,2.8-0.2,5-1.7,6.8c-2.7,3.2-8.6,5.4-16.1,6c0.2-1.1,0.4-2.4,0.6-3.4c1.3-6.6,3.3-16.5-3.5-24.4
		c-2.9-3.4-7.1-5.4-12-5.8c-17.4-1.3-42.6,19.8-49.9,26.3c-9.4,8.3-15.3,7.7-22.8,6.9c-2.3-0.2-4.6-0.5-6.8-0.5c0,0-0.1,0-0.1,0
		c-2.8-0.8-7.7-14.4-4.9-25.8c0.1-0.3,0.2-0.5,0.2-0.6c1.7-0.5,7.6,1.5,12.4,4.6c2.5,1.7,5.8,1.5,8.1-0.5c10.3-8.6,9.7-13,9.5-14.9
		c-0.2-1.5-0.8-3-1.8-4.1c-0.2-3.4,1.2-11.7,4.3-15.7c0.6-0.7,1.2-1.2,1.5-1.2c17,0,41.2-37.1,46.4-45.3c1.2,1,2.8,2.5,4,3.7
		c5.3,5.2,12.7,12.3,23,12.3c21.1,0,34.1-31,36.1-46.8c0.8-6.7-0.5-12-3.9-15.8c-1.4-1.6-3-2.6-4.5-3.3c-2.2-18.1-5.8-29-10.7-32.4
		c-2.2-1.5-4.7-2-7.2-1.4c-10.1,2.5-16.2,19.9-18.2,51.7c-0.3,4.5-1.3,7.7-2.8,8.8c-2.9,2-11-0.4-17.6-2.3c-3.5-1-7.1-2.1-10.6-2.8
		c-2.6-0.5-4.5-2-6-4.7c-4.6-8.2-3.4-24.9,2.8-41.5c8-21.1,47.7-36.4,78.8-30.3c13.5,2.7,13.7,7.4,14.1,15.2
		c0.3,6.3,0.8,16.8,13.7,19.1C716.3,182.6,727.3,169.9,734.4,158.3z M857.1,429.2c-0.8-0.4-1.6-0.8-2.6-1.1
		c-3.6-1.3-8.4-2.7-13.6-4.1c-6.9-2-19.8-5.6-26.1-8.9c8.1-1.2,24.9-0.7,41.3,1.4C856.5,420.7,856.9,424.9,857.1,429.2z M450,884.8
		c240.2,0,434.8-194.7,434.8-434.8c0-240.2-194.7-434.8-434.8-434.8S15.2,209.8,15.2,450C15.2,690.2,209.8,884.8,450,884.8z"/>
	<path class="st0" d="M192.3,544.5c5.1-3.3,10.4-6.8,14.7-10.9c16.3-15.6,25.3-29.7,33.1-42.9c0.8-1.4,1.2-1.4,1.5-1.4
		c3.6,0,11.4,5.8,18.4,10.9c4.9,3.6,10.5,7.7,16.4,11.4c0.8,0.5,1.7,0.8,2.6,0.9c0.3,0,33.2,4.8,51.3,15.6c6,3.5,13.1,8.7,20.5,14.1
		c16.9,12.3,36.1,26.2,56,32.1c3,0.9,6.7,2.4,7.8,4.7c1.6,3.6-1.9,11.5-5.1,18.5c-3,6.6-6.3,14-7.5,21.5
		c-3,19.3-19.8,47.3-30.8,60.2c-11.5,13.5-7.2,24.2-3.7,32.8c0.7,1.8,1.5,3.7,2.1,5.6c-0.2,0-0.3,0.1-0.5,0.1
		c-3.7,0.8-10,2.2-13.7,8.4c-6.4,10.6-5.7,23.4-2.3,41.9c2.1,11.4,1.3,19.8,0.6,28c-0.4,4-0.7,7.7-0.7,11.6c0,0.5-0.1,1.3-0.7,1.9
		c-0.5,0.5-1.5,0.8-2.7,0.8c-5.1,0-14.4-5.2-25.2-19.7c-15.8-21.5-53.6-77.6-62.3-135.5c-6-39.4-29.8-52.1-50.7-63.4
		c-10.2-5.5-19.9-10.7-27.8-18.6c-3.6-3.6-7.9-8.9-7.5-13C176.6,554.7,184.6,549.5,192.3,544.5 M205,603.4
		c20.8,11.2,38.8,20.8,43.7,53.5c9.2,60.9,48.4,119.3,64.8,141.6c12,16.3,24.8,25.3,36.1,25.3c4.8,0,9.1-1.7,12.2-4.7
		c3-3,4.7-7.1,4.7-11.5c0-3.3,0.3-6.7,0.6-10.4c0.8-8.6,1.7-18.4-0.7-31.6c-3.2-17.8-3.1-26.3,0.6-32.5c0.6-1.1,2.1-1.5,5-2.1
		c3.2-0.7,7.7-1.7,10.2-5.9c1.7-2.9,1.9-6.5,0.6-10.8c-0.8-2.6-1.8-5-2.7-7.4c-3.2-7.7-4.7-11.6,1.4-18.8c11.6-13.5,30.4-44.2,34-67
		c0.9-5.6,3.7-11.9,6.4-17.9c4.6-10.1,9.3-20.5,5.1-29.7c-2.6-5.7-7.9-9.6-16.3-12.1c-17.7-5.2-35.9-18.4-51.9-30
		c-7.7-5.6-15.1-10.9-21.6-14.8c-18.4-10.9-47.9-16-54.9-17.1c-5-3.2-9.7-6.6-14.3-10c-10.3-7.6-18.4-13.6-26.5-13.6
		c-3.8,0-9.2,1.4-13.2,8c-7.6,12.8-15.7,25.6-30.8,40c-3.3,3.2-8.1,6.3-12.7,9.3c-10.4,6.8-21.1,13.8-22.3,25.3
		c-0.8,7.7,2.9,15.5,11.4,24C183.3,591.8,194.3,597.7,205,603.4z"/>
	<path class="st0" d="M366.5,163.1c-5.4,9.3-15.2,13.4-20.3,13.4c-0.5,0-0.9,0-1.1-0.1c0.9-2.3,4.5-6.9,6.8-9.8
		c5.7-7.1,11.5-14.4,11.5-22.6c0-3.7,1.8-6.8,3.8-9C371.3,145.6,371.1,155.2,366.5,163.1 M375.5,121.2c-1.8-3.2-5.7-4.4-9-2.8
		c-0.7,0.3-16.8,8.6-16.8,25.6c0,3.4-4.9,9.6-8.5,14.1c-6.3,7.9-15.9,19.8-5.3,28.6c2.6,2.2,6.1,3.3,10.2,3.3c10,0,24.3-6.9,32-20.1
		C383.9,160.2,388.1,143.8,375.5,121.2z"/>
	<path class="st0" d="M488.2,207.4c2.8-5.6,15.2-11.4,26.3-15.1c-0.5,10.9-3.3,29.1-15.8,35.3c-3.3,1.6-5.4,2-6.7,2
		c-1.3,0-2.7-0.3-4-2.3C485.2,222.7,485.3,213.2,488.2,207.4 M492,243.2c3.9,0,8.2-1.2,12.8-3.4c26.6-13.3,23.4-55.3,23.3-57.1
		c-0.2-2-1.2-3.8-2.8-5c-1.6-1.2-3.7-1.5-5.6-1.1c-6,1.5-36,9.6-43.6,24.7c-4.4,8.8-5.5,23.6,0.4,33.1
		C479.9,240.1,485.4,243.2,492,243.2z"/>
</g>
</svg>
