<svg xmlns="http://www.w3.org/2000/svg" width="38.188" height="36.517" viewBox="0 0 38.188 36.517">
  <g id="online_coaching" transform="translate(-1 -2.355)">
    <g id="Group_25572" data-name="Group 25572" transform="translate(1 2.355)">
      <g id="Group_25571" data-name="Group 25571">
        <path id="Path_14127" data-name="Path 14127" d="M37.494,33.046V15.034A3.039,3.039,0,0,0,34.458,12H26.171c0-.007,0-.014,0-.021V8.66a6.1,6.1,0,0,0-2.135-5.1,6.441,6.441,0,0,0-5.474-1c-2.881.7-4.533,2.918-4.533,6.094v3.318c0,.007,0,.014,0,.021h-8.3a3.039,3.039,0,0,0-3.036,3.036V33.047A1.936,1.936,0,0,0,1,34.962v1.973a1.94,1.94,0,0,0,1.937,1.937H37.251a1.94,1.94,0,0,0,1.937-1.937V34.962A1.935,1.935,0,0,0,37.494,33.046ZM34.458,13.23a1.806,1.806,0,0,1,1.8,1.8V33.022H34.773V15.58a.616.616,0,0,0-.616-.616H25.381a6.022,6.022,0,0,0,.66-1.734h8.417ZM31.682,33.022V27.639a9.233,9.233,0,0,0-7.8-9.062v-1.86a6.121,6.121,0,0,0,.573-.521h9.083V33.022Zm-4.838-3.457a.616.616,0,0,0-.616.616v2.841H22.954l-1.2-7.074.678-1.681.248.192a.625.625,0,0,0,.877-.128l2.652-3.693a7.987,7.987,0,0,1,4.237,7v5.383H27.46V30.181a.616.616,0,0,0-.616-.616Zm-13.488,0a.616.616,0,0,0-.616.616v2.841H9.753V27.639a7.987,7.987,0,0,1,4.238-7l2.65,3.693a.621.621,0,0,0,.5.257.614.614,0,0,0,.377-.129l.238-.184.675,1.674-1.2,7.074h-3.26V30.181A.616.616,0,0,0,13.357,29.565ZM6.646,33.022V16.2h9.1a6.114,6.114,0,0,0,.573.521v1.86a9.233,9.233,0,0,0-7.8,9.062v5.383ZM17.579,22.853l-.311.24-2.121-2.957a7.774,7.774,0,0,1,1.606-.367l2.355,1.9-1.492,1.153C17.6,22.835,17.59,22.842,17.579,22.853Zm2.008,3.642H20.6l1.1,6.527H18.483Zm1.118-1.232H19.482l-.715-1.772L20.1,22.461l1.323,1.023Zm.389-3.591,2.356-1.9a7.77,7.77,0,0,1,1.606.367l-2.123,2.957Zm1.559-2.843L20.1,20.891l-2.552-2.062V17.478a6,6,0,0,0,5.1,0Zm2.287-6.852a4.832,4.832,0,0,1-8.354,3.316.6.6,0,0,0-.191-.211,4.816,4.816,0,0,1-1.133-3.106V9.865c1.44.019,2.136-.129,2.684-1.5,1.136,1.071,3.043,1.522,6.286,1.522.229,0,.466,0,.708-.007Zm-.085,22.276a1.043,1.043,0,0,1-1.034.933H16.364a1.042,1.042,0,0,1-1.033-.933Zm-6-30.491a5.209,5.209,0,0,1,4.423.768,4.944,4.944,0,0,1,1.664,4.113c-4.67.088-6.032-.661-6.681-1.89a.615.615,0,0,0-.544-.328.653.653,0,0,0-.072,0,.616.616,0,0,0-.525.458c-.449,1.746-.5,1.766-1.856,1.747.008-2.583,1.283-4.313,3.591-4.871ZM5.728,13.23h8.433a6.022,6.022,0,0,0,.66,1.734H6.03a.616.616,0,0,0-.616.616V33.022H3.924V15.034a1.806,1.806,0,0,1,1.8-1.8Zm32.228,23.7a.706.706,0,0,1-.706.706H2.937a.706.706,0,0,1-.706-.706V34.962a.707.707,0,0,1,.706-.708H14.1a2.274,2.274,0,0,0,2.265,2.165h7.457a2.274,2.274,0,0,0,2.266-2.165H37.251a.707.707,0,0,1,.706.708v1.973Z" transform="translate(-1 -2.355)"/>
        <path id="Path_14128" data-name="Path 14128" d="M48.978,55.726a.616.616,0,0,0-.219.843l.006.01a.607.607,0,0,0,.525.3.619.619,0,0,0,.531-.935.615.615,0,0,0-.843-.219Z" transform="translate(-19.309 -22.82)"/>
        <path id="Path_14129" data-name="Path 14129" d="M52.6,55.726a.616.616,0,0,0-.219.843l.006.01a.607.607,0,0,0,.525.3.619.619,0,0,0,.531-.935.615.615,0,0,0-.843-.219Z" transform="translate(-20.701 -22.82)"/>
      </g>
    </g>
  </g>
</svg>
