<svg width="168" height="168" viewBox="0 0 168 168" fill="none" xmlns="http://www.w3.org/2000/svg">
<path d="M102 122H42C41.4696 122 40.9609 122.21 40.5858 122.586C40.2107 122.961 40 123.469 40 124C40 124.53 40.2107 125.039 40.5858 125.414C40.9609 125.789 41.4696 126 42 126H102C102.53 126 103.039 125.789 103.414 125.414C103.789 125.039 104 124.53 104 124C104 123.469 103.789 122.961 103.414 122.586C103.039 122.21 102.53 122 102 122Z" fill="#707070"/>
<path d="M102 134H42C41.4696 134 40.9609 134.21 40.5858 134.586C40.2107 134.961 40 135.469 40 136C40 136.53 40.2107 137.039 40.5858 137.414C40.9609 137.789 41.4696 138 42 138H102C102.53 138 103.039 137.789 103.414 137.414C103.789 137.039 104 136.53 104 136C104 135.469 103.789 134.961 103.414 134.586C103.039 134.21 102.53 134 102 134Z" fill="#FC6736"/>
<path d="M104 63.9998C104 63.4693 103.789 62.9606 103.414 62.5856C103.039 62.2105 102.53 61.9998 102 61.9998H42C41.4696 61.9998 40.9609 62.2105 40.5858 62.5855C40.2107 62.9606 40 63.4693 40 63.9998C40 64.5302 40.2107 65.0389 40.5858 65.414C40.9609 65.789 41.4696 65.9998 42 65.9998H102C102.53 65.9997 103.039 65.789 103.414 65.4139C103.789 65.0389 104 64.5302 104 63.9998Z" fill="#FC6736"/>
<path d="M79.8965 44.7122C79.7797 44.3636 79.5691 44.054 79.2879 43.8173C79.0066 43.5806 78.6656 43.4259 78.3022 43.3704L74.5195 42.7922L72.8105 39.1502C72.6491 38.8063 72.3932 38.5154 72.0725 38.3117C71.7519 38.108 71.3799 37.9998 71 37.9998C70.6201 37.9998 70.2481 38.108 69.9274 38.3117C69.6068 38.5154 69.3508 38.8063 69.1894 39.1502L67.4804 42.7922L63.6977 43.3704C63.3343 43.4259 62.9932 43.5806 62.7119 43.8173C62.4307 44.0541 62.2201 44.3638 62.1034 44.7124C61.9867 45.0611 61.9683 45.4351 62.0503 45.7935C62.1324 46.1519 62.3116 46.4808 62.5683 46.7439L65.3633 49.6091L64.6992 53.678C64.6389 54.0484 64.6841 54.4283 64.8295 54.7743C64.9749 55.1203 65.2147 55.4184 65.5215 55.6346C65.8283 55.8507 66.1897 55.9762 66.5644 55.9966C66.9392 56.0171 67.3121 55.9317 67.6406 55.7503L71 53.8943C71 53.8943 74.3544 55.7475 74.3594 55.7503C74.6893 55.927 75.0614 56.0097 75.4352 55.9893C75.8089 55.9689 76.1698 55.8462 76.4785 55.6346C76.7853 55.4184 77.0251 55.1203 77.1706 54.7744C77.316 54.4284 77.3611 54.0485 77.3008 53.678L76.6367 49.6092L79.4316 46.744C79.6884 46.4807 79.8675 46.1518 79.9496 45.7934C80.0316 45.4349 80.0132 45.0608 79.8965 44.7122ZM73.0688 47.5388C72.8503 47.7628 72.6874 48.035 72.5932 48.3334C72.4989 48.6318 72.4761 48.9482 72.5264 49.2571L72.6899 50.2576L71.9673 49.8586C71.6693 49.7007 71.3372 49.6181 71 49.6181C70.6627 49.6181 70.3306 49.7007 70.0327 49.8586L69.31 50.2576L69.4736 49.2571C69.5239 48.9482 69.501 48.6318 69.4068 48.3334C69.3126 48.035 69.1497 47.7628 68.9311 47.5388L68.1489 46.7366L69.1396 46.5852C69.4643 46.5356 69.7718 46.4069 70.0348 46.2102C70.2979 46.0136 70.5085 45.7551 70.6479 45.4578L71 44.7078L71.352 45.4578C71.4915 45.7551 71.702 46.0136 71.9651 46.2102C72.2282 46.4069 72.5356 46.5356 72.8603 46.5852L73.851 46.7366L73.0688 47.5388Z" fill="#FC6736"/>
<path d="M42 110C41.4696 110 40.9609 110.21 40.5858 110.586C40.2107 110.961 40 111.469 40 112C40 112.53 40.2107 113.039 40.5858 113.414C40.9609 113.789 41.4696 114 42 114H79.4307C78.1793 112.774 77.0447 111.435 76.0416 110H42Z" fill="#FC6736"/>
<path d="M42 102H72.1706C71.7791 100.69 71.4848 99.3529 71.2902 97.9998H42C41.4696 97.9998 40.9609 98.2105 40.5858 98.5855C40.2107 98.9606 40 99.4693 40 99.9998C40 100.53 40.2107 101.039 40.5858 101.414C40.9609 101.789 41.4696 102 42 102Z" fill="#707070"/>
<path d="M40 87.9998C40 88.5302 40.2107 89.0389 40.5858 89.4139C40.9609 89.789 41.4696 89.9997 42 89.9998H71.2902C71.4848 88.6466 71.7791 87.3096 72.1706 85.9998H42C41.4696 85.9998 40.9609 86.2105 40.5858 86.5856C40.2107 86.9606 40 87.4693 40 87.9998Z" fill="#FC6736"/>
<path d="M79.4307 73.9998H42C41.4696 73.9998 40.9609 74.2105 40.5858 74.5855C40.2107 74.9606 40 75.4693 40 75.9998C40 76.5302 40.2107 77.0389 40.5858 77.414C40.9609 77.789 41.4696 77.9998 42 77.9998H76.0416C77.0447 76.5641 78.1793 75.225 79.4307 73.9998Z" fill="#707070"/>
<path d="M2 152C3.10457 152 4 151.105 4 150C4 148.895 3.10457 148 2 148C0.89543 148 0 148.895 0 150C0 151.105 0.89543 152 2 152Z" fill="#707070"/>
<path d="M11 148H8C7.46957 148 6.96086 148.211 6.58579 148.586C6.21071 148.961 6 149.47 6 150C6 150.53 6.21071 151.039 6.58579 151.414C6.96086 151.789 7.46957 152 8 152H11C11.5304 152 12.0391 151.789 12.4142 151.414C12.7893 151.039 13 150.53 13 150C13 149.47 12.7893 148.961 12.4142 148.586C12.0391 148.211 11.5304 148 11 148Z" fill="#707070"/>
<path d="M160 148H157C156.47 148 155.961 148.211 155.586 148.586C155.211 148.961 155 149.47 155 150C155 150.53 155.211 151.039 155.586 151.414C155.961 151.789 156.47 152 157 152H160C160.53 152 161.039 151.789 161.414 151.414C161.789 151.039 162 150.53 162 150C162 149.47 161.789 148.961 161.414 148.586C161.039 148.211 160.53 148 160 148Z" fill="#707070"/>
<path d="M166 152C167.105 152 168 151.105 168 150C168 148.895 167.105 148 166 148C164.895 148 164 148.895 164 150C164 151.105 164.895 152 166 152Z" fill="#707070"/>
<path d="M118.154 156H109.846C109.343 156.04 108.874 156.268 108.532 156.639C108.19 157.01 108 157.496 108 158C108 158.504 108.19 158.99 108.532 159.361C108.874 159.732 109.343 159.96 109.846 160H118.154C118.657 159.96 119.126 159.732 119.468 159.361C119.81 158.99 120 158.504 120 158C120 157.496 119.81 157.01 119.468 156.639C119.126 156.268 118.657 156.04 118.154 156Z" fill="#FC6736"/>
<path d="M58.1539 156H49.8462C49.3434 156.04 48.8742 156.268 48.5321 156.639C48.19 157.01 48 157.496 48 158C48 158.504 48.19 158.99 48.5321 159.361C48.8742 159.732 49.3434 159.96 49.8462 160H58.1539C58.6567 159.96 59.1258 159.732 59.468 159.361C59.8101 158.99 60.0001 158.504 60.0001 158C60.0001 157.496 59.8101 157.01 59.468 156.639C59.1258 156.268 58.6567 156.04 58.1539 156Z" fill="#FC6736"/>
<path d="M104 156H64C63.4696 156 62.9609 156.211 62.5858 156.586C62.2107 156.961 62 157.47 62 158C62 158.53 62.2107 159.039 62.5858 159.414C62.9609 159.789 63.4696 160 64 160H79.94V162H72C71.4696 162 70.9609 162.211 70.5858 162.586C70.2107 162.961 70 163.47 70 164C70 164.53 70.2107 165.039 70.5858 165.414C70.9609 165.789 71.4696 166 72 166H97C97.5304 166 98.0391 165.789 98.4142 165.414C98.7893 165.039 99 164.53 99 164C99 163.47 98.7893 162.961 98.4142 162.586C98.0391 162.211 97.5304 162 97 162H88.06V160H104C104.53 160 105.039 159.789 105.414 159.414C105.789 159.039 106 158.53 106 158C106 157.47 105.789 156.961 105.414 156.586C105.039 156.211 104.53 156 104 156Z" fill="#FC6736"/>
<path d="M150.721 148H134.142L123.405 134.673L134.344 126.258L139.489 132.195C139.661 132.394 139.87 132.557 140.105 132.675C140.34 132.793 140.596 132.863 140.858 132.882C141.12 132.901 141.383 132.868 141.633 132.786C141.882 132.703 142.113 132.571 142.312 132.399C142.51 132.227 142.673 132.017 142.791 131.782C142.908 131.547 142.978 131.291 142.997 131.029C143.015 130.767 142.982 130.503 142.899 130.254C142.815 130.005 142.684 129.774 142.511 129.576L132.984 118.584C132.109 117.588 130.882 116.97 129.561 116.858C128.241 116.746 126.928 117.149 125.897 117.983L122.85 120.475L115.614 111.295C120.055 107.01 122.669 101.175 122.909 95.009C123.149 88.8427 120.997 82.8221 116.902 78.2054C112.807 73.5887 107.087 70.733 100.936 70.2351C94.7852 69.7372 88.6798 71.6356 83.8958 75.5336C79.1118 79.4316 76.0192 85.0276 75.2643 91.1522C74.5094 97.2769 76.1507 103.456 79.845 108.399C83.5394 113.342 89.001 116.666 95.0887 117.677C101.176 118.687 107.419 117.306 112.512 113.822L119.752 123.007L117.024 125.238C116.016 126.098 115.383 127.316 115.259 128.635C115.135 129.954 115.53 131.269 116.359 132.302L129.005 148H118.65C118.88 147.358 118.999 146.682 119 146V141.827L115 136.951V146C114.999 146.53 114.788 147.038 114.414 147.413C114.039 147.788 113.53 147.999 113 148H31C30.4698 147.999 29.9614 147.788 29.5865 147.413C29.2115 147.038 29.0006 146.53 29 146V30.0002C29.0053 29.4721 29.2172 28.9671 29.5903 28.5933C29.9634 28.2195 30.468 28.0066 30.9961 28.0002C44.3731 28.0017 93.7572 28.0524 94 28.0849V41.9998C94.0017 43.5905 94.6344 45.1156 95.7593 46.2405C96.8841 47.3653 98.4092 47.998 100 47.9998H114.68C114.877 48.5712 115 71.0413 115 71.0413C116.436 72.0444 117.775 73.179 119 74.4304V49.7918C118.992 47.2701 117.992 44.8529 116.216 43.0623C116.216 43.0623 100.005 26.8194 99.9858 26.8005C99.1463 25.865 98.1504 25.0829 97.0425 24.4893C95.8338 24.0593 94.5462 23.8967 93.2685 24.0129C84.2602 24.009 44.374 24.0017 30.9955 24.0002C29.4153 24.0342 27.9093 24.6774 26.792 25.7955C25.6748 26.9135 25.0328 28.42 25 30.0002V146C25.0014 146.682 25.1198 147.358 25.3501 148H17.2787C16.9942 147.963 16.705 147.987 16.4305 148.07C16.1559 148.154 15.9024 148.295 15.6867 148.484C15.4711 148.673 15.2983 148.907 15.18 149.168C15.0616 149.429 15.0004 149.713 15.0004 150C15.0004 150.287 15.0616 150.571 15.18 150.832C15.2983 151.093 15.4711 151.327 15.6867 151.516C15.9024 151.705 16.1559 151.846 16.4305 151.93C16.705 152.013 16.9942 152.037 17.2787 152H150.721C151.006 152.037 151.295 152.013 151.57 151.93C151.844 151.846 152.098 151.705 152.313 151.516C152.529 151.327 152.702 151.093 152.82 150.832C152.938 150.571 153 150.287 153 150C153 149.713 152.938 149.429 152.82 149.168C152.702 148.907 152.529 148.673 152.313 148.484C152.098 148.295 151.844 148.154 151.57 148.07C151.295 147.987 151.006 147.963 150.721 148ZM99 114C95.0444 114 91.1776 112.827 87.8886 110.629C84.5996 108.432 82.0362 105.308 80.5224 101.653C79.0087 97.9989 78.6126 93.9776 79.3843 90.098C80.156 86.2183 82.0608 82.6547 84.8579 79.8576C87.6549 77.0606 91.2186 75.1558 95.0982 74.3841C98.9778 73.6124 102.999 74.0084 106.654 75.5222C110.308 77.0359 113.432 79.5994 115.629 82.8884C117.827 86.1773 119 90.0441 119 93.9998C118.994 99.3023 116.885 104.386 113.136 108.135C109.386 111.885 104.302 113.994 99 114ZM119.428 129.737C119.259 129.534 119.178 129.272 119.202 129.009C119.226 128.746 119.353 128.503 119.556 128.334L128.429 121.08C128.651 120.899 128.934 120.811 129.22 120.834C129.506 120.857 129.771 120.989 129.962 121.203L131.72 123.231L120.895 131.558C120.895 131.558 119.437 129.748 119.428 129.737ZM98 30.8284L111.171 43.9998H100C99.4697 43.9992 98.9613 43.7883 98.5864 43.4134C98.2114 43.0384 98.0005 42.53 98 41.9998V30.8284Z" fill="#707070"/>
<path d="M87.25 20.5C87.8433 20.5 88.4234 20.3241 88.9167 19.9944C89.4101 19.6648 89.7946 19.1962 90.0216 18.6481C90.2487 18.0999 90.3081 17.4967 90.1924 16.9147C90.0766 16.3328 89.7909 15.7982 89.3713 15.3787C88.9518 14.9591 88.4172 14.6734 87.8353 14.5576C87.2533 14.4419 86.6501 14.5013 86.102 14.7284C85.5538 14.9554 85.0852 15.3399 84.7556 15.8333C84.4259 16.3266 84.25 16.9067 84.25 17.5C84.2509 18.2954 84.5673 19.0579 85.1297 19.6203C85.6921 20.1827 86.4546 20.4991 87.25 20.5ZM87.25 16C87.5467 16 87.8367 16.088 88.0834 16.2528C88.33 16.4176 88.5223 16.6519 88.6358 16.926C88.7493 17.2001 88.7791 17.5017 88.7212 17.7926C88.6633 18.0836 88.5204 18.3509 88.3107 18.5607C88.1009 18.7704 87.8336 18.9133 87.5426 18.9712C87.2517 19.0291 86.9501 18.9994 86.676 18.8858C86.4019 18.7723 86.1676 18.58 86.0028 18.3334C85.838 18.0867 85.75 17.7967 85.75 17.5C85.7504 17.1023 85.9086 16.721 86.1898 16.4398C86.471 16.1586 86.8523 16.0004 87.25 16Z" fill="#707070"/>
<path d="M161.5 32C161.104 32 160.718 32.1173 160.389 32.3371C160.06 32.5568 159.804 32.8692 159.652 33.2346C159.501 33.6001 159.461 34.0022 159.538 34.3902C159.616 34.7781 159.806 35.1345 160.086 35.4142C160.365 35.6939 160.722 35.8844 161.11 35.9616C161.498 36.0387 161.9 35.9991 162.265 35.8478C162.631 35.6964 162.943 35.44 163.163 35.1111C163.383 34.7822 163.5 34.3956 163.5 34C163.499 33.4698 163.288 32.9614 162.914 32.5865C162.539 32.2115 162.03 32.0006 161.5 32ZM161.5 35C161.302 35 161.109 34.9414 160.944 34.8315C160.78 34.7216 160.652 34.5654 160.576 34.3827C160.5 34.2 160.481 33.9989 160.519 33.8049C160.558 33.6109 160.653 33.4327 160.793 33.2929C160.933 33.153 161.111 33.0578 161.305 33.0192C161.499 32.9806 161.7 33.0004 161.883 33.0761C162.065 33.1518 162.222 33.28 162.331 33.4444C162.441 33.6089 162.5 33.8022 162.5 34C162.5 34.2651 162.394 34.5193 162.207 34.7068C162.019 34.8943 161.765 34.9997 161.5 35Z" fill="#707070"/>
<path d="M64.8574 2C64.4619 2 64.0752 2.1173 63.7463 2.33706C63.4174 2.55682 63.161 2.86918 63.0097 3.23463C62.8583 3.60009 62.8187 4.00222 62.8959 4.39018C62.973 4.77814 63.1635 5.13451 63.4432 5.41421C63.7229 5.69392 64.0793 5.8844 64.4672 5.96157C64.8552 6.03874 65.2573 5.99913 65.6228 5.84776C65.9882 5.69638 66.3006 5.44004 66.5204 5.11114C66.7401 4.78224 66.8574 4.39556 66.8574 4C66.8568 3.46975 66.6459 2.9614 66.271 2.58646C65.896 2.21151 65.3877 2.00061 64.8574 2ZM64.8574 5C64.6596 5 64.4663 4.94135 64.3019 4.83147C64.1374 4.72159 64.0092 4.56541 63.9335 4.38268C63.8579 4.19996 63.8381 3.99889 63.8766 3.80491C63.9152 3.61093 64.0105 3.43275 64.1503 3.29289C64.2902 3.15304 64.4684 3.0578 64.6623 3.01921C64.8563 2.98063 65.0574 3.00043 65.2401 3.07612C65.4228 3.15181 65.579 3.27998 65.6889 3.44443C65.7988 3.60888 65.8574 3.80222 65.8574 4C65.8572 4.26514 65.7517 4.51934 65.5642 4.70681C65.3768 4.89429 65.1226 4.99974 64.8574 5Z" fill="#707070"/>
<path d="M132 49.75C131.604 49.75 131.218 49.8673 130.889 50.0871C130.56 50.3068 130.304 50.6192 130.152 50.9846C130.001 51.3501 129.961 51.7522 130.038 52.1402C130.116 52.5281 130.306 52.8845 130.586 53.1642C130.865 53.4439 131.222 53.6344 131.61 53.7116C131.998 53.7887 132.4 53.7491 132.765 53.5978C133.131 53.4464 133.443 53.19 133.663 52.8611C133.883 52.5322 134 52.1456 134 51.75C133.999 51.2198 133.788 50.7114 133.414 50.3365C133.039 49.9615 132.53 49.7506 132 49.75ZM132 52.75C131.802 52.75 131.609 52.6914 131.444 52.5815C131.28 52.4716 131.152 52.3154 131.076 52.1327C131 51.95 130.981 51.7489 131.019 51.5549C131.058 51.3609 131.153 51.1827 131.293 51.0429C131.433 50.903 131.611 50.8078 131.805 50.7692C131.999 50.7306 132.2 50.7504 132.383 50.8261C132.565 50.9018 132.722 51.03 132.831 51.1944C132.941 51.3589 133 51.5522 133 51.75C133 52.0151 132.894 52.2693 132.707 52.4568C132.519 52.6443 132.265 52.7497 132 52.75Z" fill="#707070"/>
<path d="M12.6074 53.25C12.6074 52.8544 12.4901 52.4678 12.2704 52.1389C12.0506 51.81 11.7382 51.5536 11.3728 51.4022C11.0073 51.2509 10.6052 51.2113 10.2172 51.2884C9.82928 51.3656 9.47291 51.5561 9.19321 51.8358C8.9135 52.1155 8.72302 52.4719 8.64585 52.8598C8.56868 53.2478 8.60829 53.6499 8.75966 54.0154C8.91104 54.3808 9.16738 54.6932 9.49628 54.9129C9.82518 55.1327 10.2119 55.25 10.6074 55.25C11.1377 55.2494 11.646 55.0385 12.021 54.6635C12.3959 54.2886 12.6068 53.7802 12.6074 53.25ZM9.60742 53.25C9.60742 53.0522 9.66607 52.8589 9.77595 52.6944C9.88583 52.53 10.042 52.4018 10.2247 52.3261C10.4075 52.2504 10.6085 52.2306 10.8025 52.2692C10.9965 52.3078 11.1747 52.403 11.3145 52.5429C11.4544 52.6827 11.5496 52.8609 11.5882 53.0549C11.6268 53.2489 11.607 53.45 11.5313 53.6327C11.4556 53.8154 11.3274 53.9716 11.163 54.0815C10.9985 54.1914 10.8052 54.25 10.6074 54.25C10.3423 54.2497 10.0881 54.1443 9.90061 53.9568C9.71313 53.7693 9.60769 53.5151 9.60742 53.25Z" fill="#707070"/>
<path d="M7.78001 7.468L9.26701 5.512L8.32801 4.98L7.37401 7.17H7.34201L6.37301 4.996L5.41701 5.543L6.88901 7.452V7.484L4.58801 7.186V8.25L6.90401 7.953V7.984L5.41701 9.893L6.30901 10.456L7.32701 8.25H7.35701L8.29601 10.441L9.28201 9.877L7.78001 8V7.968L10.142 8.25V7.186L7.78001 7.499V7.468Z" fill="#FC6736"/>
<path d="M38.343 17.326L37.486 18.425L38 18.75L38.586 17.479H38.604L39.144 18.741L39.712 18.417L38.847 17.335V17.317L40.208 17.479V16.867L38.847 17.047V17.029L39.703 15.903L39.163 15.596L38.613 16.858H38.595L38.037 15.605L37.486 15.921L38.334 17.02V17.038L37.009 16.867V17.479L38.343 17.308V17.326Z" fill="#FC6736"/>
<path d="M156.049 5.782V4.739L153.732 5.046V5.015L155.19 3.097L154.269 2.575L153.334 4.723H153.302L152.351 2.59L151.414 3.127L152.857 5V5.031L150.601 4.739V5.782L152.872 5.491V5.522L151.414 7.394L152.289 7.947L153.287 5.782H153.317L154.238 7.931L155.205 7.379L153.732 5.537V5.506L156.049 5.782Z" fill="#FC6736"/>
<path d="M123.355 21.086L124.613 19.431L123.819 18.981L123.012 20.834H122.985L122.164 18.994L121.356 19.458L122.601 21.073V21.099L120.654 20.848V21.748L122.614 21.496V21.523L121.356 23.138L122.11 23.615L122.972 21.748H122.998L123.792 23.601L124.626 23.125L123.355 21.536V21.509L125.354 21.748V20.848L123.355 21.112V21.086Z" fill="#FC6736"/>
</svg>
