<svg xmlns="http://www.w3.org/2000/svg" width="66.469" height="62.454" viewBox="0 0 66.469 62.454">
  <g id="online-course" transform="translate(-4 -5.691)">
    <path id="Path_5175" data-name="Path 5175" d="M67.29,18.484H64.061L67.53,16.71a.873.873,0,0,0,0-1.544L49.189,5.786a.868.868,0,0,0-.789,0L30.059,15.166a.873.873,0,0,0,0,1.544l3.469,1.774H7.179A3.182,3.182,0,0,0,4,21.663V57.314a3.182,3.182,0,0,0,3.179,3.179H31.724v2.5H25.557a.867.867,0,0,0-.867.867v3.42a.867.867,0,0,0,.867.867H49.682a.867.867,0,0,0,.867-.867v-3.42a.867.867,0,0,0-.867-.867H43.515v-2.5H67.29a3.182,3.182,0,0,0,3.179-3.179V21.663a3.182,3.182,0,0,0-3.179-3.179ZM48.794,7.532l16.437,8.406L48.794,24.344,37.5,18.567l-.012-.006-5.129-2.623Zm0,19.906a.867.867,0,0,0-.867.867v1.531a27.167,27.167,0,0,0-6.966,1.115V22.286l7.438,3.8a.868.868,0,0,0,.789,0l7.438-3.8v8.665a27.167,27.167,0,0,0-6.966-1.115V28.3a.867.867,0,0,0-.867-.867ZM42.648,64.725h6.167v1.686H26.424V64.725h6.167a.867.867,0,0,0,.867-.867V60.493h8.322v3.365a.867.867,0,0,0,.867.867Zm26.088-7.411a1.446,1.446,0,0,1-1.445,1.445H7.179a1.446,1.446,0,0,1-1.445-1.445V21.663a1.446,1.446,0,0,1,1.445-1.445h29.74L39.228,21.4V32.144a.873.873,0,0,0,1.153.819,26.224,26.224,0,0,1,17.113.048.872.872,0,0,0,.867-.867V21.4l2.309-1.181h6.62a1.446,1.446,0,0,1,1.445,1.445Z" transform="translate(0 0)" fill="#ff2a2a"/>
    <path id="Path_5176" data-name="Path 5176" d="M12.4,42.457a2.408,2.408,0,0,0,1.206-.327L27.52,34.1a2.427,2.427,0,0,0,.513-3.783,2.469,2.469,0,0,0-.513-.393L13.608,21.89a2.411,2.411,0,0,0-3.617,2.088V40.042A2.428,2.428,0,0,0,12.4,42.457Zm-.677-18.479a.677.677,0,0,1,1.016-.586l13.912,8.032a.678.678,0,0,1,0,1.173L12.741,40.629a.677.677,0,0,1-1.016-.586Z" transform="translate(1.12 2.968)" fill="#ff2a2a"/>
    <path id="Path_5177" data-name="Path 5177" d="M64.25,45.817H22.678a3.034,3.034,0,0,0-3.019-2.309H16.55a3.034,3.034,0,0,0-3.02,2.309H8.763a.867.867,0,1,0,0,1.734h4.767a3.034,3.034,0,0,0,3.021,2.315h3.108a3.034,3.034,0,0,0,3.021-2.315H64.25a.867.867,0,1,0,0-1.734ZM19.659,48.132H16.55a1.445,1.445,0,1,1,0-2.89h3.108a1.445,1.445,0,0,1,0,2.89Z" transform="translate(0.728 7.07)" fill="#ff2a2a"/>
    <path id="Path_5178" data-name="Path 5178" d="M29.456,33.786H56.374a.867.867,0,1,0,0-1.734H29.456a.867.867,0,1,0,0,1.734Z" transform="translate(4.597 4.928)" fill="#ff2a2a"/>
    <path id="Path_5179" data-name="Path 5179" d="M29.456,40.487H56.374a.867.867,0,1,0,0-1.734H29.456a.867.867,0,1,0,0,1.734Z" transform="translate(4.597 6.181)" fill="#ff2a2a"/>
  </g>
</svg>
