<svg id="Layer_1" data-name="Layer 1" xmlns="http://www.w3.org/2000/svg" xmlns:xlink="http://www.w3.org/1999/xlink" viewBox="0 0 427 414"><defs><style>.cls-1{fill:none;}.cls-2{fill:#ebebeb;}.cls-3{clip-path:url(#clip-path);}.cls-4{fill:#e0e0e0;}.cls-5{opacity:0.2;}.cls-6{clip-path:url(#clip-path-2);}.cls-7{fill:#fff;}.cls-8{fill:#f5f5f5;}.cls-9{fill:#fafafa;}.cls-10{fill:#455a64;}.cls-11{fill:#263238;}.cls-12{opacity:0.3;}.cls-13{clip-path:url(#clip-path-4);}.cls-14{fill:#ed1c24;}.cls-15{fill:#ffbe9d;}.cls-16{fill:#eb996e;}.cls-17{clip-path:url(#clip-path-5);}</style><clipPath id="clip-path" transform="translate(0 0)"><rect class="cls-1" x="5" width="416.08" height="411.07"/></clipPath><clipPath id="clip-path-2" transform="translate(0 0)"><rect class="cls-1" x="15.5" y="34.32" width="2.82" height="0.3"/></clipPath><clipPath id="clip-path-4" transform="translate(0 0)"><rect class="cls-1" x="361.05" y="201.32" width="41.78" height="118.71"/></clipPath><clipPath id="clip-path-5" transform="translate(0 0)"><rect class="cls-1" x="245.52" y="362.71" width="61.47" height="48.35"/></clipPath></defs><rect class="cls-1" width="427" height="414"/><rect class="cls-1" x="5" width="416.08" height="411.07"/><rect id="Rectangle_1" data-name="Rectangle 1" class="cls-2" x="5.25" y="18.56" width="90.78" height="117.71"/><g class="cls-3"><g id="Group_4" data-name="Group 4"><path id="Path_1" data-name="Path 1" class="cls-4" d="M11.44,107.9a.77.77,0,0,1,.45.06,1.43,1.43,0,0,1,.79,1,1.38,1.38,0,0,1-.12,1,1.7,1.7,0,0,1-.88.75,1.68,1.68,0,0,1-1.32,0,2.21,2.21,0,0,1-1-1.05,3.39,3.39,0,0,1,.35-3.26,3.49,3.49,0,0,1,1.39-1.28,2,2,0,0,1,2,.11,3.52,3.52,0,0,1,1.25,1.69,7.47,7.47,0,0,1,.43,2.14,8,8,0,0,1-1,4.4A29.76,29.76,0,0,1,11,117a10.67,10.67,0,0,0-2.06,3.56,5,5,0,0,0,.23,3.6,2.87,2.87,0,0,0,2.57,1.58,2.38,2.38,0,0,0,1.3-.41,1.79,1.79,0,0,0,.69-1,2.4,2.4,0,0,0-.35-1.91,1.62,1.62,0,0,0-1-.73,1.66,1.66,0,0,0-.32,0,.48.48,0,0,1-.12,0l.11,0a1,1,0,0,1,.35,0,1.66,1.66,0,0,1,1.08.73,2.48,2.48,0,0,1,.41,2,1.94,1.94,0,0,1-.74,1.1,2.5,2.5,0,0,1-1.4.47,3.09,3.09,0,0,1-1.57-.4,3,3,0,0,1-1.22-1.28,5.21,5.21,0,0,1-.28-3.8,10.9,10.9,0,0,1,2.09-3.67,28.37,28.37,0,0,0,2.69-3.58,7.68,7.68,0,0,0,1-4.24,7.17,7.17,0,0,0-.4-2,3.32,3.32,0,0,0-1.14-1.57,1.73,1.73,0,0,0-1.73-.1,3.26,3.26,0,0,0-1.29,1.18,3.15,3.15,0,0,0-.37,3,2,2,0,0,0,.93,1,1.55,1.55,0,0,0,2-.6,1.23,1.23,0,0,0,.14-.86,1.39,1.39,0,0,0-.7-1,2.13,2.13,0,0,0-.43-.13" transform="translate(0 0)"/><path id="Path_2" data-name="Path 2" class="cls-4" d="M12.24,97.18a.72.72,0,0,1-.46-.06,1.46,1.46,0,0,1-.79-1,1.4,1.4,0,0,1,.13-1,1.71,1.71,0,0,1,2.2-.7,2.27,2.27,0,0,1,1,1.06A3.37,3.37,0,0,1,14,98.74,3.52,3.52,0,0,1,12.62,100a2.14,2.14,0,0,1-1,.21,2,2,0,0,1-1-.32,3.6,3.6,0,0,1-1.25-1.7,7.47,7.47,0,0,1-.43-2.13A8,8,0,0,1,10,91.68a29.68,29.68,0,0,1,2.71-3.62,10.67,10.67,0,0,0,2.06-3.56,5,5,0,0,0-.23-3.6A2.86,2.86,0,0,0,12,79.32a2.38,2.38,0,0,0-1.3.41,1.79,1.79,0,0,0-.69,1,2.4,2.4,0,0,0,.35,1.91,1.62,1.62,0,0,0,1,.73,1.84,1.84,0,0,0,.33,0,.4.4,0,0,1,.11,0s0,0-.11,0a1,1,0,0,1-.34,0,1.62,1.62,0,0,1-1.08-.73,2.47,2.47,0,0,1-.42-2,1.92,1.92,0,0,1,.74-1.09,2.43,2.43,0,0,1,1.4-.47,3.12,3.12,0,0,1,1.58.4,3,3,0,0,1,1.22,1.27A5.23,5.23,0,0,1,15,84.59a11.15,11.15,0,0,1-2.1,3.66,28.29,28.29,0,0,0-2.68,3.58,7.59,7.59,0,0,0-1,4.24,6.86,6.86,0,0,0,.41,2.05,3.23,3.23,0,0,0,1.14,1.56,1.68,1.68,0,0,0,1.73.1,3.46,3.46,0,0,0,1.66-4.21,2.15,2.15,0,0,0-.93-1,1.49,1.49,0,0,0-1.19,0,1.45,1.45,0,0,0-.8.66,1.23,1.23,0,0,0-.14.86,1.42,1.42,0,0,0,.7,1,1.62,1.62,0,0,0,.43.12" transform="translate(0 0)"/><path id="Path_3" data-name="Path 3" class="cls-4" d="M12.76,102.33a.93.93,0,1,1-.92-.92h0a.92.92,0,0,1,.92.92h0" transform="translate(0 0)"/><path id="Path_4" data-name="Path 4" class="cls-4" d="M13.16,77.74a.92.92,0,1,1-.92-.93h0a.93.93,0,0,1,.92.93" transform="translate(0 0)"/><path id="Path_5" data-name="Path 5" class="cls-4" d="M11.84,47.48a1.62,1.62,0,0,0,.43-.12,1.42,1.42,0,0,0,.7-1,1.26,1.26,0,0,0-.14-.87,1.55,1.55,0,0,0-2-.6,2.06,2.06,0,0,0-.93,1,3.48,3.48,0,0,0,1.66,4.22A1.7,1.7,0,0,0,13.3,50a3.28,3.28,0,0,0,1.14-1.58,7.17,7.17,0,0,0,.4-2,7.71,7.71,0,0,0-1-4.25,29.21,29.21,0,0,0-2.69-3.59,10.94,10.94,0,0,1-2.09-3.68A5.21,5.21,0,0,1,9.33,31a3,3,0,0,1,1.21-1.28,3.12,3.12,0,0,1,1.58-.4,2.46,2.46,0,0,1,1.41.47,2,2,0,0,1,.73,1.1,2.5,2.5,0,0,1-.41,2,1.65,1.65,0,0,1-1.08.73,1,1,0,0,1-.34,0l-.11,0h.12a.93.93,0,0,0,.33,0,1.58,1.58,0,0,0,1-.73A2.41,2.41,0,0,0,14.11,31a1.78,1.78,0,0,0-.68-1,2.25,2.25,0,0,0-1.3-.41,2.87,2.87,0,0,0-2.58,1.58,5.09,5.09,0,0,0-.23,3.62,10.82,10.82,0,0,0,2.06,3.57A28.39,28.39,0,0,1,14.1,42a8,8,0,0,1,1,4.41,7,7,0,0,1-.43,2.13,3.44,3.44,0,0,1-1.25,1.7,1.89,1.89,0,0,1-1,.33,2,2,0,0,1-1-.21A3.45,3.45,0,0,1,10.07,49a3.39,3.39,0,0,1-.35-3.26,2.27,2.27,0,0,1,1-1.06,1.68,1.68,0,0,1,1.32,0,1.71,1.71,0,0,1,.88.75,1.4,1.4,0,0,1,.13,1,1.46,1.46,0,0,1-.79,1,.74.74,0,0,1-.46.07" transform="translate(0 0)"/><path id="Path_6" data-name="Path 6" class="cls-4" d="M12.12,58.22a1.73,1.73,0,0,0-.43.12,1.42,1.42,0,0,0-.7,1,1.25,1.25,0,0,0,.14.87,1.55,1.55,0,0,0,2,.6,2.06,2.06,0,0,0,.93-1,3.15,3.15,0,0,0-.37-3,3.12,3.12,0,0,0-1.29-1.18,1.73,1.73,0,0,0-1.73.1,3.28,3.28,0,0,0-1.14,1.58,7.17,7.17,0,0,0-.4,2.05,7.69,7.69,0,0,0,1,4.25,27.76,27.76,0,0,0,2.69,3.59,10.94,10.94,0,0,1,2.09,3.68,5.26,5.26,0,0,1-.27,3.8,3,3,0,0,1-1.22,1.28,3.1,3.1,0,0,1-1.58.4,2.45,2.45,0,0,1-1.4-.47,1.94,1.94,0,0,1-.74-1.1,2.51,2.51,0,0,1,.41-2A1.65,1.65,0,0,1,11.18,72a1,1,0,0,1,.35,0l.11,0h-.12a.93.93,0,0,0-.33,0,1.64,1.64,0,0,0-1,.73,2.45,2.45,0,0,0-.34,1.92,1.8,1.8,0,0,0,.69,1,2.23,2.23,0,0,0,1.3.41,2.83,2.83,0,0,0,2.57-1.58,5,5,0,0,0,.23-3.61,10.55,10.55,0,0,0-2.06-3.57,29,29,0,0,1-2.71-3.63,8,8,0,0,1-1-4.41,7.1,7.1,0,0,1,.44-2.14,3.47,3.47,0,0,1,1.24-1.7,2,2,0,0,1,1-.33,2.14,2.14,0,0,1,1,.21,3.45,3.45,0,0,1,1.39,1.29,3.39,3.39,0,0,1,.35,3.26,2.23,2.23,0,0,1-1,1.06,1.64,1.64,0,0,1-1.32.05,1.7,1.7,0,0,1-.88-.75,1.38,1.38,0,0,1-.12-1,1.43,1.43,0,0,1,.79-1,.78.78,0,0,1,.45-.07" transform="translate(0 0)"/><path id="Path_7" data-name="Path 7" class="cls-4" d="M13.16,53.06a.92.92,0,1,0-.92.93.92.92,0,0,0,.92-.93" transform="translate(0 0)"/><path id="Path_8" data-name="Path 8" class="cls-4" d="M88.06,107.9a.78.78,0,0,1,.45.06,1.46,1.46,0,0,1,.79,1,1.33,1.33,0,0,1-.13,1,1.64,1.64,0,0,1-.87.75,1.68,1.68,0,0,1-1.32,0,2.17,2.17,0,0,1-1-1.05,3.39,3.39,0,0,1,.35-3.26,3.49,3.49,0,0,1,1.39-1.28,2.15,2.15,0,0,1,1-.22,2,2,0,0,1,1,.33,3.66,3.66,0,0,1,1.25,1.7,7.34,7.34,0,0,1,.43,2.13,7.87,7.87,0,0,1-1,4.4A27.31,27.31,0,0,1,87.6,117a10.67,10.67,0,0,0-2.06,3.56,5,5,0,0,0,.23,3.6,2.84,2.84,0,0,0,2.57,1.58,2.3,2.3,0,0,0,1.3-.41,1.8,1.8,0,0,0,.69-1,2.39,2.39,0,0,0-.35-1.91,1.58,1.58,0,0,0-1-.73.93.93,0,0,0-.33,0h-.11l.11,0a1,1,0,0,1,.34,0,1.6,1.6,0,0,1,1.08.72,2.55,2.55,0,0,1,.42,2,1.92,1.92,0,0,1-.74,1.09,2.45,2.45,0,0,1-1.4.47,3.12,3.12,0,0,1-1.58-.4,3.08,3.08,0,0,1-1.21-1.27,5.21,5.21,0,0,1-.28-3.8,10.8,10.8,0,0,1,2.09-3.67,28.47,28.47,0,0,0,2.69-3.59,7.64,7.64,0,0,0,1-4.24,6.86,6.86,0,0,0-.41-2,3.21,3.21,0,0,0-1.13-1.56,1.68,1.68,0,0,0-1.73-.1,3.45,3.45,0,0,0-1.66,4.21,2.06,2.06,0,0,0,.93,1,1.47,1.47,0,0,0,1.18,0,1.45,1.45,0,0,0,.8-.66,1.14,1.14,0,0,0,.14-.86,1.4,1.4,0,0,0-.7-1,1.55,1.55,0,0,0-.42-.12" transform="translate(0 0)"/><path id="Path_9" data-name="Path 9" class="cls-4" d="M88.85,97.18a.7.7,0,0,1-.45-.06,1.46,1.46,0,0,1-.79-1,1.34,1.34,0,0,1,.13-1,1.69,1.69,0,0,1,2.19-.7,2.21,2.21,0,0,1,1,1,3.34,3.34,0,0,1-.35,3.26A3.39,3.39,0,0,1,89.23,100a2.1,2.1,0,0,1-1,.21,2,2,0,0,1-1-.32A3.53,3.53,0,0,1,86,98.22a7.15,7.15,0,0,1-.43-2.14,7.9,7.9,0,0,1,1-4.4,28.9,28.9,0,0,1,2.72-3.61,10.82,10.82,0,0,0,2.06-3.57,5,5,0,0,0-.24-3.6,2.84,2.84,0,0,0-2.57-1.57,2.25,2.25,0,0,0-1.3.41,1.75,1.75,0,0,0-.68,1,2.39,2.39,0,0,0,.34,1.91,1.64,1.64,0,0,0,1,.73.93.93,0,0,0,.33,0h.12l-.12,0a1,1,0,0,1-.34,0,1.62,1.62,0,0,1-1.08-.74,2.48,2.48,0,0,1-.41-2,1.94,1.94,0,0,1,.74-1.1,2.55,2.55,0,0,1,1.4-.47,3.19,3.19,0,0,1,1.57.4,3.07,3.07,0,0,1,1.22,1.28,5.23,5.23,0,0,1,.28,3.81,10.86,10.86,0,0,1-2.09,3.66,28.47,28.47,0,0,0-2.69,3.59,7.64,7.64,0,0,0-1,4.24,6.86,6.86,0,0,0,.41,2,3.25,3.25,0,0,0,1.13,1.55,1.68,1.68,0,0,0,1.73.1,3.43,3.43,0,0,0,1.66-4.21,2.1,2.1,0,0,0-.93-1,1.47,1.47,0,0,0-1.18,0,1.5,1.5,0,0,0-.81.66,1.18,1.18,0,0,0-.13.86,1.4,1.4,0,0,0,.7,1,1.55,1.55,0,0,0,.42.12" transform="translate(0 0)"/><path id="Path_10" data-name="Path 10" class="cls-4" d="M89.38,102.33a.93.93,0,1,1-.93-.92h0a.93.93,0,0,1,.93.92h0" transform="translate(0 0)"/><path id="Path_11" data-name="Path 11" class="cls-4" d="M89.78,77.74a.93.93,0,0,1-1.85,0,.93.93,0,0,1,.93-.93h0a.93.93,0,0,1,.92.93" transform="translate(0 0)"/><path id="Path_12" data-name="Path 12" class="cls-4" d="M88.46,47.48a1.62,1.62,0,0,0,.43-.12,1.42,1.42,0,0,0,.7-1,1.26,1.26,0,0,0-.14-.87,1.55,1.55,0,0,0-2-.6,2.06,2.06,0,0,0-.93,1,3.47,3.47,0,0,0,1.66,4.22,1.7,1.7,0,0,0,1.73-.1,3.28,3.28,0,0,0,1.14-1.58,7.17,7.17,0,0,0,.4-2,7.71,7.71,0,0,0-1-4.25,29.39,29.39,0,0,0-2.68-3.59,10.8,10.8,0,0,1-2.1-3.68A5.26,5.26,0,0,1,86,31a3,3,0,0,1,1.21-1.28,3.12,3.12,0,0,1,1.58-.4,2.46,2.46,0,0,1,1.41.47,2,2,0,0,1,.74,1.1,2.55,2.55,0,0,1-.42,2,1.65,1.65,0,0,1-1.08.73,1,1,0,0,1-.34,0l-.12,0a.25.25,0,0,1,.12,0,.93.93,0,0,0,.33,0,1.58,1.58,0,0,0,1-.73A2.41,2.41,0,0,0,90.73,31,1.8,1.8,0,0,0,90,30a2.23,2.23,0,0,0-1.3-.41,2.84,2.84,0,0,0-2.57,1.58,5,5,0,0,0-.23,3.62A10.82,10.82,0,0,0,88,38.34,26.77,26.77,0,0,1,90.71,42a7.88,7.88,0,0,1,1.05,4.41,7.34,7.34,0,0,1-.43,2.13,3.55,3.55,0,0,1-1.25,1.7,1.89,1.89,0,0,1-1,.33,2,2,0,0,1-1-.21,3.71,3.71,0,0,1-1.74-4.55,2.19,2.19,0,0,1,1-1.06,1.69,1.69,0,0,1,2.19.7,1.33,1.33,0,0,1,.13,1,1.46,1.46,0,0,1-.79,1,.78.78,0,0,1-.45.07" transform="translate(0 0)"/><path id="Path_13" data-name="Path 13" class="cls-4" d="M88.74,58.22a1.62,1.62,0,0,0-.43.12,1.42,1.42,0,0,0-.7,1,1.25,1.25,0,0,0,.14.87,1.45,1.45,0,0,0,.8.66,1.49,1.49,0,0,0,1.19-.06,2.06,2.06,0,0,0,.93-1A3.48,3.48,0,0,0,89,55.61a1.75,1.75,0,0,0-1.74.1,3.33,3.33,0,0,0-1.13,1.58,7.18,7.18,0,0,0-.41,2.05,7.7,7.7,0,0,0,1,4.25,28.64,28.64,0,0,0,2.68,3.59,10.78,10.78,0,0,1,2.09,3.68,5.21,5.21,0,0,1-.27,3.8A3,3,0,0,1,90,75.94a3.12,3.12,0,0,1-1.58.4,2.46,2.46,0,0,1-1.41-.47,1.94,1.94,0,0,1-.74-1.1,2.55,2.55,0,0,1,.42-2A1.6,1.6,0,0,1,87.81,72a1,1,0,0,1,.34,0l.11,0h-.11a.93.93,0,0,0-.33,0,1.58,1.58,0,0,0-1,.73,2.4,2.4,0,0,0-.35,1.91,1.79,1.79,0,0,0,.69,1,2.25,2.25,0,0,0,1.3.41A2.83,2.83,0,0,0,91,74.55a5,5,0,0,0,.23-3.61,10.72,10.72,0,0,0-2.06-3.57,28.08,28.08,0,0,1-2.71-3.63,7.92,7.92,0,0,1-1-4.41,7.47,7.47,0,0,1,.43-2.14,3.6,3.6,0,0,1,1.25-1.7,2,2,0,0,1,1-.33,2.14,2.14,0,0,1,1,.21,3.72,3.72,0,0,1,1.74,4.56,2.23,2.23,0,0,1-1,1.06,1.68,1.68,0,0,1-1.32,0,1.6,1.6,0,0,1-.87-.75,1.33,1.33,0,0,1-.13-1,1.45,1.45,0,0,1,.79-1,.78.78,0,0,1,.45-.07" transform="translate(0 0)"/><path id="Path_14" data-name="Path 14" class="cls-4" d="M89.78,53.06a.93.93,0,1,0-.92.93.93.93,0,0,0,.92-.93" transform="translate(0 0)"/><path id="Path_15" data-name="Path 15" class="cls-4" d="M44.33,129.7a1.62,1.62,0,0,0-.12-.43,1.42,1.42,0,0,0-1-.7,1.27,1.27,0,0,0-.87.14,1.55,1.55,0,0,0-.6,2,2.06,2.06,0,0,0,1,.93A3.5,3.5,0,0,0,47,130a1.7,1.7,0,0,0-.11-1.73,3.31,3.31,0,0,0-1.57-1.14,7.24,7.24,0,0,0-2.06-.4,7.71,7.71,0,0,0-4.25,1,29.21,29.21,0,0,0-3.59,2.69,10.75,10.75,0,0,1-3.68,2.09,5.21,5.21,0,0,1-3.8-.28,3,3,0,0,1-1.68-2.79,2.53,2.53,0,0,1,.47-1.41,2,2,0,0,1,1.1-.73,2.5,2.5,0,0,1,2,.41,1.62,1.62,0,0,1,.73,1.08,1,1,0,0,1,0,.34,1.13,1.13,0,0,1,0,.12.49.49,0,0,1,0-.12,1.84,1.84,0,0,0,0-.33,1.6,1.6,0,0,0-.74-1,2.43,2.43,0,0,0-1.91-.35,1.78,1.78,0,0,0-1,.69,2.25,2.25,0,0,0-.41,1.3A2.83,2.83,0,0,0,28,132a5,5,0,0,0,3.61.23,10.59,10.59,0,0,0,3.58-2.06,27.31,27.31,0,0,1,3.62-2.71,8,8,0,0,1,4.41-1,7.47,7.47,0,0,1,2.14.43,3.55,3.55,0,0,1,1.7,1.25,2,2,0,0,1,.33,1,2.14,2.14,0,0,1-.21,1,3.71,3.71,0,0,1-4.55,1.74,2.21,2.21,0,0,1-1.07-1,1.68,1.68,0,0,1,0-1.32,1.6,1.6,0,0,1,.75-.87,1.33,1.33,0,0,1,1-.13,1.46,1.46,0,0,1,1,.79.78.78,0,0,1,.07.45" transform="translate(0 0)"/><path id="Path_16" data-name="Path 16" class="cls-4" d="M70.16,129.42a.8.8,0,0,1-.07.46,1.46,1.46,0,0,1-1,.79,1.4,1.4,0,0,1-1-.13,1.71,1.71,0,0,1-.7-2.2,2.23,2.23,0,0,1,1.06-1,3.39,3.39,0,0,1,3.26.35A3.52,3.52,0,0,1,73,129a2.18,2.18,0,0,1,.22,1,2,2,0,0,1-.33,1,3.53,3.53,0,0,1-1.7,1.25,7.15,7.15,0,0,1-2.14.43,7.92,7.92,0,0,1-4.41-1A29.11,29.11,0,0,1,61,129a10.72,10.72,0,0,0-3.57-2.06,5.06,5.06,0,0,0-3.61.23,2.84,2.84,0,0,0-1.59,2.57,2.3,2.3,0,0,0,.41,1.3,1.79,1.79,0,0,0,1,.69,2.43,2.43,0,0,0,1.91-.34,1.64,1.64,0,0,0,.73-1,.93.93,0,0,0,0-.33.49.49,0,0,1,0-.12s0,0,0,.11a1,1,0,0,1,0,.35,1.7,1.7,0,0,1-.73,1.08,2.5,2.5,0,0,1-2,.41,1.94,1.94,0,0,1-1.1-.74,2.53,2.53,0,0,1-.47-1.4,3.07,3.07,0,0,1,1.68-2.8,5.26,5.26,0,0,1,3.8-.27,10.94,10.94,0,0,1,3.68,2.09,29.21,29.21,0,0,0,3.59,2.69,7.71,7.71,0,0,0,4.25,1,6.86,6.86,0,0,0,2-.41,3.27,3.27,0,0,0,1.58-1.13,1.68,1.68,0,0,0,.1-1.73,3.48,3.48,0,0,0-4.22-1.66,2,2,0,0,0-1,.92,1.57,1.57,0,0,0,.6,2,1.25,1.25,0,0,0,.87.13,1.4,1.4,0,0,0,1-.7,1.55,1.55,0,0,0,.12-.42" transform="translate(0 0)"/><path id="Path_17" data-name="Path 17" class="cls-4" d="M49.92,128.38a.93.93,0,1,0,.92.93.93.93,0,0,0-.92-.93" transform="translate(0 0)"/><path id="Path_18" data-name="Path 18" class="cls-4" d="M79.17,128.38a.93.93,0,1,0,.93.93.93.93,0,0,0-.93-.93" transform="translate(0 0)"/><path id="Path_19" data-name="Path 19" class="cls-4" d="M22.11,128.38a.93.93,0,1,0,.92.93.93.93,0,0,0-.92-.93h0" transform="translate(0 0)"/><path id="Path_20" data-name="Path 20" class="cls-4" d="M44.33,25.43a1.55,1.55,0,0,0-.12-.42,1.4,1.4,0,0,0-1-.7,1.22,1.22,0,0,0-.87.14,1.54,1.54,0,0,0-.59,2,2,2,0,0,0,1,.92,3.18,3.18,0,0,0,3-.36A3.22,3.22,0,0,0,47,25.7,1.71,1.71,0,0,0,46.84,24a3.19,3.19,0,0,0-1.57-1.13,6.86,6.86,0,0,0-2.05-.41,7.69,7.69,0,0,0-4.25,1,27.76,27.76,0,0,0-3.59,2.69,10.94,10.94,0,0,1-3.68,2.09A5.26,5.26,0,0,1,27.9,28a3,3,0,0,1-1.28-1.22,3.1,3.1,0,0,1-.4-1.58,2.45,2.45,0,0,1,.47-1.4,1.94,1.94,0,0,1,1.1-.74,2.51,2.51,0,0,1,2,.41,1.65,1.65,0,0,1,.72,1.08,1,1,0,0,1,0,.35c0,.07,0,.11,0,.11a.45.45,0,0,1,0-.11.89.89,0,0,0,0-.33,1.58,1.58,0,0,0-.73-1,2.4,2.4,0,0,0-1.91-.35,1.79,1.79,0,0,0-1,.69,2.23,2.23,0,0,0-.41,1.3A2.85,2.85,0,0,0,28,27.73a5.06,5.06,0,0,0,3.61.23,10.82,10.82,0,0,0,3.57-2.06,28.39,28.39,0,0,1,3.63-2.72,7.9,7.9,0,0,1,4.41-1,7.15,7.15,0,0,1,2.14.43,3.58,3.58,0,0,1,1.7,1.24,2,2,0,0,1,.11,2,3.69,3.69,0,0,1-4.55,1.74,2.23,2.23,0,0,1-1.06-1,1.68,1.68,0,0,1,0-1.32,1.6,1.6,0,0,1,.75-.87,1.31,1.31,0,0,1,.95-.13,1.5,1.5,0,0,1,1,.79.78.78,0,0,1,.06.45" transform="translate(0 0)"/><path id="Path_21" data-name="Path 21" class="cls-4" d="M70.16,25.16a.78.78,0,0,1-.07.45,1.46,1.46,0,0,1-1,.79,1.35,1.35,0,0,1-1-.13,1.69,1.69,0,0,1-.75-.87,1.71,1.71,0,0,1,.05-1.33,2.21,2.21,0,0,1,1.06-1A3.71,3.71,0,0,1,73,24.78a2.15,2.15,0,0,1,.22,1,2.12,2.12,0,0,1-.33,1A3.6,3.6,0,0,1,71.2,28a7.47,7.47,0,0,1-2.14.43,8,8,0,0,1-4.41-1.05A28.08,28.08,0,0,1,61,24.7a10.55,10.55,0,0,0-3.57-2.06,5,5,0,0,0-3.61.23,2.84,2.84,0,0,0-1.59,2.57,2.33,2.33,0,0,0,.41,1.3,1.79,1.79,0,0,0,1,.69,2.43,2.43,0,0,0,1.91-.35,1.58,1.58,0,0,0,.73-1,.93.93,0,0,0,0-.33.49.49,0,0,1,0-.12s0,0,0,.12a1,1,0,0,1,0,.34,1.65,1.65,0,0,1-.73,1.08,2.5,2.5,0,0,1-2,.41,2,2,0,0,1-1.1-.73A2.53,2.53,0,0,1,52,25.44a3.12,3.12,0,0,1,.4-1.58,3,3,0,0,1,1.28-1.21,5.21,5.21,0,0,1,3.8-.28,10.8,10.8,0,0,1,3.68,2.1,30.18,30.18,0,0,0,3.59,2.68,7.71,7.71,0,0,0,4.25,1,6.84,6.84,0,0,0,2-.4,3.28,3.28,0,0,0,1.58-1.14,1.68,1.68,0,0,0,.1-1.73,3.47,3.47,0,0,0-4.22-1.66,2.06,2.06,0,0,0-1,.93,1.55,1.55,0,0,0,.6,2,1.25,1.25,0,0,0,.87.14,1.42,1.42,0,0,0,1-.7,1.62,1.62,0,0,0,.12-.43" transform="translate(0 0)"/><path id="Path_22" data-name="Path 22" class="cls-4" d="M49.92,24.12a.92.92,0,1,0,.92.92.92.92,0,0,0-.92-.92" transform="translate(0 0)"/><path id="Path_23" data-name="Path 23" class="cls-4" d="M79.17,24.12a.92.92,0,1,0,.93.92.93.93,0,0,0-.93-.92" transform="translate(0 0)"/><path id="Path_24" data-name="Path 24" class="cls-4" d="M22.11,24.12A.92.92,0,1,0,23,25a.92.92,0,0,0-.92-.92h0" transform="translate(0 0)"/><path id="Path_25" data-name="Path 25" class="cls-4" d="M82.88,123.45V123c0-.29,0-.73,0-1.29,0-1.15,0-2.83,0-5,0-4.39,0-10.79,0-18.89,0-16.19,0-39.16-.07-66.29l.14.14H18.34l.15-.15c0,34.49,0,66.36,0,91.94l-.12-.12,47,.06,13,0h3.41c.77,0,1.18,0,1.18,0H78.35l-13,0-47,.06h-.12v-.12c0-25.58,0-57.45,0-91.93v-.15H83v.14C83,58.69,83,81.69,83,97.9c0,8.09,0,14.48,0,18.86,0,2.18,0,3.85,0,5V123c0,.29,0,.43,0,.43" transform="translate(0 0)"/><path id="Path_26" data-name="Path 26" class="cls-4" d="M96,18.63a21,21,0,0,0-2.37,1.31,26.54,26.54,0,0,0-4.76,4.47c-1.68,1.93-3.08,3.8-4.14,5.1-.53.66-1,1.17-1.3,1.52a4.35,4.35,0,0,1-.55.5,3.19,3.19,0,0,1,.46-.57c.29-.37.72-.9,1.22-1.57,1-1.34,2.4-3.22,4.09-5.17a23.94,23.94,0,0,1,4.87-4.45,6.83,6.83,0,0,1,1-.56l.42-.22.37-.13a2.85,2.85,0,0,1,.7-.22" transform="translate(0 0)"/><path id="Path_27" data-name="Path 27" class="cls-4" d="M96.31,136.81a3.76,3.76,0,0,1-.5-.55l-1.3-1.54c-1.1-1.29-2.67-3-4.5-4.88s-3.6-3.39-4.89-4.48l-1.55-1.3a3.23,3.23,0,0,1-.55-.5,3.7,3.7,0,0,1,.62.41c.39.27.94.69,1.61,1.22a60.74,60.74,0,0,1,9.43,9.4c.53.67.95,1.22,1.23,1.6a3.65,3.65,0,0,1,.4.62" transform="translate(0 0)"/><path id="Path_28" data-name="Path 28" class="cls-4" d="M5,136.64a3.43,3.43,0,0,1,.37-.64c.25-.4.63-1,1.13-1.65a40.7,40.7,0,0,1,9.46-9.2c.7-.48,1.27-.85,1.68-1.09a3.13,3.13,0,0,1,.65-.35,3.68,3.68,0,0,1-.59.45c-.39.27-.94.66-1.62,1.16a48.32,48.32,0,0,0-9.41,9.16c-.52.66-.93,1.21-1.21,1.59a2.8,2.8,0,0,1-.46.57" transform="translate(0 0)"/><path id="Path_29" data-name="Path 29" class="cls-4" d="M5.23,18.63a3.5,3.5,0,0,1,.54.48l1.42,1.38c1.2,1.15,2.89,2.72,4.76,4.44s3.54,3.31,4.71,4.51c.58.6,1,1.09,1.35,1.44a3.51,3.51,0,0,1,.46.56,3.09,3.09,0,0,1-.54-.48l-1.42-1.37c-1.2-1.16-2.89-2.72-4.76-4.44S8.2,21.83,7,20.63c-.58-.6-1-1.08-1.35-1.44a3,3,0,0,1-.46-.56" transform="translate(0 0)"/><path id="Path_30" data-name="Path 30" class="cls-4" d="M92.43,21.35c.08,0,.15,24.95.15,55.73s-.07,55.73-.15,55.73-.15-25-.15-55.73.06-55.74.15-55.74" transform="translate(0 0)"/><path id="Path_31" data-name="Path 31" class="cls-4" d="M91.15,21.09c0,.08-18.63.15-41.61.15s-41.61-.07-41.61-.15,18.63-.15,41.61-.15,41.61.06,41.61.15" transform="translate(0 0)"/><path id="Path_32" data-name="Path 32" class="cls-4" d="M8.19,131C8.1,131,8,106.46,8,76.18s.06-54.84.15-54.84.15,24.55.15,54.84S8.27,131,8.19,131" transform="translate(0 0)"/><path id="Path_33" data-name="Path 33" class="cls-4" d="M92.43,133.07c0,.08-18.4.15-41.09.15s-41.1-.07-41.1-.15,18.4-.15,41.1-.15,41.09.07,41.09.15" transform="translate(0 0)"/><path id="Path_34" data-name="Path 34" class="cls-4" d="M85.43,125.48s0-.16,0-.47,0-.76,0-1.35c0-1.2,0-3,0-5.25,0-4.59,0-11.3,0-19.78,0-17-.08-41-.13-69.54l.14.14L15.53,29l.15-.15v.1c.11,36.2.2,69.69.29,96.74l-.12-.12,50.59-.08H84.19l-3.67,0-14,.07-50.67.2h-.12v-.12c-.09-27.06-.21-60.55-.34-96.74v-.26h.15L85.36,29h.13v.14c0,28.52,0,52.63,0,69.62,0,8.47,0,15.16,0,19.75,0,2.28,0,4,0,5.22,0,.59,0,1,0,1.34v.45" transform="translate(0 0)"/><g id="Group_3" data-name="Group 3" class="cls-5"><g id="Group_2" data-name="Group 2"><g class="cls-6"><g id="Group_1" data-name="Group 1"><path id="Path_35" data-name="Path 35" class="cls-4" d="M18.32,34.47a3.56,3.56,0,0,1-1.41.14,3.52,3.52,0,0,1-1.41-.14,3.35,3.35,0,0,1,1.41-.15,3.39,3.39,0,0,1,1.41.15" transform="translate(0 0)"/></g></g></g></g><path id="Path_36" data-name="Path 36" class="cls-4" d="M21.3,125.66c-.09,0-.17-.49-.15-1.08s.07-1.07.15-1.07.17.48.15,1.08-.07,1.06-.15,1.07" transform="translate(0 0)"/><path id="Path_37" data-name="Path 37" class="cls-4" d="M19,125.69c-.09,0-.17-.49-.15-1.08s.07-1.07.15-1.07.17.48.15,1.08-.07,1.06-.15,1.07" transform="translate(0 0)"/><path id="Path_38" data-name="Path 38" class="cls-4" d="M23.87,125.56c-.08,0-.17-.46-.19-1s0-1,.12-1,.16.45.18,1,0,1-.11,1" transform="translate(0 0)"/><path id="Path_39" data-name="Path 39" class="cls-4" d="M26.22,125.56c-.08,0-.16-.46-.18-1s0-1,.11-1,.17.45.19,1,0,1-.12,1" transform="translate(0 0)"/><path id="Path_40" data-name="Path 40" class="cls-4" d="M28.58,125.56c-.09,0-.17-.46-.19-1s0-1,.11-1,.17.45.19,1,0,1-.11,1" transform="translate(0 0)"/><path id="Path_41" data-name="Path 41" class="cls-4" d="M30.93,125.56c-.08,0-.17-.46-.19-1s0-1,.12-1,.16.45.18,1,0,1-.11,1" transform="translate(0 0)"/><path id="Path_42" data-name="Path 42" class="cls-4" d="M33.28,125.56c-.08,0-.16-.46-.18-1s0-1,.11-1,.16.45.18,1,0,1-.11,1" transform="translate(0 0)"/><path id="Path_43" data-name="Path 43" class="cls-4" d="M35.64,125.56c-.09,0-.17-.46-.19-1s0-1,.11-1,.17.45.19,1,0,1-.11,1" transform="translate(0 0)"/><path id="Path_44" data-name="Path 44" class="cls-4" d="M38,125.56c-.08,0-.17-.46-.19-1s0-1,.12-1,.16.45.18,1,0,1-.11,1" transform="translate(0 0)"/><path id="Path_45" data-name="Path 45" class="cls-4" d="M40.34,125.56c-.08,0-.16-.46-.18-1s0-1,.11-1,.16.45.18,1,0,1-.11,1" transform="translate(0 0)"/><path id="Path_46" data-name="Path 46" class="cls-4" d="M42.7,125.56c-.09,0-.17-.46-.19-1s0-1,.11-1,.17.45.19,1,0,1-.11,1" transform="translate(0 0)"/><path id="Path_47" data-name="Path 47" class="cls-4" d="M45.05,125.56c-.08,0-.17-.46-.19-1s0-1,.11-1,.17.45.19,1,0,1-.11,1" transform="translate(0 0)"/><path id="Path_48" data-name="Path 48" class="cls-4" d="M47.4,125.56c-.08,0-.16-.46-.18-1s0-1,.11-1,.16.45.18,1,0,1-.11,1" transform="translate(0 0)"/><path id="Path_49" data-name="Path 49" class="cls-4" d="M49.76,125.56c-.09,0-.17-.46-.19-1s0-1,.11-1,.17.45.19,1,0,1-.11,1" transform="translate(0 0)"/><path id="Path_50" data-name="Path 50" class="cls-4" d="M52.11,125.56c-.08,0-.17-.46-.19-1s0-1,.11-1,.17.45.19,1,0,1-.11,1" transform="translate(0 0)"/><path id="Path_51" data-name="Path 51" class="cls-4" d="M54.46,125.56c-.08,0-.16-.46-.18-1s0-1,.11-1,.16.45.18,1,0,1-.11,1" transform="translate(0 0)"/><path id="Path_52" data-name="Path 52" class="cls-4" d="M56.82,125.56c-.09,0-.17-.46-.19-1s0-1,.11-1,.17.45.19,1,0,1-.11,1" transform="translate(0 0)"/><path id="Path_53" data-name="Path 53" class="cls-4" d="M59.17,125.56c-.09,0-.17-.46-.19-1s0-1,.11-1,.17.45.19,1,0,1-.11,1" transform="translate(0 0)"/><path id="Path_54" data-name="Path 54" class="cls-4" d="M61.52,125.56c-.08,0-.16-.46-.18-1s0-1,.11-1,.16.45.18,1,0,1-.11,1" transform="translate(0 0)"/><path id="Path_55" data-name="Path 55" class="cls-4" d="M63.87,125.56c-.08,0-.16-.46-.18-1s0-1,.11-1,.17.45.19,1,0,1-.12,1" transform="translate(0 0)"/><path id="Path_56" data-name="Path 56" class="cls-4" d="M66.23,125.56c-.08,0-.17-.46-.19-1s0-1,.12-1,.16.45.18,1,0,1-.11,1" transform="translate(0 0)"/><path id="Path_57" data-name="Path 57" class="cls-4" d="M68.58,125.56c-.08,0-.16-.46-.18-1s0-1,.11-1,.16.45.18,1,0,1-.11,1" transform="translate(0 0)"/><path id="Path_58" data-name="Path 58" class="cls-4" d="M70.94,125.56c-.09,0-.17-.46-.19-1s0-1,.11-1,.17.45.19,1,0,1-.11,1" transform="translate(0 0)"/><path id="Path_59" data-name="Path 59" class="cls-4" d="M73.29,125.56c-.09,0-.17-.46-.19-1s0-1,.11-1,.17.45.19,1,0,1-.11,1" transform="translate(0 0)"/><path id="Path_60" data-name="Path 60" class="cls-4" d="M75.64,125.56c-.08,0-.17-.46-.18-1s0-1,.11-1,.16.45.18,1,0,1-.11,1" transform="translate(0 0)"/><path id="Path_61" data-name="Path 61" class="cls-4" d="M78,125.56c-.08,0-.16-.46-.18-1s0-1,.11-1,.17.45.19,1,0,1-.12,1" transform="translate(0 0)"/><path id="Path_62" data-name="Path 62" class="cls-4" d="M80.35,125.56c-.08,0-.17-.46-.19-1s0-1,.12-1,.16.45.18,1,0,1-.11,1" transform="translate(0 0)"/><path id="Path_63" data-name="Path 63" class="cls-4" d="M82.7,125.56c-.08,0-.16-.46-.18-1s0-1,.11-1,.16.45.18,1,0,1-.11,1" transform="translate(0 0)"/><path id="Path_64" data-name="Path 64" class="cls-4" d="M85.35,122.83a5.24,5.24,0,0,1-2.49,0,5.24,5.24,0,0,1,2.49,0" transform="translate(0 0)"/><path id="Path_65" data-name="Path 65" class="cls-4" d="M85.35,120.21a5.24,5.24,0,0,1-2.49,0,5.24,5.24,0,0,1,2.49,0" transform="translate(0 0)"/><path id="Path_66" data-name="Path 66" class="cls-4" d="M85.35,117.59a5.24,5.24,0,0,1-2.49,0,5.24,5.24,0,0,1,2.49,0" transform="translate(0 0)"/><path id="Path_67" data-name="Path 67" class="cls-4" d="M85.35,115a5.24,5.24,0,0,1-2.49,0,5.24,5.24,0,0,1,2.49,0" transform="translate(0 0)"/><path id="Path_68" data-name="Path 68" class="cls-4" d="M85.35,112.35a5.24,5.24,0,0,1-2.49,0,5.24,5.24,0,0,1,2.49,0" transform="translate(0 0)"/><path id="Path_69" data-name="Path 69" class="cls-4" d="M85.35,109.73a5.24,5.24,0,0,1-2.49,0,5.24,5.24,0,0,1,2.49,0" transform="translate(0 0)"/><path id="Path_70" data-name="Path 70" class="cls-4" d="M85.35,107.11a5.24,5.24,0,0,1-2.49,0,5.24,5.24,0,0,1,2.49,0" transform="translate(0 0)"/><path id="Path_71" data-name="Path 71" class="cls-4" d="M85.35,104.49a5.24,5.24,0,0,1-2.49,0,5.24,5.24,0,0,1,2.49,0" transform="translate(0 0)"/><path id="Path_72" data-name="Path 72" class="cls-4" d="M85.35,101.87a5.24,5.24,0,0,1-2.49,0,5.24,5.24,0,0,1,2.49,0" transform="translate(0 0)"/><path id="Path_73" data-name="Path 73" class="cls-4" d="M85.35,99.25a5.24,5.24,0,0,1-2.49,0,5.24,5.24,0,0,1,2.49,0" transform="translate(0 0)"/><path id="Path_74" data-name="Path 74" class="cls-4" d="M85.35,96.63a5.24,5.24,0,0,1-2.49,0,5.24,5.24,0,0,1,2.49,0" transform="translate(0 0)"/><path id="Path_75" data-name="Path 75" class="cls-4" d="M85.35,94a5.24,5.24,0,0,1-2.49,0,5.51,5.51,0,0,1,2.49,0" transform="translate(0 0)"/><path id="Path_76" data-name="Path 76" class="cls-4" d="M85.35,91.39a5.24,5.24,0,0,1-2.49,0,5.51,5.51,0,0,1,2.49,0" transform="translate(0 0)"/><path id="Path_77" data-name="Path 77" class="cls-4" d="M85.35,88.77a5.24,5.24,0,0,1-2.49,0,5.51,5.51,0,0,1,2.49,0" transform="translate(0 0)"/><path id="Path_78" data-name="Path 78" class="cls-4" d="M85.35,86.16a5.51,5.51,0,0,1-2.49,0,5.24,5.24,0,0,1,2.49,0" transform="translate(0 0)"/><path id="Path_79" data-name="Path 79" class="cls-4" d="M85.35,83.54a5.24,5.24,0,0,1-2.49,0,5.24,5.24,0,0,1,2.49,0" transform="translate(0 0)"/><path id="Path_80" data-name="Path 80" class="cls-4" d="M85.35,80.92a5.24,5.24,0,0,1-2.49,0,5.24,5.24,0,0,1,2.49,0" transform="translate(0 0)"/><path id="Path_81" data-name="Path 81" class="cls-4" d="M85.35,78.3a5.24,5.24,0,0,1-2.49,0,5.24,5.24,0,0,1,2.49,0" transform="translate(0 0)"/><path id="Path_82" data-name="Path 82" class="cls-4" d="M85.35,75.68a5.24,5.24,0,0,1-2.49,0,5.24,5.24,0,0,1,2.49,0" transform="translate(0 0)"/><path id="Path_83" data-name="Path 83" class="cls-4" d="M85.35,73.06a5.24,5.24,0,0,1-2.49,0,5.24,5.24,0,0,1,2.49,0" transform="translate(0 0)"/><path id="Path_84" data-name="Path 84" class="cls-4" d="M85.35,70.44a5.24,5.24,0,0,1-2.49,0,5.24,5.24,0,0,1,2.49,0" transform="translate(0 0)"/><path id="Path_85" data-name="Path 85" class="cls-4" d="M85.35,67.82a5.51,5.51,0,0,1-2.49,0,5.24,5.24,0,0,1,2.49,0" transform="translate(0 0)"/><path id="Path_86" data-name="Path 86" class="cls-4" d="M85.35,65.2a5.24,5.24,0,0,1-2.49,0,5.24,5.24,0,0,1,2.49,0" transform="translate(0 0)"/><path id="Path_87" data-name="Path 87" class="cls-4" d="M85.35,62.58a5.24,5.24,0,0,1-2.49,0,5.24,5.24,0,0,1,2.49,0" transform="translate(0 0)"/><path id="Path_88" data-name="Path 88" class="cls-4" d="M85.35,60a5.24,5.24,0,0,1-2.49,0,5.24,5.24,0,0,1,2.49,0" transform="translate(0 0)"/><path id="Path_89" data-name="Path 89" class="cls-4" d="M85.35,57.34a5.24,5.24,0,0,1-2.49,0,5.24,5.24,0,0,1,2.49,0" transform="translate(0 0)"/><path id="Path_90" data-name="Path 90" class="cls-4" d="M85.35,54.72a5.24,5.24,0,0,1-2.49,0,5.24,5.24,0,0,1,2.49,0" transform="translate(0 0)"/><path id="Path_91" data-name="Path 91" class="cls-4" d="M85.35,52.1a5.24,5.24,0,0,1-2.49,0,5.24,5.24,0,0,1,2.49,0" transform="translate(0 0)"/><path id="Path_92" data-name="Path 92" class="cls-4" d="M85.35,49.48a5.24,5.24,0,0,1-2.49,0,5.24,5.24,0,0,1,2.49,0" transform="translate(0 0)"/><path id="Path_93" data-name="Path 93" class="cls-4" d="M85.35,46.86a5.24,5.24,0,0,1-2.49,0,5.24,5.24,0,0,1,2.49,0" transform="translate(0 0)"/><path id="Path_94" data-name="Path 94" class="cls-4" d="M85.35,44.24a5.24,5.24,0,0,1-2.49,0,5.24,5.24,0,0,1,2.49,0" transform="translate(0 0)"/><path id="Path_95" data-name="Path 95" class="cls-4" d="M85.35,41.62a5.24,5.24,0,0,1-2.49,0,5.51,5.51,0,0,1,2.49,0" transform="translate(0 0)"/><path id="Path_96" data-name="Path 96" class="cls-4" d="M85.35,39a5.24,5.24,0,0,1-2.49,0,5.24,5.24,0,0,1,2.49,0" transform="translate(0 0)"/><path id="Path_97" data-name="Path 97" class="cls-4" d="M85.35,36.38a5.24,5.24,0,0,1-2.49,0,5.51,5.51,0,0,1,2.49,0" transform="translate(0 0)"/><path id="Path_98" data-name="Path 98" class="cls-4" d="M85.35,33.76a5.24,5.24,0,0,1-2.49,0,5.24,5.24,0,0,1,2.49,0" transform="translate(0 0)"/><path id="Path_99" data-name="Path 99" class="cls-4" d="M85.35,31.14a5.24,5.24,0,0,1-2.49,0,5.24,5.24,0,0,1,2.49,0" transform="translate(0 0)"/><path id="Path_100" data-name="Path 100" class="cls-4" d="M82.51,31.52a2.84,2.84,0,0,1-.15-1.23,2.81,2.81,0,0,1,.15-1.22,2.54,2.54,0,0,1,.15,1.22,2.57,2.57,0,0,1-.15,1.23" transform="translate(0 0)"/><path id="Path_101" data-name="Path 101" class="cls-4" d="M80,31.52a2.57,2.57,0,0,1-.15-1.23A2.54,2.54,0,0,1,80,29.07a2.81,2.81,0,0,1,.15,1.22A2.84,2.84,0,0,1,80,31.52" transform="translate(0 0)"/><path id="Path_102" data-name="Path 102" class="cls-4" d="M77.52,31.52a2.57,2.57,0,0,1-.15-1.23,2.54,2.54,0,0,1,.15-1.22,2.54,2.54,0,0,1,.15,1.22,2.57,2.57,0,0,1-.15,1.23" transform="translate(0 0)"/><path id="Path_103" data-name="Path 103" class="cls-4" d="M75,31.52a2.57,2.57,0,0,1-.15-1.23A2.54,2.54,0,0,1,75,29.07a2.67,2.67,0,0,1,.14,1.22A2.69,2.69,0,0,1,75,31.52" transform="translate(0 0)"/><path id="Path_104" data-name="Path 104" class="cls-4" d="M72.53,31.52a2.57,2.57,0,0,1-.15-1.23,2.54,2.54,0,0,1,.15-1.22,2.81,2.81,0,0,1,.15,1.22,2.84,2.84,0,0,1-.15,1.23" transform="translate(0 0)"/><path id="Path_105" data-name="Path 105" class="cls-4" d="M70,31.52a2.84,2.84,0,0,1-.15-1.23A2.81,2.81,0,0,1,70,29.07a2.54,2.54,0,0,1,.15,1.22A2.57,2.57,0,0,1,70,31.52" transform="translate(0 0)"/><path id="Path_106" data-name="Path 106" class="cls-4" d="M67.54,31.52a2.57,2.57,0,0,1-.15-1.23,2.54,2.54,0,0,1,.15-1.22,2.67,2.67,0,0,1,.14,1.22,2.69,2.69,0,0,1-.14,1.23" transform="translate(0 0)"/><path id="Path_107" data-name="Path 107" class="cls-4" d="M65,31.52a2.84,2.84,0,0,1-.15-1.23A2.81,2.81,0,0,1,65,29.07a2.54,2.54,0,0,1,.15,1.22A2.57,2.57,0,0,1,65,31.52" transform="translate(0 0)"/><path id="Path_108" data-name="Path 108" class="cls-4" d="M62.55,31.52a2.57,2.57,0,0,1-.15-1.23,2.54,2.54,0,0,1,.15-1.22,2.67,2.67,0,0,1,.14,1.22,2.69,2.69,0,0,1-.14,1.23" transform="translate(0 0)"/><path id="Path_109" data-name="Path 109" class="cls-4" d="M60.05,31.52a2.57,2.57,0,0,1-.15-1.23,2.54,2.54,0,0,1,.15-1.22,2.67,2.67,0,0,1,.15,1.22,2.7,2.7,0,0,1-.15,1.23" transform="translate(0 0)"/><path id="Path_110" data-name="Path 110" class="cls-4" d="M57.55,31.52a2.69,2.69,0,0,1-.14-1.23,2.67,2.67,0,0,1,.14-1.22,2.54,2.54,0,0,1,.15,1.22,2.57,2.57,0,0,1-.15,1.23" transform="translate(0 0)"/><path id="Path_111" data-name="Path 111" class="cls-4" d="M55.06,31.52a2.57,2.57,0,0,1-.15-1.23,2.54,2.54,0,0,1,.15-1.22,2.81,2.81,0,0,1,.15,1.22,2.84,2.84,0,0,1-.15,1.23" transform="translate(0 0)"/><path id="Path_112" data-name="Path 112" class="cls-4" d="M52.56,31.52a2.84,2.84,0,0,1-.15-1.23,2.81,2.81,0,0,1,.15-1.22,2.54,2.54,0,0,1,.15,1.22,2.57,2.57,0,0,1-.15,1.23" transform="translate(0 0)"/><path id="Path_113" data-name="Path 113" class="cls-4" d="M50.07,31.52a2.57,2.57,0,0,1-.15-1.23,2.54,2.54,0,0,1,.15-1.22,2.81,2.81,0,0,1,.15,1.22,2.84,2.84,0,0,1-.15,1.23" transform="translate(0 0)"/><path id="Path_114" data-name="Path 114" class="cls-4" d="M47.57,31.52a2.84,2.84,0,0,1-.15-1.23,2.81,2.81,0,0,1,.15-1.22,2.54,2.54,0,0,1,.15,1.22,2.57,2.57,0,0,1-.15,1.23" transform="translate(0 0)"/><path id="Path_115" data-name="Path 115" class="cls-4" d="M45.08,31.52a2.57,2.57,0,0,1-.15-1.23,2.54,2.54,0,0,1,.15-1.22,2.67,2.67,0,0,1,.14,1.22,2.69,2.69,0,0,1-.14,1.23" transform="translate(0 0)"/><path id="Path_116" data-name="Path 116" class="cls-4" d="M42.58,31.52a2.57,2.57,0,0,1-.15-1.23,2.54,2.54,0,0,1,.15-1.22,2.54,2.54,0,0,1,.15,1.22,2.57,2.57,0,0,1-.15,1.23" transform="translate(0 0)"/><path id="Path_117" data-name="Path 117" class="cls-4" d="M40.08,31.52a2.69,2.69,0,0,1-.14-1.23,2.67,2.67,0,0,1,.14-1.22,2.54,2.54,0,0,1,.15,1.22,2.57,2.57,0,0,1-.15,1.23" transform="translate(0 0)"/><path id="Path_118" data-name="Path 118" class="cls-4" d="M37.59,31.52a2.57,2.57,0,0,1-.15-1.23,2.54,2.54,0,0,1,.15-1.22,2.81,2.81,0,0,1,.15,1.22,2.84,2.84,0,0,1-.15,1.23" transform="translate(0 0)"/><path id="Path_119" data-name="Path 119" class="cls-4" d="M35.09,31.52a2.84,2.84,0,0,1-.15-1.23,2.81,2.81,0,0,1,.15-1.22,2.54,2.54,0,0,1,.15,1.22,2.57,2.57,0,0,1-.15,1.23" transform="translate(0 0)"/><path id="Path_120" data-name="Path 120" class="cls-4" d="M32.6,31.52a2.57,2.57,0,0,1-.15-1.23,2.54,2.54,0,0,1,.15-1.22,2.81,2.81,0,0,1,.15,1.22,2.84,2.84,0,0,1-.15,1.23" transform="translate(0 0)"/><path id="Path_121" data-name="Path 121" class="cls-4" d="M30.1,31.52A2.84,2.84,0,0,1,30,30.29a2.81,2.81,0,0,1,.15-1.22,2.54,2.54,0,0,1,.15,1.22,2.57,2.57,0,0,1-.15,1.23" transform="translate(0 0)"/><path id="Path_122" data-name="Path 122" class="cls-4" d="M27.6,31.52a2.69,2.69,0,0,1-.14-1.23,2.67,2.67,0,0,1,.14-1.22,2.54,2.54,0,0,1,.15,1.22,2.57,2.57,0,0,1-.15,1.23" transform="translate(0 0)"/><path id="Path_123" data-name="Path 123" class="cls-4" d="M25.11,31.52A2.57,2.57,0,0,1,25,30.29a2.54,2.54,0,0,1,.15-1.22,2.54,2.54,0,0,1,.15,1.22,2.57,2.57,0,0,1-.15,1.23" transform="translate(0 0)"/><path id="Path_124" data-name="Path 124" class="cls-4" d="M22.62,31.52a2.57,2.57,0,0,1-.15-1.23,2.54,2.54,0,0,1,.15-1.22,2.67,2.67,0,0,1,.14,1.22,2.69,2.69,0,0,1-.14,1.23" transform="translate(0 0)"/><path id="Path_125" data-name="Path 125" class="cls-4" d="M20.12,31.52A2.7,2.7,0,0,1,20,30.29a2.67,2.67,0,0,1,.15-1.22,2.54,2.54,0,0,1,.15,1.22,2.57,2.57,0,0,1-.15,1.23" transform="translate(0 0)"/><path id="Path_126" data-name="Path 126" class="cls-4" d="M18.32,32.38a3.39,3.39,0,0,1-1.41.15,3.35,3.35,0,0,1-1.41-.15,3.35,3.35,0,0,1,1.41-.15,3.39,3.39,0,0,1,1.41.15" transform="translate(0 0)"/><path id="Path_127" data-name="Path 127" class="cls-4" d="M18.32,36.55a3.39,3.39,0,0,1-1.41.15,3.35,3.35,0,0,1-1.41-.15,3.71,3.71,0,0,1,1.41-.15,3.76,3.76,0,0,1,1.41.15" transform="translate(0 0)"/><path id="Path_128" data-name="Path 128" class="cls-4" d="M18.32,38.64a3.39,3.39,0,0,1-1.41.15,3.35,3.35,0,0,1-1.41-.15,3.35,3.35,0,0,1,1.41-.15,3.39,3.39,0,0,1,1.41.15" transform="translate(0 0)"/><path id="Path_129" data-name="Path 129" class="cls-4" d="M18.32,40.73a3.56,3.56,0,0,1-1.41.14,3.52,3.52,0,0,1-1.41-.14,3.35,3.35,0,0,1,1.41-.15,3.39,3.39,0,0,1,1.41.15" transform="translate(0 0)"/><path id="Path_130" data-name="Path 130" class="cls-4" d="M18.32,42.81a3.39,3.39,0,0,1-1.41.15,3.35,3.35,0,0,1-1.41-.15,3.52,3.52,0,0,1,1.41-.15,3.56,3.56,0,0,1,1.41.15" transform="translate(0 0)"/><path id="Path_131" data-name="Path 131" class="cls-4" d="M18.32,44.9a3.39,3.39,0,0,1-1.41.15,3.35,3.35,0,0,1-1.41-.15,3.35,3.35,0,0,1,1.41-.15,3.39,3.39,0,0,1,1.41.15" transform="translate(0 0)"/><path id="Path_132" data-name="Path 132" class="cls-4" d="M18.32,47a3.56,3.56,0,0,1-1.41.14A3.52,3.52,0,0,1,15.5,47a3.35,3.35,0,0,1,1.41-.15,3.39,3.39,0,0,1,1.41.15" transform="translate(0 0)"/><path id="Path_133" data-name="Path 133" class="cls-4" d="M18.32,49.07a3.39,3.39,0,0,1-1.41.15,3.35,3.35,0,0,1-1.41-.15,3.52,3.52,0,0,1,1.41-.15,3.56,3.56,0,0,1,1.41.15" transform="translate(0 0)"/><path id="Path_134" data-name="Path 134" class="cls-4" d="M18.32,51.16a3.39,3.39,0,0,1-1.41.15,3.35,3.35,0,0,1-1.41-.15A3.35,3.35,0,0,1,16.91,51a3.39,3.39,0,0,1,1.41.15" transform="translate(0 0)"/><path id="Path_135" data-name="Path 135" class="cls-4" d="M18.32,53.25a3.56,3.56,0,0,1-1.41.14,3.52,3.52,0,0,1-1.41-.14,3.35,3.35,0,0,1,1.41-.15,3.39,3.39,0,0,1,1.41.15" transform="translate(0 0)"/><path id="Path_136" data-name="Path 136" class="cls-4" d="M18.32,55.33a3.39,3.39,0,0,1-1.41.15,3.35,3.35,0,0,1-1.41-.15,3.52,3.52,0,0,1,1.41-.15,3.56,3.56,0,0,1,1.41.15" transform="translate(0 0)"/><path id="Path_137" data-name="Path 137" class="cls-4" d="M18.32,57.42a3.56,3.56,0,0,1-1.41.15,3.52,3.52,0,0,1-1.41-.15,3.35,3.35,0,0,1,1.41-.15,3.39,3.39,0,0,1,1.41.15" transform="translate(0 0)"/><path id="Path_138" data-name="Path 138" class="cls-4" d="M18.32,59.51a3.56,3.56,0,0,1-1.41.14,3.52,3.52,0,0,1-1.41-.14,3.35,3.35,0,0,1,1.41-.15,3.39,3.39,0,0,1,1.41.15" transform="translate(0 0)"/><path id="Path_139" data-name="Path 139" class="cls-4" d="M18.32,61.59a3.39,3.39,0,0,1-1.41.15,3.35,3.35,0,0,1-1.41-.15,3.52,3.52,0,0,1,1.41-.15,3.56,3.56,0,0,1,1.41.15" transform="translate(0 0)"/><path id="Path_140" data-name="Path 140" class="cls-4" d="M18.32,63.68a3.56,3.56,0,0,1-1.41.15,3.52,3.52,0,0,1-1.41-.15,3.35,3.35,0,0,1,1.41-.15,3.39,3.39,0,0,1,1.41.15" transform="translate(0 0)"/><path id="Path_141" data-name="Path 141" class="cls-4" d="M18.32,65.77a3.56,3.56,0,0,1-1.41.14,3.52,3.52,0,0,1-1.41-.14,3.35,3.35,0,0,1,1.41-.15,3.39,3.39,0,0,1,1.41.15" transform="translate(0 0)"/><path id="Path_142" data-name="Path 142" class="cls-4" d="M18.32,67.85a3.39,3.39,0,0,1-1.41.15,3.35,3.35,0,0,1-1.41-.15,3.52,3.52,0,0,1,1.41-.15,3.56,3.56,0,0,1,1.41.15" transform="translate(0 0)"/><path id="Path_143" data-name="Path 143" class="cls-4" d="M18.32,69.94a3.56,3.56,0,0,1-1.41.15,3.52,3.52,0,0,1-1.41-.15,3.35,3.35,0,0,1,1.41-.15,3.39,3.39,0,0,1,1.41.15" transform="translate(0 0)"/><path id="Path_144" data-name="Path 144" class="cls-4" d="M18.32,72a3.39,3.39,0,0,1-1.41.15A3.35,3.35,0,0,1,15.5,72a3.71,3.71,0,0,1,1.41-.15,3.76,3.76,0,0,1,1.41.15" transform="translate(0 0)"/><path id="Path_145" data-name="Path 145" class="cls-4" d="M18.32,74.11a3.39,3.39,0,0,1-1.41.15,3.35,3.35,0,0,1-1.41-.15A3.35,3.35,0,0,1,16.91,74a3.39,3.39,0,0,1,1.41.15" transform="translate(0 0)"/><path id="Path_146" data-name="Path 146" class="cls-4" d="M18.32,76.2a3.56,3.56,0,0,1-1.41.15,3.52,3.52,0,0,1-1.41-.15,3.35,3.35,0,0,1,1.41-.15,3.39,3.39,0,0,1,1.41.15" transform="translate(0 0)"/><path id="Path_147" data-name="Path 147" class="cls-4" d="M18.32,78.28a3.39,3.39,0,0,1-1.41.15,3.35,3.35,0,0,1-1.41-.15,3.35,3.35,0,0,1,1.41-.15,3.39,3.39,0,0,1,1.41.15" transform="translate(0 0)"/><path id="Path_148" data-name="Path 148" class="cls-4" d="M18.32,80.38a3.56,3.56,0,0,1-1.41.14,3.52,3.52,0,0,1-1.41-.14,3.35,3.35,0,0,1,1.41-.15,3.39,3.39,0,0,1,1.41.15" transform="translate(0 0)"/><path id="Path_149" data-name="Path 149" class="cls-4" d="M18.32,82.46a3.76,3.76,0,0,1-1.41.15,3.71,3.71,0,0,1-1.41-.15,3.35,3.35,0,0,1,1.41-.15,3.39,3.39,0,0,1,1.41.15" transform="translate(0 0)"/><path id="Path_150" data-name="Path 150" class="cls-4" d="M18.32,84.54a3.39,3.39,0,0,1-1.41.15,3.35,3.35,0,0,1-1.41-.15,3.52,3.52,0,0,1,1.41-.14,3.56,3.56,0,0,1,1.41.14" transform="translate(0 0)"/><path id="Path_151" data-name="Path 151" class="cls-4" d="M18.32,86.63a3.39,3.39,0,0,1-1.41.15,3.35,3.35,0,0,1-1.41-.15,3.35,3.35,0,0,1,1.41-.15,3.39,3.39,0,0,1,1.41.15" transform="translate(0 0)"/><path id="Path_152" data-name="Path 152" class="cls-4" d="M18.32,88.72a3.76,3.76,0,0,1-1.41.15,3.71,3.71,0,0,1-1.41-.15,3.35,3.35,0,0,1,1.41-.15,3.39,3.39,0,0,1,1.41.15" transform="translate(0 0)"/><path id="Path_153" data-name="Path 153" class="cls-4" d="M18.32,90.8a3.39,3.39,0,0,1-1.41.15,3.35,3.35,0,0,1-1.41-.15,3.71,3.71,0,0,1,1.41-.15,3.76,3.76,0,0,1,1.41.15" transform="translate(0 0)"/><path id="Path_154" data-name="Path 154" class="cls-4" d="M18.32,92.89a3.39,3.39,0,0,1-1.41.15,3.35,3.35,0,0,1-1.41-.15,3.35,3.35,0,0,1,1.41-.15,3.39,3.39,0,0,1,1.41.15" transform="translate(0 0)"/><path id="Path_155" data-name="Path 155" class="cls-4" d="M18.32,95a3.76,3.76,0,0,1-1.41.15A3.71,3.71,0,0,1,15.5,95a3.35,3.35,0,0,1,1.41-.15,3.39,3.39,0,0,1,1.41.15" transform="translate(0 0)"/><path id="Path_156" data-name="Path 156" class="cls-4" d="M18.32,97.06a3.39,3.39,0,0,1-1.41.15,3.35,3.35,0,0,1-1.41-.15,3.71,3.71,0,0,1,1.41-.15,3.76,3.76,0,0,1,1.41.15" transform="translate(0 0)"/><path id="Path_157" data-name="Path 157" class="cls-4" d="M18.32,99.15a3.39,3.39,0,0,1-1.41.15,3.35,3.35,0,0,1-1.41-.15A3.35,3.35,0,0,1,16.91,99a3.39,3.39,0,0,1,1.41.15" transform="translate(0 0)"/><path id="Path_158" data-name="Path 158" class="cls-4" d="M18.32,101.24a3.76,3.76,0,0,1-1.41.15,3.71,3.71,0,0,1-1.41-.15,3.35,3.35,0,0,1,1.41-.15,3.39,3.39,0,0,1,1.41.15" transform="translate(0 0)"/><path id="Path_159" data-name="Path 159" class="cls-4" d="M18.32,103.32a3.39,3.39,0,0,1-1.41.15,3.35,3.35,0,0,1-1.41-.15,3.71,3.71,0,0,1,1.41-.15,3.76,3.76,0,0,1,1.41.15" transform="translate(0 0)"/><path id="Path_160" data-name="Path 160" class="cls-4" d="M18.32,105.41a3.39,3.39,0,0,1-1.41.15,3.35,3.35,0,0,1-1.41-.15,3.35,3.35,0,0,1,1.41-.15,3.39,3.39,0,0,1,1.41.15" transform="translate(0 0)"/><path id="Path_161" data-name="Path 161" class="cls-4" d="M18.32,107.49a3.39,3.39,0,0,1-1.41.15,3.35,3.35,0,0,1-1.41-.15,3.52,3.52,0,0,1,1.41-.14,3.56,3.56,0,0,1,1.41.14" transform="translate(0 0)"/><path id="Path_162" data-name="Path 162" class="cls-4" d="M18.32,109.58a3.39,3.39,0,0,1-1.41.15,3.35,3.35,0,0,1-1.41-.15,3.71,3.71,0,0,1,1.41-.15,3.76,3.76,0,0,1,1.41.15" transform="translate(0 0)"/><path id="Path_163" data-name="Path 163" class="cls-4" d="M18.32,111.67a3.39,3.39,0,0,1-1.41.15,3.35,3.35,0,0,1-1.41-.15,3.35,3.35,0,0,1,1.41-.15,3.39,3.39,0,0,1,1.41.15" transform="translate(0 0)"/><path id="Path_164" data-name="Path 164" class="cls-4" d="M18.32,113.76a3.76,3.76,0,0,1-1.41.15,3.71,3.71,0,0,1-1.41-.15,3.35,3.35,0,0,1,1.41-.15,3.39,3.39,0,0,1,1.41.15" transform="translate(0 0)"/><path id="Path_165" data-name="Path 165" class="cls-4" d="M18.32,115.84a3.39,3.39,0,0,1-1.41.15,3.35,3.35,0,0,1-1.41-.15,3.71,3.71,0,0,1,1.41-.15,3.76,3.76,0,0,1,1.41.15" transform="translate(0 0)"/><path id="Path_166" data-name="Path 166" class="cls-4" d="M18.32,117.93a3.39,3.39,0,0,1-1.41.15,3.35,3.35,0,0,1-1.41-.15,3.35,3.35,0,0,1,1.41-.15,3.39,3.39,0,0,1,1.41.15" transform="translate(0 0)"/><path id="Path_167" data-name="Path 167" class="cls-4" d="M18.32,120a3.76,3.76,0,0,1-1.41.15A3.71,3.71,0,0,1,15.5,120a3.35,3.35,0,0,1,1.41-.15,3.39,3.39,0,0,1,1.41.15" transform="translate(0 0)"/><path id="Path_168" data-name="Path 168" class="cls-4" d="M18.32,122.1a3.39,3.39,0,0,1-1.41.15,3.35,3.35,0,0,1-1.41-.15,3.52,3.52,0,0,1,1.41-.15,3.39,3.39,0,0,1,1.41.15" transform="translate(0 0)"/><rect id="Rectangle_3" data-name="Rectangle 3" class="cls-7" x="18.41" y="31.53" width="64.1" height="91.98"/><path id="Path_169" data-name="Path 169" class="cls-8" d="M18.27,41.84C29.15,54.79,42,68.38,52.4,81.7L18.32,90.8Z" transform="translate(0 0)"/><path id="Path_170" data-name="Path 170" class="cls-9" d="M18.37,89.27l0,34.24,64.47-.5-.25-47.64q-32.2,6.54-64.26,13.9" transform="translate(0 0)"/><rect id="Rectangle_4" data-name="Rectangle 4" class="cls-4" x="131.05" y="0.02" width="64.46" height="67.19"/><rect id="Rectangle_5" data-name="Rectangle 5" class="cls-10" x="126.69" y="0.02" width="64.46" height="67.19"/><rect id="Rectangle_6" data-name="Rectangle 6" class="cls-8" x="126.67" width="64.5" height="67.23"/><rect id="Rectangle_7" data-name="Rectangle 7" class="cls-7" x="135.35" y="9.05" width="47.13" height="49.13"/><path id="Path_171" data-name="Path 171" class="cls-4" d="M135.35,58.51a7.81,7.81,0,0,1-1.16,1.35c-.75.79-1.81,1.87-3,3s-2.27,2.21-3.08,3A7.48,7.48,0,0,1,126.75,67a7.13,7.13,0,0,1,1.16-1.35c.75-.8,1.81-1.87,3-3s2.28-2.22,3.08-3a7.31,7.31,0,0,1,1.36-1.12" transform="translate(0 0)"/><path id="Path_172" data-name="Path 172" class="cls-4" d="M182.48,58.38a7.57,7.57,0,0,1,1.35,1.17c.8.75,1.87,1.81,3,3s2.21,2.27,2.95,3.08A7,7,0,0,1,191,67a7.4,7.4,0,0,1-1.34-1.16c-.8-.75-1.88-1.81-3.05-3s-2.21-2.28-2.95-3.08a7.36,7.36,0,0,1-1.13-1.36" transform="translate(0 0)"/><path id="Path_173" data-name="Path 173" class="cls-4" d="M182.35,9.18a7.93,7.93,0,0,1,1.17-1.35c.75-.79,1.81-1.87,3-3s2.27-2.21,3.07-2.94A8.22,8.22,0,0,1,191,.71a7.46,7.46,0,0,1-1.15,1.35c-.76.79-1.82,1.87-3,3s-2.29,2.22-3.09,3a7.3,7.3,0,0,1-1.35,1.13" transform="translate(0 0)"/><path id="Path_174" data-name="Path 174" class="cls-4" d="M135.23,9.3a7.52,7.52,0,0,1-1.36-1.16c-.79-.75-1.87-1.81-3-3s-2.2-2.27-2.94-3.08A7,7,0,0,1,126.76.7a7.81,7.81,0,0,1,1.34,1.16c.8.76,1.87,1.81,3,3s2.22,2.28,3,3.09a7.24,7.24,0,0,1,1.12,1.35" transform="translate(0 0)"/><path id="Path_175" data-name="Path 175" class="cls-4" d="M182.35,58.18a1.93,1.93,0,0,1,0-.24c0-.17,0-.39,0-.69,0-.61,0-1.5,0-2.65,0-2.33,0-5.71-.05-10,0-8.6,0-20.86-.09-35.54l.18.18-47,0h0l.21-.21c0,18,0,34.9,0,49.13l-.18-.18,34,.09,9.56,0,2.53,0h0l-2.5,0-9.52.05-34.14.09h-.18v-.18c0-14.23,0-31.1,0-49.13V8.84h.21l47,0h.18v.18c0,14.73-.07,27-.09,35.66,0,4.28,0,7.65,0,10,0,1.13,0,2,0,2.61,0,.29,0,.5,0,.67s0,.15,0,.22" transform="translate(0 0)"/><path id="Path_176" data-name="Path 176" class="cls-8" d="M150.23,46.93a10.43,10.43,0,0,1-.46-13.71c1.31-1.5,3-2.6,4.26-4.19,2.63-3.42,2.59-8.82,6.25-11.11,2.67-1.68,6.5-.72,8.44,1.75a8.93,8.93,0,0,1,.85,9c-.93,2.13-2.56,3.94-3.22,6.17s-.3,4.77-1,7c-.86,2.74-3.76,4.47-6.45,5.47a12.07,12.07,0,0,1-8.67-.38" transform="translate(0 0)"/><path id="Path_177" data-name="Path 177" class="cls-4" d="M163.49,24.3a8.74,8.74,0,0,1-.46,1.3c-.32.83-.81,2-1.46,3.45A95.07,95.07,0,0,1,155.74,40,95,95,0,0,1,148.56,50c-1,1.22-1.84,2.2-2.44,2.85a8.07,8.07,0,0,1-1,1,8.79,8.79,0,0,1,.84-1.09c.56-.68,1.36-1.68,2.33-2.93a115.62,115.62,0,0,0,7-10.11,118,118,0,0,0,5.92-10.81c.68-1.43,1.22-2.59,1.58-3.39a8.38,8.38,0,0,1,.61-1.24" transform="translate(0 0)"/><path id="Path_178" data-name="Path 178" class="cls-4" d="M153.74,32.81a16.14,16.14,0,0,1,.37,2.48c.19,1.55.42,3.72.66,6.16l-.32-.16,1-.6c2.35-1.38,4.5-2.6,6.06-3.47a20.89,20.89,0,0,1,2.58-1.32,20.17,20.17,0,0,1-2.42,1.59c-1.53.93-3.65,2.2-6,3.57l-1,.59-.29.17,0-.33c-.22-2.44-.4-4.61-.51-6.17a15,15,0,0,1-.1-2.51" transform="translate(0 0)"/><path id="Path_179" data-name="Path 179" class="cls-4" d="M166.12,29.18a8.86,8.86,0,0,1-1.59.89c-1,.5-2.4,1.16-4,1.87l-.49.22-.25.12,0-.28c-.25-1.56-.45-3-.57-4a6.45,6.45,0,0,1-.12-1.64,6.26,6.26,0,0,1,.4,1.6c.2,1,.45,2.39.7,4l-.3-.16.49-.22c1.55-.71,3-1.33,4-1.76a7.45,7.45,0,0,1,1.71-.62" transform="translate(0 0)"/><rect id="Rectangle_8" data-name="Rectangle 8" class="cls-2" x="263.23" y="362.84" width="9.4" height="44.38"/><rect id="Rectangle_9" data-name="Rectangle 9" class="cls-2" x="343.15" y="362.84" width="9.4" height="44.38"/><rect id="Rectangle_10" data-name="Rectangle 10" class="cls-2" x="247.68" y="307.04" width="118.64" height="10.98"/><path id="Path_180" data-name="Path 180" class="cls-2" d="M361.59,363.39l-106.69.23V318H361.59Z" transform="translate(0 0)"/><path id="Path_181" data-name="Path 181" class="cls-4" d="M366.32,318c0,.12-26.56.21-59.32.21s-59.32-.1-59.32-.21,26.56-.22,59.32-.22,59.32.1,59.32.22" transform="translate(0 0)"/><path id="Path_182" data-name="Path 182" class="cls-4" d="M361.2,363.63c0,.11-23.71.21-52.95.21s-53-.1-53-.21,23.71-.22,53-.22,52.95.1,52.95.22" transform="translate(0 0)"/><path id="Path_183" data-name="Path 183" class="cls-4" d="M352.79,354.38s0-.18,0-.52,0-.86,0-1.51c0-1.34,0-3.3,0-5.84,0-5.08-.05-12.46-.08-21.72l.14.14L263.7,325h0l.21-.21v29.6l-.21-.21,63.72.1,18.62.06,5,0h1.75l-.42,0h-1.28l-4.95,0-18.58.05-63.86.1h-.21v-.2c0-9.34,0-19.32,0-29.6v-.22h.22l89.09.08h.14v.14c0,9.3-.06,16.7-.07,21.8,0,2.52,0,4.47,0,5.8,0,.65,0,1.14,0,1.49s0,.5,0,.5" transform="translate(0 0)"/><path id="Path_184" data-name="Path 184" class="cls-4" d="M267.23,350.5a14.83,14.83,0,0,1-3.41,3.66,14.66,14.66,0,0,1,3.41-3.66" transform="translate(0 0)"/><path id="Path_185" data-name="Path 185" class="cls-4" d="M267.23,328.67a16.25,16.25,0,0,1-3.53-3.87,16.25,16.25,0,0,1,3.53,3.87" transform="translate(0 0)"/><path id="Path_186" data-name="Path 186" class="cls-4" d="M353,324.88a7.61,7.61,0,0,1-1.94,2.06,12,12,0,0,1-2.22,1.73,7.92,7.92,0,0,1,1.94-2.06,12.38,12.38,0,0,1,2.22-1.73" transform="translate(0 0)"/><path id="Path_187" data-name="Path 187" class="cls-4" d="M352.8,354.39a18.19,18.19,0,0,1-4-3.88,18.4,18.4,0,0,1,4,3.88" transform="translate(0 0)"/><path id="Path_188" data-name="Path 188" class="cls-4" d="M348.79,350.5s0-.13,0-.38,0-.63,0-1.11c0-1,0-2.42,0-4.28,0-3.74,0-9.18-.07-16.06l.13.13-81.56.08h0l.21-.21V350.5l-.2-.21,58.2.1,17.13.06,4.61,0h1.62l-.39,0h-1.17l-4.58,0-17.08.06-58.34.09H267V328.46h.22l81.55.08h.14v.13c0,6.91-.06,12.38-.08,16.14,0,1.84,0,3.27,0,4.25,0,.47,0,.83,0,1.09s0,.36,0,.36" transform="translate(0 0)"/><path id="Path_189" data-name="Path 189" class="cls-4" d="M316.09,337.55a8.85,8.85,0,0,0-2.19-1,6.91,6.91,0,0,0-2.16-.33h-6a6.94,6.94,0,0,0-4.79,1.84,3.92,3.92,0,0,0-.71.87,2.47,2.47,0,0,0,.23,2.94c.77.72,2.35.37,2.48-.68a2.61,2.61,0,0,0,2.75,2.45h0a3.53,3.53,0,0,0,3-2.56,2.34,2.34,0,0,0,4.66.35c.74,1,1.84,1.87,3.1,1.46a2.25,2.25,0,0,0,1.44-1.6,3.61,3.61,0,0,0-1.78-3.74" transform="translate(0 0)"/><path id="Path_190" data-name="Path 190" class="cls-2" d="M306.8,336.19a8.36,8.36,0,0,0-3.85,5.3c-.05,0-.09-.4,0-1a5.94,5.94,0,0,1,2.86-3.92c.56-.31.94-.4,1-.35" transform="translate(0 0)"/><path id="Path_191" data-name="Path 191" class="cls-2" d="M309.1,336.44a13.26,13.26,0,0,1-.5,4.73,13.26,13.26,0,0,1,.5-4.73" transform="translate(0 0)"/><path id="Path_192" data-name="Path 192" class="cls-2" d="M312,336.37s.34.08.7.48a3.62,3.62,0,0,1,.84,1.84,6.71,6.71,0,0,1,0,2c-.07.5-.16.81-.21.8s-.09-.32-.09-.82a13.52,13.52,0,0,0-.13-1.91,4.74,4.74,0,0,0-.67-1.74c-.26-.4-.5-.6-.46-.66" transform="translate(0 0)"/><rect id="Rectangle_11" data-name="Rectangle 11" class="cls-2" x="271.61" y="377.78" width="73.1" height="8.56"/><path id="Path_193" data-name="Path 193" class="cls-4" d="M326.33,295.93v11H278.91a5.52,5.52,0,0,1,0-11" transform="translate(0 0)"/><path id="Path_194" data-name="Path 194" class="cls-2" d="M326.33,304.65h-16a2.79,2.79,0,0,1-2.78-2.78h0V301a2.78,2.78,0,0,1,2.78-2.78h16Z" transform="translate(0 0)"/><path id="Path_195" data-name="Path 195" class="cls-2" d="M326.33,284.91v11H278.91a5.51,5.51,0,0,1,0-11Z" transform="translate(0 0)"/><path id="Path_196" data-name="Path 196" class="cls-8" d="M326.33,293.62h-16a2.78,2.78,0,0,1-2.78-2.77h0V290a2.78,2.78,0,0,1,2.78-2.78h16Z" transform="translate(0 0)"/><path id="Path_197" data-name="Path 197" class="cls-4" d="M292.09,267.22l-7.53,17.69h4.84l3.35-9.45Z" transform="translate(0 0)"/><path id="Path_198" data-name="Path 198" class="cls-8" d="M315.21,251.21l2.91,33.69H293.51l-2.7-33.69Z" transform="translate(0 0)"/><path id="Path_199" data-name="Path 199" class="cls-9" d="M312.8,253.89l2.55,28.22-18.47.24-2.5-28.63Z" transform="translate(0 0)"/><path id="Path_200" data-name="Path 200" class="cls-4" d="M308.88,257.79l1.45,19.42h-9.85l-1.74-19.42Z" transform="translate(0 0)"/></g></g><g id="Group_7" data-name="Group 7"><g class="cls-3"><g id="Group_6" data-name="Group 6"><path id="Path_201" data-name="Path 201" class="cls-11" d="M404.76,407.71c0,.13-85.56.24-191.08.24s-191.1-.11-191.1-.24,85.54-.23,191.1-.23,191.08.1,191.08.23" transform="translate(0 0)"/></g></g></g><rect class="cls-1" x="5" width="416.08" height="411.07"/><path id="Path_202" data-name="Path 202" class="cls-10" d="M402.83,201.32c-10.76,5.57-19,15.16-24.93,25.72s-9.76,22.15-13.54,33.66L361.05,320c12.51-21.29,22.55-46.31,25.27-70.86l-8.33-.74c5.58-.85,10.27-4.9,13.25-9.69s4.52-10.33,6-15.78l-10.16,1.51a37.7,37.7,0,0,0,15.73-23.15" transform="translate(0 0)"/><g id="Group_10" data-name="Group 10" class="cls-12"><g id="Group_9" data-name="Group 9"><g class="cls-13"><g id="Group_8" data-name="Group 8"><path id="Path_203" data-name="Path 203" d="M402.83,201.32c-10.76,5.57-19,15.16-24.93,25.72s-9.76,22.15-13.54,33.66L361.05,320c12.51-21.29,22.55-46.31,25.27-70.86l-8.33-.74c5.58-.85,10.27-4.9,13.25-9.69s4.52-10.33,6-15.78l-10.16,1.51a37.7,37.7,0,0,0,15.73-23.15" transform="translate(0 0)"/></g></g></g></g><path id="Path_204" data-name="Path 204" class="cls-10" d="M359.19,333.93S332,301.42,332.34,270.39h11s-11.92-7.84-11-12.23,1.26-21,1.26-21l10,2.51s-7.52-3.76-8.46-9.72,2.19-33.54,2.19-33.54,12.23,12.85,16,26S367,251,364.08,291.08s-4.89,42.85-4.89,42.85" transform="translate(0 0)"/><path id="Path_205" data-name="Path 205" class="cls-10" d="M373,337s29.43-19.6,36-44.62L400.1,290s11.3-3.7,11.5-7.43,3.59-17.16,3.59-17.16l-8.62-.18s6.88-1.38,8.94-6,5.57-27.45,5.57-27.45-12.64,7.66-18.55,17.42-17.2,20-23.65,52.85S373,337,373,337" transform="translate(0 0)"/><path id="Path_206" data-name="Path 206" class="cls-11" d="M344.78,224.75a2.19,2.19,0,0,1,.1.34l.24,1c.2.91.49,2.2.85,3.86s.82,3.73,1.29,6.12,1.05,5.11,1.6,8.13c1.16,6,2.39,13.23,3.65,21.25S355,282.31,356,291.62s1.89,18.2,2.54,26.28,1,15.4,1.29,21.53c.15,3.06.23,5.84.3,8.28s.13,4.53.14,6.25,0,3,.05,4v1a.18.18,0,1,1-.05.35.18.18,0,0,1-.15-.2.17.17,0,0,1,.15-.15c0-.26,0-.6-.05-1,0-.93-.07-2.25-.13-4s-.11-3.81-.22-6.25-.2-5.2-.38-8.27c-.28-6.13-.77-13.42-1.4-21.5s-1.5-17-2.56-26.27-2.3-18.14-3.5-26.16-2.42-15.22-3.54-21.25c-.53-3-1.07-5.75-1.53-8.14s-.86-4.46-1.21-6.14l-.77-3.87c-.08-.43-.14-.76-.19-1a2.09,2.09,0,0,1,0-.35" transform="translate(0 0)"/><path id="Path_207" data-name="Path 207" class="cls-10" d="M355.42,353.84s-24.85-28.2-32.57-45.25l5.83-2.49c-4.22.7-8.55-1.12-11.83-3.88s-5.67-6.38-8-10l7.67-1.3a28.6,28.6,0,0,1-16.77-13c9.06,1.49,17.25,6.46,24,12.68a119.81,119.81,0,0,1,14.55,16.85,57.86,57.86,0,0,1,5.65,9.29c4.17,8.63,11.52,26.67,11.5,37" transform="translate(0 0)"/><path id="Path_208" data-name="Path 208" class="cls-11" d="M409.32,248.22a1.78,1.78,0,0,1-.12.29c-.1.2-.23.47-.38.81l-1.52,3.13c-1.34,2.71-3.22,6.65-5.51,11.53s-4.93,10.75-7.77,17.29-5.8,13.8-8.78,21.48-5.62,15.06-7.95,21.8-4.3,12.86-5.89,18-2.84,9.34-3.68,12.24l-1,3.33-.27.87a1.66,1.66,0,0,1-.1.29,1.45,1.45,0,0,1,.06-.3c.05-.22.13-.51.22-.88q.32-1.2.9-3.36c.78-2.91,2-7.11,3.54-12.28s3.5-11.3,5.79-18.06,5-14.14,7.92-21.83,6-14.93,8.83-21.48,5.53-12.39,7.86-17.26,4.26-8.79,5.65-11.47l1.6-3.09.42-.8a2.26,2.26,0,0,1,.16-.26" transform="translate(0 0)"/><path id="Path_209" data-name="Path 209" class="cls-11" d="M357.53,365.92a2.18,2.18,0,0,1-.11-.52c-.06-.39-.15-.88-.24-1.5s-.22-1.44-.39-2.36-.33-2-.57-3.12c-.45-2.31-1.09-5-1.9-8s-1.87-6.25-3.13-9.6-2.66-6.48-4-9.28-2.7-5.26-3.89-7.29c-.57-1-1.15-1.92-1.63-2.72s-.91-1.48-1.27-2l-.81-1.28a.28.28,0,0,1-.36-.13.27.27,0,0,1,.14-.36.26.26,0,0,1,.35.14.24.24,0,0,1-.05.29l.88,1.24c.39.53.85,1.2,1.35,2S343,323,343.59,324c1.23,2,2.59,4.47,4,7.27s2.78,5.93,4.06,9.29,2.28,6.66,3.1,9.67,1.4,5.76,1.8,8.08c.23,1.16.37,2.22.51,3.15s.24,1.72.31,2.38l.15,1.51a1.87,1.87,0,0,1,0,.53" transform="translate(0 0)"/><rect id="Rectangle_15" data-name="Rectangle 15" class="cls-14" x="335.93" y="359.29" width="54.4" height="11.1"/><path id="Path_210" data-name="Path 210" class="cls-14" d="M341.12,370.39,347,407.71h32.87l5.49-37.32Z" transform="translate(0 0)"/><path id="Path_211" data-name="Path 211" class="cls-11" d="M387,370.39c0,.13-10.29.23-23,.23s-23-.1-23-.23,10.29-.24,23-.24,23,.11,23,.24" transform="translate(0 0)"/><rect class="cls-1" x="5" width="416.08" height="411.07"/><path id="Path_212" data-name="Path 212" class="cls-11" d="M126.26,87.53c.89-4.44,4-6.81,8.21-8.55a14.13,14.13,0,0,1,13,1.24c2.52,1.67,4.59,4.2,7.5,5,4.81,1.32,10.08-2.56,14.73-.75a6.43,6.43,0,0,1-2.23,12.42c3.14.92,4.39,5.23,2.77,8.08s-5.22,4.12-8.47,3.74-6.18-2.15-8.75-4.17-4.91-4.35-7.64-6.16-6-3.1-9.22-2.71c-4.4.53-8,4.11-9.67,8.2s-1.86,8.64-1.82,13.07.27,8.92-.76,13.23c-.12.51-.32,1.08-.8,1.26-.7.27-1.36-.45-1.76-1.09a65.07,65.07,0,0,1-9-23.63c-.83-4.86-1-9.5,1.41-13.79s9-7.78,12.52-5.4" transform="translate(0 0)"/><path id="Path_213" data-name="Path 213" class="cls-15" d="M119.08,108.58l.93,45.24c.18,8.44,4.42,17.18,17.76,16.3,11.52-1.64,11.82-9.72,11.76-19.74h0s12.62-1.45,13.28-14c.31-6.06-.05-18.59-.51-29.92a23.38,23.38,0,0,0-22.43-22.4l-1.21,0c-13.08.24-20.18,11.49-19.58,24.55" transform="translate(0 0)"/><path id="Path_214" data-name="Path 214" class="cls-16" d="M149.53,150.38a30.34,30.34,0,0,1-16.13-5.48s3.55,9.88,16.11,9.25Z" transform="translate(0 0)"/><path id="Path_215" data-name="Path 215" class="cls-11" d="M157.86,119.08a1.79,1.79,0,0,1-1.8,1.74,1.71,1.71,0,0,1-1.78-1.65v0a1.8,1.8,0,0,1,1.8-1.74,1.72,1.72,0,0,1,1.78,1.65v0" transform="translate(0 0)"/><path id="Path_216" data-name="Path 216" class="cls-11" d="M159.36,112.53c-.23.22-1.55-.84-3.47-.91s-3.38.84-3.58.59.14-.52.78-.94a4.93,4.93,0,0,1,2.87-.77,4.79,4.79,0,0,1,2.76,1c.57.48.76.91.64,1" transform="translate(0 0)"/><path id="Path_217" data-name="Path 217" class="cls-11" d="M140,118.3a1.8,1.8,0,0,1-1.8,1.74,1.72,1.72,0,0,1-1.78-1.65v0a1.8,1.8,0,0,1,1.8-1.74,1.71,1.71,0,0,1,1.78,1.65v0" transform="translate(0 0)"/><path id="Path_218" data-name="Path 218" class="cls-11" d="M140.41,112.13c-.24.22-1.55-.83-3.48-.91s-3.38.84-3.58.6.14-.53.78-.95a4.87,4.87,0,0,1,2.87-.76,4.69,4.69,0,0,1,2.76,1c.57.48.76.91.65,1" transform="translate(0 0)"/><path id="Path_219" data-name="Path 219" class="cls-11" d="M146.83,126.7a12.47,12.47,0,0,1,3.15-.44c.49,0,1-.11,1.06-.44a2.49,2.49,0,0,0-.27-1.47c-.41-1.21-.85-2.48-1.31-3.81-1.8-5.42-3.1-9.86-2.87-9.93s1.86,4.26,3.67,9.68c.43,1.33.85,2.6,1.24,3.82a2.83,2.83,0,0,1,.18,1.94,1.24,1.24,0,0,1-.84.69,3.37,3.37,0,0,1-.84.08,12.47,12.47,0,0,1-3.17-.12" transform="translate(0 0)"/><path id="Path_220" data-name="Path 220" class="cls-11" d="M141.21,104.6c-.22.51-2.13.19-4.4.37s-4.13.73-4.41.24c-.13-.23.21-.71,1-1.18a7.64,7.64,0,0,1,6.7-.47c.82.36,1.22.8,1.13,1" transform="translate(0 0)"/><path id="Path_221" data-name="Path 221" class="cls-11" d="M158.88,106.92c-.36.43-1.67-.08-3.27-.17s-3,.18-3.25-.29c-.12-.23.1-.66.71-1a4.74,4.74,0,0,1,5.25.37c.55.48.71.93.55,1.14" transform="translate(0 0)"/><path id="Path_222" data-name="Path 222" class="cls-15" d="M119.74,117.91c-.21-.1-8.52-2.89-8.59,5.69s8.57,6.88,8.58,6.64,0-12.33,0-12.33" transform="translate(0 0)"/><path id="Path_223" data-name="Path 223" class="cls-16" d="M117.14,127s-.15.1-.4.22a1.5,1.5,0,0,1-1.12,0c-.9-.34-1.66-1.78-1.69-3.33a5.07,5.07,0,0,1,.44-2.14,1.74,1.74,0,0,1,1.13-1.14.76.76,0,0,1,.88.42c.12.24.06.41.1.43s.19-.14.12-.5a.9.9,0,0,0-.33-.54,1.17,1.17,0,0,0-.83-.23,2.11,2.11,0,0,0-1.57,1.32,5.08,5.08,0,0,0-.54,2.39c0,1.73.92,3.36,2.15,3.72a1.62,1.62,0,0,0,1.37-.21c.27-.21.32-.4.29-.42" transform="translate(0 0)"/><path id="Path_224" data-name="Path 224" class="cls-11" d="M162.92,94.81a16.37,16.37,0,0,0-5-6.28,28,28,0,0,0-16-6.44,22.76,22.76,0,0,0-16.2,5.39,24,24,0,0,0-7.08,11.86,35.2,35.2,0,0,0-.64,13.9,10.55,10.55,0,0,0,2.1,5.68c.84,1,2.34,1.63,3.38.89a3.35,3.35,0,0,0,1.08-1.93c1.92-6.55,3.83-13.6,1.66-20.07a19.61,19.61,0,0,1,6.12-5.19,10.21,10.21,0,0,1,7.83-.76c3.78,1.33,6,5.14,8.93,7.85A18.12,18.12,0,0,0,165.05,104Z" transform="translate(0 0)"/><path id="Path_225" data-name="Path 225" class="cls-16" d="M147.78,132.07a8.18,8.18,0,0,1-1,2.23,2.88,2.88,0,0,1-2,1.32,2.57,2.57,0,0,1-2.25-1,4.17,4.17,0,0,1-.78-2.44c0-.78.28-1.73,1-1.88a2,2,0,0,1,1,.15l4.19,1.38" transform="translate(0 0)"/><path id="Path_226" data-name="Path 226" class="cls-11" d="M146.37,135.53a5.77,5.77,0,0,1-2.19-.12,3.11,3.11,0,0,1-1.75-1.39,3.3,3.3,0,0,1-.23-2.66,2.67,2.67,0,0,1,.32-.63c.15-.18.12-.17.3-.16s.45.14.67.21l.69.23c.9.3,1.7.55,2.39.76a7.66,7.66,0,0,0,2.26.52,7.09,7.09,0,0,0-2.09-1c-.66-.27-1.46-.57-2.34-.9l-.68-.25a7,7,0,0,0-.77-.26.89.89,0,0,0-.6.06,1.1,1.1,0,0,0-.42.38,3.56,3.56,0,0,0-.41.8,3.86,3.86,0,0,0,.34,3.26,3.54,3.54,0,0,0,2.18,1.54,3.43,3.43,0,0,0,1.77,0c.4-.14.58-.29.56-.33" transform="translate(0 0)"/><path id="Path_227" data-name="Path 227" class="cls-10" d="M172.27,86.6a1.9,1.9,0,0,1,.09.58,5.26,5.26,0,0,1-.18,1.67,7.85,7.85,0,0,1-3.78,4.74c-2.31,1.35-5.68,1.55-9,.56s-6.55-3.08-9.92-5.05-6.9-3.49-10.27-3.35A13.38,13.38,0,0,0,131.12,89a17.88,17.88,0,0,0-3.92,4.58c-.73,1.24-1,2-1.08,2a2.11,2.11,0,0,1,.19-.55,12.28,12.28,0,0,1,.7-1.52,17.06,17.06,0,0,1,3.85-4.77,13.69,13.69,0,0,1,8.36-3.45c3.53-.17,7.18,1.39,10.56,3.38s6.53,4.1,9.78,5,6.43.83,8.64-.41A7.77,7.77,0,0,0,172,88.79a8.15,8.15,0,0,0,.3-2.19" transform="translate(0 0)"/><path id="Path_228" data-name="Path 228" class="cls-10" d="M113.32,104.46a6.11,6.11,0,0,1,.66-2.28,14.67,14.67,0,0,1,3.27-4.71,14.39,14.39,0,0,1,2.52-2,5.38,5.38,0,0,1,2.48-.89,2.85,2.85,0,0,1,1.73.45c.35.25.46.46.44.48a3.31,3.31,0,0,0-2.14-.54c-1.37.16-3.06,1.37-4.64,2.85a16.92,16.92,0,0,0-3.3,4.48c-.66,1.28-.92,2.14-1,2.11" transform="translate(0 0)"/><path id="Path_229" data-name="Path 229" class="cls-10" d="M114.53,112.07a6.45,6.45,0,0,1,.8-2.25,15.9,15.9,0,0,1,8.44-7.62,6.65,6.65,0,0,1,2.32-.57,20.82,20.82,0,0,1-2.17.93,18.26,18.26,0,0,0-8.24,7.45c-.35.71-.74,1.39-1.15,2.06" transform="translate(0 0)"/><path id="Path_230" data-name="Path 230" class="cls-15" d="M177.66,236l45.66,18.38L216,267.47l-51.77-7.94Z" transform="translate(0 0)"/><path id="Path_231" data-name="Path 231" class="cls-14" d="M177.75,182.89c.24,12.85-.17,43.79-.17,43.79l7.32,11.5-12.81,17.25-14.8,2.08L155.82,269s-25.92,11.6-46.66,4.57c-16.14-5.47-35,12.93-35,12.93s-1.73-3,1.07-29C77.9,232.79,82.56,192,82.56,192l14.92-37.31,22.4-3.88c9.38,16,28.14,16,29.65,6.34l14.9,6.2a21.16,21.16,0,0,1,13.32,19.59" transform="translate(0 0)"/><path id="Path_232" data-name="Path 232" class="cls-11" d="M164.84,186.81c.13,0-1.44,14.75-3.51,32.91s-3.86,32.87-4,32.85,1.44-14.74,3.52-32.91,3.85-32.87,4-32.85" transform="translate(0 0)"/><path id="Path_233" data-name="Path 233" class="cls-11" d="M157.45,220.07c.07.11-7.24,4.94-16.34,10.79s-16.54,10.5-16.6,10.39,7.24-4.94,16.34-10.79,16.54-10.5,16.6-10.39" transform="translate(0 0)"/><path id="Path_234" data-name="Path 234" class="cls-11" d="M131.26,407.71h-8.6l-4.91-57.85h13.51Z" transform="translate(0 0)"/><path id="Path_235" data-name="Path 235" class="cls-11" d="M64.24,407.71h-8.6l-4.91-57.85H64.24Z" transform="translate(0 0)"/><path id="Path_236" data-name="Path 236" class="cls-11" d="M226.36,407.71h-8.6l-4.92-57.85h13.52Z" transform="translate(0 0)"/><path id="Path_237" data-name="Path 237" class="cls-10" d="M87.83,298.3,96,172.88H18.68a9.41,9.41,0,0,0-9.41,9.41A8.85,8.85,0,0,0,9.43,184L40.54,352c9.9-.14,190.34,0,190.34,0V298.3Z" transform="translate(0 0)"/><path id="Path_238" data-name="Path 238" class="cls-11" d="M202.58,333.54c0,.13-17.15.23-38.29.23s-38.29-.1-38.29-.23,17.14-.24,38.29-.24,38.29.1,38.29.24" transform="translate(0 0)"/><path id="Path_239" data-name="Path 239" class="cls-14" d="M271.06,362.72l5.57,26.55s28.86,3.26,30.37,8.07L255.9,410l-10.37-41Z" transform="translate(0 0)"/><path id="Path_240" data-name="Path 240" class="cls-4" d="M260.28,391a2.16,2.16,0,0,0-.85,2.74,2.08,2.08,0,0,0,2.71.87,2.27,2.27,0,0,0,.89-2.9,2.15,2.15,0,0,0-2.92-.59" transform="translate(0 0)"/><path id="Path_241" data-name="Path 241" class="cls-4" d="M256.13,411.07l-1-4,49.22-11.85s2.52.42,2.66,2.09Z" transform="translate(0 0)"/><g id="Group_15" data-name="Group 15" class="cls-12"><g id="Group_14" data-name="Group 14"><g class="cls-17"><g id="Group_13" data-name="Group 13"><path id="Path_246" data-name="Path 246" d="M271.06,362.71l5.57,26.56s28.86,3.26,30.37,8.06l-50.87,13.73L245.53,369Z" transform="translate(0 0)"/></g></g></g></g><path id="Path_242" data-name="Path 242" class="cls-11" d="M277.4,388.81c.05.25-1.17.67-2.21,1.78s-1.42,2.31-1.67,2.27-.24-1.57,1-2.89,2.84-1.4,2.84-1.16" transform="translate(0 0)"/><path id="Path_243" data-name="Path 243" class="cls-11" d="M283.3,389.7c.12.23-.86.92-1.44,2.18s-.56,2.44-.81,2.49-.76-1.32,0-2.88,2.19-2,2.26-1.8" transform="translate(0 0)"/><path id="Path_244" data-name="Path 244" class="cls-11" d="M287.93,395.36c-.21.11-.86-1.05-.56-2.58s1.33-2.36,1.49-2.17-.38,1.09-.61,2.34-.07,2.32-.31,2.41" transform="translate(0 0)"/><path id="Path_245" data-name="Path 245" class="cls-11" d="M275.45,382.9c0,.25-1.27.19-2.66.63s-2.38,1.17-2.56,1,.65-1.33,2.29-1.83,3,0,2.93.22" transform="translate(0 0)"/><path id="Path_247" data-name="Path 247" class="cls-11" d="M243.91,282.65l32.35,93.91-27.93,10.33L196.84,284l-85.52-13.38,51.33-13.81,73.22,18.5a11.47,11.47,0,0,1,8,7.39" transform="translate(0 0)"/><path id="Path_248" data-name="Path 248" class="cls-14" d="M270.17,352.29l18.48,20.29s26.82-12,30.6-8.55L281.2,401.26l-30.08-30.43Z" transform="translate(0 0)"/><path id="Path_249" data-name="Path 249" class="cls-4" d="M275.26,382.44a2.19,2.19,0,0,0,.67,2.83,2.1,2.1,0,0,0,2.8-.64,2.29,2.29,0,0,0-.72-3,2.15,2.15,0,0,0-2.84,1" transform="translate(0 0)"/><path id="Path_250" data-name="Path 250" class="cls-4" d="M282,402.09,279,399.14l36.82-35.57s2.42-.92,3.39.46Z" transform="translate(0 0)"/><path id="Path_251" data-name="Path 251" class="cls-11" d="M289.07,371.78c.18.19-.67,1.18-1,2.68s-.05,2.75-.3,2.84-1-1.25-.58-3.05,1.75-2.68,1.88-2.47" transform="translate(0 0)"/><path id="Path_252" data-name="Path 252" class="cls-11" d="M294.68,369.52c.22.14-.28,1.24-.14,2.65s.77,2.41.58,2.59-1.34-.77-1.48-2.52.86-2.89,1-2.72" transform="translate(0 0)"/><path id="Path_253" data-name="Path 253" class="cls-11" d="M301.62,372.08c-.13.2-1.3-.47-1.82-1.95s0-2.74.19-2.66.22,1.15.67,2.36,1.12,2.06,1,2.25" transform="translate(0 0)"/><path id="Path_254" data-name="Path 254" class="cls-11" d="M284.35,367.62c.09.25-1,.83-2,1.92s-1.48,2.24-1.73,2.17-.11-1.5,1.06-2.77,2.61-1.55,2.67-1.32" transform="translate(0 0)"/><path id="Path_255" data-name="Path 255" class="cls-11" d="M102.11,310.14l74.58-.32,82.77,77.07,25.72-24s-70.27-79.3-78.4-87.48-86.35-13.64-86.35-13.64l-47,20.43,1.07,5.33a28.07,28.07,0,0,0,27.63,22.57" transform="translate(0 0)"/><path id="Path_256" data-name="Path 256" class="cls-10" d="M175,300a45.45,45.45,0,0,1,1.14,9.15A44.15,44.15,0,0,1,175,300" transform="translate(0 0)"/><path id="Path_257" data-name="Path 257" class="cls-10" d="M276.59,353.37a8,8,0,0,1-.93,1.08c-.62.68-1.53,1.64-2.66,2.82-2.28,2.36-5.47,5.56-9.09,9s-7,6.49-9.42,8.65c-1.23,1.08-2.24,1.95-2.94,2.53a8.77,8.77,0,0,1-1.13.88,8.77,8.77,0,0,1,1-1l2.84-2.64c2.4-2.22,5.71-5.3,9.32-8.74s6.84-6.61,9.18-8.9l2.77-2.71a8.06,8.06,0,0,1,1.06-1" transform="translate(0 0)"/><path id="Path_258" data-name="Path 258" class="cls-10" d="M232.06,361.39s.18.14.5.43l1.43,1.29,5.46,5,20.12,18.64h-.22l25.7-24,0,.3c-10.84-12.65-23.83-26.49-37.43-41.22-6-6.5-11.89-12.85-17.5-19s-11-12.22-15.85-18.15a48.89,48.89,0,0,0-7.73-8,20.39,20.39,0,0,0-4.58-2.67,29.35,29.35,0,0,0-4.94-1.51c-3.32-.72-6.6-1.14-9.72-1.64l-9-1.4-27.16-4.26L143.74,264l-1.92-.31-.65-.13.66.08,1.92.27,7.4,1.09,27.18,4.1,9,1.37c3.13.5,6.4.9,9.76,1.62a29.16,29.16,0,0,1,5,1.53,20,20,0,0,1,4.68,2.71,49,49,0,0,1,7.82,8.07c4.88,5.91,10.24,11.93,15.85,18.11s11.48,12.54,17.5,19c13.6,14.73,26.57,28.58,37.41,41.26l.13.15-.15.14L259.57,387l-.12.11-.11-.11-20-18.75-5.4-5.08-1.4-1.33-.46-.46" transform="translate(0 0)"/><path id="Path_259" data-name="Path 259" class="cls-15" d="M166.62,250.51l-22.5,7.58-41.43-16.84-22.1,20.56,59.08,10.6a12.94,12.94,0,0,0,6-.43l17.42-5.47s5.7,6.43,6.88,6.53,3.59-.07,2.45-2.19a55.8,55.8,0,0,0-4.07-5.83s8,6.6,8.91,5.72.54-2.92-.88-4.59-6.12-7.06-6.12-7.06,9.86,8.16,10.8,6.92,1.4-3.19-2.55-7c-2.6-2.48-6.59-6-8.69-7.88a3.2,3.2,0,0,0-3.16-.64" transform="translate(0 0)"/><path id="Path_260" data-name="Path 260" class="cls-16" d="M143.51,258.29a15.36,15.36,0,0,1-2.15,2.66,15.76,15.76,0,0,1-2.35,2.48,17.15,17.15,0,0,1,4.5-5.13" transform="translate(0 0)"/><path id="Path_261" data-name="Path 261" class="cls-16" d="M176.69,266.58a9.19,9.19,0,0,1-1.9-1.94c-1.09-1.28-2.52-3.08-4.15-5s-3-4-4.85-3.66a3.79,3.79,0,0,0-1.8.55c-.39.24-.58.42-.6.4s.12-.25.5-.55a3.58,3.58,0,0,1,1.88-.73,3.77,3.77,0,0,1,1.42.12,2.34,2.34,0,0,1,.75.35,8.14,8.14,0,0,1,.63.54A30.88,30.88,0,0,1,171,259.3c1.63,2,3,3.81,4,5.13l1.21,1.57c.28.37.46.55.43.58" transform="translate(0 0)"/><path id="Path_262" data-name="Path 262" class="cls-16" d="M160.73,260.81s.13-.23.52-.47a3.49,3.49,0,0,1,1.86-.48,3.59,3.59,0,0,1,1.34.26,3.19,3.19,0,0,1,1.19,1c.33.42.62.9.93,1.37s.7.92,1.06,1.4c2.92,3.85,5.1,7.14,4.9,7.26a3.1,3.1,0,0,1-.42-.54l-1.13-1.5-3.73-4.94c-.37-.49-.73-.94-1.06-1.43s-.59-1-.9-1.36a3,3,0,0,0-1-.94,3.51,3.51,0,0,0-1.18-.28,4.14,4.14,0,0,0-2.38.61" transform="translate(0 0)"/><path id="Path_263" data-name="Path 263" class="cls-16" d="M179,259.59a11,11,0,0,1-1.82-1.44c-1.09-.94-2.57-2.25-4.19-3.73l-2.26-2.1a7,7,0,0,0-1.94-1.49,4.05,4.05,0,0,0-2.2-.32s.19-.15.6-.22a3.43,3.43,0,0,1,1.73.23,6.1,6.1,0,0,1,1.06.59c.35.27.68.57,1,.88l2.29,2.07c1.61,1.48,3.06,2.84,4.09,3.84a11.12,11.12,0,0,1,1.6,1.69" transform="translate(0 0)"/><path id="Path_264" data-name="Path 264" class="cls-14" d="M78.49,262.37s-8.41-9.44-7.88-22,4.14-49.05,5.75-59.06,9.13-23.65,21.12-26.62c8.76-2.18,10.57,24.33,10.57,24.33l-6.62,58.53,13.2,7.67L102.31,266Z" transform="translate(0 0)"/><path id="Path_265" data-name="Path 265" class="cls-11" d="M106.92,176.06c-.1,0-.2-1.28-.76-3.27a22.77,22.77,0,0,0-6.42-10.54A22.82,22.82,0,0,0,96.9,160c-1.72-1.15-2.91-1.66-2.87-1.74a3.25,3.25,0,0,1,.86.3,10.59,10.59,0,0,1,1,.46,13.47,13.47,0,0,1,1.23.7,21.3,21.3,0,0,1,3,2.21,21.68,21.68,0,0,1,5.27,7.29,21.07,21.07,0,0,1,1.18,3.49c.11.46.2.92.27,1.39a7.49,7.49,0,0,1,.13,1.06,3.47,3.47,0,0,1,0,.91" transform="translate(0 0)"/><path id="Path_266" data-name="Path 266" class="cls-11" d="M101.4,237.55a16,16,0,0,1-2.08,1.22,49.7,49.7,0,0,0-4.86,3.14A52.61,52.61,0,0,0,90,245.65a14.47,14.47,0,0,1-1.79,1.62,10.21,10.21,0,0,1,1.55-1.86,35.85,35.85,0,0,1,4.38-3.88,34,34,0,0,1,5-3.06,9.59,9.59,0,0,1,2.25-.92" transform="translate(0 0)"/><path id="Path_267" data-name="Path 267" class="cls-4" d="M188.77,224.21,174.3,276.78h67.59l16.47-50.08a3.05,3.05,0,0,0-1.94-3.85,2.91,2.91,0,0,0-.92-.15L191.74,222a3,3,0,0,0-3,2.24" transform="translate(0 0)"/><path id="Path_268" data-name="Path 268" class="cls-11" d="M193.15,222c.13,0-3.15,12.33-7.32,27.46s-7.66,27.36-7.78,27.33,3.15-12.33,7.32-27.46S193,222,193.15,222" transform="translate(0 0)"/><path id="Path_269" data-name="Path 269" class="cls-7" d="M219.28,248.56a2.85,2.85,0,1,0,3.95-1.69,3.06,3.06,0,0,0-3.95,1.69" transform="translate(0 0)"/><path id="Path_270" data-name="Path 270" class="cls-4" d="M174.3,276.78H129.07a3.87,3.87,0,0,1,3.87-3.87h43Z" transform="translate(0 0)"/><path id="Path_271" data-name="Path 271" class="cls-11" d="M70.61,240.33a3.11,3.11,0,0,1,0,.43c0,.3,0,.71,0,1.24s.06,1.34.14,2,.23,1.7.39,2.72a34.44,34.44,0,0,0,2.28,7.13,35.65,35.65,0,0,0,5.15,8.39l-.11-.06,23.84,3.62-.23.11,9.59-16.27,2.71-4.6.09.33-13.19-7.67-.12-.08v-.14l3-33.12c.39-4.06.7-7.31.9-9.56.12-1.09.2-1.94.26-2.55,0-.27.06-.49.08-.66a.85.85,0,0,1,0-.22.89.89,0,0,1,0,.23c0,.17,0,.38,0,.66,0,.6-.11,1.46-.19,2.55-.18,2.26-.44,5.5-.77,9.58-.7,8.2-1.68,19.73-2.82,33.13l-.11-.21,13.2,7.65.2.12-.12.2-2.71,4.6-9.61,16.26-.08.13-.15,0-23.82-3.71h-.07l0,0A35.54,35.54,0,0,1,71,246.76c-.16-.91-.27-1.82-.34-2.74a17.07,17.07,0,0,1-.09-2c0-.53,0-.94,0-1.25a3,3,0,0,1,0-.42" transform="translate(0 0)"/><path id="Path_272" data-name="Path 272" class="cls-10" d="M36.75,256.76s79.94,10.12,82.79,12.92c2.51,2.46,5.7,67.39,6.42,67.07l-74.6-2.83Z" transform="translate(0 0)"/><path id="Path_273" data-name="Path 273" class="cls-11" d="M102.7,351.82c-.13,0-1.8-18.71-3.72-41.82s-3.37-41.85-3.24-41.86,1.79,18.71,3.71,41.82,3.38,41.85,3.25,41.86" transform="translate(0 0)"/><path id="Path_274" data-name="Path 274" class="cls-11" d="M21,172.88a1.58,1.58,0,0,1,.09.31c.06.23.13.53.23.92.19.84.46,2,.81,3.55.69,3.12,1.69,7.59,2.91,13.09,2.41,11.08,5.74,26.35,9.41,43.21.91,4.23,1.8,8.35,2.66,12.33q.64,3,1.26,5.86c.1.48.21.95.31,1.43a8,8,0,0,0,.36,1.36,4.18,4.18,0,0,0,1.74,2,4.46,4.46,0,0,0,1.22.49c.42.09.9.13,1.35.2l2.67.35,5.11.67,9.18,1.21,13.29,1.79,3.61.51.93.15a1.65,1.65,0,0,1,.32.06,1.69,1.69,0,0,1-.32,0l-1-.1-3.62-.43-13.3-1.64L51.12,259,46,258.39l-2.68-.34c-.45-.07-.9-.1-1.38-.2a4.77,4.77,0,0,1-1.35-.54,4.6,4.6,0,0,1-1.93-2.2,9,9,0,0,1-.39-1.44c-.1-.47-.2-.95-.31-1.42-.41-1.92-.84-3.87-1.27-5.86-.86-4-1.76-8.1-2.67-12.33l-9.28-43.24L22,177.7l-.72-3.57c-.08-.39-.13-.7-.18-.93a1.75,1.75,0,0,1,0-.32" transform="translate(0 0)"/><path id="Path_275" data-name="Path 275" class="cls-11" d="M120.74,274.84c.13,0,1.66,17.26,3.41,38.57s3.06,38.6,2.93,38.61-1.65-17.26-3.4-38.57-3.07-38.6-2.94-38.6" transform="translate(0 0)"/><rect id="Rectangle_19" data-name="Rectangle 19" class="cls-7" x="213.12" y="26.66" width="185.36" height="162.32"/><rect id="Rectangle_20" data-name="Rectangle 20" class="cls-2" x="213.57" y="101.14" width="184.91" height="87.84"/><rect class="cls-1" x="5" width="416.08" height="411.07"/><path id="Path_276" data-name="Path 276" class="cls-11" d="M364.12,80.7c0,.13-25.37.24-56.66.24s-56.66-.11-56.66-.24,25.37-.24,56.66-.24,56.66.11,56.66.24" transform="translate(0 0)"/><path id="Path_277" data-name="Path 277" class="cls-11" d="M397.42,44.22c0,.13-41.06.24-91.7.24s-91.7-.11-91.7-.24,41-.24,91.7-.24,91.7.11,91.7.24" transform="translate(0 0)"/><path id="Path_278" data-name="Path 278" class="cls-11" d="M226,35.11a2.82,2.82,0,1,1-2.82-2.81h0A2.81,2.81,0,0,1,226,35.11" transform="translate(0 0)"/><path id="Path_279" data-name="Path 279" class="cls-11" d="M235.38,35.11a2.82,2.82,0,1,1-2.82-2.81h0a2.81,2.81,0,0,1,2.82,2.81" transform="translate(0 0)"/><path id="Path_280" data-name="Path 280" class="cls-11" d="M244.79,35.11A2.82,2.82,0,1,1,242,32.3a2.81,2.81,0,0,1,2.82,2.81h0" transform="translate(0 0)"/><path id="Path_281" data-name="Path 281" class="cls-14" d="M250.49,80.2a7.4,7.4,0,1,1-7.4-7.4h0a7.4,7.4,0,0,1,7.4,7.4" transform="translate(0 0)"/><path id="Path_282" data-name="Path 282" class="cls-7" d="M244.35,76.49v7.16h-1.66V77.82h-1.43V76.49Z" transform="translate(0 0)"/><path id="Path_283" data-name="Path 283" class="cls-14" d="M317.61,80.44a21,21,0,0,0-.43-2.6A10.71,10.71,0,0,0,313.26,72a10.56,10.56,0,1,0,0,16.85,10.73,10.73,0,0,0,3.93-5.82,22.88,22.88,0,0,0,.42-2.61,4,4,0,0,1,0,.69,4.76,4.76,0,0,1-.07.84,6.22,6.22,0,0,1-.2,1.13,10.87,10.87,0,0,1-14.26,7.67,11,11,0,0,1,5.76-21.1,10.85,10.85,0,0,1,8.5,8.12,7.23,7.23,0,0,1,.2,1.13,4,4,0,0,1,.06.84,3.18,3.18,0,0,1,0,.69" transform="translate(0 0)"/><path id="Path_284" data-name="Path 284" class="cls-11" d="M378.89,80.2a18,18,0,0,0-.32-1.79,7.34,7.34,0,0,0-2.7-4,7.22,7.22,0,0,0-6.82-1,7.19,7.19,0,0,0,0,13.49,7.22,7.22,0,0,0,6.82-1,7.34,7.34,0,0,0,2.7-4c.3-1.13.27-1.79.33-1.79a1.93,1.93,0,0,1,0,.48,5.61,5.61,0,0,1-.17,1.35,7.4,7.4,0,0,1-2.67,4.19,7.48,7.48,0,0,1-3.18,1.44,7.57,7.57,0,0,1-7.55-2.94A7.58,7.58,0,0,1,375.9,74.06l.17.12a7.41,7.41,0,0,1,2.68,4.19,5.6,5.6,0,0,1,.16,1.35,1.55,1.55,0,0,1,0,.48" transform="translate(0 0)"/><rect id="Rectangle_21" data-name="Rectangle 21" class="cls-14" x="249.48" y="79.89" width="71.88" height="1.3"/><path id="Path_285" data-name="Path 285" class="cls-14" d="M314.24,80.2a7.4,7.4,0,1,1-7.4-7.4h0a7.4,7.4,0,0,1,7.4,7.4" transform="translate(0 0)"/><path id="Path_286" data-name="Path 286" class="cls-7" d="M309.63,82.3v1.35h-5.41V82.58L307,80c.64-.6.75-1,.75-1.32,0-.57-.39-.89-1.15-.89a1.72,1.72,0,0,0-1.48.71l-1.21-.78a3.33,3.33,0,0,1,2.85-1.33c1.6,0,2.66.82,2.66,2.12a2.89,2.89,0,0,1-1.2,2.26l-1.65,1.56Z" transform="translate(0 0)"/><path id="Path_287" data-name="Path 287" class="cls-11" d="M374.3,81.46c0,1.21-.93,2.31-3,2.31A5,5,0,0,1,368.6,83l.65-1.27a3.48,3.48,0,0,0,2,.64c.83,0,1.35-.34,1.35-.92s-.4-.88-1.35-.88h-.75V79.49L372,77.82H369V76.49h5v1.07l-1.62,1.84a2,2,0,0,1,1.95,2.06" transform="translate(0 0)"/><path id="Path_288" data-name="Path 288" class="cls-11" d="M351.58,56.91c0,.13-18,.23-40.2.23s-40.2-.1-40.2-.23,18-.24,40.2-.24,40.2.11,40.2.24" transform="translate(0 0)"/><path id="Path_289" data-name="Path 289" class="cls-2" d="M301.9,102.19l5.56-7.54,5.55,7.54Z" transform="translate(0 0)"/><path id="Path_290" data-name="Path 290" class="cls-11" d="M398.48,189c0-1.69-.08-64.66-.2-162.32l.2.2-185.35,0h0l.24-.24c0,59,0,114.51,0,162.31l-.21-.2,185.36.2-185.36.21h-.21V189c0-47.8,0-103.34,0-162.31v-.24h.26l185.34,0h.2v.2c-.12,97.66-.2,160.63-.2,162.31" transform="translate(0 0)"/><path id="Path_291" data-name="Path 291" class="cls-14" d="M259.32,120.1c0,.13-5.66.24-12.64.24s-12.63-.11-12.63-.24,5.66-.23,12.63-.23,12.64.1,12.64.23" transform="translate(0 0)"/><path id="Path_292" data-name="Path 292" class="cls-9" d="M285.26,140.5H237.51a6.48,6.48,0,0,1,0-13h47.75a6.48,6.48,0,0,1,0,13h0" transform="translate(0 0)"/><path id="Path_293" data-name="Path 293" class="cls-14" d="M347.67,120.1c0,.13-5.36.24-12,.24s-12-.11-12-.24,5.36-.23,12-.23,12,.1,12,.23" transform="translate(0 0)"/><path id="Path_294" data-name="Path 294" class="cls-14" d="M258.65,155.39c0,.13-5.36.24-12,.24s-12-.11-12-.24,5.36-.24,12-.24,12,.11,12,.24" transform="translate(0 0)"/><path id="Path_295" data-name="Path 295" class="cls-9" d="M372,140.5H324.22a6.48,6.48,0,0,1,0-13H372a6.48,6.48,0,1,1,0,13h0" transform="translate(0 0)"/><path id="Path_296" data-name="Path 296" class="cls-9" d="M373.73,176.32H237.86a6.48,6.48,0,0,1,0-12.95H373.73a6.48,6.48,0,1,1,0,12.95" transform="translate(0 0)"/><path id="Path_297" data-name="Path 297" class="cls-14" d="M410.87,28.52a13.46,13.46,0,1,1-13.45-13.45h0a13.45,13.45,0,0,1,13.45,13.45" transform="translate(0 0)"/><rect id="Rectangle_22" data-name="Rectangle 22" class="cls-7" x="391.7" y="26.74" width="12.08" height="2.7" transform="translate(96.64 289.48) rotate(-45)"/><rect id="Rectangle_23" data-name="Rectangle 23" class="cls-7" x="396.4" y="22.05" width="2.7" height="12.08" transform="translate(96.63 289.48) rotate(-45)"/></svg>