<svg xmlns="http://www.w3.org/2000/svg" xmlns:xlink="http://www.w3.org/1999/xlink" width="427" height="414" viewBox="0 0 427 414">
  <defs>
    <clipPath id="clip-path">
      <rect id="Rectangle_25" data-name="Rectangle 25" width="416.079" height="411.068" fill="none"/>
    </clipPath>
    <clipPath id="clip-path-3">
      <rect id="Rectangle_2" data-name="Rectangle 2" width="2.823" height="0.298" fill="none"/>
    </clipPath>
    <clipPath id="clip-path-6">
      <rect id="Rectangle_14" data-name="Rectangle 14" width="41.779" height="118.709" fill="none"/>
    </clipPath>
    <clipPath id="clip-path-8">
      <rect id="Rectangle_17" data-name="Rectangle 17" width="61.473" height="48.349" fill="none"/>
    </clipPath>
    <clipPath id="clip-study-image">
      <rect width="427" height="414"/>
    </clipPath>
  </defs>
  <g id="study-image" clip-path="url(#clip-study-image)">
    <g id="Group_21" data-name="Group 21" transform="translate(-10 -18)">
      <g id="Group_20" data-name="Group 20" transform="translate(15 18)" clip-path="url(#clip-path)">
        <rect id="Rectangle_1" data-name="Rectangle 1" width="90.775" height="117.713" transform="translate(0.251 18.556)" fill="#ebebeb"/>
        <g id="Group_5" data-name="Group 5">
          <g id="Group_4" data-name="Group 4" clip-path="url(#clip-path)">
            <path id="Path_1" data-name="Path 1" d="M6.779,118.254a.763.763,0,0,1,.453.068,1.445,1.445,0,0,1,.79,1.028,1.349,1.349,0,0,1-.129.956,1.634,1.634,0,0,1-.873.748,1.68,1.68,0,0,1-1.321-.043,2.24,2.24,0,0,1-1.038-1.058A3.365,3.365,0,0,1,5.01,116.7,3.436,3.436,0,0,1,6.4,115.412a2.125,2.125,0,0,1,.995-.216,2.008,2.008,0,0,1,1,.328,3.526,3.526,0,0,1,1.251,1.695,7.3,7.3,0,0,1,.433,2.136,7.93,7.93,0,0,1-1.046,4.4,28.24,28.24,0,0,1-2.717,3.617,10.673,10.673,0,0,0-2.057,3.564,4.972,4.972,0,0,0,.232,3.6,2.844,2.844,0,0,0,2.571,1.577,2.3,2.3,0,0,0,1.3-.41,1.787,1.787,0,0,0,.687-.984,2.407,2.407,0,0,0-.347-1.908,1.614,1.614,0,0,0-1-.73,1.124,1.124,0,0,0-.329-.031.363.363,0,0,1-.116-.008c0-.005.037-.013.114-.022a.971.971,0,0,1,.343,0,1.639,1.639,0,0,1,1.08.723,2.511,2.511,0,0,1,.413,2.017,1.961,1.961,0,0,1-.736,1.095,2.486,2.486,0,0,1-1.4.468,3.093,3.093,0,0,1-1.578-.4,3.033,3.033,0,0,1-1.216-1.275,5.207,5.207,0,0,1-.278-3.8,10.836,10.836,0,0,1,2.092-3.669,28.654,28.654,0,0,0,2.686-3.582,7.667,7.667,0,0,0,1.014-4.241,7.045,7.045,0,0,0-.408-2.049,3.258,3.258,0,0,0-1.136-1.568,1.718,1.718,0,0,0-1.731-.1,3.2,3.2,0,0,0-1.291,1.179,3.152,3.152,0,0,0-.368,3.034,2.051,2.051,0,0,0,.93.978,1.508,1.508,0,0,0,1.182.057,1.49,1.49,0,0,0,.806-.66,1.234,1.234,0,0,0,.139-.865,1.41,1.41,0,0,0-.7-1,1.738,1.738,0,0,0-.428-.122" transform="translate(-0.338 -10.357)" fill="#e0e0e0"/>
            <path id="Path_2" data-name="Path 2" d="M7.625,105a.766.766,0,0,1-.453-.067,1.449,1.449,0,0,1-.79-1.029,1.353,1.353,0,0,1,.128-.956,1.639,1.639,0,0,1,.874-.748,1.68,1.68,0,0,1,1.321.043A2.242,2.242,0,0,1,9.743,103.3a3.367,3.367,0,0,1-.349,3.259,3.436,3.436,0,0,1-1.388,1.284,2.125,2.125,0,0,1-.995.216,2.008,2.008,0,0,1-1-.328,3.526,3.526,0,0,1-1.251-1.695A7.275,7.275,0,0,1,4.33,103.9a7.93,7.93,0,0,1,1.046-4.4A28.241,28.241,0,0,1,8.092,95.88a10.673,10.673,0,0,0,2.057-3.564,4.972,4.972,0,0,0-.232-3.6,2.843,2.843,0,0,0-2.571-1.577,2.3,2.3,0,0,0-1.3.41,1.79,1.79,0,0,0-.687.984,2.407,2.407,0,0,0,.347,1.908,1.61,1.61,0,0,0,1,.73,1.124,1.124,0,0,0,.329.031.363.363,0,0,1,.116.008c0,.005-.037.013-.114.022a.972.972,0,0,1-.343,0,1.636,1.636,0,0,1-1.08-.723A2.511,2.511,0,0,1,5.2,88.486a1.961,1.961,0,0,1,.736-1.095,2.492,2.492,0,0,1,1.4-.468,3.1,3.1,0,0,1,1.578.4A3.033,3.033,0,0,1,10.135,88.6a5.207,5.207,0,0,1,.278,3.8A10.836,10.836,0,0,1,8.32,96.061a28.476,28.476,0,0,0-2.686,3.582,7.667,7.667,0,0,0-1.014,4.241,7.015,7.015,0,0,0,.408,2.049A3.258,3.258,0,0,0,6.164,107.5a1.718,1.718,0,0,0,1.731.1,3.2,3.2,0,0,0,1.291-1.179,3.152,3.152,0,0,0,.368-3.034,2.055,2.055,0,0,0-.93-.978,1.508,1.508,0,0,0-1.182-.057,1.49,1.49,0,0,0-.806.66,1.234,1.234,0,0,0-.139.865,1.41,1.41,0,0,0,.7,1,1.688,1.688,0,0,0,.428.122" transform="translate(-0.388 -7.815)" fill="#e0e0e0"/>
            <path id="Path_3" data-name="Path 3" d="M8.344,112.347a.923.923,0,1,1-.923-.923.922.922,0,0,1,.923.923" transform="translate(-0.584 -10.018)" fill="#e0e0e0"/>
            <path id="Path_4" data-name="Path 4" d="M8.786,85.325a.923.923,0,1,1-.923-.923.923.923,0,0,1,.923.923" transform="translate(-0.624 -7.589)" fill="#e0e0e0"/>
            <path id="Path_5" data-name="Path 5" d="M7.221,50.381a1.677,1.677,0,0,0,.428-.122,1.411,1.411,0,0,0,.7-1,1.238,1.238,0,0,0-.139-.866A1.485,1.485,0,0,0,7.4,47.73a1.509,1.509,0,0,0-1.184.058,2.06,2.06,0,0,0-.928.984,3.17,3.17,0,0,0,.369,3.041,3.2,3.2,0,0,0,1.291,1.181,1.716,1.716,0,0,0,1.733-.106,3.277,3.277,0,0,0,1.134-1.575,7.068,7.068,0,0,0,.406-2.052,7.7,7.7,0,0,0-1.013-4.248,28.775,28.775,0,0,0-2.686-3.593,10.87,10.87,0,0,1-2.092-3.678,5.241,5.241,0,0,1,.274-3.8,3.032,3.032,0,0,1,1.215-1.28,3.083,3.083,0,0,1,1.579-.4,2.483,2.483,0,0,1,1.407.469,1.961,1.961,0,0,1,.736,1.1,2.52,2.52,0,0,1-.412,2.02,1.638,1.638,0,0,1-1.08.726.93.93,0,0,1-.344,0A.355.355,0,0,1,7.7,36.55a.4.4,0,0,1,.116-.008,1.165,1.165,0,0,0,.33-.031,1.611,1.611,0,0,0,1-.734,2.418,2.418,0,0,0,.346-1.913,1.788,1.788,0,0,0-.687-.986,2.29,2.29,0,0,0-1.3-.411,2.843,2.843,0,0,0-2.572,1.587A5,5,0,0,0,4.7,37.667a10.672,10.672,0,0,0,2.057,3.571,28.305,28.305,0,0,1,2.717,3.628,7.963,7.963,0,0,1,1.045,4.41,7.28,7.28,0,0,1-.432,2.139,3.533,3.533,0,0,1-1.248,1.7,1.985,1.985,0,0,1-1,.33,2.088,2.088,0,0,1-1-.216,3.423,3.423,0,0,1-1.39-1.287A3.385,3.385,0,0,1,5.1,48.68a2.24,2.24,0,0,1,1.038-1.06,1.674,1.674,0,0,1,1.322-.046,1.641,1.641,0,0,1,.875.75,1.361,1.361,0,0,1,.128.958,1.453,1.453,0,0,1-.79,1.032.766.766,0,0,1-.453.067" transform="translate(-0.378 -2.9)" fill="#e0e0e0"/>
            <path id="Path_6" data-name="Path 6" d="M7.5,63.67a1.651,1.651,0,0,0-.429.123,1.409,1.409,0,0,0-.7,1,1.239,1.239,0,0,0,.139.866,1.5,1.5,0,0,0,.807.663A1.512,1.512,0,0,0,8.5,66.263a2.061,2.061,0,0,0,.927-.983,3.165,3.165,0,0,0-.369-3.041,3.2,3.2,0,0,0-1.291-1.182,1.716,1.716,0,0,0-1.733.107A3.277,3.277,0,0,0,4.9,62.739a7.038,7.038,0,0,0-.406,2.053A7.7,7.7,0,0,0,5.5,69.04a28.7,28.7,0,0,0,2.687,3.592,10.871,10.871,0,0,1,2.091,3.679,5.238,5.238,0,0,1-.274,3.8,3.034,3.034,0,0,1-1.215,1.28,3.082,3.082,0,0,1-1.578.4,2.488,2.488,0,0,1-1.407-.469,1.963,1.963,0,0,1-.736-1.1,2.516,2.516,0,0,1,.412-2.021,1.64,1.64,0,0,1,1.079-.725.982.982,0,0,1,.344,0c.076.01.116.017.114.023a.393.393,0,0,1-.116.008,1.126,1.126,0,0,0-.329.031,1.614,1.614,0,0,0-1,.733,2.419,2.419,0,0,0-.345,1.913,1.794,1.794,0,0,0,.688.987,2.28,2.28,0,0,0,1.3.41A2.842,2.842,0,0,0,9.791,80a4.992,4.992,0,0,0,.228-3.612,10.685,10.685,0,0,0-2.057-3.572,28.269,28.269,0,0,1-2.716-3.627A7.965,7.965,0,0,1,4.2,64.776a7.275,7.275,0,0,1,.433-2.14,3.533,3.533,0,0,1,1.248-1.7,2,2,0,0,1,1-.33,2.116,2.116,0,0,1,.995.215,3.443,3.443,0,0,1,1.39,1.288,3.385,3.385,0,0,1,.351,3.264,2.248,2.248,0,0,1-1.038,1.061,1.677,1.677,0,0,1-1.322.046,1.646,1.646,0,0,1-.875-.751,1.368,1.368,0,0,1-.128-.957,1.454,1.454,0,0,1,.791-1.032A.763.763,0,0,1,7.5,63.67" transform="translate(-0.377 -5.449)" fill="#e0e0e0"/>
            <path id="Path_7" data-name="Path 7" d="M8.786,58.215a.923.923,0,1,0-.923.925.925.925,0,0,0,.923-.925" transform="translate(-0.624 -5.151)" fill="#e0e0e0"/>
            <path id="Path_8" data-name="Path 8" d="M90.965,118.254a.763.763,0,0,1,.453.068,1.445,1.445,0,0,1,.79,1.028,1.353,1.353,0,0,1-.128.956,1.636,1.636,0,0,1-.874.748,1.68,1.68,0,0,1-1.321-.043,2.24,2.24,0,0,1-1.038-1.058A3.365,3.365,0,0,1,89.2,116.7a3.436,3.436,0,0,1,1.388-1.284,2.128,2.128,0,0,1,.995-.216,2.008,2.008,0,0,1,1,.328,3.526,3.526,0,0,1,1.251,1.695,7.274,7.274,0,0,1,.433,2.136,7.922,7.922,0,0,1-1.046,4.4,28.24,28.24,0,0,1-2.717,3.617,10.673,10.673,0,0,0-2.057,3.564,4.972,4.972,0,0,0,.232,3.6,2.844,2.844,0,0,0,2.571,1.577,2.3,2.3,0,0,0,1.3-.41,1.787,1.787,0,0,0,.687-.984,2.407,2.407,0,0,0-.347-1.908,1.614,1.614,0,0,0-1-.73,1.124,1.124,0,0,0-.329-.031.363.363,0,0,1-.116-.008c0-.005.037-.013.114-.022a.971.971,0,0,1,.343,0,1.639,1.639,0,0,1,1.08.723,2.511,2.511,0,0,1,.413,2.017,1.961,1.961,0,0,1-.736,1.095,2.483,2.483,0,0,1-1.4.468,3.1,3.1,0,0,1-1.578-.4,3.033,3.033,0,0,1-1.216-1.275,5.207,5.207,0,0,1-.278-3.8,10.836,10.836,0,0,1,2.092-3.669,28.476,28.476,0,0,0,2.686-3.582,7.667,7.667,0,0,0,1.014-4.241,7.015,7.015,0,0,0-.408-2.049,3.258,3.258,0,0,0-1.136-1.568,1.718,1.718,0,0,0-1.731-.1,3.2,3.2,0,0,0-1.291,1.179,3.152,3.152,0,0,0-.368,3.034,2.051,2.051,0,0,0,.93.978,1.508,1.508,0,0,0,1.182.057,1.49,1.49,0,0,0,.806-.66,1.234,1.234,0,0,0,.139-.865,1.41,1.41,0,0,0-.7-1,1.738,1.738,0,0,0-.428-.122" transform="translate(-7.908 -10.357)" fill="#e0e0e0"/>
            <path id="Path_9" data-name="Path 9" d="M91.811,105a.766.766,0,0,1-.453-.067,1.449,1.449,0,0,1-.79-1.029,1.349,1.349,0,0,1,.129-.956,1.634,1.634,0,0,1,.873-.748,1.68,1.68,0,0,1,1.321.043,2.242,2.242,0,0,1,1.038,1.057,3.367,3.367,0,0,1-.349,3.259,3.436,3.436,0,0,1-1.388,1.284,2.128,2.128,0,0,1-.995.216,2,2,0,0,1-1-.328,3.52,3.52,0,0,1-1.251-1.695,7.3,7.3,0,0,1-.433-2.136,7.93,7.93,0,0,1,1.046-4.4,28.241,28.241,0,0,1,2.717-3.617,10.673,10.673,0,0,0,2.057-3.564,4.972,4.972,0,0,0-.232-3.6,2.843,2.843,0,0,0-2.571-1.577,2.3,2.3,0,0,0-1.3.41,1.79,1.79,0,0,0-.687.984,2.407,2.407,0,0,0,.347,1.908,1.61,1.61,0,0,0,1,.73,1.124,1.124,0,0,0,.329.031.363.363,0,0,1,.116.008c0,.005-.037.013-.114.022a.972.972,0,0,1-.343,0A1.636,1.636,0,0,1,89.8,90.5a2.511,2.511,0,0,1-.413-2.017,1.961,1.961,0,0,1,.736-1.095,2.492,2.492,0,0,1,1.4-.468,3.1,3.1,0,0,1,1.578.4A3.033,3.033,0,0,1,94.321,88.6a5.207,5.207,0,0,1,.278,3.8,10.836,10.836,0,0,1-2.092,3.669,28.565,28.565,0,0,0-2.686,3.582,7.667,7.667,0,0,0-1.014,4.241,7.015,7.015,0,0,0,.408,2.049A3.258,3.258,0,0,0,90.35,107.5a1.718,1.718,0,0,0,1.731.1,3.2,3.2,0,0,0,1.291-1.179,3.152,3.152,0,0,0,.368-3.034,2.055,2.055,0,0,0-.93-.978,1.508,1.508,0,0,0-1.182-.057,1.49,1.49,0,0,0-.806.66,1.234,1.234,0,0,0-.139.865,1.41,1.41,0,0,0,.7,1,1.677,1.677,0,0,0,.428.122" transform="translate(-7.957 -7.815)" fill="#e0e0e0"/>
            <path id="Path_10" data-name="Path 10" d="M92.53,112.347a.923.923,0,1,1-.923-.923.922.922,0,0,1,.923.923" transform="translate(-8.154 -10.018)" fill="#e0e0e0"/>
            <path id="Path_11" data-name="Path 11" d="M92.972,85.325a.923.923,0,1,1-.923-.923.923.923,0,0,1,.923.923" transform="translate(-8.193 -7.589)" fill="#e0e0e0"/>
            <path id="Path_12" data-name="Path 12" d="M91.407,50.381a1.677,1.677,0,0,0,.428-.122,1.411,1.411,0,0,0,.7-1,1.238,1.238,0,0,0-.139-.866,1.485,1.485,0,0,0-.807-.663,1.509,1.509,0,0,0-1.184.058,2.06,2.06,0,0,0-.928.984,3.484,3.484,0,0,0,1.661,4.222,1.716,1.716,0,0,0,1.733-.106,3.277,3.277,0,0,0,1.134-1.575,7.069,7.069,0,0,0,.406-2.052A7.7,7.7,0,0,0,93.4,45.012a28.774,28.774,0,0,0-2.686-3.593,10.87,10.87,0,0,1-2.092-3.678,5.241,5.241,0,0,1,.274-3.8,3.032,3.032,0,0,1,1.215-1.28,3.083,3.083,0,0,1,1.579-.4,2.483,2.483,0,0,1,1.407.469,1.961,1.961,0,0,1,.736,1.1,2.52,2.52,0,0,1-.412,2.02,1.638,1.638,0,0,1-1.08.726.93.93,0,0,1-.344,0,.355.355,0,0,1-.114-.021A.4.4,0,0,1,92,36.542a1.162,1.162,0,0,0,.33-.031,1.611,1.611,0,0,0,1-.734,2.418,2.418,0,0,0,.346-1.913,1.785,1.785,0,0,0-.688-.986,2.285,2.285,0,0,0-1.3-.411,2.843,2.843,0,0,0-2.572,1.587,5.006,5.006,0,0,0-.228,3.612,10.672,10.672,0,0,0,2.057,3.571,28.305,28.305,0,0,1,2.717,3.628,7.963,7.963,0,0,1,1.045,4.41,7.279,7.279,0,0,1-.432,2.139,3.533,3.533,0,0,1-1.248,1.7,1.985,1.985,0,0,1-1,.33,2.088,2.088,0,0,1-1-.216,3.423,3.423,0,0,1-1.39-1.287,3.385,3.385,0,0,1-.35-3.264,2.24,2.24,0,0,1,1.037-1.06,1.674,1.674,0,0,1,1.322-.046,1.641,1.641,0,0,1,.875.75,1.361,1.361,0,0,1,.128.958,1.453,1.453,0,0,1-.79,1.032.766.766,0,0,1-.453.067" transform="translate(-7.948 -2.9)" fill="#e0e0e0"/>
            <path id="Path_13" data-name="Path 13" d="M91.683,63.67a1.661,1.661,0,0,0-.428.123,1.409,1.409,0,0,0-.7,1,1.239,1.239,0,0,0,.139.866,1.493,1.493,0,0,0,.807.663,1.509,1.509,0,0,0,1.184-.059,2.058,2.058,0,0,0,.928-.983,3.167,3.167,0,0,0-.369-3.041,3.2,3.2,0,0,0-1.291-1.182,1.716,1.716,0,0,0-1.733.107,3.279,3.279,0,0,0-1.134,1.574,7.069,7.069,0,0,0-.406,2.053,7.7,7.7,0,0,0,1.013,4.248,28.7,28.7,0,0,0,2.686,3.592,10.874,10.874,0,0,1,2.092,3.679,5.238,5.238,0,0,1-.274,3.8,3.034,3.034,0,0,1-1.215,1.28,3.083,3.083,0,0,1-1.579.4,2.49,2.49,0,0,1-1.407-.469,1.967,1.967,0,0,1-.736-1.1,2.523,2.523,0,0,1,.412-2.021,1.639,1.639,0,0,1,1.08-.725.976.976,0,0,1,.343,0c.077.01.116.017.115.023a.4.4,0,0,1-.116.008,1.13,1.13,0,0,0-.33.031,1.613,1.613,0,0,0-1,.733,2.419,2.419,0,0,0-.346,1.913,1.794,1.794,0,0,0,.688.987,2.285,2.285,0,0,0,1.3.41A2.844,2.844,0,0,0,93.978,80a5.006,5.006,0,0,0,.228-3.612,10.685,10.685,0,0,0-2.057-3.572,28.358,28.358,0,0,1-2.717-3.627,7.964,7.964,0,0,1-1.045-4.411,7.3,7.3,0,0,1,.432-2.14,3.539,3.539,0,0,1,1.248-1.7,2,2,0,0,1,1-.33,2.12,2.12,0,0,1,1,.215,3.443,3.443,0,0,1,1.39,1.288,3.385,3.385,0,0,1,.35,3.264,2.242,2.242,0,0,1-1.037,1.061,1.677,1.677,0,0,1-1.322.046,1.639,1.639,0,0,1-.875-.751,1.358,1.358,0,0,1-.128-.957,1.452,1.452,0,0,1,.789-1.032.766.766,0,0,1,.454-.068" transform="translate(-7.946 -5.449)" fill="#e0e0e0"/>
            <path id="Path_14" data-name="Path 14" d="M92.972,58.215a.923.923,0,1,0-.923.925.925.925,0,0,0,.923-.925" transform="translate(-8.193 -5.151)" fill="#e0e0e0"/>
            <path id="Path_15" data-name="Path 15" d="M41.429,142.187a1.661,1.661,0,0,0-.123-.428,1.409,1.409,0,0,0-1-.7,1.239,1.239,0,0,0-.866.139,1.493,1.493,0,0,0-.663.807,1.509,1.509,0,0,0,.059,1.184,2.054,2.054,0,0,0,.983.928,3.486,3.486,0,0,0,4.223-1.661,1.716,1.716,0,0,0-.107-1.733,3.279,3.279,0,0,0-1.574-1.134,7.069,7.069,0,0,0-2.053-.406,7.7,7.7,0,0,0-4.248,1.013,28.7,28.7,0,0,0-3.592,2.686,10.874,10.874,0,0,1-3.679,2.092,5.238,5.238,0,0,1-3.8-.274,3.034,3.034,0,0,1-1.28-1.215,3.083,3.083,0,0,1-.4-1.579,2.49,2.49,0,0,1,.469-1.407,1.967,1.967,0,0,1,1.1-.736,2.52,2.52,0,0,1,2.02.412,1.638,1.638,0,0,1,.726,1.08.95.95,0,0,1,0,.343q-.014.116-.022.115a.4.4,0,0,1-.008-.116,1.129,1.129,0,0,0-.031-.33,1.614,1.614,0,0,0-.733-1,2.419,2.419,0,0,0-1.913-.346,1.79,1.79,0,0,0-.987.688,2.285,2.285,0,0,0-.41,1.3,2.842,2.842,0,0,0,1.586,2.571,5.006,5.006,0,0,0,3.612.228,10.684,10.684,0,0,0,3.572-2.057,28.358,28.358,0,0,1,3.627-2.717,7.964,7.964,0,0,1,4.411-1.045,7.32,7.32,0,0,1,2.139.431,3.545,3.545,0,0,1,1.7,1.249,2,2,0,0,1,.33,1,2.109,2.109,0,0,1-.216,1,3.435,3.435,0,0,1-1.287,1.39,3.385,3.385,0,0,1-3.264.35,2.242,2.242,0,0,1-1.061-1.038,1.673,1.673,0,0,1-.045-1.322,1.634,1.634,0,0,1,.75-.875,1.358,1.358,0,0,1,.957-.128,1.453,1.453,0,0,1,1.032.79.763.763,0,0,1,.068.453" transform="translate(-2.095 -12.487)" fill="#e0e0e0"/>
            <path id="Path_16" data-name="Path 16" d="M69.808,141.912a.769.769,0,0,1-.069.453,1.447,1.447,0,0,1-1.032.79,1.356,1.356,0,0,1-.956-.128,1.635,1.635,0,0,1-.751-.875,1.67,1.67,0,0,1,.046-1.322,2.242,2.242,0,0,1,1.061-1.038,3.381,3.381,0,0,1,3.264.35,3.443,3.443,0,0,1,1.288,1.39,2.1,2.1,0,0,1,.215,1,2,2,0,0,1-.329,1,3.546,3.546,0,0,1-1.7,1.248,7.292,7.292,0,0,1-2.14.432,7.968,7.968,0,0,1-4.411-1.045,28.474,28.474,0,0,1-3.626-2.717,10.684,10.684,0,0,0-3.572-2.057,5,5,0,0,0-3.612.228,2.845,2.845,0,0,0-1.586,2.572,2.285,2.285,0,0,0,.41,1.3,1.794,1.794,0,0,0,.987.688,2.419,2.419,0,0,0,1.913-.346,1.613,1.613,0,0,0,.733-1,1.132,1.132,0,0,0,.031-.33.4.4,0,0,1,.008-.116c.005,0,.013.037.023.114a1,1,0,0,1,0,.344,1.64,1.64,0,0,1-.725,1.08,2.521,2.521,0,0,1-2.02.412,1.966,1.966,0,0,1-1.1-.736,2.49,2.49,0,0,1-.469-1.407,3.083,3.083,0,0,1,.4-1.579,3.039,3.039,0,0,1,1.28-1.215,5.236,5.236,0,0,1,3.8-.274,10.87,10.87,0,0,1,3.679,2.092,28.631,28.631,0,0,0,3.592,2.686,7.7,7.7,0,0,0,4.249,1.013,7.062,7.062,0,0,0,2.051-.406,3.284,3.284,0,0,0,1.576-1.135,1.716,1.716,0,0,0,.106-1.732,3.205,3.205,0,0,0-1.181-1.292,3.173,3.173,0,0,0-3.042-.369,2.056,2.056,0,0,0-.982.928,1.549,1.549,0,0,0,.6,1.991,1.242,1.242,0,0,0,.867.139,1.409,1.409,0,0,0,1-.7,1.71,1.71,0,0,0,.123-.428" transform="translate(-4.647 -12.489)" fill="#e0e0e0"/>
            <path id="Path_17" data-name="Path 17" d="M49.263,141.065a.923.923,0,1,0,.926.923.925.925,0,0,0-.926-.923" transform="translate(-4.346 -12.683)" fill="#e0e0e0"/>
            <path id="Path_18" data-name="Path 18" d="M81.407,141.065a.923.923,0,1,0,.925.923.925.925,0,0,0-.925-.923" transform="translate(-7.236 -12.683)" fill="#e0e0e0"/>
            <path id="Path_19" data-name="Path 19" d="M18.708,141.065a.923.923,0,1,0,.925.923.924.924,0,0,0-.925-.923" transform="translate(-1.599 -12.683)" fill="#e0e0e0"/>
            <path id="Path_20" data-name="Path 20" d="M41.429,27.62a1.661,1.661,0,0,0-.123-.428,1.409,1.409,0,0,0-1-.7,1.239,1.239,0,0,0-.866.139,1.547,1.547,0,0,0-.6,1.99,2.052,2.052,0,0,0,.983.929,3.169,3.169,0,0,0,3.041-.369,3.2,3.2,0,0,0,1.182-1.291,1.716,1.716,0,0,0-.107-1.733,3.279,3.279,0,0,0-1.574-1.134,7.068,7.068,0,0,0-2.053-.406,7.7,7.7,0,0,0-4.248,1.013,28.7,28.7,0,0,0-3.592,2.686,10.874,10.874,0,0,1-3.679,2.092,5.238,5.238,0,0,1-3.8-.274,3.034,3.034,0,0,1-1.28-1.215,3.083,3.083,0,0,1-.4-1.579,2.49,2.49,0,0,1,.469-1.407,1.967,1.967,0,0,1,1.1-.736,2.52,2.52,0,0,1,2.02.412,1.638,1.638,0,0,1,.726,1.08.95.95,0,0,1,0,.343q-.014.116-.022.115a.4.4,0,0,1-.008-.116,1.129,1.129,0,0,0-.031-.33,1.614,1.614,0,0,0-.733-1,2.419,2.419,0,0,0-1.913-.346,1.793,1.793,0,0,0-.987.687,2.29,2.29,0,0,0-.41,1.3A2.842,2.842,0,0,0,25.1,29.915a5.006,5.006,0,0,0,3.612.228,10.685,10.685,0,0,0,3.572-2.057,28.358,28.358,0,0,1,3.627-2.717,7.964,7.964,0,0,1,4.411-1.045,7.32,7.32,0,0,1,2.139.431A3.545,3.545,0,0,1,44.164,26a2,2,0,0,1,.33,1,2.109,2.109,0,0,1-.216,1,3.427,3.427,0,0,1-1.287,1.389,3.38,3.38,0,0,1-3.264.35A2.241,2.241,0,0,1,38.666,28.7a1.673,1.673,0,0,1-.045-1.322,1.634,1.634,0,0,1,.75-.875,1.358,1.358,0,0,1,.957-.128,1.454,1.454,0,0,1,1.032.789.766.766,0,0,1,.068.454" transform="translate(-2.095 -2.186)" fill="#e0e0e0"/>
            <path id="Path_21" data-name="Path 21" d="M69.808,27.344a.769.769,0,0,1-.069.453,1.447,1.447,0,0,1-1.032.79,1.356,1.356,0,0,1-.956-.128A1.632,1.632,0,0,1,67,27.584a1.67,1.67,0,0,1,.046-1.322,2.242,2.242,0,0,1,1.061-1.037,3.383,3.383,0,0,1,3.264.35,3.443,3.443,0,0,1,1.288,1.39,2.1,2.1,0,0,1,.215,1,2,2,0,0,1-.329,1,3.546,3.546,0,0,1-1.7,1.248,7.292,7.292,0,0,1-2.14.432,7.968,7.968,0,0,1-4.411-1.045,28.476,28.476,0,0,1-3.626-2.717,10.685,10.685,0,0,0-3.572-2.057,5.006,5.006,0,0,0-3.612.228,2.845,2.845,0,0,0-1.586,2.572,2.285,2.285,0,0,0,.41,1.3,1.794,1.794,0,0,0,.987.688,2.419,2.419,0,0,0,1.913-.346,1.611,1.611,0,0,0,.733-1,1.129,1.129,0,0,0,.031-.33.4.4,0,0,1,.008-.116c.005,0,.013.037.023.115a1,1,0,0,1,0,.343,1.64,1.64,0,0,1-.725,1.08,2.521,2.521,0,0,1-2.02.412,1.966,1.966,0,0,1-1.1-.736,2.49,2.49,0,0,1-.469-1.407,3.083,3.083,0,0,1,.4-1.579,3.039,3.039,0,0,1,1.28-1.215,5.236,5.236,0,0,1,3.8-.274,10.869,10.869,0,0,1,3.679,2.092,28.632,28.632,0,0,0,3.592,2.686,7.7,7.7,0,0,0,4.249,1.013,7.062,7.062,0,0,0,2.051-.406,3.288,3.288,0,0,0,1.576-1.134,1.718,1.718,0,0,0,.106-1.733A3.485,3.485,0,0,0,68.2,25.415a2.054,2.054,0,0,0-.982.929,1.548,1.548,0,0,0,.6,1.99,1.242,1.242,0,0,0,.867.139,1.409,1.409,0,0,0,1-.7,1.71,1.71,0,0,0,.123-.428" transform="translate(-4.647 -2.187)" fill="#e0e0e0"/>
            <path id="Path_22" data-name="Path 22" d="M49.263,26.5a.923.923,0,1,0,.926.923.925.925,0,0,0-.926-.923" transform="translate(-4.346 -2.382)" fill="#e0e0e0"/>
            <path id="Path_23" data-name="Path 23" d="M81.407,26.5a.923.923,0,1,0,.925.923.925.925,0,0,0-.925-.923" transform="translate(-7.236 -2.382)" fill="#e0e0e0"/>
            <path id="Path_24" data-name="Path 24" d="M18.708,26.5a.923.923,0,1,0,.925.923.924.924,0,0,0-.925-.923" transform="translate(-1.599 -2.382)" fill="#e0e0e0"/>
            <path id="Path_25" data-name="Path 25" d="M79.188,126.554s-.005-.152-.008-.444,0-.727-.008-1.294c0-1.143-.009-2.829-.015-5.019-.009-4.386-.021-10.79-.036-18.891-.016-16.19-.04-39.156-.067-66.284l.136.136-64.534.014h-.007l.149-.149c-.011,34.483-.021,66.356-.029,91.933l-.12-.12L61.6,126.5l13,.031,3.414.014c.773,0,1.177.013,1.177.013s-.387.009-1.151.013l-3.391.014-12.976.031-47.023.063h-.12v-.12c-.008-25.576-.018-57.449-.028-91.933v-.148h.156l64.534.013h.136v.136c-.027,27.165-.051,50.161-.067,66.373-.015,8.088-.027,14.482-.036,18.861-.006,2.179-.013,3.854-.016,4.992q0,.841-.007,1.28c0,.286-.008.428-.008.428" transform="translate(-1.304 -3.1)" fill="#e0e0e0"/>
            <path id="Path_26" data-name="Path 26" d="M98.7,20.472a20.353,20.353,0,0,0-2.367,1.312,26.274,26.274,0,0,0-4.757,4.468c-1.684,1.932-3.08,3.794-4.146,5.1-.53.656-.98,1.17-1.3,1.516a3.364,3.364,0,0,1-.543.5,3.477,3.477,0,0,1,.457-.572c.294-.367.717-.9,1.224-1.569,1.023-1.335,2.393-3.221,4.088-5.165a23.623,23.623,0,0,1,4.865-4.447,7.588,7.588,0,0,1,.992-.57l.419-.213c.133-.056.259-.1.37-.137a3.462,3.462,0,0,1,.7-.218" transform="translate(-7.694 -1.84)" fill="#e0e0e0"/>
            <path id="Path_27" data-name="Path 27" d="M99.02,149.021a3.526,3.526,0,0,1-.5-.549l-1.3-1.541c-1.1-1.294-2.667-3.046-4.5-4.878s-3.6-3.39-4.894-4.489c-.617-.516-1.134-.95-1.545-1.293a3.515,3.515,0,0,1-.55-.5,3.537,3.537,0,0,1,.621.406c.39.275.94.692,1.608,1.222a60.975,60.975,0,0,1,9.427,9.4c.532.666.951,1.215,1.228,1.6a3.584,3.584,0,0,1,.408.62" transform="translate(-7.708 -12.208)" fill="#e0e0e0"/>
            <path id="Path_28" data-name="Path 28" d="M0,148.864a3.481,3.481,0,0,1,.367-.639c.25-.4.637-.968,1.138-1.652a40.6,40.6,0,0,1,9.452-9.2c.7-.481,1.273-.854,1.682-1.092a3.439,3.439,0,0,1,.649-.349,3.586,3.586,0,0,1-.585.447c-.389.268-.945.664-1.623,1.166A48.084,48.084,0,0,0,1.674,146.7c-.52.664-.931,1.21-1.21,1.591a3.49,3.49,0,0,1-.462.572" transform="translate(0 -12.222)" fill="#e0e0e0"/>
            <path id="Path_29" data-name="Path 29" d="M.249,20.472a3.451,3.451,0,0,1,.543.483c.379.365.854.825,1.419,1.372,1.2,1.157,2.887,2.72,4.76,4.442s3.544,3.315,4.708,4.513c.582.6,1.045,1.09,1.353,1.442a3.384,3.384,0,0,1,.46.562,3.347,3.347,0,0,1-.543-.482L11.53,31.431c-1.2-1.157-2.888-2.721-4.762-4.443s-3.543-3.315-4.706-4.512c-.582-.6-1.046-1.089-1.354-1.442a3.377,3.377,0,0,1-.46-.562" transform="translate(-0.022 -1.841)" fill="#e0e0e0"/>
            <path id="Path_30" data-name="Path 30" d="M96.054,23.454c.082,0,.149,24.956.149,55.732s-.067,55.737-.149,55.737S95.9,109.973,95.9,79.186s.067-55.732.149-55.732" transform="translate(-8.623 -2.109)" fill="#e0e0e0"/>
            <path id="Path_31" data-name="Path 31" d="M86.437,23.156c0,.083-18.63.149-41.606.149s-41.611-.066-41.611-.149,18.628-.148,41.611-.148,41.606.066,41.606.148" transform="translate(-0.289 -2.069)" fill="#e0e0e0"/>
            <path id="Path_32" data-name="Path 32" d="M3.487,133.125c-.082,0-.149-24.552-.149-54.833s.067-54.838.149-54.838S3.637,48,3.637,78.292s-.067,54.833-.149,54.833" transform="translate(-0.3 -2.109)" fill="#e0e0e0"/>
            <path id="Path_33" data-name="Path 33" d="M87.949,146.2c0,.082-18.4.149-41.092.149s-41.1-.067-41.1-.149,18.4-.149,41.1-.149,41.092.067,41.092.149" transform="translate(-0.518 -13.132)" fill="#e0e0e0"/>
            <path id="Path_34" data-name="Path 34" d="M81.455,128.311s-.005-.159-.008-.464-.005-.76-.009-1.354c0-1.195-.012-2.959-.021-5.251-.012-4.59-.03-11.3-.052-19.783-.031-16.961-.074-41.04-.125-69.531l.134.135-69.813-.249.149-.149v.1c.106,36.2.2,69.686.284,96.737l-.121-.121,50.594-.078L76.5,128.3l3.686,0c.835,0,1.27.01,1.27.01s-.419.01-1.244.016l-3.664.025-14,.07-50.668.2h-.121v-.121c-.095-27.051-.212-60.542-.339-96.737v-.255h.15l69.814.278h.135v.135c0,28.527-.007,52.636-.01,69.618-.008,8.475-.015,15.17-.019,19.753-.005,2.282-.009,4.035-.012,5.225q-.005.88-.007,1.34c0,.3-.007.448-.007.448" transform="translate(-1.026 -2.834)" fill="#e0e0e0"/>
            <g id="Group_3" data-name="Group 3" transform="translate(10.496 34.318)" opacity="0.2">
              <g id="Group_2" data-name="Group 2">
                <g id="Group_1" data-name="Group 1" clip-path="url(#clip-path-3)">
                  <path id="Path_35" data-name="Path 35" d="M14.356,37.856a3.476,3.476,0,0,1-1.412.149,3.476,3.476,0,0,1-1.412-.149,3.476,3.476,0,0,1,1.412-.149,3.476,3.476,0,0,1,1.412.149" transform="translate(-11.533 -37.708)" fill="#e0e0e0"/>
                </g>
              </g>
            </g>
            <path id="Path_36" data-name="Path 36" d="M17.894,137.859c-.087.009-.172-.486-.149-1.079s.072-1.063.149-1.071.172.486.148,1.079-.071,1.063-.148,1.071" transform="translate(-1.595 -12.202)" fill="#e0e0e0"/>
            <path id="Path_37" data-name="Path 37" d="M15.4,137.891c-.087.009-.172-.486-.149-1.079s.072-1.063.149-1.071.172.486.148,1.079-.071,1.063-.148,1.071" transform="translate(-1.371 -12.205)" fill="#e0e0e0"/>
            <path id="Path_38" data-name="Path 38" d="M20.714,137.76c-.082,0-.165-.46-.185-1.032s.03-1.039.113-1.042.165.459.185,1.032-.031,1.039-.113,1.042" transform="translate(-1.845 -12.2)" fill="#e0e0e0"/>
            <path id="Path_39" data-name="Path 39" d="M23.3,137.76c-.082,0-.165-.46-.185-1.032s.03-1.039.113-1.042.165.459.185,1.032-.031,1.039-.113,1.042" transform="translate(-2.078 -12.2)" fill="#e0e0e0"/>
            <path id="Path_40" data-name="Path 40" d="M25.885,137.76c-.082,0-.165-.46-.185-1.032s.03-1.039.112-1.042.166.459.186,1.032-.031,1.039-.113,1.042" transform="translate(-2.31 -12.2)" fill="#e0e0e0"/>
            <path id="Path_41" data-name="Path 41" d="M28.471,137.76c-.082,0-.165-.46-.185-1.032s.03-1.039.112-1.042.166.459.186,1.032-.031,1.039-.113,1.042" transform="translate(-2.543 -12.2)" fill="#e0e0e0"/>
            <path id="Path_42" data-name="Path 42" d="M31.057,137.76c-.082,0-.165-.46-.185-1.032s.03-1.039.112-1.042.166.459.186,1.032-.031,1.039-.113,1.042" transform="translate(-2.775 -12.2)" fill="#e0e0e0"/>
            <path id="Path_43" data-name="Path 43" d="M33.643,137.76c-.082,0-.165-.46-.185-1.032s.03-1.039.112-1.042.166.459.186,1.032-.031,1.039-.113,1.042" transform="translate(-3.008 -12.2)" fill="#e0e0e0"/>
            <path id="Path_44" data-name="Path 44" d="M36.229,137.76c-.082,0-.165-.46-.185-1.032s.03-1.039.112-1.042.166.459.186,1.032-.031,1.039-.113,1.042" transform="translate(-3.24 -12.2)" fill="#e0e0e0"/>
            <path id="Path_45" data-name="Path 45" d="M38.814,137.76c-.082,0-.165-.46-.185-1.032s.03-1.039.112-1.042.166.459.186,1.032-.031,1.039-.113,1.042" transform="translate(-3.473 -12.2)" fill="#e0e0e0"/>
            <path id="Path_46" data-name="Path 46" d="M41.4,137.76c-.082,0-.165-.46-.185-1.032s.03-1.039.112-1.042.166.459.186,1.032-.031,1.039-.113,1.042" transform="translate(-3.705 -12.2)" fill="#e0e0e0"/>
            <path id="Path_47" data-name="Path 47" d="M43.986,137.76c-.082,0-.165-.46-.185-1.032s.03-1.039.112-1.042.166.459.186,1.032-.031,1.039-.113,1.042" transform="translate(-3.938 -12.2)" fill="#e0e0e0"/>
            <path id="Path_48" data-name="Path 48" d="M46.572,137.76c-.082,0-.165-.46-.185-1.032s.03-1.039.112-1.042.166.459.186,1.032-.031,1.039-.113,1.042" transform="translate(-4.17 -12.2)" fill="#e0e0e0"/>
            <path id="Path_49" data-name="Path 49" d="M49.158,137.76c-.082,0-.165-.46-.185-1.032s.03-1.039.112-1.042.166.459.186,1.032-.031,1.039-.113,1.042" transform="translate(-4.403 -12.2)" fill="#e0e0e0"/>
            <path id="Path_50" data-name="Path 50" d="M51.744,137.76c-.082,0-.166-.46-.186-1.032s.03-1.039.112-1.042.166.459.186,1.032-.031,1.039-.112,1.042" transform="translate(-4.635 -12.2)" fill="#e0e0e0"/>
            <path id="Path_51" data-name="Path 51" d="M54.329,137.76c-.082,0-.165-.46-.185-1.032s.03-1.039.112-1.042.166.459.186,1.032-.031,1.039-.113,1.042" transform="translate(-4.868 -12.2)" fill="#e0e0e0"/>
            <path id="Path_52" data-name="Path 52" d="M56.915,137.76c-.082,0-.165-.46-.185-1.032s.03-1.039.112-1.042.166.459.186,1.032-.031,1.039-.113,1.042" transform="translate(-5.1 -12.2)" fill="#e0e0e0"/>
            <path id="Path_53" data-name="Path 53" d="M59.5,137.76c-.082,0-.165-.46-.185-1.032s.03-1.039.113-1.042.165.459.185,1.032-.031,1.039-.113,1.042" transform="translate(-5.333 -12.2)" fill="#e0e0e0"/>
            <path id="Path_54" data-name="Path 54" d="M62.086,137.76c-.082,0-.165-.46-.185-1.032s.03-1.039.113-1.042.165.459.185,1.032-.031,1.039-.113,1.042" transform="translate(-5.565 -12.2)" fill="#e0e0e0"/>
            <path id="Path_55" data-name="Path 55" d="M64.672,137.76c-.082,0-.165-.46-.185-1.032s.03-1.039.113-1.042.165.459.185,1.032-.031,1.039-.113,1.042" transform="translate(-5.798 -12.2)" fill="#e0e0e0"/>
            <path id="Path_56" data-name="Path 56" d="M67.258,137.76c-.082,0-.165-.46-.185-1.032s.03-1.039.113-1.042.165.459.185,1.032-.031,1.039-.113,1.042" transform="translate(-6.03 -12.2)" fill="#e0e0e0"/>
            <path id="Path_57" data-name="Path 57" d="M69.844,137.76c-.082,0-.165-.46-.185-1.032s.03-1.039.112-1.042.166.459.186,1.032-.031,1.039-.113,1.042" transform="translate(-6.263 -12.2)" fill="#e0e0e0"/>
            <path id="Path_58" data-name="Path 58" d="M72.43,137.76c-.082,0-.165-.46-.185-1.032s.03-1.039.112-1.042.166.459.186,1.032-.031,1.039-.113,1.042" transform="translate(-6.495 -12.2)" fill="#e0e0e0"/>
            <path id="Path_59" data-name="Path 59" d="M75.016,137.76c-.083,0-.166-.46-.186-1.032s.03-1.039.112-1.042.166.459.186,1.032-.031,1.039-.112,1.042" transform="translate(-6.728 -12.2)" fill="#e0e0e0"/>
            <path id="Path_60" data-name="Path 60" d="M77.6,137.76c-.082,0-.165-.46-.185-1.032s.03-1.039.112-1.042.166.459.186,1.032-.031,1.039-.113,1.042" transform="translate(-6.96 -12.2)" fill="#e0e0e0"/>
            <path id="Path_61" data-name="Path 61" d="M80.187,137.76c-.082,0-.165-.46-.185-1.032s.03-1.039.112-1.042.166.459.186,1.032-.031,1.039-.113,1.042" transform="translate(-7.193 -12.2)" fill="#e0e0e0"/>
            <path id="Path_62" data-name="Path 62" d="M82.773,137.76c-.082,0-.165-.46-.185-1.032s.03-1.039.113-1.042.165.459.185,1.032-.031,1.039-.113,1.042" transform="translate(-7.425 -12.2)" fill="#e0e0e0"/>
            <path id="Path_63" data-name="Path 63" d="M85.359,137.76c-.082,0-.165-.46-.185-1.032s.03-1.039.112-1.042.166.459.186,1.032-.031,1.039-.113,1.042" transform="translate(-7.658 -12.2)" fill="#e0e0e0"/>
            <path id="Path_64" data-name="Path 64" d="M88.041,134.95a5.241,5.241,0,0,1-2.484,0,5.24,5.24,0,0,1,2.484,0" transform="translate(-7.693 -12.12)" fill="#e0e0e0"/>
            <path id="Path_65" data-name="Path 65" d="M88.041,132.071a5.241,5.241,0,0,1-2.484,0,5.24,5.24,0,0,1,2.484,0" transform="translate(-7.693 -11.861)" fill="#e0e0e0"/>
            <path id="Path_66" data-name="Path 66" d="M88.041,129.193a5.241,5.241,0,0,1-2.484,0,5.241,5.241,0,0,1,2.484,0" transform="translate(-7.693 -11.603)" fill="#e0e0e0"/>
            <path id="Path_67" data-name="Path 67" d="M88.041,126.314a5.241,5.241,0,0,1-2.484,0,5.272,5.272,0,0,1,2.484,0" transform="translate(-7.693 -11.344)" fill="#e0e0e0"/>
            <path id="Path_68" data-name="Path 68" d="M88.041,123.436a5.24,5.24,0,0,1-2.484,0,5.241,5.241,0,0,1,2.484,0" transform="translate(-7.693 -11.085)" fill="#e0e0e0"/>
            <path id="Path_69" data-name="Path 69" d="M88.041,120.558a5.241,5.241,0,0,1-2.484,0,5.241,5.241,0,0,1,2.484,0" transform="translate(-7.693 -10.826)" fill="#e0e0e0"/>
            <path id="Path_70" data-name="Path 70" d="M88.041,117.679a5.241,5.241,0,0,1-2.484,0,5.24,5.24,0,0,1,2.484,0" transform="translate(-7.693 -10.567)" fill="#e0e0e0"/>
            <path id="Path_71" data-name="Path 71" d="M88.041,114.8a5.24,5.24,0,0,1-2.484,0,5.24,5.24,0,0,1,2.484,0" transform="translate(-7.693 -10.309)" fill="#e0e0e0"/>
            <path id="Path_72" data-name="Path 72" d="M88.041,111.923a5.241,5.241,0,0,1-2.484,0,5.24,5.24,0,0,1,2.484,0" transform="translate(-7.693 -10.05)" fill="#e0e0e0"/>
            <path id="Path_73" data-name="Path 73" d="M88.041,109.044a5.24,5.24,0,0,1-2.484,0,5.24,5.24,0,0,1,2.484,0" transform="translate(-7.693 -9.791)" fill="#e0e0e0"/>
            <path id="Path_74" data-name="Path 74" d="M88.041,106.166a5.241,5.241,0,0,1-2.484,0,5.24,5.24,0,0,1,2.484,0" transform="translate(-7.693 -9.532)" fill="#e0e0e0"/>
            <path id="Path_75" data-name="Path 75" d="M88.041,103.287a5.241,5.241,0,0,1-2.484,0,5.272,5.272,0,0,1,2.484,0" transform="translate(-7.693 -9.273)" fill="#e0e0e0"/>
            <path id="Path_76" data-name="Path 76" d="M88.041,100.409a5.241,5.241,0,0,1-2.484,0,5.272,5.272,0,0,1,2.484,0" transform="translate(-7.693 -9.015)" fill="#e0e0e0"/>
            <path id="Path_77" data-name="Path 77" d="M88.041,97.531a5.24,5.24,0,0,1-2.484,0,5.241,5.241,0,0,1,2.484,0" transform="translate(-7.693 -8.756)" fill="#e0e0e0"/>
            <path id="Path_78" data-name="Path 78" d="M88.041,94.652a5.241,5.241,0,0,1-2.484,0,5.24,5.24,0,0,1,2.484,0" transform="translate(-7.693 -8.497)" fill="#e0e0e0"/>
            <path id="Path_79" data-name="Path 79" d="M88.041,91.774a5.241,5.241,0,0,1-2.484,0,5.24,5.24,0,0,1,2.484,0" transform="translate(-7.693 -8.238)" fill="#e0e0e0"/>
            <path id="Path_80" data-name="Path 80" d="M88.041,88.9a5.241,5.241,0,0,1-2.484,0,5.272,5.272,0,0,1,2.484,0" transform="translate(-7.693 -7.979)" fill="#e0e0e0"/>
            <path id="Path_81" data-name="Path 81" d="M88.041,86.017a5.241,5.241,0,0,1-2.484,0,5.24,5.24,0,0,1,2.484,0" transform="translate(-7.693 -7.721)" fill="#e0e0e0"/>
            <path id="Path_82" data-name="Path 82" d="M88.041,83.139a5.241,5.241,0,0,1-2.484,0,5.24,5.24,0,0,1,2.484,0" transform="translate(-7.693 -7.462)" fill="#e0e0e0"/>
            <path id="Path_83" data-name="Path 83" d="M88.041,80.26a5.24,5.24,0,0,1-2.484,0,5.241,5.241,0,0,1,2.484,0" transform="translate(-7.693 -7.203)" fill="#e0e0e0"/>
            <path id="Path_84" data-name="Path 84" d="M88.041,77.382a5.241,5.241,0,0,1-2.484,0,5.24,5.24,0,0,1,2.484,0" transform="translate(-7.693 -6.944)" fill="#e0e0e0"/>
            <path id="Path_85" data-name="Path 85" d="M88.041,74.5a5.241,5.241,0,0,1-2.484,0,5.241,5.241,0,0,1,2.484,0" transform="translate(-7.693 -6.685)" fill="#e0e0e0"/>
            <path id="Path_86" data-name="Path 86" d="M88.041,71.625a5.241,5.241,0,0,1-2.484,0,5.24,5.24,0,0,1,2.484,0" transform="translate(-7.693 -6.427)" fill="#e0e0e0"/>
            <path id="Path_87" data-name="Path 87" d="M88.041,68.747a5.24,5.24,0,0,1-2.484,0,5.241,5.241,0,0,1,2.484,0" transform="translate(-7.693 -6.168)" fill="#e0e0e0"/>
            <path id="Path_88" data-name="Path 88" d="M88.041,65.868a5.241,5.241,0,0,1-2.484,0,5.272,5.272,0,0,1,2.484,0" transform="translate(-7.693 -5.909)" fill="#e0e0e0"/>
            <path id="Path_89" data-name="Path 89" d="M88.041,62.99a5.241,5.241,0,0,1-2.484,0,5.272,5.272,0,0,1,2.484,0" transform="translate(-7.693 -5.65)" fill="#e0e0e0"/>
            <path id="Path_90" data-name="Path 90" d="M88.041,60.112a5.241,5.241,0,0,1-2.484,0,5.241,5.241,0,0,1,2.484,0" transform="translate(-7.693 -5.391)" fill="#e0e0e0"/>
            <path id="Path_91" data-name="Path 91" d="M88.041,57.233a5.241,5.241,0,0,1-2.484,0,5.241,5.241,0,0,1,2.484,0" transform="translate(-7.693 -5.133)" fill="#e0e0e0"/>
            <path id="Path_92" data-name="Path 92" d="M88.041,54.355a5.241,5.241,0,0,1-2.484,0,5.241,5.241,0,0,1,2.484,0" transform="translate(-7.693 -4.874)" fill="#e0e0e0"/>
            <path id="Path_93" data-name="Path 93" d="M88.041,51.476a5.241,5.241,0,0,1-2.484,0,5.272,5.272,0,0,1,2.484,0" transform="translate(-7.693 -4.615)" fill="#e0e0e0"/>
            <path id="Path_94" data-name="Path 94" d="M88.041,48.6a5.241,5.241,0,0,1-2.484,0,5.241,5.241,0,0,1,2.484,0" transform="translate(-7.693 -4.356)" fill="#e0e0e0"/>
            <path id="Path_95" data-name="Path 95" d="M88.041,45.72a5.241,5.241,0,0,1-2.484,0,5.272,5.272,0,0,1,2.484,0" transform="translate(-7.693 -4.097)" fill="#e0e0e0"/>
            <path id="Path_96" data-name="Path 96" d="M88.041,42.841a5.241,5.241,0,0,1-2.484,0,5.241,5.241,0,0,1,2.484,0" transform="translate(-7.693 -3.839)" fill="#e0e0e0"/>
            <path id="Path_97" data-name="Path 97" d="M88.041,39.963a5.241,5.241,0,0,1-2.484,0,5.272,5.272,0,0,1,2.484,0" transform="translate(-7.693 -3.58)" fill="#e0e0e0"/>
            <path id="Path_98" data-name="Path 98" d="M88.041,37.085a5.24,5.24,0,0,1-2.484,0,5.241,5.241,0,0,1,2.484,0" transform="translate(-7.693 -3.321)" fill="#e0e0e0"/>
            <path id="Path_99" data-name="Path 99" d="M88.041,34.206a5.241,5.241,0,0,1-2.484,0,5.241,5.241,0,0,1,2.484,0" transform="translate(-7.693 -3.062)" fill="#e0e0e0"/>
            <path id="Path_100" data-name="Path 100" d="M85.155,34.392a2.659,2.659,0,0,1-.149-1.228,2.651,2.651,0,0,1,.149-1.226,2.651,2.651,0,0,1,.149,1.226,2.659,2.659,0,0,1-.149,1.228" transform="translate(-7.643 -2.872)" fill="#e0e0e0"/>
            <path id="Path_101" data-name="Path 101" d="M82.412,34.392a2.659,2.659,0,0,1-.149-1.228,2.651,2.651,0,0,1,.149-1.226,2.651,2.651,0,0,1,.149,1.226,2.659,2.659,0,0,1-.149,1.228" transform="translate(-7.396 -2.872)" fill="#e0e0e0"/>
            <path id="Path_102" data-name="Path 102" d="M79.67,34.392a2.659,2.659,0,0,1-.149-1.228,2.651,2.651,0,0,1,.149-1.226,2.651,2.651,0,0,1,.149,1.226,2.659,2.659,0,0,1-.149,1.228" transform="translate(-7.15 -2.872)" fill="#e0e0e0"/>
            <path id="Path_103" data-name="Path 103" d="M76.928,34.392a2.659,2.659,0,0,1-.149-1.228,2.651,2.651,0,0,1,.149-1.226,2.651,2.651,0,0,1,.149,1.226,2.659,2.659,0,0,1-.149,1.228" transform="translate(-6.903 -2.872)" fill="#e0e0e0"/>
            <path id="Path_104" data-name="Path 104" d="M74.186,34.392a2.638,2.638,0,0,1-.15-1.228,2.631,2.631,0,0,1,.15-1.226,2.672,2.672,0,0,1,.148,1.226,2.68,2.68,0,0,1-.148,1.228" transform="translate(-6.657 -2.872)" fill="#e0e0e0"/>
            <path id="Path_105" data-name="Path 105" d="M71.443,34.392a2.659,2.659,0,0,1-.149-1.228,2.651,2.651,0,0,1,.149-1.226,2.651,2.651,0,0,1,.149,1.226,2.659,2.659,0,0,1-.149,1.228" transform="translate(-6.41 -2.872)" fill="#e0e0e0"/>
            <path id="Path_106" data-name="Path 106" d="M68.7,34.392a2.659,2.659,0,0,1-.149-1.228,2.651,2.651,0,0,1,.149-1.226,2.651,2.651,0,0,1,.149,1.226,2.659,2.659,0,0,1-.149,1.228" transform="translate(-6.164 -2.872)" fill="#e0e0e0"/>
            <path id="Path_107" data-name="Path 107" d="M65.959,34.392a2.659,2.659,0,0,1-.149-1.228,2.651,2.651,0,0,1,.149-1.226,2.651,2.651,0,0,1,.149,1.226,2.659,2.659,0,0,1-.149,1.228" transform="translate(-5.917 -2.872)" fill="#e0e0e0"/>
            <path id="Path_108" data-name="Path 108" d="M63.216,34.392a2.659,2.659,0,0,1-.149-1.228,2.651,2.651,0,0,1,.149-1.226,2.651,2.651,0,0,1,.149,1.226,2.659,2.659,0,0,1-.149,1.228" transform="translate(-5.67 -2.872)" fill="#e0e0e0"/>
            <path id="Path_109" data-name="Path 109" d="M60.474,34.392a2.659,2.659,0,0,1-.149-1.228,2.651,2.651,0,0,1,.149-1.226,2.658,2.658,0,0,1,.148,1.226,2.666,2.666,0,0,1-.148,1.228" transform="translate(-5.424 -2.872)" fill="#e0e0e0"/>
            <path id="Path_110" data-name="Path 110" d="M57.732,34.392a2.659,2.659,0,0,1-.149-1.228,2.651,2.651,0,0,1,.149-1.226,2.651,2.651,0,0,1,.149,1.226,2.659,2.659,0,0,1-.149,1.228" transform="translate(-5.177 -2.872)" fill="#e0e0e0"/>
            <path id="Path_111" data-name="Path 111" d="M54.99,34.392a2.652,2.652,0,0,1-.15-1.228,2.644,2.644,0,0,1,.15-1.226,2.672,2.672,0,0,1,.148,1.226,2.68,2.68,0,0,1-.148,1.228" transform="translate(-4.931 -2.872)" fill="#e0e0e0"/>
            <path id="Path_112" data-name="Path 112" d="M52.247,34.392a2.659,2.659,0,0,1-.149-1.228,2.651,2.651,0,0,1,.149-1.226,2.651,2.651,0,0,1,.149,1.226,2.659,2.659,0,0,1-.149,1.228" transform="translate(-4.684 -2.872)" fill="#e0e0e0"/>
            <path id="Path_113" data-name="Path 113" d="M49.505,34.392a2.659,2.659,0,0,1-.149-1.228,2.651,2.651,0,0,1,.149-1.226,2.651,2.651,0,0,1,.149,1.226,2.659,2.659,0,0,1-.149,1.228" transform="translate(-4.438 -2.872)" fill="#e0e0e0"/>
            <path id="Path_114" data-name="Path 114" d="M46.763,34.392a2.659,2.659,0,0,1-.149-1.228,2.651,2.651,0,0,1,.149-1.226,2.651,2.651,0,0,1,.149,1.226,2.659,2.659,0,0,1-.149,1.228" transform="translate(-4.191 -2.872)" fill="#e0e0e0"/>
            <path id="Path_115" data-name="Path 115" d="M44.02,34.392a2.659,2.659,0,0,1-.149-1.228,2.651,2.651,0,0,1,.149-1.226,2.651,2.651,0,0,1,.149,1.226,2.659,2.659,0,0,1-.149,1.228" transform="translate(-3.945 -2.872)" fill="#e0e0e0"/>
            <path id="Path_116" data-name="Path 116" d="M41.278,34.392a2.659,2.659,0,0,1-.149-1.228,2.651,2.651,0,0,1,.149-1.226,2.651,2.651,0,0,1,.149,1.226,2.659,2.659,0,0,1-.149,1.228" transform="translate(-3.698 -2.872)" fill="#e0e0e0"/>
            <path id="Path_117" data-name="Path 117" d="M38.536,34.392a2.659,2.659,0,0,1-.149-1.228,2.651,2.651,0,0,1,.149-1.226,2.651,2.651,0,0,1,.149,1.226,2.659,2.659,0,0,1-.149,1.228" transform="translate(-3.451 -2.872)" fill="#e0e0e0"/>
            <path id="Path_118" data-name="Path 118" d="M35.793,34.392a2.659,2.659,0,0,1-.149-1.228,2.651,2.651,0,0,1,.149-1.226,2.651,2.651,0,0,1,.149,1.226,2.659,2.659,0,0,1-.149,1.228" transform="translate(-3.205 -2.872)" fill="#e0e0e0"/>
            <path id="Path_119" data-name="Path 119" d="M33.051,34.392a2.659,2.659,0,0,1-.149-1.228,2.651,2.651,0,0,1,.149-1.226,2.651,2.651,0,0,1,.149,1.226,2.659,2.659,0,0,1-.149,1.228" transform="translate(-2.958 -2.872)" fill="#e0e0e0"/>
            <path id="Path_120" data-name="Path 120" d="M30.309,34.392a2.659,2.659,0,0,1-.149-1.228,2.651,2.651,0,0,1,.149-1.226,2.658,2.658,0,0,1,.148,1.226,2.666,2.666,0,0,1-.148,1.228" transform="translate(-2.712 -2.872)" fill="#e0e0e0"/>
            <path id="Path_121" data-name="Path 121" d="M27.567,34.392a2.659,2.659,0,0,1-.149-1.228,2.651,2.651,0,0,1,.149-1.226,2.651,2.651,0,0,1,.149,1.226,2.659,2.659,0,0,1-.149,1.228" transform="translate(-2.465 -2.872)" fill="#e0e0e0"/>
            <path id="Path_122" data-name="Path 122" d="M24.824,34.392a2.659,2.659,0,0,1-.149-1.228,2.651,2.651,0,0,1,.149-1.226,2.651,2.651,0,0,1,.149,1.226,2.659,2.659,0,0,1-.149,1.228" transform="translate(-2.219 -2.872)" fill="#e0e0e0"/>
            <path id="Path_123" data-name="Path 123" d="M22.082,34.392a2.659,2.659,0,0,1-.149-1.228,2.651,2.651,0,0,1,.149-1.226,2.651,2.651,0,0,1,.149,1.226,2.659,2.659,0,0,1-.149,1.228" transform="translate(-1.972 -2.872)" fill="#e0e0e0"/>
            <path id="Path_124" data-name="Path 124" d="M19.34,34.392a2.659,2.659,0,0,1-.149-1.228,2.651,2.651,0,0,1,.149-1.226,2.651,2.651,0,0,1,.149,1.226,2.659,2.659,0,0,1-.149,1.228" transform="translate(-1.725 -2.872)" fill="#e0e0e0"/>
            <path id="Path_125" data-name="Path 125" d="M16.6,34.392a2.659,2.659,0,0,1-.149-1.228,2.651,2.651,0,0,1,.149-1.226,2.651,2.651,0,0,1,.149,1.226,2.659,2.659,0,0,1-.149,1.228" transform="translate(-1.479 -2.872)" fill="#e0e0e0"/>
            <path id="Path_126" data-name="Path 126" d="M14.356,35.564a3.476,3.476,0,0,1-1.412.149,3.476,3.476,0,0,1-1.412-.149,3.476,3.476,0,0,1,1.412-.149,3.476,3.476,0,0,1,1.412.149" transform="translate(-1.037 -3.184)" fill="#e0e0e0"/>
            <path id="Path_127" data-name="Path 127" d="M14.356,40.149a3.476,3.476,0,0,1-1.412.149,3.476,3.476,0,0,1-1.412-.149A3.476,3.476,0,0,1,12.945,40a3.476,3.476,0,0,1,1.412.149" transform="translate(-1.037 -3.596)" fill="#e0e0e0"/>
            <path id="Path_128" data-name="Path 128" d="M14.356,42.442a3.476,3.476,0,0,1-1.412.149,3.476,3.476,0,0,1-1.412-.149,3.476,3.476,0,0,1,1.412-.149,3.476,3.476,0,0,1,1.412.149" transform="translate(-1.037 -3.803)" fill="#e0e0e0"/>
            <path id="Path_129" data-name="Path 129" d="M14.356,44.734a3.458,3.458,0,0,1-1.412.149,3.458,3.458,0,0,1-1.412-.149,3.486,3.486,0,0,1,1.412-.148,3.486,3.486,0,0,1,1.412.148" transform="translate(-1.037 -4.009)" fill="#e0e0e0"/>
            <path id="Path_130" data-name="Path 130" d="M14.356,47.027a3.476,3.476,0,0,1-1.412.149,3.476,3.476,0,0,1-1.412-.149,3.476,3.476,0,0,1,1.412-.149,3.476,3.476,0,0,1,1.412.149" transform="translate(-1.037 -4.215)" fill="#e0e0e0"/>
            <path id="Path_131" data-name="Path 131" d="M14.356,49.32a3.476,3.476,0,0,1-1.412.149,3.476,3.476,0,0,1-1.412-.149,3.476,3.476,0,0,1,1.412-.149,3.476,3.476,0,0,1,1.412.149" transform="translate(-1.037 -4.421)" fill="#e0e0e0"/>
            <path id="Path_132" data-name="Path 132" d="M14.356,51.613a3.476,3.476,0,0,1-1.412.149,3.476,3.476,0,0,1-1.412-.149,3.476,3.476,0,0,1,1.412-.149,3.476,3.476,0,0,1,1.412.149" transform="translate(-1.037 -4.627)" fill="#e0e0e0"/>
            <path id="Path_133" data-name="Path 133" d="M14.356,53.905a3.476,3.476,0,0,1-1.412.149,3.476,3.476,0,0,1-1.412-.149,3.476,3.476,0,0,1,1.412-.149,3.476,3.476,0,0,1,1.412.149" transform="translate(-1.037 -4.833)" fill="#e0e0e0"/>
            <path id="Path_134" data-name="Path 134" d="M14.356,56.2a3.476,3.476,0,0,1-1.412.149,3.476,3.476,0,0,1-1.412-.149,3.476,3.476,0,0,1,1.412-.149,3.476,3.476,0,0,1,1.412.149" transform="translate(-1.037 -5.039)" fill="#e0e0e0"/>
            <path id="Path_135" data-name="Path 135" d="M14.356,58.491a3.476,3.476,0,0,1-1.412.149,3.476,3.476,0,0,1-1.412-.149,3.476,3.476,0,0,1,1.412-.149,3.476,3.476,0,0,1,1.412.149" transform="translate(-1.037 -5.246)" fill="#e0e0e0"/>
            <path id="Path_136" data-name="Path 136" d="M14.356,60.784a3.476,3.476,0,0,1-1.412.149,3.476,3.476,0,0,1-1.412-.149,3.476,3.476,0,0,1,1.412-.149,3.476,3.476,0,0,1,1.412.149" transform="translate(-1.037 -5.452)" fill="#e0e0e0"/>
            <path id="Path_137" data-name="Path 137" d="M14.356,63.076a3.476,3.476,0,0,1-1.412.149,3.476,3.476,0,0,1-1.412-.149,3.476,3.476,0,0,1,1.412-.149,3.476,3.476,0,0,1,1.412.149" transform="translate(-1.037 -5.658)" fill="#e0e0e0"/>
            <path id="Path_138" data-name="Path 138" d="M14.356,65.369a3.476,3.476,0,0,1-1.412.149,3.476,3.476,0,0,1-1.412-.149,3.476,3.476,0,0,1,1.412-.149,3.476,3.476,0,0,1,1.412.149" transform="translate(-1.037 -5.864)" fill="#e0e0e0"/>
            <path id="Path_139" data-name="Path 139" d="M14.356,67.662a3.476,3.476,0,0,1-1.412.149,3.476,3.476,0,0,1-1.412-.149,3.476,3.476,0,0,1,1.412-.149,3.476,3.476,0,0,1,1.412.149" transform="translate(-1.037 -6.07)" fill="#e0e0e0"/>
            <path id="Path_140" data-name="Path 140" d="M14.356,69.954a3.458,3.458,0,0,1-1.412.149,3.458,3.458,0,0,1-1.412-.149,3.486,3.486,0,0,1,1.412-.148,3.486,3.486,0,0,1,1.412.148" transform="translate(-1.037 -6.276)" fill="#e0e0e0"/>
            <path id="Path_141" data-name="Path 141" d="M14.356,72.247a3.476,3.476,0,0,1-1.412.149,3.476,3.476,0,0,1-1.412-.149,3.476,3.476,0,0,1,1.412-.149,3.476,3.476,0,0,1,1.412.149" transform="translate(-1.037 -6.482)" fill="#e0e0e0"/>
            <path id="Path_142" data-name="Path 142" d="M14.356,74.54a3.476,3.476,0,0,1-1.412.149,3.476,3.476,0,0,1-1.412-.149,3.486,3.486,0,0,1,1.412-.148,3.486,3.486,0,0,1,1.412.148" transform="translate(-1.037 -6.689)" fill="#e0e0e0"/>
            <path id="Path_143" data-name="Path 143" d="M14.356,76.833a3.476,3.476,0,0,1-1.412.149,3.476,3.476,0,0,1-1.412-.149,3.476,3.476,0,0,1,1.412-.149,3.476,3.476,0,0,1,1.412.149" transform="translate(-1.037 -6.895)" fill="#e0e0e0"/>
            <path id="Path_144" data-name="Path 144" d="M14.356,79.125a3.476,3.476,0,0,1-1.412.149,3.476,3.476,0,0,1-1.412-.149,3.476,3.476,0,0,1,1.412-.149,3.476,3.476,0,0,1,1.412.149" transform="translate(-1.037 -7.101)" fill="#e0e0e0"/>
            <path id="Path_145" data-name="Path 145" d="M14.356,81.418a3.476,3.476,0,0,1-1.412.149,3.476,3.476,0,0,1-1.412-.149,3.476,3.476,0,0,1,1.412-.149,3.476,3.476,0,0,1,1.412.149" transform="translate(-1.037 -7.307)" fill="#e0e0e0"/>
            <path id="Path_146" data-name="Path 146" d="M14.356,83.711a3.476,3.476,0,0,1-1.412.149,3.476,3.476,0,0,1-1.412-.149,3.476,3.476,0,0,1,1.412-.149,3.476,3.476,0,0,1,1.412.149" transform="translate(-1.037 -7.513)" fill="#e0e0e0"/>
            <path id="Path_147" data-name="Path 147" d="M14.356,86a3.476,3.476,0,0,1-1.412.149A3.476,3.476,0,0,1,11.533,86a3.476,3.476,0,0,1,1.412-.149A3.476,3.476,0,0,1,14.356,86" transform="translate(-1.037 -7.719)" fill="#e0e0e0"/>
            <path id="Path_148" data-name="Path 148" d="M14.356,88.3a3.476,3.476,0,0,1-1.412.149,3.476,3.476,0,0,1-1.412-.149,3.476,3.476,0,0,1,1.412-.149,3.476,3.476,0,0,1,1.412.149" transform="translate(-1.037 -7.925)" fill="#e0e0e0"/>
            <path id="Path_149" data-name="Path 149" d="M14.356,90.589a3.476,3.476,0,0,1-1.412.149,3.476,3.476,0,0,1-1.412-.149,3.476,3.476,0,0,1,1.412-.149,3.476,3.476,0,0,1,1.412.149" transform="translate(-1.037 -8.132)" fill="#e0e0e0"/>
            <path id="Path_150" data-name="Path 150" d="M14.356,92.882a3.476,3.476,0,0,1-1.412.149,3.476,3.476,0,0,1-1.412-.149,3.476,3.476,0,0,1,1.412-.149,3.476,3.476,0,0,1,1.412.149" transform="translate(-1.037 -8.338)" fill="#e0e0e0"/>
            <path id="Path_151" data-name="Path 151" d="M14.356,95.174a3.458,3.458,0,0,1-1.412.149,3.458,3.458,0,0,1-1.412-.149,3.485,3.485,0,0,1,1.412-.148,3.485,3.485,0,0,1,1.412.148" transform="translate(-1.037 -8.544)" fill="#e0e0e0"/>
            <path id="Path_152" data-name="Path 152" d="M14.356,97.467a3.476,3.476,0,0,1-1.412.149,3.476,3.476,0,0,1-1.412-.149,3.476,3.476,0,0,1,1.412-.149,3.476,3.476,0,0,1,1.412.149" transform="translate(-1.037 -8.75)" fill="#e0e0e0"/>
            <path id="Path_153" data-name="Path 153" d="M14.356,99.76a3.476,3.476,0,0,1-1.412.149,3.476,3.476,0,0,1-1.412-.149,3.476,3.476,0,0,1,1.412-.149,3.476,3.476,0,0,1,1.412.149" transform="translate(-1.037 -8.956)" fill="#e0e0e0"/>
            <path id="Path_154" data-name="Path 154" d="M14.356,102.053a3.476,3.476,0,0,1-1.412.149,3.476,3.476,0,0,1-1.412-.149,3.476,3.476,0,0,1,1.412-.149,3.476,3.476,0,0,1,1.412.149" transform="translate(-1.037 -9.162)" fill="#e0e0e0"/>
            <path id="Path_155" data-name="Path 155" d="M14.356,104.345a3.476,3.476,0,0,1-1.412.149,3.476,3.476,0,0,1-1.412-.149,3.476,3.476,0,0,1,1.412-.149,3.476,3.476,0,0,1,1.412.149" transform="translate(-1.037 -9.368)" fill="#e0e0e0"/>
            <path id="Path_156" data-name="Path 156" d="M14.356,106.638a3.476,3.476,0,0,1-1.412.149,3.476,3.476,0,0,1-1.412-.149,3.476,3.476,0,0,1,1.412-.149,3.476,3.476,0,0,1,1.412.149" transform="translate(-1.037 -9.575)" fill="#e0e0e0"/>
            <path id="Path_157" data-name="Path 157" d="M14.356,108.931a3.476,3.476,0,0,1-1.412.149,3.476,3.476,0,0,1-1.412-.149,3.476,3.476,0,0,1,1.412-.149,3.476,3.476,0,0,1,1.412.149" transform="translate(-1.037 -9.781)" fill="#e0e0e0"/>
            <path id="Path_158" data-name="Path 158" d="M14.356,111.223a3.457,3.457,0,0,1-1.412.149,3.457,3.457,0,0,1-1.412-.149,3.486,3.486,0,0,1,1.412-.148,3.486,3.486,0,0,1,1.412.148" transform="translate(-1.037 -9.987)" fill="#e0e0e0"/>
            <path id="Path_159" data-name="Path 159" d="M14.356,113.516a3.476,3.476,0,0,1-1.412.149,3.476,3.476,0,0,1-1.412-.149,3.476,3.476,0,0,1,1.412-.149,3.476,3.476,0,0,1,1.412.149" transform="translate(-1.037 -10.193)" fill="#e0e0e0"/>
            <path id="Path_160" data-name="Path 160" d="M14.356,115.809a3.476,3.476,0,0,1-1.412.149,3.476,3.476,0,0,1-1.412-.149,3.486,3.486,0,0,1,1.412-.148,3.486,3.486,0,0,1,1.412.148" transform="translate(-1.037 -10.399)" fill="#e0e0e0"/>
            <path id="Path_161" data-name="Path 161" d="M14.356,118.1a3.476,3.476,0,0,1-1.412.149,3.476,3.476,0,0,1-1.412-.149,3.476,3.476,0,0,1,1.412-.149,3.476,3.476,0,0,1,1.412.149" transform="translate(-1.037 -10.605)" fill="#e0e0e0"/>
            <path id="Path_162" data-name="Path 162" d="M14.356,120.394a3.458,3.458,0,0,1-1.412.149,3.458,3.458,0,0,1-1.412-.149,3.486,3.486,0,0,1,1.412-.148,3.486,3.486,0,0,1,1.412.148" transform="translate(-1.037 -10.812)" fill="#e0e0e0"/>
            <path id="Path_163" data-name="Path 163" d="M14.356,122.687a3.476,3.476,0,0,1-1.412.149,3.476,3.476,0,0,1-1.412-.149,3.476,3.476,0,0,1,1.412-.149,3.476,3.476,0,0,1,1.412.149" transform="translate(-1.037 -11.018)" fill="#e0e0e0"/>
            <path id="Path_164" data-name="Path 164" d="M14.356,124.98a3.476,3.476,0,0,1-1.412.149,3.476,3.476,0,0,1-1.412-.149,3.485,3.485,0,0,1,1.412-.148,3.485,3.485,0,0,1,1.412.148" transform="translate(-1.037 -11.224)" fill="#e0e0e0"/>
            <path id="Path_165" data-name="Path 165" d="M14.356,127.273a3.476,3.476,0,0,1-1.412.149,3.476,3.476,0,0,1-1.412-.149,3.476,3.476,0,0,1,1.412-.149,3.476,3.476,0,0,1,1.412.149" transform="translate(-1.037 -11.43)" fill="#e0e0e0"/>
            <path id="Path_166" data-name="Path 166" d="M14.356,129.565a3.477,3.477,0,0,1-1.412.149,3.477,3.477,0,0,1-1.412-.149,3.476,3.476,0,0,1,1.412-.149,3.476,3.476,0,0,1,1.412.149" transform="translate(-1.037 -11.636)" fill="#e0e0e0"/>
            <path id="Path_167" data-name="Path 167" d="M14.356,131.858a3.477,3.477,0,0,1-1.412.149,3.477,3.477,0,0,1-1.412-.149,3.486,3.486,0,0,1,1.412-.148,3.486,3.486,0,0,1,1.412.148" transform="translate(-1.037 -11.842)" fill="#e0e0e0"/>
            <path id="Path_168" data-name="Path 168" d="M14.356,134.151a3.457,3.457,0,0,1-1.412.149,3.457,3.457,0,0,1-1.412-.149A3.486,3.486,0,0,1,12.945,134a3.486,3.486,0,0,1,1.412.148" transform="translate(-1.037 -12.048)" fill="#e0e0e0"/>
            <rect id="Rectangle_3" data-name="Rectangle 3" width="64.104" height="91.982" transform="translate(13.408 31.525)" fill="#fff"/>
            <path id="Path_169" data-name="Path 169" d="M14.579,45.978C25.459,58.924,38.285,72.517,48.713,85.83L14.63,94.938Z" transform="translate(-1.311 -4.134)" fill="#f5f5f5"/>
            <path id="Path_170" data-name="Path 170" d="M14.691,96.713l.038,34.24,64.469-.5L78.954,82.82Q46.737,89.358,14.691,96.713" transform="translate(-1.321 -7.447)" fill="#fafafa"/>
            <rect id="Rectangle_4" data-name="Rectangle 4" width="64.457" height="67.191" transform="translate(126.054 0.019)" fill="#e0e0e0"/>
            <rect id="Rectangle_5" data-name="Rectangle 5" width="64.457" height="67.191" transform="translate(121.689 0.019)" fill="#455a64"/>
            <rect id="Rectangle_6" data-name="Rectangle 6" width="64.497" height="67.231" transform="translate(121.669 -0.001)" fill="#f5f5f5"/>
            <rect id="Rectangle_7" data-name="Rectangle 7" width="47.127" height="49.126" transform="translate(130.354 9.053)" fill="#fff"/>
            <path id="Path_171" data-name="Path 171" d="M142.382,64.285a7.674,7.674,0,0,1-1.163,1.352c-.753.794-1.81,1.869-3,3.037s-2.275,2.208-3.078,2.947a7.563,7.563,0,0,1-1.362,1.134,7.543,7.543,0,0,1,1.157-1.346c.753-.795,1.813-1.872,3-3.043s2.281-2.213,3.084-2.952a7.393,7.393,0,0,1,1.356-1.129" transform="translate(-12.028 -5.78)" fill="#e0e0e0"/>
            <path id="Path_172" data-name="Path 172" d="M195.015,64.152a7.713,7.713,0,0,1,1.352,1.163c.794.753,1.869,1.81,3.037,3s2.208,2.276,2.947,3.08a7.42,7.42,0,0,1,1.134,1.361,7.5,7.5,0,0,1-1.346-1.157c-.795-.753-1.872-1.813-3.043-3s-2.213-2.281-2.952-3.084a7.394,7.394,0,0,1-1.129-1.356" transform="translate(-17.534 -5.768)" fill="#e0e0e0"/>
            <path id="Path_173" data-name="Path 173" d="M194.874,9.253A7.715,7.715,0,0,1,196.037,7.9c.753-.795,1.81-1.869,3-3.037s2.276-2.208,3.079-2.947A7.526,7.526,0,0,1,203.473.783a7.505,7.505,0,0,1-1.157,1.346c-.753.795-1.813,1.872-3,3.043s-2.281,2.213-3.084,2.952a7.393,7.393,0,0,1-1.356,1.129" transform="translate(-17.521 -0.07)" fill="#e0e0e0"/>
            <path id="Path_174" data-name="Path 174" d="M142.253,9.373A7.714,7.714,0,0,1,140.9,8.21c-.795-.753-1.869-1.81-3.037-3s-2.208-2.275-2.947-3.08A7.468,7.468,0,0,1,133.783.774a7.554,7.554,0,0,1,1.346,1.157c.795.753,1.872,1.813,3.043,3s2.213,2.281,2.952,3.084a7.4,7.4,0,0,1,1.129,1.356" transform="translate(-12.028 -0.069)" fill="#e0e0e0"/>
            <path id="Path_175" data-name="Path 175" d="M190.21,59.052a2.034,2.034,0,0,1-.01-.238c0-.168-.006-.394-.011-.686,0-.616-.012-1.5-.021-2.652-.011-2.327-.027-5.713-.047-10.012-.023-8.6-.055-20.861-.093-35.537l.182.181-46.994.027h0l.208-.208c-.011,18.031-.021,34.9-.03,49.126l-.178-.179,34.029.092,9.559.046,2.529.021.653.01a2.125,2.125,0,0,1,.228.01,1.5,1.5,0,0,1-.207.01l-.634.01-2.495.021-9.518.046-34.144.092h-.179v-.179c-.009-14.226-.019-31.095-.03-49.126V9.717h.213l46.994.027h.182v.182c-.038,14.724-.07,27.021-.093,35.654-.02,4.281-.036,7.653-.047,9.971-.009,1.135-.016,2.009-.021,2.617,0,.284-.008.5-.011.666a1.664,1.664,0,0,1-.01.218" transform="translate(-12.858 -0.874)" fill="#e0e0e0"/>
            <path id="Path_176" data-name="Path 176" d="M159.3,48.616a10.426,10.426,0,0,1-.463-13.713c1.31-1.5,3.052-2.6,4.265-4.183,2.627-3.426,2.59-8.821,6.246-11.117,2.667-1.675,6.5-.719,8.445,1.756a8.942,8.942,0,0,1,.845,8.956c-.933,2.13-2.556,3.94-3.222,6.168-.681,2.278-.292,4.774-1,7.044C173.562,46.27,170.661,48,167.968,49a12.085,12.085,0,0,1-8.669-.384" transform="translate(-14.07 -1.687)" fill="#f5f5f5"/>
            <path id="Path_177" data-name="Path 177" d="M172.332,26.7a8.518,8.518,0,0,1-.456,1.3c-.315.827-.812,2.009-1.462,3.452a96.52,96.52,0,0,1-5.825,10.913,96.483,96.483,0,0,1-7.181,10.075c-1,1.225-1.84,2.2-2.441,2.846a8.6,8.6,0,0,1-.959.987,8.3,8.3,0,0,1,.834-1.094c.562-.682,1.361-1.68,2.333-2.925a116.98,116.98,0,0,0,7.055-10.111,116.766,116.766,0,0,0,5.913-10.816c.683-1.423,1.221-2.584,1.582-3.39a8.584,8.584,0,0,1,.608-1.234" transform="translate(-13.847 -2.4)" fill="#e0e0e0"/>
            <path id="Path_178" data-name="Path 178" d="M163.428,36.052a15.843,15.843,0,0,1,.378,2.485c.186,1.55.417,3.712.655,6.153l-.315-.161,1.016-.6c2.355-1.374,4.5-2.6,6.063-3.465A19.767,19.767,0,0,1,173.8,39.14a19.449,19.449,0,0,1-2.422,1.587c-1.524.934-3.645,2.2-6,3.573l-1.017.592-.285.166-.03-.328c-.227-2.442-.407-4.609-.518-6.167a15.83,15.83,0,0,1-.1-2.511" transform="translate(-14.692 -3.242)" fill="#e0e0e0"/>
            <path id="Path_179" data-name="Path 179" d="M176.337,31.781a7.744,7.744,0,0,1-1.588.89c-1,.5-2.4,1.166-3.958,1.877l-.485.221-.253.115-.044-.274c-.246-1.569-.444-2.971-.567-3.983a6.711,6.711,0,0,1-.117-1.642,6.7,6.7,0,0,1,.4,1.6c.2,1,.446,2.393.7,3.961l-.3-.158.484-.222c1.556-.711,2.974-1.333,4.01-1.764a7.8,7.8,0,0,1,1.713-.618" transform="translate(-15.222 -2.606)" fill="#e0e0e0"/>
            <rect id="Rectangle_8" data-name="Rectangle 8" width="9.405" height="44.381" transform="translate(258.235 362.838)" fill="#ebebeb"/>
            <rect id="Rectangle_9" data-name="Rectangle 9" width="9.404" height="44.381" transform="translate(338.15 362.838)" fill="#ebebeb"/>
            <rect id="Rectangle_10" data-name="Rectangle 10" width="118.638" height="10.975" transform="translate(242.68 307.043)" fill="#ebebeb"/>
            <path id="Path_180" data-name="Path 180" d="M381.28,394.813l-106.69.231V349.436H381.28Z" transform="translate(-24.689 -31.419)" fill="#ebebeb"/>
            <path id="Path_181" data-name="Path 181" d="M385.293,349.415c0,.117-26.56.213-59.317.213s-59.321-.1-59.321-.213,26.555-.214,59.321-.214,59.317.1,59.317.214" transform="translate(-23.975 -31.397)" fill="#e0e0e0"/>
            <path id="Path_182" data-name="Path 182" d="M380.927,399.529c0,.118-23.71.213-52.951.213s-52.955-.095-52.955-.213,23.705-.213,52.955-.213,52.951.095,52.951.213" transform="translate(-24.728 -35.903)" fill="#e0e0e0"/>
            <path id="Path_183" data-name="Path 183" d="M373.331,386.45s-.009-.182-.015-.524-.008-.856-.015-1.514c-.008-1.341-.019-3.3-.035-5.836-.018-5.081-.044-12.461-.076-21.721l.14.14-89.089.073h-.005l.213-.213c0,10.281,0,20.258-.006,29.6l-.207-.207,63.723.1,18.621.058,5,.026,1.3.014c.293,0,.45.013.45.013s-.138.009-.424.013l-1.274.014-4.958.026-18.574.058-63.865.1h-.207v-.207c0-9.338,0-19.315-.007-29.6v-.214h.219l89.089.074h.141v.14c-.033,9.3-.058,16.7-.076,21.8-.015,2.523-.026,4.471-.035,5.805-.006.647-.011,1.142-.015,1.49s-.015.5-.015.5" transform="translate(-25.537 -32.066)" fill="#e0e0e0"/>
            <path id="Path_184" data-name="Path 184" d="M287.8,385.128a14.723,14.723,0,0,1-3.406,3.655,14.723,14.723,0,0,1,3.406-3.655" transform="translate(-25.57 -34.627)" fill="#e0e0e0"/>
            <path id="Path_185" data-name="Path 185" d="M287.788,360.759a16.191,16.191,0,0,1-3.53-3.875,16.191,16.191,0,0,1,3.53,3.875" transform="translate(-25.558 -32.088)" fill="#e0e0e0"/>
            <path id="Path_186" data-name="Path 186" d="M381.916,356.977a7.753,7.753,0,0,1-1.94,2.055,12.162,12.162,0,0,1-2.221,1.734,7.752,7.752,0,0,1,1.94-2.055,12.161,12.161,0,0,1,2.221-1.734" transform="translate(-33.964 -32.096)" fill="#e0e0e0"/>
            <path id="Path_187" data-name="Path 187" d="M381.76,389.014a18.319,18.319,0,0,1-4-3.882,18.319,18.319,0,0,1,4,3.882" transform="translate(-33.964 -34.627)" fill="#e0e0e0"/>
            <path id="Path_188" data-name="Path 188" d="M369.677,382.953s-.008-.134-.013-.384-.008-.631-.014-1.109c-.007-.987-.018-2.422-.032-4.284-.016-3.738-.041-9.179-.072-16.057l.13.13-81.558.084h0l.213-.214c0,7.5,0,14.822,0,21.834l-.208-.208,58.2.095,17.13.059,4.616.028,1.2.013c.271,0,.417.014.417.014s-.127.009-.39.014l-1.175.014-4.57.027-17.081.059-58.346.095h-.208v-.208c0-7.012,0-14.329,0-21.834v-.213h.217l81.558.083h.131v.13c-.031,6.91-.055,12.378-.072,16.134-.014,1.849-.025,3.275-.032,4.255-.005.469-.01.828-.014,1.086s-.013.359-.013.359" transform="translate(-25.886 -32.45)" fill="#e0e0e0"/>
            <path id="Path_189" data-name="Path 189" d="M340.222,370.768a8.667,8.667,0,0,0-2.19-1,7.047,7.047,0,0,0-2.165-.336h-6a6.915,6.915,0,0,0-4.783,1.849,3.927,3.927,0,0,0-.716.866,2.467,2.467,0,0,0,.234,2.935c.772.724,2.348.371,2.478-.679a2.606,2.606,0,0,0,2.765,2.454,3.507,3.507,0,0,0,2.952-2.561,2.343,2.343,0,0,0,4.664.354c.741.966,1.837,1.867,3.1,1.457A2.237,2.237,0,0,0,342,374.506a3.6,3.6,0,0,0-1.776-3.738" transform="translate(-29.131 -33.217)" fill="#e0e0e0"/>
            <path id="Path_190" data-name="Path 190" d="M331.233,369.4a8.4,8.4,0,0,0-3.855,5.3c-.051,0-.089-.4.033-1.027a5.979,5.979,0,0,1,2.856-3.924c.56-.309.948-.395.966-.348" transform="translate(-29.431 -33.213)" fill="#ebebeb"/>
            <path id="Path_191" data-name="Path 191" d="M334.089,369.68a13.357,13.357,0,0,1-.5,4.728,13.357,13.357,0,0,1,.5-4.728" transform="translate(-29.987 -33.239)" fill="#ebebeb"/>
            <path id="Path_192" data-name="Path 192" d="M337.328,369.6c.027-.044.34.082.7.477a3.743,3.743,0,0,1,.845,1.847,6.735,6.735,0,0,1,.012,2c-.07.5-.152.805-.21.8s-.083-.319-.091-.82a12.511,12.511,0,0,0-.13-1.911,4.648,4.648,0,0,0-.663-1.737c-.263-.4-.5-.608-.458-.661" transform="translate(-30.329 -33.231)" fill="#ebebeb"/>
            <rect id="Rectangle_11" data-name="Rectangle 11" width="73.104" height="8.563" transform="translate(266.606 377.782)" fill="#ebebeb"/>
            <path id="Path_193" data-name="Path 193" d="M347.845,325.167v11.027H300.431a5.513,5.513,0,0,1,0-11.027" transform="translate(-26.517 -29.236)" fill="#e0e0e0"/>
            <path id="Path_194" data-name="Path 194" d="M351.215,334.111H335.179a2.777,2.777,0,0,1-2.778-2.778v-.849a2.778,2.778,0,0,1,2.778-2.778h16.037Z" transform="translate(-29.887 -29.465)" fill="#ebebeb"/>
            <path id="Path_195" data-name="Path 195" d="M347.845,313.052v11.027H300.431a5.513,5.513,0,0,1,0-11.027Z" transform="translate(-26.517 -28.147)" fill="#ebebeb"/>
            <path id="Path_196" data-name="Path 196" d="M351.215,322H335.179a2.778,2.778,0,0,1-2.778-2.778v-.848a2.777,2.777,0,0,1,2.778-2.778h16.037Z" transform="translate(-29.887 -28.376)" fill="#f5f5f5"/>
            <path id="Path_197" data-name="Path 197" d="M314.705,293.618l-7.53,17.687h4.846l3.345-9.447Z" transform="translate(-27.619 -26.4)" fill="#e0e0e0"/>
            <path id="Path_198" data-name="Path 198" d="M338.444,276.031l2.909,33.692H316.742l-2.7-33.692Z" transform="translate(-28.236 -24.819)" fill="#f5f5f5"/>
            <path id="Path_199" data-name="Path 199" d="M336.394,278.952l2.548,28.22-18.474.243-2.5-28.627Z" transform="translate(-28.59 -25.066)" fill="#fafafa"/>
            <path id="Path_200" data-name="Path 200" d="M332.9,283.26l1.449,19.419H324.5l-1.739-19.419Z" transform="translate(-29.02 -25.469)" fill="#e0e0e0"/>
          </g>
        </g>
        <g id="Group_7" data-name="Group 7">
          <g id="Group_6" data-name="Group 6" clip-path="url(#clip-path)">
            <path id="Path_201" data-name="Path 201" d="M401.5,447.969c0,.131-85.562.237-191.082.237-105.558,0-191.1-.106-191.1-.237s85.543-.237,191.1-.237c105.52,0,191.082.106,191.082.237" transform="translate(-1.736 -40.256)" fill="#263238"/>
          </g>
        </g>
        <g id="Group_12" data-name="Group 12">
          <g id="Group_11" data-name="Group 11" clip-path="url(#clip-path)">
            <path id="Path_202" data-name="Path 202" d="M433,221.211c-10.755,5.571-19,15.162-24.93,25.723s-9.752,22.148-13.537,33.653l-3.313,59.332c12.514-21.288,22.557-46.313,25.27-70.857l-8.327-.742c5.583-.852,10.27-4.9,13.252-9.694s4.517-10.328,6.015-15.774l-10.159,1.511A37.652,37.652,0,0,0,433,221.211" transform="translate(-35.175 -19.89)" fill="#455a64"/>
            <g id="Group_10" data-name="Group 10" transform="translate(356.045 201.321)" opacity="0.3">
              <g id="Group_9" data-name="Group 9">
                <g id="Group_8" data-name="Group 8" clip-path="url(#clip-path-6)">
                  <path id="Path_203" data-name="Path 203" d="M433,221.211c-10.755,5.571-19,15.162-24.93,25.723s-9.752,22.148-13.537,33.653l-3.313,59.332c12.514-21.288,22.557-46.313,25.27-70.857l-8.327-.742c5.583-.852,10.27-4.9,13.252-9.694s4.517-10.328,6.015-15.774l-10.159,1.511A37.652,37.652,0,0,0,433,221.211" transform="translate(-391.22 -221.211)"/>
                </g>
              </g>
            </g>
            <path id="Path_204" data-name="Path 204" d="M386.527,353.336s-27.161-32.508-26.847-63.542h10.971s-11.917-7.837-10.974-12.226,1.257-21,1.257-21l10.031,2.507s-7.524-3.761-8.464-9.717,2.194-33.542,2.194-33.542,12.225,12.852,15.988,26.019,13.635,28.526,10.735,68.651-4.892,42.853-4.892,42.853" transform="translate(-32.335 -19.404)" fill="#455a64"/>
            <path id="Path_205" data-name="Path 205" d="M404.314,359.9s29.426-19.6,35.963-44.622l-8.821-2.4s11.3-3.693,11.5-7.428,3.585-17.161,3.585-17.161l-8.614-.178s6.872-1.379,8.931-5.961,5.574-27.446,5.574-27.446-12.64,7.658-18.546,17.42-17.2,19.951-23.651,52.844-5.919,34.932-5.919,34.932" transform="translate(-36.352 -22.901)" fill="#455a64"/>
            <path id="Path_206" data-name="Path 206" d="M373.349,246.959a1.925,1.925,0,0,1,.1.338l.236,1c.2.908.49,2.2.858,3.858.375,1.675.813,3.729,1.286,6.121s1.045,5.108,1.6,8.128c1.161,6.028,2.387,13.235,3.65,21.251,1.223,8.023,2.446,16.863,3.533,26.166,1.065,9.308,1.891,18.2,2.531,26.288.6,8.1,1.05,15.392,1.294,21.525.154,3.065.226,5.841.3,8.278s.127,4.536.144,6.252c.019,1.695.034,3.021.045,3.952,0,.432,0,.773,0,1.027a.176.176,0,1,1-.048,0c-.012-.255-.027-.594-.046-1.027-.032-.93-.076-2.255-.134-3.949-.045-1.716-.115-3.813-.224-6.248s-.2-5.208-.372-8.272c-.287-6.129-.772-13.418-1.4-21.506-.663-8.085-1.5-16.966-2.566-26.268-1.086-9.3-2.294-18.133-3.494-26.155-1.238-8.015-2.429-15.224-3.548-21.256-.529-3.021-1.068-5.744-1.525-8.138s-.86-4.454-1.208-6.135c-.33-1.662-.59-2.963-.771-3.875-.079-.426-.142-.76-.189-1.011a1.869,1.869,0,0,1-.048-.348" transform="translate(-33.568 -22.205)" fill="#263238"/>
            <path id="Path_207" data-name="Path 207" d="M379.542,381.3s-24.855-28.2-32.572-45.25l5.825-2.489c-4.223.7-8.549-1.118-11.824-3.874s-5.679-6.382-8.037-9.954l7.675-1.3a28.536,28.536,0,0,1-16.769-12.99c9.057,1.489,17.251,6.464,24,12.681a119.478,119.478,0,0,1,14.544,16.853,57.4,57.4,0,0,1,5.649,9.286c4.176,8.634,11.521,26.676,11.506,37.032" transform="translate(-29.117 -27.464)" fill="#455a64"/>
            <path id="Path_208" data-name="Path 208" d="M440.017,272.742a1.46,1.46,0,0,1-.117.287c-.1.207-.224.477-.383.818L438,276.975c-1.334,2.707-3.224,6.644-5.509,11.531s-4.931,10.742-7.766,17.287c-2.809,6.555-5.8,13.8-8.781,21.477-2.961,7.684-5.623,15.062-7.954,21.8-2.306,6.75-4.3,12.86-5.885,18.015s-2.848,9.338-3.68,12.237c-.42,1.425-.749,2.543-.983,3.334l-.267.864a1.506,1.506,0,0,1-.106.29,1.471,1.471,0,0,1,.06-.3c.056-.222.129-.511.221-.876.213-.8.513-1.922.9-3.358.779-2.916,1.981-7.116,3.538-12.285s3.507-11.3,5.792-18.058c2.311-6.755,4.963-14.144,7.926-21.833,2.98-7.68,5.987-14.93,8.822-21.481,2.859-6.541,5.53-12.388,7.862-17.256s4.262-8.789,5.648-11.471l1.6-3.088.426-.8a1.487,1.487,0,0,1,.159-.264" transform="translate(-35.701 -24.523)" fill="#263238"/>
            <path id="Path_209" data-name="Path 209" d="M385.564,397.313a2.241,2.241,0,0,1-.116-.519c-.063-.394-.143-.889-.239-1.5-.095-.652-.215-1.447-.387-2.366s-.327-1.971-.576-3.121c-.445-2.309-1.083-5.036-1.9-8.034-.84-2.991-1.87-6.25-3.127-9.608-1.277-3.353-2.657-6.48-4-9.28-1.371-2.788-2.7-5.257-3.888-7.283-.572-1.028-1.147-1.922-1.629-2.722s-.915-1.48-1.274-2.03c-.329-.521-.6-.946-.81-1.282a.267.267,0,1,1,.079-.055c.232.325.525.733.885,1.234.384.536.843,1.2,1.343,1.991s1.1,1.674,1.695,2.694c1.233,2.011,2.592,4.472,3.992,7.262,1.374,2.8,2.773,5.937,4.055,9.3,1.262,3.373,2.285,6.651,3.105,9.661.793,3.018,1.4,5.763,1.8,8.087.229,1.157.367,2.216.509,3.142s.241,1.726.307,2.383c.062.613.112,1.113.152,1.511a2.245,2.245,0,0,1,.021.53" transform="translate(-33.03 -31.389)" fill="#263238"/>
            <rect id="Rectangle_15" data-name="Rectangle 15" width="54.399" height="11.097" transform="translate(330.932 359.291)" fill="#ff2a2a"/>
            <path id="Path_210" data-name="Path 210" d="M369.322,406.98l5.884,37.325h32.871l5.485-37.325Z" transform="translate(-33.206 -36.592)" fill="#ff2a2a"/>
            <path id="Path_211" data-name="Path 211" d="M415.191,406.957c0,.131-10.29.237-22.982.237s-22.984-.106-22.984-.237,10.289-.237,22.984-.237,22.982.106,22.982.237" transform="translate(-33.198 -36.569)" fill="#263238"/>
          </g>
        </g>
        <g id="Group_17" data-name="Group 17">
          <g id="Group_16" data-name="Group 16" clip-path="url(#clip-path)">
            <path id="Path_212" data-name="Path 212" d="M131.813,95.231c.885-4.44,4.026-6.806,8.206-8.548a14.121,14.121,0,0,1,12.99,1.236c2.525,1.671,4.585,4.206,7.5,5.009,4.808,1.322,10.084-2.561,14.73-.75a6.433,6.433,0,0,1-2.229,12.425c3.142.916,4.385,5.229,2.774,8.078s-5.224,4.124-8.474,3.737-6.177-2.148-8.751-4.17-4.914-4.347-7.639-6.159-5.973-3.1-9.222-2.711c-4.4.531-7.967,4.109-9.672,8.2s-1.86,8.641-1.814,13.072.266,8.923-.763,13.233c-.121.506-.318,1.077-.8,1.262-.7.268-1.361-.453-1.761-1.089a65.044,65.044,0,0,1-9.011-23.632c-.823-4.858-1-9.5,1.416-13.793s9.012-7.777,12.518-5.4" transform="translate(-10.549 -7.701)" fill="#263238"/>
            <path id="Path_213" data-name="Path 213" d="M125.35,116.883l.929,45.234c.174,8.447,4.415,17.182,17.757,16.3,11.519-1.64,11.819-9.717,11.763-19.735h0s12.619-1.449,13.275-13.983c.317-6.057-.046-18.586-.506-29.916a23.379,23.379,0,0,0-22.434-22.4l-1.21-.048c-13.078.241-20.178,11.482-19.575,24.548" transform="translate(-11.267 -8.302)" fill="#ffbe9d"/>
            <path id="Path_214" data-name="Path 214" d="M157.217,164.695a30.317,30.317,0,0,1-16.136-5.479s3.558,9.882,16.116,9.252Z" transform="translate(-12.685 -14.315)" fill="#eb996e"/>
            <path id="Path_215" data-name="Path 215" d="M167.608,130.681a1.791,1.791,0,0,1-1.8,1.737,1.714,1.714,0,0,1-1.781-1.688,1.794,1.794,0,0,1,1.8-1.739,1.716,1.716,0,0,1,1.783,1.69" transform="translate(-14.748 -11.598)" fill="#263238"/>
            <path id="Path_216" data-name="Path 216" d="M168.913,123.443c-.231.225-1.548-.834-3.476-.906-1.924-.1-3.377.835-3.578.592-.1-.109.145-.521.778-.946a4.921,4.921,0,0,1,2.876-.762,4.721,4.721,0,0,1,2.755,1.013c.574.478.758.908.644,1.008" transform="translate(-14.551 -10.917)" fill="#263238"/>
            <path id="Path_217" data-name="Path 217" d="M147.985,129.822a1.793,1.793,0,0,1-1.8,1.737,1.714,1.714,0,0,1-1.781-1.688,1.794,1.794,0,0,1,1.8-1.739,1.716,1.716,0,0,1,1.783,1.69" transform="translate(-12.984 -11.521)" fill="#263238"/>
            <path id="Path_218" data-name="Path 218" d="M148.084,123.007c-.233.225-1.551-.834-3.477-.906-1.923-.1-3.377.835-3.578.592-.1-.109.143-.521.779-.945a4.915,4.915,0,0,1,2.875-.763A4.726,4.726,0,0,1,147.438,122c.572.479.758.909.646,1.009" transform="translate(-12.678 -10.878)" fill="#263238"/>
            <path id="Path_219" data-name="Path 219" d="M155.814,137.627a12.73,12.73,0,0,1,3.153-.44c.494-.031.964-.11,1.06-.443a2.507,2.507,0,0,0-.27-1.472q-.622-1.814-1.306-3.805c-1.807-5.416-3.1-9.861-2.877-9.932s1.862,4.261,3.669,9.677q.651,2,1.244,3.825a2.855,2.855,0,0,1,.177,1.942,1.232,1.232,0,0,1-.837.686,3.377,3.377,0,0,1-.841.084,12.55,12.55,0,0,1-3.173-.123" transform="translate(-13.986 -10.927)" fill="#263238"/>
            <path id="Path_220" data-name="Path 220" d="M148.789,114.773c-.212.516-2.125.191-4.4.373-2.275.137-4.125.726-4.406.244-.126-.23.212-.71.969-1.189a7.675,7.675,0,0,1,6.707-.47c.816.368,1.219.8,1.127,1.041" transform="translate(-12.584 -10.176)" fill="#263238"/>
            <path id="Path_221" data-name="Path 221" d="M168.431,117.273c-.357.424-1.665-.083-3.262-.168-1.592-.141-2.96.177-3.252-.294-.127-.228.1-.657.709-1.048a4.731,4.731,0,0,1,5.249.373c.546.471.714.93.555,1.138" transform="translate(-14.555 -10.352)" fill="#263238"/>
            <path id="Path_222" data-name="Path 222" d="M125.224,129.505c-.211-.1-8.516-2.892-8.583,5.692s8.563,6.882,8.579,6.636,0-12.328,0-12.328" transform="translate(-10.487 -11.598)" fill="#ffbe9d"/>
            <path id="Path_223" data-name="Path 223" d="M122.84,138.833c-.037-.027-.15.1-.4.218a1.5,1.5,0,0,1-1.119.014c-.9-.34-1.655-1.786-1.685-3.333a4.947,4.947,0,0,1,.436-2.138,1.729,1.729,0,0,1,1.134-1.139.762.762,0,0,1,.879.417c.114.241.057.412.1.428.024.021.186-.143.119-.5a.953.953,0,0,0-.334-.541,1.131,1.131,0,0,0-.825-.226,2.1,2.1,0,0,0-1.573,1.319,5.074,5.074,0,0,0-.538,2.389c.041,1.73.914,3.356,2.151,3.724a1.6,1.6,0,0,0,1.37-.217c.268-.209.314-.4.285-.417" transform="translate(-10.702 -11.871)" fill="#eb996e"/>
            <path id="Path_224" data-name="Path 224" d="M169.044,102.913a16.375,16.375,0,0,0-5.023-6.274,27.94,27.94,0,0,0-15.969-6.44,22.762,22.762,0,0,0-16.2,5.392,24.024,24.024,0,0,0-7.082,11.856,35.3,35.3,0,0,0-.638,13.9,10.606,10.606,0,0,0,2.1,5.684c.847.959,2.342,1.629,3.387.891a3.422,3.422,0,0,0,1.077-1.938c1.914-6.55,3.826-13.6,1.657-20.068a19.684,19.684,0,0,1,6.122-5.191,10.2,10.2,0,0,1,7.831-.754c3.776,1.33,5.981,5.141,8.928,7.85a18.127,18.127,0,0,0,15.946,4.267Z" transform="translate(-11.125 -8.107)" fill="#263238"/>
            <path id="Path_225" data-name="Path 225" d="M156.3,144.938a8.573,8.573,0,0,1-.959,2.233,2.88,2.88,0,0,1-1.962,1.319,2.578,2.578,0,0,1-2.255-1.043,4.127,4.127,0,0,1-.773-2.436c-.015-.784.28-1.739,1.049-1.882a1.952,1.952,0,0,1,.957.147l4.189,1.384" transform="translate(-13.518 -12.867)" fill="#eb996e"/>
            <path id="Path_226" data-name="Path 226" d="M154.836,148.362a5.916,5.916,0,0,1-2.194-.125,3.119,3.119,0,0,1-1.744-1.386,3.285,3.285,0,0,1-.23-2.665,2.9,2.9,0,0,1,.316-.633c.151-.18.121-.17.3-.156.169.034.447.142.671.213l.688.228c.9.3,1.707.552,2.392.757a7.42,7.42,0,0,0,2.265.521,7.472,7.472,0,0,0-2.093-1.008c-.664-.268-1.457-.574-2.342-.9l-.679-.252a7.63,7.63,0,0,0-.766-.258.954.954,0,0,0-.6.057,1.125,1.125,0,0,0-.427.386,3.568,3.568,0,0,0-.407.8,3.83,3.83,0,0,0,.34,3.255,3.5,3.5,0,0,0,2.181,1.537,3.3,3.3,0,0,0,1.772-.048c.4-.134.579-.285.562-.324" transform="translate(-13.466 -12.828)" fill="#263238"/>
            <path id="Path_227" data-name="Path 227" d="M179.24,95.016a2.265,2.265,0,0,1,.088.578,5.659,5.659,0,0,1-.178,1.67,7.86,7.86,0,0,1-3.787,4.745c-2.305,1.352-5.676,1.552-8.981.559-3.356-.951-6.544-3.077-9.913-5.054-3.352-1.975-6.9-3.487-10.27-3.349a13.44,13.44,0,0,0-8.118,3.239,17.949,17.949,0,0,0-3.92,4.575c-.725,1.238-1.021,1.982-1.074,1.959a2.23,2.23,0,0,1,.185-.552,14.482,14.482,0,0,1,.7-1.514,17.037,17.037,0,0,1,3.854-4.769,13.665,13.665,0,0,1,8.356-3.45c3.53-.171,7.187,1.39,10.566,3.38,3.4,1.995,6.531,4.1,9.778,5.043,3.2.99,6.433.83,8.644-.41a7.792,7.792,0,0,0,3.77-4.459,8.583,8.583,0,0,0,.3-2.19" transform="translate(-11.966 -8.419)" fill="#455a64"/>
            <path id="Path_228" data-name="Path 228" d="M119.025,113.811a6.041,6.041,0,0,1,.658-2.282,14.626,14.626,0,0,1,3.272-4.713,14.457,14.457,0,0,1,2.512-1.95,5.367,5.367,0,0,1,2.482-.886,2.845,2.845,0,0,1,1.732.447c.351.248.464.465.439.484a3.268,3.268,0,0,0-2.139-.538c-1.372.152-3.062,1.366-4.638,2.843a16.988,16.988,0,0,0-3.3,4.481c-.662,1.277-.925,2.141-1.015,2.114" transform="translate(-10.701 -9.349)" fill="#455a64"/>
            <path id="Path_229" data-name="Path 229" d="M120.349,122.111a6.513,6.513,0,0,1,.8-2.252,15.876,15.876,0,0,1,8.441-7.618,6.594,6.594,0,0,1,2.323-.572,22.3,22.3,0,0,1-2.171.935,18.22,18.22,0,0,0-8.244,7.443,23.3,23.3,0,0,1-1.152,2.065" transform="translate(-10.82 -10.039)" fill="#455a64"/>
            <path id="Path_230" data-name="Path 230" d="M188.395,259.356l45.658,18.388-7.279,13.043L175,282.846Z" transform="translate(-15.735 -23.319)" fill="#ffbe9d"/>
            <path id="Path_231" data-name="Path 231" d="M179.533,197.786c.234,12.849-.178,43.788-.178,43.788l7.32,11.5-12.81,17.252-14.8,2.083L157.6,283.885s-25.922,11.6-46.663,4.569c-16.138-5.473-35,12.931-35,12.931s-1.723-3.005,1.075-28.964c2.667-24.742,7.332-65.575,7.332-65.575L99.26,169.538l22.4-3.886c9.381,15.951,28.144,16.041,29.65,6.346l14.895,6.2a21.157,21.157,0,0,1,13.326,19.587" transform="translate(-6.78 -14.894)" fill="#ff2a2a"/>
            <path id="Path_232" data-name="Path 232" d="M174.891,205.261c.13.015-1.444,14.751-3.517,32.91s-3.857,32.873-3.987,32.859,1.444-14.748,3.517-32.912,3.857-32.871,3.987-32.856" transform="translate(-15.049 -18.455)" fill="#263238"/>
            <path id="Path_233" data-name="Path 233" d="M164.259,241.806c.071.11-7.248,4.942-16.345,10.791s-16.533,10.5-16.6,10.392,7.246-4.94,16.346-10.791,16.531-10.5,16.6-10.392" transform="translate(-11.806 -21.741)" fill="#263238"/>
            <path id="Path_234" data-name="Path 234" d="M137.4,442.276h-8.6l-4.915-57.853H137.4Z" transform="translate(-11.139 -34.564)" fill="#263238"/>
            <path id="Path_235" data-name="Path 235" d="M63.758,442.276h-8.6l-4.915-57.853H63.758Z" transform="translate(-4.517 -34.564)" fill="#263238"/>
            <path id="Path_236" data-name="Path 236" d="M241.889,442.276h-8.6l-4.915-57.853h13.519Z" transform="translate(-20.533 -34.564)" fill="#263238"/>
            <path id="Path_237" data-name="Path 237" d="M83.254,315.383l8.2-125.426H14.106A9.413,9.413,0,0,0,4.85,201.084L35.963,369.1c9.9-.139,190.343,0,190.343,0V315.383Z" transform="translate(-0.422 -17.079)" fill="#455a64"/>
            <path id="Path_238" data-name="Path 238" d="M209.53,366.464c0,.131-17.145.237-38.288.237s-38.293-.106-38.293-.237,17.141-.237,38.293-.237,38.288.106,38.288.237" transform="translate(-11.954 -32.928)" fill="#263238"/>
            <path id="Path_239" data-name="Path 239" d="M289.826,398.553l5.568,26.554s28.861,3.259,30.368,8.066l-51.1,12.645L264.289,404.8Z" transform="translate(-23.763 -35.835)" fill="#ff2a2a"/>
            <path id="Path_240" data-name="Path 240" d="M280.4,429.57a2.15,2.15,0,0,0-.854,2.738,2.066,2.066,0,0,0,2.707.87,2.267,2.267,0,0,0,.889-2.9,2.144,2.144,0,0,0-2.916-.592" transform="translate(-25.116 -38.601)" fill="#e0e0e0"/>
            <path id="Path_241" data-name="Path 241" d="M275.84,450.116l-1.009-3.973,49.219-11.849s2.519.427,2.659,2.093Z" transform="translate(-24.711 -39.048)" fill="#e0e0e0"/>
            <path id="Path_242" data-name="Path 242" d="M298.911,427.209c.054.251-1.166.673-2.2,1.779-1.058,1.079-1.424,2.317-1.677,2.275-.243.008-.239-1.575,1.03-2.893s2.839-1.4,2.842-1.161" transform="translate(-26.516 -38.402)" fill="#263238"/>
            <path id="Path_243" data-name="Path 243" d="M305.537,428.192c.117.228-.858.919-1.445,2.184-.623,1.248-.555,2.442-.805,2.493-.225.1-.76-1.321,0-2.88s2.187-2.033,2.252-1.8" transform="translate(-27.234 -38.494)" fill="#263238"/>
            <path id="Path_244" data-name="Path 244" d="M310.823,433.947c-.214.109-.869-1.051-.567-2.576s1.335-2.358,1.493-2.176c.191.17-.385,1.091-.614,2.347-.258,1.25-.069,2.32-.311,2.405" transform="translate(-27.889 -38.588)" fill="#263238"/>
            <path id="Path_245" data-name="Path 245" d="M296.655,420.682c-.048.253-1.278.192-2.665.637-1.4.417-2.376,1.161-2.559.98-.189-.145.654-1.334,2.294-1.835s3-.009,2.93.218" transform="translate(-26.201 -37.785)" fill="#263238"/>
            <g id="Group_15" data-name="Group 15" transform="translate(240.526 362.718)" opacity="0.3">
              <g id="Group_14" data-name="Group 14">
                <g id="Group_13" data-name="Group 13" clip-path="url(#clip-path-8)">
                  <path id="Path_246" data-name="Path 246" d="M289.826,398.553l5.568,26.554s28.861,3.259,30.368,8.066L274.892,446.9l-10.6-42.1Z" transform="translate(-264.289 -398.553)"/>
                </g>
              </g>
            </g>
            <path id="Path_247" data-name="Path 247" d="M249.417,308.017l32.348,93.91L253.83,412.26,202.349,309.315l-85.525-13.379,51.333-13.809,73.216,18.5a11.483,11.483,0,0,1,8.045,7.394" transform="translate(-10.504 -25.367)" fill="#263238"/>
            <path id="Path_248" data-name="Path 248" d="M289.486,387.09l18.475,20.29s26.828-11.964,30.607-8.547l-38.054,37.234-30.082-30.432Z" transform="translate(-24.315 -34.804)" fill="#ff2a2a"/>
            <path id="Path_249" data-name="Path 249" d="M296.939,420.126a2.174,2.174,0,0,0,.661,2.825,2.089,2.089,0,0,0,2.8-.631,2.292,2.292,0,0,0-.714-2.988,2.169,2.169,0,0,0-2.846.979" transform="translate(-26.674 -37.686)" fill="#e0e0e0"/>
            <path id="Path_250" data-name="Path 250" d="M304.028,437.979l-2.918-2.946,36.824-35.575s2.415-.92,3.392.461Z" transform="translate(-27.073 -35.889)" fill="#e0e0e0"/>
            <path id="Path_251" data-name="Path 251" d="M311.939,408.506c.176.192-.671,1.185-1,2.677-.369,1.483-.053,2.749-.3,2.843-.207.131-1.017-1.25-.585-3.051.414-1.8,1.755-2.68,1.881-2.47" transform="translate(-27.867 -36.727)" fill="#263238"/>
            <path id="Path_252" data-name="Path 252" d="M318.194,406.029c.218.138-.277,1.241-.139,2.646.1,1.407.769,2.413.576,2.586-.146.2-1.34-.763-1.478-2.511s.864-2.893,1.041-2.72" transform="translate(-28.514 -36.505)" fill="#263238"/>
            <path id="Path_253" data-name="Path 253" d="M325.721,408.387c-.13.2-1.3-.471-1.816-1.955s-.045-2.74.185-2.662c.254.05.224,1.148.669,2.361.415,1.221,1.128,2.057.962,2.256" transform="translate(-29.102 -36.303)" fill="#263238"/>
            <path id="Path_254" data-name="Path 254" d="M306.569,403.933c.088.246-1.016.824-2,1.922-1,1.079-1.475,2.232-1.728,2.167-.238-.029-.114-1.5,1.059-2.776s2.614-1.549,2.665-1.313" transform="translate(-27.22 -36.311)" fill="#263238"/>
            <path id="Path_255" data-name="Path 255" d="M103.872,336l74.577-.315,82.764,77.069L286.943,388.8s-70.275-79.307-78.4-87.489-86.352-13.635-86.352-13.635L75.166,308.1l1.067,5.336A28.065,28.065,0,0,0,103.872,336" transform="translate(-6.758 -25.865)" fill="#263238"/>
            <path id="Path_256" data-name="Path 256" d="M186.737,329.667a45.028,45.028,0,0,1,1.134,9.151,44.878,44.878,0,0,1-1.134-9.151" transform="translate(-16.786 -29.641)" fill="#455a64"/>
            <path id="Path_257" data-name="Path 257" d="M295.836,388.282a8.239,8.239,0,0,1-.926,1.083c-.618.676-1.528,1.639-2.665,2.817-2.273,2.356-5.47,5.56-9.084,9.009s-6.967,6.492-9.428,8.652c-1.23,1.08-2.234,1.944-2.939,2.529a8.19,8.19,0,0,1-1.125.874,8.136,8.136,0,0,1,1-1.011l2.838-2.64c2.4-2.223,5.711-5.3,9.324-8.746s6.84-6.608,9.173-8.9l2.771-2.71a8.248,8.248,0,0,1,1.057-.954" transform="translate(-24.247 -34.911)" fill="#455a64"/>
            <path id="Path_258" data-name="Path 258" d="M240.517,387.424s.173.139.5.429l1.424,1.294,5.458,5.021,20.127,18.64h-.228l25.7-24-.017.294c-10.841-12.641-23.827-26.487-37.433-41.213-6.016-6.5-11.883-12.856-17.491-19.046S227.588,316.627,222.7,310.7a48.722,48.722,0,0,0-7.728-8.022,20.143,20.143,0,0,0-4.583-2.668,29.253,29.253,0,0,0-4.935-1.515c-3.321-.717-6.6-1.134-9.724-1.643l-9-1.4L159.571,291.2l-7.381-1.18-1.918-.319c-.431-.074-.651-.125-.651-.125s.225.018.659.077l1.925.272,7.394,1.092,27.182,4.1,9.006,1.371c3.128.5,6.4.9,9.753,1.62a29.472,29.472,0,0,1,5.006,1.524,20.58,20.58,0,0,1,4.681,2.71,49.092,49.092,0,0,1,7.812,8.077c4.888,5.909,10.247,11.923,15.854,18.11s11.479,12.536,17.495,19.036c13.606,14.726,26.58,28.584,37.411,41.26l.132.155-.149.139-25.761,23.927-.114.106-.114-.106L247.769,394.3l-5.4-5.086-1.392-1.329c-.311-.3-.462-.463-.462-.463" transform="translate(-13.453 -26.036)" fill="#455a64"/>
            <path id="Path_259" data-name="Path 259" d="M169.085,274.347l-22.5,7.582-41.424-16.847L83.052,285.643l59.086,10.6a12.937,12.937,0,0,0,5.963-.426l17.42-5.472s5.694,6.432,6.88,6.527,3.589-.069,2.446-2.192a56.508,56.508,0,0,0-4.07-5.823s8,6.6,8.906,5.716.544-2.924-.874-4.591-6.121-7.062-6.121-7.062,9.858,8.163,10.795,6.925,1.4-3.191-2.548-6.978c-2.594-2.488-6.587-6.037-8.687-7.887a3.223,3.223,0,0,0-3.163-.636" transform="translate(-7.467 -23.834)" fill="#ffbe9d"/>
            <path id="Path_260" data-name="Path 260" d="M151.748,283.813a15.867,15.867,0,0,1-2.149,2.656,15.909,15.909,0,0,1-2.351,2.48,17.335,17.335,0,0,1,4.5-5.136" transform="translate(-13.239 -25.518)" fill="#eb996e"/>
            <path id="Path_261" data-name="Path 261" d="M187.337,291.83a9.286,9.286,0,0,1-1.9-1.942c-1.086-1.274-2.523-3.082-4.147-5.04-1.659-1.873-3.05-4.009-4.849-3.66a3.854,3.854,0,0,0-1.808.549c-.389.239-.574.423-.6.4s.12-.247.5-.547a3.644,3.644,0,0,1,1.888-.732,3.956,3.956,0,0,1,1.42.119,2.369,2.369,0,0,1,.748.354,7.653,7.653,0,0,1,.633.541,32.49,32.49,0,0,1,2.436,2.677c1.633,1.968,3.028,3.808,4.044,5.133l1.206,1.564c.281.371.455.557.43.588" transform="translate(-15.648 -25.25)" fill="#eb996e"/>
            <path id="Path_262" data-name="Path 262" d="M171.114,286.481c-.018-.018.134-.227.522-.471a3.47,3.47,0,0,1,1.864-.476,3.653,3.653,0,0,1,1.338.259,3.3,3.3,0,0,1,1.189,1.027c.333.427.618.906.933,1.369.309.448.694.921,1.051,1.4,2.929,3.851,5.107,7.143,4.909,7.263-.033.014-.165-.187-.429-.542l-1.124-1.5-3.735-4.937c-.362-.491-.724-.935-1.058-1.429s-.592-.957-.9-1.364a2.981,2.981,0,0,0-1.009-.936,3.5,3.5,0,0,0-1.184-.28,4.152,4.152,0,0,0-2.373.612" transform="translate(-15.385 -25.673)" fill="#eb996e"/>
            <path id="Path_263" data-name="Path 263" d="M190,284.319a11.321,11.321,0,0,1-1.827-1.444c-1.088-.936-2.567-2.253-4.182-3.73l-2.264-2.1a7.1,7.1,0,0,0-1.942-1.49,4.006,4.006,0,0,0-2.2-.32c-.015-.028.188-.154.6-.219a3.377,3.377,0,0,1,1.73.231,5.285,5.285,0,0,1,1.062.591c.354.264.684.566,1.038.882l2.291,2.07c1.616,1.478,3.062,2.836,4.092,3.836a11.349,11.349,0,0,1,1.6,1.691" transform="translate(-15.967 -24.725)" fill="#eb996e"/>
            <path id="Path_264" data-name="Path 264" d="M79.969,277.635s-8.406-9.441-7.878-22.038,4.143-49.056,5.75-59.061c1.59-9.894,9.132-23.65,21.117-26.626,8.766-2.178,10.575,24.338,10.575,24.338l-6.62,58.529,13.194,7.663L103.794,281.3Z" transform="translate(-6.48 -15.265)" fill="#ff2a2a"/>
            <path id="Path_265" data-name="Path 265" d="M110.712,191.7c-.091.01-.2-1.28-.754-3.274a22.926,22.926,0,0,0-1.254-3.4,22.907,22.907,0,0,0-5.169-7.141,23,23,0,0,0-2.836-2.252c-1.72-1.149-2.912-1.655-2.874-1.739a3.363,3.363,0,0,1,.857.306,8.205,8.205,0,0,1,.966.455,13.9,13.9,0,0,1,1.232.7,20.352,20.352,0,0,1,2.951,2.213,21.557,21.557,0,0,1,5.271,7.283,20.4,20.4,0,0,1,1.18,3.494,13.612,13.612,0,0,1,.277,1.389,8.33,8.33,0,0,1,.131,1.059,3.324,3.324,0,0,1,.022.91" transform="translate(-8.796 -15.635)" fill="#263238"/>
            <path id="Path_266" data-name="Path 266" d="M104.63,261.019a16.311,16.311,0,0,1-2.083,1.217,47.045,47.045,0,0,0-4.857,3.146,51.381,51.381,0,0,0-4.425,3.736,15.642,15.642,0,0,1-1.787,1.623,10.106,10.106,0,0,1,1.551-1.86A34.954,34.954,0,0,1,97.407,265a32.956,32.956,0,0,1,4.983-3.062,9.791,9.791,0,0,1,2.241-.921" transform="translate(-8.225 -23.468)" fill="#263238"/>
            <path id="Path_267" data-name="Path 267" d="M200.5,246.139l-14.475,52.568h67.591l16.467-50.08a3.045,3.045,0,0,0-2.857-4l-63.757-.728a3.045,3.045,0,0,0-2.97,2.236" transform="translate(-16.726 -21.93)" fill="#e0e0e0"/>
            <path id="Path_268" data-name="Path 268" d="M205.249,243.921c.126.035-3.153,12.329-7.324,27.456s-7.656,27.367-7.781,27.333,3.153-12.326,7.324-27.458,7.655-27.365,7.781-27.33" transform="translate(-17.096 -21.931)" fill="#263238"/>
            <path id="Path_269" data-name="Path 269" d="M235.411,272.926a2.853,2.853,0,1,0,3.955-1.688,3.055,3.055,0,0,0-3.955,1.688" transform="translate(-21.133 -24.365)" fill="#fff"/>
            <path id="Path_270" data-name="Path 270" d="M181.558,303.739h-45.23a3.87,3.87,0,0,1,3.87-3.87h43.037Z" transform="translate(-12.258 -26.962)" fill="#e0e0e0"/>
            <path id="Path_271" data-name="Path 271" d="M72.088,259.24a2.562,2.562,0,0,1,.027.426c.006.3.015.717.026,1.243a19.085,19.085,0,0,0,.137,2.011c.045.8.225,1.7.391,2.716a34.325,34.325,0,0,0,2.272,7.132,35.789,35.789,0,0,0,5.157,8.388l-.107-.058,23.832,3.619-.23.109,9.591-16.267,2.716-4.6.085.325L102.8,256.613l-.124-.073.013-.142c1.21-13.4,2.25-24.918,2.991-33.12.385-4.065.691-7.307.9-9.561.111-1.092.2-1.944.26-2.55.032-.271.056-.488.076-.656a.992.992,0,0,1,.039-.222,1.017,1.017,0,0,1,0,.226c-.01.169-.023.386-.039.66-.045.607-.106,1.461-.187,2.556-.182,2.257-.445,5.5-.774,9.573-.7,8.205-1.68,19.731-2.822,33.134l-.111-.214,13.2,7.653.206.119-.121.2-2.714,4.6-9.608,16.257-.078.133-.152-.024-23.817-3.71-.069-.01-.039-.048a35.428,35.428,0,0,1-7.359-15.725,26.78,26.78,0,0,1-.347-2.739,17.528,17.528,0,0,1-.088-2.023c.011-.528.019-.941.025-1.247a2.49,2.49,0,0,1,.026-.424" transform="translate(-6.476 -18.908)" fill="#263238"/>
            <path id="Path_272" data-name="Path 272" d="M34.888,282.127s79.937,10.117,82.789,12.92c2.506,2.462,5.7,67.387,6.415,67.071l-74.6-2.828Z" transform="translate(-3.137 -25.367)" fill="#455a64"/>
            <path id="Path_273" data-name="Path 273" d="M106.66,378.313c-.13.011-1.795-18.715-3.717-41.82S99.568,294.64,99.7,294.629s1.795,18.711,3.718,41.824,3.375,41.849,3.244,41.86" transform="translate(-8.963 -26.491)" fill="#263238"/>
            <path id="Path_274" data-name="Path 274" d="M17.617,189.958a1.616,1.616,0,0,1,.092.31c.056.231.13.536.223.922.193.84.466,2.032.814,3.553.693,3.119,1.684,7.583,2.907,13.087,2.414,11.084,5.739,26.352,9.412,43.215.911,4.222,1.8,8.343,2.66,12.324q.642,2.985,1.26,5.861.154.718.308,1.429a7.6,7.6,0,0,0,.359,1.357,4.169,4.169,0,0,0,1.739,2,4.3,4.3,0,0,0,1.228.491c.42.092.894.134,1.341.2l2.675.35,5.114.672,9.177,1.214,13.285,1.79,3.608.511.936.145a1.617,1.617,0,0,1,.318.065,1.573,1.573,0,0,1-.323-.017l-.943-.1-3.62-.422-13.3-1.641L47.7,276.115l-5.117-.649-2.676-.339c-.455-.065-.9-.1-1.382-.2a4.769,4.769,0,0,1-1.353-.535,4.615,4.615,0,0,1-1.929-2.206,8.127,8.127,0,0,1-.387-1.432q-.154-.71-.31-1.428-.624-2.871-1.272-5.858c-.862-3.981-1.755-8.1-2.669-12.323-3.619-16.875-6.9-32.153-9.277-43.244-1.16-5.518-2.1-9.993-2.759-13.119-.311-1.529-.554-2.728-.726-3.572-.075-.39-.133-.7-.177-.932a1.62,1.62,0,0,1-.045-.32" transform="translate(-1.584 -17.08)" fill="#263238"/>
            <path id="Path_275" data-name="Path 275" d="M127.175,301.995c.13-.011,1.656,17.258,3.407,38.566s3.065,38.6,2.935,38.608-1.655-17.254-3.407-38.57-3.065-38.593-2.935-38.6" transform="translate(-11.434 -27.153)" fill="#263238"/>
          </g>
        </g>
        <rect id="Rectangle_19" data-name="Rectangle 19" width="185.362" height="162.318" transform="translate(208.118 26.66)" fill="#fff"/>
        <rect id="Rectangle_20" data-name="Rectangle 20" width="184.91" height="87.844" transform="translate(208.57 101.134)" fill="#ebebeb"/>
        <g id="Group_19" data-name="Group 19">
          <g id="Group_18" data-name="Group 18" clip-path="url(#clip-path)">
            <path id="Path_276" data-name="Path 276" d="M383.4,88.647c0,.131-25.369.237-56.654.237s-56.66-.106-56.66-.237,25.363-.237,56.66-.237,56.654.106,56.654.237" transform="translate(-24.284 -7.949)" fill="#263238"/>
            <path id="Path_277" data-name="Path 277" d="M413.065,48.566c0,.131-41.057.237-91.691.237-50.652,0-91.7-.106-91.7-.237s41.048-.237,91.7-.237c50.635,0,91.691.106,91.691.237" transform="translate(-20.65 -4.345)" fill="#263238"/>
            <path id="Path_278" data-name="Path 278" d="M242.24,38.3a2.812,2.812,0,1,1-2.812-2.812A2.812,2.812,0,0,1,242.24,38.3" transform="translate(-21.275 -3.191)" fill="#263238"/>
            <path id="Path_279" data-name="Path 279" d="M252.58,38.3a2.812,2.812,0,1,1-2.812-2.812A2.812,2.812,0,0,1,252.58,38.3" transform="translate(-22.204 -3.191)" fill="#263238"/>
            <path id="Path_280" data-name="Path 280" d="M262.92,38.3a2.812,2.812,0,1,1-2.812-2.812A2.812,2.812,0,0,1,262.92,38.3" transform="translate(-23.134 -3.191)" fill="#263238"/>
            <path id="Path_281" data-name="Path 281" d="M268.287,87.388a7.4,7.4,0,1,1-7.4-7.4,7.4,7.4,0,0,1,7.4,7.4" transform="translate(-22.792 -7.192)" fill="#ff2a2a"/>
            <path id="Path_282" data-name="Path 282" d="M262.689,84.043v7.164h-1.657V85.373H259.6V84.043Z" transform="translate(-23.341 -7.556)" fill="#fff"/>
            <path id="Path_283" data-name="Path 283" d="M341.344,87.31a21.176,21.176,0,0,0-.426-2.607,10.736,10.736,0,0,0-3.93-5.82A10.569,10.569,0,0,0,326.979,77.4a10.576,10.576,0,0,0-4.892,3.681,10.5,10.5,0,0,0,0,12.456,10.582,10.582,0,0,0,4.893,3.682,10.57,10.57,0,0,0,10.01-1.483,10.737,10.737,0,0,0,3.929-5.821,21.151,21.151,0,0,0,.426-2.606,3.756,3.756,0,0,1,.013.689,4.847,4.847,0,0,1-.062.835,7.488,7.488,0,0,1-.2,1.128,10.854,10.854,0,0,1-8.5,8.121,10.975,10.975,0,0,1-5.767-.451,10.979,10.979,0,0,1-5.118-3.819,10.924,10.924,0,0,1,0-13.006,10.979,10.979,0,0,1,5.117-3.817,10.963,10.963,0,0,1,5.766-.452,10.856,10.856,0,0,1,8.5,8.121,7.469,7.469,0,0,1,.2,1.128,4.843,4.843,0,0,1,.062.835,3.763,3.763,0,0,1-.013.69" transform="translate(-28.733 -6.865)" fill="#ff2a2a"/>
            <path id="Path_284" data-name="Path 284" d="M409.348,87.369c-.056,0-.023-.659-.321-1.784a7.376,7.376,0,0,0-2.7-3.964,7.207,7.207,0,0,0-6.821-.995,7.1,7.1,0,0,0-3.325,2.507,7.144,7.144,0,0,0,0,8.471,7.1,7.1,0,0,0,3.325,2.508,7.219,7.219,0,0,0,6.822-1,7.367,7.367,0,0,0,2.7-3.964c.3-1.124.266-1.787.321-1.784a1.753,1.753,0,0,1,.024.475,5.849,5.849,0,0,1-.166,1.353,7.36,7.36,0,0,1-2.678,4.186,7.467,7.467,0,0,1-3.176,1.448,7.6,7.6,0,0,1-4-.308A7.506,7.506,0,0,1,395.8,91.88a7.574,7.574,0,0,1,0-9.022,7.55,7.55,0,0,1,10.724-1.5,7.369,7.369,0,0,1,2.678,4.185,5.863,5.863,0,0,1,.166,1.355,1.748,1.748,0,0,1-.024.474" transform="translate(-35.453 -7.173)" fill="#263238"/>
            <rect id="Rectangle_21" data-name="Rectangle 21" width="71.876" height="1.302" transform="translate(244.482 79.886)" fill="#ff2a2a"/>
            <path id="Path_285" data-name="Path 285" d="M338.328,87.388a7.4,7.4,0,1,1-7.4-7.4,7.4,7.4,0,0,1,7.4,7.4" transform="translate(-29.089 -7.192)" fill="#ff2a2a"/>
            <path id="Path_286" data-name="Path 286" d="M334.161,89.844v1.351h-5.414V90.12l2.763-2.61c.634-.6.747-.972.747-1.321,0-.562-.389-.89-1.147-.89a1.752,1.752,0,0,0-1.483.716l-1.208-.778a3.327,3.327,0,0,1,2.845-1.33c1.6,0,2.661.818,2.661,2.118a2.859,2.859,0,0,1-1.2,2.262l-1.648,1.556Z" transform="translate(-29.529 -7.544)" fill="#fff"/>
            <path id="Path_287" data-name="Path 287" d="M405.227,89.017c0,1.208-.931,2.313-2.969,2.313a4.931,4.931,0,0,1-2.733-.768l.645-1.269a3.484,3.484,0,0,0,2.047.644c.829,0,1.341-.338,1.341-.921,0-.542-.4-.88-1.341-.88h-.757V87.042l1.473-1.668h-3.049V84.043H404.9v1.074l-1.617,1.843a2.035,2.035,0,0,1,1.945,2.057" transform="translate(-35.922 -7.556)" fill="#263238"/>
            <path id="Path_288" data-name="Path 288" d="M372.879,62.506c0,.131-18,.237-40.2.237s-40.2-.106-40.2-.237,18-.237,40.2-.237,40.2.106,40.2.237" transform="translate(-26.297 -5.599)" fill="#263238"/>
            <path id="Path_289" data-name="Path 289" d="M326.233,111.544,331.788,104l5.556,7.541Z" transform="translate(-29.332 -9.351)" fill="#ebebeb"/>
            <path id="Path_290" data-name="Path 290" d="M414.018,191.588c0-1.685-.08-64.652-.2-162.318l.2.2-185.346.036h-.016l.237-.238c-.01,58.976-.02,114.516-.028,162.318l-.208-.209,185.362.209-185.362.209h-.209v-.209c-.007-47.8-.017-103.342-.027-162.318v-.237h.254l185.346.036h.2v.2c-.12,97.666-.2,160.634-.2,162.318" transform="translate(-20.538 -2.611)" fill="#263238"/>
            <path id="Path_291" data-name="Path 291" d="M276.945,131.946c0,.131-5.656.237-12.632.237s-12.632-.106-12.632-.237,5.654-.237,12.632-.237,12.632.106,12.632.237" transform="translate(-22.629 -11.842)" fill="#ff2a2a"/>
            <path id="Path_292" data-name="Path 292" d="M302.587,153.1H254.841a6.474,6.474,0,0,1,0-12.948h47.746a6.474,6.474,0,1,1,0,12.948" transform="translate(-22.331 -12.601)" fill="#fafafa"/>
            <path id="Path_293" data-name="Path 293" d="M374.159,131.946c0,.131-5.359.237-11.969.237s-11.971-.106-11.971-.237,5.359-.237,11.971-.237,11.969.106,11.969.237" transform="translate(-31.489 -11.842)" fill="#ff2a2a"/>
            <path id="Path_294" data-name="Path 294" d="M276.349,170.718c0,.131-5.359.237-11.969.237s-11.971-.106-11.971-.237,5.359-.237,11.971-.237,11.969.106,11.969.237" transform="translate(-22.695 -15.328)" fill="#ff2a2a"/>
            <path id="Path_295" data-name="Path 295" d="M397.862,153.1H350.116a6.474,6.474,0,0,1,0-12.948h47.746a6.474,6.474,0,1,1,0,12.948" transform="translate(-30.898 -12.601)" fill="#fafafa"/>
            <path id="Path_296" data-name="Path 296" d="M391.1,192.459H255.228a6.473,6.473,0,0,1,0-12.947H391.1a6.473,6.473,0,1,1,0,12.947" transform="translate(-22.366 -16.14)" fill="#fafafa"/>
            <path id="Path_297" data-name="Path 297" d="M443.309,30.009a13.455,13.455,0,1,1-13.455-13.455,13.455,13.455,0,0,1,13.455,13.455" transform="translate(-37.439 -1.488)" fill="#ff2a2a"/>
            <rect id="Rectangle_22" data-name="Rectangle 22" width="12.082" height="2.696" transform="translate(387.519 31.406) rotate(-45)" fill="#fff"/>
            <rect id="Rectangle_23" data-name="Rectangle 23" width="2.696" height="12.082" transform="translate(387.519 24.77) rotate(-45)" fill="#fff"/>
          </g>
        </g>
      </g>
    </g>
  </g>
</svg>
