<svg xmlns="http://www.w3.org/2000/svg" xmlns:xlink="http://www.w3.org/1999/xlink" width="427" height="414" viewBox="0 0 427 414">
  <defs>
    <clipPath id="clip-path">
      <rect id="Rectangle_61" data-name="Rectangle 61" width="406.153" height="414" fill="none"/>
    </clipPath>
    <clipPath id="clip-path-7">
      <rect id="Rectangle_58" data-name="Rectangle 58" width="11.903" height="98.359" fill="none"/>
    </clipPath>
    <clipPath id="clip-path-8">
      <rect id="Rectangle_59" data-name="Rectangle 59" width="28.721" height="50.45" fill="none"/>
    </clipPath>
    <clipPath id="clip-support-image">
      <rect width="427" height="414"/>
    </clipPath>
  </defs>
  <g id="support-image" clip-path="url(#clip-support-image)">
    <g id="Group_88" data-name="Group 88">
      <g id="Group_87" data-name="Group 87" clip-path="url(#clip-path)">
        <g id="Group_72" data-name="Group 72">
          <g id="Group_71" data-name="Group 71" clip-path="url(#clip-path)">
            <path id="Path_508" data-name="Path 508" d="M134.739,6.3a17.772,17.772,0,0,1,4.337-1.884l.893-4.293L147.22,0l1.044,4.258a17.777,17.777,0,0,1,4.4,1.731l3.665-2.4,5.217,5.038-2.272,3.746a17.761,17.761,0,0,1,1.885,4.337l4.292.893.127,7.252L161.321,25.9a17.8,17.8,0,0,1-1.73,4.4l2.4,3.665-5.037,5.218-3.747-2.272a17.778,17.778,0,0,1-4.337,1.884l-.893,4.292-7.251.127-1.044-4.258a17.791,17.791,0,0,1-4.4-1.731l-3.665,2.4L126.4,34.587l2.272-3.746a17.781,17.781,0,0,1-1.885-4.337L122.5,25.61l-.127-7.251,4.258-1.044a17.77,17.77,0,0,1,1.731-4.4l-2.4-3.666,5.038-5.217Zm3.866,9.66a7.78,7.78,0,1,0,11-.193,7.781,7.781,0,0,0-11,.193" transform="translate(-8.053)" fill="#e0e0e0"/>
            <path id="Path_509" data-name="Path 509" d="M136.949,264.03a10.257,10.257,0,0,1,2.5-1.086l.516-2.476,4.182-.073.6,2.455a10.221,10.221,0,0,1,2.537,1l2.114-1.385,3.009,2.905-1.311,2.161a10.23,10.23,0,0,1,1.087,2.5l2.475.515.074,4.182-2.456.6a10.254,10.254,0,0,1-1,2.537l1.385,2.113-2.905,3.009-2.161-1.31a10.268,10.268,0,0,1-2.5,1.086l-.515,2.476-4.182.073-.6-2.455a10.221,10.221,0,0,1-2.537-1l-2.114,1.385-3.009-2.905,1.311-2.161a10.215,10.215,0,0,1-1.087-2.5l-2.475-.515-.074-4.182,2.456-.6a10.27,10.27,0,0,1,1-2.537l-1.385-2.113,2.905-3.009Zm2.229,5.572a4.487,4.487,0,1,0,6.345-.111,4.487,4.487,0,0,0-6.345.111" transform="translate(-8.543 -17.136)" fill="#e0e0e0"/>
            <path id="Path_510" data-name="Path 510" d="M39.588,31.258a7,7,0,0,1,1.707-.742l.352-1.689,2.854-.05.411,1.676a6.97,6.97,0,0,1,1.732.682l1.443-.946,2.053,1.983-.894,1.475a7,7,0,0,1,.742,1.707l1.69.352.05,2.854-1.676.411a7.018,7.018,0,0,1-.681,1.732l.945,1.443L48.333,44.2l-1.475-.895a6.984,6.984,0,0,1-1.707.742l-.352,1.69-2.854.05-.411-1.676A7.032,7.032,0,0,1,39.8,43.43l-1.442.945-2.054-1.983.894-1.475a6.969,6.969,0,0,1-.742-1.707l-1.689-.351L34.718,36l1.676-.411a7,7,0,0,1,.682-1.732l-.946-1.442,1.983-2.054Zm1.522,3.8a3.063,3.063,0,1,0,4.331-.077,3.063,3.063,0,0,0-4.331.077" transform="translate(-2.285 -1.894)" fill="#e0e0e0"/>
            <path id="Path_511" data-name="Path 511" d="M188.525,24.691a13.824,13.824,0,0,1,3.374-1.467l.7-3.34,5.643-.1.812,3.314a13.814,13.814,0,0,1,3.424,1.346l2.851-1.869,4.06,3.921-1.767,2.915a13.825,13.825,0,0,1,1.467,3.374l3.339.7.1,5.643-3.313.813a13.824,13.824,0,0,1-1.347,3.423l1.869,2.852-3.92,4.06L202.9,48.5a13.788,13.788,0,0,1-3.374,1.467l-.7,3.34-5.642.1-.813-3.314a13.844,13.844,0,0,1-3.423-1.346L186.1,50.617l-4.06-3.92,1.767-2.915a13.821,13.821,0,0,1-1.466-3.374l-3.34-.7-.1-5.643,3.314-.813a13.823,13.823,0,0,1,1.346-3.423l-1.869-2.852,3.92-4.059Zm3.008,7.517a6.054,6.054,0,1,0,8.56-.15,6.053,6.053,0,0,0-8.56.15" transform="translate(-11.773 -1.302)" fill="#ebebeb"/>
            <path id="Path_512" data-name="Path 512" d="M347.983,173.657a17.734,17.734,0,0,1,4.332-1.882l.892-4.288,7.245-.127,1.043,4.253a17.782,17.782,0,0,1,4.4,1.729l3.661-2.4,5.213,5.033-2.269,3.742a17.754,17.754,0,0,1,1.882,4.333l4.287.892.127,7.245-4.253,1.043a17.724,17.724,0,0,1-1.729,4.4l2.4,3.662-5.032,5.213-3.743-2.27a17.689,17.689,0,0,1-4.333,1.882l-.892,4.288-7.245.127-1.043-4.253a17.74,17.74,0,0,1-4.4-1.729l-3.661,2.4-5.213-5.032,2.269-3.743a17.755,17.755,0,0,1-1.882-4.333l-4.288-.892-.127-7.245,4.254-1.043a17.772,17.772,0,0,1,1.728-4.4l-2.4-3.662,5.032-5.212Zm3.862,9.651a7.773,7.773,0,1,0,10.991-.193,7.773,7.773,0,0,0-10.991.193" transform="translate(-22.087 -11.014)" fill="#e0e0e0"/>
            <path id="Path_513" data-name="Path 513" d="M400.889,21.844a19.622,19.622,0,1,0-36.534,9.913h-.011l.056.074c.752,1.268,1.695,2.175,2.647,3.507L378.44,50.428a3.543,3.543,0,0,0,5.656,0l11.2-14.842a42.3,42.3,0,0,0,2.849-3.775l.041-.054h-.008a19.5,19.5,0,0,0,2.709-9.913m-19.622,8.543a8.635,8.635,0,1,1,8.635-8.635,8.634,8.634,0,0,1-8.635,8.635" transform="translate(-23.799 -0.146)" fill="#e0e0e0"/>
            <path id="Path_514" data-name="Path 514" d="M32.413,323.849A12.379,12.379,0,0,0,37.465,311.2c-1.28-6.719-7.424-11.2-13.725-10s-10.37,7.613-9.09,14.331a12.362,12.362,0,0,0,9.472,9.934C7.1,331.52,11.6,350.427,11.6,350.427l41.513-7.884s-2.806-19.455-20.7-18.7" transform="translate(-0.728 -19.809)" fill="#ebebeb"/>
            <path id="Path_515" data-name="Path 515" d="M85.439,409.492l-8.545-2.106s-1.768,7.176-9.256,5.467a7.122,7.122,0,0,1-5.609-6.064,7.885,7.885,0,0,1,2.314-6.771c2.038-2.032,5.749-3.422,11.258-.988l4.748-19.268-8.45-2.081-2.781,11.286s-12.605.144-15.823,13.2c-3.078,12.5,7.413,18.159,12.209,19.341,3.669.9,16.383,3.1,19.936-12.019" transform="translate(-3.471 -24.855)" fill="#ebebeb"/>
            <rect id="Rectangle_52" data-name="Rectangle 52" width="8.248" height="8.832" transform="translate(69.305 348.831) rotate(-76.158)" fill="#ebebeb"/>
          </g>
        </g>
        <g id="Group_74" data-name="Group 74">
          <g id="Group_73" data-name="Group 73" clip-path="url(#clip-path)">
            <path id="Path_516" data-name="Path 516" d="M406.153,442.887c0,.135-90.928.243-203.066.243C90.908,443.13,0,443.021,0,442.887s90.908-.243,203.087-.243c112.138,0,203.066.108,203.066.243" transform="translate(0 -29.13)"/>
          </g>
        </g>
        <g id="Group_76" data-name="Group 76">
          <g id="Group_75" data-name="Group 75" clip-path="url(#clip-path)">
            <path id="Path_517" data-name="Path 517" d="M23.441,188.5h19.5l-1.725,8.755H6.063l1.393-6.964,21.159-16.582c5.24-4.179,6.832-6.633,6.832-9.684s-2.321-5.107-6.832-5.107a12.863,12.863,0,0,0-9.883,4.843l-7.23-5.24c3.714-5.108,10.679-8.49,18.7-8.49,9.816,0,16.25,5.24,16.25,12.47,0,5.505-2.52,10.147-10.679,16.448Z" transform="translate(-0.399 -9.873)" fill="#263238"/>
            <path id="Path_518" data-name="Path 518" d="M92.277,187.559H84.65l-1.924,9.75H72.247l1.99-9.75H49.232l1.393-7.23L77.952,150.88h11.74L64.222,178.8h12.2l1.725-8.689H88.165L86.442,178.8h7.627Z" transform="translate(-3.24 -9.929)" fill="#263238"/>
            <path id="Path_519" data-name="Path 519" d="M125.715,140.8H135.4l-34.092,62.48H91.689Z" transform="translate(-6.034 -9.266)" fill="#263238"/>
            <path id="Path_520" data-name="Path 520" d="M172.618,150.88l-1.393,6.963-24.806,39.465H134.48l23.812-37.674H143.235L141.71,167.2h-9.551l3.25-16.317Z" transform="translate(-8.697 -9.929)" fill="#263238"/>
            <path id="Path_521" data-name="Path 521" d="M28.841,130.717H15.231c0-18.948,7.667-38.322,21.035-53.153,14.072-15.612,32.329-24.21,51.408-24.21,38.931,0,66.12,28.418,66.12,69.108h-13.61c0-33.195-21.1-55.5-52.51-55.5-30.792,0-58.833,30.385-58.833,63.751" transform="translate(-1.002 -3.511)" fill="#ff2a2a"/>
            <path id="Path_522" data-name="Path 522" d="M37.512,132.115c2.175.035,3.937.219,3.935.409s-1.766.347-3.94.349-3.936-.18-3.934-.409,1.766-.385,3.939-.349" transform="translate(-2.209 -8.694)" fill="#263238"/>
            <path id="Path_523" data-name="Path 523" d="M47.581,100.068c1.82,1.191,3.129,2.42,2.923,2.745s-1.877-.333-3.731-1.47-3.162-2.364-2.922-2.744,1.91.279,3.73,1.469" transform="translate(-2.884 -6.482)" fill="#263238"/>
            <path id="Path_524" data-name="Path 524" d="M72.877,77.937c.881,1.989,1.318,3.73.976,3.889s-1.391-1.3-2.344-3.253-1.39-3.7-.976-3.888S72,75.949,72.877,77.937" transform="translate(-4.631 -4.914)" fill="#263238"/>
            <path id="Path_525" data-name="Path 525" d="M106.113,75.268c-.542,2.107-1.278,3.744-1.643,3.657s-.288-1.881.175-4.006,1.2-3.762,1.644-3.656.366,1.9-.176,4" transform="translate(-6.86 -4.689)" fill="#263238"/>
            <path id="Path_526" data-name="Path 526" d="M133.11,94.393c-1.812,1.2-3.453,1.932-3.665,1.626s1.045-1.587,2.808-2.862,3.4-2,3.664-1.625-1,1.658-2.807,2.861" transform="translate(-8.517 -6.017)" fill="#263238"/>
            <path id="Path_527" data-name="Path 527" d="M142.024,125.968c-2.176,0-3.939-.162-3.94-.355s1.761-.373,3.936-.4,3.939.131,3.939.355-1.761.4-3.935.4" transform="translate(-9.087 -8.24)" fill="#263238"/>
            <path id="Path_528" data-name="Path 528" d="M86.976,127.928a3.014,3.014,0,0,1-1.854-.636L62.249,109.527a3.025,3.025,0,1,1,3.712-4.777L86.8,120.938l28.824-26.465a3.025,3.025,0,0,1,4.119,4.431L89.036,127.119a3.024,3.024,0,0,1-2.06.809" transform="translate(-4.02 -6.164)" fill="#ff2a2a"/>
            <path id="Path_529" data-name="Path 529" d="M103.505,42.916H77.278a.74.74,0,0,1-.74-.74v-9.5a.74.74,0,0,1,.74-.74h26.227a.74.74,0,0,1,.74.74v9.5a.74.74,0,0,1-.74.74" transform="translate(-5.037 -2.102)" fill="#ff2a2a"/>
            <rect id="Rectangle_55" data-name="Rectangle 55" width="14.322" height="12.983" transform="translate(78.194 35.326)" fill="#ff2a2a"/>
            <path id="Path_530" data-name="Path 530" d="M36.543,75.321,25.785,88.645a1.207,1.207,0,0,1-1.7.18l-7.352-5.937a1.208,1.208,0,0,1-.181-1.7L27.312,67.867a1.207,1.207,0,0,1,1.7-.18l7.353,5.937a1.207,1.207,0,0,1,.18,1.7" transform="translate(-1.072 -4.437)" fill="#ff2a2a"/>
            <path id="Path_531" data-name="Path 531" d="M103.561,43.669c0,.153-5.874.277-13.117.277s-13.118-.124-13.118-.277,5.872-.278,13.118-.278,13.117.125,13.117.278" transform="translate(-5.089 -2.856)" fill="#263238"/>
            <path id="Path_532" data-name="Path 532" d="M27.2,87.21c-.147.167-2.127-1.344-4.575-3.185S18.183,80.693,18.3,80.5s2.325,1.026,4.8,2.892,4.242,3.655,4.1,3.813" transform="translate(-1.204 -5.297)" fill="#263238"/>
            <path id="Path_533" data-name="Path 533" d="M29.637,83.621c-.147.167-2.127-1.344-4.575-3.185s-4.443-3.334-4.323-3.521,2.325,1.026,4.8,2.892,4.242,3.655,4.1,3.813" transform="translate(-1.364 -5.061)" fill="#263238"/>
            <path id="Path_534" data-name="Path 534" d="M32.635,80.613c-.147.167-2.127-1.344-4.575-3.185s-4.443-3.333-4.323-3.521,2.325,1.026,4.8,2.892,4.242,3.655,4.1,3.813" transform="translate(-1.562 -4.863)" fill="#263238"/>
            <path id="Path_535" data-name="Path 535" d="M35.533,77.024c-.147.167-2.127-1.344-4.575-3.185s-4.443-3.334-4.323-3.521,2.325,1.026,4.8,2.892,4.242,3.655,4.1,3.813" transform="translate(-1.752 -4.626)" fill="#263238"/>
            <path id="Path_536" data-name="Path 536" d="M151.649,79.524,140.07,66.907a1.207,1.207,0,0,1,.073-1.7l6.963-6.391a1.208,1.208,0,0,1,1.706.074L160.389,71.5a1.206,1.206,0,0,1-.073,1.7l-6.963,6.39a1.206,1.206,0,0,1-1.7-.073" transform="translate(-9.197 -3.849)" fill="#ff2a2a"/>
            <path id="Path_537" data-name="Path 537" d="M142.316,68.674c-.144-.17,1.645-1.9,3.828-4.052s3.956-3.9,4.124-3.753-1.359,2.147-3.571,4.314-4.244,3.654-4.38,3.49" transform="translate(-9.365 -4.005)" fill="#263238"/>
            <path id="Path_538" data-name="Path 538" d="M145.5,71.615c-.144-.17,1.645-1.9,3.828-4.052s3.956-3.9,4.124-3.753-1.359,2.147-3.571,4.314-4.244,3.654-4.38,3.49" transform="translate(-9.575 -4.199)" fill="#263238"/>
            <path id="Path_539" data-name="Path 539" d="M148.033,75.027c-.144-.17,1.645-1.9,3.828-4.052s3.956-3.9,4.124-3.753-1.359,2.147-3.571,4.314-4.244,3.654-4.38,3.49" transform="translate(-9.741 -4.423)" fill="#263238"/>
            <path id="Path_540" data-name="Path 540" d="M151.152,78.425c-.144-.17,1.645-1.9,3.828-4.052s3.956-3.9,4.124-3.753-1.359,2.147-3.571,4.314-4.244,3.654-4.38,3.49" transform="translate(-9.947 -4.647)" fill="#263238"/>
            <path id="Path_541" data-name="Path 541" d="M80.453,42.912c-.218,0-.394-2.422-.394-5.411s.177-5.412.394-5.412.393,2.422.393,5.412-.176,5.411-.393,5.411" transform="translate(-5.269 -2.112)" fill="#263238"/>
            <path id="Path_542" data-name="Path 542" d="M85.948,42.912c-.218,0-.394-2.422-.394-5.411s.177-5.412.394-5.412.393,2.422.393,5.412-.176,5.411-.393,5.411" transform="translate(-5.63 -2.112)" fill="#263238"/>
            <path id="Path_543" data-name="Path 543" d="M91.442,42.912c-.218,0-.393-2.422-.393-5.411s.176-5.412.393-5.412.393,2.422.393,5.412-.176,5.411-.393,5.411" transform="translate(-5.992 -2.112)" fill="#263238"/>
            <path id="Path_544" data-name="Path 544" d="M96.937,42.912c-.218,0-.394-2.422-.394-5.411s.177-5.412.394-5.412.393,2.422.393,5.412-.176,5.411-.393,5.411" transform="translate(-6.353 -2.112)" fill="#263238"/>
            <path id="Path_545" data-name="Path 545" d="M102.431,42.912c-.218,0-.394-2.422-.394-5.411s.177-5.412.394-5.412.393,2.422.393,5.412-.176,5.411-.393,5.411" transform="translate(-6.715 -2.112)" fill="#263238"/>
            <path id="Path_546" data-name="Path 546" d="M95.924,125.5a6.856,6.856,0,1,1-6.856-6.856,6.856,6.856,0,0,1,6.856,6.856" transform="translate(-5.41 -7.808)" fill="#ff2a2a"/>
            <path id="Path_547" data-name="Path 547" d="M95.9,125.482c-.07,0-.057-.611-.347-1.64a6.847,6.847,0,0,0-2.512-3.612,6.553,6.553,0,1,0,0,10.5,6.844,6.844,0,0,0,2.511-3.612c.29-1.029.277-1.643.347-1.64.024,0,.04.15.049.441a5.169,5.169,0,0,1-.131,1.266,6.818,6.818,0,0,1-2.475,3.939,7.08,7.08,0,0,1-6.745,1.1,7.155,7.155,0,0,1,0-13.486,7.078,7.078,0,0,1,6.744,1.1,6.82,6.82,0,0,1,2.476,3.939,5.176,5.176,0,0,1,.131,1.266c-.008.291-.024.442-.049.442" transform="translate(-5.385 -7.787)" fill="#263238"/>
          </g>
        </g>
        <g id="Group_78" data-name="Group 78">
          <g id="Group_77" data-name="Group 77" clip-path="url(#clip-path)">
            <path id="Path_548" data-name="Path 548" d="M347.7,146.076l11.719-1.853a39.5,39.5,0,1,0-9.238-10.7l-.016-.016Z" transform="translate(-22.685 -4.874)" fill="#ffefe6"/>
            <path id="Path_549" data-name="Path 549" d="M347.691,146.06s.04-.261.138-.794q.154-.828.446-2.392c.406-2.146,1-5.3,1.78-9.4a.1.1,0,0,1,.121-.083.106.106,0,0,1,.054.029l.016.015-.164.127a39.5,39.5,0,0,1-5.508-18.575,38.638,38.638,0,0,1,.235-6.113,43.383,43.383,0,0,1,1.326-6.422,39.346,39.346,0,0,1,18.092-23.224,39.756,39.756,0,0,1,16.135-5.214,39.575,39.575,0,0,1,33.321,13.152l1.593,1.866c.494.649.944,1.33,1.415,1.991a39.388,39.388,0,0,1,2.515,4.142c.411.693.677,1.456,1.022,2.178.306.739.694,1.443.931,2.2a38.815,38.815,0,0,1,1.373,4.542,40.341,40.341,0,0,1,.144,18.238,39.638,39.638,0,0,1-33.121,30.338,42.984,42.984,0,0,1-6.583.387,51.031,51.031,0,0,1-6.107-.659,39.162,39.162,0,0,1-17.52-8.1l.078.021-8.76,1.322-2.233.33c-.5.073-.742.1-.742.1s.269-.053.778-.139l2.253-.379,8.672-1.434a.1.1,0,0,1,.079.021,39.2,39.2,0,0,0,17.451,7.947,50.992,50.992,0,0,0,6.058.629,42.848,42.848,0,0,0,6.523-.407,39.339,39.339,0,0,0,32.717-30.079,39.926,39.926,0,0,0-.157-18.021,38.269,38.269,0,0,0-1.359-4.485c-.234-.752-.617-1.447-.92-2.177-.341-.712-.6-1.467-1.011-2.151a38.84,38.84,0,0,0-2.485-4.091c-.466-.653-.91-1.326-1.4-1.966l-1.574-1.843a39.148,39.148,0,0,0-32.913-13.011,39.147,39.147,0,0,0-33.918,28.076,43.193,43.193,0,0,0-1.336,6.36,38.387,38.387,0,0,0-.258,6.061,39.525,39.525,0,0,0,5.367,18.482.1.1,0,0,1-.163.127l-.016-.015.176-.054c-.826,4.062-1.459,7.184-1.891,9.307q-.325,1.579-.5,2.412c-.113.544-.18.831-.18.831" transform="translate(-22.674 -4.858)" fill="#ffc4a7"/>
            <path id="Path_550" data-name="Path 550" d="M399.8,117.2a4,4,0,1,1,4,4,4,4,0,0,1-4-4" transform="translate(-26.311 -7.449)" fill="#ff2a2a"/>
            <path id="Path_551" data-name="Path 551" d="M382.65,117.2a4,4,0,1,1,4,4,4,4,0,0,1-4-4" transform="translate(-25.182 -7.449)" fill="#ff2a2a"/>
            <path id="Path_552" data-name="Path 552" d="M365.5,119.2a4,4,0,1,1,5.471,1.466A4,4,0,0,1,365.5,119.2" transform="translate(-24.018 -7.449)" fill="#ff2a2a"/>
          </g>
        </g>
        <g id="Group_86" data-name="Group 86">
          <g id="Group_85" data-name="Group 85" clip-path="url(#clip-path)">
            <path id="Path_553" data-name="Path 553" d="M64.52,270.616c-2.465-1.17-6.6-3.6-9.155-4.56a12.132,12.132,0,0,0-8.007-.543c-1.512.506-3.014,1.707-3.024,3.3l10.045,7.365,10.141-2.668Z" transform="translate(-2.918 -17.443)" fill="#ff9b6c"/>
            <path id="Path_554" data-name="Path 554" d="M50.82,269.847s-18.046-3.91-21.015-5.458-18.728-9.436-21.342-9.436-4.87.713-5.345,3.327l3.432,2.667.436,1.363,5.867,3.057,1.073,1.97,14.927,7.976s15.679,7.958,18.292,8.433,15.679,1.544,21.262,6.3l22.421-9.2s-6.479-9.2-11.461-11.463c-4.446-2.018-11.91-2.023-17.137.115Z" transform="translate(-0.205 -16.778)" fill="#ffc09d"/>
            <path id="Path_555" data-name="Path 555" d="M70.241,286.738s28.54,62.235,33.132,74.7c0,0,31.9-5.243,33-22.954L95.246,282.439Z" transform="translate(-4.622 -18.587)" fill="#ffc09d"/>
            <path id="Path_556" data-name="Path 556" d="M40.033,271.767c0,.017-.106.014-.305-.007a5.024,5.024,0,0,1-.859-.173,18.779,18.779,0,0,1-2.971-1.2c-1.217-.588-2.625-1.362-4.176-2.23-.777-.433-1.59-.891-2.442-1.334s-1.771-.815-2.712-1.228a38.261,38.261,0,0,0-5.4-1.964,8.8,8.8,0,0,0-4.542-.33,3.77,3.77,0,0,0-2.1,2.117,10.7,10.7,0,0,1-.477,1.063c-.016,0,0-.108.046-.3a5.674,5.674,0,0,1,.257-.835,5.069,5.069,0,0,1,.664-1.229,3.265,3.265,0,0,1,1.49-1.137,5.106,5.106,0,0,1,2.25-.221,16.632,16.632,0,0,1,2.518.441,35.672,35.672,0,0,1,5.482,1.951c.938.411,1.874.788,2.741,1.252s1.67.924,2.442,1.367c1.54.89,2.923,1.692,4.11,2.313a24.4,24.4,0,0,0,2.874,1.327c.7.257,1.113.312,1.106.361" transform="translate(-0.924 -17.29)" fill="#ff9b6c"/>
            <path id="Path_557" data-name="Path 557" d="M22.374,262.542a10.322,10.322,0,0,1-2.526-.874,49.912,49.912,0,0,0-5.93-2.367,9.169,9.169,0,0,0-3.412-.292,3.368,3.368,0,0,0-2.407,1.12,3.976,3.976,0,0,0-.708,1.713,2.243,2.243,0,0,1-.135.7,1.924,1.924,0,0,1-.053-.723,3.723,3.723,0,0,1,.622-1.9A3.129,3.129,0,0,1,8.908,259a4.769,4.769,0,0,1,1.547-.44,9.122,9.122,0,0,1,3.6.269,36.064,36.064,0,0,1,5.941,2.523,24.044,24.044,0,0,1,2.381,1.186" transform="translate(-0.474 -17.011)" fill="#ff9b6c"/>
            <path id="Path_558" data-name="Path 558" d="M70.2,269.017a2.531,2.531,0,0,1-.732.32c-.48.181-1.19.4-2.078.634a34.416,34.416,0,0,1-14.246.621c-.9-.156-1.631-.313-2.125-.451a2.54,2.54,0,0,1-.758-.256c.018-.077,1.127.144,2.932.366a42.005,42.005,0,0,0,14.118-.615c1.78-.379,2.866-.7,2.889-.62" transform="translate(-3.307 -17.703)" fill="#ff9b6c"/>
            <path id="Path_559" data-name="Path 559" d="M338.834,228.311l-41.565-8.595-10.216-7.707-54.844,10.576c-.874,1.6-9.764,13.98-9.764,13.98L200.851,243.9a45.445,45.445,0,0,0-23.433,14.964,96.693,96.693,0,0,0-13.982,23.45c-9.717,22.8-23.74,49.146-23.74,49.146L130.9,317.3,93.86,334.746s21.7,43.755,28.885,50c7.986,6.944,26.347,7.743,39.044-5.205,7.654-7.806,29.767-38.677,34.374-46.4l6.8,32.316,6.292,36.878-10.165,25.375H347.436L341.3,403.726s6.047-62.534,7.715-74.165c3.936-27.455-10.179-101.25-10.179-101.25" transform="translate(-6.177 -13.952)" fill="#ff2a2a"/>
            <path id="Path_560" data-name="Path 560" d="M355.83,229.459s29.707,8.335,36.246,37.858c3.962,17.893,17.415,68.885,22.147,110.873,2.812,24.96,2.724,48.029,2.812,50.668H371.445L352.12,237.792Z" transform="translate(-23.173 -15.1)" fill="#ff2a2a"/>
            <path id="Path_561" data-name="Path 561" d="M271.747,255.522a1.228,1.228,0,0,1-.125.307l-.423.859c-.368.753-.9,1.856-1.54,3.272-1.312,2.814-2.866,6.965-5.366,11.605l-.128.236-.206-.176c-3.08-2.625-6.429-5.783-9.885-9.2-6.113-6.07-11.477-11.724-15.442-15.732l-4.71-4.734-1.287-1.28a3.2,3.2,0,0,1-.427-.471,3.117,3.117,0,0,1,.494.4l1.351,1.215c1.157,1.072,2.816,2.644,4.822,4.627,4.032,3.949,9.436,9.567,15.541,15.63,3.451,3.408,6.78,6.57,9.828,9.207l-.334.061c2.514-4.581,4.129-8.715,5.513-11.5.674-1.4,1.245-2.492,1.654-3.226l.483-.83a1.167,1.167,0,0,1,.188-.273" transform="translate(-15.281 -15.808)"/>
            <path id="Path_562" data-name="Path 562" d="M310.2,221.383a3.27,3.27,0,0,1-.089.654c-.088.474-.2,1.092-.348,1.861-.337,1.609-.9,3.922-1.7,6.75-1.611,5.653-4.226,13.343-7.438,21.71-1.7,4.429-3.385,8.609-4.955,12.323l-.12.284-.232-.2c-4.234-3.734-8.026-6.676-10.6-8.867-1.294-1.087-2.3-1.965-2.977-2.58l-.765-.713a1.357,1.357,0,0,1-.246-.264,1.387,1.387,0,0,1,.294.21l.809.66,3.055,2.481c2.618,2.131,6.443,5.019,10.723,8.742l-.352.079c1.542-3.716,3.209-7.9,4.91-12.325,3.208-8.357,5.87-16.017,7.561-21.632.841-2.809,1.452-5.1,1.846-6.694.18-.759.325-1.37.435-1.838a3.4,3.4,0,0,1,.185-.635" transform="translate(-18.474 -14.569)"/>
            <path id="Path_563" data-name="Path 563" d="M208.782,365.712a.79.79,0,0,1-.082-.212l-.2-.635-.7-2.458c-.317-1.065-.63-2.387-1-3.919-.391-1.529-.773-3.284-1.177-5.228a259.577,259.577,0,0,1-4.353-30.7c-1.052-12.075-1.285-23.054-1.234-30.991.033-3.969.109-7.18.219-9.4q.08-1.616.125-2.553c.019-.267.033-.485.045-.663a.783.783,0,0,1,.033-.225.867.867,0,0,1,.018.227c0,.179,0,.4,0,.665-.008.624-.02,1.477-.034,2.554-.051,2.218-.076,5.428-.064,9.392.036,7.929.323,18.891,1.374,30.949a283.877,283.877,0,0,0,4.206,30.675c.381,1.945.74,3.7,1.105,5.233.348,1.536.633,2.863.921,3.934l.616,2.479c.059.261.108.474.148.648a.786.786,0,0,1,.035.225" transform="translate(-13.163 -18.343)"/>
            <path id="Path_564" data-name="Path 564" d="M358.729,264.521a1.31,1.31,0,0,1,.128.255l.33.768c.293.711.7,1.706,1.227,2.973.259.648.566,1.362.865,2.157q.409,1.211.887,2.619l1.016,3.012.94,3.439c2.781,9.617,4.2,23.519,3.393,38.742-.821,15.228-2.6,28.914-3.7,38.829-.572,4.931-1.035,8.933-1.36,11.739-.165,1.358-.3,2.427-.388,3.189-.047.342-.084.615-.113.829a1.236,1.236,0,0,1-.055.28,1.3,1.3,0,0,1,.006-.286c.017-.214.038-.49.065-.833.071-.765.17-1.837.3-3.2.263-2.778.674-6.8,1.207-11.757,1.015-9.924,2.734-23.616,3.554-38.813.8-15.192-.554-29.024-3.24-38.633q-.475-1.8-.9-3.437-.52-1.6-.978-3.015l-.848-2.626c-.285-.8-.578-1.516-.824-2.168l-1.14-3-.285-.786a1.3,1.3,0,0,1-.082-.275" transform="translate(-23.607 -17.408)"/>
            <path id="Path_565" data-name="Path 565" d="M143.126,371.7c-.135,0-.291-7.123-.349-15.909s0-15.913.137-15.914.291,7.121.349,15.911,0,15.911-.137,15.912" transform="translate(-9.394 -22.367)"/>
            <path id="Path_566" data-name="Path 566" d="M286.954,409.5a2.321,2.321,0,0,1,.027-.391c.032-.279.075-.657.129-1.141.127-1.026.308-2.5.541-4.379.121-.952.256-2.008.4-3.162.123-1.16.257-2.42.4-3.77.272-2.707.646-5.784.892-9.2q.21-2.562.44-5.358c.149-1.863.234-3.806.361-5.814.279-4.018.4-8.319.558-12.842.207-9.051.174-19.009-.294-29.447-.514-10.44-1.415-20.358-2.471-29.351-.588-4.489-1.106-8.762-1.761-12.734-.316-1.99-.582-3.916-.905-5.756s-.641-3.606-.941-5.291c-.565-3.378-1.227-6.406-1.753-9.076l-.753-3.715c-.254-1.135-.488-2.174-.7-3.11-.407-1.852-.727-3.3-.949-4.308-.1-.476-.177-.848-.235-1.124a2.24,2.24,0,0,1-.064-.387,2.461,2.461,0,0,1,.112.375c.069.274.163.643.282,1.114.244,1,.592,2.446,1.039,4.288.223.934.47,1.971.74,3.1l.792,3.71c.551,2.666,1.237,5.69,1.824,9.068q.465,2.528.972,5.291c.334,1.84.609,3.768.933,5.757.674,3.976,1.208,8.25,1.808,12.742,1.082,9,2,18.93,2.512,29.383.469,10.451.489,20.42.257,29.481-.176,4.529-.306,8.834-.6,12.854-.135,2.01-.23,3.954-.389,5.819s-.321,3.651-.472,5.358c-.268,3.417-.667,6.494-.965,9.2q-.237,2.026-.441,3.768-.244,1.729-.446,3.159c-.271,1.878-.484,3.344-.632,4.368-.075.48-.134.857-.177,1.134a2.394,2.394,0,0,1-.077.384" transform="translate(-18.419 -17.054)"/>
            <path id="Path_567" data-name="Path 567" d="M308.59,311.822a1.035,1.035,0,0,1,.188-.032l.583-.07,2.3-.255,8.747-.932,31.159-3.225.231-.024.007.234c.241,9.433.514,20.1.8,31.408l0,.1-.068.073-3.759,4.039-13.606,14.6-.12.129-.157-.078L311.941,346.4l-.1-.05-.011-.109c-1-10.418-1.824-19.035-2.4-25.074-.276-2.973-.491-5.309-.642-6.929q-.1-1.16-.158-1.807c-.033-.406-.038-.605-.038-.605s.037.225.086.644l.207,1.839c.175,1.627.427,3.976.747,6.963.626,6,1.518,14.571,2.6,24.928l-.11-.16L335.1,357.368l-.277.05,13.6-14.613,3.76-4.039-.065.171c-.27-11.314-.525-21.977-.75-31.409l.237.209-31.042,3-8.807.823-2.343.208-.608.049a1.473,1.473,0,0,1-.215.009" transform="translate(-20.308 -20.222)"/>
            <path id="Path_568" data-name="Path 568" d="M351.971,319.185a10.627,10.627,0,0,1-1.617.308c-1.045.169-2.563.381-4.441.622-3.755.484-8.958,1.034-14.706,1.582l-14.714,1.44-4.456.468a10.569,10.569,0,0,1-1.641.121,10.6,10.6,0,0,1,1.617-.308c1.045-.169,2.562-.381,4.44-.622,3.755-.484,8.958-1.034,14.708-1.582l14.714-1.44,4.456-.468a10.558,10.558,0,0,1,1.641-.121" transform="translate(-20.427 -21.004)"/>
            <g id="Group_81" data-name="Group 81" transform="translate(338.384 255.653)" opacity="0.3">
              <g id="Group_80" data-name="Group 80">
                <g id="Group_79" data-name="Group 79" clip-path="url(#clip-path-7)">
                  <path id="Path_569" data-name="Path 569" d="M364.4,352.932l1.569,19.089c3.463-16.35,8.908-33.92,8.063-50.612-.84-16.583-2.417-32.643-11.816-47.747a94.855,94.855,0,0,1,5.515,35.491c-.859,19.529-3.331,43.779-3.331,43.779" transform="translate(-362.221 -273.662)"/>
                </g>
              </g>
            </g>
            <path id="Path_570" data-name="Path 570" d="M133.276,320.291a5.315,5.315,0,0,0-2.525-2.643c-1.312-.452-2.724.181-3.967.8l-33.9,16.878c-2.225,1.108-4.644,2.425-5.487,4.763-1.078,2.99.889,6.142,2.76,8.712,3.125,4.294,6.859,8.958,12.133,9.565l29.148-19.992c3.564-.523,5.78-4.49,5.642-8.089s-2-6.878-3.8-9.994" transform="translate(-5.731 -20.894)" fill="#ff2a2a"/>
            <path id="Path_571" data-name="Path 571" d="M137.983,333.563c.011.012-.092.125-.3.327l-.917.869c-.8.749-1.988,1.8-3.478,3.077-2.978,2.55-7.214,5.939-12.1,9.394s-9.5,6.31-12.9,8.263c-1.7.978-3.089,1.743-4.064,2.248l-1.125.574a1.563,1.563,0,0,1-.408.171,1.553,1.553,0,0,1,.361-.257l1.08-.653,3.981-2.378c3.35-2.025,7.918-4.921,12.8-8.365s9.134-6.781,12.162-9.261c1.463-1.21,2.67-2.207,3.573-2.956l.977-.8a1.565,1.565,0,0,1,.362-.254" transform="translate(-6.758 -21.951)"/>
            <g id="Group_84" data-name="Group 84" transform="translate(263.321 208.954)" opacity="0.3">
              <g id="Group_83" data-name="Group 83">
                <g id="Group_82" data-name="Group 82" clip-path="url(#clip-path-8)">
                  <path id="Path_572" data-name="Path 572" d="M309.83,223.674c-3.99,13.253-9.578,28.232-14.292,41.07-4.023-3.414-9.646-7.925-13.667-11.338a112.572,112.572,0,0,0,12.414,19.4c.554.7,1.3,1.462,2.179,1.294.827-.16,1.253-1.061,1.551-1.849q3.68-9.728,7.358-19.455c3.434-9.08,6.758-19.691,4.457-29.122" transform="translate(-281.871 -223.674)"/>
                </g>
              </g>
            </g>
            <path id="Path_573" data-name="Path 573" d="M241.886,69.309c12.111-3.5,23.5.03,34.706,5.811s20.234,15.4,26.084,26.567c6.162,11.761,8.889,25.471,6.658,38.559s-9.626,25.416-20.712,32.722c-15.139,9.976-36.006,9.457-51.606.218s-25.85-26.275-28.577-44.2c-1.879-12.349-.351-25.374,5.415-36.455S229.81,72.5,241.886,69.309" transform="translate(-13.667 -4.47)" fill="#263238"/>
            <path id="Path_574" data-name="Path 574" d="M281.049,107.43c-2.34-4.521-2.237-9.873-3.518-14.8-2.822-10.848-12.706-18.683-23.468-21.819-10.01-2.917-21.585-.723-32.678,4.3-7.6,3.444-14.529,8.735-19.065,15.741a34.854,34.854,0,0,0-2.846,31.82l55.481-14.6c5.776,3.772,11.687,7.6,18.369,9.315a11.742,11.742,0,0,0,5.994.272,5.288,5.288,0,0,0,3.978-4.117c.273-2.193-1.23-4.151-2.247-6.114" transform="translate(-12.957 -4.574)" fill="#263238"/>
            <path id="Path_575" data-name="Path 575" d="M294.5,207.308,280.178,106.579c-.632-4.763-2.789-9.615-7.59-9.393l-50.431-4.86c-15.8.73-23.217,21.457-21.818,37.214,1.555,17.506,4.143,38.817,8.172,51.44,8.1,25.383,28.547,25.649,28.547,25.649-.007-.089,1.243,5.043,2.8,14.479l32.7,21.743Z" transform="translate(-13.173 -6.076)" fill="#ffc09d"/>
            <path id="Path_576" data-name="Path 576" d="M213.378,152.414a3.376,3.376,0,0,0,3.731,2.875,3.229,3.229,0,0,0,2.98-3.533,3.377,3.377,0,0,0-3.727-2.877,3.229,3.229,0,0,0-2.984,3.535" transform="translate(-14.041 -9.796)" fill="#263238"/>
            <path id="Path_577" data-name="Path 577" d="M207.072,142.9c.479.372,2.722-1.884,6.313-2.423,3.58-.589,6.5.856,6.82.356.162-.223-.38-.944-1.654-1.6a9.271,9.271,0,0,0-5.541-.823,8.9,8.9,0,0,0-4.943,2.472c-.974,1.015-1.228,1.86-.995,2.023" transform="translate(-13.622 -9.1)" fill="#263238"/>
            <path id="Path_578" data-name="Path 578" d="M248.906,146.639a3.373,3.373,0,0,0,3.73,2.875,3.228,3.228,0,0,0,2.98-3.532,3.376,3.376,0,0,0-3.728-2.877,3.229,3.229,0,0,0-2.982,3.535" transform="translate(-16.379 -9.416)" fill="#263238"/>
            <path id="Path_579" data-name="Path 579" d="M243.619,137.806c.481.372,2.726-1.884,6.315-2.422,3.579-.59,6.5.855,6.819.356.161-.224-.376-.945-1.654-1.6a9.248,9.248,0,0,0-5.541-.824,8.9,8.9,0,0,0-4.943,2.472c-.972,1.015-1.228,1.86-1,2.023" transform="translate(-16.027 -8.766)" fill="#263238"/>
            <path id="Path_580" data-name="Path 580" d="M234.692,166.674c-.014-.206-2.3-.251-5.991-.162-.931.045-1.827,0-2.077-.606a4.718,4.718,0,0,1,.2-2.811q.785-3.524,1.646-7.394c2.247-10.513,3.725-19.1,3.3-19.189s-2.59,8.365-4.837,18.878q-.8,3.883-1.525,7.419c-.189,1.094-.6,2.367.073,3.67a2.328,2.328,0,0,0,1.712,1.11,6.246,6.246,0,0,0,1.59-.021c3.669-.36,5.929-.688,5.912-.894" transform="translate(-14.814 -8.984)" fill="#263238"/>
            <path id="Path_581" data-name="Path 581" d="M239.656,213.652a66.945,66.945,0,0,0,33.421-14.613s-8.155,20.408-31.787,22.463Z" transform="translate(-15.771 -13.098)" fill="#ff9b6c"/>
            <path id="Path_582" data-name="Path 582" d="M238.389,177.581a6.544,6.544,0,0,1,5.432-3.288,5.972,5.972,0,0,1,4.412,1.566,3.784,3.784,0,0,1,.938,4.236c-.76,1.511-2.737,2.134-4.524,1.909a13.764,13.764,0,0,1-5.007-2.038,4.024,4.024,0,0,1-1.187-.905,1.213,1.213,0,0,1-.2-1.337" transform="translate(-15.671 -11.47)" fill="#ff9b6c"/>
            <path id="Path_583" data-name="Path 583" d="M246.379,169.731c-.589.055,0,3.953-2.915,7.229s-7.127,3.48-7.074,4.029c-.017.252,1.041.616,2.8.4a9.809,9.809,0,0,0,5.939-3.144,8.546,8.546,0,0,0,2.194-6.022c-.1-1.652-.682-2.55-.945-2.488" transform="translate(-15.557 -11.17)" fill="#263238"/>
            <path id="Path_584" data-name="Path 584" d="M242.542,126.373c.5.922,4.017-.088,8.306-.223,4.288-.221,7.872.492,8.3-.468.185-.457-.547-1.285-2.065-2.021a14.45,14.45,0,0,0-12.65.527c-1.451.859-2.111,1.745-1.889,2.185" transform="translate(-15.959 -8.058)" fill="#263238"/>
            <path id="Path_585" data-name="Path 585" d="M205.617,125.908c.755.718,3.1-.505,6.067-1,2.951-.6,5.576-.291,6.026-1.232.191-.452-.331-1.209-1.548-1.812a8.9,8.9,0,0,0-9.745,1.8c-.923,1-1.14,1.891-.8,2.247" transform="translate(-13.521 -7.971)" fill="#263238"/>
            <path id="Path_586" data-name="Path 586" d="M290.774,98.788c-6.8-14.419-31.409-32.33-47.027-29.126L220.585,88.119a24.517,24.517,0,0,0,18.963,16.388c4.632.761,10.043.419,13.2,3.894,3.225,3.548,2.4,9.451,5.458,13.147,4.232,5.121,13.727,3.585,17.149,9.28,1.495,2.488,1.319,5.722,2.858,8.184,2.052,3.279,11.478,6.525,14.977,4.879s2.68-7.87,3.441-11.29c1.3-5.843.071-8.619-1.015-11.641-2.575-7.159-1.594-15.292-4.84-22.172" transform="translate(-14.516 -4.56)" fill="#263238"/>
            <path id="Path_587" data-name="Path 587" d="M287.2,153.4c-.29-1.938,1.251-6.847,3.118-7.438,4.988-1.577,14.259-2.572,16.326,10.39,2.825,17.719-15.548,16.9-15.66,16.4-.087-.393-2.779-12.657-3.784-19.349" transform="translate(-18.898 -9.546)" fill="#ffc09d"/>
            <path id="Path_588" data-name="Path 588" d="M295.846,165.557c.069-.069.344.166.9.323a3.126,3.126,0,0,0,2.315-.32c1.763-.986,2.865-4.209,2.442-7.417a10.324,10.324,0,0,0-1.569-4.282,3.608,3.608,0,0,0-2.7-2A1.592,1.592,0,0,0,295.55,153c-.158.535.011.871-.078.915-.042.053-.427-.235-.4-.989a2.007,2.007,0,0,1,.52-1.222,2.358,2.358,0,0,1,1.636-.723,4.392,4.392,0,0,1,3.662,2.233,10.6,10.6,0,0,1,1.857,4.769c.456,3.588-.839,7.22-3.283,8.369a3.347,3.347,0,0,1-2.9-.02c-.618-.348-.774-.731-.718-.773" transform="translate(-19.418 -9.935)" fill="#ff9b6c"/>
            <path id="Path_589" data-name="Path 589" d="M223.218,83.052c-.819,7.439-10.789,17.983-14.987,24.178-8.011,11.817-9.426,15.6-6.61,39.669-5.3-7.824-9.56-15.6-10.287-25.016s1.667-19.214,7.424-26.7,15.016-12.42,24.461-12.127" transform="translate(-12.583 -5.465)" fill="#263238"/>
            <path id="Path_590" data-name="Path 590" d="M270.45,55.271c3.765-4.124,9.137-6.807,14.741-8.206a36.222,36.222,0,0,1,24.031,2.018c7.275,3.474,12.889,9.973,14.386,17.463a21.445,21.445,0,0,1-7.738,20.774,36,36,0,0,0,14.771,8.652c-1.515,2.268-4.311,3.6-7.129,4.075a32.717,32.717,0,0,1-8.535-.058,14.683,14.683,0,0,0,8.161,5.955,27.1,27.1,0,0,1-13.912-.448,54.412,54.412,0,0,1-12.58-5.652c-13.666-7.939-21.2-14.884-30.437-27.137-1.238-5.214.476-13.31,4.24-17.435" transform="translate(-17.493 -3.021)" fill="#263238"/>
            <path id="Path_591" data-name="Path 591" d="M299.893,94.246c-10.028-14.649-22.8-22.494-34.356-24.93" transform="translate(-17.475 -4.562)" fill="#263238"/>
            <path id="Path_592" data-name="Path 592" d="M265.537,69.316a10.591,10.591,0,0,0,1.637.5c1.056.3,2.577.76,4.408,1.455A54.4,54.4,0,0,1,284.893,78.7,68.358,68.358,0,0,1,295.932,89.27c1.236,1.523,2.237,2.757,2.883,3.647a10.647,10.647,0,0,0,1.078,1.328,10.424,10.424,0,0,0-.911-1.449c-.6-.929-1.555-2.2-2.761-3.764a62.462,62.462,0,0,0-11.009-10.754,50.753,50.753,0,0,0-13.5-7.362,39.119,39.119,0,0,0-4.486-1.3,10.519,10.519,0,0,0-1.687-.3" transform="translate(-17.475 -4.561)" fill="#455a64"/>
            <path id="Path_593" data-name="Path 593" d="M309.217,107.521a.828.828,0,0,0-.23.073l-.647.261c-.561.247-1.41.564-2.506.949a40.861,40.861,0,0,1-9.62,1.963,52.689,52.689,0,0,1-14.516-.913,93.95,93.95,0,0,1-17.057-5.312c-5.884-2.4-11.43-4.868-16.373-7.29a97.729,97.729,0,0,1-12.641-7.32,62.653,62.653,0,0,1-7.643-6.2c-.855-.792-1.471-1.454-1.9-1.892l-.494-.494a.844.844,0,0,0-.182-.156.824.824,0,0,0,.142.192l.456.53c.405.462,1,1.149,1.835,1.966a57.665,57.665,0,0,0,7.572,6.364,94.1,94.1,0,0,0,12.639,7.451c4.95,2.457,10.49,4.934,16.391,7.346a92.221,92.221,0,0,0,17.164,5.3,51.933,51.933,0,0,0,14.642.806A38.793,38.793,0,0,0,305.9,109c1.093-.417,1.932-.767,2.48-1.045l.629-.31a.785.785,0,0,0,.206-.121" transform="translate(-14.834 -5.343)" fill="#455a64"/>
            <path id="Path_594" data-name="Path 594" d="M258.336,200.973l-1.7-3.327c.119-.06,11.847-6.085,16.36-9.875,10.629-8.931,20.408-23.2,20.506-23.342l3.087,2.1c-.409.6-10.159,14.831-21.19,24.1-4.834,4.063-16.563,10.087-17.059,10.341" transform="translate(-16.889 -10.821)" fill="#455a64"/>
            <path id="Path_595" data-name="Path 595" d="M266.675,192.5s-16.046,7.149-16.046,8.738,2.542,4.765,4.448,4.606,7.417-3.258,8.37-4.529,2.746-4.536,4.652-6.126Z" transform="translate(-16.494 -12.668)" fill="#263238"/>
            <path id="Path_596" data-name="Path 596" d="M294.928,136.19l-3.733-.177a87.488,87.488,0,0,0-5.478-31.652c-8.108-20.881-23.692-32.1-46.319-33.333a27.85,27.85,0,0,0-6.154.42l1.636-1.542a9.1,9.1,0,0,1,2.719-1.768,9.222,9.222,0,0,1,4.363-.674c28.572,2.473,41.476,20.633,47.281,35.655a89.689,89.689,0,0,1,5.685,33.071" transform="translate(-15.349 -4.437)" fill="#455a64"/>
            <path id="Path_597" data-name="Path 597" d="M308.282,157.957c0,9.4-5.3,17.017-11.84,17.017s-11.84-7.618-11.84-17.017,5.3-17.017,11.84-17.017,11.84,7.618,11.84,17.017" transform="translate(-18.729 -9.275)" fill="#455a64"/>
            <path id="Path_598" data-name="Path 598" d="M308.265,157.943a.863.863,0,0,1-.033-.235c-.013-.184-.029-.411-.049-.69-.018-.607-.12-1.5-.279-2.637a20.079,20.079,0,0,0-3.652-8.9,13.185,13.185,0,0,0-2.224-2.288,9.959,9.959,0,0,0-3.015-1.632,8.4,8.4,0,0,0-3.625-.347,9.32,9.32,0,0,0-3.62,1.354,14.334,14.334,0,0,0-5.174,6.5,23.174,23.174,0,0,0,0,17.742,14.34,14.34,0,0,0,5.175,6.5,9.325,9.325,0,0,0,3.62,1.354,8.413,8.413,0,0,0,3.626-.347,9.961,9.961,0,0,0,3.015-1.633,13.185,13.185,0,0,0,2.224-2.288,20.073,20.073,0,0,0,3.651-8.9c.16-1.14.262-2.03.279-2.637.02-.279.036-.506.049-.69a.119.119,0,1,1,.049,0v.693a21.693,21.693,0,0,1-.19,2.661,19.813,19.813,0,0,1-3.566,9.079,13.383,13.383,0,0,1-2.264,2.373,10.3,10.3,0,0,1-3.122,1.722,8.8,8.8,0,0,1-3.806.388,9.728,9.728,0,0,1-3.806-1.4A14.742,14.742,0,0,1,286.156,167a23.528,23.528,0,0,1,0-18.121,14.74,14.74,0,0,1,5.372-6.693,9.728,9.728,0,0,1,3.806-1.4,8.812,8.812,0,0,1,3.8.387,10.3,10.3,0,0,1,3.122,1.723,13.346,13.346,0,0,1,2.264,2.372,19.8,19.8,0,0,1,3.567,9.08,21.693,21.693,0,0,1,.19,2.662v.693a.858.858,0,0,1-.017.236" transform="translate(-18.712 -9.261)" fill="#263238"/>
            <path id="Path_599" data-name="Path 599" d="M306.232,157.369c0,5.983-3.374,10.833-7.537,10.833s-7.536-4.85-7.536-10.833,3.374-10.833,7.536-10.833,7.537,4.85,7.537,10.833" transform="translate(-19.161 -9.643)" fill="#455a64"/>
            <path id="Path_600" data-name="Path 600" d="M306.215,157.354c-.055,0-.036-.817-.263-2.264a12.831,12.831,0,0,0-2.34-5.631A6.984,6.984,0,0,0,300.3,147a5.278,5.278,0,0,0-2.275-.213,5.849,5.849,0,0,0-2.27.853,9.051,9.051,0,0,0-3.258,4.106,14.684,14.684,0,0,0,0,11.225,9.058,9.058,0,0,0,3.259,4.106,5.849,5.849,0,0,0,2.27.853,5.262,5.262,0,0,0,2.275-.213,6.981,6.981,0,0,0,3.308-2.464,12.831,12.831,0,0,0,2.34-5.631c.227-1.445.208-2.264.263-2.263a2.685,2.685,0,0,1,.028.592,12.946,12.946,0,0,1-.1,1.7,12.55,12.55,0,0,1-2.253,5.813,7.282,7.282,0,0,1-3.456,2.638,5.666,5.666,0,0,1-2.455.254,6.255,6.255,0,0,1-2.456-.9,9.455,9.455,0,0,1-3.456-4.3,15.041,15.041,0,0,1,0-11.6,9.453,9.453,0,0,1,3.456-4.294,6.256,6.256,0,0,1,2.455-.9,5.677,5.677,0,0,1,2.455.253,7.285,7.285,0,0,1,3.456,2.639,12.551,12.551,0,0,1,2.254,5.813,12.947,12.947,0,0,1,.1,1.7,2.685,2.685,0,0,1-.028.592" transform="translate(-19.144 -9.629)" fill="#263238"/>
            <path id="Path_601" data-name="Path 601" d="M304.823,157.583c0,4.3-2.427,7.792-5.422,7.792s-5.421-3.488-5.421-7.792,2.427-7.793,5.421-7.793,5.422,3.489,5.422,7.793" transform="translate(-19.346 -9.857)" fill="#455a64"/>
            <path id="Path_602" data-name="Path 602" d="M304.806,157.568c-.049,0-.045-.588-.216-1.624a9.276,9.276,0,0,0-1.7-4.026,4.979,4.979,0,0,0-2.359-1.748,3.76,3.76,0,0,0-3.218.46c-2.029,1.341-3.107,4.141-3.112,6.937s1.083,5.6,3.112,6.939a3.76,3.76,0,0,0,3.218.46,4.981,4.981,0,0,0,2.359-1.749,9.273,9.273,0,0,0,1.7-4.025c.171-1.036.167-1.625.216-1.624a1.407,1.407,0,0,1,.034.427,8.709,8.709,0,0,1-.063,1.225,8.987,8.987,0,0,1-1.609,4.207,5.283,5.283,0,0,1-2.506,1.923,4.138,4.138,0,0,1-1.792.189,4.571,4.571,0,0,1-1.793-.653,6.853,6.853,0,0,1-2.514-3.116,10.88,10.88,0,0,1,0-8.4,6.861,6.861,0,0,1,2.514-3.116,4.571,4.571,0,0,1,1.793-.653,4.138,4.138,0,0,1,1.792.189,5.281,5.281,0,0,1,2.506,1.923,8.973,8.973,0,0,1,1.61,4.207,8.709,8.709,0,0,1,.063,1.225,1.413,1.413,0,0,1-.034.427" transform="translate(-19.329 -9.843)" fill="#263238"/>
          </g>
        </g>
      </g>
    </g>
  </g>
</svg>
