<svg width="25" height="25" viewBox="0 0 25 25" fill="none" xmlns="http://www.w3.org/2000/svg">
<rect x="0.799988" y="0.299805" width="24" height="24" rx="12" fill="url(#paint0_linear_157_11924)"/>
<path d="M5.521 19.2817L6.54993 15.5453C5.9138 14.4486 5.58009 13.2066 5.58357 11.9369C5.58357 7.95837 8.83722 4.72363 12.8313 4.72363C14.771 4.72363 16.5925 5.47437 17.9586 6.83745C19.3282 8.20054 20.0825 10.0134 20.079 11.9404C20.079 15.9189 16.8254 19.1537 12.8278 19.1537H12.8243C11.6112 19.1537 10.4189 18.8492 9.35864 18.2749L5.521 19.2817ZM9.54287 16.9706L9.76187 17.1021C10.6865 17.6487 11.7467 17.9359 12.8278 17.9393H12.8313C16.151 17.9393 18.8554 15.2512 18.8554 11.9438C18.8554 10.342 18.2297 8.83711 17.093 7.70236C15.9563 6.5676 14.4407 5.94487 12.8313 5.94487C9.51159 5.94142 6.80716 8.62953 6.80716 11.9369C6.80716 13.0682 7.12349 14.1718 7.72834 15.1267L7.87086 15.355L7.26254 17.5657L9.54287 16.9706Z" fill="white"/>
<path d="M5.77478 19.0295L6.76895 15.4211C6.15368 14.3659 5.8304 13.1655 5.8304 11.9408C5.83387 8.10059 8.97282 4.97656 12.8313 4.97656C14.705 4.97656 16.4604 5.70308 17.7813 7.01773C19.1023 8.33238 19.8288 10.0829 19.8288 11.9442C19.8288 15.7844 16.6863 18.9084 12.8313 18.9084H12.8278C11.6564 18.9084 10.5058 18.6143 9.48381 18.0608L5.77478 19.0295Z" fill="url(#paint1_linear_157_11924)"/>
<path d="M5.521 19.2817L6.54993 15.5453C5.9138 14.4486 5.58009 13.2066 5.58357 11.9369C5.58357 7.95837 8.83722 4.72363 12.8313 4.72363C14.771 4.72363 16.5925 5.47437 17.9586 6.83745C19.3282 8.20054 20.0825 10.0134 20.079 11.9404C20.079 15.9189 16.8254 19.1537 12.8278 19.1537H12.8243C11.6112 19.1537 10.4189 18.8492 9.35864 18.2749L5.521 19.2817ZM9.54287 16.9706L9.76187 17.1021C10.6865 17.6487 11.7467 17.9359 12.8278 17.9393H12.8313C16.151 17.9393 18.8554 15.2512 18.8554 11.9438C18.8554 10.342 18.2297 8.83711 17.093 7.70236C15.9563 6.5676 14.4407 5.94487 12.8313 5.94487C9.51159 5.94142 6.80716 8.62953 6.80716 11.9369C6.80716 13.0682 7.12349 14.1718 7.72834 15.1267L7.87086 15.355L7.26254 17.5657L9.54287 16.9706Z" fill="url(#paint2_linear_157_11924)"/>
<path fill-rule="evenodd" clip-rule="evenodd" d="M11.0202 8.92029C10.8846 8.61931 10.7421 8.61239 10.6135 8.60893C10.5092 8.60547 10.3875 8.60547 10.2659 8.60547C10.1442 8.60547 9.94953 8.65044 9.78268 8.83034C9.61583 9.01024 9.15002 9.44615 9.15002 10.3353C9.15002 11.2209 9.80006 12.0789 9.89044 12.2C9.98082 12.3211 11.1453 14.1997 12.9842 14.9227C14.5137 15.5247 14.8265 15.4036 15.1568 15.3725C15.487 15.3413 16.2274 14.9366 16.3804 14.5145C16.5298 14.0924 16.5298 13.7326 16.4847 13.6565C16.4395 13.5804 16.3178 13.5354 16.137 13.4455C15.9563 13.3555 15.0664 12.9196 14.8995 12.8573C14.7327 12.7985 14.611 12.7674 14.4928 12.9473C14.3712 13.1272 14.0236 13.532 13.9193 13.653C13.815 13.7741 13.7072 13.788 13.5265 13.698C13.3457 13.6081 12.7617 13.4178 12.07 12.802C11.5312 12.3245 11.1662 11.733 11.0619 11.5531C10.9576 11.3732 11.0515 11.2763 11.1418 11.1863C11.2218 11.1068 11.3226 10.9753 11.413 10.8715C11.5034 10.7677 11.5346 10.6916 11.5937 10.5705C11.6528 10.4494 11.625 10.3457 11.5798 10.2557C11.5346 10.1692 11.1801 9.27663 11.0202 8.92029Z" fill="white"/>
<defs>
<linearGradient id="paint0_linear_157_11924" x1="12.7994" y1="24.2986" x2="12.7994" y2="0.298965" gradientUnits="userSpaceOnUse">
<stop stop-color="#20B038"/>
<stop offset="1" stop-color="#60D66A"/>
</linearGradient>
<linearGradient id="paint1_linear_157_11924" x1="12.8014" y1="19.0288" x2="12.8014" y2="4.97607" gradientUnits="userSpaceOnUse">
<stop stop-color="#20B038"/>
<stop offset="1" stop-color="#60D66A"/>
</linearGradient>
<linearGradient id="paint2_linear_157_11924" x1="12.8014" y1="19.2803" x2="12.8014" y2="4.72363" gradientUnits="userSpaceOnUse">
<stop stop-color="#F9F9F9"/>
<stop offset="1" stop-color="white"/>
</linearGradient>
</defs>
</svg>
