<svg id="Group_227628" data-name="Group 227628" xmlns="http://www.w3.org/2000/svg" width="35.868" height="32.068" viewBox="0 0 35.868 32.068">
  <path id="Path_220133" data-name="Path 220133" d="M78.78,50.16a1.1,1.1,0,0,1-.506-.126l-2.113-1.111-2.113,1.111a1.108,1.108,0,0,1-1.34-.263,1.084,1.084,0,0,1-.239-.883l.4-2.353-1.709-1.666a1.088,1.088,0,0,1,.6-1.856l2.362-.343,1.056-2.14a1.088,1.088,0,0,1,1.951,0l1.057,2.141,2.362.343a1.088,1.088,0,0,1,.6,1.855l-1.709,1.666.4,2.353A1.089,1.089,0,0,1,78.78,50.16M76.161,47.6a.62.62,0,0,1,.288.071L78.58,48.8l-.407-2.373a.621.621,0,0,1,.178-.548l1.724-1.68-2.383-.346a.62.62,0,0,1-.466-.339l-1.065-2.159L75.1,43.509a.62.62,0,0,1-.466.339l-2.383.346,1.724,1.681a.622.622,0,0,1,.178.548L73.742,48.8l2.131-1.121a.62.62,0,0,1,.288-.071" transform="translate(-48.906 -27.564)" fill="#59606d"/>
  <path id="Path_220134" data-name="Path 220134" d="M68.83,47.157a8.613,8.613,0,1,1,8.613-8.613,8.623,8.623,0,0,1-8.613,8.613m0-15.988a7.375,7.375,0,1,0,7.375,7.375,7.384,7.384,0,0,0-7.375-7.375" transform="translate(-41.576 -20.664)" fill="#59606d"/>
  <path id="Path_220135" data-name="Path 220135" d="M79.962,81.25a.619.619,0,0,0-.619.619l.021,5.058-4.487-3.285c-.007-.006-.015-.009-.023-.014a.631.631,0,0,0-.057-.034c-.018-.009-.035-.018-.053-.025a.566.566,0,0,0-.054-.019.608.608,0,0,0-.062-.016c-.017,0-.035-.005-.052-.007s-.044,0-.066,0l-.053,0a.64.64,0,0,0-.064.009c-.018,0-.035.008-.052.013a.639.639,0,0,0-.063.022c-.016.006-.032.014-.047.022a.649.649,0,0,0-.062.036c-.007,0-.015.008-.022.013l-4.466,3.3V81.877a.619.619,0,0,0-1.238,0v5.062a1.223,1.223,0,0,0,1.949.988l4.121-3.018,4.12,3.017a1.224,1.224,0,0,0,1.95-.987v-5.07a.619.619,0,0,0-.619-.619" transform="translate(-47.253 -56.097)" fill="#59606d"/>
  <path id="Path_220136" data-name="Path 220136" d="M17.709,21.857H2.26A2.262,2.262,0,0,1,0,19.6V2.26A2.262,2.262,0,0,1,2.26,0h26.6a2.262,2.262,0,0,1,2.26,2.26V8.04a.619.619,0,1,1-1.238,0V2.26a1.023,1.023,0,0,0-1.022-1.022H2.26A1.023,1.023,0,0,0,1.238,2.26V19.6A1.022,1.022,0,0,0,2.26,20.619h15.45a.619.619,0,0,1,0,1.238" fill="#59606d"/>
  <path id="Path_220137" data-name="Path 220137" d="M34.47,19.235H19.5A.619.619,0,0,1,19.5,18H34.47a.619.619,0,1,1,0,1.238" transform="translate(-13.036 -12.425)" fill="#59606d"/>
  <path id="Path_220138" data-name="Path 220138" d="M29.212,34.539H19.5a.619.619,0,0,1,0-1.238h9.713a.619.619,0,0,1,0,1.238" transform="translate(-13.036 -22.992)" fill="#59606d"/>
  <path id="Path_220139" data-name="Path 220139" d="M26.643,48.6H19.5a.619.619,0,0,1,0-1.238h7.143a.619.619,0,1,1,0,1.238" transform="translate(-13.036 -32.702)" fill="#59606d"/>
</svg>
