<svg width="35" height="35" viewBox="0 0 35 35" fill="none" xmlns="http://www.w3.org/2000/svg">
<path d="M17.5 0C10.4444 0 4.70435 5.84323 4.70435 13.0256C4.70435 17.0431 6.73626 21.9193 10.7438 27.5189C13.6766 31.617 16.5666 34.5396 16.6882 34.6621C16.9117 34.8871 17.2058 35 17.5002 35C17.7861 35 18.0722 34.8935 18.2939 34.6799C18.4158 34.5625 21.3131 31.7582 24.2514 27.7168C28.2622 22.2001 30.2958 17.2573 30.2958 13.0255C30.2957 5.84323 24.5555 0 17.5 0ZM17.5 18.6489C14.0506 18.6489 11.2444 15.8426 11.2444 12.3932C11.2444 8.94388 14.0507 6.13759 17.5 6.13759C20.9494 6.13759 23.7557 8.94388 23.7557 12.3932C23.7557 15.8426 20.9493 18.6489 17.5 18.6489Z" fill="#BDBDBD"/>
</svg>
