<?xml version="1.0" encoding="utf-8"?>
<!-- Generator: Adobe Illustrator 16.0.0, SVG Export Plug-In . SVG Version: 6.00 Build 0)  -->
<!DOCTYPE svg PUBLIC "-//W3C//DTD SVG 1.1//EN" "http://www.w3.org/Graphics/SVG/1.1/DTD/svg11.dtd">
<svg version="1.1" id="Layer_1" xmlns="http://www.w3.org/2000/svg" xmlns:xlink="http://www.w3.org/1999/xlink" x="0px" y="0px"
	 width="64px" height="64px" viewBox="0 0 64 64" enable-background="new 0 0 64 64" xml:space="preserve">
<g>
	<defs>
		<rect id="SVGID_1_" x="0.243" y="0" width="63.757" height="63.643"/>
	</defs>
	<clipPath id="SVGID_2_">
		<use xlink:href="#SVGID_1_"  overflow="visible"/>
	</clipPath>
	<path clip-path="url(#SVGID_2_)" fill="#ED1C24" d="M41.595,63.644c-5.894,0.019-11.551-2.319-15.712-6.492L6.755,38.074
		c-8.683-8.692-8.683-22.775,0-31.466c1.854-1.845,4.85-1.845,6.704,0l8.27,8.245c1.803,1.811,1.803,4.739,0,6.549
		c-3.634,3.634-3.634,9.526,0,13.161l7.616,7.622c3.635,3.634,9.53,3.634,13.166,0c1.798-1.81,4.72-1.814,6.526-0.017
		c0.006,0.005,0.012,0.011,0.016,0.017l8.271,8.268c1.85,1.844,1.856,4.837,0.013,6.687c-0.003,0.005-0.009,0.009-0.013,0.013
		C53.158,61.329,47.494,63.668,41.595,63.644 M10.11,7.444C9.449,7.443,8.814,7.706,8.345,8.173c-7.81,7.811-7.81,20.474,0,28.285
		l19.103,19.079c7.807,7.811,20.466,7.818,28.278,0.011c0.004-0.003,0.009-0.007,0.013-0.011c0.467-0.467,0.729-1.1,0.729-1.759
		c0.001-0.662-0.262-1.298-0.729-1.765l-8.27-8.271c-0.933-0.931-2.442-0.931-3.375,0c-4.501,4.509-11.806,4.519-16.317,0.017
		c-0.005-0.006-0.011-0.012-0.017-0.017l-3.817-3.798l0.804-0.787l-0.835,0.787l-3.742-3.743c-4.508-4.515-4.508-11.827,0-16.341
		c0.93-0.926,0.933-2.43,0.007-3.36c-0.003-0.002-0.005-0.005-0.007-0.007l-8.302-8.32C11.404,7.704,10.771,7.441,10.11,7.444"/>
	<path clip-path="url(#SVGID_2_)" fill="#ED1C24" d="M62.843,34.212h-0.056c-0.616-0.026-1.094-0.546-1.067-1.162
		c0-0.006,0-0.011,0-0.017c0.816-16.168-11.631-29.936-27.8-30.751c-1.046-0.053-2.095-0.049-3.141,0.01
		c-0.617,0.064-1.169-0.382-1.234-0.999c-0.065-0.616,0.382-1.169,0.999-1.234c0.037-0.003,0.073-0.006,0.11-0.006
		c17.387-1.001,32.293,12.282,33.293,29.668c0.067,1.142,0.071,2.285,0.013,3.424C63.93,33.741,63.439,34.21,62.843,34.212"/>
	<path clip-path="url(#SVGID_2_)" fill="#ED1C24" d="M55.527,33.852h-0.056c-0.619-0.035-1.093-0.561-1.061-1.18
		c0.627-12.122-8.693-22.457-20.815-23.083c-0.802-0.042-1.604-0.039-2.405,0.007c-0.617,0.065-1.17-0.382-1.234-0.999
		c-0.065-0.616,0.382-1.169,0.999-1.234c0.037-0.003,0.073-0.006,0.11-0.006c13.354-0.766,24.799,9.439,25.565,22.792
		c0.049,0.877,0.052,1.757,0.007,2.634C56.607,33.377,56.121,33.846,55.527,33.852"/>
	<path clip-path="url(#SVGID_2_)" fill="#ED1C24" d="M48.236,33.489H48.18c-0.618-0.029-1.097-0.557-1.065-1.176v-0.002
		c0.426-8.105-5.798-15.021-13.902-15.447c-0.536-0.028-1.073-0.027-1.609,0.003c-0.617,0.032-1.145-0.438-1.185-1.054
		c-0.025-0.616,0.455-1.135,1.071-1.16c0.003,0,0.005,0,0.007,0c9.334-0.54,17.337,6.589,17.876,15.922
		c0.036,0.615,0.038,1.231,0.006,1.847C49.351,33.029,48.844,33.504,48.236,33.489"/>
</g>
</svg>
