<svg xmlns="http://www.w3.org/2000/svg" width="185" height="44" viewBox="0 0 185 44">
  <g>
    <path d="M34.15,5.36c-.61.15-1.13.3-1.15.31s-.32,5.16-.42,8.11c-.24,7.16,0,10.47.87,12.22a4.57,4.57,0,0,0,2.16,2.16l.29.13.79-.54c.57-.38.77-.54.71-.57a8.5,8.5,0,0,1-1.31-.92c-1.29-1.26-1.56-2.47-1.56-6.82,0-3.42.19-7.27.62-12.39.08-1,.15-1.88.14-1.92A3.77,3.77,0,0,0,34.15,5.36Z" fill="#ec1e24" fill-rule="evenodd"/>
    <path d="M40.76,5.36l-1.16.31s-.23,3.62-.33,5.8c-.16,3.73-.21,8.46-.1,10.08a16.79,16.79,0,0,0,.53,3.57,4.67,4.67,0,0,0,2.43,3l.37.18.8-.54.8-.53L43.71,27a4.56,4.56,0,0,1-1.84-1.8,6.51,6.51,0,0,1-.65-2.51c-.08-.73-.08-5.93,0-7.64.15-2.92.35-6,.58-8.63l.11-1.33Z" fill="#ec1e24" fill-rule="evenodd"/>
    <path d="M132.88,5.37l-2,.27V28h3.82v-.19c0-1,.17-4.9.24-5.39a8.94,8.94,0,0,1,2.17-5.19,2.06,2.06,0,0,1,1.87-.76c.67.12,1,.63,1.11,1.69a42,42,0,0,1-.21,4.65c-.13,2.26-.25,4.22-.25,4.35,0,.3.14.59.27.59.36,0,3.81-.24,3.83-.26s.42-11.25.38-11.61a3,3,0,0,0-1.51-2.5,3.74,3.74,0,0,0-2-.39,5.12,5.12,0,0,0-2.09.35,7,7,0,0,0-3.5,3.36l-.25.46v-.47c0-.5.28-9.75.33-10.91,0-.67,0-.71-.06-.71Z" fill="#ec1e24" fill-rule="evenodd"/>
    <path d="M149.19,5.74a1.8,1.8,0,0,0-.94.92,1.73,1.73,0,0,0,.33,1.77,1.66,1.66,0,0,0,2.41,0,1.46,1.46,0,0,0,.47-1.26A1.49,1.49,0,0,0,150.89,6,1.57,1.57,0,0,0,149.19,5.74Z" fill="#ec1e24" fill-rule="evenodd"/>
    <path d="M7.59,7.85a7.57,7.57,0,0,0-5.21,3.76A14.93,14.93,0,0,0,.59,15.82a18.24,18.24,0,0,0-.27,8A6.06,6.06,0,0,0,2,26.69c1.36,1.22,3.53,1.7,6.41,1.43a16.31,16.31,0,0,0,5-1.27c.41-.18,1.3-.62,1.4-.7s-.59-1.88-.62-1.92a1.57,1.57,0,0,0-.34.18,11.15,11.15,0,0,1-6.12,1.53A8.18,8.18,0,0,1,6,25.84a3.7,3.7,0,0,1-3.35-3.23,18.42,18.42,0,0,1,.19-5.94c.63-3.16,2.2-5.78,4-6.68A2.88,2.88,0,0,1,9.7,10c1,.65,1.53,2.17,1.68,4.53a2,2,0,0,0,.08.55l1.39-.28,1.38-.28a11.48,11.48,0,0,0-.29-1.78,7.41,7.41,0,0,0-1.72-3.52A5.24,5.24,0,0,0,7.59,7.85Z" fill="#ec1e24" fill-rule="evenodd"/>
    <path d="M123.45,10.43c-1.1.13-2,.25-2,.26s-.1.87-.2,1.91-.2,2-.21,2.1l0,.21h-1.5A10.46,10.46,0,0,0,118,15s-.24,1.73-.27,1.93l0,.14h3.13l0,.48c-.11,1.57-.13,2-.16,3.46,0,1.06,0,1.8,0,2.31.24,3,1.07,4.32,3,4.79a4.88,4.88,0,0,0,1.33.1,8.11,8.11,0,0,0,2.55-.36,7.76,7.76,0,0,0,2-.83s-.13-.49-.3-1-.3-1-.3-1a4.15,4.15,0,0,0-.43.17,5.52,5.52,0,0,1-1.6.5c-.82.12-1.18,0-1.57-.37s-.58-1-.68-2.36a40.85,40.85,0,0,1,.16-5.25l.06-.66h4.09l.09-.87c.05-.48.1-.95.12-1.06l0-.19H125l0-.16c0-.09.13-1.08.25-2.2s.25-2.11.26-2.2,0-.16,0-.16l-2.06.24Z" fill="#ec1e24" fill-rule="evenodd"/>
    <path d="M22.32,12.7a4.94,4.94,0,0,0-2.85,1.63,8.06,8.06,0,0,0-2.08,5.27,11.31,11.31,0,0,0,.46,4.19,6.94,6.94,0,0,0,2.79,3.71,5.1,5.1,0,0,0,3.91.49,5.17,5.17,0,0,0,2.27-1.38A8.46,8.46,0,0,0,29.16,21c.26-4-1.28-7.1-4-8.09A5.77,5.77,0,0,0,22.32,12.7Zm2,2a4.09,4.09,0,0,1,2.33,2.65A8.8,8.8,0,0,1,27,20.55a6.78,6.78,0,0,1-1.74,4.82,2.62,2.62,0,0,1-2,.91c-1.37,0-2.48-.88-3.18-2.53a8.51,8.51,0,0,1-.57-3.68,7.4,7.4,0,0,1,.66-3.13,4.76,4.76,0,0,1,1.1-1.56,3.18,3.18,0,0,1,1.37-.81A4.78,4.78,0,0,1,24.29,14.65Z" fill="#ec1e24" fill-rule="evenodd"/>
    <path d="M50.3,12.72a6.32,6.32,0,0,0-3.91,3.6,13.36,13.36,0,0,0-1.27,6.41A5.58,5.58,0,0,0,46.79,27a4.75,4.75,0,0,0,3.38,1.21,14.5,14.5,0,0,0,5.88-1.37l.56-.25-.25-.71c-.13-.39-.25-.74-.27-.78s-.1,0-.31.07a11,11,0,0,1-4.57,1.17,3.91,3.91,0,0,1-1.34-.09,2.72,2.72,0,0,1-1.48-.78,3.91,3.91,0,0,1-1-2.66,12.21,12.21,0,0,1,.09-2.41l0-.19h8.85l0-.49a11.61,11.61,0,0,0-1.06-4.46A4.68,4.68,0,0,0,53.18,13a3.33,3.33,0,0,0-1.71-.38A3.54,3.54,0,0,0,50.3,12.72Zm1.53,1.62a1.26,1.26,0,0,1,.62.42,3.11,3.11,0,0,1,.78,1.34,9.89,9.89,0,0,1,.42,2.34v.2h-2.9l-2.91,0,0-.15c.21-1.91,1.47-3.76,2.83-4.12A2.31,2.31,0,0,1,51.83,14.34Z" fill="#ec1e24" fill-rule="evenodd"/>
    <path d="M64.63,12.68A5.29,5.29,0,0,0,61.4,14.6a10.09,10.09,0,0,0-2.06,5.67,21.88,21.88,0,0,0,0,3.35c.3,2.37,1.26,3.88,2.81,4.42a4.7,4.7,0,0,0,3.28-.29A5.72,5.72,0,0,0,67.39,26a11.75,11.75,0,0,0,1-1.81,3,3,0,0,1,.2-.44c0-.05,0,3.81,0,4.74-.2,3.33-.89,4.35-2.94,4.35a5.78,5.78,0,0,1-3.5-1.31l-.45-.34-.49.63-.7.93-.22.28.44.32a7.65,7.65,0,0,0,3.48,1.49,7.21,7.21,0,0,0,3.22-.35c2-.79,2.89-2.5,3.23-6.15.1-1,.09-8.76,0-9.76-.36-3.87-1.46-5.54-3.9-5.93A8,8,0,0,0,64.63,12.68Zm1.47,1.76a2.06,2.06,0,0,1,1.11.65c.8.79,1.07,1.79,1,3.57a11,11,0,0,1-1.83,5.83,6.11,6.11,0,0,1-1.62,1.63,1.89,1.89,0,0,1-2.34-.26,4.58,4.58,0,0,1-1-2.62,19.78,19.78,0,0,1,0-3.35,8.23,8.23,0,0,1,1.76-4.31A3,3,0,0,1,66.1,14.44Z" fill="#ec1e24" fill-rule="evenodd"/>
    <path d="M79.13,12.7a6,6,0,0,0-3.69,3,12.35,12.35,0,0,0-1.57,5.79A7,7,0,0,0,75,26.36a4.66,4.66,0,0,0,4,1.83,14.28,14.28,0,0,0,4.69-.88,8.15,8.15,0,0,0,1.71-.8s-.12-.37-.26-.76-.25-.71-.25-.71a4.62,4.62,0,0,0-.58.24,15.11,15.11,0,0,1-2.69.88,6.06,6.06,0,0,1-1.71.14,3.66,3.66,0,0,1-1.43-.11,2.85,2.85,0,0,1-1.32-.76,3.43,3.43,0,0,1-.83-1.59A5,5,0,0,1,76.11,22c0-.72,0-1.42,0-1.56l0-.25,4.42,0h4.42l0-.59c0-.33-.08-.89-.14-1.25-.46-3.2-1.76-5.13-3.79-5.65A5,5,0,0,0,79.13,12.7Zm1.52,1.67c.71.27,1.25,1.16,1.54,2.56.06.3.23,1.52.23,1.67s-1.32,0-2.92,0H76.58l0-.29a6.23,6.23,0,0,1,.78-2.25,5.45,5.45,0,0,1,1.28-1.41A2.32,2.32,0,0,1,80.65,14.37Z" fill="#ec1e24" fill-rule="evenodd"/>
    <path d="M109.6,12.66a7.44,7.44,0,0,0-2.82,1,7.33,7.33,0,0,0-2.43,3,9.43,9.43,0,0,0-.63,1.75s3.21.9,3.25.88,0-.07,0-.13.06-.35.13-.66c.46-2,1.16-3.19,2.14-3.65a1.38,1.38,0,0,1,.75-.13,1.31,1.31,0,0,1,1.14.44c.52.57.66,1.43.71,4.37,0,1,0,1.75,0,1.75l-.42-.12a8.23,8.23,0,0,0-2.11-.42,5.77,5.77,0,0,0-4.83,1.52,3.22,3.22,0,0,0-1,2.59,3.13,3.13,0,0,0,.94,2.22,2.81,2.81,0,0,0,.85.62,4.44,4.44,0,0,0,2,.47,5.88,5.88,0,0,0,4.46-1.52,2.12,2.12,0,0,1,.26-.22s.05.47.1,1,.08,1,.09,1,3.7-.37,3.9-.4.16-.05.14-.12-.07-.46-.13-.92a52.8,52.8,0,0,1-.36-6.48c-.07-4.29-.12-4.75-.7-5.83a3.84,3.84,0,0,0-3.19-2.06A13.82,13.82,0,0,0,109.6,12.66Zm1.14,10.18a2.47,2.47,0,0,1,1,.51l.22.2-.06.27a2.87,2.87,0,0,1-1.94,2A1.83,1.83,0,0,1,109,26a1.58,1.58,0,0,1-1.16-.43,1.29,1.29,0,0,1-.47-1.1c0-1,.51-1.48,1.61-1.68A5.85,5.85,0,0,1,110.74,22.84Z" fill="#ec1e24" fill-rule="evenodd"/>
    <path d="M149.77,13c-1.12.2-2,.38-2.05.39s.08,3.19.21,7.07.22,7.15.22,7.25v.19h3.77V20.25c0-6.09,0-7.65-.06-7.64Z" fill="#ec1e24" fill-rule="evenodd"/>
    <path d="M94.11,12.75a7,7,0,0,0-2.56.65,2.53,2.53,0,0,1-.33.16,5.14,5.14,0,0,0-1.27,1,4.78,4.78,0,0,0-.89,1.56c0,.13-.09.29-.12.37a6.72,6.72,0,0,0,0,1.84,3.49,3.49,0,0,0,1,1.72,2.87,2.87,0,0,0,.79.62l.48.25c.24.14.41.17.41.07a7,7,0,0,1,.57-1.31s0,.14,0,.28,0,.35.31.69a2.13,2.13,0,0,1,.25.37c.16.32.14.31.27.21a.42.42,0,0,1,.66.27c0,.1,0,.13.16.15a.32.32,0,0,1,.23.18,1.57,1.57,0,0,0,.24.32c.15.14.17.19.14.32-.06.36-.06.37.07.37s.13,0,.12-.16a2.94,2.94,0,0,0-.09-.39c-.09-.25-.06-.38,0-.21a3.6,3.6,0,0,1,.15.4c.11.38.16.43.33.43s.28-.09.13-.6a1.82,1.82,0,0,1-.1-.5s.12.09.23.47a3.22,3.22,0,0,0,.14.42.29.29,0,0,0,.35.11c.14-.06.13-.14,0-.77,0-.23-.1-.43-.1-.46s.15.14.15.25a.25.25,0,0,0,0,.15.7.7,0,0,1,.1.27c.1.34.18.43.34.39a.25.25,0,0,0,.16-.14,3.53,3.53,0,0,0-.11-1,3.65,3.65,0,0,0-1-1.16c-.46-.28-.47-.28-.83-.11a.88.88,0,0,1-.52.13.5.5,0,0,1-.41-.39,1.25,1.25,0,0,1,.28-.37c.16-.15.27-.29.25-.31a.87.87,0,0,0-.29-.08,4.74,4.74,0,0,1-1.25-.47.13.13,0,0,1,0-.18c.19-.4.19-.43,0-.65A1.28,1.28,0,0,1,93,16a2.32,2.32,0,0,1,1.12-.44,9.91,9.91,0,0,1,2.31,0l.58.12a6.87,6.87,0,0,1,1.72.62c.36.18.68.22.75.11s.49-1.13.66-1.57l.17-.43a.63.63,0,0,0,.07-.34,1.06,1.06,0,0,0-.48-.4,9.84,9.84,0,0,0-2.29-.74l-.78-.13A19.88,19.88,0,0,0,94.11,12.75Z" fill="#ec1e24" fill-rule="evenodd"/>
    <path d="M94.15,19.51a2.45,2.45,0,0,0-.41.46s.07.1.16.15.34.08.69-.15c.14-.09.26-.15.28-.13a1.9,1.9,0,0,0,.36.2,2.74,2.74,0,0,1,.68.53c.55.58.66.76.65,1s.07.58.12.58l.24-.11a.91.91,0,0,1,.34-.07c.11,0,.1.09-.05.56l-.09.25.15.18a1.26,1.26,0,0,1,.1,1.71,2.68,2.68,0,0,1-1.6.75,13.14,13.14,0,0,1-2.44,0l-.45-.12a8.85,8.85,0,0,1-2.32-.86c-.76-.41-.9-.39-1.09.17-.06.15-.21.49-.35.77a5.93,5.93,0,0,0-.31.7,1.2,1.2,0,0,1-.12.27c-.07.1,0,.34.26.48a14.86,14.86,0,0,0,1.6.77,20.51,20.51,0,0,0,2.38.57c.18,0,.68.08,1.1.11a9.68,9.68,0,0,0,3.62-.42,4.18,4.18,0,0,0,1.27-.56A4.29,4.29,0,0,0,101,24.6a6.49,6.49,0,0,0,0-2.11,3.52,3.52,0,0,0-1.33-1.9,5.25,5.25,0,0,0-1.34-.7c-.09,0-.13.07-.25.44-.18.54-.26.69-.3.62a.66.66,0,0,1,0-.29c0-.28.12-.24-.73-.45a1.64,1.64,0,0,1-1.1-.62c-.14-.21-.18-.22-.84-.38l-.43-.1S94.41,19.25,94.15,19.51Z" fill="#ec1e24" fill-rule="evenodd"/>
    <path d="M92.38,21.05c-.15.15-.13.34,0,.41s.32,0,.32-.1A.9.9,0,0,0,92.5,21,.36.36,0,0,0,92.38,21.05Z" fill="#ec1e24" fill-rule="evenodd"/>
    <path d="M93,21.41c-.32.19-.4.43-.18.58s.14.07.3,0,.39-.26.39-.43a.18.18,0,0,0-.14-.2C93.23,21.29,93.23,21.29,93,21.41Z" fill="#ec1e24" fill-rule="evenodd"/>
    <path d="M93.47,21.91c-.19.13-.24.19-.24.3a.31.31,0,0,0,.29.3A.84.84,0,0,0,94,22a.46.46,0,0,0-.26-.27Z" fill="#ec1e24" fill-rule="evenodd"/>
    <path d="M93.9,22.37c-.14.08-.17.13-.15.26s0,.15.18.17a.48.48,0,0,0,.29-.07c.1-.06.12-.11.11-.26s0-.19-.14-.2A.63.63,0,0,0,93.9,22.37Z" fill="#ec1e24" fill-rule="evenodd"/>
    <path d="M127.11,31c-1.46.26-2.72,1.88-3.16,4.08a7.44,7.44,0,0,0-.11,1.65,3.73,3.73,0,0,0,.37,2.14,2.6,2.6,0,0,0,1.62,1.41,7,7,0,0,0,4.5-.62l.51-.22-.17-.49c-.09-.27-.18-.51-.19-.54s-.16,0-.46.13a6.18,6.18,0,0,1-2.66.61,1.81,1.81,0,0,1-2-1.46,8.14,8.14,0,0,1,0-2.47,4.11,4.11,0,0,1,1.63-3,.94.94,0,0,1,1.07,0c.32.27.48.79.53,1.74a4.38,4.38,0,0,0,.06.59l.83-.16.79-.17v-.18a6.26,6.26,0,0,0-.08-.63,2.65,2.65,0,0,0-1.74-2.39A3.54,3.54,0,0,0,127.11,31Z" fill="#ec1e24" fill-rule="evenodd"/>
    <path d="M135.05,31a3.64,3.64,0,0,0-2.78,2.4,6.71,6.71,0,0,0,.14,5,3.68,3.68,0,0,0,.88,1.22,2.91,2.91,0,0,0,2.23.86,3,3,0,0,0,1.19-.28A4.51,4.51,0,0,0,139,36.82a9.76,9.76,0,0,0,0-2.59,6,6,0,0,0-.59-1.6,4.84,4.84,0,0,0-1.23-1.24A3.59,3.59,0,0,0,135.05,31Zm1.17,1.43a2.06,2.06,0,0,1,.53.39,3.62,3.62,0,0,1,.88,2.45,4.31,4.31,0,0,1-1,3.32,1.47,1.47,0,0,1-1.19.52,1.09,1.09,0,0,1-.72-.17,2.89,2.89,0,0,1-1.27-1.88,4.35,4.35,0,0,1-.11-1.31,4.49,4.49,0,0,1,.1-1.31,2.72,2.72,0,0,1,1.71-2.13A2,2,0,0,1,136.22,32.44Z" fill="#ec1e24" fill-rule="evenodd"/>
    <path d="M141.94,31.16l-.71.17c-.1,0-.1,0,0,.47a28.67,28.67,0,0,1,.24,5.33v3.18h1.28l0-1.07a14.72,14.72,0,0,1,.31-2.9,6.5,6.5,0,0,1,1.45-3.08c.52-.47,1.13-.45,1.28,0s.17.76.17,3.61v2.91h1.2l0-.57c0-.31.05-1.12.08-1.79a8.83,8.83,0,0,1,.31-2.47,3.93,3.93,0,0,1,1.55-2.12,1.21,1.21,0,0,1,.59-.12c.34,0,.38,0,.49.14s.24.38.21,3.53c0,1.63-.05,3.15-.06,3.36l0,.39H151c.51,0,.68,0,.68-.06s.06-1.63.14-3.54c.15-3.88.15-4-.15-4.51a1.6,1.6,0,0,0-1.57-.8,3.19,3.19,0,0,0-2.64,1.5l-.14.22-.06-.24a1.67,1.67,0,0,0-.86-1.22,2.27,2.27,0,0,0-2.42.65,5.11,5.11,0,0,0-.88,1.2c-.12.23-.22.35-.24.31s0-.3,0-.58c0-.5-.16-1.62-.22-1.91l0-.16Z" fill="#ec1e24" fill-rule="evenodd"/>
    <path d="M120.49,38.31a1.52,1.52,0,0,0-.38.34.79.79,0,0,0-.15.6.84.84,0,0,0,.14.6,1.07,1.07,0,1,0,1.51-1.47.81.81,0,0,0-.55-.17A.84.84,0,0,0,120.49,38.31Z" fill="#ec1e24" fill-rule="evenodd"/>
  </g>
  <rect x="159.1" y="5.16" width="0.59" height="35.43" fill="#ec1e24"/>
  <g>
    <path d="M167.58,12.12a6.29,6.29,0,0,1,3.69-5.83,11.72,11.72,0,0,1,9,0A6.26,6.26,0,0,1,184,12.12a5.91,5.91,0,0,1-1,3.37,6.45,6.45,0,0,1-2.58,2.24,6.3,6.3,0,0,1,3.08,2.34,6.52,6.52,0,0,1,1.13,3.81,7,7,0,0,1-1.13,3.93,7.27,7.27,0,0,1-3.14,2.63,10.86,10.86,0,0,1-4.58.93,10.72,10.72,0,0,1-4.57-.93,7.36,7.36,0,0,1-3.13-2.63A7,7,0,0,1,167,23.88a6.51,6.51,0,0,1,1.12-3.83,6.39,6.39,0,0,1,3-2.32A5.9,5.9,0,0,1,167.58,12.12Zm4.53,8.43a3.8,3.8,0,0,0-1.42,3.19,4.05,4.05,0,0,0,1.37,3.17,5.45,5.45,0,0,0,3.73,1.21,5.25,5.25,0,0,0,3.67-1.23,4.07,4.07,0,0,0,1.35-3.15,3.9,3.9,0,0,0-1.38-3.18,5.61,5.61,0,0,0-3.64-1.12A5.8,5.8,0,0,0,172.11,20.55Zm7-10.89a4.92,4.92,0,0,0-3.28-1,4.83,4.83,0,0,0-3.25,1,3.69,3.69,0,0,0-1.2,3,3.53,3.53,0,0,0,1.25,2.79,5.26,5.26,0,0,0,6.41,0,3.54,3.54,0,0,0,1.26-2.8A3.67,3.67,0,0,0,179.07,9.66Z" fill="#ec1e24"/>
    <rect x="166.86" y="34.11" width="18.01" height="6.47" fill="#ec1e24"/>
    <g>
      <path d="M171,35.06,169.54,38V39.7h-.61V38l-1.52-2.89h.67l1.15,2.35,1.14-2.35Z" fill="#fff"/>
      <path d="M174.38,38.1h-2.92a1.22,1.22,0,0,0,.37.84,1.2,1.2,0,0,0,.82.3,1.11,1.11,0,0,0,.65-.18.91.91,0,0,0,.37-.49h.66a1.62,1.62,0,0,1-.59.86,1.77,1.77,0,0,1-1.09.33,1.79,1.79,0,0,1-.93-.24,1.57,1.57,0,0,1-.64-.66,2,2,0,0,1-.23-1,2.07,2.07,0,0,1,.22-1,1.51,1.51,0,0,1,.64-.66,1.9,1.9,0,0,1,.94-.23,1.87,1.87,0,0,1,.92.23,1.58,1.58,0,0,1,.61.62,1.75,1.75,0,0,1,.22.89C174.4,37.85,174.39,38,174.38,38.1ZM173.62,37a1,1,0,0,0-.42-.38,1.37,1.37,0,0,0-.58-.13,1.12,1.12,0,0,0-.78.3,1.15,1.15,0,0,0-.37.81h2.3A1.16,1.16,0,0,0,173.62,37Z" fill="#fff"/>
      <path d="M175,36.88a1.71,1.71,0,0,1,.62-.66,1.79,1.79,0,0,1,.89-.23,1.6,1.6,0,0,1,.83.21,1.3,1.3,0,0,1,.52.52v-.67h.61V39.7h-.61V39a1.49,1.49,0,0,1-.53.53,1.63,1.63,0,0,1-.83.21,1.66,1.66,0,0,1-.88-.24,1.7,1.7,0,0,1-.62-.68,2.29,2.29,0,0,1,0-2Zm2.7.27a1.14,1.14,0,0,0-.45-.47,1.22,1.22,0,0,0-.62-.16,1.17,1.17,0,0,0-.62.16,1.11,1.11,0,0,0-.45.46,1.5,1.5,0,0,0-.17.72,1.54,1.54,0,0,0,.17.73,1.2,1.2,0,0,0,.45.47,1.17,1.17,0,0,0,.62.16,1.22,1.22,0,0,0,.62-.16,1.2,1.2,0,0,0,.45-.47,1.53,1.53,0,0,0,.16-.72A1.47,1.47,0,0,0,177.68,37.15Z" fill="#fff"/>
      <path d="M180.33,36.16a1.37,1.37,0,0,1,.72-.18v.63h-.16c-.68,0-1,.37-1,1.1v2h-.6V36.05h.6v.59A1.12,1.12,0,0,1,180.33,36.16Z" fill="#fff"/>
      <path d="M182.07,39.61a1.23,1.23,0,0,1-.52-.4,1,1,0,0,1-.21-.59H182a.59.59,0,0,0,.26.45.93.93,0,0,0,.6.17.92.92,0,0,0,.55-.15.46.46,0,0,0,.19-.38.38.38,0,0,0-.21-.36,3,3,0,0,0-.66-.23,3.89,3.89,0,0,1-.66-.22,1.16,1.16,0,0,1-.44-.32.88.88,0,0,1-.18-.57.79.79,0,0,1,.17-.51,1,1,0,0,1,.47-.37,1.68,1.68,0,0,1,.7-.14,1.43,1.43,0,0,1,1,.31,1.06,1.06,0,0,1,.4.83h-.6a.62.62,0,0,0-.23-.45.84.84,0,0,0-.56-.18.89.89,0,0,0-.52.14.45.45,0,0,0-.2.37.37.37,0,0,0,.12.29,1,1,0,0,0,.29.19,4.73,4.73,0,0,0,.49.16,4.8,4.8,0,0,1,.64.21,1,1,0,0,1,.42.31.82.82,0,0,1,.19.54.93.93,0,0,1-.17.53,1.12,1.12,0,0,1-.47.38,1.67,1.67,0,0,1-.69.14A1.87,1.87,0,0,1,182.07,39.61Z" fill="#fff"/>
    </g>
  </g>
</svg>
