<svg id="_4634389_bookmark_interface_mark_save_icon" data-name="4634389_bookmark_interface_mark_save_icon" xmlns="http://www.w3.org/2000/svg" width="14.722" height="18.403" viewBox="0 0 14.722 18.403">
  <g id="Group_25524" data-name="Group 25524" transform="translate(0 0)">
    <g id="Group_25523" data-name="Group 25523">
      <path id="Path_14112" data-name="Path 14112" d="M18.109,19.4a.612.612,0,0,1-.278-.067l-6.469-3.293L4.892,19.336A.613.613,0,0,1,4,18.789V3.575A2.578,2.578,0,0,1,6.575,1h9.573a2.578,2.578,0,0,1,2.575,2.575V18.789a.614.614,0,0,1-.613.613ZM11.361,14.74a.611.611,0,0,1,.278.067L17.5,17.788V3.575a1.349,1.349,0,0,0-1.348-1.348H6.575A1.349,1.349,0,0,0,5.227,3.575V17.788l5.856-2.981A.611.611,0,0,1,11.361,14.74Z" transform="translate(-4 -1)" fill="#646464"/>
    </g>
  </g>
</svg>
