<?xml version="1.0" encoding="utf-8"?>
<!-- Generator: Adobe Illustrator 25.4.1, SVG Export Plug-In . SVG Version: 6.00 Build 0)  -->
<svg version="1.1" id="Layer_1" xmlns="http://www.w3.org/2000/svg" xmlns:xlink="http://www.w3.org/1999/xlink" x="0px" y="0px"
	 viewBox="0 0 32 32" style="enable-background:new 0 0 32 32;" xml:space="preserve">
<style type="text/css">
	.st0{fill:#FFFFFF;}
</style>
<g id="cross">
	<g>
		<path class="st0" d="M29.8,31.3c-0.4,0-0.8-0.1-1.1-0.4L1.2,3.3c-0.6-0.6-0.6-1.6,0-2.2s1.6-0.6,2.2,0l27.5,27.5
			c0.6,0.6,0.6,1.6,0,2.2C30.5,31.1,30.2,31.3,29.8,31.3z"/>
	</g>
	<g>
		<path class="st0" d="M2.2,31.3c-0.4,0-0.8-0.1-1.1-0.4c-0.6-0.6-0.6-1.6,0-2.2L28.7,1.2c0.6-0.6,1.6-0.6,2.2,0s0.6,1.6,0,2.2
			L3.3,30.8C3,31.1,2.6,31.3,2.2,31.3z"/>
	</g>
</g>
</svg>
