<?xml version="1.0" encoding="utf-8"?>
<!-- Generator: Adobe Illustrator 24.3.0, SVG Export Plug-In . SVG Version: 6.00 Build 0)  -->
<svg version="1.1" id="Layer_1" xmlns="http://www.w3.org/2000/svg" xmlns:xlink="http://www.w3.org/1999/xlink" x="0px" y="0px"
	 viewBox="0 0 185 44" style="enable-background:new 0 0 185 44;" xml:space="preserve">
<style type="text/css">
	.st0{display:none;}
	.st1{display:inline;}
	.st2{clip-path:url(#SVGID_2_);fill:#EC1C24;}
	.st3{clip-path:url(#SVGID_4_);fill:none;stroke:#EC1C24;stroke-width:0.567;stroke-miterlimit:22.926;}
	.st4{clip-path:url(#SVGID_6_);fill:#EC1C24;}
	.st5{clip-path:url(#SVGID_8_);fill:none;stroke:#EC1C24;stroke-width:0.567;stroke-miterlimit:22.926;}
	.st6{clip-path:url(#SVGID_10_);fill:#EC1C24;}
	.st7{clip-path:url(#SVGID_12_);fill:none;stroke:#EC1C24;stroke-width:0.567;stroke-miterlimit:22.926;}
	.st8{clip-path:url(#SVGID_14_);fill:#EC1C24;}
	.st9{clip-path:url(#SVGID_16_);fill:none;stroke:#EC1C24;stroke-width:0.567;stroke-miterlimit:22.926;}
	.st10{clip-path:url(#SVGID_18_);fill:#EC1C24;}
	.st11{clip-path:url(#SVGID_20_);fill:none;stroke:#EC1C24;stroke-width:0.567;stroke-miterlimit:22.926;}
	.st12{clip-path:url(#SVGID_22_);fill:#EC1C24;}
	.st13{clip-path:url(#SVGID_24_);fill:none;stroke:#EC1C24;stroke-width:0.567;stroke-miterlimit:22.926;}
	.st14{clip-path:url(#SVGID_26_);fill:#EC1C24;}
	.st15{clip-path:url(#SVGID_28_);fill:none;stroke:#EC1C24;stroke-width:0.567;stroke-miterlimit:22.926;}
	.st16{clip-path:url(#SVGID_30_);fill:#EC1C24;}
	.st17{clip-path:url(#SVGID_32_);fill:none;stroke:#EC1C24;stroke-width:0.567;stroke-miterlimit:22.926;}
	.st18{clip-path:url(#SVGID_34_);fill:#EC1C24;}
	.st19{clip-path:url(#SVGID_36_);fill:none;stroke:#EC1C24;stroke-width:0.567;stroke-miterlimit:22.926;}
	.st20{clip-path:url(#SVGID_38_);fill:#EC1C24;}
	.st21{clip-path:url(#SVGID_40_);fill:none;stroke:#EC1C24;stroke-width:0.567;stroke-miterlimit:22.926;}
	.st22{clip-path:url(#SVGID_42_);fill:#EC1C24;}
	.st23{clip-path:url(#SVGID_44_);fill:none;stroke:#EC1C24;stroke-width:0.567;stroke-miterlimit:22.926;}
	.st24{clip-path:url(#SVGID_46_);fill:#EC1C24;}
	.st25{clip-path:url(#SVGID_48_);fill:none;stroke:#EC1C24;stroke-width:0.567;stroke-miterlimit:22.926;}
	.st26{clip-path:url(#SVGID_50_);fill:#EC1C24;}
	.st27{clip-path:url(#SVGID_52_);fill:none;stroke:#EC1C24;stroke-width:0.567;stroke-miterlimit:22.926;}
	.st28{fill-rule:evenodd;clip-rule:evenodd;fill:#EE3537;}
</style>
<g class="st0">
	<g class="st1">
		<defs>
			<rect id="SVGID_1_" width="184.7" height="44"/>
		</defs>
		<clipPath id="SVGID_2_">
			<use xlink:href="#SVGID_1_"  style="overflow:visible;"/>
		</clipPath>
		<path class="st2" d="M147.4,42.5c0,0.3-0.1,0.5-0.3,0.8c-0.2,0.2-0.5,0.3-0.8,0.3c-0.3,0-0.5-0.1-0.7-0.3
			c-0.2-0.2-0.3-0.5-0.3-0.8c0-0.3,0.1-0.5,0.3-0.8c0.2-0.2,0.5-0.3,0.7-0.3c0.3,0,0.5,0.1,0.8,0.3
			C147.3,41.9,147.4,42.2,147.4,42.5 M158.2,42.5c-1.5,0.8-3,1.1-4.5,1.1c-1.1,0-2-0.4-2.6-1.1c-0.6-0.7-1-1.7-1-3
			c0-2.1,0.4-3.8,1.3-5.2c0.9-1.3,1.9-2,3.1-2c1.9,0,2.9,1.2,3.1,3.6l-1.5,0.3c0-2.1-0.5-3.1-1.5-3.1c-0.8,0-1.6,0.5-2.2,1.6
			c-0.7,1.1-1,2.6-1,4.3c0,2.3,0.9,3.4,2.8,3.4c1.2,0,2.4-0.3,3.7-0.9L158.2,42.5z M168.5,37.9c0,1.7-0.4,3-1.2,4.1
			c-0.8,1.1-1.8,1.6-3.1,1.6c-1.2,0-2.2-0.5-2.9-1.6c-0.8-1-1.2-2.4-1.2-4c0-1.7,0.4-3,1.2-4.1c0.8-1,1.8-1.6,3.1-1.6
			c1.2,0,2.2,0.5,3,1.5C168.1,34.9,168.5,36.3,168.5,37.9 M167.2,37.9c0-1.3-0.3-2.3-0.8-3.1c-0.5-0.8-1.2-1.2-2.1-1.2
			c-0.8,0-1.5,0.4-2.1,1.3c-0.6,0.9-0.9,1.9-0.9,3.3c0,1.3,0.3,2.4,0.8,3.2c0.6,0.8,1.3,1.3,2.1,1.3s1.6-0.4,2.1-1.3
			C166.9,40.4,167.2,39.2,167.2,37.9 M184.4,35.2l-0.3,8.1h-1.1L183,36c0-0.6,0-1.1-0.1-1.3c-0.1-0.4-0.5-0.6-1-0.6
			c-0.8,0-1.5,0.5-2.1,1.4c-0.7,1-1.1,2.2-1.2,3.7l-0.2,3.7h-1l0.1-5.7c0-1-0.1-1.8-0.2-2.2c-0.2-0.4-0.4-0.7-0.9-0.7
			c-0.9,0-1.7,0.8-2.3,2.3c-0.8,1.7-1.1,3.8-1.1,6.4v0.5h-1.1l0.1-3.3c0-0.7,0-1.2,0-1.3c0-2.2-0.1-4.2-0.4-5.9l1.2-0.3
			c0.2,1.3,0.3,2.6,0.4,4.1h0.1c1-2.5,2.2-3.7,3.7-3.7c1.2,0,1.7,1,1.7,2.9c0.3-0.9,0.8-1.7,1.5-2.2c0.7-0.5,1.4-0.8,2.2-0.8
			c1.3,0,2,0.7,2,2.2V35.2z"/>
	</g>
	<g class="st1">
		<defs>
			<rect id="SVGID_3_" width="184.7" height="44"/>
		</defs>
		<clipPath id="SVGID_4_">
			<use xlink:href="#SVGID_3_"  style="overflow:visible;"/>
		</clipPath>
		<path class="st3" d="M147.4,42.5c0,0.3-0.1,0.5-0.3,0.8c-0.2,0.2-0.5,0.3-0.8,0.3c-0.3,0-0.5-0.1-0.7-0.3
			c-0.2-0.2-0.3-0.5-0.3-0.8c0-0.3,0.1-0.5,0.3-0.8c0.2-0.2,0.5-0.3,0.7-0.3c0.3,0,0.5,0.1,0.8,0.3
			C147.3,41.9,147.4,42.2,147.4,42.5z M158.2,42.5c-1.5,0.8-3,1.1-4.5,1.1c-1.1,0-2-0.4-2.6-1.1c-0.6-0.7-1-1.7-1-3
			c0-2.1,0.4-3.8,1.3-5.2c0.9-1.3,1.9-2,3.1-2c1.9,0,2.9,1.2,3.1,3.6l-1.5,0.3c0-2.1-0.5-3.1-1.5-3.1c-0.8,0-1.6,0.5-2.2,1.6
			c-0.7,1.1-1,2.6-1,4.3c0,2.3,0.9,3.4,2.8,3.4c1.2,0,2.4-0.3,3.7-0.9L158.2,42.5z M168.5,37.9c0,1.7-0.4,3-1.2,4.1
			c-0.8,1.1-1.8,1.6-3.1,1.6c-1.2,0-2.2-0.5-2.9-1.6c-0.8-1-1.2-2.4-1.2-4c0-1.7,0.4-3,1.2-4.1c0.8-1,1.8-1.6,3.1-1.6
			c1.2,0,2.2,0.5,3,1.5C168.1,34.9,168.5,36.3,168.5,37.9z M167.2,37.9c0-1.3-0.3-2.3-0.8-3.1c-0.5-0.8-1.2-1.2-2.1-1.2
			c-0.8,0-1.5,0.4-2.1,1.3c-0.6,0.9-0.9,1.9-0.9,3.3c0,1.3,0.3,2.4,0.8,3.2c0.6,0.8,1.3,1.3,2.1,1.3s1.6-0.4,2.1-1.3
			C166.9,40.4,167.2,39.2,167.2,37.9z M184.4,35.2l-0.3,8.1h-1.1L183,36c0-0.6,0-1.1-0.1-1.3c-0.1-0.4-0.5-0.6-1-0.6
			c-0.8,0-1.5,0.5-2.1,1.4c-0.7,1-1.1,2.2-1.2,3.7l-0.2,3.7h-1l0.1-5.7c0-1-0.1-1.8-0.2-2.2c-0.2-0.4-0.4-0.7-0.9-0.7
			c-0.9,0-1.7,0.8-2.3,2.3c-0.8,1.7-1.1,3.8-1.1,6.4v0.5h-1.1l0.1-3.3c0-0.7,0-1.2,0-1.3c0-2.2-0.1-4.2-0.4-5.9l1.2-0.3
			c0.2,1.3,0.3,2.6,0.4,4.1h0.1c1-2.5,2.2-3.7,3.7-3.7c1.2,0,1.7,1,1.7,2.9c0.3-0.9,0.8-1.7,1.5-2.2c0.7-0.5,1.4-0.8,2.2-0.8
			c1.3,0,2,0.7,2,2.2V35.2z"/>
	</g>
	<g class="st1">
		<defs>
			<rect id="SVGID_5_" width="184.7" height="44"/>
		</defs>
		<clipPath id="SVGID_6_">
			<use xlink:href="#SVGID_5_"  style="overflow:visible;"/>
		</clipPath>
		<path class="st4" d="M18.1,26.1c-2.9,1.6-6.1,2.4-9.6,2.4c-5.4,0-8.2-2.9-8.2-8.7c0-4.7,1-8.6,3-11.6c2-3,4.4-4.4,7.2-4.4
			c3.9,0,6.1,2.6,6.8,7.9l-3,0.6c-0.2-4.5-1.6-6.8-4.1-6.8c-1.9,0-3.7,1.2-5.1,3.7c-1.6,2.7-2.4,6.1-2.4,10.2c0,2.5,0.5,4.2,1.6,5.3
			c1,1.1,2.7,1.6,5.1,1.6c3.2,0,5.9-0.7,8-2L18.1,26.1z"/>
	</g>
	<g class="st1">
		<defs>
			<rect id="SVGID_7_" width="184.7" height="44"/>
		</defs>
		<clipPath id="SVGID_8_">
			<use xlink:href="#SVGID_7_"  style="overflow:visible;"/>
		</clipPath>
		<path class="st5" d="M18.1,26.1c-2.9,1.6-6.1,2.4-9.6,2.4c-5.4,0-8.2-2.9-8.2-8.7c0-4.7,1-8.6,3-11.6c2-3,4.4-4.4,7.2-4.4
			c3.9,0,6.1,2.6,6.8,7.9l-3,0.6c-0.2-4.5-1.6-6.8-4.1-6.8c-1.9,0-3.7,1.2-5.1,3.7c-1.6,2.7-2.4,6.1-2.4,10.2c0,2.5,0.5,4.2,1.6,5.3
			c1,1.1,2.7,1.6,5.1,1.6c3.2,0,5.9-0.7,8-2L18.1,26.1z"/>
	</g>
	<g class="st1">
		<defs>
			<rect id="SVGID_9_" width="184.7" height="44"/>
		</defs>
		<clipPath id="SVGID_10_">
			<use xlink:href="#SVGID_9_"  style="overflow:visible;"/>
		</clipPath>
		<path class="st6" d="M35.9,18.8c0,2.8-0.7,5.1-2.1,6.9c-1.4,1.8-3.1,2.7-5.1,2.7c-2,0-3.6-0.9-4.9-2.6c-1.3-1.7-2-4-2-6.8
			c0-2.8,0.7-5,2-6.8c1.4-1.7,3.1-2.6,5.2-2.6c2,0,3.7,0.8,5,2.5C35.3,13.8,35.9,16.1,35.9,18.8 M33.8,18.8c0-2.2-0.5-3.9-1.4-5.3
			c-0.9-1.3-2.1-2-3.5-2c-1.4,0-2.6,0.7-3.6,2.1c-1,1.4-1.5,3.3-1.5,5.5c0,2.2,0.5,4,1.4,5.4c0.9,1.4,2.1,2.1,3.5,2.1
			s2.6-0.7,3.6-2.2C33.3,23,33.8,21.1,33.8,18.8"/>
	</g>
	<g class="st1">
		<defs>
			<rect id="SVGID_11_" width="184.7" height="44"/>
		</defs>
		<clipPath id="SVGID_12_">
			<use xlink:href="#SVGID_11_"  style="overflow:visible;"/>
		</clipPath>
		<path class="st7" d="M35.9,18.8c0,2.8-0.7,5.1-2.1,6.9c-1.4,1.8-3.1,2.7-5.1,2.7c-2,0-3.6-0.9-4.9-2.6c-1.3-1.7-2-4-2-6.8
			c0-2.8,0.7-5,2-6.8c1.4-1.7,3.1-2.6,5.2-2.6c2,0,3.7,0.8,5,2.5C35.3,13.8,35.9,16.1,35.9,18.8z M33.8,18.8c0-2.2-0.5-3.9-1.4-5.3
			c-0.9-1.3-2.1-2-3.5-2c-1.4,0-2.6,0.7-3.6,2.1c-1,1.4-1.5,3.3-1.5,5.5c0,2.2,0.5,4,1.4,5.4c0.9,1.4,2.1,2.1,3.5,2.1
			s2.6-0.7,3.6-2.2C33.3,23,33.8,21.1,33.8,18.8z"/>
	</g>
	<g class="st1">
		<defs>
			<rect id="SVGID_13_" width="184.7" height="44"/>
		</defs>
		<clipPath id="SVGID_14_">
			<use xlink:href="#SVGID_13_"  style="overflow:visible;"/>
		</clipPath>
		<path class="st8" d="M45.9,27.5l-1.5,1c-1.6-0.6-2.6-1.9-3.2-3.8c-0.5-1.6-0.7-4.2-0.7-7.7c0-4.3,0.2-9.6,0.6-16l2.3-0.6
			c-0.6,7.3-1,13.3-1,17.9c0,2.7,0.2,4.7,0.5,5.8C43.5,25.6,44.4,26.8,45.9,27.5"/>
	</g>
	<g class="st1">
		<defs>
			<rect id="SVGID_15_" width="184.7" height="44"/>
		</defs>
		<clipPath id="SVGID_16_">
			<use xlink:href="#SVGID_15_"  style="overflow:visible;"/>
		</clipPath>
		<path class="st9" d="M45.9,27.5l-1.5,1c-1.6-0.6-2.6-1.9-3.2-3.8c-0.5-1.6-0.7-4.2-0.7-7.7c0-4.3,0.2-9.6,0.6-16l2.3-0.6
			c-0.6,7.3-1,13.3-1,17.9c0,2.7,0.2,4.7,0.5,5.8C43.5,25.6,44.4,26.8,45.9,27.5z"/>
	</g>
	<g class="st1">
		<defs>
			<rect id="SVGID_17_" width="184.7" height="44"/>
		</defs>
		<clipPath id="SVGID_18_">
			<use xlink:href="#SVGID_17_"  style="overflow:visible;"/>
		</clipPath>
		<path class="st10" d="M54.1,27.5l-1.5,1c-1.6-0.6-2.6-1.9-3.2-3.8c-0.5-1.6-0.7-4.2-0.7-7.7c0-4.3,0.2-9.6,0.6-16l2.3-0.6
			c-0.6,7.3-1,13.3-1,17.9c0,2.7,0.2,4.7,0.5,5.8C51.6,25.6,52.6,26.8,54.1,27.5"/>
	</g>
	<g class="st1">
		<defs>
			<rect id="SVGID_19_" width="184.7" height="44"/>
		</defs>
		<clipPath id="SVGID_20_">
			<use xlink:href="#SVGID_19_"  style="overflow:visible;"/>
		</clipPath>
		<path class="st11" d="M54.1,27.5l-1.5,1c-1.6-0.6-2.6-1.9-3.2-3.8c-0.5-1.6-0.7-4.2-0.7-7.7c0-4.3,0.2-9.6,0.6-16l2.3-0.6
			c-0.6,7.3-1,13.3-1,17.9c0,2.7,0.2,4.7,0.5,5.8C51.6,25.6,52.6,26.8,54.1,27.5z"/>
	</g>
	<g class="st1">
		<defs>
			<rect id="SVGID_21_" width="184.7" height="44"/>
		</defs>
		<clipPath id="SVGID_22_">
			<use xlink:href="#SVGID_21_"  style="overflow:visible;"/>
		</clipPath>
		<path class="st12" d="M69.7,26.6c-2.6,1.3-5.1,1.9-7.6,1.9c-1.8,0-3.3-0.6-4.4-1.8c-1.1-1.2-1.6-2.9-1.6-5c0-3.5,0.8-6.4,2.3-8.7
			c1.5-2.2,3.2-3.3,5.3-3.3c1.7,0,3,0.8,4,2.3c1,1.5,1.6,3.7,1.8,6.6H58.5c-0.1,1-0.2,1.8-0.2,2.7c0,3.7,1.6,5.5,4.7,5.5
			c2,0,4-0.5,6.2-1.6L69.7,26.6z M66.7,17.2c-0.1-1.1-0.2-2.1-0.4-2.9c-0.5-2-1.4-3.1-2.8-3.1c-1.1,0-2,0.5-2.9,1.5
			c-0.9,1.1-1.5,2.5-1.7,4.2l0.1,0.3H66.7z"/>
	</g>
	<g class="st1">
		<defs>
			<rect id="SVGID_23_" width="184.7" height="44"/>
		</defs>
		<clipPath id="SVGID_24_">
			<use xlink:href="#SVGID_23_"  style="overflow:visible;"/>
		</clipPath>
		<path class="st13" d="M69.7,26.6c-2.6,1.3-5.1,1.9-7.6,1.9c-1.8,0-3.3-0.6-4.4-1.8c-1.1-1.2-1.6-2.9-1.6-5c0-3.5,0.8-6.4,2.3-8.7
			c1.5-2.2,3.2-3.3,5.3-3.3c1.7,0,3,0.8,4,2.3c1,1.5,1.6,3.7,1.8,6.6H58.5c-0.1,1-0.2,1.8-0.2,2.7c0,3.7,1.6,5.5,4.7,5.5
			c2,0,4-0.5,6.2-1.6L69.7,26.6z M66.7,17.2c-0.1-1.1-0.2-2.1-0.4-2.9c-0.5-2-1.4-3.1-2.8-3.1c-1.1,0-2,0.5-2.9,1.5
			c-0.9,1.1-1.5,2.5-1.7,4.2l0.1,0.3H66.7z"/>
	</g>
	<g class="st1">
		<defs>
			<rect id="SVGID_25_" width="184.7" height="44"/>
		</defs>
		<clipPath id="SVGID_26_">
			<use xlink:href="#SVGID_25_"  style="overflow:visible;"/>
		</clipPath>
		<path class="st14" d="M87.2,26.2c0,3.8-0.5,6.4-1.4,8c-1,1.7-2.8,2.5-5.3,2.5c-1.9,0-3.8-0.7-5.5-2.1l1.4-1.8c1.6,1.3,3.2,2,4.9,2
			c1.5,0,2.5-0.6,3.1-1.7c0.5-1.1,0.8-3,0.8-5.7V22h-0.2c-1.3,4.3-3.5,6.5-6.5,6.5c-1.5,0-2.7-0.6-3.5-1.9c-0.8-1.3-1.3-3.1-1.3-5.5
			c0-3.6,0.7-6.4,2.1-8.4c1.4-2,3.3-3,5.6-3c2.2,0,3.7,0.8,4.6,2.4c0.9,1.5,1.3,4,1.3,7.5L87.2,26.2L87.2,26.2z M84.7,16
			c0-1.4-0.3-2.5-1-3.4c-0.7-0.8-1.5-1.3-2.6-1.3c-1.5,0-2.7,0.8-3.8,2.4c-1.2,1.7-1.7,3.9-1.7,6.5c0,4.4,1.1,6.5,3.2,6.5
			c1.2,0,2.3-0.8,3.4-2.3C83.9,22.2,84.7,19.3,84.7,16"/>
	</g>
	<g class="st1">
		<defs>
			<rect id="SVGID_27_" width="184.7" height="44"/>
		</defs>
		<clipPath id="SVGID_28_">
			<use xlink:href="#SVGID_27_"  style="overflow:visible;"/>
		</clipPath>
		<path class="st15" d="M87.2,26.2c0,3.8-0.5,6.4-1.4,8c-1,1.7-2.8,2.5-5.3,2.5c-1.9,0-3.8-0.7-5.5-2.1l1.4-1.8c1.6,1.3,3.2,2,4.9,2
			c1.5,0,2.5-0.6,3.1-1.7c0.5-1.1,0.8-3,0.8-5.7V22h-0.2c-1.3,4.3-3.5,6.5-6.5,6.5c-1.5,0-2.7-0.6-3.5-1.9c-0.8-1.3-1.3-3.1-1.3-5.5
			c0-3.6,0.7-6.4,2.1-8.4c1.4-2,3.3-3,5.6-3c2.2,0,3.7,0.8,4.6,2.4c0.9,1.5,1.3,4,1.3,7.5L87.2,26.2L87.2,26.2z M84.7,16
			c0-1.4-0.3-2.5-1-3.4c-0.7-0.8-1.5-1.3-2.6-1.3c-1.5,0-2.7,0.8-3.8,2.4c-1.2,1.7-1.7,3.9-1.7,6.5c0,4.4,1.1,6.5,3.2,6.5
			c1.2,0,2.3-0.8,3.4-2.3C83.9,22.2,84.7,19.3,84.7,16z"/>
	</g>
	<g class="st1">
		<defs>
			<rect id="SVGID_29_" width="184.7" height="44"/>
		</defs>
		<clipPath id="SVGID_30_">
			<use xlink:href="#SVGID_29_"  style="overflow:visible;"/>
		</clipPath>
		<path class="st16" d="M105.3,26.6c-2.6,1.3-5.1,1.9-7.6,1.9c-1.8,0-3.3-0.6-4.4-1.8c-1.1-1.2-1.6-2.9-1.6-5c0-3.5,0.8-6.4,2.3-8.7
			c1.5-2.2,3.2-3.3,5.3-3.3c1.7,0,3,0.8,4,2.3c1,1.5,1.6,3.7,1.8,6.6H94.1c-0.1,1-0.2,1.8-0.2,2.7c0,3.7,1.6,5.5,4.7,5.5
			c2,0,4-0.5,6.2-1.6L105.3,26.6z M102.3,17.2c-0.2-4-1.3-6-3.2-6c-1.1,0-2,0.5-2.9,1.5c-0.9,1.1-1.5,2.5-1.7,4.2l0.1,0.3H102.3z"/>
	</g>
	<g class="st1">
		<defs>
			<rect id="SVGID_31_" width="184.7" height="44"/>
		</defs>
		<clipPath id="SVGID_32_">
			<use xlink:href="#SVGID_31_"  style="overflow:visible;"/>
		</clipPath>
		<path class="st17" d="M105.3,26.6c-2.6,1.3-5.1,1.9-7.6,1.9c-1.8,0-3.3-0.6-4.4-1.8c-1.1-1.2-1.6-2.9-1.6-5c0-3.5,0.8-6.4,2.3-8.7
			c1.5-2.2,3.2-3.3,5.3-3.3c1.7,0,3,0.8,4,2.3c1,1.5,1.6,3.7,1.8,6.6H94.1c-0.1,1-0.2,1.8-0.2,2.7c0,3.7,1.6,5.5,4.7,5.5
			c2,0,4-0.5,6.2-1.6L105.3,26.6z M102.3,17.2c-0.2-4-1.3-6-3.2-6c-1.1,0-2,0.5-2.9,1.5c-0.9,1.1-1.5,2.5-1.7,4.2l0.1,0.3H102.3z"/>
	</g>
	<g class="st1">
		<defs>
			<rect id="SVGID_33_" width="184.7" height="44"/>
		</defs>
		<clipPath id="SVGID_34_">
			<use xlink:href="#SVGID_33_"  style="overflow:visible;"/>
		</clipPath>
		<path class="st18" d="M122.1,10.8l-1.4,2.4c-1.3-0.9-2.6-1.4-4.1-1.4c-2.2,0-3.4,0.8-3.4,2.5c0,0.8,0.4,1.5,1.1,2.1
			c0.5,0.4,1.5,1,2.9,1.6c1.6,0.8,2.8,1.5,3.5,2.2c0.8,0.8,1.2,1.8,1.2,3c0,1.5-0.7,2.8-2,3.7c-1.4,1-3.3,1.5-5.6,1.5
			c-2.2,0-4-0.3-5.6-1l1-2.5c1.4,0.9,2.7,1.3,4.1,1.3c1.2,0,2.1-0.2,2.7-0.7c0.7-0.5,1-1.1,1-1.9c0-0.7-0.3-1.3-1-1.8
			c-0.4-0.3-1.3-0.8-2.7-1.5c-3.3-1.6-5-3.5-5-5.8c0-1.5,0.7-2.7,2.1-3.6c1.4-0.9,3.3-1.3,5.7-1.3C118.7,9.6,120.6,10,122.1,10.8"/>
	</g>
	<g class="st1">
		<defs>
			<rect id="SVGID_35_" width="184.7" height="44"/>
		</defs>
		<clipPath id="SVGID_36_">
			<use xlink:href="#SVGID_35_"  style="overflow:visible;"/>
		</clipPath>
		<path class="st19" d="M122.1,10.8l-1.4,2.4c-1.3-0.9-2.6-1.4-4.1-1.4c-2.2,0-3.4,0.8-3.4,2.5c0,0.8,0.4,1.5,1.1,2.1
			c0.5,0.4,1.5,1,2.9,1.6c1.6,0.8,2.8,1.5,3.5,2.2c0.8,0.8,1.2,1.8,1.2,3c0,1.5-0.7,2.8-2,3.7c-1.4,1-3.3,1.5-5.6,1.5
			c-2.2,0-4-0.3-5.6-1l1-2.5c1.4,0.9,2.7,1.3,4.1,1.3c1.2,0,2.1-0.2,2.7-0.7c0.7-0.5,1-1.1,1-1.9c0-0.7-0.3-1.3-1-1.8
			c-0.4-0.3-1.3-0.8-2.7-1.5c-3.3-1.6-5-3.5-5-5.8c0-1.5,0.7-2.7,2.1-3.6c1.4-0.9,3.3-1.3,5.7-1.3C118.7,9.6,120.6,10,122.1,10.8z"
			/>
	</g>
	<g class="st1">
		<defs>
			<rect id="SVGID_37_" width="184.7" height="44"/>
		</defs>
		<clipPath id="SVGID_38_">
			<use xlink:href="#SVGID_37_"  style="overflow:visible;"/>
		</clipPath>
		<path class="st20" d="M140.3,28.3l-4.5,0.5l-0.2-2.9h-0.1c-1.3,1.7-3.2,2.6-5.6,2.6c-1.5,0-2.7-0.4-3.5-1.1
			c-0.9-0.7-1.3-1.7-1.3-3c0-1.3,0.6-2.4,1.7-3.3c1.1-0.9,2.6-1.3,4.4-1.3c1.5,0,2.9,0.3,4.2,0.9v-1.2c0-3-0.1-4.9-0.4-5.9
			c-0.3-1.2-1.1-1.8-2.2-1.8c-2,0-3.3,1.9-4,5.6l-3.5-1c1.4-4.5,4.2-6.8,8.4-6.8c1.5,0,2.7,0.3,3.6,0.8s1.5,1.4,2,2.6
			c0.3,0.7,0.4,2.5,0.4,5.4C139.7,22.5,139.9,25.8,140.3,28.3 M135.4,22.9c-0.6-0.8-1.6-1.2-2.9-1.2c-2.1,0-3.2,0.8-3.2,2.5
			c0,0.6,0.2,1.1,0.7,1.5c0.4,0.4,1,0.6,1.7,0.6c1,0,1.8-0.3,2.6-1C134.9,24.6,135.3,23.8,135.4,22.9"/>
	</g>
	<g class="st1">
		<defs>
			<rect id="SVGID_39_" width="184.7" height="44"/>
		</defs>
		<clipPath id="SVGID_40_">
			<use xlink:href="#SVGID_39_"  style="overflow:visible;"/>
		</clipPath>
		<path class="st21" d="M140.3,28.3l-4.5,0.5l-0.2-2.9h-0.1c-1.3,1.7-3.2,2.6-5.6,2.6c-1.5,0-2.7-0.4-3.5-1.1
			c-0.9-0.7-1.3-1.7-1.3-3c0-1.3,0.6-2.4,1.7-3.3c1.1-0.9,2.6-1.3,4.4-1.3c1.5,0,2.9,0.3,4.2,0.9v-1.2c0-3-0.1-4.9-0.4-5.9
			c-0.3-1.2-1.1-1.8-2.2-1.8c-2,0-3.3,1.9-4,5.6l-3.5-1c1.4-4.5,4.2-6.8,8.4-6.8c1.5,0,2.7,0.3,3.6,0.8s1.5,1.4,2,2.6
			c0.3,0.7,0.4,2.5,0.4,5.4C139.7,22.5,139.9,25.8,140.3,28.3z M135.4,22.9c-0.6-0.8-1.6-1.2-2.9-1.2c-2.1,0-3.2,0.8-3.2,2.5
			c0,0.6,0.2,1.1,0.7,1.5c0.4,0.4,1,0.6,1.7,0.6c1,0,1.8-0.3,2.6-1C134.9,24.6,135.3,23.8,135.4,22.9z"/>
	</g>
	<g class="st1">
		<defs>
			<rect id="SVGID_41_" width="184.7" height="44"/>
		</defs>
		<clipPath id="SVGID_42_">
			<use xlink:href="#SVGID_41_"  style="overflow:visible;"/>
		</clipPath>
		<path class="st22" d="M156.6,27.1c-1.8,0.9-3.7,1.3-5.5,1.3s-3.1-0.6-3.8-1.7c-0.8-1.2-1.1-3.1-1.1-5.8c0-1.7,0.1-3.8,0.3-6.3
			h-3.8l0.3-2.1h3.7l0.5-5.3l4.6-0.5l-0.7,5.8h5.1l-0.2,2.1h-5.1c-0.2,2.3-0.3,4.4-0.3,6.2c0,1.8,0.2,3.1,0.5,3.9
			c0.3,0.8,1,1.2,1.9,1.2c0.9,0,1.9-0.3,3-0.8L156.6,27.1z"/>
	</g>
	<g class="st1">
		<defs>
			<rect id="SVGID_43_" width="184.7" height="44"/>
		</defs>
		<clipPath id="SVGID_44_">
			<use xlink:href="#SVGID_43_"  style="overflow:visible;"/>
		</clipPath>
		<path class="st23" d="M156.6,27.1c-1.8,0.9-3.7,1.3-5.5,1.3s-3.1-0.6-3.8-1.7c-0.8-1.2-1.1-3.1-1.1-5.8c0-1.7,0.1-3.8,0.3-6.3
			h-3.8l0.3-2.1h3.7l0.5-5.3l4.6-0.5l-0.7,5.8h5.1l-0.2,2.1h-5.1c-0.2,2.3-0.3,4.4-0.3,6.2c0,1.8,0.2,3.1,0.5,3.9
			c0.3,0.8,1,1.2,1.9,1.2c0.9,0,1.9-0.3,3-0.8L156.6,27.1z"/>
	</g>
	<g class="st1">
		<defs>
			<rect id="SVGID_45_" width="184.7" height="44"/>
		</defs>
		<clipPath id="SVGID_46_">
			<use xlink:href="#SVGID_45_"  style="overflow:visible;"/>
		</clipPath>
		<path class="st24" d="M174.7,14.5l-0.5,13.2l-4.4,0.3l-0.1-0.3l0.6-9.7c0-0.4,0-0.7,0-1c0-2-0.7-3-2-3c-1.2,0-2.4,0.9-3.4,2.6
			c-1.1,1.8-1.7,4.1-1.7,6.8l-0.1,4.9h-4.2V1l4.7-0.6L163,16h0.2c1.6-3.9,4.1-5.8,7.3-5.8c2.7,0,4.1,1.4,4.1,4.1L174.7,14.5
			L174.7,14.5z"/>
	</g>
	<g class="st1">
		<defs>
			<rect id="SVGID_47_" width="184.7" height="44"/>
		</defs>
		<clipPath id="SVGID_48_">
			<use xlink:href="#SVGID_47_"  style="overflow:visible;"/>
		</clipPath>
		<path class="st25" d="M174.7,14.5l-0.5,13.2l-4.4,0.3l-0.1-0.3l0.6-9.7c0-0.4,0-0.7,0-1c0-2-0.7-3-2-3c-1.2,0-2.4,0.9-3.4,2.6
			c-1.1,1.8-1.7,4.1-1.7,6.8l-0.1,4.9h-4.2V1l4.7-0.6L163,16h0.2c1.6-3.9,4.1-5.8,7.3-5.8c2.7,0,4.1,1.4,4.1,4.1L174.7,14.5
			L174.7,14.5z"/>
	</g>
	<g class="st1">
		<defs>
			<rect id="SVGID_49_" width="184.7" height="44"/>
		</defs>
		<clipPath id="SVGID_50_">
			<use xlink:href="#SVGID_49_"  style="overflow:visible;"/>
		</clipPath>
		<path class="st26" d="M183.8,2.8c0,0.5-0.2,0.9-0.5,1.3c-0.4,0.4-0.8,0.5-1.3,0.5c-0.5,0-0.9-0.2-1.3-0.5
			c-0.3-0.3-0.5-0.8-0.5-1.3s0.2-0.9,0.5-1.3S181.5,1,182,1c0.5,0,0.9,0.2,1.3,0.5C183.6,1.9,183.8,2.4,183.8,2.8 M184.4,9.8v18.3
			h-4.1l-0.6-17.5L184.4,9.8z"/>
	</g>
	<g class="st1">
		<defs>
			<rect id="SVGID_51_" width="184.7" height="44"/>
		</defs>
		<clipPath id="SVGID_52_">
			<use xlink:href="#SVGID_51_"  style="overflow:visible;"/>
		</clipPath>
		<path class="st27" d="M183.8,2.8c0,0.5-0.2,0.9-0.5,1.3c-0.4,0.4-0.8,0.5-1.3,0.5c-0.5,0-0.9-0.2-1.3-0.5
			c-0.3-0.3-0.5-0.8-0.5-1.3s0.2-0.9,0.5-1.3S181.5,1,182,1c0.5,0,0.9,0.2,1.3,0.5C183.6,1.9,183.8,2.4,183.8,2.8z M184.4,9.8v18.3
			h-4.1l-0.6-17.5L184.4,9.8z"/>
	</g>
</g>
<g id="Layer_2_1_">
	<g id="Layer_1-2">
		<g id="New_Layer">
			<path class="st28" d="M41.9,0.3c-0.7,0.2-1.4,0.4-1.4,0.4s-0.4,6.3-0.5,10c-0.3,8.8,0,12.8,1.1,15c0.5,1.2,1.5,2.1,2.6,2.6
				l0.3,0.2l1-0.7c0.7-0.5,0.9-0.7,0.9-0.7c-0.6-0.3-1.1-0.7-1.6-1.1c-1.6-1.5-1.9-3-1.9-8.4c0-4.2,0.2-8.9,0.8-15.2
				c0.1-1.2,0.2-2.3,0.2-2.3C42.8,0.1,42.3,0.2,41.9,0.3z"/>
			<path class="st28" d="M49.9,0.3l-1.4,0.4c0,0-0.3,4.4-0.4,7.2c-0.2,4.5-0.2,10.4-0.1,12.4c0.1,1.5,0.3,2.9,0.7,4.4
				c0.4,1.6,1.5,2.9,3,3.6l0.4,0.2l1-0.7l1-0.6l-0.5-0.3c-0.9-0.5-1.7-1.3-2.2-2.2c-0.5-0.9-0.7-2-0.8-3c-0.1-0.9-0.1-7.3,0-9.4
				c0.2-3.6,0.4-7.4,0.7-10.6V0L49.9,0.3z"/>
			<path class="st28" d="M161.5,0.4L159,0.7v27.5h4.7V28c0-1.2,0.2-6,0.3-6.6c0.2-2.3,1.1-4.6,2.6-6.4c0.5-0.7,1.4-1,2.3-0.9
				c0.8,0.1,1.2,0.8,1.4,2.1c0,1.9-0.1,3.8-0.2,5.7c-0.2,2.8-0.3,5.1-0.3,5.3c0,0.4,0.2,0.7,0.3,0.7c0.4,0,4.6-0.3,4.7-0.3
				c0,0,0.5-13.8,0.5-14.2c-0.1-1.3-0.8-2.4-1.9-3c-0.8-0.4-1.6-0.6-2.5-0.5c-0.9,0-1.7,0.1-2.5,0.4c-1.9,0.8-3.4,2.3-4.3,4.1
				l-0.3,0.6v-0.5c0-0.6,0.3-12,0.4-13.4c0-0.8,0-0.9-0.1-0.9L161.5,0.4z"/>
			<path class="st28" d="M181.2,0.8c-0.5,0.2-0.9,0.6-1.1,1.1c-0.3,0.7-0.1,1.6,0.4,2.2c0.8,0.8,2.1,0.8,2.9,0.1c0,0,0,0,0.1-0.1
				c0.4-0.4,0.6-1,0.6-1.5c0-0.6-0.3-1.1-0.7-1.4C182.7,0.6,181.9,0.5,181.2,0.8z"/>
			<path class="st28" d="M9.7,3.4C7,3.9,4.7,5.6,3.4,8.1c-1,1.6-1.7,3.3-2.2,5.1c-0.8,3.2-0.9,6.5-0.3,9.8C1.2,24.4,2,25.6,3,26.6
				c1.7,1.5,4.3,2.1,7.8,1.7c2.1-0.2,4.1-0.7,6-1.5c0.6-0.3,1.2-0.5,1.7-0.9l-0.7-2.3c-0.2,0-0.3,0.1-0.4,0.1
				c-2.2,1.3-4.8,2-7.4,1.9c-0.7,0-1.4,0-2.1-0.1c-2.1-0.2-3.8-1.8-4.1-3.9C3.5,19,3.5,16.6,4,14.2C4.7,10.3,6.6,7.2,8.8,6
				c1.1-0.6,2.4-0.6,3.5,0c1.2,0.8,1.9,2.7,2,5.5c0,0.2,0,0.4,0.1,0.7L16,12l1.6-0.3c-0.1-0.7-0.2-1.5-0.3-2.2
				c-0.3-1.6-1-3.1-2.1-4.3C13.7,3.6,11.7,3,9.7,3.4z"/>
			<path class="st28" d="M150,6.5c-1.3,0.2-2.5,0.3-2.5,0.3s-0.1,1.1-0.2,2.3c-0.1,1.3-0.2,2.5-0.3,2.6v0.3h-1.8c-0.6,0-1.2,0-1.8,0
				c0,0.1-0.3,2.1-0.3,2.3v0.2h3.8v0.6c-0.1,1.9-0.2,2.5-0.2,4.2c0,1.3,0,2.2,0,2.8c0.3,3.6,1.3,5.3,3.6,5.8
				c0.5,0.1,1.1,0.1,1.6,0.1c1,0,2.1-0.1,3.1-0.4c0.9-0.2,1.7-0.6,2.5-1c0,0-0.2-0.6-0.4-1.2c-0.2-0.6-0.4-1.2-0.4-1.2
				c-0.2,0.1-0.4,0.1-0.5,0.2c-0.6,0.3-1.3,0.5-1.9,0.6c-1,0.1-1.4,0-1.9-0.4s-0.7-1.2-0.8-2.9c-0.1-2.1,0-4.3,0.2-6.4l0.1-0.8h4.9
				l0.1-1.1c0-0.6,0.1-1.2,0.1-1.2v-0.2h-5v-0.2c0-0.1,0.1-1.3,0.3-2.7c0.2-1.4,0.3-2.6,0.3-2.7c0-0.1,0-0.2,0-0.2L150,6.5z"/>
			<path class="st28" d="M30,11.7c1.4,0.6,2.4,1.8,2.8,3.2c0.4,1.3,0.6,2.6,0.5,3.9c0.1,2.1-0.7,4.2-2.1,5.8
				c-0.6,0.7-1.5,1.1-2.5,1.1c-1.7,0-3-1.1-3.9-3.1c-0.6-1.4-0.8-3-0.7-4.5c0-1.3,0.3-2.6,0.8-3.8c0.3-0.7,0.8-1.3,1.3-1.9
				c0.5-0.5,1-0.8,1.7-1C28.7,11.6,29.3,11.6,30,11.7z M27.5,9.4c-1.3,0.3-2.6,0.9-3.5,2c-1.6,1.8-2.5,4-2.5,6.4
				c-0.1,1.7,0.1,3.5,0.6,5.1c0.6,1.9,1.8,3.5,3.4,4.5c2.5,1.4,5.6,1,7.5-1.1c1.8-1.8,2.8-4.3,2.8-6.9c0.3-4.8-1.6-8.7-4.8-10
				C29.9,9.2,28.7,9.1,27.5,9.4z"/>
			<path class="st28" d="M63.3,11.4c0.3,0.1,0.6,0.3,0.8,0.5c0.4,0.5,0.8,1,0.9,1.6c0.3,0.9,0.5,1.9,0.5,2.9v0.2H62h-3.5v-0.2
				c0.2-2.3,1.8-4.6,3.4-5C62.3,11.3,62.8,11.3,63.3,11.4L63.3,11.4z M61.4,9.4c-2.2,0.7-3.9,2.3-4.8,4.4c-1.1,2.4-1.7,5.1-1.5,7.9
				c-0.1,1.9,0.6,3.8,2,5.2c1.1,1,2.6,1.5,4.1,1.5c2.5,0,4.9-0.6,7.2-1.7l0.7-0.3l-0.3-0.9c-0.2-0.5-0.3-0.9-0.3-0.9s-0.1,0-0.4,0.1
				c-1.7,0.9-3.6,1.4-5.6,1.5c-0.5,0.1-1.1,0-1.6-0.1c-0.7-0.1-1.3-0.5-1.8-1c-0.8-0.9-1.2-2-1.2-3.2c-0.1-1,0-2,0.1-2.9v-0.3h10.7
				V18c0-1.9-0.5-3.7-1.2-5.4c-0.5-1.2-1.4-2.1-2.5-2.7c-0.6-0.3-1.4-0.5-2.1-0.5c-0.5,0-0.9,0-1.4,0.1L61.4,9.4z"/>
			<path class="st28" d="M80.6,11.5c0.5,0.1,1,0.4,1.4,0.8c1,1,1.3,2.2,1.2,4.4c-0.1,2.5-0.8,5-2.2,7.2c-0.5,0.8-1.2,1.4-2,2
				c-0.9,0.6-2.1,0.4-2.9-0.3c-0.7-0.9-1.2-2-1.2-3.2c-0.1-1.4-0.1-2.7,0-4.1c0.2-1.9,0.9-3.7,2.1-5.2
				C77.8,11.8,79.2,11.3,80.6,11.5z M78.8,9.3c-1.6,0.3-3,1.1-3.9,2.3c-1.5,2-2.4,4.4-2.5,7c-0.1,1.4-0.1,2.7,0,4.1
				c0.4,2.9,1.5,4.7,3.4,5.4c1.3,0.4,2.7,0.2,4-0.4c0.9-0.5,1.8-1.2,2.4-2.1c0.5-0.7,0.9-1.4,1.2-2.2c0.1-0.3,0.2-0.5,0.2-0.5
				s0,4.6,0,5.8c-0.2,4-1.1,5.3-3.6,5.3c-1.6,0-3.1-0.6-4.3-1.6L75.1,32l-0.6,0.8l-0.9,1.1l-0.3,0.3l0.5,0.4
				c0.5,0.4,1.2,0.8,1.8,1.1c0.8,0.4,1.6,0.6,2.5,0.7c1.3,0.2,2.7,0,3.9-0.4c2.5-1,3.5-3,3.9-7.6c0.1-1.2,0.1-10.8,0-12
				c-0.4-4.7-1.8-6.7-4.7-7.3C80.4,9.2,79.5,9.2,78.8,9.3L78.8,9.3z"/>
			<path class="st28" d="M98.2,11.4c0.9,0.3,1.5,1.4,1.9,3.1c0.1,0.4,0.3,1.9,0.3,2s-1.6,0-3.6,0h-3.6v-0.4c0.1-1,0.5-1.9,1-2.7
				c0.4-0.7,0.9-1.2,1.6-1.7C96.4,11.2,97.4,11.1,98.2,11.4L98.2,11.4z M96.3,9.4c-1.9,0.6-3.6,1.9-4.5,3.7
				c-1.2,2.2-1.9,4.6-1.9,7.1c-0.3,2.1,0.2,4.2,1.4,5.9c1.1,1.5,2.9,2.3,4.8,2.2c2,0,3.9-0.4,5.7-1.1c0.7-0.2,1.4-0.6,2.1-1
				l-0.3-0.9c-0.2-0.5-0.3-0.9-0.3-0.9c-0.2,0.1-0.5,0.2-0.7,0.3c-1.1,0.5-2.1,0.8-3.3,1.1C98.6,26,97.9,26,97.2,26
				c-0.6,0.1-1.2,0-1.7-0.1c-0.6-0.2-1.2-0.5-1.6-0.9c-0.5-0.5-0.9-1.2-1-1.9c-0.2-0.7-0.3-1.5-0.2-2.2c0-0.9,0-1.7,0-1.9v-0.3h10.7
				v-0.7c0-0.4-0.1-1.1-0.1-1.5c-0.6-3.9-2.1-6.3-4.6-7C97.9,9.2,97.1,9.2,96.3,9.4z"/>
			<path class="st28" d="M134.6,21.8c0.4,0.1,0.8,0.3,1.2,0.6l0.3,0.2l-0.1,0.3c-0.3,1.2-1.2,2.1-2.4,2.5c-0.3,0.1-0.7,0.2-1.1,0.1
				c-0.5,0-1-0.2-1.4-0.5s-0.6-0.8-0.6-1.3c0-1.2,0.6-1.8,1.9-2C133.2,21.6,133.9,21.7,134.6,21.8L134.6,21.8z M133.2,9.4
				c-1.2,0.2-2.4,0.6-3.4,1.2c-1.3,0.9-2.3,2.2-2.9,3.7c-0.3,0.7-0.6,1.4-0.8,2.1c0,0.1,3.9,1.1,4,1.1v-0.1c0-0.1,0.1-0.4,0.2-0.8
				c0.6-2.5,1.4-3.9,2.6-4.4c0.3-0.1,0.6-0.2,0.9-0.2c0.5-0.1,1,0.1,1.4,0.5c0.6,0.7,0.8,1.8,0.9,5.3c0,1.2,0,2.1,0,2.1l-0.5-0.2
				c-0.8-0.3-1.7-0.4-2.6-0.5c-2.1-0.3-4.3,0.4-5.9,1.9c-0.9,0.8-1.3,2-1.2,3.1c0,1,0.4,2,1.1,2.7c0.3,0.3,0.6,0.6,1,0.8
				c0.8,0.4,1.6,0.6,2.5,0.6c2,0.2,4-0.5,5.4-1.9c0.1-0.1,0.2-0.2,0.3-0.3c0,0,0.1,0.6,0.1,1.2c0,0.7,0.1,1.2,0.1,1.2
				s4.5-0.4,4.8-0.5c0.3-0.1,0.2-0.1,0.2-0.1c0-0.1-0.1-0.6-0.2-1.1c-0.3-2.6-0.5-5.3-0.4-8c-0.1-5.2-0.1-5.8-0.9-7.2
				c-0.8-1.4-2.2-2.4-3.9-2.5C135,9.4,134.1,9.4,133.2,9.4L133.2,9.4z"/>
			<path class="st28" d="M181.9,9.7c-1.4,0.2-2.5,0.5-2.5,0.5s0.1,3.9,0.3,8.7c0.2,4.7,0.3,8.7,0.3,8.9v0.2h4.6v-9.3
				c0-7.5,0-9.4-0.1-9.4L181.9,9.7L181.9,9.7z"/>
			<path class="st28" d="M114.5,9.4c-1.1,0.1-2.1,0.3-3.1,0.8l-0.4,0.2c-0.6,0.3-1.1,0.7-1.6,1.2c-0.5,0.6-0.8,1.2-1.1,1.9l-0.1,0.4
				c-0.1,0.7-0.1,1.5,0,2.2c0.2,0.8,0.6,1.5,1.2,2.1c0.3,0.3,0.6,0.6,1,0.8c0.2,0.1,0.4,0.2,0.6,0.3c0.2,0.1,0.5,0.2,0.5,0.1
				c0.2-0.6,0.4-1.1,0.7-1.6c0,0.1,0,0.2,0,0.4c0,0.3,0,0.4,0.4,0.8c0.1,0.1,0.2,0.3,0.3,0.5c0.2,0.4,0.2,0.4,0.3,0.3
				c0.2-0.2,0.5-0.1,0.7,0.1c0,0.1,0.1,0.1,0.1,0.2s0,0.1,0.2,0.2c0.1,0,0.2,0.1,0.3,0.2c0.1,0.1,0.2,0.3,0.3,0.4
				c0.2,0.2,0.2,0.2,0.2,0.4c-0.1,0.4-0.1,0.4,0.1,0.4s0.2,0,0.1-0.2c0-0.2-0.1-0.3-0.1-0.5c-0.1-0.3-0.1-0.5,0-0.2
				c0.1,0.2,0.1,0.3,0.2,0.5c0.1,0.5,0.2,0.5,0.4,0.5s0.3-0.1,0.1-0.7c-0.1-0.2-0.1-0.4-0.1-0.6c0-0.1,0.1,0.1,0.3,0.6
				c0,0.2,0.1,0.3,0.2,0.5c0.1,0.1,0.3,0.2,0.4,0.1c0.2,0,0.2-0.2,0-0.9c-0.1-0.3-0.1-0.5-0.1-0.6c0,0,0.2,0.2,0.2,0.3
				c0,0.1,0,0.1,0,0.2c0.1,0.1,0.1,0.2,0.1,0.3c0.1,0.4,0.2,0.5,0.4,0.5c0.1,0,0.2-0.1,0.2-0.2c0-0.4,0-0.8-0.1-1.2
				c-0.3-0.5-0.7-1-1.2-1.4c-0.6-0.3-0.6-0.3-1-0.1c-0.2,0.1-0.4,0.2-0.6,0.1c-0.2,0-0.5-0.3-0.5-0.5c0.1-0.2,0.2-0.3,0.3-0.5
				c0.2-0.2,0.3-0.4,0.3-0.4c-0.1,0-0.2-0.1-0.4-0.1c-0.5-0.1-1-0.3-1.5-0.6c-0.1-0.1-0.1-0.2,0-0.2c0.2-0.5,0.2-0.5,0-0.8
				c-0.5-0.7-0.4-1.7,0.3-2.2l0.1-0.1c0.4-0.3,0.9-0.5,1.4-0.5c0.9-0.1,1.9-0.1,2.8,0l0.7,0.1c0.7,0.2,1.4,0.4,2.1,0.8
				c0.4,0.2,0.8,0.3,0.9,0.1c0.1-0.1,0.6-1.4,0.8-1.9c0-0.1,0.1-0.4,0.2-0.5s0.1-0.3,0.1-0.5c-0.1-0.2-0.4-0.4-0.6-0.5
				c-0.9-0.4-1.8-0.7-2.8-0.9l-1-0.2C116.6,9.4,115.6,9.4,114.5,9.4z"/>
			<path class="st28" d="M114.5,17.7c-0.2,0.2-0.4,0.4-0.5,0.6c0,0,0.1,0.1,0.2,0.2c0.1,0.1,0.4,0.1,0.8-0.2
				c0.2-0.1,0.3-0.2,0.3-0.2c0.1,0.1,0.3,0.2,0.4,0.3c0.3,0.2,0.6,0.4,0.8,0.6c0.7,0.7,0.8,0.9,0.8,1.2c0,0.3,0.1,0.7,0.1,0.7
				l0.3-0.1c0.1-0.1,0.3-0.1,0.4-0.1c0.1,0,0.1,0.1,0,0.7l-0.1,0.3l0.2,0.2c0.6,0.6,0.6,1.5,0.1,2.1c-0.5,0.5-1.2,0.8-1.9,0.9
				c-1,0.1-2,0.1-3,0l-0.6-0.1c-1-0.2-1.9-0.6-2.8-1.1s-1.1-0.5-1.3,0.2c-0.1,0.2-0.3,0.6-0.4,0.9c-0.1,0.3-0.3,0.6-0.4,0.9
				c0,0.1-0.1,0.2-0.1,0.3c-0.1,0.1,0,0.4,0.3,0.6c0.6,0.3,1.3,0.7,2,0.9c0.9,0.3,1.9,0.5,2.9,0.7c0.2,0,0.8,0.1,1.3,0.1
				c1.5,0.1,3-0.1,4.4-0.5c1.9-0.5,3.5-2,4.1-3.9c0.1-0.8,0.1-1.7,0-2.6c-0.3-0.9-0.8-1.8-1.6-2.3c-0.5-0.4-1.1-0.7-1.7-0.9
				c-0.1,0-0.2,0.1-0.3,0.5c-0.2,0.7-0.3,0.8-0.4,0.8c0-0.1,0-0.2,0-0.4c0-0.3,0.1-0.3-0.9-0.5c-0.5-0.1-1-0.3-1.3-0.8
				c-0.2-0.2-0.2-0.3-1-0.4l-0.5-0.1C115.1,17.2,114.9,17.3,114.5,17.7L114.5,17.7z"/>
			<path class="st28" d="M112.4,19.5c-0.2,0.2-0.2,0.4,0,0.5c0.2,0.1,0.4,0,0.4-0.1c0-0.2-0.1-0.4-0.3-0.5
				C112.4,19.4,112.4,19.5,112.4,19.5L112.4,19.5z"/>
			<path class="st28" d="M113.2,20c-0.4,0.2-0.5,0.5-0.2,0.7c0.3,0.2,0.2,0.1,0.4,0c0.2-0.1,0.5-0.3,0.5-0.5c0-0.2,0-0.2-0.2-0.2
				C113.4,19.9,113.4,19.8,113.2,20z"/>
			<path class="st28" d="M113.7,20.7c-0.2,0.1-0.3,0.2-0.3,0.4c0,0.2,0.2,0.4,0.3,0.4c0.3-0.1,0.5-0.3,0.6-0.6
				c-0.1-0.2-0.2-0.3-0.3-0.3L113.7,20.7z"/>
			<path class="st28" d="M114.2,21.2c-0.2,0.1-0.2,0.2-0.2,0.3c0,0.2,0,0.2,0.2,0.2c0.1,0,0.2,0,0.3-0.1c0.1-0.1,0.2-0.1,0.1-0.3
				c0-0.2,0-0.2-0.2-0.2C114.4,21.1,114.3,21.2,114.2,21.2z"/>
			<path class="st28" d="M154.4,31.8c-1.8,0.3-3.3,2.3-3.8,4.9c-0.1,0.7-0.2,1.3-0.1,2c-0.1,0.9,0,1.8,0.5,2.6
				c0.4,0.8,1.1,1.5,2,1.7c1.9,0.4,3.8,0.1,5.5-0.8l0.6-0.3l-0.2-0.6l-0.2-0.7c0,0-0.2,0-0.6,0.2c-1,0.5-2.1,0.7-3.2,0.7
				c-1.1,0.1-2.2-0.6-2.4-1.8c-0.2-1-0.2-2,0-3c0.1-1.4,0.8-2.7,2-3.6c0.4-0.3,0.9-0.3,1.3,0c0.4,0.3,0.6,1,0.7,2.1
				c0,0.2,0,0.5,0.1,0.7l1-0.2l1-0.2v-0.2c0-0.3,0-0.5-0.1-0.8c-0.1-1.3-0.9-2.5-2.1-2.9C155.6,31.7,155,31.6,154.4,31.8L154.4,31.8
				z"/>
			<path class="st28" d="M165.5,33.5c0.2,0.1,0.4,0.3,0.6,0.5c0.7,0.8,1.1,1.9,1.1,3c0.2,1.5-0.3,2.9-1.2,4
				c-0.4,0.4-0.9,0.7-1.4,0.6c-0.3,0-0.6,0-0.9-0.2c-0.8-0.5-1.4-1.3-1.6-2.3c-0.1-0.5-0.2-1.1-0.1-1.6c0-0.5,0-1.1,0.1-1.6
				c0.2-1.2,1-2.2,2.1-2.6C164.7,33.3,165.1,33.3,165.5,33.5z M164.1,31.8c-1.6,0.3-2.9,1.4-3.4,3c-0.7,2-0.7,4.1,0.2,6
				c0.3,0.5,0.6,1,1.1,1.4c0.7,0.7,1.7,1.1,2.7,1c0.5,0,1-0.1,1.4-0.3c1.5-0.8,2.6-2.4,2.8-4.1c0.1-1,0.1-2.1,0-3.1
				c-0.1-0.7-0.4-1.3-0.7-1.9c-0.4-0.6-0.9-1-1.5-1.4C165.9,31.9,165,31.7,164.1,31.8L164.1,31.8z"/>
			<path class="st28" d="M172.4,32l-0.9,0.2c-0.1,0-0.1,0,0,0.6c0.3,2.2,0.4,4.3,0.3,6.5v3.9h1.6v-1.2c0-1.2,0.1-2.4,0.4-3.5
				c0.2-1.4,0.9-2.7,1.8-3.8c0.6-0.6,1.4-0.5,1.6,0c0.2,0.5,0.2,0.9,0.2,4.4v3.5h1.5V42c0-0.4,0.1-1.4,0.1-2.2c0-1,0.1-2,0.4-3
				c0.3-1.1,1-2,1.9-2.6c0.2-0.1,0.5-0.2,0.7-0.1c0.4,0,0.5,0,0.6,0.2c0.1,0.2,0.3,0.5,0.2,4.3c0,2,0,3.8-0.1,4.1v0.5h0.9
				c0.6,0,0.8,0,0.8-0.1c0-0.1,0.1-2,0.2-4.3c0.2-4.7,0.2-4.8-0.2-5.5c-0.4-0.7-1.1-1.1-1.9-1c-1.3,0-2.5,0.7-3.2,1.8l-0.2,0.3
				L179,34c-0.1-0.6-0.5-1.2-1.1-1.5c-1-0.4-2.2,0-2.9,0.8c-0.4,0.4-0.8,0.9-1.1,1.5c-0.1,0.3-0.3,0.4-0.3,0.4s0-0.4,0-0.7
				c0-0.6-0.2-2-0.3-2.3V32l-0.7,0.2L172.4,32z"/>
			<path class="st28" d="M146.5,40.8c-0.2,0.1-0.3,0.2-0.5,0.4c-0.2,0.2-0.2,0.5-0.2,0.7c0,0.3,0,0.5,0.2,0.7
				c0.4,0.6,1.2,0.7,1.8,0.3s0.7-1.2,0.3-1.8c-0.1-0.1-0.2-0.2-0.3-0.3c-0.2-0.2-0.4-0.2-0.7-0.2C147,40.6,146.7,40.6,146.5,40.8
				L146.5,40.8z"/>
		</g>
	</g>
</g>
</svg>
