<svg id="New_Layer" data-name="New Layer" xmlns="http://www.w3.org/2000/svg" viewBox="0 0 1080 248.89"><defs><style>.cls-1{fill:#ed2024;fill-rule:evenodd;}</style></defs><path class="cls-1" d="M269.65,12.85c-3.93,1-7.24,1.93-7.34,2-.35.38-2.05,33-2.7,51.87-1.51,45.79,0,66.95,5.57,78.14A29,29,0,0,0,279,158.62l1.87.87,5-3.44c3.63-2.48,4.92-3.51,4.56-3.7a49.63,49.63,0,0,1-8.39-5.88c-8.23-8-10-15.76-10-43.58,0-21.9,1.22-46.46,4-79.2.51-6.53.93-12.06.86-12.28S274.89,11.5,269.65,12.85Z"/><path class="cls-1" d="M311.93,12.85c-4.05,1-7.39,1.9-7.46,2C304.28,15,303,38,302.38,51.92c-1,23.86-1.32,54.09-.64,64.48.64,9.9,1.83,17.91,3.41,22.83,2.86,9.13,8.07,15.53,15.53,19.1l2.35,1.13,5.11-3.41,5.11-3.41-2.5-1.45c-5.57-3.28-9.3-6.94-11.71-11.54s-3.25-8-4.18-16c-.55-4.69-.55-37.94,0-48.87.93-18.69,2.25-38.24,3.73-55.15.39-4.7.71-8.53.71-8.56S316,11.86,311.93,12.85Z"/><path class="cls-1" d="M900.93,13l-13,1.67V157.88h24.44v-1.22c0-6.46,1.06-31.32,1.48-34.47C915.66,108,920.61,96.27,927.81,89c4.12-4.08,7.88-5.62,11.93-4.85,4.28.77,6.37,4,7.08,10.77.29,3,.13,6.69-1.29,29.71-.87,14.51-1.61,27-1.61,27.85,0,1.93.87,3.76,1.74,3.76,2.28-.06,24.31-1.51,24.44-1.64.32-.32,2.7-72,2.44-74.25-.83-7.59-4.31-13.34-9.68-16-4.11-2-6.56-2.51-12.83-2.48-6.07,0-8.74.49-13.37,2.22-8.75,3.28-16.82,11.07-22.35,21.48l-1.58,3v-3c0-3.25,1.77-62.38,2.09-69.78.19-4.31.19-4.57-.39-4.53C914.11,11.31,908,12.05,900.93,13Z"/><path class="cls-1" d="M1005.22,15.26a11.75,11.75,0,0,0-6,5.92c-1.45,3.89-.58,8.65,2.09,11.32a10.73,10.73,0,0,0,15.47.13,9.42,9.42,0,0,0,3-8,9.59,9.59,0,0,0-3.63-7.43A10.27,10.27,0,0,0,1005.22,15.26Z"/><path class="cls-1" d="M99.79,28.8c-12.93,1.87-24.21,10-33.25,24.06A91.76,91.76,0,0,0,55.09,79.74c-4.31,17.08-5.05,38.59-1.73,50.81a38.65,38.65,0,0,0,11,18.71c8.69,7.79,22.58,10.87,41,9.1a101.8,101.8,0,0,0,31.77-8.1,97.53,97.53,0,0,0,9-4.47c.09-.06-3.8-12-4-12.28a15.12,15.12,0,0,0-2.16,1.19c-11.12,6.75-23,9.71-39.16,9.74-6.08,0-7.85-.06-11-.64-12.45-2.29-18.69-8.33-21.39-20.65-1.8-8.39-1.25-25.37,1.23-37.94,4-20.26,14-37,25.5-42.74,6.2-3.09,13.47-3,18.23.29q9.26,6.32,10.74,29a11.2,11.2,0,0,0,.51,3.48c.13,0,4.15-.81,8.88-1.77s8.71-1.77,8.81-1.77c.29,0-.9-7.43-1.83-11.42-2.35-9.8-5.95-17.17-11-22.47C122.21,30.31,111.66,27.1,99.79,28.8Z"/><path class="cls-1" d="M840.63,45.3c-7,.84-12.83,1.57-12.92,1.64s-.65,5.59-1.29,12.22-1.25,12.67-1.35,13.41L824.88,74h-9.62c-5.53,0-9.61.13-9.61.29,0,.35-1.52,11.09-1.74,12.32l-.16.9h20l-.22,3.12c-.71,10-.87,13.08-1,22.12-.16,6.75-.1,11.51.16,14.76,1.54,19,6.88,27.59,19,30.62,2,.48,3.57.61,8.52.61a52.56,52.56,0,0,0,16.28-2.26c5-1.41,12.83-4.66,12.83-5.33,0-.2-.87-3.12-1.93-6.47s-1.93-6.14-1.93-6.2a21.76,21.76,0,0,0-2.74,1.12,37.65,37.65,0,0,1-10.25,3.19c-5.25.74-7.56.19-10-2.35-2.67-2.7-3.73-6.43-4.38-15.15-.51-7.17-.09-20.32,1-33.54l.39-4.24h26.14l.58-5.57c.29-3,.64-6.07.74-6.75l.19-1.19h-26.5l.2-1.06c.06-.55.8-6.88,1.61-14s1.54-13.51,1.64-14.09c.09-.74,0-1-.26-1s-6.18.7-13.19,1.54Z"/><path class="cls-1" d="M194,59.8c-7.59,1.61-12.51,4.41-18.2,10.39-8,8.36-12.31,19.26-13.34,33.7-.68,9.2.48,19.49,3,26.82,3.53,10.39,10,19,17.78,23.73,7,4.28,16.24,5.4,25,3.12a32.53,32.53,0,0,0,14.53-8.84c9-9,14-21,14.92-35.92,1.68-25.41-8.16-45.41-25.4-51.74A36.39,36.39,0,0,0,194,59.8Zm12.61,12.45c6.43,2.22,12,8.58,14.85,16.94,2.13,6.11,2.93,12.61,2.67,20.78-.48,13.79-4.11,23.89-11.12,30.87-4.15,4.15-7.82,5.79-12.93,5.79-8.75,0-15.85-5.66-20.36-16.18-2.76-6.49-3.92-14-3.63-23.54.26-8.45,1.48-14.15,4.25-20a30.13,30.13,0,0,1,7-9.94,20.17,20.17,0,0,1,8.77-5.21A30.48,30.48,0,0,1,206.62,72.25Z"/><path class="cls-1" d="M372.94,59.93c-10.26,2.67-18.75,10.45-25.05,23-5.79,11.51-8.62,25.88-8.08,41,.42,12.45,3.64,20.58,10.68,27.18,5.53,5.17,12.7,7.75,21.61,7.75,11.93,0,25-3.06,37.59-8.75l3.57-1.64-1.57-4.53c-.87-2.51-1.64-4.73-1.74-5s-.64-.16-2,.45c-11,5-19.46,7.17-29.2,7.43-5.12.16-6.11.1-8.59-.51a17.86,17.86,0,0,1-9.49-5.05c-3.92-3.86-5.88-8.91-6.59-16.95a80.7,80.7,0,0,1,.58-15.43l.23-1.19h56.56l-.19-3.15c-.84-11.9-2.93-20.75-6.79-28.53C401,69.1,396.76,64.46,391.3,61.73c-3.73-1.86-5.76-2.31-10.94-2.44C376.44,59.19,375.48,59.29,372.94,59.93Zm9.77,10.36c1.51.45,2.22.93,4,2.66a19.65,19.65,0,0,1,4.95,8.56,63.84,63.84,0,0,1,2.73,15v1.22l-18.55-.07-18.59-.09.1-1c1.32-12.22,9.42-24,18.1-26.33A14.22,14.22,0,0,1,382.71,70.29Z"/><path class="cls-1" d="M464.52,59.67A34,34,0,0,0,443.88,72q-11.06,13.22-13.19,36.24a139.94,139.94,0,0,0,.13,21.45c1.93,15.14,8.07,24.79,18,28.23,5.88,2,14.82,1.22,20.93-1.83a37,37,0,0,0,12.45-11,72.37,72.37,0,0,0,6.17-11.58,22.4,22.4,0,0,1,1.29-2.8c.32-.32.22,24.38-.13,30.3-1.29,21.29-5.69,27.81-18.81,27.81-7.5,0-14.86-2.76-22.35-8.39l-2.9-2.15-3.12,4c-1.7,2.25-3.73,4.89-4.5,5.91L436.48,190l2.83,2.05a45.35,45.35,0,0,0,9.45,5.7,41.91,41.91,0,0,0,12.8,3.79c6.27.9,15.05,0,20.55-2.19,12.74-5.05,18.49-16,20.68-39.36.61-6.4.58-56,0-62.38-2.32-24.73-9.36-35.41-24.92-37.95A50.09,50.09,0,0,0,464.52,59.67Zm9.42,11.23A13.45,13.45,0,0,1,481.05,75c5.11,5.09,6.85,11.45,6.21,22.87-.78,14.76-4.31,26-11.71,37.3-2.44,3.76-7.62,8.94-10.35,10.39-5.54,2.89-11.19,2.28-15-1.64-3.12-3.19-5.11-8.56-6.24-16.76-.64-4.72-.71-17.33-.13-21.41,1.68-11.71,5.28-20.46,11.26-27.56C460.28,72.12,467.61,69.26,473.94,70.9Z"/><path class="cls-1" d="M557.23,59.8C548,61.92,540,68.45,533.69,79.1c-6,10.09-9.2,21.8-10.1,37-.8,14,1.29,23.28,7,31s14.31,11.74,25.28,11.74a91.26,91.26,0,0,0,30-5.66c5-1.84,11.07-4.7,10.94-5.08-.07-.2-.81-2.38-1.67-4.86s-1.58-4.53-1.61-4.57a36.87,36.87,0,0,0-3.73,1.55,96.34,96.34,0,0,1-17.17,5.63c-3.77.8-4.86.9-10.94.9-6.24,0-6.94,0-9.16-.71a18,18,0,0,1-8.4-4.89c-2.54-2.6-4.11-5.63-5.33-10.16-.87-3.09-.87-3.44-.87-11.55,0-4.59.16-9.1.32-10l.29-1.61,28.27-.1,28.26-.06-.22-3.8c-.1-2.09-.49-5.69-.84-8-3-20.45-11.29-32.8-24.25-36.11A32,32,0,0,0,557.23,59.8Zm9.71,10.68c4.57,1.7,8,7.43,9.87,16.33.39,2,1.48,9.75,1.48,10.68,0,.13-8.42.26-18.68.26H540.93l.22-1.84a40.45,40.45,0,0,1,5-14.37,34.83,34.83,0,0,1,8.2-9C558.26,69.93,563.28,69.1,566.94,70.48Z"/><path class="cls-1" d="M752.1,59.51c-5.85.77-13.73,3.64-18.07,6.59-6.37,4.38-11.57,10.81-15.53,19.17-1.67,3.6-4.31,10.87-4,11.16s20.55,5.79,20.81,5.63a1.06,1.06,0,0,0,.25-.81c0-.35.39-2.28.84-4.24,2.93-12.8,7.4-20.42,13.63-23.32,1.52-.7,2.22-.83,4.83-.83,3.6,0,5.37.67,7.27,2.76,3.31,3.7,4.21,9.2,4.53,28,.1,6.17.1,11.19,0,11.19A26.14,26.14,0,0,1,764,114a55.53,55.53,0,0,0-13.5-2.67c-13.54-.93-23.54,2.25-30.91,9.74a20.66,20.66,0,0,0-6.14,16.53c.32,6.08,2.12,10.26,6,14.21a17.72,17.72,0,0,0,5.47,4c4.18,2.06,7.2,2.77,12.77,3,11.61.48,21.09-2.73,28.52-9.71a9.44,9.44,0,0,1,1.67-1.38c0,.06.33,3,.61,6.52s.55,6.44.58,6.47S792.72,158.27,794,158c.8-.16,1-.32.9-.74s-.45-2.92-.81-5.85c-1.54-12.67-1.93-19.65-2.28-41.48-.45-27.4-.81-30.36-4.54-37.27-4.18-7.78-10.41-11.8-20.38-13.19A91.39,91.39,0,0,0,752.1,59.51Zm7.24,65.09a15.88,15.88,0,0,1,6.08,3.28l1.44,1.29-.38,1.73c-1.32,5.85-6.14,10.9-12.45,13a11.35,11.35,0,0,1-5.62.74c-3.54-.16-5.18-.77-7.4-2.73a8.14,8.14,0,0,1-3-7c0-6.14,3.25-9.52,10.26-10.77A38.26,38.26,0,0,1,759.34,124.6Z"/><path class="cls-1" d="M1008.91,61.63c-7.17,1.29-13,2.42-13.12,2.48s.55,20.42,1.35,45.25,1.45,45.69,1.45,46.34v1.22h24.12V108c0-38.91-.1-48.88-.39-48.85S1016.05,60.32,1008.91,61.63Z"/><path class="cls-1" d="M653.06,60.09c-7.56.84-13.09,2.25-16.4,4.18a14.93,14.93,0,0,1-2.09,1c-1.71.67-5.76,3.86-8.14,6.43a30.15,30.15,0,0,0-5.66,10c-.25.8-.58,1.86-.77,2.38-.55,1.45-.38,9.68.19,11.77,1.39,4.92,3.12,8,6.18,11,2.6,2.51,3,2.8,5.08,4l3,1.64c1.58.87,2.67,1,2.67.42,0-.77,3.38-8.56,3.64-8.4a3.47,3.47,0,0,1,.09,1.84c-.22,1.77,0,2.18,2,4.37a12.9,12.9,0,0,1,1.57,2.41c1,2,.9,1.93,1.77,1.32a2.66,2.66,0,0,1,4.18,1.74c.06.61.32.83,1.06,1a1.9,1.9,0,0,1,1.45,1.13,12.23,12.23,0,0,0,1.57,2c.9.9,1.07,1.23.87,2.09-.42,2.25-.38,2.32.45,2.32s.81-.13.74-1a14.86,14.86,0,0,0-.58-2.54c-.54-1.6-.38-2.41.26-1.31a20.23,20.23,0,0,1,1,2.57c.74,2.38,1,2.73,2.15,2.73,1.61,0,1.74-.58.8-3.86a12.77,12.77,0,0,1-.64-3.15c.32-.32.77.58,1.45,3a25.69,25.69,0,0,0,.9,2.7,1.91,1.91,0,0,0,2.28.65c.87-.36.84-.84-.26-4.92-.35-1.42-.67-2.71-.67-2.9,0-.67,1,.9,1,1.61a1.35,1.35,0,0,0,.26.9,5.69,5.69,0,0,1,.68,1.74c.61,2.18,1.09,2.76,2.12,2.51a1.74,1.74,0,0,0,1.06-.87c.23-.58-.16-4.06-.74-6.63-.32-1.38-4.6-6.24-6.56-7.43-2.93-1.73-3-1.76-5.34-.64-1.64.74-2.38.93-3.31.8-1.29-.22-2.64-1.47-2.64-2.47a7.46,7.46,0,0,1,1.84-2.38c1-1,1.73-1.87,1.6-2a5.73,5.73,0,0,0-1.89-.49c-1.84-.29-7.21-2.34-8-3-.35-.32-.38-.61-.13-1.16,1.19-2.54,1.19-2.73,0-4.12-3-3.47-1.9-8.55,2.57-12,1.67-1.32,3-1.84,7.14-2.8,2.38-.55,12.06-.55,14.79,0l3.7.77a42,42,0,0,1,11,4c2.35,1.12,4.41,1.41,4.86.67.32-.51,3.12-7.2,4.18-10,.26-.71.77-2,1.13-2.77a4.35,4.35,0,0,0,.45-2.15A7,7,0,0,0,689.88,66a66.11,66.11,0,0,0-14.63-4.76c-1.58-.29-3.83-.64-5-.84A132,132,0,0,0,653.06,60.09Z"/><path class="cls-1" d="M653.28,103.31a18.57,18.57,0,0,0-2.63,3c0,.19.48.61,1.06.93,1.35.71,2.19.52,4.37-.93.9-.61,1.71-1,1.8-.87a12.2,12.2,0,0,0,2.29,1.32,15.23,15.23,0,0,1,4.37,3.38c3.54,3.7,4.24,4.82,4.15,6.46-.07,1.19.45,3.67.77,3.67,0,0,.74-.29,1.58-.68a4.6,4.6,0,0,1,2.12-.45c.71.23.67.58-.32,3.57l-.58,1.61,1,1.13c3.09,3.66,3.31,7,.68,10.93-1.32,2-5.57,4-10.23,4.82-2.47.42-13.73.23-15.59-.29-.62-.16-1.93-.48-2.9-.7a56.6,56.6,0,0,1-14.86-5.54c-4.85-2.63-5.72-2.5-7,1.07-.36,1-1.35,3.18-2.22,5s-1.77,3.79-2,4.5a5.59,5.59,0,0,1-.74,1.67c-.48.65.33,2.22,1.64,3.09a100.72,100.72,0,0,0,10.26,4.92,124.08,124.08,0,0,0,15.21,3.63c1.16.2,4.31.52,7,.71a62.07,62.07,0,0,0,23.16-2.64,26.36,26.36,0,0,0,8.1-3.6A27.57,27.57,0,0,0,697,135.85c.7-2.47.61-11-.16-13.47a22.68,22.68,0,0,0-8.53-12.16c-2.54-1.83-7.59-4.43-8.55-4.43-.55,0-.84.45-1.61,2.79-1.16,3.45-1.64,4.44-1.9,4a4.7,4.7,0,0,1,0-1.9c.23-1.8.74-1.51-4.66-2.82-3.76-.91-5.66-2-7-4-.9-1.32-1.16-1.42-5.37-2.38-1.22-.29-2.48-.58-2.73-.65S654.92,101.67,653.28,103.31Z"/><path class="cls-1" d="M642,113.18c-.94.94-.84,2.19.19,2.61s2.06.09,2.06-.61-1.13-2.64-1.45-2.64A2.74,2.74,0,0,0,642,113.18Z"/><path class="cls-1" d="M646.15,115.47c-2.09,1.25-2.58,2.76-1.16,3.69.74.45.9.45,1.9,0,1.67-.8,2.47-1.67,2.47-2.76a1.1,1.1,0,0,0-.83-1.26C647.43,114.69,647.43,114.69,646.15,115.47Z"/><path class="cls-1" d="M649,118.68c-1.23.81-1.55,1.19-1.55,1.9a2,2,0,0,0,1.8,1.93c.84,0,3-2.25,3-3.12,0-.51-1.19-1.74-1.68-1.7A18.79,18.79,0,0,0,649,118.68Z"/><path class="cls-1" d="M651.68,121.61c-.9.55-1.06.83-1,1.67s.23,1,1.16,1.09a3.2,3.2,0,0,0,1.86-.41c.68-.42.81-.74.71-1.71s-.22-1.19-.9-1.25A3.6,3.6,0,0,0,651.68,121.61Z"/><path class="cls-1" d="M864,176.85c-9.32,1.68-17.33,12.06-20.16,26.12-.61,3.08-.71,4.69-.74,10.54,0,7.88.26,9.33,2.41,13.67a16.4,16.4,0,0,0,10.36,9c7.14,2.25,18.1.77,28.78-3.93l3.24-1.44-1.09-3.12c-.61-1.71-1.19-3.28-1.25-3.48s-1,0-2.93.87a39.24,39.24,0,0,1-17,3.86c-6.91,0-10.8-2.89-12.57-9.33-.78-2.86-.81-11.44,0-15.75,1.67-9.3,5.62-16.5,10.42-18.94,2.6-1.32,5.11-1.26,6.81.19,2.06,1.7,3.09,5.08,3.44,11.09a19.05,19.05,0,0,0,.39,3.8c.1,0,2.48-.45,5.27-1l5-1.06v-1.16a36.08,36.08,0,0,0-.48-4c-1.45-8.46-5.05-13.38-11.13-15.27A23.57,23.57,0,0,0,864,176.85Z"/><path class="cls-1" d="M914.82,176.89c-7.88,1.19-14.25,6.69-17.78,15.34-3.76,9.29-3.38,23,.9,31.61a24.3,24.3,0,0,0,5.63,7.84,18.7,18.7,0,0,0,14.27,5.5,19.94,19.94,0,0,0,7.59-1.8c7.11-3.21,12.7-11.35,14.67-21.38.67-3.41.58-13.12-.13-16.56a40.44,40.44,0,0,0-3.8-10.2,30.7,30.7,0,0,0-7.84-7.94A22.67,22.67,0,0,0,914.82,176.89Zm7.49,9.13a13.44,13.44,0,0,1,3.38,2.51c3.47,3.54,5.31,8.68,5.6,15.66.38,9.39-1.81,16.75-6.31,21.22-2.54,2.51-4.34,3.31-7.59,3.35a7.09,7.09,0,0,1-4.6-1.1c-3.69-2-6.56-6.17-8.16-12.06-.58-2.18-.68-3.44-.71-8.36s.1-6.2.67-8.36c1.93-7.39,6-12.41,10.94-13.66A12.53,12.53,0,0,1,922.31,186Z"/><path class="cls-1" d="M958.88,177.85c-2.13.52-4.15,1-4.54,1.06-.64.16-.67.23-.26,3,1.42,9.46,1.58,13.12,1.55,34.09l0,20.36h8.16l.2-6.85A95.42,95.42,0,0,1,966,211c1.9-8.55,5.66-16.56,9.26-19.74,3.35-3,7.21-2.86,8.2.19s1.07,4.86,1,23.12l-.06,18.59h7.68l.2-3.63c.13-2,.35-7.14.51-11.48.36-8.3.87-12.32,2-15.76,1.89-5.89,6-11.48,9.93-13.54a7.28,7.28,0,0,1,3.77-.77c2.18,0,2.41.06,3.15.9,1.44,1.7,1.51,2.38,1.28,22.57-.13,10.42-.29,20.1-.38,21.45l-.2,2.51h4.38c3.28,0,4.37-.1,4.37-.42s.39-10.38.87-22.64c1-24.79,1-25.24-.93-28.81s-5.12-5.11-10.07-5.08c-6.72,0-12.83,3.51-16.85,9.58l-.93,1.39-.36-1.55c-1-3.92-2.92-6.62-5.53-7.78-4.76-2-10.77-.42-15.43,4.18a29.79,29.79,0,0,0-5.63,7.65c-.8,1.45-1.45,2.26-1.54,2s-.23-1.93-.32-3.7c-.2-3.25-1-10.42-1.42-12.25l-.22-1Z"/><path class="cls-1" d="M821.73,223.55a9,9,0,0,0-2.42,2.15c-.87,1.26-1,1.61-1,3.86s.09,2.67.9,3.86a6.86,6.86,0,1,0,9.61-9.42,5.36,5.36,0,0,0-3.53-1.1A5.48,5.48,0,0,0,821.73,223.55Z"/></svg>