<svg xmlns="http://www.w3.org/2000/svg" viewBox="0 0 146.02 34"><defs><style>.cls-1{fill:#ed2024;fill-rule:evenodd;}</style></defs><g id="Layer_2" data-name="Layer 2"><g id="New_Layer" data-name="New Layer"><path class="cls-1" d="M32.82.27c-.59.15-1.08.29-1.1.3s-.31,5-.41,7.8c-.22,6.88,0,10.06.84,11.74a4.35,4.35,0,0,0,2.08,2.07l.28.13.75-.51c.55-.38.74-.53.69-.56a7.71,7.71,0,0,1-1.26-.88c-1.24-1.21-1.5-2.37-1.5-6.55,0-3.3.18-7,.6-11.91.07-1,.14-1.81.13-1.85A3.62,3.62,0,0,0,32.82.27Z"/><path class="cls-1" d="M39.18.27l-1.12.3s-.22,3.48-.32,5.57c-.15,3.59-.19,8.13-.09,9.7a15.27,15.27,0,0,0,.51,3.43,4.49,4.49,0,0,0,2.33,2.87l.36.17.77-.51.76-.52L42,21.07a4.39,4.39,0,0,1-1.76-1.74,6.08,6.08,0,0,1-.63-2.41c-.08-.7-.08-5.7,0-7.34.14-2.81.34-5.75.56-8.29L40.29,0Z"/><path class="cls-1" d="M127.72.29l-2,.25V22.07h3.67v-.18c0-1,.16-4.71.23-5.18a8.58,8.58,0,0,1,2.09-5,2,2,0,0,1,1.79-.73c.64.12,1,.6,1.07,1.62a43.14,43.14,0,0,1-.2,4.47c-.13,2.18-.24,4.06-.24,4.18,0,.29.13.57.26.57.34,0,3.66-.23,3.67-.25s.41-10.81.37-11.16A2.88,2.88,0,0,0,137,8a3.57,3.57,0,0,0-1.93-.37,4.74,4.74,0,0,0-2,.33,6.66,6.66,0,0,0-3.36,3.23l-.24.44v-.44c0-.49.27-9.38.32-10.49,0-.65,0-.69-.06-.69Z"/><path class="cls-1" d="M143.39.63a1.77,1.77,0,0,0-.9.89,1.66,1.66,0,0,0,.31,1.7,1.61,1.61,0,0,0,2.33,0,1.42,1.42,0,0,0,.45-1.2A1.47,1.47,0,0,0,145,.92,1.55,1.55,0,0,0,143.39.63Z"/><path class="cls-1" d="M7.29,2.67a7.29,7.29,0,0,0-5,3.61A13.82,13.82,0,0,0,.57,10.33,17.39,17.39,0,0,0,.31,18,5.81,5.81,0,0,0,2,20.78c1.31,1.17,3.4,1.63,6.16,1.36a15.42,15.42,0,0,0,4.78-1.21c.39-.17,1.24-.6,1.35-.68s-.57-1.8-.6-1.84a1.64,1.64,0,0,0-.33.18,10.7,10.7,0,0,1-5.88,1.46A7,7,0,0,1,5.78,20a3.55,3.55,0,0,1-3.21-3.1,17.48,17.48,0,0,1,.18-5.7c.6-3.05,2.11-5.57,3.83-6.43a2.79,2.79,0,0,1,2.75,0c.92.63,1.46,2.08,1.61,4.36a1.44,1.44,0,0,0,.08.52l1.33-.27,1.33-.26A11.59,11.59,0,0,0,13.4,7.4,7.11,7.11,0,0,0,11.74,4,5,5,0,0,0,7.29,2.67Z"/><path class="cls-1" d="M118.65,5.15l-1.94.24s-.1.85-.19,1.84-.19,1.91-.21,2l0,.21h-1.45a10.84,10.84,0,0,0-1.45,0c0,.05-.22,1.67-.26,1.85l0,.14h3l0,.46c-.1,1.51-.13,2-.15,3.33a21.28,21.28,0,0,0,0,2.22c.23,2.85,1,4.15,2.86,4.6a5,5,0,0,0,1.28.09,7.52,7.52,0,0,0,2.45-.34,7.38,7.38,0,0,0,1.92-.8s-.13-.47-.29-1-.29-.92-.29-.93a2.34,2.34,0,0,0-.41.17,5.71,5.71,0,0,1-1.54.47c-.79.12-1.13,0-1.5-.35s-.56-1-.66-2.27a37.82,37.82,0,0,1,.16-5.05l0-.63h3.93l.09-.84c0-.46.1-.91.11-1l0-.17h-4l0-.16c0-.09.12-1,.24-2.12s.23-2,.24-2.11,0-.16,0-.15l-2,.23Z"/><path class="cls-1" d="M21.45,7.33a4.73,4.73,0,0,0-2.73,1.56,7.78,7.78,0,0,0-2,5.07,10.89,10.89,0,0,0,.45,4,6.64,6.64,0,0,0,2.67,3.56A4.89,4.89,0,0,0,23.6,22a4.78,4.78,0,0,0,2.18-1.33A8,8,0,0,0,28,15.29c.25-3.81-1.22-6.82-3.82-7.77A5.44,5.44,0,0,0,21.45,7.33Zm1.9,1.87a3.93,3.93,0,0,1,2.23,2.55,8.33,8.33,0,0,1,.4,3.12,6.58,6.58,0,0,1-1.67,4.64,2.52,2.52,0,0,1-1.94.87c-1.32,0-2.39-.85-3.06-2.43a8.19,8.19,0,0,1-.55-3.54,7,7,0,0,1,.64-3,4.59,4.59,0,0,1,1.05-1.5,3.15,3.15,0,0,1,1.32-.78A4.44,4.44,0,0,1,23.35,9.2Z"/><path class="cls-1" d="M48.35,7.35a6.07,6.07,0,0,0-3.77,3.46A12.85,12.85,0,0,0,43.37,17,5.32,5.32,0,0,0,45,21.05a4.52,4.52,0,0,0,3.24,1.17,13.87,13.87,0,0,0,5.65-1.32l.54-.24L54.17,20c-.13-.37-.24-.71-.26-.74s-.09,0-.3.07a10.66,10.66,0,0,1-4.39,1.11,3.81,3.81,0,0,1-1.29-.07,2.69,2.69,0,0,1-1.42-.76,3.73,3.73,0,0,1-1-2.55,12,12,0,0,1,.08-2.32l0-.18h8.5l0-.47a11,11,0,0,0-1-4.29,4.5,4.5,0,0,0-2-2.15,3.19,3.19,0,0,0-1.64-.37A3.25,3.25,0,0,0,48.35,7.35ZM49.82,8.9a1.17,1.17,0,0,1,.59.41,2.9,2.9,0,0,1,.75,1.28,9.84,9.84,0,0,1,.41,2.26V13H46v-.15c.2-1.83,1.42-3.61,2.72-4A2.27,2.27,0,0,1,49.82,8.9Z"/><path class="cls-1" d="M62.12,7.31A5.11,5.11,0,0,0,59,9.16a9.77,9.77,0,0,0-2,5.44,20.35,20.35,0,0,0,0,3.23c.29,2.27,1.21,3.72,2.71,4.24a4.47,4.47,0,0,0,3.14-.27,5.66,5.66,0,0,0,1.88-1.66,10.49,10.49,0,0,0,.92-1.74,3.48,3.48,0,0,1,.2-.42c0-.05,0,3.66,0,4.55-.2,3.2-.86,4.18-2.83,4.18a5.52,5.52,0,0,1-3.36-1.26l-.44-.32-.46.61c-.26.33-.56.73-.68.89l-.21.27.43.31a6.43,6.43,0,0,0,1.42.85,6.3,6.3,0,0,0,1.92.57,6.81,6.81,0,0,0,3.09-.33c1.91-.76,2.78-2.4,3.11-5.91.09-1,.09-8.42,0-9.38-.35-3.72-1.41-5.32-3.75-5.71A7.86,7.86,0,0,0,62.12,7.31ZM63.53,9a2,2,0,0,1,1.07.62c.77.76,1,1.72.93,3.44a10.46,10.46,0,0,1-1.76,5.6,5.79,5.79,0,0,1-1.55,1.57A1.83,1.83,0,0,1,60,20,4.42,4.42,0,0,1,59,17.46a18.28,18.28,0,0,1,0-3.22A7.86,7.86,0,0,1,60.7,10.1,2.87,2.87,0,0,1,63.53,9Z"/><path class="cls-1" d="M76.05,7.33a5.76,5.76,0,0,0-3.54,2.9A11.86,11.86,0,0,0,71,15.79a6.67,6.67,0,0,0,1,4.66,4.47,4.47,0,0,0,3.8,1.77,13.67,13.67,0,0,0,4.51-.85A7.85,7.85,0,0,0,82,20.6l-.25-.73c-.13-.37-.24-.68-.25-.68a4.77,4.77,0,0,0-.56.23,13.65,13.65,0,0,1-2.58.84,5.93,5.93,0,0,1-1.64.14,3.93,3.93,0,0,1-1.38-.11,2.65,2.65,0,0,1-1.26-.73,3.23,3.23,0,0,1-.8-1.53,4.89,4.89,0,0,1-.13-1.73,14.1,14.1,0,0,1,0-1.5l0-.25h8.5l0-.57c0-.31-.07-.86-.12-1.2-.45-3.08-1.7-4.93-3.65-5.43A4.63,4.63,0,0,0,76.05,7.33Zm1.46,1.6c.69.26,1.21,1.12,1.49,2.46,0,.29.22,1.46.22,1.6S78,13,76.41,13H73.6l0-.27a5.91,5.91,0,0,1,.74-2.16,5.41,5.41,0,0,1,1.23-1.36A2.25,2.25,0,0,1,77.51,8.93Z"/><path class="cls-1" d="M105.35,7.28a7.26,7.26,0,0,0-2.72,1,7,7,0,0,0-2.34,2.88,9.54,9.54,0,0,0-.6,1.67c0,.05,3.09.87,3.13.85a.17.17,0,0,0,0-.12,5.67,5.67,0,0,1,.12-.64c.44-1.92,1.11-3.07,2-3.5a1.34,1.34,0,0,1,.73-.13,1.24,1.24,0,0,1,1.09.42c.5.55.63,1.38.68,4.2,0,.93,0,1.68,0,1.68l-.4-.12a9,9,0,0,0-2-.4,5.56,5.56,0,0,0-4.64,1.47A3.07,3.07,0,0,0,99.54,19a3,3,0,0,0,.9,2.14,2.64,2.64,0,0,0,.82.59,4.09,4.09,0,0,0,1.92.45,5.65,5.65,0,0,0,4.29-1.46,2.06,2.06,0,0,1,.25-.21s0,.45.09,1,.08,1,.09,1,3.55-.36,3.74-.39.16-.05.14-.12-.07-.44-.12-.88a49.57,49.57,0,0,1-.34-6.23c-.07-4.12-.12-4.56-.69-5.6a3.69,3.69,0,0,0-3.06-2A15,15,0,0,0,105.35,7.28Zm1.08,9.79a2.31,2.31,0,0,1,.92.49l.21.2,0,.26A2.81,2.81,0,0,1,105.64,20a1.82,1.82,0,0,1-.85.11,1.5,1.5,0,0,1-1.11-.41,1.2,1.2,0,0,1-.45-1.05c0-.93.49-1.44,1.54-1.62A5.71,5.71,0,0,1,106.43,17.07Z"/><path class="cls-1" d="M144,7.6,142,8s.08,3.07.2,6.8.22,6.87.22,7v.19H146V14.58c0-5.85,0-7.35-.05-7.34Z"/><path class="cls-1" d="M90.46,7.37A6.78,6.78,0,0,0,88,8a1.77,1.77,0,0,1-.31.15,4.7,4.7,0,0,0-1.22,1,4.51,4.51,0,0,0-.86,1.5,3,3,0,0,1-.11.35,6.22,6.22,0,0,0,0,1.77,3.33,3.33,0,0,0,.93,1.65,2.72,2.72,0,0,0,.76.6l.45.24c.24.13.4.16.4.06A7.1,7.1,0,0,1,88.61,14s0,.14,0,.28,0,.33.3.66a1.73,1.73,0,0,1,.23.36c.16.3.14.29.27.2a.4.4,0,0,1,.63.26c0,.09,0,.12.16.14a.3.3,0,0,1,.21.17,2,2,0,0,0,.24.31c.14.13.16.18.13.31-.06.34-.06.35.07.35s.12,0,.11-.15a2.85,2.85,0,0,0-.09-.38c-.08-.24-.06-.36,0-.2a3.27,3.27,0,0,1,.15.39c.11.36.15.41.32.41s.26-.09.12-.58a2.31,2.31,0,0,1-.1-.47c0-.05.12.08.22.45.06.18.12.36.14.4a.29.29,0,0,0,.34.1c.13-.05.13-.13,0-.74,0-.21-.1-.41-.1-.44s.15.14.15.25,0,.12,0,.13a1,1,0,0,1,.11.26c.09.33.16.42.31.38a.27.27,0,0,0,.16-.13,3.33,3.33,0,0,0-.11-1,3.8,3.8,0,0,0-1-1.11c-.44-.26-.45-.27-.81-.1a.82.82,0,0,1-.49.12c-.2,0-.4-.22-.4-.37a1.13,1.13,0,0,1,.28-.36c.15-.14.26-.28.24-.3a1,1,0,0,0-.29-.07A4.41,4.41,0,0,1,89,13.1c-.06,0-.06-.09,0-.17.18-.39.18-.41,0-.62a1.25,1.25,0,0,1,.39-1.82,2.47,2.47,0,0,1,1.07-.42,10.39,10.39,0,0,1,2.23,0l.55.12a6.48,6.48,0,0,1,1.65.6c.35.17.66.21.73.1s.47-1.08.63-1.51L96.39,9a.69.69,0,0,0,.07-.33A1.06,1.06,0,0,0,96,8.26a9.89,9.89,0,0,0-2.2-.71c-.23,0-.57-.1-.75-.13A20,20,0,0,0,90.46,7.37Z"/><path class="cls-1" d="M90.49,13.87a2.47,2.47,0,0,0-.39.45s.07.09.15.14.33.08.66-.14c.14-.09.26-.15.27-.13a2,2,0,0,0,.35.2,2.32,2.32,0,0,1,.65.5c.54.56.64.73.63,1s.06.56.11.56l.24-.11a.64.64,0,0,1,.32-.06c.11,0,.1.08,0,.53l-.09.25.15.16a1.22,1.22,0,0,1,.1,1.65,2.57,2.57,0,0,1-1.54.72,12.07,12.07,0,0,1-2.34,0l-.44-.11A8.31,8.31,0,0,1,87,18.58c-.73-.39-.86-.38-1.05.16,0,.15-.2.48-.33.75a6.69,6.69,0,0,0-.3.67,1,1,0,0,1-.11.25c-.08.1,0,.34.24.47s1.25.63,1.55.74a18.93,18.93,0,0,0,2.28.54c.18,0,.65.08,1.06.11a9.14,9.14,0,0,0,3.48-.4,3.82,3.82,0,0,0,1.21-.54,4.15,4.15,0,0,0,2-2.57,6.22,6.22,0,0,0,0-2,3.5,3.5,0,0,0-1.28-1.83,5.14,5.14,0,0,0-1.29-.67c-.08,0-.13.07-.24.42-.18.52-.25.67-.29.6a.62.62,0,0,1,0-.28c0-.28.11-.23-.7-.43a1.62,1.62,0,0,1-1.06-.6c-.13-.2-.17-.22-.8-.36l-.41-.1S90.74,13.62,90.49,13.87Z"/><path class="cls-1" d="M88.79,15.35c-.14.14-.13.33,0,.39s.31,0,.31-.09-.17-.39-.22-.39A.43.43,0,0,0,88.79,15.35Z"/><path class="cls-1" d="M89.42,15.7c-.32.18-.39.41-.18.55s.14.07.29,0,.37-.25.37-.42a.17.17,0,0,0-.12-.19C89.61,15.58,89.61,15.58,89.42,15.7Z"/><path class="cls-1" d="M89.84,16.18c-.18.12-.23.18-.23.28a.29.29,0,0,0,.27.29.8.8,0,0,0,.46-.46c0-.08-.18-.27-.25-.26Z"/><path class="cls-1" d="M90.25,16.62c-.14.08-.16.12-.15.25s0,.15.18.16a.45.45,0,0,0,.28-.06c.1-.06.12-.11.11-.25s0-.18-.14-.19A.48.48,0,0,0,90.25,16.62Z"/><path class="cls-1" d="M122.17,24.92c-1.4.26-2.61,1.82-3,3.93a6.78,6.78,0,0,0-.11,1.58,3.47,3.47,0,0,0,.36,2.06,2.44,2.44,0,0,0,1.55,1.35,6.66,6.66,0,0,0,4.33-.59l.49-.22-.16-.46c-.1-.26-.18-.5-.19-.53s-.15,0-.44.13a5.89,5.89,0,0,1-2.56.58,1.72,1.72,0,0,1-1.89-1.4,7.81,7.81,0,0,1,0-2.37,3.94,3.94,0,0,1,1.57-2.84.89.89,0,0,1,1,0c.31.25.46.76.52,1.66a2.1,2.1,0,0,0,.06.57s.37-.06.79-.15l.76-.16v-.17a5.7,5.7,0,0,0-.08-.61A2.51,2.51,0,0,0,123.49,25,3.49,3.49,0,0,0,122.17,24.92Z"/><path class="cls-1" d="M129.81,24.93a3.48,3.48,0,0,0-2.68,2.3,6.46,6.46,0,0,0,.14,4.76,3.77,3.77,0,0,0,.84,1.18,2.83,2.83,0,0,0,2.15.82,3,3,0,0,0,1.14-.27,4.34,4.34,0,0,0,2.2-3.21,9.88,9.88,0,0,0,0-2.49,6.68,6.68,0,0,0-.57-1.53,4.81,4.81,0,0,0-1.18-1.2A3.42,3.42,0,0,0,129.81,24.93Zm1.12,1.37a1.93,1.93,0,0,1,.51.38,3.4,3.4,0,0,1,.84,2.35,4.14,4.14,0,0,1-.95,3.19,1.43,1.43,0,0,1-1.14.51,1.07,1.07,0,0,1-.69-.17,2.8,2.8,0,0,1-1.23-1.81,4.5,4.5,0,0,1-.1-1.26,4.18,4.18,0,0,1,.1-1.26,2.62,2.62,0,0,1,1.64-2.05A1.92,1.92,0,0,1,130.93,26.3Z"/><path class="cls-1" d="M136.43,25.07l-.68.16c-.1,0-.11,0,0,.45a28.66,28.66,0,0,1,.23,5.13v3.06h1.23l0-1a14.37,14.37,0,0,1,.31-2.79,6.23,6.23,0,0,1,1.39-3c.5-.44,1.08-.43,1.23,0s.16.73.16,3.48v2.79h1.15l0-.54c0-.3.05-1.08.08-1.73a8.62,8.62,0,0,1,.3-2.37,3.69,3.69,0,0,1,1.49-2,1.15,1.15,0,0,1,.57-.12c.33,0,.36,0,.47.14s.23.35.19,3.39c0,1.57,0,3-.05,3.22l0,.38h.65c.5,0,.66,0,.66-.06s.06-1.56.13-3.4c.15-3.73.15-3.8-.14-4.34a1.54,1.54,0,0,0-1.51-.76,3.05,3.05,0,0,0-2.53,1.44l-.14.21-.06-.23a1.63,1.63,0,0,0-.83-1.17,2.14,2.14,0,0,0-2.32.63,4.51,4.51,0,0,0-.85,1.15c-.12.21-.21.33-.23.3s0-.29-.05-.56a17.55,17.55,0,0,0-.21-1.84l0-.15Z"/><path class="cls-1" d="M115.81,31.94a1.42,1.42,0,0,0-.36.33.74.74,0,0,0-.15.58.79.79,0,0,0,.14.58A1,1,0,1,0,116.88,32a.76.76,0,0,0-.53-.16A.84.84,0,0,0,115.81,31.94Z"/></g></g></svg>