<svg xmlns="http://www.w3.org/2000/svg" width="74" height="42.756" viewBox="0 0 74 42.756">
  <path id="email_1_" data-name="email(1)" d="M72.422,24H21.444a6.6,6.6,0,0,0-6.578,6.578v2.467a1.644,1.644,0,0,0,3.289,0V30.578a4.127,4.127,0,0,1,.164-.987L36.738,45.378,18.32,61.164a4.127,4.127,0,0,1-.164-.987V57.711a1.644,1.644,0,1,0-3.289,0v2.467a6.6,6.6,0,0,0,6.578,6.578H72.422A6.6,6.6,0,0,0,79,60.178v-29.6A6.6,6.6,0,0,0,72.422,24ZM20.787,27.371a1.6,1.6,0,0,1,.658-.082H72.422a1.6,1.6,0,0,1,.658.082L48,48.831a1.729,1.729,0,0,1-2.138,0Zm51.636,36.1H21.444a1.6,1.6,0,0,1-.658-.082l18.5-15.869,4.44,3.864a4.785,4.785,0,0,0,6.413,0l4.44-3.864,18.5,15.869A1.6,1.6,0,0,1,72.422,63.467Zm3.289-3.289a4.127,4.127,0,0,1-.164.987L57.129,45.378,75.547,29.591a4.127,4.127,0,0,1,.164.987ZM9.933,41.267a1.649,1.649,0,0,1,1.644-1.644h9.867a1.644,1.644,0,1,1,0,3.289H11.578A1.649,1.649,0,0,1,9.933,41.267Zm11.511,9.867H6.644a1.644,1.644,0,0,1,0-3.289h14.8a1.644,1.644,0,1,1,0,3.289Z" transform="translate(-5 -24)" fill="#EC1C24"/>
</svg>
