<svg id="Group_5775" data-name="Group 5775" xmlns="http://www.w3.org/2000/svg" xmlns:xlink="http://www.w3.org/1999/xlink" width="265.99" height="42.973" viewBox="0 0 265.99 42.973">
  <defs>
    <clipPath id="clip-path">
      <rect id="Rectangle_1703" data-name="Rectangle 1703" width="265.99" height="42.973" fill="none"/>
    </clipPath>
  </defs>
  <g id="Group_5774" data-name="Group 5774" transform="translate(0 0)" clip-path="url(#clip-path)">
    <path id="Path_351" data-name="Path 351" d="M90.895,12.293,103.018,27.4a1.5,1.5,0,0,0,1.3.635h2.417a1.57,1.57,0,0,0,1.66-1.665V5.376a1.569,1.569,0,0,0-1.66-1.665H104.6a1.642,1.642,0,0,0-1.214.457,1.616,1.616,0,0,0-.468,1.208l.033,14.044L91.023,4.346a1.584,1.584,0,0,0-1.3-.634H87.158a1.641,1.641,0,0,0-1.214.457,1.614,1.614,0,0,0-.468,1.208V26.371a1.613,1.613,0,0,0,.468,1.208,1.641,1.641,0,0,0,1.214.457H89.3a1.63,1.63,0,0,0,1.209-.457,1.65,1.65,0,0,0,.457-1.208Zm22.52-8.649A1.644,1.644,0,0,0,112.2,4.1a1.616,1.616,0,0,0-.468,1.208V26.337a1.616,1.616,0,0,0,.468,1.208,1.642,1.642,0,0,0,1.214.457h12.6a1.628,1.628,0,0,0,1.208-.457,1.652,1.652,0,0,0,.457-1.208v-.914a1.57,1.57,0,0,0-1.665-1.665h-8.765l-.028-18.45a1.652,1.652,0,0,0-.457-1.208,1.63,1.63,0,0,0-1.208-.457Zm16.49.034a1.642,1.642,0,0,0-1.214.457,1.616,1.616,0,0,0-.468,1.208V26.337a1.616,1.616,0,0,0,.468,1.208A1.642,1.642,0,0,0,129.9,28h2.138a1.628,1.628,0,0,0,1.208-.457,1.65,1.65,0,0,0,.457-1.208l-.034-20.995a1.652,1.652,0,0,0-.457-1.208,1.629,1.629,0,0,0-1.208-.457Zm12.519,8.615L154.547,27.4a1.5,1.5,0,0,0,1.3.635h2.417a1.57,1.57,0,0,0,1.66-1.665V5.376a1.569,1.569,0,0,0-1.66-1.665h-2.138a1.642,1.642,0,0,0-1.214.457,1.616,1.616,0,0,0-.468,1.208l.033,14.044L142.552,4.346a1.584,1.584,0,0,0-1.3-.634h-2.562a1.641,1.641,0,0,0-1.214.457A1.614,1.614,0,0,0,137,5.376V26.371a1.613,1.613,0,0,0,.468,1.208,1.641,1.641,0,0,0,1.214.457h2.139a1.629,1.629,0,0,0,1.208-.457,1.65,1.65,0,0,0,.457-1.208Zm22.52-8.615a1.642,1.642,0,0,0-1.214.457,1.616,1.616,0,0,0-.468,1.208V26.371a1.614,1.614,0,0,0,.468,1.208,1.643,1.643,0,0,0,1.214.457h13.722a1.65,1.65,0,0,0,1.214-.457,1.614,1.614,0,0,0,.468-1.208v-.913a1.616,1.616,0,0,0-.468-1.208,1.673,1.673,0,0,0-1.214-.457h-9.918l-.034-5.775h8.726a1.633,1.633,0,0,0,1.209-.462,1.665,1.665,0,0,0,.457-1.219v-.958a1.666,1.666,0,0,0-.457-1.22,1.635,1.635,0,0,0-1.209-.462h-8.726V7.921h9.918a1.664,1.664,0,0,0,1.214-.457,1.614,1.614,0,0,0,.468-1.208V5.343a1.614,1.614,0,0,0-.468-1.208,1.641,1.641,0,0,0-1.214-.457Z" transform="translate(-47.736 -2.035)" fill="#e96a32" fill-rule="evenodd"/>
    <path id="Path_352" data-name="Path 352" d="M323.743,21.312,316.648,4.359a1.614,1.614,0,0,0-.613-.746,1.636,1.636,0,0,0-.919-.278h-2.306a1.743,1.743,0,0,0-1.565.646,1.711,1.711,0,0,0,.034,1.688L320.4,26.7a1.6,1.6,0,0,0,.612.729,1.657,1.657,0,0,0,.919.268h3.442a1.673,1.673,0,0,0,.924-.268,1.631,1.631,0,0,0,.613-.729L336,5.668a1.723,1.723,0,0,0,.028-1.688,1.73,1.73,0,0,0-1.565-.646h-2.072a1.658,1.658,0,0,0-1.532,1.024ZM339.2,3.335a1.642,1.642,0,0,0-1.214.457A1.616,1.616,0,0,0,337.52,5V26a1.616,1.616,0,0,0,.468,1.208,1.644,1.644,0,0,0,1.214.457h2.138a1.63,1.63,0,0,0,1.208-.457A1.652,1.652,0,0,0,343.006,26l-.034-21a1.652,1.652,0,0,0-.457-1.208,1.629,1.629,0,0,0-1.208-.457Zm8.448,0a1.642,1.642,0,0,0-1.214.457A1.616,1.616,0,0,0,345.969,5V26.028a1.615,1.615,0,0,0,.468,1.208,1.642,1.642,0,0,0,1.214.457h7.813a19.878,19.878,0,0,0,5.474-.7,12.652,12.652,0,0,0,3.993-1.832,10.379,10.379,0,0,0,2.6-2.734,10.827,10.827,0,0,0,1.465-3.3,14.5,14.5,0,0,0,.434-3.6,14.178,14.178,0,0,0-.312-3.035,13.541,13.541,0,0,0-.952-2.846,8.762,8.762,0,0,0-1.754-2.517A12.214,12.214,0,0,0,363.8,5.145a12.941,12.941,0,0,0-3.631-1.336,21.542,21.542,0,0,0-4.706-.473Zm7.813,20.115h-4.009V7.578h4.009a12.667,12.667,0,0,1,3.3.4,7.2,7.2,0,0,1,2.406,1.114,6.055,6.055,0,0,1,1.576,1.726,7.241,7.241,0,0,1,.88,2.178,11.678,11.678,0,0,1,.262,2.545,9.849,9.849,0,0,1-.457,3.1,7.275,7.275,0,0,1-1.409,2.489,6.211,6.211,0,0,1-2.623,1.71,11.282,11.282,0,0,1-3.932.612M372.828,3.335a1.642,1.642,0,0,0-1.214.457A1.616,1.616,0,0,0,371.146,5V26.028a1.615,1.615,0,0,0,.468,1.208,1.642,1.642,0,0,0,1.214.457h2.138a1.629,1.629,0,0,0,1.208-.457,1.651,1.651,0,0,0,.457-1.208V17.675h12.1v8.353a1.651,1.651,0,0,0,.457,1.208,1.629,1.629,0,0,0,1.208.457h2.139a1.57,1.57,0,0,0,1.665-1.665V5a1.569,1.569,0,0,0-1.665-1.665H390.4a1.629,1.629,0,0,0-1.208.457A1.652,1.652,0,0,0,388.733,5v8.354h-12.1V5a1.652,1.652,0,0,0-.457-1.208,1.628,1.628,0,0,0-1.208-.457Zm34.2,9.495-5.48-8.693a1.578,1.578,0,0,0-1.437-.769h-2.139c-.9,0-1.481.234-1.737.707a1.877,1.877,0,0,0,.334,1.871l4.945,7.713c.217.351.513.785.891,1.3s.613.852.707,1.008a10.226,10.226,0,0,1,1.242,2.233l-.034.279v8.777a.421.421,0,0,0,.44.44h4.6a.412.412,0,0,0,.317-.123.429.429,0,0,0,.123-.317v-.423q0-2.515-.034-4.684V19.24l.034-.763-.034-.279a8.065,8.065,0,0,1,1.175-2.233q1.161-1.6,1.6-2.306l4.878-7.746c.479-.774.59-1.393.34-1.854s-.835-.691-1.738-.691h-2.077a1.563,1.563,0,0,0-1.431.769ZM434.287,26.7l-2.172-5.151H422.62L420.454,26.7a1.628,1.628,0,0,1-.612.729,1.674,1.674,0,0,1-.925.268h-2.072a1.751,1.751,0,0,1-1.565-.635,1.731,1.731,0,0,1,.033-1.7l9.022-21.029a1.6,1.6,0,0,1,.612-.729,1.67,1.67,0,0,1,.919-.267H428.9a1.672,1.672,0,0,1,.924.267,1.631,1.631,0,0,1,.613.729l9.022,21.029a1.73,1.73,0,0,1,.034,1.7,1.757,1.757,0,0,1-1.571.635h-2.1a1.674,1.674,0,0,1-.925-.268,1.631,1.631,0,0,1-.613-.729M427.37,10.185l-2.935,7.084h5.9Z" transform="translate(-173.709 -1.863)" fill="#6b6260" fill-rule="evenodd"/>
    <path id="Path_353" data-name="Path 353" d="M12.033,25.07l-8.4,8.394A2.13,2.13,0,1,1,.624,30.451l8.391-8.389a13.868,13.868,0,1,1,3.018,3.008M20.193,4.261a9.6,9.6,0,1,0,9.6,9.6,9.607,9.607,0,0,0-9.6-9.6" transform="translate(0 0)" fill="#eb703b" fill-rule="evenodd"/>
    <path id="Path_354" data-name="Path 354" d="M32.954,28.91a10.4,10.4,0,1,0-10.4-10.4,10.4,10.4,0,0,0,10.4,10.4m9.74-10.9a.389.389,0,0,0-.061-.026c-.087-.031-.2-.064-.325-.1a4.216,4.216,0,0,1-.625-.214,4.543,4.543,0,0,1,.988.033c.008.1.018.2.023.306m-2.935-6.48a9.73,9.73,0,0,1,2.88,5.843c-1.286-.152-1.335.119-1.352.223-.054.321.425.457.932.6.116.033.223.064.305.092l.013,0a1.33,1.33,0,0,1-.154.208,1.456,1.456,0,0,0-.184.255,2.7,2.7,0,0,1-1.24.358c-.129-.017-.421-.548-.561-.8-.258-.471-.4-.731-.617-.695a.229.229,0,0,0-.168.123c-.089.177.048.457.342,1.023.1.192.2.391.291.581.291.635,1.1.605,1.494.565a1.327,1.327,0,0,1-.388.427,3.129,3.129,0,0,0-1.116,1.693,5.292,5.292,0,0,1-1.181,2.278c-.649.855-.708.824-.989.68-.064-.034-.137-.071-.222-.107-.315-.135-.3-.687-.291-1.221,0-.184.008-.375,0-.549a3.684,3.684,0,0,1,.024-.737,1.928,1.928,0,0,0,.015-.479,1.068,1.068,0,0,0-.215-.517.837.837,0,0,1-.175-.418c-.028-.31-.08-.885-.624-.885h-.008c-.1,0-.232.012-.386.026a4.712,4.712,0,0,1-1.408-.021c-.514-.125-.762-1.165-.661-1.6a1.185,1.185,0,0,1,.5-.743l.03-.024a2.289,2.289,0,0,0,.479-.666l.068-.121c.069-.119.72-.187.966-.212a3.74,3.74,0,0,0,.454-.062c.075-.018.111.006.227.361.027.081.055.168.089.255a.42.42,0,0,0,.245.244,1.492,1.492,0,0,0,.967-.164.431.431,0,0,1,.349-.045,3.838,3.838,0,0,0,1.34.016.163.163,0,0,0,.144-.162V16.4a.163.163,0,0,0-.169-.162s-.425.016-.726,0c-.118-.006-.239-.308-.279-.513a.162.162,0,0,0-.293-.063,2.369,2.369,0,0,1-.209.257c-.02-.053-.042-.117-.059-.166-.113-.327-.192-.529-.346-.585a.223.223,0,0,0-.2.02c-.242.147-.14.369-.084.488a.833.833,0,0,1,.085.254.2.2,0,0,1-.04.162.568.568,0,0,1-.386.143c0-.026.01-.057.015-.081a.655.655,0,0,0-.084-.585.4.4,0,0,0-.286-.138c-.417-.03-1.019.475-1.193.629a.582.582,0,0,1-.546.165,1.587,1.587,0,0,0-.162-.011h0a.714.714,0,0,1-.116-.617c0-.008,0-.013,0-.015a.579.579,0,0,1,.3.111.163.163,0,0,0,.194-.011c.246-.206.233-.312.227-.357a.19.19,0,0,0-.043-.1.7.7,0,0,1,.1-.374c.014-.018.028-.03.036-.03.406,0,.985-.887,1.109-1.084.029.023.068.061.1.088a.813.813,0,0,0,.55.294c.506,0,.817-.742.864-1.12a.454.454,0,0,0-.094-.378.342.342,0,0,0-.108-.08c-.053-.433-.139-.693-.256-.775a.211.211,0,0,0-.173-.034c-.241.06-.387.476-.435,1.237a.3.3,0,0,1-.068.211c-.069.049-.264-.009-.42-.056-.083-.025-.17-.05-.254-.067a.2.2,0,0,1-.143-.112,1.359,1.359,0,0,1,.068-.993,1.822,1.822,0,0,1,1.884-.724c.323.063.328.177.337.364.007.15.019.4.328.457.326.06.59-.244.759-.521m-2.752,4.938a.306.306,0,0,0,.264.091.868.868,0,0,0,.636-.261.5.5,0,0,0,.106-.217c.06.142.123.223.236.223.038,0,.136,0,.322-.2.085.212.236.446.488.46.2.011.431.008.587.005v.444a3.433,3.433,0,0,1-1.013,0,.738.738,0,0,0-.652.052,1.214,1.214,0,0,1-.692.146.094.094,0,0,1-.06-.058c-.031-.082-.058-.162-.083-.239-.088-.267-.194-.591-.493-.591a.5.5,0,0,0-.122.016,3.853,3.853,0,0,1-.409.054c-.125.013-.244.026-.354.04a1.175,1.175,0,0,0,.169-.127,1.911,1.911,0,0,1,.956-.547.078.078,0,0,1,.061.025c.055.064.04.169.012.31a.426.426,0,0,0,.04.379m.061-2.947a.477.477,0,0,0,.318-.075.559.559,0,0,0,.206-.457,3.164,3.164,0,0,1,.137-.831,3.658,3.658,0,0,1,.091.529.155.155,0,0,0,.16.146.032.032,0,0,1,.019.008.18.18,0,0,1,.011.118c-.037.294-.284.835-.541.835-.115,0-.221-.1-.324-.2-.025-.024-.05-.049-.076-.072M32.336,8.777l.188-.011c-.141.083-.275.169-.394.255.085-.094.153-.173.206-.244m.875-.015A9.746,9.746,0,0,1,35.124,9a.168.168,0,0,0,0,.061A7.1,7.1,0,0,1,33.266,12a3.529,3.529,0,0,0-.959,1.13.605.605,0,0,1-.3.328.212.212,0,0,1-.047.02,2.363,2.363,0,0,1-.009-.808c.012-.13.022-.243.022-.326a1.007,1.007,0,0,1,.063-.289.9.9,0,0,0-.143-.974.256.256,0,0,1-.08-.165c.01-.063.122-.133.2-.184.112-.07.229-.143.229-.279a.876.876,0,0,0-.13-.362,2.133,2.133,0,0,1-.185-.445,3.756,3.756,0,0,1,1.28-.887m-1.334.054c-.1.107-.208.222-.3.321a5.244,5.244,0,0,0-.806.965c-.088.175-.128.191-.129.191a.711.711,0,0,1-.185-.069,2.638,2.638,0,0,0-.6-.208,3.828,3.828,0,0,1-1.053-.33,9.666,9.666,0,0,1,3.076-.87M23.2,18.507a9.746,9.746,0,0,1,3.926-7.816.555.555,0,0,1,.286.085.151.151,0,0,1,.06.114c0,.061.009.115.012.162.023.334.051.494.423.494a2.85,2.85,0,0,0,.976-.3.3.3,0,0,0,.023.129.288.288,0,0,0,.215.167.7.7,0,0,0,.3-.009c-.139.1-.312.216-.474.323-.6.392-1.159.762-1.128,1.136a.914.914,0,0,0,.215.633.755.755,0,0,1,.057.071.2.2,0,0,0,.175.093c.124,0,.186-.113.252-.227.1-.168.162-.255.232-.232.307.1.5-.253.659-.538A2.049,2.049,0,0,1,29.6,12.5a1.5,1.5,0,0,1,.223.449c.091.245.177.476.393.423a1.017,1.017,0,0,0,.115-.042c.091-.038.229-.095.3-.052s.107.161.125.34a3.988,3.988,0,0,0,.174.766c.057.188.134.445.092.506-.008.012-.044.028-.115.033-.179.011-.232-.078-.318-.3-.061-.158-.175-.452-.5-.355a.313.313,0,0,1-.278-.067.194.194,0,0,0-.241-.015c-.1.083-.072.166.024.414.038.1.074.183.106.257a1.682,1.682,0,0,1,.091.243.438.438,0,0,1-.08.024,1.227,1.227,0,0,1-.32,0,1.336,1.336,0,0,0-1.164.354,4.889,4.889,0,0,0-.743,1.313,3.255,3.255,0,0,1-.448.833c-.087.033-.251-.1-.382-.213a.852.852,0,0,0-.5-.265c-.01,0-1.017.013-1.324.471a.543.543,0,0,0-.036.534.5.5,0,0,0,.3.313.783.783,0,0,0,.63-.193l.083-.053a.39.39,0,0,1-.048.143.461.461,0,0,0,.021.517,1.06,1.06,0,0,0,.36.345.814.814,0,0,1,.079.055.724.724,0,0,1-.075.077.329.329,0,0,0-.149.283.263.263,0,0,0,.162.2,1.486,1.486,0,0,0,.438.1,1.131,1.131,0,0,1-.635.131.473.473,0,0,1-.334-.23,1.231,1.231,0,0,1-.172-.444c-.074-.344-.176-.505-.895-.718a2.4,2.4,0,0,0-.935-.064c-.222.019-.351.026-.423-.039,0-.022,0-.043,0-.064m.451.428a2.075,2.075,0,0,1,.816.052c.606.179.625.266.669.475a1.549,1.549,0,0,0,.215.547.8.8,0,0,0,.555.378.974.974,0,0,0,.164.013,1.77,1.77,0,0,0,.963-.351.21.21,0,0,0,.09-.228c-.042-.151-.208-.172-.458-.2a2.524,2.524,0,0,1-.276-.046.412.412,0,0,0,.16-.294.389.389,0,0,0-.233-.326.766.766,0,0,1-.261-.244c-.058-.093-.047-.114,0-.2a.624.624,0,0,0,.065-.449.247.247,0,0,0-.145-.186c-.137-.056-.27.031-.425.132-.11.072-.276.179-.356.155-.045-.014-.08-.085-.1-.126A.223.223,0,0,1,25.1,17.8c.155-.231.763-.327,1.053-.327.06,0,.193.11.289.19.2.163.44.366.7.267.207-.077.359-.4.63-1a4.757,4.757,0,0,1,.676-1.216,1.022,1.022,0,0,1,.912-.259,1.469,1.469,0,0,0,.412-.009.42.42,0,0,0,.3-.189c.074-.144.01-.295-.087-.522-.017-.039-.035-.082-.054-.128a.573.573,0,0,0,.238-.021l.022-.006a.651.651,0,0,1,.08.166c.078.2.2.538.643.508a.448.448,0,0,0,.362-.172c.131-.19.052-.453-.048-.785a3.719,3.719,0,0,1-.162-.7A.714.714,0,0,0,30.794,13a.653.653,0,0,0-.592.03h0c-.025-.052-.054-.132-.078-.2a1.366,1.366,0,0,0-.359-.62.266.266,0,0,0-.219-.052c-.175.037-.285.238-.414.472-.067.121-.205.373-.272.386-.317-.106-.506.188-.6.354a.715.715,0,0,1-.106-.411c-.015-.182.634-.609.982-.838a3.044,3.044,0,0,0,.829-.661c.046-.077.133-.222.036-.337s-.23-.06-.385,0a1.019,1.019,0,0,1-.4.1,1.183,1.183,0,0,1,.109-.208c.045-.072.119-.192.012-.287s-.223-.007-.279.037a2.9,2.9,0,0,1-1.148.453c-.039,0-.065,0-.081,0-.008-.04-.012-.116-.018-.189,0-.049-.008-.1-.013-.166a.476.476,0,0,0-.183-.343.619.619,0,0,0-.136-.078,9.83,9.83,0,0,1,.995-.593,2.793,2.793,0,0,0,1.314.485,2.318,2.318,0,0,1,.531.185.813.813,0,0,0,.324.1c.147,0,.278-.092.416-.369a3.913,3.913,0,0,1,.566-.693.27.27,0,0,0-.012.148,2.275,2.275,0,0,0,.214.538c.029.057.066.129.083.177l-.065.042a.644.644,0,0,0-.353.408.536.536,0,0,0,.152.425.588.588,0,0,1,.081.667,1.266,1.266,0,0,0-.078.386c0,.068-.01.179-.021.3-.052.559-.07.965.157,1.116a.294.294,0,0,0,.165.049.447.447,0,0,0,.211-.06.928.928,0,0,0,.434-.463,3.2,3.2,0,0,1,.883-1.036,7.162,7.162,0,0,0,1.966-3.171A9.747,9.747,0,0,1,39.518,11.3c-.136.24-.315.457-.46.43C39,11.721,39,11.721,39,11.578c-.009-.208-.026-.556-.6-.668a2.122,2.122,0,0,0-2.251.929A1.622,1.622,0,0,0,36.1,13.1a.527.527,0,0,0,.363.273c.066.013.137.034.212.056a.373.373,0,0,0-.123.127,2.517,2.517,0,0,1-.837.938c-.2,0-.368.181-.437.485a.728.728,0,0,0-.008.367l-.006.006a.638.638,0,0,0-.483-.076.329.329,0,0,0-.2.238,1.145,1.145,0,0,0,.146.868.356.356,0,0,0,.285.152c.043,0,.087,0,.132.009l.05.005a.52.52,0,0,0-.284.21l-.07.124a2.1,2.1,0,0,1-.4.57l-.03.023a1.518,1.518,0,0,0-.613.925c-.132.574.157,1.81.9,1.992a4.939,4.939,0,0,0,1.513.029c.147-.013.274-.024.361-.025.174,0,.259.089.3.59a1.142,1.142,0,0,0,.229.569.755.755,0,0,1,.161.368,1.647,1.647,0,0,1-.014.408,3.982,3.982,0,0,0-.025.793c.008.162,0,.337,0,.524-.014.612-.029,1.306.487,1.528.077.033.142.067.2.1a.873.873,0,0,0,.388.125c.257,0,.5-.23,1.01-.9a5.628,5.628,0,0,0,1.238-2.4,2.824,2.824,0,0,1,.991-1.5c.367-.267.629-.686.561-.9a.2.2,0,0,0-.189-.138c-.017,0-.053,0-.1.009-.259.03-1.047.124-1.272-.366-.017-.037-.034-.074-.052-.11.161.223.328.365.513.339.872-.125,1.373-.3,1.488-.534a1.291,1.291,0,0,1,.143-.192l.071-.087a9.75,9.75,0,0,1-19.491.3,1.463,1.463,0,0,0,.441.006" transform="translate(-12.595 -4.526)" fill="#eb703b" fill-rule="evenodd"/>
    <path id="Path_355" data-name="Path 355" d="M31.55,36.115a1.581,1.581,0,0,1,1.046,1.28,8.445,8.445,0,0,0,1.552,3.386,1.225,1.225,0,0,0,.864.6.412.412,0,0,0,.292-.113A.384.384,0,0,0,35.416,41c0-.079.008-.161.015-.248a2.58,2.58,0,0,0-.018-.756c-.077-.426-.074-.63.014-.776.015-.026.05-.036.119-.051a.336.336,0,0,0,.244-.141.311.311,0,0,0,.014-.258,1.825,1.825,0,0,0-.066-.177c-.075-.185-.113-.278.034-.449a3.974,3.974,0,0,0,.812-1.6,1.768,1.768,0,0,1,.154-.429.885.885,0,0,0,.121-.711.566.566,0,0,0-.39-.289,4.5,4.5,0,0,1-1.241-.718c-.185-.135-.36-.262-.517-.354a4.332,4.332,0,0,0-1.312-.409c-.12-.076-.232-.159-.342-.24a1.231,1.231,0,0,0-.633-.325.354.354,0,0,0-.315.193,4.13,4.13,0,0,1-.737.956,2.183,2.183,0,0,1-.3.223c-.248.162-.5.329-.533.606a.726.726,0,0,0,.272.574,3.01,3.01,0,0,0,.742.5m-.3-1.409a2.445,2.445,0,0,0,.351-.26,4.456,4.456,0,0,0,.792-1.025c.02-.034.03-.034.036-.034a1.31,1.31,0,0,1,.439.262c.117.087.251.185.393.272a.165.165,0,0,0,.062.023,4.2,4.2,0,0,1,1.227.372c.143.085.313.207.491.337a4.729,4.729,0,0,0,1.34.767c.072.021.162.057.187.112.039.086-.046.275-.122.442a2.05,2.05,0,0,0-.179.513,3.653,3.653,0,0,1-.738,1.439.656.656,0,0,0-.088.784c.018.043.036.087.051.134l-.011,0a.464.464,0,0,0-.329.2,1.411,1.411,0,0,0-.055,1,2.256,2.256,0,0,1,.014.668c-.008.094-.017.184-.017.277a.062.062,0,0,1-.015.044.091.091,0,0,1-.064.02c-.123,0-.345-.125-.6-.472a8.122,8.122,0,0,1-1.491-3.243A1.908,1.908,0,0,0,31.7,35.829a2.728,2.728,0,0,1-.665-.445c-.087-.087-.189-.212-.179-.31.013-.122.2-.247.388-.367" transform="translate(-17.052 -18.464)" fill="#eb703b" fill-rule="evenodd"/>
    <path id="Path_356" data-name="Path 356" d="M40.735,13.745a.163.163,0,0,0-.215-.067.739.739,0,0,0-.4.613c0,.082-.118.229-.2.337-.151.189-.38.475-.128.685a.378.378,0,0,0,.245.079.968.968,0,0,0,.766-.481,1.116,1.116,0,0,0-.063-1.166m-.217,1a.643.643,0,0,1-.487.321l-.027,0a1.318,1.318,0,0,1,.163-.234.943.943,0,0,0,.276-.54.325.325,0,0,1,.09-.216.745.745,0,0,1-.015.67" transform="translate(-22.157 -7.63)" fill="#eb703b" fill-rule="evenodd"/>
    <path id="Path_357" data-name="Path 357" d="M47.793,18.442a.692.692,0,0,0,.305-.082c.638-.319.561-1.323.557-1.366a.162.162,0,0,0-.067-.119.165.165,0,0,0-.134-.026c-.142.035-.862.229-1.043.59a.9.9,0,0,0,.01.792.426.426,0,0,0,.372.21m-.091-.857a1.267,1.267,0,0,1,.629-.361c-.012.26-.079.695-.379.845a.373.373,0,0,1-.16.047.1.1,0,0,1-.095-.056.573.573,0,0,1,0-.476" transform="translate(-26.429 -9.408)" fill="#eb703b" fill-rule="evenodd"/>
    <path id="Path_358" data-name="Path 358" d="M123.173,80.734l1.6.244a4.114,4.114,0,0,1-1.412,1.993,3.613,3.613,0,0,1-2.2.691,2.884,2.884,0,0,1-2.221-.859,3.533,3.533,0,0,1-.8-2.494,5.455,5.455,0,0,1,.537-2.426,3.934,3.934,0,0,1,1.489-1.684,3.893,3.893,0,0,1,2.071-.584,3,3,0,0,1,2.037.676,2.767,2.767,0,0,1,.914,1.843l-1.529.148a1.645,1.645,0,0,0-.488-.985,1.437,1.437,0,0,0-.962-.306,2.092,2.092,0,0,0-1.231.4,2.721,2.721,0,0,0-.913,1.264,4.56,4.56,0,0,0-.343,1.713,2.132,2.132,0,0,0,.445,1.446,1.411,1.411,0,0,0,1.108.51,1.783,1.783,0,0,0,1.13-.4,2.376,2.376,0,0,0,.766-1.191m2.713-.26a5.611,5.611,0,0,1,.206-1.453,5.234,5.234,0,0,1,.824-1.777,4.01,4.01,0,0,1,1.4-1.191,4.107,4.107,0,0,1,1.918-.438,3.126,3.126,0,0,1,2.328.9,3.235,3.235,0,0,1,.887,2.377,5.24,5.24,0,0,1-.577,2.381,4.323,4.323,0,0,1-1.569,1.773,4.13,4.13,0,0,1-2.242.62,3.2,3.2,0,0,1-1.822-.494,2.751,2.751,0,0,1-1.043-1.222,3.774,3.774,0,0,1-.307-1.473m1.583-.031a1.939,1.939,0,0,0,.486,1.343,1.643,1.643,0,0,0,1.282.542,2.1,2.1,0,0,0,1.239-.427,3.12,3.12,0,0,0,.985-1.3,4.141,4.141,0,0,0,.389-1.691,2.025,2.025,0,0,0-.491-1.442,1.648,1.648,0,0,0-1.254-.522,2.212,2.212,0,0,0-1.9,1.094,4.224,4.224,0,0,0-.732,2.4M138.3,83.52h-1.518l-.287-6.487-1.231,6.487h-1.441l1.625-7.765h2.277l.239,5.338,2.442-5.338h2.3l-1.415,7.765h-1.448l1.35-6.441Zm6.151,0h-1.6l1.627-7.765h3.15a3.632,3.632,0,0,1,1.33.2,1.6,1.6,0,0,1,.775.656,2.036,2.036,0,0,1,.286,1.094,2.989,2.989,0,0,1-.228,1.144,2.7,2.7,0,0,1-.559.891,2.4,2.4,0,0,1-.713.506,3.9,3.9,0,0,1-1.026.262,12.315,12.315,0,0,1-1.406.053h-1.022Zm.891-4.262h.491a5.791,5.791,0,0,0,1.686-.157,1.383,1.383,0,0,0,.668-.5,1.312,1.312,0,0,0,.242-.763.782.782,0,0,0-.124-.457.7.7,0,0,0-.349-.26,3.746,3.746,0,0,0-1-.081h-1.144Zm10.6,2.548h-3.08l-.94,1.713h-1.656l4.383-7.765h1.806l1.254,7.765h-1.515Zm-.192-1.3-.461-3.123-1.713,3.123Zm4.559,3.015h-1.6l1.627-7.765h3.445a4.166,4.166,0,0,1,1.385.183,1.586,1.586,0,0,1,.8.671,2.188,2.188,0,0,1,.3,1.18,2.311,2.311,0,0,1-.593,1.634,2.823,2.823,0,0,1-1.793.8,3.2,3.2,0,0,1,.577.726,19.36,19.36,0,0,1,1.191,2.574H163.94q-.206-.656-.812-2.046a2.374,2.374,0,0,0-.7-1.01,1.5,1.5,0,0,0-.8-.154h-.653Zm.915-4.37h.848A6,6,0,0,0,163.779,79a1.363,1.363,0,0,0,.66-.484,1.159,1.159,0,0,0,.239-.691.7.7,0,0,0-.344-.638,2.1,2.1,0,0,0-.916-.126h-1.757Zm5.289,4.37,1.627-7.765h5.748l-.271,1.3H169.46l-.381,1.757h4.027l-.272,1.3h-4.04l-.459,2.1h4.51l-.272,1.3Zm10.235,0,1.627-7.765h1.594l-.691,3.3,3.586-3.3H185L181.524,78.8l2.553,4.719h-1.811l-1.909-3.7-1.52,1.33-.5,2.367Zm12.937-1.713.253,1.713h1.514L190.2,75.756h-1.8l-4.384,7.765h1.656l.94-1.713Zm-.192-1.3h-2.175l1.714-3.123Zm4.558,3.015h-1.6l1.627-7.765h3.445a4.164,4.164,0,0,1,1.385.183,1.582,1.582,0,0,1,.8.671,2.188,2.188,0,0,1,.3,1.18,2.31,2.31,0,0,1-.592,1.634,2.824,2.824,0,0,1-1.793.8,3.17,3.17,0,0,1,.577.726,19.353,19.353,0,0,1,1.191,2.574h-1.714q-.205-.656-.811-2.046a2.37,2.37,0,0,0-.7-1.01,1.5,1.5,0,0,0-.8-.154h-.652Zm.915-4.37h.847A6,6,0,0,0,197.52,79a1.362,1.362,0,0,0,.659-.484,1.156,1.156,0,0,0,.239-.691.7.7,0,0,0-.344-.638,2.093,2.093,0,0,0-.916-.126H195.4Zm5.787,1.323a5.594,5.594,0,0,1,.206-1.453,5.217,5.217,0,0,1,.824-1.777,4.011,4.011,0,0,1,1.4-1.191,4.11,4.11,0,0,1,1.918-.438,3.125,3.125,0,0,1,2.328.9,3.234,3.234,0,0,1,.888,2.377,5.241,5.241,0,0,1-.577,2.381,4.324,4.324,0,0,1-1.569,1.773,4.128,4.128,0,0,1-2.242.62,3.2,3.2,0,0,1-1.822-.494,2.759,2.759,0,0,1-1.043-1.222,3.79,3.79,0,0,1-.307-1.473m1.583-.031a1.937,1.937,0,0,0,.486,1.343,1.643,1.643,0,0,0,1.282.542,2.1,2.1,0,0,0,1.24-.427,3.12,3.12,0,0,0,.985-1.3,4.134,4.134,0,0,0,.389-1.691,2.025,2.025,0,0,0-.491-1.442,1.649,1.649,0,0,0-1.255-.522,2.215,2.215,0,0,0-1.9,1.094,4.231,4.231,0,0,0-.732,2.4m6.678,1.614h1.529l-.255,1.209a2.728,2.728,0,0,1-.7,1.484,1.845,1.845,0,0,1-1.243.452l.147-.7a1.135,1.135,0,0,0,.592-.3,1.414,1.414,0,0,0,.309-.675H208.7Zm11.318-1.323,1.605.244a4.119,4.119,0,0,1-1.412,1.993,3.616,3.616,0,0,1-2.2.691A2.885,2.885,0,0,1,216.1,82.8a3.533,3.533,0,0,1-.8-2.494,5.454,5.454,0,0,1,.537-2.426,3.932,3.932,0,0,1,1.49-1.684,3.891,3.891,0,0,1,2.071-.584,3,3,0,0,1,2.038.676,2.773,2.773,0,0,1,.914,1.843l-1.529.148a1.645,1.645,0,0,0-.488-.985,1.434,1.434,0,0,0-.961-.306,2.094,2.094,0,0,0-1.231.4,2.72,2.72,0,0,0-.912,1.264,4.562,4.562,0,0,0-.344,1.713,2.133,2.133,0,0,0,.445,1.446,1.411,1.411,0,0,0,1.108.51,1.78,1.78,0,0,0,1.129-.4,2.368,2.368,0,0,0,.766-1.191m7.561-.683h-3.013l-.726,3.47h-1.6l1.627-7.765h1.594l-.627,2.993h3.014l.628-2.993h1.594l-1.625,7.765h-1.6Zm2.984.423a5.593,5.593,0,0,1,.206-1.453,5.225,5.225,0,0,1,.824-1.777,4.009,4.009,0,0,1,1.4-1.191,4.108,4.108,0,0,1,1.918-.438,3.125,3.125,0,0,1,2.328.9,3.234,3.234,0,0,1,.888,2.377,5.246,5.246,0,0,1-.577,2.381,4.325,4.325,0,0,1-1.57,1.773,4.126,4.126,0,0,1-2.241.62,3.206,3.206,0,0,1-1.822-.494,2.756,2.756,0,0,1-1.043-1.222,3.782,3.782,0,0,1-.307-1.473m1.583-.031a1.935,1.935,0,0,0,.486,1.343,1.643,1.643,0,0,0,1.282.542,2.1,2.1,0,0,0,1.239-.427,3.124,3.124,0,0,0,.985-1.3,4.142,4.142,0,0,0,.389-1.691,2.026,2.026,0,0,0-.492-1.442,1.646,1.646,0,0,0-1.253-.522,2.214,2.214,0,0,0-1.9,1.094,4.227,4.227,0,0,0-.732,2.4m6.852.031a5.559,5.559,0,0,1,.207-1.453,5.225,5.225,0,0,1,.823-1.777,4,4,0,0,1,1.4-1.191,4.1,4.1,0,0,1,1.917-.438,3.127,3.127,0,0,1,2.329.9,3.237,3.237,0,0,1,.887,2.377,5.241,5.241,0,0,1-.577,2.381,4.323,4.323,0,0,1-1.569,1.773,4.128,4.128,0,0,1-2.241.62,3.2,3.2,0,0,1-1.822-.494,2.745,2.745,0,0,1-1.043-1.222,3.767,3.767,0,0,1-.308-1.473m1.583-.031a1.936,1.936,0,0,0,.487,1.343,1.642,1.642,0,0,0,1.281.542,2.1,2.1,0,0,0,1.24-.427,3.126,3.126,0,0,0,.985-1.3,4.134,4.134,0,0,0,.389-1.691,2.025,2.025,0,0,0-.491-1.442,1.648,1.648,0,0,0-1.254-.522,2.212,2.212,0,0,0-1.9,1.094,4.225,4.225,0,0,0-.732,2.4m6.592.577,1.518-.079a1.682,1.682,0,0,0,.249.976,1.636,1.636,0,0,0,1.292.412,1.814,1.814,0,0,0,1.135-.282.844.844,0,0,0,.349-.68.736.736,0,0,0-.286-.584,5.415,5.415,0,0,0-1.1-.568,10.426,10.426,0,0,1-1.318-.656,1.912,1.912,0,0,1-.654-.683,1.952,1.952,0,0,1-.239-.982,2.116,2.116,0,0,1,.711-1.632,2.942,2.942,0,0,1,2.055-.647,3.15,3.15,0,0,1,2.114.642,2.365,2.365,0,0,1,.824,1.708l-1.529.068a1.247,1.247,0,0,0-.4-.853,1.52,1.52,0,0,0-1.016-.3,1.493,1.493,0,0,0-.944.233.729.729,0,0,0-.283.589.7.7,0,0,0,.259.553,5.392,5.392,0,0,0,1.148.609,6.471,6.471,0,0,1,1.7.94,1.824,1.824,0,0,1,.544,1.365,2.278,2.278,0,0,1-.813,1.759,3.27,3.27,0,0,1-2.263.73,4.14,4.14,0,0,1-1.736-.336,2.077,2.077,0,0,1-1.035-.933,2.823,2.823,0,0,1-.28-1.374m6.995,2.5,1.627-7.765h5.748l-.271,1.3h-4.156l-.381,1.757h4.027l-.272,1.3h-4.039l-.46,2.1h4.51l-.271,1.3Zm10.235,0,1.627-7.765h1.594l-.691,3.3,3.586-3.3h2.137L269.494,78.8l2.554,4.719h-1.812l-1.909-3.7-1.52,1.33-.5,2.367Zm12.936-1.713.253,1.713h1.514l-1.255-7.765h-1.8l-4.383,7.765h1.656l.94-1.713Zm-.192-1.3h-2.174L277,77.383Zm4.559,3.015h-1.6l1.626-7.765H285.5a4.163,4.163,0,0,1,1.384.183,1.584,1.584,0,0,1,.8.671,2.188,2.188,0,0,1,.3,1.18,2.311,2.311,0,0,1-.593,1.634,2.822,2.822,0,0,1-1.793.8,3.193,3.193,0,0,1,.577.726,19.412,19.412,0,0,1,1.191,2.574h-1.714q-.206-.656-.812-2.046a2.362,2.362,0,0,0-.7-1.01,1.493,1.493,0,0,0-.8-.154h-.652Zm.915-4.37h.847A6,6,0,0,0,285.49,79a1.365,1.365,0,0,0,.66-.484,1.159,1.159,0,0,0,.239-.691.7.7,0,0,0-.344-.638,2.094,2.094,0,0,0-.916-.126h-1.756Zm5.787,1.323a5.574,5.574,0,0,1,.206-1.453,5.224,5.224,0,0,1,.824-1.777,4,4,0,0,1,1.4-1.191,4.108,4.108,0,0,1,1.918-.438,3.125,3.125,0,0,1,2.328.9,3.234,3.234,0,0,1,.888,2.377,5.241,5.241,0,0,1-.577,2.381,4.32,4.32,0,0,1-1.569,1.773,4.125,4.125,0,0,1-2.241.62,3.206,3.206,0,0,1-1.822-.494,2.754,2.754,0,0,1-1.043-1.222,3.773,3.773,0,0,1-.307-1.473m1.584-.031a1.935,1.935,0,0,0,.486,1.343,1.642,1.642,0,0,0,1.282.542,2.1,2.1,0,0,0,1.24-.427,3.12,3.12,0,0,0,.985-1.3,4.134,4.134,0,0,0,.389-1.691,2.029,2.029,0,0,0-.491-1.442,1.649,1.649,0,0,0-1.254-.522,2.214,2.214,0,0,0-1.9,1.094,4.227,4.227,0,0,0-.732,2.4" transform="translate(-65.979 -42.229)" fill="#282624" fill-rule="evenodd"/>
  </g>
</svg>
