<svg id="Layer_1" data-name="Layer 1" xmlns="http://www.w3.org/2000/svg" viewBox="0 0 168 164"><defs><style>.cls-1{fill:#707070;}.cls-2{fill:#ed2024;}</style></defs><path class="cls-1" d="M102,122H42a2,2,0,0,0,0,4h60a2,2,0,0,0,0-4Z" transform="translate(0 -2)"/><path class="cls-2" d="M102,134H42a2,2,0,0,0,0,4h60a2,2,0,0,0,0-4Z" transform="translate(0 -2)"/><path class="cls-2" d="M104,64a2,2,0,0,0-2-2H42a2,2,0,0,0,0,4h60a2,2,0,0,0,2-2Z" transform="translate(0 -2)"/><path class="cls-2" d="M79.9,44.71a2,2,0,0,0-1.6-1.34l-3.78-.58-1.71-3.64a2.07,2.07,0,0,0-.74-.84,2,2,0,0,0-2.14,0,2.07,2.07,0,0,0-.74.84l-1.71,3.64-3.78.58a2,2,0,0,0-1.6,1.34,2.09,2.09,0,0,0-.05,1.08,1.94,1.94,0,0,0,.52,1l2.79,2.87-.66,4.07a1.93,1.93,0,0,0,.13,1.09,1.88,1.88,0,0,0,.69.86,2,2,0,0,0,1,.37,2,2,0,0,0,1.08-.25L71,53.89l3.36,1.86a2,2,0,0,0,1.08.24,2,2,0,0,0,1-.36,1.88,1.88,0,0,0,.69-.86,1.93,1.93,0,0,0,.13-1.09l-.66-4.07,2.79-2.87a1.94,1.94,0,0,0,.52-1A2.08,2.08,0,0,0,79.9,44.71Zm-6.83,2.83a2,2,0,0,0-.48.79,2.09,2.09,0,0,0-.06.93l.16,1-.72-.4a2.08,2.08,0,0,0-1.94,0l-.72.4.16-1a2.09,2.09,0,0,0-.06-.93,2,2,0,0,0-.48-.79l-.78-.8,1-.15a2.06,2.06,0,0,0,1.51-1.13l.35-.75.35.75a2.06,2.06,0,0,0,1.51,1.13l1,.15Z" transform="translate(0 -2)"/><path class="cls-2" d="M42,110a2,2,0,0,0,0,4H79.43A28.7,28.7,0,0,1,76,110Z" transform="translate(0 -2)"/><path class="cls-1" d="M42,102H72.17a27.46,27.46,0,0,1-.88-4H42a2,2,0,0,0,0,4Z" transform="translate(0 -2)"/><path class="cls-2" d="M40,88a2,2,0,0,0,2,2H71.29a27.46,27.46,0,0,1,.88-4H42a2,2,0,0,0-2,2Z" transform="translate(0 -2)"/><path class="cls-1" d="M79.43,74H42a2,2,0,0,0,0,4H76A27.59,27.59,0,0,1,79.43,74Z" transform="translate(0 -2)"/><path class="cls-1" d="M2,152a2,2,0,1,0-2-2A2,2,0,0,0,2,152Z" transform="translate(0 -2)"/><path class="cls-1" d="M11,148H8a2,2,0,0,0,0,4h3a2,2,0,0,0,0-4Z" transform="translate(0 -2)"/><path class="cls-1" d="M160,148h-3a2,2,0,0,0,0,4h3a2,2,0,0,0,0-4Z" transform="translate(0 -2)"/><path class="cls-1" d="M166,152a2,2,0,1,0-2-2A2,2,0,0,0,166,152Z" transform="translate(0 -2)"/><path class="cls-2" d="M118.15,156h-8.3a2,2,0,0,0,0,4h8.3a2,2,0,0,0,0-4Z" transform="translate(0 -2)"/><path class="cls-2" d="M58.15,156h-8.3a2,2,0,0,0,0,4h8.3a2,2,0,0,0,0-4Z" transform="translate(0 -2)"/><path class="cls-2" d="M104,156H64a2,2,0,0,0,0,4H79.94v2H72a2,2,0,0,0,0,4H97a2,2,0,0,0,0-4H88.06v-2H104a2,2,0,0,0,0-4Z" transform="translate(0 -2)"/><path class="cls-1" d="M150.72,148H134.14L123.4,134.67l10.94-8.41,5.15,5.94a2.2,2.2,0,0,0,.61.48,2.25,2.25,0,0,0,.76.2,2,2,0,0,0,.77-.09,2.19,2.19,0,0,0,.68-.39A2,2,0,0,0,143,131a2.29,2.29,0,0,0-.1-.78,2,2,0,0,0-.39-.67l-9.53-11a5.14,5.14,0,0,0-7.08-.6l-3.05,2.49-7.24-9.18a23.9,23.9,0,1,0-3.1,2.53l7.24,9.19L117,125.24a5.09,5.09,0,0,0-.66,7.06L129,148H118.65a5.93,5.93,0,0,0,.35-2v-4.17L115,137V146a2,2,0,0,1-2,2H31a2,2,0,0,1-2-2V30a2,2,0,0,1,2-2c13.37,0,62.76.05,63,.08V42a6,6,0,0,0,6,6h14.68c.2.57.32,23,.32,23a27.59,27.59,0,0,1,4,3.39V49.79a9.63,9.63,0,0,0-2.78-6.73L100,26.8A10.67,10.67,0,0,0,97,24.49,8.94,8.94,0,0,0,93.27,24H31a6.13,6.13,0,0,0-6,6V146a5.93,5.93,0,0,0,.35,2H17.28a2,2,0,0,0-.85.07,1.93,1.93,0,0,0-.74.41,2,2,0,0,0-.51.69,2,2,0,0,0,0,1.66,2,2,0,0,0,.51.69,1.93,1.93,0,0,0,.74.41,2,2,0,0,0,.85.07H150.72a2,2,0,0,0,.85-.07,1.93,1.93,0,0,0,.74-.41,2,2,0,0,0,.51-.69,2,2,0,0,0,0-1.66,2,2,0,0,0-.51-.69,1.93,1.93,0,0,0-.74-.41A2,2,0,0,0,150.72,148ZM99,114a20,20,0,1,1,14.14-5.86A20,20,0,0,1,99,114Zm20.43,15.74a1,1,0,0,1-.23-.73,1,1,0,0,1,.36-.68l8.87-7.25a1.12,1.12,0,0,1,.79-.25,1.15,1.15,0,0,1,.74.37l1.76,2-10.83,8.33ZM98,30.83,111.17,44H100a2,2,0,0,1-2-2Z" transform="translate(0 -2)"/><path class="cls-1" d="M87.25,20.5A3,3,0,0,0,88.92,20,3,3,0,0,0,90,18.65a3,3,0,0,0-3.92-3.92,3,3,0,0,0-1.34,1.1,3,3,0,0,0-.51,1.67,3,3,0,0,0,3,3Zm0-4.5a1.5,1.5,0,0,1,.83.25,1.55,1.55,0,0,1,.56.68,1.49,1.49,0,0,1,.08.86A1.49,1.49,0,0,1,87.54,19a1.49,1.49,0,0,1-.86-.08,1.55,1.55,0,0,1-.68-.56A1.5,1.5,0,0,1,87.25,16Z" transform="translate(0 -2)"/><path class="cls-1" d="M161.5,32a2,2,0,0,0-.39,4,2,2,0,0,0,2-.85A2,2,0,0,0,163.5,34a2,2,0,0,0-2-2Zm0,3a1,1,0,0,1-.56-.17.94.94,0,0,1-.36-.45,1,1,0,0,1-.06-.58,1,1,0,0,1,.78-.78,1,1,0,0,1,.58.06.94.94,0,0,1,.45.36,1,1,0,0,1-.12,1.27A1.05,1.05,0,0,1,161.5,35Z" transform="translate(0 -2)"/><path class="cls-1" d="M64.86,2a2,2,0,0,0-2,2.39,1.92,1.92,0,0,0,.54,1,2,2,0,0,0,1,.55,2,2,0,0,0,2-.85A2,2,0,0,0,66.86,4a2,2,0,0,0-2-2Zm0,3a1,1,0,0,1-.93-.62,1,1,0,0,1,0-.58A1,1,0,0,1,64.66,3a1,1,0,0,1,.58.06,1,1,0,0,1,.45.36,1,1,0,0,1,.17.56,1,1,0,0,1-1,1Z" transform="translate(0 -2)"/><path class="cls-1" d="M132,49.75a2,2,0,0,0-.39,4,2,2,0,0,0,2-.85,2,2,0,0,0,.34-1.11,2,2,0,0,0-2-2Zm0,3a1,1,0,0,1-.56-.17.94.94,0,0,1-.36-.45,1,1,0,0,1-.06-.58,1,1,0,0,1,.78-.78,1,1,0,0,1,.58.06.94.94,0,0,1,.45.36,1,1,0,0,1-.12,1.27A1.05,1.05,0,0,1,132,52.75Z" transform="translate(0 -2)"/><path class="cls-1" d="M12.61,53.25a2,2,0,0,0-1.24-1.85,2,2,0,0,0-1.15-.11,2,2,0,0,0-1,.55,1.92,1.92,0,0,0-.54,1,2,2,0,0,0,2,2.39,2,2,0,0,0,2-2Zm-3,0a1,1,0,0,1,.17-.56,1,1,0,0,1,1.53-.15,1,1,0,0,1,.28.51,1,1,0,0,1-.06.58.91.91,0,0,1-.37.45,1,1,0,0,1-.55.17A1,1,0,0,1,9.9,54,1,1,0,0,1,9.61,53.25Z" transform="translate(0 -2)"/><path class="cls-2" d="M7.78,7.47l1.49-2L8.33,5l-1,2.19h0L6.37,5l-1,.54L6.89,7.45v0l-2.3-.29V8.25L6.9,8V8L5.42,9.89l.89.57,1-2.21h0l.94,2.19,1-.56L7.78,8V8l2.36.28V7.19L7.78,7.5Z" transform="translate(0 -2)"/><path class="cls-2" d="M38.34,17.33l-.85,1.09.51.33.59-1.27h0l.54,1.26.57-.32-.86-1.09h0l1.36.16v-.61l-1.36.18v0l.85-1.13-.54-.3-.55,1.26h0L38,15.6l-.55.32.84,1.1v0L37,16.87v.61l1.33-.17Z" transform="translate(0 -2)"/><path class="cls-2" d="M156.05,5.78v-1l-2.32.31V5l1.46-1.91-.92-.52-.94,2.14h0l-1-2.13-.94.54L152.86,5V5l-2.26-.29v1l2.27-.29v0l-1.46,1.87.88.56,1-2.17h0l.92,2.15,1-.55-1.48-1.84v0Z" transform="translate(0 -2)"/><path class="cls-2" d="M123.36,21.09l1.25-1.66-.79-.45L123,20.83h0L122.16,19l-.8.47,1.24,1.61v0l-1.95-.25v.9l2-.25v0l-1.25,1.62.75.47.86-1.86h0l.79,1.85.84-.48-1.27-1.58v0l2,.24v-.9l-2,.26Z" transform="translate(0 -2)"/></svg>