<svg xmlns="http://www.w3.org/2000/svg" width="383.227" height="88.663" viewBox="0 0 383.227 88.663">
  <path id="process-arrow-2" d="M.513,9.283a.75.75,0,0,1,1.168-.941ZM383.574.958,382.342,9.53l-6.807-5.353ZM2.923,9.86a.75.75,0,1,1-1.154.959Zm1.449,4A.75.75,0,0,1,5.5,12.87Zm3.82,1.985a.75.75,0,1,1-1.1,1.022Zm1.654,3.9a.75.75,0,1,1,1.071-1.05Zm3.9,1.759A.75.75,0,1,1,12.7,22.583Zm1.887,3.851a.75.75,0,1,1,1.018-1.1ZM19.583,26.9a.75.75,0,0,1-.992,1.125Zm2.062,3.758a.75.75,0,1,1,.967-1.147Zm4.039,1.386a.75.75,0,1,1-.942,1.167Zm2.195,3.645a.75.75,0,0,1,.918-1.187Zm4.113,1.233a.75.75,0,1,1-.894,1.2Zm2.343,3.556a.75.75,0,1,1,.87-1.222Zm4.129,1.052a.75.75,0,1,1-.847,1.238Zm2.508,3.487a.75.75,0,0,1,.824-1.253Zm4.158.9a.75.75,0,0,1-.8,1.268Zm2.6,3.378a.75.75,0,0,1,.78-1.282Zm4.224.774a.75.75,0,1,1-.758,1.295Zm2.706,3.283a.75.75,0,1,1,.736-1.307Zm4.218.618a.75.75,0,0,1-.715,1.319Zm2.845,3.212a.75.75,0,1,1,.694-1.33Zm4.232.481A.75.75,0,0,1,65.281,59Zm2.916,3.109a.75.75,0,1,1,.653-1.35Zm4.271.364a.75.75,0,0,1-.632,1.36Zm3.012,3.021a.75.75,0,1,1,.612-1.369Zm4.254.226a.75.75,0,0,1-.592,1.378Zm3.113,2.938a.75.75,0,0,1,.572-1.387Zm4.274.11a.75.75,0,0,1-.552,1.395Zm3.172,2.839a.75.75,0,1,1,.533-1.4Zm4.275-.01a.75.75,0,0,1-.513,1.409Zm3.277,2.759a.75.75,0,1,1,.493-1.416Zm4.252-.136a.75.75,0,0,1-.474,1.423Zm3.338,2.664a.75.75,0,1,1,.454-1.429Zm4.279-.241a.75.75,0,0,1-.435,1.435Zm3.4,2.569a.75.75,0,1,1,.416-1.441Zm4.251-.362a.75.75,0,1,1-.4,1.447ZM121.519,80a.75.75,0,0,1,.377-1.452Zm4.243-.475a.75.75,0,1,1-.357,1.457Zm3.533,2.385a.75.75,0,0,1,.339-1.461Zm4.234-.586a.75.75,0,1,1-.319,1.466Zm3.612,2.294a.75.75,0,1,1,.3-1.47Zm4.2-.7a.75.75,0,1,1-.28,1.474Zm3.662,2.2a.75.75,0,0,1,.261-1.477Zm4.2-.809a.75.75,0,0,1-.24,1.481Zm3.714,2.1a.75.75,0,0,1,.221-1.484Zm4.166-.923a.75.75,0,1,1-.2,1.486Zm3.779,2a.75.75,0,0,1,.181-1.489Zm4.146-1.034a.75.75,0,1,1-.161,1.491Zm3.821,1.894a.75.75,0,0,1,.141-1.493Zm4.114-1.146a.75.75,0,0,1-.12,1.5Zm3.884,1.79a.75.75,0,1,1,.1-1.5Zm4.076-1.258a.75.75,0,1,1-.08,1.5Zm3.922,1.683a.75.75,0,1,1,.059-1.5Zm4.048-1.37a.75.75,0,1,1-.038,1.5Zm3.971,1.573a.75.75,0,0,1,.017-1.5Zm4-1.483a.75.75,0,1,1,0,1.5Zm4.013,1.46a.75.75,0,1,1-.026-1.5Zm3.966-1.6a.75.75,0,0,1,.047,1.5Zm4.048,1.344a.75.75,0,0,1-.069-1.5Zm3.911-1.711a.75.75,0,1,1,.091,1.5Zm4.094,1.225a.75.75,0,1,1-.113-1.5Zm3.861-1.825a.75.75,0,0,1,.135,1.494Zm4.122,1.1a.75.75,0,1,1-.158-1.492Zm3.8-1.94a.75.75,0,1,1,.18,1.489Zm4.161.977a.75.75,0,0,1-.2-1.486Zm3.739-2.055a.75.75,0,0,1,.226,1.483Zm4.184.849a.75.75,0,0,1-.249-1.479Zm3.679-2.171a.75.75,0,1,1,.272,1.475Zm4.21.717a.75.75,0,1,1-.3-1.471Zm3.6-2.285a.75.75,0,0,1,.319,1.466Zm4.231.582a.75.75,0,1,1-.343-1.46Zm3.535-2.4a.75.75,0,1,1,.366,1.455Zm4.243.445a.75.75,0,1,1-.39-1.448Zm3.447-2.516a.75.75,0,1,1,.414,1.442Zm4.262.3a.75.75,0,0,1-.438-1.435Zm3.366-2.631a.75.75,0,1,1,.462,1.427Zm4.261.161a.75.75,0,0,1-.486-1.419Zm3.273-2.743a.75.75,0,0,1,.51,1.411Zm4.276.01a.75.75,0,0,1-.535-1.4Zm3.171-2.853a.75.75,0,0,1,.559,1.392Zm4.263-.134a.75.75,0,0,1-.584-1.382Zm3.077-2.966a.75.75,0,0,1,.608,1.371Zm4.267-.29a.75.75,0,0,1-.632-1.36Zm2.956-3.066a.75.75,0,0,1,.656,1.349Zm4.245-.437a.75.75,0,0,1-.68-1.337Zm2.863-3.18a.75.75,0,0,1,.7,1.324Zm4.227-.59a.75.75,0,1,1-.728-1.311Zm2.728-3.272a.75.75,0,0,1,.752,1.3Zm4.207-.745a.75.75,0,0,1-.776-1.284Zm2.63-3.383a.75.75,0,0,1,.8,1.27Zm4.162-.889a.75.75,0,1,1-.822-1.255Zm2.484-3.463a.75.75,0,0,1,.845,1.24Zm4.146-1.053a.75.75,0,1,1-.867-1.224Zm2.376-3.566a.75.75,0,1,1,.889,1.208Zm4.079-1.186a.75.75,0,0,1-.911-1.192Zm2.227-3.637a.75.75,0,1,1,.933,1.175Zm4.063-1.357a.75.75,0,1,1-.954-1.157Zm2.1-3.724a.75.75,0,0,1,.975,1.14Zm3.982-1.479a.75.75,0,0,1-1-1.122Zm1.96-3.791a.75.75,0,1,1,1.015,1.1Zm3.959-1.652a.75.75,0,1,1-1.035-1.086Zm1.823-3.86a.75.75,0,1,1,1.054,1.067ZM367,21.088a.75.75,0,1,1-1.073-1.048Zm1.687-3.923a.75.75,0,0,1,1.091,1.029Zm3.836-1.931a.75.75,0,1,1-1.109-1.01Zm1.545-3.975a.75.75,0,0,1,1.126.991ZM377.8,9.237a.75.75,0,1,1-1.142-.971Zm1.413-4.03a.75.75,0,1,1,1.159.952Zm3.7-2.191a.75.75,0,0,1-1.175-.932ZM1.681,8.342Q2.295,9.1,2.923,9.86l-1.154.959Q1.134,10.053.513,9.283ZM5.5,12.87q1.318,1.5,2.694,2.976L7.1,16.868Q5.7,15.374,4.373,13.861ZM10.918,18.7q1.386,1.413,2.825,2.809L12.7,22.583q-1.452-1.408-2.852-2.835Zm5.73,5.558q1.444,1.333,2.935,2.649l-.992,1.125q-1.5-1.326-2.96-2.672Zm5.964,5.26q1.514,1.276,3.072,2.533l-.942,1.167q-1.57-1.267-3.1-2.554ZM28.8,34.507q1.577,1.22,3.2,2.419l-.894,1.2q-1.63-1.209-3.219-2.438ZM35.2,39.26q1.611,1.147,3.259,2.274l-.847,1.238q-1.659-1.135-3.282-2.29Zm6.59,4.508q1.65,1.085,3.334,2.149l-.8,1.268q-1.7-1.072-3.357-2.164Zm6.715,4.246q1.706,1.038,3.445,2.055L51.2,51.364Q49.447,50.341,47.73,49.3ZM55.4,52.046q1.727.973,3.482,1.925l-.715,1.319q-1.766-.958-3.5-1.936Zm7.021,3.807q1.756.916,3.538,1.811L65.281,59q-1.792-.9-3.559-1.822Zm7.106,3.569q1.8.868,3.618,1.715l-.632,1.36q-1.832-.851-3.638-1.725Zm7.242,3.367q1.81.809,3.642,1.6l-.592,1.378q-1.842-.791-3.662-1.6Zm7.327,3.147q1.84.759,3.7,1.5l-.552,1.395q-1.871-.741-3.721-1.5ZM91.5,68.87q1.862.707,3.743,1.392l-.513,1.409q-1.891-.688-3.762-1.4ZM99.011,71.6q1.87.652,3.759,1.281l-.474,1.423q-1.9-.632-3.778-1.287Zm7.551,2.515q1.905.606,3.825,1.188l-.435,1.435q-1.931-.585-3.844-1.194Zm7.637,2.316q1.91.551,3.835,1.079l-.4,1.447q-1.935-.53-3.854-1.084Zm7.7,2.11q1.927.5,3.866.977l-.357,1.457q-1.95-.479-3.886-.982Zm7.738,1.9q1.941.45,3.9.875l-.319,1.466q-1.964-.427-3.915-.879Zm7.807,1.7q1.946.4,3.9.768l-.28,1.474q-1.967-.374-3.922-.772Zm7.825,1.487q1.965.347,3.941.668l-.24,1.481q-1.986-.323-3.962-.671Zm7.876,1.281q1.97.293,3.945.561l-.2,1.486q-1.986-.269-3.965-.563Zm7.9,1.069q1.979.241,3.965.455l-.161,1.491q-2-.216-3.985-.458Zm7.927.856q1.983.187,3.973.348l-.12,1.5q-2-.161-3.994-.349Zm7.958.641q1.984.133,3.975.238l-.08,1.5q-2-.106-4-.24Zm7.956.422q1.992.078,3.989.129l-.038,1.5q-2.007-.051-4.01-.129Zm7.977.2q1.99.022,3.984.017l0,1.5q-2,.006-4-.017Zm7.971-.023q2-.034,3.992-.1l.047,1.5q-2.007.063-4.013.1Zm7.971-.251q1.99-.092,3.98-.212l.091,1.5q-2,.121-4,.213Zm7.961-.483q1.987-.15,3.974-.329l.135,1.494q-2,.181-4,.331Zm7.938-.718q1.983-.209,3.962-.448l.18,1.489q-1.991.241-3.984.451Zm7.921-.957q1.971-.269,3.941-.568l.226,1.483q-1.981.3-3.965.572Zm7.876-1.2q1.966-.33,3.928-.692l.272,1.475q-1.974.364-3.951.7Zm7.843-1.445q1.952-.392,3.9-.815l.319,1.466q-1.959.426-3.922.82Zm7.786-1.693q1.943-.455,3.878-.942l.366,1.455q-1.947.49-3.9.948Zm7.731-1.945q1.922-.517,3.837-1.067l.414,1.442q-1.928.553-3.861,1.074Zm7.661-2.2q1.907-.582,3.8-1.2l.462,1.427q-1.91.619-3.828,1.2Zm7.579-2.454q1.884-.645,3.759-1.324l.51,1.411q-1.887.683-3.783,1.333Zm7.5-2.715q1.857-.709,3.706-1.451l.559,1.392q-1.86.747-3.73,1.461Zm7.385-2.967q1.836-.775,3.661-1.584l.608,1.371q-1.837.814-3.685,1.594Zm7.3-3.234q1.8-.836,3.588-1.706l.656,1.349q-1.8.876-3.612,1.717Zm7.153-3.48q1.777-.9,3.543-1.843l.7,1.324q-1.777.945-3.567,1.856Zm7.042-3.745q1.734-.963,3.456-1.96l.752,1.3q-1.734,1-3.48,1.974Zm6.887-3.989q1.71-1.032,3.406-2.1l.8,1.27q-1.709,1.074-3.429,2.113Zm6.746-4.243q1.66-1.087,3.306-2.208l.845,1.24q-1.658,1.129-3.329,2.223Zm6.585-4.486q1.629-1.154,3.243-2.342l.889,1.208q-1.625,1.2-3.265,2.358Zm6.411-4.719q1.576-1.206,3.138-2.446l.933,1.175q-1.572,1.249-3.16,2.463Zm6.247-4.96q1.536-1.266,3.057-2.566l.975,1.14q-1.531,1.309-3.078,2.584Zm6.043-5.168q1.486-1.318,2.956-2.669l1.015,1.1q-1.479,1.361-2.975,2.687Zm5.88-5.406q1.437-1.37,2.858-2.774l1.054,1.067q-1.43,1.413-2.877,2.792Zm5.651-5.582q1.388-1.421,2.76-2.874l1.091,1.029Q368.4,19.658,367,21.088Zm5.487-5.816q1.335-1.466,2.654-2.965l1.126.991q-1.328,1.508-2.671,2.984Zm5.243-5.958q1.285-1.513,2.555-3.059l1.159.952Q379.1,7.714,377.8,9.237Z" transform="translate(-0.347 -0.958)" fill="#e1e1e1"/>
</svg>
