<svg xmlns="http://www.w3.org/2000/svg" xmlns:xlink="http://www.w3.org/1999/xlink" width="62.454" height="62.454" viewBox="0 0 62.454 62.454">
  <defs>
    <clipPath id="clip-path">
      <path id="path6180" d="M0-682.665H62.454v62.454H0Z" transform="translate(0 682.665)" fill="#EC1C24" stroke="#EC1C24" stroke-width="2"/>
    </clipPath>
  </defs>
  <g id="online-education" transform="translate(-69.368 0)">
    <g id="g6174" transform="translate(69.368 682.665)">
      <g id="g6176" transform="translate(0 -682.665)">
        <g id="g6178" clip-path="url(#clip-path)">
          <g id="g6184" transform="translate(3.449 16.574)">
            <path id="path6186" d="M-475.043,0h4.269a3.452,3.452,0,0,1,3.452,3.451V37.233h-55.557V3.451A3.452,3.452,0,0,1-519.427,0h4.269" transform="translate(522.879)" fill="rgba(0,0,0,0)" stroke="#EC1C24" stroke-linecap="round" stroke-linejoin="round" stroke-width="2"/>
          </g>
          <g id="g6188" transform="translate(7.718 20.843)">
            <path id="path6190" d="M-47.957-284.958h-4.829v-28.695h10.024" transform="translate(52.787 313.653)" fill="rgba(0,0,0,0)" stroke="#EC1C24" stroke-linecap="round" stroke-linejoin="round" stroke-width="2"/>
          </g>
          <g id="g6192" transform="translate(16.207 20.843)">
            <path id="path6194" d="M-283.08,0h10.024V28.695h-38.53" transform="translate(311.586)" fill="rgba(0,0,0,0)" stroke="#EC1C24" stroke-linecap="round" stroke-linejoin="round" stroke-width="2"/>
          </g>
          <g id="g6196" transform="translate(24.52 53.807)">
            <path id="path6198" d="M-99.258-34.986h-6.575a3.42,3.42,0,0,1-3.42-3.42v-.1h13.415v.1A3.42,3.42,0,0,1-99.258-34.986Z" transform="translate(109.253 38.509)" fill="rgba(0,0,0,0)" stroke="#EC1C24" stroke-linecap="round" stroke-linejoin="round" stroke-width="2"/>
          </g>
          <g id="g6200" transform="translate(0.915 53.807)">
            <path id="path6202" d="M-602.041,0h-60.624V2.028a5.018,5.018,0,0,0,5.018,5.018h50.587a5.019,5.019,0,0,0,5.018-5.018Z" transform="translate(662.665)" fill="rgba(0,0,0,0)" stroke="#EC1C24" stroke-linecap="round" stroke-linejoin="round" stroke-width="2"/>
          </g>
          <g id="g6204" transform="translate(17.743 20.055)">
            <path id="path6206" d="M-267.829,0V5.153a7.631,7.631,0,0,1-4.681,7.054,22.964,22.964,0,0,1-17.608,0A7.631,7.631,0,0,1-294.8,5.153V0" transform="translate(294.799)" fill="rgba(0,0,0,0)" stroke="#EC1C24" stroke-linecap="round" stroke-linejoin="round" stroke-width="2"/>
          </g>
          <g id="g6208" transform="translate(9.6 1.601)">
            <path id="path6210" d="M-295.957-36.171l11.963,6.337a2.8,2.8,0,0,1,0,4.951l-17.691,9.372a5.232,5.232,0,0,1-4.894,0l-17.691-9.372a2.8,2.8,0,0,1,0-4.951l17.691-9.372a5.232,5.232,0,0,1,4.894,0l2.532,1.342" transform="translate(325.759 39.813)" fill="rgba(0,0,0,0)" stroke="#EC1C24" stroke-linecap="round" stroke-linejoin="round" stroke-width="2"/>
          </g>
          <g id="g6212" transform="translate(31.227 14.056)">
            <path id="path6214" d="M0,0,7.87,8.974V21.135" fill="rgba(0,0,0,0)" stroke="#EC1C24" stroke-linecap="round" stroke-linejoin="round" stroke-width="2"/>
          </g>
          <g id="g6216" transform="translate(36.86 35.191)">
            <path id="path6218" d="M-22.218,0-24.2,3.438A1.861,1.861,0,0,0-22.592,6.23h.747a1.861,1.861,0,0,0,1.612-2.792Z" transform="translate(24.455)" fill="rgba(0,0,0,0)" stroke="#EC1C24" stroke-linecap="round" stroke-linejoin="round" stroke-width="2"/>
          </g>
          <g id="g6220" transform="translate(12.274 45.269)">
            <path id="path6222" d="M0,0H18.315" transform="translate(0 0)" fill="rgba(0,0,0,0)" stroke="#EC1C24" stroke-linecap="round" stroke-linejoin="round" stroke-width="2"/>
          </g>
          <g id="g6224" transform="translate(12.274 41.421)">
            <path id="path6226" d="M0,0H12.246" transform="translate(0 0)" fill="rgba(0,0,0,0)" stroke="#EC1C24" stroke-linecap="round" stroke-linejoin="round" stroke-width="2"/>
          </g>
        </g>
      </g>
    </g>
  </g>
</svg>
