<svg xmlns="http://www.w3.org/2000/svg" width="62.5" height="62.5" viewBox="0 0 62.5 62.5">
  <path id="monitor" d="M56.869,5.478h-11.7V5.169a.976.976,0,0,0-.286-.69L40.687.286A.977.977,0,0,0,40,0H18.311a.977.977,0,0,0-.977.977v4.5H5.631A5.638,5.638,0,0,0,0,11.109V43.131a5.638,5.638,0,0,0,5.631,5.631H20.759V54.2H14.651c-2.727,0-4.946,1.861-4.946,4.148v3.172a.977.977,0,0,0,.977.977H51.819a.977.977,0,0,0,.977-.977V58.352c0-2.287-2.219-4.148-4.946-4.148H41.741V48.762H56.869A5.638,5.638,0,0,0,62.5,43.131V11.109a5.638,5.638,0,0,0-5.631-5.631Zm-15.9-2.144.859.859h-.859ZM19.288,1.953H39.02V5.169A.977.977,0,0,0,40,6.146h3.216V33.539H19.288Zm24.9,33.539a.977.977,0,0,0,.977-.977V11.323H56.655V38.968H5.845V11.323H17.335V34.516a.977.977,0,0,0,.977.977Zm6.654,22.859v2.195H11.658V58.352c0-1.19,1.371-2.195,2.993-2.195h33.2C49.472,56.157,50.842,57.162,50.842,58.352ZM39.788,54.2H22.712V48.762H39.788V54.2ZM60.547,43.131a3.682,3.682,0,0,1-3.678,3.678H5.631a3.682,3.682,0,0,1-3.678-3.678V11.109A3.682,3.682,0,0,1,5.631,7.431h11.7V9.37H5.514a1.624,1.624,0,0,0-1.622,1.622V39.945a.977.977,0,0,0,.977.977H57.631a.977.977,0,0,0,.977-.977V10.992A1.624,1.624,0,0,0,56.986,9.37H45.165V7.431h11.7a3.682,3.682,0,0,1,3.678,3.678V43.131ZM39.884,11.356a.977.977,0,0,1-.977.977H23.592a.977.977,0,0,1,0-1.953H38.908A.977.977,0,0,1,39.884,11.356Zm0,4.514a.977.977,0,0,1-.977.977H23.592a.977.977,0,1,1,0-1.953H38.908A.977.977,0,0,1,39.884,15.87Zm0,4.514a.977.977,0,0,1-.977.977H23.592a.977.977,0,0,1,0-1.953H38.908A.977.977,0,0,1,39.884,20.383Zm0,4.514a.977.977,0,0,1-.977.977H23.592a.977.977,0,0,1,0-1.953H38.908A.977.977,0,0,1,39.884,24.9Zm0,4.514a.977.977,0,0,1-.977.977H23.592a.977.977,0,0,1,0-1.953H38.908A.977.977,0,0,1,39.884,29.41ZM22.616,6.842a.977.977,0,0,1,.977-.977H34.587a.977.977,0,0,1,0,1.953H23.592A.977.977,0,0,1,22.616,6.842Z" fill="#EC1C24"/>
</svg>
