<svg xmlns="http://www.w3.org/2000/svg" width="60.977" height="62.454" viewBox="0 0 60.977 62.454">
  <g id="online-education" transform="translate(-3.368)">
    <g id="Group_178" data-name="Group 178" transform="translate(3.368 0)">
      <g id="Group_161" data-name="Group 161" transform="translate(22.751 20.126)">
        <g id="Group_158" data-name="Group 158">
          <g id="Group_157" data-name="Group 157">
            <path id="Path_5162" data-name="Path 5162" d="M112.375,94.871a1.044,1.044,0,0,1-.8-.378,1.677,1.677,0,0,0-2.587,0,1.042,1.042,0,1,1-1.607-1.327,3.761,3.761,0,0,1,5.8,0,1.041,1.041,0,0,1-.14,1.467A1.058,1.058,0,0,1,112.375,94.871Z" transform="translate(-107.139 -91.799)" fill="#EC1C24"/>
          </g>
        </g>
        <g id="Group_160" data-name="Group 160" transform="translate(9.202)">
          <g id="Group_159" data-name="Group 159">
            <path id="Path_5163" data-name="Path 5163" d="M154.347,94.871a1.044,1.044,0,0,1-.8-.378,1.677,1.677,0,0,0-2.587,0,1.042,1.042,0,1,1-1.607-1.327,3.761,3.761,0,0,1,5.8,0,1.041,1.041,0,0,1-.8,1.7Z" transform="translate(-149.111 -91.799)" fill="#EC1C24"/>
          </g>
        </g>
      </g>
      <g id="Group_163" data-name="Group 163" transform="translate(11.94 34.523)">
        <g id="Group_162" data-name="Group 162">
          <path id="Path_5164" data-name="Path 5164" d="M93.885,185.394H58.867a1.04,1.04,0,0,1-1.041-1.041V160.593a3.134,3.134,0,0,1,3.13-3.13H91.8a3.134,3.134,0,0,1,3.13,3.13v23.759a1.04,1.04,0,0,1-1.041,1.041Zm-33.977-2.084H92.842V160.593a1.05,1.05,0,0,0-1.049-1.049H60.957a1.05,1.05,0,0,0-1.049,1.049Z" transform="translate(-57.826 -157.463)" fill="#EC1C24"/>
        </g>
      </g>
      <g id="Group_165" data-name="Group 165" transform="translate(0 41.832)">
        <g id="Group_164" data-name="Group 164">
          <path id="Path_5165" data-name="Path 5165" d="M4.409,211.413a1.04,1.04,0,0,1-1.041-1.041v-3.317a6.277,6.277,0,0,1,.27-1.821A20,20,0,0,1,15.95,190.881a1.042,1.042,0,1,1,.793,1.926,17.944,17.944,0,0,0-11.08,12.9c-.008.033-.015.066-.025.1a4.134,4.134,0,0,0-.191,1.248v3.317a1.036,1.036,0,0,1-1.038,1.041Z" transform="translate(-3.368 -190.802)" fill="#EC1C24"/>
        </g>
      </g>
      <g id="Group_167" data-name="Group 167" transform="translate(16.849 4.656)">
        <g id="Group_166" data-name="Group 166">
          <path id="Path_5166" data-name="Path 5166" d="M104.33,53.185a1.042,1.042,0,0,1-.857-1.635,10.8,10.8,0,0,0,1.931-6.184V34.176A10.871,10.871,0,0,0,94.546,23.318H93.158A10.869,10.869,0,0,0,82.3,34.176v11.19a10.783,10.783,0,0,0,1.855,6.069A1.042,1.042,0,1,1,82.428,52.6a12.875,12.875,0,0,1-2.212-7.235V34.176a12.954,12.954,0,0,1,12.94-12.94h1.388a12.954,12.954,0,0,1,12.94,12.94v11.19a12.861,12.861,0,0,1-2.3,7.373,1.015,1.015,0,0,1-.85.447Z" transform="translate(-80.216 -21.236)" fill="#EC1C24"/>
        </g>
      </g>
      <g id="Group_169" data-name="Group 169" transform="translate(46.955 41.833)">
        <g id="Group_168" data-name="Group 168">
          <path id="Path_5167" data-name="Path 5167" d="M230.52,211.415a1.04,1.04,0,0,1-1.041-1.041v-3.317a4.121,4.121,0,0,0-.191-1.247c-.01-.033-.018-.064-.025-.1a17.937,17.937,0,0,0-11.08-12.9,1.042,1.042,0,0,1,.793-1.926,20,20,0,0,1,12.312,14.353,6.2,6.2,0,0,1,.27,1.822v3.317a1.033,1.033,0,0,1-1.038,1.041Z" transform="translate(-217.537 -190.804)" fill="#EC1C24"/>
        </g>
      </g>
      <g id="Group_171" data-name="Group 171" transform="translate(12.2 0)">
        <g id="Group_170" data-name="Group 170">
          <path id="Path_5168" data-name="Path 5168" d="M94.551,19.088a1.04,1.04,0,0,1-1.041-1.041V17.6A15.532,15.532,0,0,0,78,2.082H76.608A15.532,15.532,0,0,0,61.094,17.6v.452a1.041,1.041,0,1,1-2.082,0V17.6A17.616,17.616,0,0,1,76.608,0H78a17.616,17.616,0,0,1,17.6,17.6v.452A1.04,1.04,0,0,1,94.551,19.088Z" transform="translate(-59.012 0)" fill="#EC1C24"/>
        </g>
      </g>
      <g id="Group_173" data-name="Group 173" transform="translate(7.524 17.004)">
        <g id="Group_172" data-name="Group 172">
          <path id="Path_5169" data-name="Path 5169" d="M44.759,91.6H42.036a4.358,4.358,0,0,1-4.352-4.352V81.908a4.358,4.358,0,0,1,4.352-4.352h2.722a4.358,4.358,0,0,1,4.352,4.352v5.337A4.36,4.36,0,0,1,44.759,91.6ZM42.036,79.64a2.271,2.271,0,0,0-2.268,2.268v5.337a2.271,2.271,0,0,0,2.268,2.268h2.722a2.271,2.271,0,0,0,2.268-2.268V81.908a2.271,2.271,0,0,0-2.268-2.268Z" transform="translate(-37.684 -77.556)" fill="#EC1C24"/>
        </g>
      </g>
      <g id="Group_175" data-name="Group 175" transform="translate(42.024 17.004)">
        <g id="Group_174" data-name="Group 174">
          <path id="Path_5170" data-name="Path 5170" d="M202.117,91.6h-2.722a4.358,4.358,0,0,1-4.352-4.352V81.908a4.358,4.358,0,0,1,4.352-4.352h2.722a4.358,4.358,0,0,1,4.352,4.352v5.337A4.356,4.356,0,0,1,202.117,91.6ZM199.4,79.64a2.271,2.271,0,0,0-2.268,2.268v5.337a2.271,2.271,0,0,0,2.268,2.268h2.722a2.271,2.271,0,0,0,2.268-2.268V81.908a2.271,2.271,0,0,0-2.268-2.268Z" transform="translate(-195.042 -77.556)" fill="#EC1C24"/>
        </g>
      </g>
      <g id="Group_177" data-name="Group 177" transform="translate(25.449 41.534)">
        <g id="Group_176" data-name="Group 176">
          <path id="Path_5171" data-name="Path 5171" d="M124.483,199.523a5.041,5.041,0,1,1,5.041-5.041A5.047,5.047,0,0,1,124.483,199.523Zm0-8a2.957,2.957,0,1,0,2.957,2.957A2.961,2.961,0,0,0,124.483,191.525Z" transform="translate(-119.442 -189.441)" fill="#EC1C24"/>
        </g>
      </g>
    </g>
  </g>
</svg>
