<?xml version="1.0" encoding="utf-8"?>
<!-- Generator: Adobe Illustrator 25.4.1, SVG Export Plug-In . SVG Version: 6.00 Build 0)  -->
<svg version="1.1" id="Layer_1" xmlns="http://www.w3.org/2000/svg" xmlns:xlink="http://www.w3.org/1999/xlink" x="0px" y="0px"
	 viewBox="0 0 607.9 94.5" style="enable-background:new 0 0 607.9 94.5;" xml:space="preserve">
<style type="text/css">
	.st0{fill-rule:evenodd;clip-rule:evenodd;fill:#EF6E30;}
	.st1{fill:#EF6E30;}
</style>
<g>
	<path class="st0" d="M45.6,10.3c-12,0-21.7,9.7-21.7,21.7c0,12,9.7,21.7,21.7,21.7c12,0,21.7-9.7,21.7-21.7
		C67.2,20,57.5,10.3,45.6,10.3 M27.2,57.3L8.2,76.2c-1.9,1.9-4.9,1.9-6.8,0c-1.9-1.9-1.9-4.9,0-6.8l18.9-18.9
		c-3.8-5.2-6.1-11.6-6.1-18.5c0-17.3,14-31.3,31.3-31.3c15.9,0,29.1,11.9,31,27.3v8c-2,15.4-15.1,27.3-31,27.3
		C38.7,63.3,32.3,61,27.2,57.3z"/>
</g>
<g>
	<path class="st1" d="M97.5,23.9l27.5,34.2c0.7,1,1.7,1.4,3,1.4h5.5c1.1,0,2-0.3,2.7-1c0.7-0.7,1-1.6,1-2.7V8.3c0-1.1-0.3-2-1-2.7
		c-0.7-0.7-1.6-1-2.7-1h-4.8c-1.1,0-2.1,0.3-2.8,1c-0.7,0.7-1.1,1.6-1.1,2.7l0.1,31.8l-27-34.1c-0.8-1-1.7-1.4-3-1.4H89
		c-1.1,0-2.1,0.3-2.8,1c-0.7,0.7-1.1,1.6-1.1,2.7v47.6c0,1.1,0.4,2,1.1,2.7c0.7,0.7,1.6,1,2.8,1h4.8c1.1,0,2-0.3,2.7-1s1-1.6,1-2.7
		L97.5,23.9z"/>
</g>
<g>
	<path class="st1" d="M148.2,4.3c-1.1,0-2.1,0.3-2.8,1c-0.7,0.7-1.1,1.6-1.1,2.7v47.6c0,1.1,0.4,2,1.1,2.7c0.7,0.7,1.6,1,2.8,1h28.5
		c1.1,0,2-0.3,2.7-1c0.7-0.7,1-1.6,1-2.7v-2.1c0-1.1-0.3-2-1-2.7c-0.7-0.7-1.6-1-2.7-1h-19.8l-0.1-41.8c0-1.1-0.3-2-1-2.7
		c-0.7-0.7-1.6-1-2.7-1H148.2z"/>
</g>
<g>
	<path class="st1" d="M186.1,4.4c-1.1,0-2.1,0.3-2.8,1c-0.7,0.7-1.1,1.6-1.1,2.7v47.6c0,1.1,0.4,2,1.1,2.7c0.7,0.7,1.6,1,2.8,1h4.8
		c1.1,0,2-0.3,2.7-1c0.7-0.7,1-1.6,1-2.7l-0.1-47.6c0-1.1-0.3-2-1-2.7c-0.7-0.7-1.6-1-2.7-1H186.1z"/>
</g>
<g>
	<path class="st1" d="M214.2,23.9l27.5,34.2c0.7,1,1.7,1.4,3,1.4h5.5c1.1,0,2-0.3,2.7-1c0.7-0.7,1-1.6,1-2.7V8.3c0-1.1-0.3-2-1-2.7
		c-0.7-0.7-1.6-1-2.7-1h-4.8c-1.1,0-2.1,0.3-2.8,1c-0.7,0.7-1.1,1.6-1.1,2.7l0.1,31.8l-27-34.1c-0.8-1-1.7-1.4-3-1.4h-5.8
		c-1.1,0-2.1,0.3-2.8,1c-0.7,0.7-1.1,1.6-1.1,2.7v47.6c0,1.1,0.4,2,1.1,2.7c0.7,0.7,1.6,1,2.8,1h4.8c1.1,0,2-0.3,2.7-1
		c0.7-0.7,1-1.6,1-2.7L214.2,23.9z"/>
</g>
<g>
	<path class="st1" d="M265,4.4c-1.1,0-2.1,0.3-2.8,1c-0.7,0.7-1.1,1.6-1.1,2.7v47.6c0,1.1,0.4,2,1.1,2.7c0.7,0.7,1.6,1,2.8,1h31.1
		c1.1,0,2.1-0.3,2.8-1c0.7-0.7,1.1-1.6,1.1-2.7v-2.1c0-1.1-0.4-2-1.1-2.7c-0.7-0.7-1.6-1-2.8-1h-22.5l-0.1-13.1h19.8
		c1.1,0,2-0.4,2.7-1.1c0.7-0.7,1-1.6,1-2.8v-2.2c0-1.1-0.3-2.1-1-2.8c-0.7-0.7-1.6-1.1-2.7-1.1h-19.8V14H296c1.1,0,2.1-0.3,2.8-1
		c0.7-0.7,1.1-1.6,1.1-2.7V8.2c0-1.1-0.4-2-1.1-2.7c-0.7-0.7-1.6-1-2.8-1H265z"/>
</g>
<g>
	<path d="M339.5,44.8L323.5,6.4c-0.3-0.7-0.8-1.3-1.4-1.7C321.4,4.2,320.7,4,320,4h-5.2c-1.7,0-2.9,0.5-3.5,1.5
		c-0.6,1-0.6,2.2,0.1,3.8L332,57c0.3,0.7,0.8,1.2,1.4,1.6c0.6,0.4,1.3,0.6,2.1,0.6h7.8c0.8,0,1.5-0.2,2.1-0.6c0.6-0.4,1.1-1,1.4-1.6
		l20.6-47.6c0.7-1.6,0.7-2.9,0.1-3.8c-0.6-1-1.8-1.5-3.5-1.5h-4.7c-0.8,0-1.5,0.2-2.1,0.6c-0.6,0.4-1.1,1-1.4,1.7L339.5,44.8z"/>
</g>
<g>
	<path d="M374.3,4c-1.1,0-2.1,0.3-2.8,1c-0.7,0.7-1.1,1.6-1.1,2.7v47.6c0,1.1,0.4,2,1.1,2.7c0.7,0.7,1.6,1,2.8,1h4.8
		c1.1,0,2-0.3,2.7-1c0.7-0.7,1-1.6,1-2.7l-0.1-47.6c0-1.1-0.3-2-1-2.7c-0.7-0.7-1.6-1-2.7-1H374.3z"/>
</g>
<g>
	<path d="M411.7,49.6h-9.1v-36h9.1c2.8,0,5.3,0.3,7.5,0.9c2.2,0.6,4,1.4,5.5,2.5c1.4,1.1,2.6,2.4,3.6,3.9c0.9,1.5,1.6,3.2,2,4.9
		c0.4,1.7,0.6,3.7,0.6,5.8c0,2.6-0.3,4.9-1,7c-0.7,2.1-1.8,4-3.2,5.6c-1.4,1.7-3.4,3-5.9,3.9C418.1,49.1,415.1,49.6,411.7,49.6
		 M394,4c-1.1,0-2.1,0.3-2.8,1c-0.7,0.7-1.1,1.6-1.1,2.7v47.6c0,1.1,0.4,2,1.1,2.7c0.7,0.7,1.6,1,2.8,1h17.7c4.6,0,8.7-0.5,12.4-1.6
		c3.7-1,6.7-2.4,9-4.2c2.4-1.7,4.3-3.8,5.9-6.2c1.6-2.4,2.7-4.9,3.3-7.5c0.7-2.6,1-5.3,1-8.1c0-2.4-0.2-4.7-0.7-6.9
		c-0.5-2.2-1.2-4.3-2.2-6.4c-1-2.1-2.3-4-4-5.7c-1.7-1.7-3.6-3.2-5.9-4.5c-2.3-1.3-5-2.3-8.2-3c-3.2-0.7-6.8-1.1-10.7-1.1H394z"/>
</g>
<g>
	<path d="M450.8,4c-1.1,0-2.1,0.3-2.8,1c-0.7,0.7-1.1,1.6-1.1,2.7v47.6c0,1.1,0.4,2,1.1,2.7c0.7,0.7,1.6,1,2.8,1h4.8
		c1.1,0,2-0.3,2.7-1c0.7-0.7,1-1.6,1-2.7V36.5h27.4v18.9c0,1.1,0.3,2,1,2.7c0.7,0.7,1.6,1,2.7,1h4.8c1.1,0,2-0.3,2.7-1
		c0.7-0.7,1-1.6,1-2.7V7.8c0-1.1-0.3-2-1-2.7c-0.7-0.7-1.6-1-2.7-1h-4.8c-1.1,0-2,0.3-2.7,1c-0.7,0.7-1,1.6-1,2.7v18.9h-27.4V7.8
		c0-1.1-0.3-2-1-2.7c-0.7-0.7-1.6-1-2.7-1H450.8z"/>
</g>
<g>
	<path d="M528,25.5L515.6,5.8c-0.7-1.2-1.8-1.7-3.3-1.7h-4.8c-2,0-3.4,0.5-3.9,1.6c-0.6,1.1-0.3,2.5,0.8,4.2l11.2,17.5
		c0.5,0.8,1.2,1.8,2,2.9c0.8,1.2,1.4,1.9,1.6,2.3c0.9,1.2,1.8,2.8,2.8,5.1l-0.1,0.6v19.9c0,0.3,0.1,0.5,0.3,0.7
		c0.2,0.2,0.4,0.3,0.7,0.3h10.4c0.3,0,0.5-0.1,0.7-0.3c0.2-0.2,0.3-0.4,0.3-0.7v-1c0-3.8,0-7.3-0.1-10.6v-6.6l0.1-1.7l-0.1-0.6
		c0.6-1.7,1.5-3.4,2.7-5.1c1.7-2.4,3-4.2,3.6-5.2l11-17.6c1.1-1.7,1.3-3.1,0.8-4.2c-0.6-1-1.9-1.6-3.9-1.6h-4.7
		c-1.5,0-2.5,0.6-3.3,1.7L528,25.5z"/>
</g>
<g>
	<path d="M580,19.6l6.7,16h-13.4L580,19.6z M595.7,57c0.3,0.7,0.8,1.2,1.4,1.6c0.6,0.4,1.3,0.6,2.1,0.6h4.8c1.7,0,2.9-0.5,3.5-1.4
		c0.6-1,0.6-2.2-0.1-3.8L587,6.3c-0.3-0.7-0.8-1.2-1.4-1.6C585,4.2,584.3,4,583.5,4h-6.9c-0.8,0-1.5,0.2-2.1,0.6
		c-0.6,0.4-1.1,1-1.4,1.6l-20.4,47.6c-0.7,1.6-0.7,2.9-0.1,3.8c0.6,1,1.8,1.4,3.5,1.4h4.7c0.8,0,1.5-0.2,2.1-0.6
		c0.6-0.4,1.1-1,1.4-1.6l4.9-11.7h21.5L595.7,57z"/>
</g>
<g>
	<path class="st1" d="M24.8,33.4c0.5,0,1.1-0.1,1.9,0.1c1.4,0.4,1.4,0.6,1.5,1.1c0.1,0.3,0.2,0.7,0.5,1.2c0.3,0.5,0.7,0.8,1.3,0.9
		c0.1,0,0.2,0,0.4,0c1,0,1.9-0.6,2.2-0.8c0.2-0.2,0.2-0.4,0.2-0.5c-0.1-0.3-0.5-0.4-1-0.5c-0.2,0-0.4-0.1-0.6-0.1
		c0.2-0.2,0.4-0.4,0.4-0.7c0-0.4-0.3-0.6-0.5-0.7c-0.2-0.1-0.4-0.3-0.6-0.6c-0.1-0.2-0.1-0.3,0-0.5c0.1-0.2,0.3-0.5,0.1-1
		C30.3,31.1,30.1,31,30,31c-0.3-0.1-0.6,0.1-1,0.3c-0.2,0.2-0.6,0.4-0.8,0.4c-0.1,0-0.2-0.2-0.2-0.3c-0.1-0.3,0-0.4,0-0.5
		c0.4-0.5,1.7-0.7,2.4-0.7c0.1,0,0.4,0.2,0.7,0.4c0.4,0.4,1,0.8,1.6,0.6c0.5-0.2,0.8-0.9,1.4-2.3c0.5-1,1-2.2,1.5-2.8
		c0.7-0.7,1.4-0.6,2.1-0.6c0.3,0,0.6,0,0.9,0c0.2-0.1,0.5-0.2,0.7-0.4c0.2-0.3,0-0.7-0.2-1.2c0-0.1-0.1-0.2-0.1-0.3
		c0.2,0,0.3,0,0.5,0c0,0,0,0,0,0c0.1,0,0.1,0.3,0.2,0.4c0.2,0.5,0.5,1.2,1.5,1.2c0.4,0,0.7-0.2,0.8-0.4c0.3-0.4,0.1-1-0.1-1.8
		c-0.1-0.5-0.3-1-0.4-1.6c-0.1-0.7-0.3-1.1-0.6-1.3c-0.5-0.3-1-0.1-1.3,0.1c0,0,0,0,0,0c-0.1-0.1-0.1-0.3-0.2-0.4
		c-0.2-0.5-0.4-1.1-0.8-1.4C38.5,18,38.3,18,38.1,18c-0.4,0.1-0.6,0.5-0.9,1.1c-0.2,0.3-0.5,0.8-0.6,0.9c-0.7-0.2-1.1,0.4-1.4,0.8
		c-0.1-0.1-0.2-0.3-0.2-0.9c0-0.4,1.4-1.4,2.2-1.9c0.9-0.6,1.6-1.1,1.9-1.5c0.1-0.2,0.3-0.5,0.1-0.8c-0.2-0.3-0.5-0.1-0.9,0
		c-0.3,0.1-0.6,0.2-0.9,0.2c0-0.1,0.2-0.4,0.2-0.5c0.1-0.2,0.3-0.4,0-0.7c-0.2-0.2-0.5,0-0.6,0.1c-0.6,0.5-2.1,1-2.6,1
		c-0.1,0-0.1,0-0.2,0c0-0.1,0-0.3,0-0.4c0-0.1,0-0.2,0-0.4c0-0.3-0.2-0.6-0.4-0.8c-0.1-0.1-0.2-0.1-0.3-0.2c0.7-0.5,1.5-0.9,2.3-1.3
		c0.3,0.3,1,0.7,3,1.1c0.5,0.1,0.9,0.3,1.2,0.4c0.3,0.1,0.5,0.2,0.7,0.2c0.3,0,0.6-0.2,0.9-0.8c0.2-0.4,0.7-1,1.3-1.6
		c0,0.1-0.1,0.2,0,0.3c0.1,0.5,0.3,0.9,0.5,1.2c0.1,0.1,0.1,0.3,0.2,0.4c0,0-0.1,0.1-0.1,0.1c-0.3,0.2-0.7,0.5-0.8,0.9
		c0,0.3,0.1,0.6,0.3,1c0.5,0.6,0.4,1,0.2,1.5c-0.1,0.3-0.2,0.6-0.2,0.9c0,0.2,0,0.4,0,0.7c-0.1,1.3-0.2,2.2,0.4,2.5
		c0.1,0.1,0.2,0.1,0.4,0.1c0.1,0,0.3,0,0.5-0.1c0.6-0.3,0.8-0.7,1-1.1c0.3-0.5,0.6-1.1,2-2.4c2.5-2.1,4.4-6.2,4.5-7.2
		c3.5,0.9,6.7,2.7,9.3,5c-0.3,0.5-0.7,1-1,1c-0.1,0-0.1,0-0.1-0.3c0-0.5-0.1-1.3-1.4-1.5c-1.9-0.4-4.5,0.5-5.1,2.1
		c-0.4,1.1-0.5,2.2-0.1,2.9c0.2,0.3,0.5,0.5,0.8,0.6c0.1,0,0.3,0.1,0.5,0.1c-0.1,0.1-0.2,0.2-0.3,0.3c-0.7,1.2-1.6,2.1-1.9,2.1
		c-0.5,0-0.8,0.4-1,1.1c-0.1,0.3-0.1,0.6,0,0.8c0,0,0,0,0,0c-0.3-0.1-0.7-0.3-1.1-0.2c-0.2,0.1-0.4,0.3-0.5,0.5
		c-0.2,0.6,0,1.5,0.3,2c0.2,0.3,0.5,0.3,0.6,0.3c0.1,0,0.2,0,0.3,0c0,0,0.1,0,0.1,0c-0.3,0.1-0.5,0.3-0.6,0.5l-0.2,0.3
		c-0.3,0.5-0.6,1-0.9,1.3l-0.1,0.1c-0.4,0.4-1.1,0.9-1.4,2.1c-0.3,1.3,0.4,4.1,2,4.5c1.1,0.3,2.4,0.2,3.4,0.1c0.3,0,0.6-0.1,0.8-0.1
		c0.4,0,0.6,0.2,0.7,1.3c0.1,0.6,0.3,1,0.5,1.3c0.2,0.3,0.3,0.5,0.4,0.8c0,0.4,0,0.6,0,0.9c0,0.4-0.1,0.9-0.1,1.8c0,0.4,0,0.8,0,1.2
		c0,1.4-0.1,3,1.1,3.5c0.2,0.1,0.3,0.2,0.5,0.2c0.3,0.2,0.6,0.3,0.9,0.3c0.6,0,1.1-0.5,2.3-2c2.1-2.7,2.5-4,2.8-5.5
		c0.3-1.5,1.4-2.8,2.3-3.4c0.8-0.6,1.4-1.6,1.3-2c-0.1-0.2-0.2-0.3-0.4-0.3c0,0-0.1,0-0.2,0c-0.6,0.1-2.4,0.3-2.9-0.8
		c0-0.1-0.1-0.2-0.1-0.3c0.4,0.5,0.7,0.8,1.2,0.8c2-0.3,3.1-0.7,3.4-1.2c0.1-0.1,0.2-0.3,0.3-0.4c0.1-0.1,0.1-0.1,0.2-0.2
		c-0.1,12.1-10,21.9-22.1,21.9c-11.9,0-21.6-9.4-22.1-21.2C24.1,33.5,24.4,33.4,24.8,33.4 M23.7,32.4c0-7.3,3.5-13.7,8.9-17.8
		c0.2,0,0.5,0.1,0.6,0.2c0.1,0.1,0.1,0.1,0.1,0.3c0,0.1,0,0.3,0,0.4c0.1,0.8,0.1,1.1,1,1.1c0.5,0,1.4-0.3,2.2-0.7
		c0,0.1,0,0.2,0.1,0.3c0,0.1,0.2,0.3,0.5,0.4c0.2,0.1,0.5,0,0.7,0c-0.3,0.2-0.7,0.5-1.1,0.7c-1.4,0.9-2.6,1.7-2.6,2.6
		c0.1,0.9,0.2,1.1,0.5,1.4c0,0,0.1,0.1,0.1,0.2c0.1,0.1,0.2,0.2,0.4,0.2c0.3,0,0.4-0.3,0.6-0.5c0.2-0.4,0.4-0.6,0.5-0.5
		c0.7,0.2,1.1-0.6,1.5-1.2c0.1-0.2,0.3-0.5,0.4-0.7c0.2,0.2,0.4,0.7,0.5,1c0.2,0.6,0.4,1.1,0.9,1c0.1,0,0.2-0.1,0.3-0.1
		c0.2-0.1,0.5-0.2,0.7-0.1c0.1,0.1,0.2,0.4,0.3,0.8c0.1,0.6,0.2,1.2,0.4,1.7c0.1,0.4,0.3,1,0.2,1.1c0,0-0.1,0.1-0.3,0.1
		c-0.4,0-0.5-0.2-0.7-0.7c-0.1-0.4-0.4-1-1.1-0.8c-0.3,0.1-0.5,0-0.6-0.2c-0.1-0.1-0.3-0.2-0.5,0C38,22.8,38,23,38.3,23.6
		c0.1,0.2,0.2,0.4,0.2,0.6c0.1,0.2,0.2,0.4,0.2,0.6c0,0-0.1,0-0.2,0.1c-0.2,0-0.4,0-0.7,0c-0.7-0.1-1.7-0.1-2.6,0.8
		c-0.6,0.6-1.2,1.9-1.7,3c-0.3,0.7-0.8,1.8-1,1.9c-0.2,0.1-0.6-0.2-0.9-0.5c-0.4-0.3-0.7-0.6-1.1-0.6c0,0-2.3,0-3,1.1
		c-0.2,0.2-0.3,0.7-0.1,1.2c0.2,0.4,0.4,0.6,0.7,0.7c0.5,0.2,1-0.2,1.4-0.4c0.1,0,0.1-0.1,0.2-0.1c0,0.1-0.1,0.2-0.1,0.3
		c-0.1,0.3-0.3,0.6,0,1.2c0.3,0.4,0.6,0.6,0.8,0.8c0.1,0,0.1,0.1,0.2,0.1c0,0.1-0.1,0.1-0.2,0.2c-0.2,0.2-0.4,0.4-0.3,0.6
		c0,0.2,0.2,0.3,0.4,0.4c0.3,0.1,0.6,0.2,1,0.2c-0.4,0.2-1,0.4-1.4,0.3c-0.3-0.1-0.6-0.2-0.8-0.5c-0.3-0.4-0.3-0.7-0.4-1
		c-0.2-0.8-0.4-1.1-2-1.6c-0.8-0.3-1.6-0.2-2.1-0.1c-0.5,0-0.8,0.1-1-0.1C23.7,32.5,23.7,32.5,23.7,32.4z M43.4,10.4
		c-0.2,0.2-0.5,0.5-0.7,0.7c-0.8,0.8-1.5,1.6-1.8,2.2c-0.2,0.4-0.3,0.4-0.3,0.4c-0.1,0-0.3-0.1-0.4-0.2c-0.3-0.1-0.7-0.3-1.4-0.5
		c-1.4-0.3-2.1-0.6-2.4-0.7C38.6,11.4,41,10.7,43.4,10.4z M46.5,10.3c1.5,0,2.9,0.2,4.3,0.5c0,0,0,0.1,0,0.1c0,0.5-1.7,4.5-4.2,6.7
		c-1.5,1.3-1.9,2.1-2.2,2.6c-0.2,0.4-0.3,0.5-0.7,0.7c-0.1,0-0.1,0-0.1,0c-0.2-0.2-0.1-1.4,0-1.8c0-0.3,0.1-0.6,0.1-0.7
		c0-0.2,0.1-0.4,0.1-0.7c0.2-0.6,0.4-1.3-0.3-2.2c-0.1-0.2-0.2-0.3-0.2-0.4c0-0.1,0.3-0.3,0.5-0.4c0.3-0.2,0.5-0.3,0.5-0.6
		c0-0.2-0.1-0.5-0.3-0.8c-0.2-0.3-0.3-0.7-0.4-1C43.6,12,44.9,11.1,46.5,10.3z M44.5,10.3c0.1,0,0.3,0,0.4,0
		c-0.3,0.2-0.6,0.4-0.9,0.6C44.2,10.7,44.4,10.5,44.5,10.3z M55.2,21.1c0.3,0,0.5,0,0.7-0.2c0.3-0.2,0.4-0.5,0.5-1
		c0.1-1,0.2-1.6,0.3-1.9c0.1,0.3,0.2,0.8,0.2,1.2c0,0.2,0.2,0.3,0.4,0.3c0,0,0,0,0,0c0,0,0,0.1,0,0.3c-0.1,0.7-0.6,1.9-1.2,1.9
		c-0.3,0-0.5-0.2-0.7-0.5C55.4,21.2,55.3,21.2,55.2,21.1z M55.1,27.8c0.1,0.2,0.3,0.2,0.6,0.2c0.7,0,1.2-0.2,1.4-0.6
		c0.1-0.1,0.2-0.3,0.2-0.5c0.1,0.3,0.3,0.5,0.5,0.5c0.1,0,0.3,0,0.7-0.5c0.2,0.5,0.5,1,1.1,1c0.4,0,1,0,1.3,0v1
		c-1,0.1-2.1,0.1-2.3,0c-0.7-0.4-1.5,0.1-1.5,0.1c-0.3,0.2-1.2,0.5-1.6,0.3c-0.1,0-0.1-0.1-0.1-0.1c-0.1-0.2-0.1-0.4-0.2-0.5
		c-0.2-0.6-0.4-1.3-1.1-1.3c-0.1,0-0.2,0-0.3,0c-0.2,0-0.5,0.1-0.9,0.1c-0.3,0-0.6,0.1-0.8,0.1c0.1-0.1,0.3-0.2,0.4-0.3
		c0.9-0.8,1.8-1.3,2.2-1.2c0.1,0,0.1,0,0.1,0.1c0.1,0.1,0.1,0.4,0,0.7C54.9,27.2,54.9,27.6,55.1,27.8z M61.3,16.6
		c3.5,3.5,5.9,8.1,6.5,13.3c-2.9-0.3-3,0.3-3.1,0.5c-0.1,0.7,1,1,2.1,1.4c0.3,0.1,0.5,0.1,0.7,0.2c0,0,0,0,0,0
		c-0.1,0.1-0.2,0.3-0.3,0.5c-0.2,0.2-0.3,0.4-0.4,0.6c-0.1,0.2-1.1,0.6-2.8,0.8c-0.3,0-1-1.2-1.3-1.8c-0.6-1.1-0.9-1.7-1.4-1.6
		c-0.2,0-0.3,0.1-0.4,0.3c-0.2,0.4,0.1,1,0.8,2.3c0.2,0.4,0.5,0.9,0.7,1.3c0.7,1.4,2.5,1.4,3.4,1.3c-0.1,0.3-0.4,0.6-0.9,1
		c-1,0.7-2.1,2.2-2.5,3.8c-0.3,1.4-0.7,2.6-2.7,5.2c-1.5,1.9-1.6,1.9-2.2,1.5c-0.1-0.1-0.3-0.2-0.5-0.2c-0.7-0.3-0.7-1.6-0.7-2.8
		c0-0.4,0-0.9,0-1.2c0-0.8,0-1.3,0.1-1.7c0-0.3,0.1-0.6,0-1.1c-0.1-0.5-0.3-0.9-0.5-1.2c-0.2-0.3-0.4-0.5-0.4-0.9
		c-0.1-0.7-0.2-2-1.4-2c0,0,0,0,0,0c-0.2,0-0.5,0-0.9,0.1c-0.9,0.1-2.2,0.2-3.2,0c-1.2-0.3-1.7-2.6-1.5-3.6c0.2-1,0.7-1.3,1.1-1.7
		l0.1-0.1c0.4-0.3,0.8-0.9,1.1-1.5l0.2-0.3c0.2-0.3,1.6-0.4,2.2-0.5c0.4,0,0.8-0.1,1-0.1c0.2,0,0.3,0,0.5,0.8
		c0.1,0.2,0.1,0.4,0.2,0.6c0.1,0.3,0.3,0.5,0.6,0.6c0.8,0.3,2-0.3,2.2-0.4c0,0,0.5-0.3,0.8-0.1c0.6,0.3,2.5,0.1,3,0
		c0.2,0,0.3-0.2,0.3-0.4v-1.7c0-0.1,0-0.2-0.1-0.3c-0.1-0.1-0.2-0.1-0.3-0.1c0,0-1,0-1.6,0c-0.3,0-0.5-0.7-0.6-1.2
		c0-0.1-0.1-0.3-0.3-0.3c-0.1,0-0.3,0-0.4,0.1c-0.2,0.2-0.3,0.4-0.5,0.6c0-0.1-0.1-0.3-0.1-0.4c-0.3-0.7-0.4-1.2-0.8-1.3
		c-0.1-0.1-0.3,0-0.4,0c-0.6,0.3-0.3,0.8-0.2,1.1c0.1,0.2,0.2,0.4,0.2,0.6c0,0.2,0,0.3-0.1,0.4c-0.1,0.2-0.5,0.3-0.9,0.3
		c0-0.1,0-0.1,0-0.2c0.1-0.4,0.2-0.9-0.2-1.3c-0.2-0.2-0.4-0.3-0.6-0.3c-0.9-0.1-2.3,1.1-2.7,1.4c-0.5,0.5-0.8,0.4-1.2,0.4
		c-0.1,0-0.2,0-0.4,0c0,0,0,0,0,0c-0.2,0-0.4-0.8-0.3-1.4c0,0,0,0,0,0c0.1,0,0.4,0.1,0.7,0.3c0.1,0.1,0.3,0.1,0.4,0
		c0.6-0.5,0.5-0.7,0.5-0.8c0-0.1,0-0.2-0.1-0.2c0-0.2,0.1-0.6,0.2-0.9c0,0,0.1-0.1,0.1-0.1c0.9,0,2.2-2,2.5-2.5
		c0.1,0.1,0.2,0.1,0.2,0.2c0.3,0.3,0.7,0.7,1.2,0.7c1.1,0,1.9-1.7,2-2.5c0-0.4,0-0.7-0.2-0.9c-0.1-0.1-0.2-0.1-0.2-0.2
		c-0.1-1-0.3-1.6-0.6-1.8C56.9,17,56.8,17,56.7,17c-0.5,0.1-0.9,1.1-1,2.8c0,0.2-0.1,0.4-0.2,0.5c-0.2,0.1-0.6,0-1-0.1
		c-0.2-0.1-0.4-0.1-0.6-0.2c-0.1,0-0.2-0.1-0.3-0.3c-0.2-0.4-0.2-1.4,0.2-2.3c0.4-1.1,2.6-2,4.3-1.6c0.7,0.1,0.7,0.4,0.8,0.8
		c0,0.3,0,0.9,0.7,1C60.4,17.9,61,17.2,61.3,16.6z M68,31.3c0,0-0.1,0-0.1-0.1c-0.2-0.1-0.5-0.1-0.7-0.2c-0.4-0.1-1.1-0.3-1.4-0.5
		c0.4-0.1,1.4,0,2.2,0.1C68,30.8,68,31.1,68,31.3z M45.9,56.1c13,0,23.6-10.6,23.6-23.6c0-13-10.6-23.6-23.6-23.6
		S22.3,19.4,22.3,32.4C22.3,45.5,32.8,56.1,45.9,56.1z"/>
</g>
<g>
	<path class="st1" d="M31.9,37.6c0.3-0.2,0.6-0.4,0.8-0.6c0.9-0.8,1.4-1.6,1.8-2.3c0-0.1,0.1-0.1,0.1-0.1c0.2,0,0.6,0.3,1,0.6
		c0.3,0.2,0.6,0.4,0.9,0.6c0,0,0.1,0,0.1,0.1c0,0,1.8,0.3,2.8,0.8c0.3,0.2,0.7,0.5,1.1,0.8c0.9,0.7,2,1.4,3,1.7
		c0.2,0,0.4,0.1,0.4,0.3c0.1,0.2-0.1,0.6-0.3,1c-0.2,0.4-0.3,0.8-0.4,1.2c-0.2,1-1.1,2.6-1.7,3.3c-0.6,0.7-0.4,1.3-0.2,1.8
		c0,0.1,0.1,0.2,0.1,0.3c0,0,0,0,0,0c-0.2,0-0.5,0.1-0.7,0.5c-0.3,0.6-0.3,1.3-0.1,2.3c0.1,0.6,0.1,1.1,0,1.5c0,0.2,0,0.4,0,0.6
		c0,0,0,0.1,0,0.1c0,0-0.1,0-0.1,0c-0.3,0-0.8-0.3-1.4-1.1c-0.9-1.2-2.9-4.2-3.4-7.4c-0.3-2.1-1.6-2.8-2.8-3.4
		c-0.6-0.3-1.1-0.6-1.5-1c-0.2-0.2-0.4-0.5-0.4-0.7C31,38.1,31.5,37.8,31.9,37.6 M32.6,40.8c1.1,0.6,2.1,1.1,2.4,2.9
		c0.5,3.3,2.6,6.5,3.5,7.7c0.7,0.9,1.3,1.4,2,1.4c0.3,0,0.5-0.1,0.7-0.3c0.2-0.2,0.3-0.4,0.3-0.6c0-0.2,0-0.4,0-0.6
		c0-0.5,0.1-1,0-1.7c-0.2-1-0.2-1.4,0-1.8c0-0.1,0.1-0.1,0.3-0.1c0.2,0,0.4-0.1,0.6-0.3c0.1-0.2,0.1-0.4,0-0.6
		c0-0.1-0.1-0.3-0.1-0.4c-0.2-0.4-0.3-0.6,0.1-1c0.6-0.7,1.7-2.4,1.8-3.6c0-0.3,0.2-0.6,0.3-1c0.2-0.5,0.5-1.1,0.3-1.6
		c-0.1-0.3-0.4-0.5-0.9-0.7c-1-0.3-1.9-1-2.8-1.6c-0.4-0.3-0.8-0.6-1.2-0.8c-1-0.6-2.6-0.9-3-0.9c-0.3-0.2-0.5-0.4-0.8-0.5
		c-0.6-0.4-1-0.7-1.4-0.7c-0.2,0-0.5,0.1-0.7,0.4c-0.4,0.7-0.9,1.4-1.7,2.2c-0.2,0.2-0.4,0.3-0.7,0.5c-0.6,0.4-1.1,0.7-1.2,1.4
		c0,0.4,0.2,0.8,0.6,1.3C31.4,40.1,32,40.5,32.6,40.8z"/>
</g>
<g>
	<path class="st1" d="M41.4,16.8c-0.3,0.5-0.8,0.7-1.1,0.7c0,0,0,0-0.1,0c0-0.1,0.2-0.4,0.4-0.5c0.3-0.4,0.6-0.8,0.6-1.2
		c0-0.2,0.1-0.4,0.2-0.5C41.6,15.9,41.6,16.4,41.4,16.8 M41.8,14.6c-0.1-0.2-0.3-0.2-0.5-0.2c0,0-0.9,0.5-0.9,1.4
		c0,0.2-0.3,0.5-0.5,0.8c-0.3,0.4-0.9,1.1-0.3,1.6c0.1,0.1,0.3,0.2,0.6,0.2c0.5,0,1.3-0.4,1.7-1.1C42.3,16.7,42.5,15.8,41.8,14.6z"
		/>
</g>
<g>
	<path class="st1" d="M48,19.2c0.2-0.3,0.8-0.6,1.4-0.8c0,0.6-0.2,1.6-0.9,1.9c-0.2,0.1-0.3,0.1-0.4,0.1c-0.1,0-0.1,0-0.2-0.1
		C47.8,20.1,47.8,19.6,48,19.2 M48.2,21.2c0.2,0,0.4-0.1,0.7-0.2c1.4-0.7,1.3-3,1.3-3.1c0-0.1-0.1-0.2-0.2-0.3
		c-0.1-0.1-0.2-0.1-0.3-0.1c-0.3,0.1-2,0.5-2.4,1.3c-0.2,0.5-0.3,1.3,0,1.8C47.5,21,47.8,21.2,48.2,21.2z"/>
</g>
<g>
	<path d="M129.3,87.9l3.6,0.6c-0.7,2-1.8,3.5-3.2,4.5c-1.4,1-3.1,1.6-5,1.6c-2.2,0-3.8-0.6-5-1.9c-1.2-1.3-1.8-3.2-1.8-5.6
		c0-2,0.4-3.8,1.2-5.5s1.9-2.9,3.4-3.8c1.4-0.9,3-1.3,4.7-1.3c1.9,0,3.4,0.5,4.6,1.5s1.9,2.4,2.1,4.2l-3.5,0.3
		c-0.2-1-0.6-1.8-1.1-2.2c-0.5-0.5-1.3-0.7-2.2-0.7c-1,0-1.9,0.3-2.8,0.9c-0.9,0.6-1.6,1.6-2.1,2.8c-0.5,1.3-0.8,2.6-0.8,3.9
		c0,1.4,0.3,2.5,1,3.3c0.7,0.8,1.5,1.2,2.5,1.2c0.9,0,1.8-0.3,2.6-0.9C128.3,90,128.9,89.1,129.3,87.9z"/>
	<path d="M135.4,87.3c0-1,0.2-2.1,0.5-3.3c0.4-1.5,1-2.9,1.9-4c0.8-1.1,1.9-2,3.2-2.7c1.3-0.7,2.7-1,4.3-1c2.2,0,3.9,0.7,5.3,2
		c1.3,1.4,2,3.1,2,5.4c0,1.9-0.4,3.7-1.3,5.4c-0.9,1.7-2.1,3.1-3.5,4c-1.5,0.9-3.2,1.4-5.1,1.4c-1.6,0-3-0.4-4.1-1.1
		c-1.1-0.7-1.9-1.7-2.4-2.8C135.6,89.6,135.4,88.4,135.4,87.3z M139,87.3c0,1.2,0.4,2.2,1.1,3c0.7,0.8,1.7,1.2,2.9,1.2
		c1,0,1.9-0.3,2.8-1c0.9-0.6,1.6-1.6,2.2-2.9c0.6-1.3,0.9-2.6,0.9-3.8c0-1.4-0.4-2.5-1.1-3.3c-0.7-0.8-1.7-1.2-2.8-1.2
		c-1.8,0-3.2,0.8-4.3,2.5C139.5,83.5,139,85.3,139,87.3z"/>
	<path d="M163.5,94.2h-3.4l-0.6-14.7l-2.8,14.7h-3.3l3.7-17.6h5.2l0.5,12.3l6-12.3h5.2l-3.7,17.6H167l3.5-14.6L163.5,94.2z"/>
	<path d="M177.5,94.2h-3.6l3.7-17.6h7.1c1.3,0,2.3,0.2,3,0.5c0.7,0.3,1.3,0.8,1.8,1.5c0.4,0.7,0.6,1.5,0.6,2.5
		c0,0.9-0.2,1.8-0.5,2.6s-0.8,1.5-1.3,2c-0.5,0.5-1,0.9-1.6,1.1s-1.4,0.5-2.3,0.6c-0.6,0.1-1.6,0.1-3.2,0.1h-2.3L177.5,94.2z
		 M179.5,84.6h1.1c1.9,0,3.2-0.1,3.8-0.4c0.6-0.2,1.1-0.6,1.5-1.2c0.4-0.5,0.6-1.1,0.6-1.7c0-0.4-0.1-0.8-0.3-1s-0.5-0.5-0.8-0.6
		s-1.1-0.2-2.3-0.2h-2.6L179.5,84.6z"/>
</g>
<g>
	<path d="M199.9,90.3h-7l-2.1,3.9h-3.7l9.9-17.6h4l2.9,17.6h-3.4L199.9,90.3z M199.5,87.4l-1-7.1l-4.2,7.1H199.5z"/>
	<path d="M209.8,94.2h-3.6l3.7-17.6h7.8c1.3,0,2.4,0.1,3.1,0.4c0.7,0.3,1.4,0.8,1.8,1.5c0.5,0.7,0.7,1.6,0.7,2.7
		c0,1.5-0.4,2.7-1.3,3.7c-0.9,1-2.3,1.6-4.1,1.8c0.5,0.4,0.9,1,1.3,1.6c0.8,1.4,1.7,3.3,2.7,5.8H218c-0.3-1-0.9-2.5-1.8-4.6
		c-0.5-1.1-1-1.9-1.6-2.3c-0.3-0.2-0.9-0.3-1.8-0.3h-1.5L209.8,94.2z M211.9,84.3h1.9c1.9,0,3.2-0.1,3.9-0.3
		c0.6-0.2,1.1-0.6,1.5-1.1s0.5-1,0.5-1.6c0-0.6-0.3-1.1-0.8-1.4c-0.3-0.2-1-0.3-2.1-0.3h-4L211.9,84.3z"/>
	<path d="M223.9,94.2l3.7-17.6h13l-0.6,2.9h-9.4l-0.8,4h9.1l-0.6,2.9h-9.1l-1.1,4.8h10.2l-0.6,2.9H223.9z"/>
	<path d="M247,94.2l3.7-17.6h3.6l-1.6,7.5l8.1-7.5h4.8l-7.9,6.9l5.8,10.7h-4.1l-4.3-8.4l-3.4,3l-1.1,5.4H247z"/>
	<path d="M276.3,90.3h-7l-2.1,3.9h-3.7l9.9-17.6h4l2.9,17.6h-3.4L276.3,90.3z M275.9,87.4l-1-7.1l-4.2,7.1H275.9z"/>
	<path d="M286.3,94.2h-3.6l3.7-17.6h7.8c1.3,0,2.4,0.1,3.1,0.4c0.7,0.3,1.4,0.8,1.8,1.5c0.5,0.7,0.7,1.6,0.7,2.7
		c0,1.5-0.4,2.7-1.3,3.7c-0.9,1-2.3,1.6-4.1,1.8c0.5,0.4,0.9,1,1.3,1.6c0.8,1.4,1.7,3.3,2.7,5.8h-3.9c-0.3-1-0.9-2.5-1.8-4.6
		c-0.5-1.1-1-1.9-1.6-2.3c-0.3-0.2-0.9-0.3-1.8-0.3h-1.5L286.3,94.2z M288.3,84.3h1.9c1.9,0,3.2-0.1,3.9-0.3
		c0.6-0.2,1.1-0.6,1.5-1.1s0.5-1,0.5-1.6c0-0.6-0.3-1.1-0.8-1.4c-0.3-0.2-1-0.3-2.1-0.3h-4L288.3,84.3z"/>
	<path d="M301.4,87.3c0-1,0.2-2.1,0.5-3.3c0.4-1.5,1-2.9,1.9-4c0.8-1.1,1.9-2,3.2-2.7c1.3-0.7,2.7-1,4.3-1c2.2,0,3.9,0.7,5.3,2
		c1.3,1.4,2,3.1,2,5.4c0,1.9-0.4,3.7-1.3,5.4c-0.9,1.7-2.1,3.1-3.6,4c-1.5,0.9-3.2,1.4-5.1,1.4c-1.6,0-3-0.4-4.1-1.1
		c-1.1-0.7-1.9-1.7-2.4-2.8C301.7,89.6,301.4,88.4,301.4,87.3z M305,87.3c0,1.2,0.4,2.2,1.1,3c0.7,0.8,1.7,1.2,2.9,1.2
		c1,0,1.9-0.3,2.8-1c0.9-0.6,1.6-1.6,2.2-2.9c0.6-1.3,0.9-2.6,0.9-3.8c0-1.4-0.4-2.5-1.1-3.3c-0.7-0.8-1.7-1.2-2.8-1.2
		c-1.8,0-3.2,0.8-4.3,2.5C305.6,83.5,305,85.3,305,87.3z"/>
	<path d="M320.1,90.9h3.5l-0.6,2.7c-0.3,1.6-0.9,2.7-1.6,3.4c-0.7,0.7-1.7,1-2.8,1l0.3-1.6c0.6-0.1,1-0.4,1.3-0.7
		c0.3-0.3,0.5-0.8,0.7-1.5h-1.6L320.1,90.9z"/>
	<path d="M345.8,87.9l3.6,0.6c-0.7,2-1.8,3.5-3.2,4.5c-1.4,1-3.1,1.6-5,1.6c-2.2,0-3.8-0.6-5-1.9c-1.2-1.3-1.8-3.2-1.8-5.6
		c0-2,0.4-3.8,1.2-5.5s1.9-2.9,3.4-3.8s3-1.3,4.7-1.3c1.9,0,3.4,0.5,4.6,1.5c1.2,1,1.9,2.4,2.1,4.2l-3.5,0.3c-0.2-1-0.6-1.8-1.1-2.2
		c-0.5-0.5-1.3-0.7-2.2-0.7c-1,0-1.9,0.3-2.8,0.9c-0.9,0.6-1.6,1.6-2.1,2.8c-0.5,1.3-0.8,2.6-0.8,3.9c0,1.4,0.3,2.5,1,3.3
		c0.7,0.8,1.5,1.2,2.5,1.2c0.9,0,1.8-0.3,2.6-0.9S345.4,89.1,345.8,87.9z"/>
	<path d="M362.9,86.4h-6.8l-1.6,7.9h-3.6l3.7-17.6h3.6l-1.4,6.8h6.8l1.4-6.8h3.6l-3.7,17.6h-3.6L362.9,86.4z"/>
	<path d="M369.7,87.3c0-1,0.2-2.1,0.5-3.3c0.4-1.5,1-2.9,1.9-4c0.8-1.1,1.9-2,3.2-2.7c1.3-0.7,2.7-1,4.3-1c2.2,0,3.9,0.7,5.3,2
		c1.3,1.4,2,3.1,2,5.4c0,1.9-0.4,3.7-1.3,5.4c-0.9,1.7-2.1,3.1-3.6,4c-1.5,0.9-3.2,1.4-5.1,1.4c-1.6,0-3-0.4-4.1-1.1
		c-1.1-0.7-1.9-1.7-2.4-2.8C369.9,89.6,369.7,88.4,369.7,87.3z M373.2,87.3c0,1.2,0.4,2.2,1.1,3s1.7,1.2,2.9,1.2c1,0,1.9-0.3,2.8-1
		s1.6-1.6,2.2-2.9c0.6-1.3,0.9-2.6,0.9-3.8c0-1.4-0.4-2.5-1.1-3.3c-0.7-0.8-1.7-1.2-2.8-1.2c-1.8,0-3.2,0.8-4.3,2.5
		C373.8,83.5,373.2,85.3,373.2,87.3z"/>
	<path d="M388.8,87.3c0-1,0.2-2.1,0.5-3.3c0.4-1.5,1-2.9,1.9-4c0.8-1.1,1.9-2,3.2-2.7c1.3-0.7,2.7-1,4.3-1c2.2,0,3.9,0.7,5.3,2
		c1.3,1.4,2,3.1,2,5.4c0,1.9-0.4,3.7-1.3,5.4c-0.9,1.7-2.1,3.1-3.6,4c-1.5,0.9-3.2,1.4-5.1,1.4c-1.6,0-3-0.4-4.1-1.1
		c-1.1-0.7-1.9-1.7-2.4-2.8C389,89.6,388.8,88.4,388.8,87.3z M392.3,87.3c0,1.2,0.4,2.2,1.1,3s1.7,1.2,2.9,1.2c1,0,1.9-0.3,2.8-1
		s1.6-1.6,2.2-2.9c0.6-1.3,0.9-2.6,0.9-3.8c0-1.4-0.4-2.5-1.1-3.3c-0.7-0.8-1.7-1.2-2.8-1.2c-1.8,0-3.2,0.8-4.3,2.5
		C392.9,83.5,392.3,85.3,392.3,87.3z"/>
	<path d="M407.3,88.5l3.4-0.2c0,1.1,0.2,1.8,0.6,2.2c0.5,0.6,1.5,0.9,2.9,0.9c1.2,0,2-0.2,2.6-0.6s0.8-0.9,0.8-1.5
		c0-0.5-0.2-1-0.6-1.3c-0.3-0.3-1.1-0.7-2.5-1.3c-1.4-0.6-2.4-1.1-3-1.5c-0.6-0.4-1.1-0.9-1.5-1.5c-0.4-0.6-0.5-1.4-0.5-2.2
		c0-1.5,0.5-2.7,1.6-3.7c1.1-1,2.6-1.5,4.7-1.5c2.1,0,3.7,0.5,4.8,1.5c1.1,1,1.8,2.3,1.9,3.9l-3.5,0.2c-0.1-0.8-0.4-1.5-0.9-1.9
		c-0.5-0.4-1.3-0.7-2.3-0.7c-1,0-1.7,0.2-2.1,0.5c-0.4,0.4-0.6,0.8-0.6,1.3c0,0.5,0.2,0.9,0.6,1.2c0.4,0.3,1.3,0.8,2.6,1.4
		c2,0.9,3.3,1.6,3.9,2.1c0.8,0.8,1.2,1.8,1.2,3.1c0,1.6-0.6,2.9-1.8,4c-1.2,1.1-2.9,1.6-5.1,1.6c-1.5,0-2.8-0.3-3.9-0.8
		s-1.9-1.2-2.3-2.1C407.5,90.7,407.3,89.7,407.3,88.5z"/>
	<path d="M423.1,94.2l3.7-17.6h13l-0.6,2.9h-9.4l-0.8,4h9.1l-0.6,2.9h-9.1l-1.1,4.8h10.2l-0.6,2.9H423.1z"/>
	<path d="M446.3,94.2l3.7-17.6h3.6l-1.6,7.5l8.1-7.5h4.8l-7.9,6.9l5.8,10.7h-4.1l-4.3-8.4l-3.4,3l-1.1,5.4H446.3z"/>
	<path d="M475.6,90.3h-7l-2.1,3.9h-3.7l9.9-17.6h4l2.9,17.6h-3.4L475.6,90.3z M475.1,87.4l-1-7.1l-4.2,7.1H475.1z"/>
	<path d="M485.5,94.2h-3.6l3.7-17.6h7.8c1.3,0,2.4,0.1,3.1,0.4c0.7,0.3,1.4,0.8,1.8,1.5c0.5,0.7,0.7,1.6,0.7,2.7
		c0,1.5-0.4,2.7-1.3,3.7c-0.9,1-2.3,1.6-4.1,1.8c0.5,0.4,0.9,1,1.3,1.6c0.8,1.4,1.7,3.3,2.7,5.8h-3.9c-0.3-1-0.9-2.5-1.8-4.6
		c-0.5-1.1-1-1.9-1.6-2.3c-0.3-0.2-0.9-0.3-1.8-0.3H487L485.5,94.2z M487.6,84.3h1.9c1.9,0,3.2-0.1,3.9-0.3c0.6-0.2,1.1-0.6,1.5-1.1
		c0.4-0.5,0.5-1,0.5-1.6c0-0.6-0.3-1.1-0.8-1.4c-0.3-0.2-1-0.3-2.1-0.3h-4L487.6,84.3z"/>
	<path d="M500.7,87.3c0-1,0.2-2.1,0.5-3.3c0.4-1.5,1-2.9,1.9-4c0.8-1.1,1.9-2,3.2-2.7c1.3-0.7,2.7-1,4.3-1c2.2,0,3.9,0.7,5.3,2
		c1.3,1.4,2,3.1,2,5.4c0,1.9-0.4,3.7-1.3,5.4c-0.9,1.7-2.1,3.1-3.6,4c-1.5,0.9-3.2,1.4-5.1,1.4c-1.6,0-3-0.4-4.1-1.1
		c-1.1-0.7-1.9-1.7-2.4-2.8C500.9,89.6,500.7,88.4,500.7,87.3z M504.3,87.3c0,1.2,0.4,2.2,1.1,3s1.7,1.2,2.9,1.2c1,0,1.9-0.3,2.8-1
		s1.6-1.6,2.2-2.9c0.6-1.3,0.9-2.6,0.9-3.8c0-1.4-0.4-2.5-1.1-3.3c-0.7-0.8-1.7-1.2-2.8-1.2c-1.8,0-3.2,0.8-4.3,2.5
		C504.8,83.5,504.3,85.3,504.3,87.3z"/>
</g>
</svg>
