<svg width="93" height="93" viewBox="0 0 93 93" fill="none" xmlns="http://www.w3.org/2000/svg">
<path d="M92.963 74.8148V66.6314H84.2341V61.1759H81.3245V56.6296H84.2341V48.4463H62.4769V51.1741H81.5064V53.9018H25.0673V56.6296H78.5966V61.1759H19.222C17.9685 61.1759 16.9489 60.1563 16.9489 58.9028C16.9489 57.6493 17.9685 56.6296 19.222 56.6296H22.3395V53.9018H19.222C16.4646 53.9018 14.2211 56.1452 14.2211 58.9028C14.2211 61.6604 16.4646 63.9037 19.222 63.9037H81.5062V66.6314H34.4976V69.3592H90.2351V72.087H13.2209C8.95923 72.087 5.49223 75.554 5.49223 79.8157C5.49223 84.0774 8.95923 87.5444 13.2209 87.5444H77.4664V84.8166H13.2211C10.4635 84.8166 8.22019 82.5733 8.22019 79.8157C8.22019 77.0581 10.4635 74.8148 13.2211 74.8148H87.3256V79.3611H26.86V82.0888H87.3256V84.8166H80.1943V87.5444H90.2353V90.2722H13.2211C7.45532 90.2722 2.76464 85.5815 2.76464 79.8157C2.76464 74.0499 7.45532 69.3592 13.2211 69.3592H31.77V66.6314H19.2222C14.9605 66.6314 11.4935 63.1644 11.4935 58.9028C11.4935 54.6411 14.9605 51.1741 19.2222 51.1741H59.7491V48.4463H19.2222C13.4564 48.4463 8.76574 53.137 8.76574 58.9028C8.76574 61.9837 10.1058 64.7569 12.2329 66.6724C5.42331 67.1799 0.0368652 72.8786 0.0368652 79.8157C0.0368652 87.0856 5.95122 92.9999 13.2211 92.9999H92.963V84.8166H90.0534V74.8148H92.963Z" fill="white"/>
<path d="M21.4045 79.3611H24.1323V82.0889H21.4045V79.3611Z" fill="white"/>
<path d="M25.1323 40.5382L25.7397 40.9432C25.9765 41.101 31.7088 44.8093 46.4999 44.8093C61.291 44.8093 67.0233 41.101 67.2601 40.9432L67.8674 40.5382V17.575L76.0508 14.8473V27.724C73.9544 28.3194 72.4137 30.2497 72.4137 32.5343V39.3538H82.4156V32.5343C82.4156 30.2497 80.8749 28.3194 78.7785 27.724V13.938L83.5461 12.3488L69.2224 7.57412L68.3597 10.1619L74.9202 12.3486L46.4999 21.8222L18.0796 12.3488L46.4999 2.87544L65.772 9.29953L66.6347 6.71178L46.4999 0L9.45361 12.3488L25.1323 17.575V40.5382ZM79.6878 32.5343V36.626H75.1415V32.5343C75.1415 31.2808 76.1611 30.2612 77.4146 30.2612C78.6681 30.2612 79.6878 31.2808 79.6878 32.5343ZM27.8601 18.4843L46.4999 24.6976L65.1397 18.4843V29.1701H61.7754V31.8979H65.1397V34.6256H59.2295V37.3534H65.1397V38.9977C63.3819 39.8537 57.7265 42.0815 46.4999 42.0815C35.2647 42.0815 29.6091 39.8502 27.8601 38.9984V18.4843Z" fill="white"/>
<path d="M15.949 79.3611H18.6768V82.0889H15.949V79.3611Z" fill="white"/>
<path d="M53.7739 34.6256H56.5017V37.3534H53.7739V34.6256Z" fill="white"/>
</svg>
