<svg width="89" height="89" viewBox="0 0 89 89" fill="none" xmlns="http://www.w3.org/2000/svg">
<path d="M85.6753 77.668C84.5889 74.0506 81.6067 71.3839 77.8908 70.7087L68.5231 69.0042V68.2647C72.0263 66.2304 74.5917 62.76 75.3911 58.6572C77.9864 58.1204 79.9436 55.8178 79.9436 53.0654V38.9654C79.9436 34.9811 77.334 31.5064 73.5481 30.3757L72.8343 29.662C69.5138 26.3414 65.0998 24.5142 60.4045 24.5142C50.7128 24.5142 42.827 32.3986 42.827 42.0917V53.0654C42.827 55.8178 44.7842 58.1204 47.3795 58.6572C48.1803 62.76 50.7442 66.2318 54.2475 68.2647V69.0042L44.8798 70.7072C41.1639 71.3839 38.1817 74.0506 37.0953 77.668L33.7705 88.7545H89.0001L85.6753 77.668ZM75.6609 55.5237V50.6072C76.5103 51.1025 77.0885 52.0133 77.0885 53.0654C77.0885 54.1175 76.5103 55.0283 75.6609 55.5237ZM47.1097 55.5237C46.2603 55.0283 45.6821 54.1175 45.6821 53.0654C45.6821 52.0133 46.2603 51.1025 47.1097 50.6072V55.5237ZM47.1097 45.9276V47.5579C46.6014 47.6906 46.1246 47.8905 45.6821 48.1489V42.0917C45.6821 33.9746 52.286 27.3693 60.4045 27.3693C64.3361 27.3693 68.0349 28.9011 70.8158 31.682L72.0749 32.9425L72.4589 33.0367C75.1855 33.7177 77.0885 36.1559 77.0885 38.9654V48.1489C76.6459 47.8905 76.1691 47.6892 75.6609 47.5579V45.9276H71.1341C67.2654 45.9276 63.568 44.0803 61.2482 40.9868L60.1133 39.4707L57.2768 42.3087C54.9413 44.6428 51.8377 45.9276 48.5372 45.9276H47.1097ZM49.9648 55.9206V48.7171C53.4894 48.3902 56.76 46.8612 59.2953 44.3273L59.8507 43.772C62.7129 46.9312 66.8357 48.7827 71.1341 48.7827H72.8058V55.9206C72.8058 62.2175 67.6823 67.3411 61.3853 67.3411C55.0883 67.3411 49.9648 62.2175 49.9648 55.9206ZM57.2239 69.5738C58.5416 69.9763 59.9377 70.1962 61.3853 70.1962C62.8328 70.1962 64.229 69.9763 65.5466 69.5738L61.3853 72.6944L57.2239 69.5738ZM59.2125 74.633L56.2989 77.5453L54.4088 71.8764L55.3181 71.7123L59.2125 74.633ZM67.4524 71.7123L68.3604 71.8778L66.4703 77.5467L63.5566 74.6345L67.4524 71.7123ZM37.6078 85.8994L39.8319 78.4889C40.6071 75.905 42.737 73.9992 45.3923 73.5181L51.5736 72.3946L55.0526 82.833L61.3853 76.4974L67.7194 82.8315L71.1984 72.3932L77.3797 73.5167C80.0335 73.9992 82.1649 75.905 82.9401 78.4875L85.1628 85.8994H37.6078Z" fill="white"/>
<path d="M37.1166 23.3278V14.2799L33.2422 13.2477C33.128 12.9494 33.0038 12.651 32.8682 12.3526L34.8796 8.87796L28.4842 2.48247L25.0095 4.49391C24.7125 4.35829 24.4142 4.23409 24.1172 4.11989L23.0808 0.245483H14.0358L13.0008 4.12132C12.7025 4.23552 12.4055 4.35972 12.1086 4.49534L8.6339 2.48247L2.23842 8.87796L4.24986 12.3526C4.11281 12.651 3.98861 12.9494 3.87441 13.2477L0 14.2799V23.3278L3.87441 24.3599C3.98861 24.6582 4.11281 24.9566 4.24986 25.255L2.23842 28.7297L8.6339 35.1251L12.1086 33.1137C12.4055 33.2493 12.7039 33.3735 13.0008 33.4877L14.0358 37.3621H23.0808L24.1158 33.4863C24.4142 33.3721 24.7111 33.2479 25.008 33.1123L28.4827 35.1237L34.8782 28.7282L32.8668 25.2535C33.0024 24.9552 33.128 24.6568 33.2408 24.3585L37.1166 23.3278ZM31.3093 28.26L28.0145 31.5562L25.1094 29.8731L24.4156 30.2286C23.7789 30.5555 23.1308 30.8267 22.4913 31.0337L21.7503 31.2721L20.8881 34.507H16.2285L15.3663 31.2721L14.6254 31.0337C13.9858 30.8253 13.3377 30.5555 12.701 30.2286L12.0072 29.8731L9.10214 31.5562L5.80733 28.26L7.489 25.3563L7.13353 24.6625C6.80377 24.0215 6.53396 23.3734 6.32981 22.7382L6.09141 21.9958L2.85513 21.1336V16.474L6.09141 15.6118L6.32981 14.8694C6.53396 14.2356 6.80377 13.5875 7.13353 12.9451L7.489 12.2513L5.80733 9.34763L9.10214 6.05138L12.0072 7.73448L12.701 7.37902C13.3377 7.0521 13.9858 6.78087 14.6254 6.57387L15.3663 6.33547L16.2285 3.10061H20.8881L21.7503 6.33547L22.4913 6.57387C23.1308 6.7823 23.7789 7.0521 24.4156 7.37902L25.1094 7.73448L28.0145 6.05138L31.3093 9.34763L29.6276 12.2513L29.9831 12.9451C30.3129 13.5861 30.5827 14.2342 30.7868 14.8694L31.0252 15.6118L34.2615 16.474V21.1336L31.0252 21.9958L30.7868 22.7382C30.5827 23.372 30.3129 24.0201 29.9831 24.6625L29.6276 25.3563L31.3093 28.26Z" fill="white"/>
<path d="M26.5784 24.7668C27.8689 23.0337 28.5513 20.9723 28.5513 18.8039C28.5513 13.2949 24.0688 8.81091 18.5584 8.81091C13.048 8.81091 8.56543 13.2949 8.56543 18.8039C8.56543 24.3128 13.048 28.7968 18.5584 28.7968C20.7854 28.7968 22.891 28.0816 24.6498 26.7268L22.9082 24.4656C21.6519 25.432 20.1487 25.9417 18.5584 25.9417C14.6226 25.9417 11.4206 22.7396 11.4206 18.8039C11.4206 14.8681 14.6226 11.666 18.5584 11.666C22.4942 11.666 25.6962 14.8681 25.6962 18.8039C25.6962 20.3528 25.2094 21.8246 24.2886 23.0608L26.5784 24.7668Z" fill="white"/>
<path d="M86.0721 17.7945L84.2262 19.6404V14.5211C84.2262 6.64953 77.8222 0.245483 69.9506 0.245483H61.3853V3.10061H69.9506C76.2476 3.10061 81.3711 8.22413 81.3711 14.5211V19.6404L79.5253 17.7945L77.5067 19.8131L82.7987 25.1051L88.0907 19.8131L86.0721 17.7945Z" fill="white"/>
<path d="M7.13775 74.4788V69.3596L8.98359 71.2054L11.0022 69.1869L5.71019 63.8949L0.418213 69.1869L2.43679 71.2054L4.28263 69.3596V74.4788C4.28263 82.3504 10.6867 88.7545 18.5583 88.7545V85.8993C12.2613 85.8993 7.13775 80.7758 7.13775 74.4788Z" fill="white"/>
<path d="M37.1166 43.0724H0V45.9275H37.1166V43.0724Z" fill="white"/>
<path d="M37.1166 54.4929H0V57.348H37.1166V54.4929Z" fill="white"/>
<path d="M17.1308 48.7827H0V51.6378H17.1308V48.7827Z" fill="white"/>
<path d="M28.1943 48.7827H21.4134H19.9858V51.6378H21.4134H28.1943H37.1166V48.7827H28.1943Z" fill="white"/>
<path d="M58.5302 0.245483H55.675V3.10061H58.5302V0.245483Z" fill="white"/>
<path d="M52.8197 0.245483H49.9646V3.10061H52.8197V0.245483Z" fill="white"/>
<path d="M24.2685 85.8993H21.4133V88.7544H24.2685V85.8993Z" fill="white"/>
<path d="M29.9789 85.8993H27.1238V88.7544H29.9789V85.8993Z" fill="white"/>
</svg>
