<svg width="92" height="92" viewBox="0 0 92 92" fill="none" xmlns="http://www.w3.org/2000/svg">
<g clip-path="url(#clip0)">
<path d="M90.4674 4.01439e-08C90.4672 4.01439e-08 90.4669 4.01439e-08 90.4667 4.01439e-08H1.53333C0.686742 -0.000191627 0.000191667 0.685975 0 1.53257C0 1.53276 0 1.53314 0 1.53333V32.2H3.06667V3.06667H88.9333V36.8H35.2667V39.8667H90.4667C91.3133 39.8669 91.9998 39.1807 92 38.3341C92 38.3339 92 38.3335 92 38.3333V1.53333C92.0002 0.686742 91.314 0.000191707 90.4674 4.01439e-08Z" fill="white"/>
<path d="M81.2668 7.66663H50.6001V10.7333H81.2668V7.66663Z" fill="white"/>
<path d="M85.8666 16.8667H55.2V19.9334H85.8666V16.8667Z" fill="white"/>
<path d="M79.7333 26.0667H49.0667V29.1333H79.7333V26.0667Z" fill="white"/>
<path d="M48.9444 13.22C47.8946 10.6967 44.9982 9.50223 42.4751 10.552C42.4319 10.57 42.389 10.5884 42.3465 10.6076L29.9134 17.0571C30.4037 16.0409 30.6611 14.9281 30.6667 13.8C30.6667 9.56586 27.2341 6.1333 23 6.1333C18.7659 6.1333 15.3333 9.56586 15.3333 13.8C15.3391 15.4642 15.8917 17.0805 16.906 18.4H16.8421C12.4898 18.4291 8.60449 21.1349 7.0679 25.2072L2.97467 39.3156C2.00023 41.8467 3.26217 44.6888 5.79351 45.6632C6.94772 46.1075 8.2271 46.1 9.37614 45.6421C10.6963 45.1102 11.7237 44.0361 12.1965 42.6937L13.8 37.5906V59.7823C12.4806 58.7682 10.8642 58.2156 9.2 58.2097C4.97222 58.2034 1.53966 61.6256 1.53333 65.8536C1.53027 67.9241 2.36593 69.9075 3.85001 71.3515C1.49481 72.5548 0.00920004 74.9729 4.01439e-08 77.6175V90.4666C-0.000191627 91.3132 0.685975 91.9998 1.53257 92C1.53276 92 1.53314 92 1.53333 92H16.8667C17.7133 92.0002 18.3998 91.314 18.4 90.4674C18.4 90.4672 18.4 90.4668 18.4 90.4666V77.6175C18.3925 75.4442 17.3828 73.396 15.6638 72.0666H27.2698C25.5505 73.396 24.5408 75.4442 24.5335 77.6175V90.4666C24.5333 91.3132 25.2195 91.9998 26.0661 92C26.0663 92 26.0667 92 26.0669 92H41.4002C42.2468 92.0002 42.9333 91.314 42.9335 90.4674C42.9335 90.4672 42.9335 90.4668 42.9335 90.4666V77.6175C42.9243 74.9729 41.4387 72.5548 39.0835 71.3515C42.1109 68.3966 42.1697 63.5469 39.2148 60.5195C37.3951 58.6551 34.7526 57.8434 32.2002 58.3648V26.9979L46.2764 19.6891C48.7995 18.6395 49.9939 15.7431 48.9444 13.22ZM23 9.19997C25.5405 9.19997 27.6 11.2594 27.6 13.8C27.6 16.3405 25.5405 18.4 23 18.4C20.4606 18.3973 18.4027 16.3394 18.4 13.8C18.4 11.2594 20.4595 9.19997 23 9.19997ZM9.2 61.2764C11.7405 61.2764 13.8 63.3358 13.8 65.8764C13.8 68.4169 11.7405 70.4764 9.2 70.4764C6.65946 70.4764 4.6 68.4169 4.6 65.8764C4.60268 63.337 6.66061 61.2792 9.2 61.2764ZM15.3333 88.9333H3.06667V77.6175C3.06973 75.3997 4.86699 73.6026 7.08496 73.6H11.315C13.5328 73.6026 15.3303 75.3997 15.3333 77.6175V88.9333ZM39.8667 77.6175V88.9333H27.6V77.6175C27.6031 75.3997 29.4003 73.6026 31.6183 73.6H35.8484C38.0663 73.6026 39.8636 75.3997 39.8667 77.6175ZM33.7333 61.2764C36.2727 61.2791 38.3307 63.337 38.3333 65.8764C38.3333 68.4169 36.2739 70.4764 33.7333 70.4764C31.1928 70.4764 29.1333 68.4169 29.1333 65.8764C29.1333 63.3358 31.1928 61.2764 33.7333 61.2764ZM46.1386 15.778C45.9333 16.3047 45.5118 16.7181 44.9811 16.913L29.9608 24.7054C29.4525 24.9691 29.1333 25.4941 29.1333 26.0666V59.7823C26.2612 61.906 25.2663 65.7495 26.7475 69H24.5333V42.9333H21.4667V69H16.1859C16.6221 68.0359 16.8519 66.9913 16.8609 65.9333H16.8667V27.6C16.8665 26.753 16.1797 26.0666 15.3329 26.0668C14.6635 26.067 14.0714 26.5015 13.8705 27.1404L9.292 41.7099C8.94508 42.6667 7.88804 43.1612 6.93124 42.8141C6.86416 42.7897 6.79842 42.7616 6.7344 42.7296C5.84986 42.2724 5.47438 41.2052 5.87803 40.2948L9.97107 26.1864C11.0749 23.3517 13.7998 21.4799 16.8419 21.4666H27.6989C27.9446 21.467 28.1869 21.4078 28.405 21.2945L43.6448 13.3839C44.5591 13.0024 45.6128 13.3927 46.0579 14.2778C46.2938 14.7443 46.3232 15.2886 46.1386 15.778Z" fill="white"/>
<path d="M63.6166 71.3515C66.6494 68.3968 66.7126 63.5428 63.7579 60.5101C60.8032 57.4773 55.9492 57.4141 52.9165 60.3688C49.8837 63.3235 49.8205 68.1775 52.7752 71.2102C52.8218 71.258 52.8689 71.3051 52.9167 71.3515C50.5617 72.5548 49.0759 74.9729 49.0667 77.6175V90.4666C49.0665 91.3132 49.7526 91.9998 50.5992 91.9999C50.5994 91.9999 50.5998 91.9999 50.6 91.9999H65.9333C66.7799 92.0001 67.4665 91.314 67.4667 90.4674C67.4667 90.4672 67.4667 90.4668 67.4667 90.4666V77.6175C67.4575 74.9729 65.9718 72.5548 63.6166 71.3515ZM58.2667 61.2764C60.8072 61.2764 62.8667 63.3358 62.8667 65.8764C62.8667 68.4169 60.8072 70.4764 58.2667 70.4764C55.7261 70.4764 53.6667 68.4169 53.6667 65.8764C53.6693 63.337 55.7273 61.2792 58.2667 61.2764ZM64.4 88.9333H52.1333V77.6175C52.1364 75.3997 53.9336 73.6026 56.1516 73.5999H60.3817C62.5995 73.6026 64.3969 75.3997 64.4 77.6175V88.9333Z" fill="white"/>
<path d="M88.1501 71.3515C91.1828 68.3968 91.2461 63.5428 88.2913 60.5101C85.3366 57.4773 80.4827 57.4141 77.4499 60.3688C74.4172 63.3235 74.3539 68.1775 77.3087 71.2102C77.3552 71.258 77.4024 71.3051 77.4501 71.3515C75.0951 72.5548 73.6093 74.9729 73.6001 77.6175V90.4666C73.5999 91.3132 74.2861 91.9998 75.1327 91.9999C75.1329 91.9999 75.1332 91.9999 75.1334 91.9999H90.4668C91.3134 92.0001 91.9999 91.314 92.0001 90.4674C92.0001 90.4672 92.0001 90.4668 92.0001 90.4666V77.6175C91.9909 74.9729 90.5053 72.5548 88.1501 71.3515ZM82.8001 61.2764C85.3406 61.2764 87.4001 63.3358 87.4001 65.8764C87.4001 68.4169 85.3406 70.4764 82.8001 70.4764C80.2596 70.4764 78.2001 68.4169 78.2001 65.8764C78.2028 63.337 80.2607 61.2792 82.8001 61.2764ZM88.9334 88.9333H76.6668V77.6175C76.6698 75.3997 78.4671 73.6026 80.6851 73.5999H84.9151C87.1329 73.6026 88.9304 75.3997 88.9334 77.6175V88.9333Z" fill="white"/>
</g>
<defs>
<clipPath id="clip0">
<rect width="92" height="92" fill="white"/>
</clipPath>
</defs>
</svg>
