<svg xmlns="http://www.w3.org/2000/svg" width="17.263" height="17.263" viewBox="0 0 17.263 17.263">
  <path id="Icon_material-call" data-name="Icon material-call" d="M7.771,11.538a13.687,13.687,0,0,0,5.954,5.954L15.713,15.5a.9.9,0,0,1,.922-.217,10.306,10.306,0,0,0,3.226.515.906.906,0,0,1,.9.9V19.86a.906.906,0,0,1-.9.9A15.358,15.358,0,0,1,4.5,5.4a.906.906,0,0,1,.9-.9H8.566a.906.906,0,0,1,.9.9,10.264,10.264,0,0,0,.515,3.226.907.907,0,0,1-.226.922L7.771,11.538Z" transform="translate(-4 -4)" fill="none" stroke="#fff" stroke-width="1"/>
</svg>
