<svg xmlns="http://www.w3.org/2000/svg" width="46.618" height="36.517" viewBox="0 0 46.618 36.517">
  <g id="interview" transform="translate(0 4.332)">
    <path id="Path_14130" data-name="Path 14130" d="M384.662,4.992A4.662,4.662,0,1,0,380,.33,4.666,4.666,0,0,0,384.662,4.992Zm0-7.77A3.108,3.108,0,1,1,381.554.33,3.108,3.108,0,0,1,384.662-2.778Zm0,0" transform="translate(-350.476 0)" fill="#2d2d2d"/>
    <path id="Path_14131" data-name="Path 14131" d="M104.662,44.992A4.662,4.662,0,1,0,100,40.33,4.662,4.662,0,0,0,104.662,44.992Zm0-7.77a3.108,3.108,0,1,1-3.108,3.108A3.108,3.108,0,0,1,104.662,37.222Zm0,0" transform="translate(-92.23 -36.892)" fill="#2d2d2d"/>
    <path id="Path_14132" data-name="Path 14132" d="M44.287,148.1V142.66a6.993,6.993,0,0,0-3.057-5.776,6.915,6.915,0,0,0-3.936-1.216H31.078a7,7,0,0,0-6.993,6.993V148.1H22.532v-2.331a6.993,6.993,0,0,0-3.057-5.776,6.915,6.915,0,0,0-3.936-1.216H9.324a7,7,0,0,0-6.993,6.993V148.1H0v13.208H1.554V149.653h.777v2.331a5.447,5.447,0,0,0,3.885,5.206v4.118H7.77V144.214h9.324v17.093h1.554v-4.118a4.978,4.978,0,0,0,.708-.265,5.445,5.445,0,0,0,3.177-4.94v-2.331H45.064v11.654h1.554V148.1Zm-23.309,3.885a3.89,3.89,0,0,1-2.275,3.532c-.018.009-.037.015-.056.024V142.66H6.216v12.879a3.885,3.885,0,0,1-2.331-3.555v-6.216a5.445,5.445,0,0,1,5.439-5.439h6.216a5.378,5.378,0,0,1,3.059.944,5.444,5.444,0,0,1,2.38,4.494Zm4.662-9.324a5.445,5.445,0,0,1,5.439-5.439h6.216a5.378,5.378,0,0,1,3.059.944,5.444,5.444,0,0,1,2.38,4.494V148.1H39.625v-6.216H38.071V148.1H30.3v-6.216H28.748V148.1H25.64Zm0,0" transform="translate(0 -129.122)" fill="#2d2d2d"/>
  </g>
</svg>
