<?xml version="1.0" encoding="utf-8"?>
<!-- Generator: Adobe Illustrator 25.4.1, SVG Export Plug-In . SVG Version: 6.00 Build 0)  -->
<svg version="1.1" id="Layer_1" xmlns="http://www.w3.org/2000/svg" xmlns:xlink="http://www.w3.org/1999/xlink" x="0px" y="0px"
	 width="74px" height="66px" viewBox="0 0 74 66" style="enable-background:new 0 0 74 66;" xml:space="preserve">
<style type="text/css">
	.st0{fill:#F37131;}
	.st1{clip-path:url(#SVGID_00000070097968292236445170000010450549906775704984_);}
	.st2{fill:none;stroke:#F37131;stroke-width:4;stroke-linecap:round;stroke-linejoin:round;}
</style>
<g id="g561" transform="translate(0 684.915)">
	<g id="g563" transform="translate(0 -682.665)">
		<g>
			<defs>
				<rect id="SVGID_1_" x="6.2" y="-2.5" width="61.5" height="66.5"/>
			</defs>
			<clipPath id="SVGID_00000044886553873297834920000014810596669476022184_">
				<use xlink:href="#SVGID_1_"  style="overflow:visible;"/>
			</clipPath>
			<g id="g565" transform="translate(0 0)" style="clip-path:url(#SVGID_00000044886553873297834920000014810596669476022184_);">
				<g id="g571" transform="translate(12.732 60.299)">
					<path id="path573" class="st2" d="M6.3-0.3h36"/>
				</g>
				<g id="g575" transform="translate(21.141 13.213)">
					<path id="path577" class="st2" d="M15.9,19c-5.3,0-9.6-4.3-9.6-9.6c0-5.3,4.3-9.6,9.6-9.6c5.3,0,9.6,4.3,9.6,9.6
						C25.5,14.7,21.2,19,15.9,19z"/>
				</g>
				<g id="g579" transform="translate(40.359 43.963)">
					<path id="path581" class="st0" d="M8.7,1c0,0.7-0.5,1.2-1.2,1.2l0,0C6.8,2.2,6.3,1.6,6.3,1c0,0,0,0,0,0c0-0.7,0.5-1.2,1.2-1.2
						l0,0C8.1-0.2,8.7,0.3,8.7,1C8.7,1,8.7,1,8.7,1"/>
				</g>
				<g id="g583" transform="translate(9.129 1.201)">
					<path id="path585" class="st2" d="M35.5,48.1l-7.6,10.8L10.6,34.3c-2.8-3.7-4.3-8.3-4.3-13c0-11.9,9.7-21.6,21.6-21.6
						s21.6,9.7,21.6,21.6c0,4.7-1.5,9.2-4.3,13l-3.5,4.9"/>
				</g>
			</g>
		</g>
	</g>
</g>
</svg>
