<svg xmlns="http://www.w3.org/2000/svg" width="42.135" height="36.517" viewBox="0 0 42.135 36.517">
  <g id="negotiation_x2C__interview_x2C__conversation_x2C__communication_1_" transform="translate(-1 -5)">
    <g id="XMLID_1217_" transform="translate(1 5)">
      <g id="XMLID_2315_" transform="translate(22.816)">
        <g id="person_x2C__on_the_right_x2C__right_4_" transform="translate(9.487)">
          <g id="XMLID_3519_">
            <g id="XMLID_3520_">
              <g id="XMLID_3521_">
                <g id="Group_25573" data-name="Group 25573">
                  <path id="Path_14133" data-name="Path 14133" d="M28.214,13.427a4.214,4.214,0,1,1,4.214-4.214A4.219,4.219,0,0,1,28.214,13.427Zm0-7.023a2.809,2.809,0,1,0,2.809,2.809A2.812,2.812,0,0,0,28.214,6.4Z" transform="translate(-24 -5)"/>
                </g>
              </g>
            </g>
          </g>
        </g>
        <path id="Path_14134" data-name="Path 14134" d="M17.949,35.854a.668.668,0,0,1-.157-.018.7.7,0,0,1-.528-.841l2.528-11.045a2.808,2.808,0,0,1,2.728-2.14h5.618V19.7a.7.7,0,1,1,1.4,0v2.809a.7.7,0,0,1-.7.7h-6.32a1.4,1.4,0,0,0-1.362,1.063L18.633,35.308A.7.7,0,0,1,17.949,35.854Z" transform="translate(-17.245 0.663)"/>
        <path id="Path_14135" data-name="Path 14135" d="M20.317,38.686a.72.72,0,0,1-.272-.055.7.7,0,0,1-.375-.92l3.541-8.427a.707.707,0,0,1,.649-.43h7.483a3.516,3.516,0,0,0,3.511-3.511V15.511A2.109,2.109,0,0,0,32.747,13.4a4.648,4.648,0,0,0-3.69,1.838l-4.1,3.605a.7.7,0,0,1-.462.174H20.107a.7.7,0,0,0,0,1.4h4.916a.7.7,0,0,0,.462-.173.7.7,0,0,1,.927,1.056,2.113,2.113,0,0,1-1.389.521H20.107a2.107,2.107,0,1,1,0-4.214H24.23l3.809-3.334A5.93,5.93,0,0,1,32.747,12a3.516,3.516,0,0,1,3.511,3.511v9.832a4.921,4.921,0,0,1-4.916,4.916H24.326l-3.361,8a.7.7,0,0,1-.647.43Z" transform="translate(-16.94 -2.168)"/>
        <g id="XMLID_3367_" transform="translate(1.06 14.046)">
          <path id="Path_14136" data-name="Path 14136" d="M25.023,20.618H20.107a2.107,2.107,0,0,1,0-4.214h4.388a.7.7,0,0,1,0,1.4H20.107a.7.7,0,0,0,0,1.4h4.916a.7.7,0,0,0,.462-.173l5.449-3.909a.7.7,0,1,1,.817,1.14l-5.4,3.867A2.039,2.039,0,0,1,25.023,20.618Z" transform="translate(-18 -15)"/>
        </g>
      </g>
      <g id="XMLID_1228_">
        <g id="person_x2C__on_the_right_x2C__right_2_" transform="translate(1.405)">
          <g id="XMLID_1234_">
            <g id="XMLID_1235_">
              <g id="XMLID_1236_">
                <g id="Group_25574" data-name="Group 25574">
                  <path id="Path_14137" data-name="Path 14137" d="M6.214,13.427a4.214,4.214,0,1,1,4.214-4.214A4.219,4.219,0,0,1,6.214,13.427Zm0-7.023A2.809,2.809,0,1,0,9.023,9.214,2.812,2.812,0,0,0,6.214,6.4Z" transform="translate(-2 -5)"/>
                </g>
              </g>
            </g>
          </g>
        </g>
        <path id="Path_14138" data-name="Path 14138" d="M17.593,35.854a.7.7,0,0,1-.684-.546L14.381,24.263a1.4,1.4,0,0,0-1.358-1.049H6.7a.7.7,0,0,1-.7-.7V19.7a.7.7,0,0,1,1.4,0v2.107h5.618a2.805,2.805,0,0,1,2.725,2.126L18.278,35a.7.7,0,0,1-.528.841.739.739,0,0,1-.157.017Z" transform="translate(1.023 0.663)"/>
        <path id="Path_14139" data-name="Path 14139" d="M16.941,38.686a.7.7,0,0,1-.647-.43l-3.361-8H5.916A4.921,4.921,0,0,1,1,25.343V15.511A3.516,3.516,0,0,1,4.511,12a6.044,6.044,0,0,1,4.8,2.383l3.715,3.235h4.125a2.107,2.107,0,0,1,0,4.214H12.236a2.11,2.11,0,0,1-1.388-.52.7.7,0,0,1,.924-1.059.7.7,0,0,0,.463.174h4.916a.7.7,0,0,0,0-1.4H12.764a.7.7,0,0,1-.462-.174L8.294,15.341A4.771,4.771,0,0,0,4.511,13.4,2.109,2.109,0,0,0,2.4,15.511v9.832a3.516,3.516,0,0,0,3.511,3.511H13.4a.7.7,0,0,1,.647.43l3.541,8.427a.7.7,0,0,1-.646.975Z" transform="translate(-1 -2.168)"/>
        <g id="XMLID_1229_" transform="translate(4.213 14.044)">
          <path id="Path_14140" data-name="Path 14140" d="M15.939,20.618H11.023a2.11,2.11,0,0,1-1.388-.52L4.292,16.273a.7.7,0,0,1,.819-1.142L10.506,19a.774.774,0,0,0,.517.216h4.916a.7.7,0,0,0,0-1.4H11.551a.7.7,0,1,1,0-1.4h4.388a2.107,2.107,0,0,1,0,4.214Z" transform="translate(-3.999 -14.999)"/>
        </g>
      </g>
    </g>
    <g id="Group_25575" data-name="Group 25575" transform="translate(14.343 23.259)">
      <path id="Path_14141" data-name="Path 14141" d="M10.5,18H25.95v1.4H10.5Z" transform="translate(-10.5 -18)"/>
    </g>
  </g>
</svg>
