<svg xmlns="http://www.w3.org/2000/svg" width="54.759" height="62.454" viewBox="0 0 54.759 62.454">
  <g id="businessman" transform="translate(-30.556)">
    <g id="Group_185" data-name="Group 185" transform="translate(30.556)">
      <g id="Group_184" data-name="Group 184" transform="translate(0)">
        <path id="Path_5173" data-name="Path 5173" d="M83.095,300.867a11.055,11.055,0,0,0-7.426-8.69L67,289.288V288H64.987v1.89l-1.5,6.015-4.069-4.882H56.456L52.388,295.9l-1.5-6.015V288H48.87v1.288L40.2,292.177a11.058,11.058,0,0,0-7.426,8.69L30.556,314.19H85.315ZM53.033,312.176H41.925l.9-8.965-2-.2-.917,9.167H32.935L34.765,301.2a9.047,9.047,0,0,1,6.076-7.111l8.323-2.775,2.232,8.928,2.272-2.726,1.2,1.8Zm7.77,0H55.068l1.9-13.334-1.96-2.94,2.387-2.865h1.071l2.387,2.865-1.96,2.94Zm15.168,0-.917-9.167-2,.2.9,8.965H62.839L61,299.318l1.2-1.8,2.272,2.726,2.232-8.928,8.323,2.775a9.047,9.047,0,0,1,6.076,7.111l1.829,10.977Z" transform="translate(-30.556 -251.737)" fill="#ff2a2a"/>
        <path id="Path_5174" data-name="Path 5174" d="M116.479,27.141a11.012,11.012,0,0,0,2.8,4.726l3.929,3.929a5,5,0,0,0,3.561,1.475h4.721A5,5,0,0,0,135.05,35.8l3.929-3.929a11.018,11.018,0,0,0,2.8-4.726,5,5,0,0,0,2.428-9.009h.031V12.088a5.045,5.045,0,0,0-4.285-4.98A10.781,10.781,0,0,0,129.854,0h-.725a15.127,15.127,0,0,0-15.11,15.11v3.022h.031a5,5,0,0,0,2.429,9.009Zm23.73-3.11a9.007,9.007,0,0,1-2.655,6.412l-3.929,3.929a3.042,3.042,0,0,1-2.137.884h-4.721a3.044,3.044,0,0,1-2.137-.884L120.7,30.443a9.006,9.006,0,0,1-2.655-6.411V19.139H122a18.073,18.073,0,0,0,11.937-4.458l.308.514a8.168,8.168,0,0,0,5.959,3.877Zm4.029-1.871a3.016,3.016,0,0,1-2.062,2.851c.028-.323.047-.65.047-.979V19.324A3.018,3.018,0,0,1,144.238,22.161Zm-28.2-7.051a13.11,13.11,0,0,1,13.1-13.1h.725a8.753,8.753,0,0,1,8.38,6.321l.209.73h.76a3.026,3.026,0,0,1,3.022,3.022v5.138a5.032,5.032,0,0,0-1.007-.1,6.14,6.14,0,0,1-5.239-2.967l-1.613-2.688-.913.913a16.081,16.081,0,0,1-11.446,4.741h-4.965a5.032,5.032,0,0,0-1.007.1Zm0,4.215v4.708c0,.329.019.656.047.98a3,3,0,0,1-.047-5.688Z" transform="translate(-101.749)" fill="#ff2a2a"/>
      </g>
    </g>
  </g>
</svg>
