<?xml version="1.0" encoding="utf-8"?>
<!-- Generator: Adobe Illustrator 16.0.0, SVG Export Plug-In . SVG Version: 6.00 Build 0)  -->
<!DOCTYPE svg PUBLIC "-//W3C//DTD SVG 1.1//EN" "http://www.w3.org/Graphics/SVG/1.1/DTD/svg11.dtd">
<svg version="1.1" id="Layer_1" xmlns="http://www.w3.org/2000/svg" xmlns:xlink="http://www.w3.org/1999/xlink" x="0px" y="0px"
	 width="185px" height="44px" viewBox="0 0 185 44" enable-background="new 0 0 185 44" xml:space="preserve">
<g>
	<defs>
		<rect id="SVGID_1_" width="184.695" height="44"/>
	</defs>
	<clipPath id="SVGID_2_">
		<use xlink:href="#SVGID_1_"  overflow="visible"/>
	</clipPath>
	<path clip-path="url(#SVGID_2_)" fill="#EC1C24" d="M147.449,42.45c0,0.293-0.104,0.547-0.308,0.76
		c-0.206,0.213-0.464,0.318-0.772,0.318c-0.293,0-0.543-0.105-0.749-0.318c-0.205-0.213-0.309-0.467-0.309-0.76
		c0-0.294,0.104-0.544,0.309-0.75c0.206-0.205,0.456-0.308,0.749-0.308c0.295,0,0.547,0.103,0.76,0.308
		C147.343,41.906,147.449,42.156,147.449,42.45 M158.2,42.537c-1.514,0.75-3.019,1.124-4.516,1.124c-1.116,0-1.995-0.36-2.634-1.08
		c-0.639-0.719-0.958-1.724-0.958-3.017c0-2.072,0.447-3.79,1.344-5.156c0.852-1.307,1.873-1.961,3.063-1.961
		c1.894,0,2.93,1.213,3.107,3.636l-1.521,0.33c0-2.057-0.507-3.085-1.52-3.085c-0.838,0-1.564,0.53-2.182,1.587
		c-0.66,1.145-0.99,2.577-0.99,4.297c0,2.276,0.946,3.414,2.841,3.414c1.219,0,2.445-0.309,3.68-0.926L158.2,42.537z
		 M168.488,37.913c0,1.659-0.413,3.03-1.244,4.117c-0.831,1.089-1.848,1.631-3.052,1.631c-1.176,0-2.154-0.521-2.94-1.563
		c-0.787-1.042-1.18-2.386-1.18-4.03c0-1.662,0.408-3.013,1.224-4.057c0.814-1.042,1.84-1.563,3.073-1.563
		c1.203,0,2.191,0.495,2.964,1.488C168.103,34.927,168.488,36.251,168.488,37.913 M167.233,37.868c0-1.292-0.273-2.339-0.816-3.141
		c-0.542-0.799-1.241-1.201-2.093-1.201c-0.836,0-1.546,0.426-2.125,1.278c-0.581,0.851-0.87,1.947-0.87,3.283
		c0,1.322,0.275,2.4,0.825,3.239c0.552,0.836,1.253,1.254,2.104,1.254s1.56-0.441,2.127-1.319
		C166.949,40.378,167.233,39.247,167.233,37.868 M184.351,35.224l-0.329,8.063h-1.103l0.11-7.313c0-0.634-0.044-1.059-0.132-1.278
		c-0.147-0.428-0.478-0.641-0.992-0.641c-0.779,0-1.49,0.456-2.137,1.367c-0.72,0.983-1.108,2.218-1.168,3.701l-0.153,3.746h-0.992
		l0.065-5.662c0-1.044-0.079-1.787-0.241-2.236c-0.161-0.448-0.449-0.673-0.859-0.673c-0.882,0-1.66,0.757-2.335,2.269
		c-0.75,1.676-1.124,3.812-1.124,6.412v0.484h-1.08l0.065-3.349c0.017-0.748,0.023-1.196,0.023-1.344
		c0-2.231-0.133-4.199-0.397-5.905l1.234-0.285c0.207,1.278,0.323,2.636,0.353,4.075h0.132c0.97-2.467,2.195-3.701,3.68-3.701
		c1.16,0,1.74,0.954,1.74,2.865c0.294-0.939,0.778-1.683,1.454-2.228c0.676-0.542,1.418-0.813,2.226-0.813
		c1.308,0,1.96,0.747,1.96,2.245V35.224z"/>
	<path clip-path="url(#SVGID_2_)" fill="none" stroke="#EC1C24" stroke-width="0.567" stroke-miterlimit="22.926" d="M147.449,42.45
		c0,0.293-0.104,0.547-0.308,0.76c-0.206,0.213-0.464,0.318-0.772,0.318c-0.293,0-0.543-0.105-0.749-0.318
		c-0.205-0.213-0.309-0.467-0.309-0.76c0-0.294,0.104-0.544,0.309-0.75c0.206-0.205,0.456-0.308,0.749-0.308
		c0.295,0,0.547,0.103,0.76,0.308C147.343,41.906,147.449,42.156,147.449,42.45z M158.2,42.537c-1.514,0.75-3.019,1.124-4.516,1.124
		c-1.116,0-1.995-0.36-2.634-1.08c-0.639-0.719-0.958-1.724-0.958-3.017c0-2.072,0.447-3.79,1.344-5.156
		c0.852-1.307,1.873-1.961,3.063-1.961c1.894,0,2.93,1.213,3.107,3.636l-1.521,0.33c0-2.057-0.507-3.085-1.52-3.085
		c-0.838,0-1.564,0.53-2.182,1.587c-0.66,1.145-0.99,2.577-0.99,4.297c0,2.276,0.946,3.414,2.841,3.414
		c1.219,0,2.445-0.309,3.68-0.926L158.2,42.537z M168.488,37.913c0,1.659-0.413,3.03-1.244,4.117
		c-0.831,1.089-1.848,1.631-3.052,1.631c-1.176,0-2.154-0.521-2.94-1.563c-0.787-1.042-1.18-2.386-1.18-4.03
		c0-1.662,0.408-3.013,1.224-4.057c0.814-1.042,1.84-1.563,3.073-1.563c1.203,0,2.191,0.495,2.964,1.488
		C168.103,34.927,168.488,36.251,168.488,37.913z M167.233,37.868c0-1.292-0.273-2.339-0.816-3.141
		c-0.542-0.799-1.241-1.201-2.093-1.201c-0.836,0-1.546,0.426-2.125,1.278c-0.581,0.851-0.87,1.947-0.87,3.283
		c0,1.322,0.275,2.4,0.825,3.239c0.552,0.836,1.253,1.254,2.104,1.254s1.56-0.441,2.127-1.319
		C166.949,40.378,167.233,39.247,167.233,37.868z M184.351,35.224l-0.329,8.063h-1.103l0.11-7.313c0-0.634-0.044-1.059-0.132-1.278
		c-0.147-0.428-0.478-0.641-0.992-0.641c-0.779,0-1.49,0.456-2.137,1.367c-0.72,0.983-1.108,2.218-1.168,3.701l-0.153,3.746h-0.992
		l0.065-5.662c0-1.044-0.079-1.787-0.241-2.236c-0.161-0.448-0.449-0.673-0.859-0.673c-0.882,0-1.66,0.757-2.335,2.269
		c-0.75,1.676-1.124,3.812-1.124,6.412v0.484h-1.08l0.065-3.349c0.017-0.748,0.023-1.196,0.023-1.344
		c0-2.231-0.133-4.199-0.397-5.905l1.234-0.285c0.207,1.278,0.323,2.636,0.353,4.075h0.132c0.97-2.467,2.195-3.701,3.68-3.701
		c1.16,0,1.74,0.954,1.74,2.865c0.294-0.939,0.778-1.683,1.454-2.228c0.676-0.542,1.418-0.813,2.226-0.813
		c1.308,0,1.96,0.747,1.96,2.245V35.224z"/>
	<path clip-path="url(#SVGID_2_)" fill="#EC1C24" d="M18.101,26.072c-2.905,1.602-6.105,2.4-9.601,2.4
		c-5.44,0-8.161-2.893-8.161-8.678c0-4.702,1.01-8.58,3.028-11.632c1.969-2.954,4.382-4.431,7.238-4.431
		c3.864,0,6.129,2.634,6.793,7.902l-2.953,0.591c-0.197-4.505-1.551-6.757-4.063-6.757c-1.944,0-3.654,1.243-5.132,3.729
		c-1.576,2.707-2.363,6.105-2.363,10.192c0,2.46,0.517,4.222,1.551,5.28c1.033,1.059,2.721,1.588,5.06,1.588
		c3.224,0,5.882-0.677,7.976-2.03L18.101,26.072z"/>
	<path clip-path="url(#SVGID_2_)" fill="none" stroke="#EC1C24" stroke-width="0.567" stroke-miterlimit="22.926" d="M18.101,26.072
		c-2.905,1.602-6.105,2.4-9.601,2.4c-5.44,0-8.161-2.893-8.161-8.678c0-4.702,1.01-8.58,3.028-11.632
		c1.969-2.954,4.382-4.431,7.238-4.431c3.864,0,6.129,2.634,6.793,7.902l-2.953,0.591c-0.197-4.505-1.551-6.757-4.063-6.757
		c-1.944,0-3.654,1.243-5.132,3.729c-1.576,2.707-2.363,6.105-2.363,10.192c0,2.46,0.517,4.222,1.551,5.28
		c1.033,1.059,2.721,1.588,5.06,1.588c3.224,0,5.882-0.677,7.976-2.03L18.101,26.072z"/>
	<path clip-path="url(#SVGID_2_)" fill="#EC1C24" d="M35.902,18.835c0,2.781-0.695,5.084-2.087,6.905
		c-1.39,1.821-3.095,2.732-5.113,2.732c-1.969,0-3.613-0.874-4.93-2.622c-1.317-1.748-1.975-4-1.975-6.757
		c0-2.782,0.683-5.047,2.049-6.794c1.367-1.748,3.083-2.623,5.152-2.623c2.019,0,3.674,0.832,4.966,2.493
		C35.256,13.832,35.902,16.054,35.902,18.835 M33.798,18.761c0-2.166-0.456-3.92-1.366-5.262c-0.911-1.342-2.081-2.012-3.508-2.012
		c-1.403,0-2.591,0.714-3.564,2.141c-0.971,1.428-1.458,3.262-1.458,5.502c0,2.216,0.461,4.025,1.385,5.427
		c0.923,1.404,2.098,2.105,3.526,2.105c1.428,0,2.617-0.738,3.564-2.216C33.324,22.971,33.798,21.075,33.798,18.761"/>
	<path clip-path="url(#SVGID_2_)" fill="none" stroke="#EC1C24" stroke-width="0.567" stroke-miterlimit="22.926" d="M35.902,18.835
		c0,2.781-0.695,5.084-2.087,6.905c-1.39,1.821-3.095,2.732-5.113,2.732c-1.969,0-3.613-0.874-4.93-2.622
		c-1.317-1.748-1.975-4-1.975-6.757c0-2.782,0.683-5.047,2.049-6.794c1.367-1.748,3.083-2.623,5.152-2.623
		c2.019,0,3.674,0.832,4.966,2.493C35.256,13.832,35.902,16.054,35.902,18.835z M33.798,18.761c0-2.166-0.456-3.92-1.366-5.262
		c-0.911-1.342-2.081-2.012-3.508-2.012c-1.403,0-2.591,0.714-3.564,2.141c-0.971,1.428-1.458,3.262-1.458,5.502
		c0,2.216,0.461,4.025,1.385,5.427c0.923,1.404,2.098,2.105,3.526,2.105c1.428,0,2.617-0.738,3.564-2.216
		C33.324,22.971,33.798,21.075,33.798,18.761z"/>
	<path clip-path="url(#SVGID_2_)" fill="#EC1C24" d="M45.91,27.55l-1.476,0.995c-1.576-0.638-2.646-1.906-3.214-3.803
		c-0.468-1.599-0.701-4.16-0.701-7.68c0-4.307,0.196-9.65,0.591-16.026l2.326-0.59c-0.64,7.311-0.959,13.269-0.959,17.873
		c0,2.732,0.172,4.665,0.517,5.798C43.46,25.618,44.434,26.762,45.91,27.55"/>
	<path clip-path="url(#SVGID_2_)" fill="none" stroke="#EC1C24" stroke-width="0.567" stroke-miterlimit="22.926" d="M45.91,27.55
		l-1.476,0.995c-1.576-0.638-2.646-1.906-3.214-3.803c-0.468-1.599-0.701-4.16-0.701-7.68c0-4.307,0.196-9.65,0.591-16.026
		l2.326-0.59c-0.64,7.311-0.959,13.269-0.959,17.873c0,2.732,0.172,4.665,0.517,5.798C43.46,25.618,44.434,26.762,45.91,27.55z"/>
	<path clip-path="url(#SVGID_2_)" fill="#EC1C24" d="M54.071,27.55l-1.477,0.995c-1.576-0.638-2.646-1.906-3.213-3.803
		c-0.467-1.599-0.701-4.16-0.701-7.68c0-4.307,0.196-9.65,0.591-16.026l2.326-0.59c-0.64,7.311-0.959,13.269-0.959,17.873
		c0,2.732,0.172,4.665,0.517,5.798C51.621,25.618,52.594,26.762,54.071,27.55"/>
	<path clip-path="url(#SVGID_2_)" fill="none" stroke="#EC1C24" stroke-width="0.567" stroke-miterlimit="22.926" d="M54.071,27.55
		l-1.477,0.995c-1.576-0.638-2.646-1.906-3.213-3.803c-0.467-1.599-0.701-4.16-0.701-7.68c0-4.307,0.196-9.65,0.591-16.026
		l2.326-0.59c-0.64,7.311-0.959,13.269-0.959,17.873c0,2.732,0.172,4.665,0.517,5.798C51.621,25.618,52.594,26.762,54.071,27.55z"/>
	<path clip-path="url(#SVGID_2_)" fill="#EC1C24" d="M69.728,26.589c-2.584,1.258-5.133,1.884-7.644,1.884
		c-1.846,0-3.304-0.61-4.375-1.828c-1.071-1.219-1.607-2.898-1.607-5.04c0-3.496,0.752-6.389,2.253-8.677
		c1.452-2.167,3.212-3.251,5.28-3.251c1.675,0,3.021,0.77,4.043,2.309c1.021,1.537,1.606,3.735,1.753,6.591H58.539
		c-0.147,0.96-0.221,1.846-0.221,2.659c0,3.669,1.576,5.502,4.727,5.502c1.969,0,4.037-0.517,6.204-1.552L69.728,26.589z
		 M66.736,17.173c-0.069-1.132-0.206-2.104-0.409-2.913c-0.511-2.046-1.445-3.069-2.804-3.069c-1.058,0-2.018,0.505-2.879,1.514
		c-0.936,1.083-1.503,2.474-1.699,4.173l0.147,0.295H66.736z"/>
	<path clip-path="url(#SVGID_2_)" fill="none" stroke="#EC1C24" stroke-width="0.567" stroke-miterlimit="22.926" d="M69.728,26.589
		c-2.584,1.258-5.133,1.884-7.644,1.884c-1.846,0-3.304-0.61-4.375-1.828c-1.071-1.219-1.607-2.898-1.607-5.04
		c0-3.496,0.752-6.389,2.253-8.677c1.452-2.167,3.212-3.251,5.28-3.251c1.675,0,3.021,0.77,4.043,2.309
		c1.021,1.537,1.606,3.735,1.753,6.591H58.539c-0.147,0.96-0.221,1.846-0.221,2.659c0,3.669,1.576,5.502,4.727,5.502
		c1.969,0,4.037-0.517,6.204-1.552L69.728,26.589z M66.736,17.173c-0.069-1.132-0.206-2.104-0.409-2.913
		c-0.511-2.046-1.445-3.069-2.804-3.069c-1.058,0-2.018,0.505-2.879,1.514c-0.936,1.083-1.503,2.474-1.699,4.173l0.147,0.295H66.736
		z"/>
	<path clip-path="url(#SVGID_2_)" fill="#EC1C24" d="M87.203,26.221c0,3.766-0.479,6.448-1.44,8.049
		c-1.034,1.699-2.795,2.55-5.281,2.55c-1.944,0-3.79-0.703-5.538-2.107l1.402-1.847c1.601,1.307,3.237,1.958,4.912,1.958
		c1.501,0,2.523-0.554,3.064-1.661c0.542-1.107,0.812-3.014,0.812-5.724v-5.427H84.95c-1.28,4.331-3.458,6.499-6.536,6.499
		c-1.501,0-2.678-0.64-3.527-1.921c-0.849-1.279-1.273-3.114-1.273-5.502c0-3.569,0.695-6.363,2.085-8.382
		c1.391-2.018,3.257-3.028,5.595-3.028c2.19,0,3.729,0.789,4.615,2.364c0.862,1.476,1.293,3.976,1.293,7.496V26.221z M84.692,15.992
		c0-1.404-0.339-2.529-1.016-3.379c-0.677-0.849-1.533-1.274-2.566-1.274c-1.452,0-2.708,0.8-3.766,2.4
		c-1.157,1.748-1.736,3.927-1.736,6.536c0,4.357,1.059,6.537,3.175,6.537c1.207,0,2.338-0.751,3.397-2.252
		C83.854,22.196,84.692,19.339,84.692,15.992"/>
	<path clip-path="url(#SVGID_2_)" fill="none" stroke="#EC1C24" stroke-width="0.567" stroke-miterlimit="22.926" d="M87.203,26.221
		c0,3.766-0.479,6.448-1.44,8.049c-1.034,1.699-2.795,2.55-5.281,2.55c-1.944,0-3.79-0.703-5.538-2.107l1.402-1.847
		c1.601,1.307,3.237,1.958,4.912,1.958c1.501,0,2.523-0.554,3.064-1.661c0.542-1.107,0.812-3.014,0.812-5.724v-5.427H84.95
		c-1.28,4.331-3.458,6.499-6.536,6.499c-1.501,0-2.678-0.64-3.527-1.921c-0.849-1.279-1.273-3.114-1.273-5.502
		c0-3.569,0.695-6.363,2.085-8.382c1.391-2.018,3.257-3.028,5.595-3.028c2.19,0,3.729,0.789,4.615,2.364
		c0.862,1.476,1.293,3.976,1.293,7.496V26.221z M84.692,15.992c0-1.404-0.339-2.529-1.016-3.379
		c-0.677-0.849-1.533-1.274-2.566-1.274c-1.452,0-2.708,0.8-3.766,2.4c-1.157,1.748-1.736,3.927-1.736,6.536
		c0,4.357,1.059,6.537,3.175,6.537c1.207,0,2.338-0.751,3.397-2.252C83.854,22.196,84.692,19.339,84.692,15.992z"/>
	<path clip-path="url(#SVGID_2_)" fill="#EC1C24" d="M105.255,26.589c-2.584,1.258-5.132,1.884-7.644,1.884
		c-1.846,0-3.304-0.61-4.375-1.828c-1.07-1.219-1.606-2.898-1.606-5.04c0-3.496,0.751-6.389,2.253-8.677
		c1.452-2.167,3.213-3.251,5.28-3.251c1.675,0,3.021,0.77,4.043,2.309c1.022,1.537,1.606,3.735,1.754,6.591H94.066
		c-0.146,0.96-0.221,1.846-0.221,2.659c0,3.669,1.575,5.502,4.727,5.502c1.97,0,4.036-0.517,6.204-1.552L105.255,26.589z
		 M102.264,17.173c-0.245-3.987-1.316-5.982-3.211-5.982c-1.059,0-2.02,0.505-2.88,1.514c-0.937,1.083-1.503,2.474-1.699,4.173
		l0.147,0.295H102.264z"/>
	<path clip-path="url(#SVGID_2_)" fill="none" stroke="#EC1C24" stroke-width="0.567" stroke-miterlimit="22.926" d="
		M105.255,26.589c-2.584,1.258-5.132,1.884-7.644,1.884c-1.846,0-3.304-0.61-4.375-1.828c-1.07-1.219-1.606-2.898-1.606-5.04
		c0-3.496,0.751-6.389,2.253-8.677c1.452-2.167,3.213-3.251,5.28-3.251c1.675,0,3.021,0.77,4.043,2.309
		c1.022,1.537,1.606,3.735,1.754,6.591H94.066c-0.146,0.96-0.221,1.846-0.221,2.659c0,3.669,1.575,5.502,4.727,5.502
		c1.97,0,4.036-0.517,6.204-1.552L105.255,26.589z M102.264,17.173c-0.245-3.987-1.316-5.982-3.211-5.982
		c-1.059,0-2.02,0.505-2.88,1.514c-0.937,1.083-1.503,2.474-1.699,4.173l0.147,0.295H102.264z"/>
	<path clip-path="url(#SVGID_2_)" fill="#EC1C24" d="M122.131,10.822l-1.44,2.437c-1.255-0.935-2.622-1.403-4.099-1.403
		c-2.24,0-3.36,0.849-3.36,2.548c0,0.813,0.357,1.502,1.071,2.067c0.492,0.419,1.452,0.961,2.88,1.625
		c1.624,0.764,2.781,1.49,3.472,2.179c0.787,0.812,1.181,1.811,1.181,2.991c0,1.527-0.678,2.758-2.031,3.693
		c-1.402,1.009-3.272,1.514-5.612,1.514c-2.167,0-4.024-0.32-5.576-0.96l0.998-2.548c1.354,0.861,2.732,1.292,4.136,1.292
		c1.156,0,2.066-0.233,2.732-0.701c0.664-0.467,0.997-1.107,0.997-1.921c0-0.713-0.333-1.329-0.997-1.846
		c-0.395-0.32-1.28-0.812-2.66-1.478c-3.348-1.625-5.021-3.544-5.021-5.76c0-1.476,0.684-2.665,2.051-3.563
		c1.365-0.898,3.255-1.348,5.667-1.348C118.709,9.64,120.58,10.034,122.131,10.822"/>
	<path clip-path="url(#SVGID_2_)" fill="none" stroke="#EC1C24" stroke-width="0.567" stroke-miterlimit="22.926" d="
		M122.131,10.822l-1.44,2.437c-1.255-0.935-2.622-1.403-4.099-1.403c-2.24,0-3.36,0.849-3.36,2.548c0,0.813,0.357,1.502,1.071,2.067
		c0.492,0.419,1.452,0.961,2.88,1.625c1.624,0.764,2.781,1.49,3.472,2.179c0.787,0.812,1.181,1.811,1.181,2.991
		c0,1.527-0.678,2.758-2.031,3.693c-1.402,1.009-3.272,1.514-5.612,1.514c-2.167,0-4.024-0.32-5.576-0.96l0.998-2.548
		c1.354,0.861,2.732,1.292,4.136,1.292c1.156,0,2.066-0.233,2.732-0.701c0.664-0.467,0.997-1.107,0.997-1.921
		c0-0.713-0.333-1.329-0.997-1.846c-0.395-0.32-1.28-0.812-2.66-1.478c-3.348-1.625-5.021-3.544-5.021-5.76
		c0-1.476,0.684-2.665,2.051-3.563c1.365-0.898,3.255-1.348,5.667-1.348C118.709,9.64,120.58,10.034,122.131,10.822z"/>
	<path clip-path="url(#SVGID_2_)" fill="#EC1C24" d="M140.269,28.325l-4.467,0.479l-0.224-2.917h-0.073
		c-1.306,1.725-3.188,2.585-5.65,2.585c-1.501,0-2.676-0.369-3.524-1.107c-0.851-0.739-1.275-1.747-1.275-3.028
		c0-1.305,0.571-2.394,1.717-3.268c1.145-0.874,2.616-1.312,4.413-1.312c1.452,0,2.855,0.297,4.209,0.887v-1.181
		c0-2.979-0.122-4.948-0.369-5.909c-0.345-1.181-1.071-1.772-2.179-1.772c-1.969,0-3.31,1.883-4.023,5.649l-3.509-0.96
		c1.379-4.53,4.173-6.793,8.382-6.793c1.526,0,2.721,0.258,3.582,0.775s1.526,1.391,1.994,2.621
		c0.271,0.689,0.405,2.498,0.405,5.428C139.677,22.541,139.874,25.815,140.269,28.325 M135.394,22.896
		c-0.633-0.812-1.605-1.217-2.916-1.217c-2.142,0-3.214,0.836-3.214,2.511c0,0.565,0.229,1.057,0.678,1.477
		c0.449,0.418,1.003,0.627,1.655,0.627c0.979,0,1.84-0.332,2.592-0.997C134.944,24.633,135.345,23.832,135.394,22.896"/>
	<path clip-path="url(#SVGID_2_)" fill="none" stroke="#EC1C24" stroke-width="0.567" stroke-miterlimit="22.926" d="
		M140.269,28.325l-4.467,0.479l-0.224-2.917h-0.073c-1.306,1.725-3.188,2.585-5.65,2.585c-1.501,0-2.676-0.369-3.524-1.107
		c-0.851-0.739-1.275-1.747-1.275-3.028c0-1.305,0.571-2.394,1.717-3.268c1.145-0.874,2.616-1.312,4.413-1.312
		c1.452,0,2.855,0.297,4.209,0.887v-1.181c0-2.979-0.122-4.948-0.369-5.909c-0.345-1.181-1.071-1.772-2.179-1.772
		c-1.969,0-3.31,1.883-4.023,5.649l-3.509-0.96c1.379-4.53,4.173-6.793,8.382-6.793c1.526,0,2.721,0.258,3.582,0.775
		s1.526,1.391,1.994,2.621c0.271,0.689,0.405,2.498,0.405,5.428C139.677,22.541,139.874,25.815,140.269,28.325z M135.394,22.896
		c-0.633-0.812-1.605-1.217-2.916-1.217c-2.142,0-3.214,0.836-3.214,2.511c0,0.565,0.229,1.057,0.678,1.477
		c0.449,0.418,1.003,0.627,1.655,0.627c0.979,0,1.84-0.332,2.592-0.997C134.944,24.633,135.345,23.832,135.394,22.896z"/>
	<path clip-path="url(#SVGID_2_)" fill="#EC1C24" d="M156.585,27.144c-1.846,0.888-3.668,1.329-5.465,1.329
		s-3.078-0.579-3.841-1.735c-0.763-1.157-1.145-3.078-1.145-5.761c0-1.723,0.099-3.828,0.295-6.315h-3.84l0.295-2.067h3.73
		l0.517-5.316l4.579-0.519l-0.665,5.835h5.097l-0.224,2.067h-5.058c-0.222,2.29-0.333,4.358-0.333,6.205
		c0,1.846,0.173,3.138,0.518,3.878c0.344,0.812,0.984,1.217,1.92,1.217c0.887,0,1.883-0.27,2.991-0.812L156.585,27.144z"/>
	<path clip-path="url(#SVGID_2_)" fill="none" stroke="#EC1C24" stroke-width="0.567" stroke-miterlimit="22.926" d="
		M156.585,27.144c-1.846,0.888-3.668,1.329-5.465,1.329s-3.078-0.579-3.841-1.735c-0.763-1.157-1.145-3.078-1.145-5.761
		c0-1.723,0.099-3.828,0.295-6.315h-3.84l0.295-2.067h3.73l0.517-5.316l4.579-0.519l-0.665,5.835h5.097l-0.224,2.067h-5.058
		c-0.222,2.29-0.333,4.358-0.333,6.205c0,1.846,0.173,3.138,0.518,3.878c0.344,0.812,0.984,1.217,1.92,1.217
		c0.887,0,1.883-0.27,2.991-0.812L156.585,27.144z"/>
	<path clip-path="url(#SVGID_2_)" fill="#EC1C24" d="M174.681,14.514l-0.48,13.183l-4.432,0.259l-0.148-0.297l0.592-9.674
		c0.025-0.394,0.037-0.726,0.037-0.997c0-2.018-0.664-3.028-1.994-3.028c-1.231,0-2.351,0.862-3.359,2.584
		c-1.084,1.847-1.662,4.124-1.736,6.833l-0.148,4.91h-4.172V1.036l4.652-0.591l-0.48,15.583h0.223
		c1.648-3.889,4.099-5.833,7.349-5.833c2.731,0,4.099,1.354,4.099,4.062V14.514z"/>
	<path clip-path="url(#SVGID_2_)" fill="none" stroke="#EC1C24" stroke-width="0.567" stroke-miterlimit="22.926" d="
		M174.681,14.514l-0.48,13.183l-4.432,0.259l-0.148-0.297l0.592-9.674c0.025-0.394,0.037-0.726,0.037-0.997
		c0-2.018-0.664-3.028-1.994-3.028c-1.231,0-2.351,0.862-3.359,2.584c-1.084,1.847-1.662,4.124-1.736,6.833l-0.148,4.91h-4.172
		V1.036l4.652-0.591l-0.48,15.583h0.223c1.648-3.889,4.099-5.833,7.349-5.833c2.731,0,4.099,1.354,4.099,4.062V14.514z"/>
	<path clip-path="url(#SVGID_2_)" fill="#EC1C24" d="M183.803,2.846c0,0.493-0.179,0.917-0.535,1.274
		c-0.357,0.357-0.782,0.536-1.273,0.536c-0.519,0-0.948-0.172-1.292-0.518c-0.346-0.345-0.519-0.775-0.519-1.292
		s0.18-0.948,0.536-1.292c0.356-0.344,0.781-0.516,1.274-0.516c0.491,0,0.916,0.178,1.273,0.534
		C183.624,1.929,183.803,2.354,183.803,2.846 M184.356,9.751v18.315h-4.136l-0.554-17.466L184.356,9.751z"/>
	<path clip-path="url(#SVGID_2_)" fill="none" stroke="#EC1C24" stroke-width="0.567" stroke-miterlimit="22.926" d="M183.803,2.846
		c0,0.493-0.179,0.917-0.535,1.274c-0.357,0.357-0.782,0.536-1.273,0.536c-0.519,0-0.948-0.172-1.292-0.518
		c-0.346-0.345-0.519-0.775-0.519-1.292s0.18-0.948,0.536-1.292c0.356-0.344,0.781-0.516,1.274-0.516
		c0.491,0,0.916,0.178,1.273,0.534C183.624,1.929,183.803,2.354,183.803,2.846z M184.356,9.751v18.315h-4.136l-0.554-17.466
		L184.356,9.751z"/>
</g>
</svg>
