<?xml version="1.0" encoding="UTF-8"?>
<svg id="a" data-name="Layer_1" xmlns="http://www.w3.org/2000/svg" width="199.35" height="44" viewBox="0 0 199.35 44">
  <g>
    <path d="M36.86,4.06c-.66.17-1.22.33-1.24.34-.06.07-.35,5.56-.46,8.76-.26,7.73,0,11.3.94,13.19.53,1.06,1.35,1.87,2.33,2.32l.31.15.85-.58c.61-.42.83-.59.77-.62-.6-.35-1.15-.73-1.42-.99-1.39-1.35-1.69-2.66-1.68-7.36,0-3.7.21-7.84.67-13.37.09-1.1.16-2.04.15-2.07-.01-.05-.34.02-1.23.24Z" fill="#ec1e24" fill-rule="evenodd"/>
    <path d="M44,4.06c-.68.17-1.25.32-1.26.33-.03.04-.25,3.91-.35,6.27-.17,4.03-.22,9.13-.11,10.89.11,1.67.31,3.02.58,3.85.48,1.54,1.36,2.62,2.62,3.22l.4.19.86-.58.86-.58-.42-.24c-.94-.55-1.57-1.17-1.98-1.95-.4-.76-.55-1.35-.71-2.7-.09-.79-.09-6.41,0-8.25.16-3.15.38-6.46.63-9.31.07-.79.12-1.44.12-1.44,0,0-.56.14-1.24.3Z" fill="#ec1e24" fill-rule="evenodd"/>
    <path d="M143.44,4.08l-2.19.28v24.19h4.13v-.21c0-1.09.18-5.29.25-5.82.3-2.39,1.13-4.38,2.35-5.6.69-.69,1.33-.95,2.01-.82.72.13,1.07.67,1.19,1.82.05.5.02,1.13-.22,5.02-.15,2.45-.27,4.56-.27,4.7,0,.33.15.64.29.64.39-.01,4.1-.26,4.13-.28.05-.05.46-12.15.41-12.54-.14-1.28-.73-2.25-1.63-2.7-.69-.34-1.11-.42-2.17-.42-1.03,0-1.48.08-2.26.37-1.48.55-2.84,1.87-3.77,3.63l-.27.5v-.5c0-.55.3-10.53.35-11.78.03-.73.03-.77-.07-.77-.05,0-1.08.13-2.28.28Z" fill="#ec1e24" fill-rule="evenodd"/>
    <path d="M161.05,4.47c-.43.18-.86.6-1.02,1-.24.66-.1,1.46.35,1.91.73.75,1.87.75,2.61.02.4-.4.53-.77.5-1.36-.03-.54-.21-.9-.61-1.25-.53-.46-1.21-.58-1.84-.32Z" fill="#ec1e24" fill-rule="evenodd"/>
    <path d="M8.19,6.75c-2.18.31-4.09,1.69-5.61,4.06-.84,1.3-1.51,2.87-1.93,4.54-.73,2.88-.85,6.51-.29,8.58.35,1.29.99,2.38,1.86,3.16,1.47,1.31,3.81,1.83,6.92,1.54,1.93-.18,3.64-.62,5.36-1.37.45-.19,1.4-.67,1.51-.75.02-.01-.64-2.03-.67-2.07,0,0-.17.08-.36.2-1.88,1.14-3.88,1.64-6.61,1.64-1.03,0-1.32-.01-1.86-.11-2.1-.39-3.15-1.41-3.61-3.49-.3-1.42-.21-4.28.21-6.41.67-3.42,2.37-6.25,4.31-7.22,1.05-.52,2.27-.5,3.08.05,1.04.71,1.64,2.35,1.81,4.9.02.33.06.59.09.59.02,0,.7-.14,1.5-.3s1.47-.3,1.49-.3c.05,0-.15-1.25-.31-1.93-.4-1.66-1-2.9-1.86-3.79-1.22-1.26-3-1.81-5-1.52Z" fill="#ec1e24" fill-rule="evenodd"/>
    <path d="M133.26,9.54c-1.18.14-2.17.27-2.18.28-.01.02-.11.94-.22,2.06s-.21,2.14-.23,2.26l-.03.23h-1.62c-.93,0-1.62.02-1.62.05,0,.06-.26,1.87-.29,2.08l-.03.15h3.38l-.04.53c-.12,1.69-.15,2.21-.17,3.74-.03,1.14-.02,1.94.03,2.49.26,3.2,1.16,4.66,3.21,5.17.33.08.6.1,1.44.1,1.1,0,1.7-.09,2.75-.38.84-.24,2.17-.79,2.17-.9,0-.03-.15-.53-.33-1.09s-.33-1.04-.33-1.05-.21.08-.46.19c-.61.28-1.21.47-1.73.54-.88.12-1.28.03-1.69-.4-.45-.46-.63-1.09-.74-2.56-.09-1.21-.02-3.43.17-5.66l.07-.72h4.41l.1-.94c.05-.51.11-1.03.12-1.14l.03-.2h-4.47l.03-.18c.01-.09.14-1.16.27-2.37s.26-2.28.28-2.38c.02-.12,0-.17-.04-.17-.04,0-1.04.12-2.23.26h0Z" fill="#ec1e24" fill-rule="evenodd"/>
    <path d="M24.09,11.99c-1.28.27-2.11.74-3.07,1.75-1.35,1.41-2.08,3.25-2.25,5.69-.11,1.55.08,3.29.5,4.53.6,1.75,1.69,3.21,3,4.01,1.19.72,2.74.91,4.22.53.86-.22,1.71-.74,2.45-1.49,1.51-1.51,2.36-3.55,2.52-6.06.28-4.29-1.38-7.67-4.29-8.74-.88-.33-2.16-.41-3.09-.21ZM26.22,14.09c1.09.37,2.03,1.45,2.51,2.86.36,1.03.49,2.13.45,3.51-.08,2.33-.69,4.03-1.88,5.21-.7.7-1.32.98-2.18.98-1.48,0-2.68-.96-3.44-2.73-.47-1.1-.66-2.36-.61-3.97.04-1.43.25-2.39.72-3.38.34-.73.66-1.18,1.18-1.68.47-.45.99-.76,1.48-.88.35-.09,1.41-.03,1.77.09Z" fill="#ec1e24" fill-rule="evenodd"/>
    <path d="M54.3,12.01c-1.73.45-3.17,1.76-4.23,3.89-.98,1.94-1.45,4.37-1.36,6.92.07,2.1.61,3.47,1.8,4.59.93.87,2.14,1.31,3.65,1.31,2.01,0,4.22-.52,6.35-1.48l.6-.28-.27-.77c-.15-.42-.28-.8-.29-.84-.02-.05-.11-.03-.34.08-1.85.85-3.28,1.21-4.93,1.25-.86.03-1.03.02-1.45-.09-.71-.17-1.15-.4-1.6-.85-.66-.65-.99-1.5-1.11-2.86-.06-.66-.01-1.94.1-2.61l.04-.2h9.55l-.03-.53c-.14-2.01-.49-3.5-1.15-4.82-.58-1.17-1.3-1.95-2.23-2.42-.63-.31-.97-.39-1.85-.41-.66-.02-.83,0-1.25.11ZM55.95,13.76c.26.08.37.16.67.45.39.39.61.78.84,1.44.23.68.46,1.96.46,2.54v.21h-3.13s-3.14-.03-3.14-.03l.02-.16c.22-2.06,1.59-4.06,3.06-4.45.4-.11.86-.1,1.23,0Z" fill="#ec1e24" fill-rule="evenodd"/>
    <path d="M69.76,11.97c-1.38.25-2.54.94-3.49,2.07-1.24,1.49-1.98,3.53-2.23,6.12-.09.93-.08,2.86.02,3.62.33,2.56,1.36,4.19,3.04,4.77.99.34,2.5.21,3.53-.31.75-.38,1.54-1.08,2.1-1.86.3-.42.8-1.36,1.04-1.95.1-.24.2-.46.22-.47.05-.05.04,4.12-.02,5.11-.22,3.59-.96,4.7-3.18,4.7-1.26,0-2.51-.47-3.77-1.42l-.49-.36-.53.68c-.29.38-.63.83-.76,1l-.23.3.48.35c.66.48.93.65,1.6.96.71.34,1.33.52,2.16.64,1.06.15,2.54,0,3.47-.37,2.15-.85,3.12-2.7,3.49-6.65.1-1.08.1-9.46,0-10.53-.39-4.17-1.58-5.98-4.21-6.41-.6-.1-1.71-.1-2.25,0ZM71.35,13.86c.52.14.79.29,1.2.7.86.86,1.16,1.93,1.05,3.86-.13,2.49-.73,4.38-1.98,6.3-.41.64-1.29,1.51-1.75,1.75-.93.49-1.89.39-2.53-.28-.53-.54-.86-1.44-1.05-2.83-.11-.8-.12-2.93-.02-3.62.28-1.98.89-3.45,1.9-4.65.87-1.03,2.11-1.51,3.18-1.24Z" fill="#ec1e24" fill-rule="evenodd"/>
    <path d="M85.42,11.99c-1.56.36-2.9,1.46-3.97,3.26-1.02,1.7-1.55,3.68-1.7,6.25-.14,2.36.22,3.93,1.18,5.23.97,1.31,2.42,1.98,4.27,1.98,1.57,0,3.47-.36,5.07-.96.84-.31,1.87-.79,1.85-.86-.01-.03-.14-.4-.28-.82s-.27-.77-.27-.77c0-.01-.29.11-.63.26-.81.37-2.03.77-2.9.95-.64.14-.82.15-1.85.15-1.05,0-1.17,0-1.55-.12-.65-.21-1.03-.42-1.42-.83-.43-.44-.69-.95-.9-1.72-.15-.52-.15-.58-.15-1.95,0-.78.03-1.54.05-1.68l.05-.27,4.77-.02h4.77s-.04-.65-.04-.65c-.02-.35-.08-.96-.14-1.35-.5-3.45-1.91-5.54-4.09-6.1-.56-.14-1.5-.14-2.12,0ZM87.05,13.79c.77.29,1.36,1.25,1.67,2.76.07.33.25,1.64.25,1.8,0,.02-1.42.04-3.15.04h-3.15l.04-.31c.1-.78.42-1.72.84-2.43.29-.5.97-1.24,1.38-1.52.67-.44,1.51-.58,2.13-.35Z" fill="#ec1e24" fill-rule="evenodd"/>
    <path d="M118.31,11.94c-.99.13-2.32.61-3.05,1.11-1.07.74-1.95,1.82-2.62,3.24-.28.61-.73,1.83-.68,1.88.05.05,3.47.98,3.51.95.03-.02.04-.08.04-.14s.07-.39.14-.72c.49-2.16,1.25-3.45,2.3-3.94.26-.12.37-.14.81-.14.61,0,.91.11,1.23.47.56.62.71,1.55.77,4.72.02,1.04.02,1.89,0,1.89-.02,0-.22-.06-.45-.14-.69-.23-1.54-.4-2.28-.45-2.29-.16-3.97.38-5.22,1.64-.77.78-1.1,1.67-1.04,2.79.05,1.03.36,1.73,1.02,2.4.33.33.52.46.92.67.71.35,1.22.47,2.16.5,1.96.08,3.56-.46,4.82-1.64.15-.14.27-.24.28-.23,0,.01.05.5.1,1.1.04.59.09,1.09.1,1.09.02.01,3.99-.4,4.21-.44.14-.03.17-.05.15-.12-.02-.05-.08-.49-.14-.99-.26-2.14-.33-3.32-.39-7-.08-4.63-.14-5.12-.77-6.29-.71-1.31-1.76-1.99-3.44-2.23-.49-.07-1.95-.07-2.5,0ZM119.54,22.93c.42.13.75.31,1.03.55l.24.22-.07.29c-.22.99-1.04,1.84-2.1,2.19-.38.13-.5.15-.95.12-.6-.03-.87-.13-1.25-.46s-.51-.66-.5-1.18c0-1.04.55-1.61,1.73-1.82.4-.08,1.52-.02,1.87.08Z" fill="#ec1e24" fill-rule="evenodd"/>
    <path d="M161.67,12.3c-1.21.22-2.2.41-2.22.42-.01,0,.09,3.45.23,7.64.14,4.19.24,7.71.24,7.82v.21h4.07v-8.25c0-6.57-.02-8.25-.07-8.25-.04,0-1.06.19-2.26.41Z" fill="#ec1e24" fill-rule="evenodd"/>
    <path d="M101.59,12.04c-1.28.14-2.21.38-2.77.71-.09.05-.25.13-.35.17-.29.11-.97.65-1.37,1.09-.37.4-.81,1.18-.96,1.68-.04.14-.1.31-.13.4-.09.24-.07,1.63.03,1.99.23.83.53,1.35,1.04,1.85.44.42.5.47.86.67.14.08.37.2.51.28.27.15.45.17.45.07,0-.13.57-1.44.61-1.42.03.02.03.16.02.31-.04.3,0,.37.34.74.07.08.19.26.27.41.17.34.15.33.3.22.28-.2.66-.03.71.29.01.1.05.14.18.16.11.02.19.08.24.19.05.09.17.24.27.34.15.15.18.21.15.35-.07.38-.07.39.08.39.12,0,.14-.02.12-.16,0-.09-.05-.28-.1-.43-.09-.27-.07-.41.04-.22.03.06.11.26.16.43.12.4.17.46.36.46.27,0,.29-.1.14-.65-.08-.28-.12-.52-.11-.53.05-.05.13.1.24.5.06.21.13.41.15.46.07.11.24.16.39.11.15-.06.14-.14-.04-.83-.06-.24-.11-.46-.11-.49,0-.11.16.15.16.27,0,.07.02.14.04.15s.08.15.11.29c.1.37.18.47.36.42.08-.02.16-.09.18-.15.04-.1-.03-.68-.12-1.12-.05-.23-.78-1.05-1.11-1.25-.49-.29-.5-.3-.9-.11-.28.12-.4.16-.56.14-.22-.04-.45-.25-.45-.42,0-.05.14-.23.31-.4.17-.16.29-.31.27-.34s-.16-.06-.32-.08c-.31-.05-1.22-.4-1.34-.52-.06-.05-.07-.1-.02-.2.2-.43.2-.46,0-.69-.5-.59-.32-1.44.43-2.04.28-.22.5-.31,1.21-.47.4-.09,2.04-.09,2.5,0,.2.04.48.1.62.13.59.12,1.03.28,1.85.67.4.19.74.24.82.11.05-.09.53-1.22.71-1.69.04-.12.13-.33.19-.47.07-.15.09-.3.08-.36-.04-.11-.29-.33-.52-.43-.86-.39-1.82-.7-2.47-.8-.27-.05-.65-.11-.84-.14-.44-.07-2.39-.11-2.9-.05Z" fill="#ec1e24" fill-rule="evenodd"/>
    <path d="M101.63,19.33c-.24.24-.45.47-.45.5s.08.1.18.16c.23.12.37.09.74-.16.15-.1.29-.17.3-.15.01.02.18.12.39.22.26.12.47.29.74.57.6.62.72.81.7,1.09-.01.2.08.62.13.62,0,0,.12-.05.27-.11.14-.06.3-.09.36-.08.12.04.11.1-.05.6l-.1.27.16.19c.52.62.56,1.18.11,1.85-.22.34-.94.68-1.73.81-.42.07-2.32.04-2.63-.05-.1-.03-.33-.08-.49-.12-.89-.2-1.73-.51-2.51-.93-.82-.45-.97-.42-1.18.18-.06.16-.23.54-.37.84s-.3.64-.34.76-.09.25-.12.28c-.08.11.05.37.28.52.26.16,1.4.71,1.73.83.54.18,1.7.47,2.57.61.2.03.73.09,1.18.12,1.33.1,2.63-.05,3.91-.45.69-.22.71-.22,1.37-.61,1.15-.67,1.87-1.61,2.23-2.89.12-.42.1-1.86-.03-2.27-.27-.87-.75-1.57-1.44-2.05-.43-.31-1.28-.75-1.44-.75-.09,0-.14.08-.27.47-.2.58-.28.75-.32.67-.02-.03-.02-.17,0-.32.04-.3.12-.26-.79-.48-.64-.15-.96-.34-1.19-.68-.15-.22-.2-.24-.91-.4-.21-.05-.42-.1-.46-.11-.05-.02-.26.15-.53.42Z" fill="#ec1e24" fill-rule="evenodd"/>
    <path d="M99.72,21c-.16.16-.14.37.03.44.18.07.35.02.35-.1,0-.09-.19-.45-.24-.45-.02,0-.08.05-.14.11Z" fill="#ec1e24" fill-rule="evenodd"/>
    <path d="M100.43,21.39c-.35.21-.43.47-.2.62.12.08.15.08.32,0,.28-.14.42-.28.42-.47,0-.12-.03-.17-.14-.21q-.18-.07-.4.06Z" fill="#ec1e24" fill-rule="evenodd"/>
    <path d="M100.9,21.93c-.21.14-.26.2-.26.32,0,.17.15.33.3.33.14,0,.51-.38.51-.53,0-.09-.2-.29-.28-.29-.01,0-.13.08-.27.17Z" fill="#ec1e24" fill-rule="evenodd"/>
    <path d="M101.36,22.42c-.15.09-.18.14-.16.28.02.15.04.17.2.18.1.01.24-.02.31-.07.11-.07.14-.12.12-.29-.02-.17-.04-.2-.15-.21-.08,0-.22.04-.31.1Z" fill="#ec1e24" fill-rule="evenodd"/>
    <path d="M137.21,31.75c-1.57.28-2.93,2.04-3.4,4.41-.1.52-.12.79-.12,1.78,0,1.33.04,1.57.41,2.31.39.79.93,1.26,1.75,1.52,1.21.38,3.06.13,4.86-.66l.55-.24-.18-.53c-.1-.29-.2-.55-.21-.59-.02-.05-.17,0-.49.15-.96.45-1.88.65-2.87.65-1.17,0-1.82-.49-2.12-1.57-.13-.48-.14-1.93,0-2.66.28-1.57.95-2.79,1.76-3.2.44-.22.86-.21,1.15.03.35.29.52.86.58,1.87.02.35.05.64.07.64.02,0,.42-.08.89-.17l.85-.18v-.2c0-.11-.04-.41-.08-.68-.24-1.43-.85-2.26-1.88-2.58-.39-.12-1.11-.17-1.49-.1Z" fill="#ec1e24" fill-rule="evenodd"/>
    <path d="M145.79,31.75c-1.33.2-2.41,1.13-3,2.59-.64,1.57-.57,3.89.15,5.34.3.61.5.88.95,1.32.66.65,1.54.99,2.41.93.55-.04.86-.11,1.28-.3,1.2-.54,2.14-1.92,2.48-3.61.11-.58.1-2.22-.02-2.8-.12-.57-.4-1.3-.64-1.72-.23-.4-.97-1.15-1.32-1.34-.65-.36-1.55-.52-2.28-.41ZM147.05,33.3c.16.08.41.26.57.42.59.6.9,1.47.94,2.64.07,1.59-.3,2.83-1.06,3.58-.43.42-.73.56-1.28.56-.39,0-.47-.02-.78-.18-.62-.33-1.11-1.04-1.38-2.04-.1-.37-.11-.58-.12-1.41,0-.83.02-1.05.11-1.41.33-1.25,1.01-2.1,1.85-2.31.3-.07.81-.01,1.15.14Z" fill="#ec1e24" fill-rule="evenodd"/>
    <path d="M153.22,31.92c-.36.09-.7.17-.77.18-.11.03-.11.04-.04.5.24,1.6.27,2.22.26,5.75v3.44s.68,0,.68,0h.69l.03-1.16c.04-1.27.14-2.19.34-3.13.32-1.44.96-2.8,1.56-3.33.56-.5,1.22-.48,1.38.03.17.51.18.82.17,3.9v3.14s.64,0,.64,0h.65l.03-.61c.02-.33.06-1.21.09-1.94.06-1.4.15-2.08.34-2.66.32-.99,1.02-1.94,1.68-2.29.18-.1.33-.12.64-.13.37,0,.41.01.53.15.24.29.26.4.22,3.81-.02,1.76-.05,3.39-.07,3.62l-.03.42h.74c.55,0,.74-.02.74-.07,0-.03.07-1.75.15-3.82.16-4.19.16-4.26-.16-4.86-.31-.59-.86-.86-1.7-.86-1.13,0-2.17.59-2.84,1.62l-.16.23-.06-.26c-.17-.66-.49-1.12-.93-1.31-.8-.34-1.82-.07-2.61.71-.39.38-.59.66-.95,1.29-.14.24-.24.38-.26.34-.01-.04-.04-.33-.05-.62-.03-.55-.17-1.76-.24-2.07l-.04-.17-.65.15Z" fill="#ec1e24" fill-rule="evenodd"/>
    <path d="M130.07,39.63c-.14.08-.31.24-.41.36-.15.21-.16.27-.16.65s.02.45.15.65c.5.75,1.59.69,2-.12.26-.5.1-1.13-.38-1.47-.19-.14-.3-.17-.6-.18-.3-.02-.4,0-.61.11Z" fill="#ec1e24" fill-rule="evenodd"/>
  </g>
  <rect x="170.44" y="3.89" width=".64" height="38.24" fill="#ec1e24"/>
  <g>
    <path d="M179.12,11.55c0-1.22.31-2.35.92-3.37.61-1.02,1.53-1.83,2.75-2.43,1.22-.6,2.72-.9,4.49-.9s3.23.3,4.47.9c1.23.6,2.16,1.41,2.77,2.43.61,1.02.92,2.14.92,3.37s-.32,2.39-.97,3.35c-.65.96-1.5,1.71-2.57,2.23,1.29.48,2.31,1.25,3.06,2.33.75,1.08,1.12,2.34,1.12,3.79s-.37,2.78-1.12,3.91c-.75,1.13-1.79,2.01-3.13,2.62s-2.86.92-4.55.92-3.21-.31-4.54-.92-2.36-1.48-3.11-2.62-1.12-2.44-1.12-3.91.37-2.74,1.12-3.81c.75-1.06,1.76-1.84,3.03-2.31-2.36-1.18-3.54-3.04-3.54-5.57ZM183.63,19.93c-.94.74-1.41,1.8-1.41,3.18,0,1.29.45,2.34,1.36,3.14.91.81,2.14,1.21,3.7,1.21s2.76-.41,3.65-1.22c.89-.82,1.34-1.86,1.34-3.13,0-1.36-.46-2.41-1.38-3.16s-2.12-1.12-3.62-1.12-2.71.37-3.65,1.1ZM190.55,9.11c-.79-.68-1.88-1.02-3.26-1.02s-2.44.34-3.23,1.02c-.79.68-1.19,1.67-1.19,2.96,0,1.13.41,2.06,1.24,2.77.83.71,1.89,1.07,3.18,1.07s2.36-.36,3.2-1.09c.84-.72,1.26-1.65,1.26-2.79,0-1.27-.4-2.24-1.19-2.92Z" fill="#ec1e24"/>
    <g>
      <path d="M180.51,34.88l-2.16,4.14v2.51h-.87v-2.51l-2.17-4.14h.96l1.64,3.37,1.64-3.37h.96Z" fill="#ec1e24"/>
      <path d="M185.28,39.24h-4.18c.03.52.21.92.53,1.21.32.29.71.43,1.17.43.38,0,.69-.09.94-.26.25-.17.43-.41.53-.7h.93c-.14.5-.42.91-.84,1.22s-.94.47-1.56.47c-.5,0-.94-.11-1.33-.33-.39-.22-.7-.54-.92-.95s-.33-.88-.33-1.42.11-1.01.32-1.42c.22-.41.52-.72.91-.94.39-.22.84-.33,1.35-.33s.93.11,1.32.32c.38.22.68.51.88.89.21.38.31.81.31,1.28,0,.17,0,.34-.03.52ZM184.2,37.68c-.15-.24-.35-.42-.6-.54-.25-.12-.53-.19-.83-.19-.44,0-.81.14-1.12.42-.31.28-.48.67-.53,1.16h3.3c0-.33-.07-.61-.22-.85Z" fill="#ec1e24"/>
      <path d="M186.15,37.49c.22-.4.51-.72.89-.94.38-.22.8-.33,1.26-.33s.86.1,1.19.3c.34.2.59.45.75.74v-.95h.88v5.22h-.88v-.97c-.17.31-.43.56-.77.76s-.73.3-1.19.3-.88-.11-1.26-.34c-.38-.23-.67-.55-.89-.96-.22-.41-.32-.88-.32-1.41s.11-1,.32-1.41ZM190.01,37.87c-.16-.29-.37-.52-.64-.67-.27-.16-.57-.23-.89-.23s-.62.08-.89.23-.48.38-.64.67c-.16.29-.24.64-.24,1.03s.08.75.24,1.04c.16.3.37.52.64.68.27.16.56.23.89.23s.62-.08.89-.23c.27-.16.48-.38.64-.68.16-.3.24-.64.24-1.03s-.08-.74-.24-1.03Z" fill="#ec1e24"/>
      <path d="M193.81,36.45c.28-.17.63-.25,1.03-.25v.9h-.23c-.97,0-1.46.53-1.46,1.58v2.84h-.87v-5.22h.87v.85c.15-.3.37-.53.65-.7Z" fill="#ec1e24"/>
      <path d="M196.31,41.41c-.32-.14-.57-.33-.75-.57s-.29-.53-.31-.84h.9c.03.26.15.47.37.64.22.17.51.25.86.25.33,0,.59-.07.78-.22.19-.15.29-.33.29-.55s-.1-.4-.31-.51c-.2-.11-.52-.22-.94-.33-.39-.1-.7-.21-.95-.31s-.45-.26-.63-.47c-.17-.21-.26-.48-.26-.81,0-.27.08-.51.24-.73.16-.22.38-.4.68-.53s.63-.19,1-.19c.58,0,1.05.15,1.4.44.36.29.55.69.57,1.2h-.87c-.02-.27-.13-.49-.33-.66-.2-.17-.47-.25-.81-.25-.31,0-.56.07-.74.2-.18.13-.28.31-.28.52,0,.17.06.31.17.42s.25.2.42.27c.17.07.4.14.7.22.38.1.68.2.92.3.24.1.44.25.6.44s.26.45.26.77c0,.29-.08.54-.24.77-.16.23-.38.41-.67.54s-.62.19-1,.19c-.4,0-.76-.07-1.08-.2Z" fill="#ec1e24"/>
    </g>
  </g>
</svg>