<svg xmlns="http://www.w3.org/2000/svg" width="235.56" height="44" viewBox="0 0 235.56 44">
  <g>
    <path d="M54.25.35c-.94.19-1.74.38-1.77.39S52,7.15,51.84,10.83c-.37,8.91,0,13,1.34,15.2a6.41,6.41,0,0,0,3.32,2.68l.45.17,1.26-.67c.87-.48,1.19-.68,1.1-.73a11.61,11.61,0,0,1-2-1.14c-2-1.56-2.41-3.07-2.4-8.47a148.69,148.69,0,0,1,1-15.41c.12-1.27.22-2.35.21-2.39A7.06,7.06,0,0,0,54.25.35Z" fill="#ec2226" fill-rule="evenodd"/>
    <path d="M64.42.35l-1.8.38c0,.05-.35,4.51-.5,7.22C61.86,12.6,61.8,18.47,62,20.5a16.56,16.56,0,0,0,.82,4.44,6.21,6.21,0,0,0,3.73,3.71l.57.22,1.26-.66,1.26-.66-.6-.29A6.45,6.45,0,0,1,66.2,25a6.65,6.65,0,0,1-1-3.12c-.13-.91-.13-7.38,0-9.51.23-3.63.54-7.44.9-10.73A10.75,10.75,0,0,1,66.24,0S65.38.15,64.42.35Z" fill="#ec2226" fill-rule="evenodd"/>
    <path d="M206,.37,202.86.7V28.57h5.87v-.25c0-1.25.27-6.08.37-6.7a10.14,10.14,0,0,1,3.33-6.46,3.6,3.6,0,0,1,2.87-.94c1,.16,1.53.78,1.71,2a43.75,43.75,0,0,1-.34,5.83c-.2,2.83-.38,5.26-.38,5.42,0,.37.2.73.42.73.54,0,5.84-.29,5.86-.32s.66-14,.6-14.44a3.74,3.74,0,0,0-2.33-3.07,6.82,6.82,0,0,0-3.08-.48,9.24,9.24,0,0,0-3.23.43,10.16,10.16,0,0,0-5.37,4.18l-.38.57v-.58c0-.63.43-12.14.51-13.58,0-.84,0-.88-.09-.88Z" fill="#ec2226" fill-rule="evenodd"/>
    <path d="M231,.82A2.61,2.61,0,0,0,229.6,2a1.88,1.88,0,0,0,.49,2.21,3,3,0,0,0,3.58.12l.14-.12a1.63,1.63,0,0,0,.72-1.56,1.78,1.78,0,0,0-.87-1.44A3,3,0,0,0,231,.82Z" fill="#ec2226" fill-rule="evenodd"/>
    <path d="M13.42,3.45a11.72,11.72,0,0,0-8,4.74,16.16,16.16,0,0,0-2.75,5.17,18.48,18.48,0,0,0-.42,9.89A7.47,7.47,0,0,0,4.9,26.89C7,28.41,10.34,29,14.75,28.66a29.61,29.61,0,0,0,7.59-1.57c.63-.23,2-.78,2.16-.87a10.47,10.47,0,0,0-1-2.4,3.56,3.56,0,0,0-.52.24A20.6,20.6,0,0,1,13.65,26,14.55,14.55,0,0,1,11,25.83c-2.67-.2-4.8-1.88-5.13-4a18.19,18.19,0,0,1,.29-7.38c1-3.94,3.37-7.16,6.13-8.32a5.31,5.31,0,0,1,4.38,0q2.22,1.23,2.53,5.64a1.41,1.41,0,0,0,.13.67l2.12-.33,2.13-.35a11.59,11.59,0,0,0-.33-2.19A8.65,8.65,0,0,0,20.6,5.21,9.23,9.23,0,0,0,13.42,3.45Z" fill="#ec2226" fill-rule="evenodd"/>
    <path d="M191.49,6.66,188.38,7s-.15,1.09-.32,2.37-.29,2.47-.31,2.61v.28h-2.32a22.06,22.06,0,0,0-2.3,0c0,.07-.37,2.16-.43,2.39v.19h4.82l-.07.6c-.16,2-.2,2.55-.24,4.3v2.87c.37,3.7,1.66,5.38,4.57,6a10,10,0,0,0,2.05.12,15.54,15.54,0,0,0,3.91-.44,14.55,14.55,0,0,0,3.09-1s-.22-.62-.47-1.26-.47-1.2-.47-1.21a5,5,0,0,0-.65.22,10.65,10.65,0,0,1-2.47.62,2.85,2.85,0,0,1-2.4-.46c-.59-.46-.9-1.25-1.05-2.95a39.47,39.47,0,0,1,.25-6.52l.09-.82H200l.14-1.09a6.15,6.15,0,0,1,.18-1.32V12.2H194V12c0-.11.19-1.34.38-2.74s.36-2.62.39-2.73a.54.54,0,0,0,0-.2l-3.16.3Z" fill="#ec2226" fill-rule="evenodd"/>
    <path d="M36.08,9.49a8.09,8.09,0,0,0-4.39,2,9.09,9.09,0,0,0-3.2,6.56,11.55,11.55,0,0,0,.72,5.22,9.06,9.06,0,0,0,4.27,4.61,9.45,9.45,0,0,0,6,.61A8.16,8.16,0,0,0,43,26.81a9.55,9.55,0,0,0,3.58-7c.4-4.94-2-8.83-6.11-10.06A10.44,10.44,0,0,0,36.08,9.49Zm3,2.41a5.6,5.6,0,0,1,3.57,3.31,8.93,8.93,0,0,1,.64,4,7.63,7.63,0,0,1-2.67,6,4.53,4.53,0,0,1-3.11,1.14,5.42,5.42,0,0,1-4.89-3.15,8.76,8.76,0,0,1-.87-4.59,7.59,7.59,0,0,1,1-3.88,5.84,5.84,0,0,1,1.68-1.94,5,5,0,0,1,2.11-1A8.87,8.87,0,0,1,39.1,11.9Z" fill="#ec2226" fill-rule="evenodd"/>
    <path d="M79.07,9.51a9.29,9.29,0,0,0-6,4.48,13.83,13.83,0,0,0-1.93,8,6.27,6.27,0,0,0,2.53,5.29,8.37,8.37,0,0,0,5.23,1.5,26.6,26.6,0,0,0,9-1.7l.85-.32-.37-.88c-.21-.49-.4-.92-.42-1s-.15,0-.48.09a20.45,20.45,0,0,1-7,1.44,7.49,7.49,0,0,1-2.06-.1,4.76,4.76,0,0,1-2.29-1A4.46,4.46,0,0,1,74.54,22a13.22,13.22,0,0,1,.14-3v-.22H88.34v-.62A12.14,12.14,0,0,0,86.7,12.6a6.49,6.49,0,0,0-3.16-2.79,6.09,6.09,0,0,0-2.63-.47A6.32,6.32,0,0,0,79.07,9.51Zm2.35,2a2.2,2.2,0,0,1,1,.52,3.64,3.64,0,0,1,1.2,1.66,10.72,10.72,0,0,1,.66,2.93v.23H75.29v-.18a6.26,6.26,0,0,1,4.35-5.12,4.39,4.39,0,0,1,1.77-.07Z" fill="#ec2226" fill-rule="evenodd"/>
    <path d="M101.09,9.45a8.77,8.77,0,0,0-5,2.4,11.15,11.15,0,0,0-3.16,7,22.34,22.34,0,0,0,0,4.17c.47,2.95,1.94,4.82,4.32,5.5a8.89,8.89,0,0,0,5.06-.36,8.6,8.6,0,0,0,3-2.15,13.64,13.64,0,0,0,1.48-2.25,2.9,2.9,0,0,1,.31-.54c.08-.06,0,4.74,0,5.89-.3,4.1-1.36,5.41-4.51,5.41a10.23,10.23,0,0,1-5.37-1.63l-.67-.42-.76.79-1.08,1.14-.32.36.67.4a12.86,12.86,0,0,0,5.34,1.84,13.5,13.5,0,0,0,4.95-.42c3.05-1,4.45-3.07,5-7.66.16-1.24.14-10.9,0-12.14-.55-4.81-2.25-6.88-6-7.38A16.14,16.14,0,0,0,101.09,9.45Zm2.26,2.19a3.45,3.45,0,0,1,1.71.81c1.26,1,1.64,2.22,1.49,4.44a12,12,0,0,1-2.82,7.26,8.7,8.7,0,0,1-2.53,2.05,3.5,3.5,0,0,1-3.6-.32,5.06,5.06,0,0,1-1.5-3.27,19.28,19.28,0,0,1,0-4.16,9.11,9.11,0,0,1,2.7-5.36A5.16,5.16,0,0,1,103.35,11.64Z" fill="#ec2226" fill-rule="evenodd"/>
    <path d="M123.36,9.49a8.87,8.87,0,0,0-5.65,3.75,13.17,13.17,0,0,0-2.42,7.16c-.19,2.73.3,4.54,1.68,6a7.87,7.87,0,0,0,6.08,2.28,26.51,26.51,0,0,0,7.22-1.09,14.66,14.66,0,0,0,2.63-1s-.21-.47-.41-1-.38-.88-.39-.88a8.63,8.63,0,0,0-.9.3,27.13,27.13,0,0,1-4.12,1.09,11.57,11.57,0,0,1-2.63.18,7.72,7.72,0,0,1-2.2-.13,4.74,4.74,0,0,1-2-1,4,4,0,0,1-1.27-2,5,5,0,0,1-.21-2.24,10.75,10.75,0,0,1,.08-2l.07-.3h13.59l-.06-.74a12,12,0,0,0-.2-1.57c-.71-4-2.71-6.37-5.83-7A9.4,9.4,0,0,0,123.36,9.49Zm2.34,2c1.1.33,1.94,1.44,2.38,3.17.09.39.35,1.91.35,2.05a33.24,33.24,0,0,1-4.48.05h-4.5v-.36a6.85,6.85,0,0,1,1.18-2.79,7.3,7.3,0,0,1,2-1.75,4.2,4.2,0,0,1,3-.34Z" fill="#ec2226" fill-rule="evenodd"/>
    <path d="M170.21,9.42a13.54,13.54,0,0,0-4.35,1.29,9.92,9.92,0,0,0-3.79,3.73,10.76,10.76,0,0,0-1,2.17c.07.06,4.94,1.12,5.05,1.09a.14.14,0,0,0,0-.15,5.93,5.93,0,0,1,.21-.83c.69-2.49,1.77-4,3.27-4.53a2.5,2.5,0,0,1,1.15-.17,2.3,2.3,0,0,1,1.76.55c.79.71,1,1.78,1.09,5.43v2.18c-.22,0-.43-.09-.64-.15a16.7,16.7,0,0,0-3.25-.53,10.37,10.37,0,0,0-7.43,1.9,3.59,3.59,0,0,0-1.46,3.22,3.54,3.54,0,0,0,1.44,2.76,4.1,4.1,0,0,0,1.26.77,7.91,7.91,0,0,0,3.07.58,10.39,10.39,0,0,0,6.85-1.89,2.42,2.42,0,0,1,.41-.27s.07.59.14,1.27.14,1.25.14,1.26,5.85-.45,6.11-.45.26-.07.22-.14-.1-.58-.19-1.15a51.82,51.82,0,0,1-.54-8.06c-.12-5.33-.21-5.92-1.1-7.26a6.15,6.15,0,0,0-4.9-2.56A26.27,26.27,0,0,0,170.21,9.42Zm1.73,12.67a4.14,4.14,0,0,1,1.47.64l.34.25-.09.34a4.08,4.08,0,0,1-3,2.53,3.65,3.65,0,0,1-1.36.14,2.77,2.77,0,0,1-1.77-.53,1.46,1.46,0,0,1-.72-1.37c0-1.19.78-1.85,2.53-2.05A10.68,10.68,0,0,1,171.94,22.09Z" fill="#ec2226" fill-rule="evenodd"/>
    <path d="M231.93,9.84c-1.72.25-3.14.46-3.15.48s.13,4,.31,8.8.36,8.9.36,9v.23h5.8v-9.5c0-7.57,0-9.52-.1-9.51Z" fill="#ec2226" fill-rule="evenodd"/>
    <path d="M146.4,9.54a12.42,12.42,0,0,0-3.94.82c-.12.06-.36.14-.5.19a7.9,7.9,0,0,0-2,1.25,5.59,5.59,0,0,0-1.35,1.93,1.19,1.19,0,0,1-.19.47,6.3,6.3,0,0,0,0,2.29,4.14,4.14,0,0,0,1.48,2.13,3.92,3.92,0,0,0,1.26.77l.72.32c.38.17.65.2.65.08a8,8,0,0,1,.87-1.63.73.73,0,0,1,0,.36c0,.34,0,.42.48.85a2.12,2.12,0,0,1,.38.47c.24.39.21.37.41.26a.73.73,0,0,1,.9.12.5.5,0,0,1,.12.21c0,.12.07.17.25.19a.45.45,0,0,1,.34.21,2.4,2.4,0,0,0,.38.4c.21.18.25.24.21.41-.1.43-.1.45.11.45s.2,0,.17-.19a1.71,1.71,0,0,0-.14-.49c-.12-.32-.09-.47.07-.26a4.59,4.59,0,0,1,.24.5c.17.46.24.53.52.53s.41-.11.18-.74a2.25,2.25,0,0,1-.15-.62c.08-.07.18.12.34.58.09.24.19.48.22.53a.54.54,0,0,0,.56.12c.2-.07.2-.16,0-1a4,4,0,0,1-.17-.56c0-.13.23.18.23.31a.28.28,0,0,0,0,.18.76.76,0,0,1,.16.34c.15.43.27.54.51.49a.41.41,0,0,0,.26-.18,3.79,3.79,0,0,0-.17-1.29,5.61,5.61,0,0,0-1.58-1.44c-.71-.34-.72-.34-1.27-.12a1.49,1.49,0,0,1-.79.15c-.31,0-.64-.29-.64-.48A1.51,1.51,0,0,1,146,18c.24-.18.41-.37.39-.39a1.79,1.79,0,0,0-.46-.09A9.61,9.61,0,0,1,144,17c-.08-.07-.1-.13,0-.23.3-.5.3-.53,0-.81a1.42,1.42,0,0,1,.44-2.24l.18-.1a4,4,0,0,1,1.71-.54,19.35,19.35,0,0,1,3.57,0l.88.15a11.56,11.56,0,0,1,2.63.77c.57.22,1.06.27,1.18.13s.74-1.4,1-1.94c0-.15.19-.39.28-.55a.63.63,0,0,0,.1-.42,1.61,1.61,0,0,0-.74-.49,18.59,18.59,0,0,0-3.52-.93l-1.2-.16A35.75,35.75,0,0,0,146.4,9.54Z" fill="#ec2226" fill-rule="evenodd"/>
    <path d="M146.46,18a3.17,3.17,0,0,0-.63.58,1.34,1.34,0,0,0,.25.19,1.31,1.31,0,0,0,1-.19,1,1,0,0,1,.43-.17,2.58,2.58,0,0,0,.56.25,3.72,3.72,0,0,1,1,.67c.85.71,1,.93,1,1.25a1.15,1.15,0,0,0,.18.71,2.43,2.43,0,0,0,.38-.13,1.29,1.29,0,0,1,.52-.08c.16,0,.15.11-.09.69L151,22l.24.23a1.35,1.35,0,0,1,.16,2.11,4.5,4.5,0,0,1-2.46.95,26.63,26.63,0,0,1-3.79,0l-.7-.15a15.93,15.93,0,0,1-3.58-1.07c-1.16-.51-1.37-.49-1.68.2a7.51,7.51,0,0,1-.53,1c-.2.35-.41.75-.48.88a1,1,0,0,1-.17.33c-.12.12.07.43.39.6a25.42,25.42,0,0,0,2.53,1,34.27,34.27,0,0,0,3.67.62c.28,0,1,.1,1.69.14a17.91,17.91,0,0,0,5.56-.52,7,7,0,0,0,1.94-.69A5.74,5.74,0,0,0,157,24.25a6.79,6.79,0,0,0,0-2.62,4.57,4.57,0,0,0-2.06-2.37,9.34,9.34,0,0,0-2.05-.86c-.14,0-.2.09-.39.54-.28.68-.39.87-.46.78a1.15,1.15,0,0,1,0-.37c0-.35.18-.3-1.11-.55a2.73,2.73,0,0,1-1.69-.78c-.22-.26-.28-.28-1.27-.47l-.65-.12C147.14,17.4,146.85,17.63,146.46,18Z" fill="#ec2226" fill-rule="evenodd"/>
    <path d="M143.73,19.87c-.22.18-.19.42,0,.5s.49,0,.49-.11a1,1,0,0,0-.34-.52A.64.64,0,0,0,143.73,19.87Z" fill="#ec2226" fill-rule="evenodd"/>
    <path d="M144.74,20.31c-.51.25-.62.54-.28.72s.22.09.46,0,.59-.33.59-.54a.23.23,0,0,0-.2-.25C145,20.16,145,20.16,144.74,20.31Z" fill="#ec2226" fill-rule="evenodd"/>
    <path d="M145.42,20.94c-.3.15-.38.23-.38.36a.44.44,0,0,0,.45.38c.2,0,.72-.44.72-.6a.64.64,0,0,0-.41-.34Z" fill="#ec2226" fill-rule="evenodd"/>
    <path d="M146.07,21.49c-.22.1-.26.16-.23.33s0,.19.28.2a.74.74,0,0,0,.44-.08c.16-.07.2-.14.18-.33s-.07-.23-.22-.24A1.16,1.16,0,0,0,146.07,21.49Z" fill="#ec2226" fill-rule="evenodd"/>
    <path d="M197.1,32.25c-2.24.33-4.16,2.36-4.84,5.12a7.06,7.06,0,0,0-.18,2.05,3.84,3.84,0,0,0,.58,2.66,3.8,3.8,0,0,0,2.53,1.75,13,13,0,0,0,6.92-.76l.77-.29-.26-.6c-.15-.34-.29-.64-.3-.68s-.24,0-.71.17a11.4,11.4,0,0,1-4.08.75,2.71,2.71,0,0,1-3-1.82,7.93,7.93,0,0,1,0-3.07A5,5,0,0,1,197,33.85a1.74,1.74,0,0,1,1.63,0c.5.34.74,1,.83,2.16a3,3,0,0,0,.09.73l1.26-.19,1.27-.2v-.23a5.39,5.39,0,0,0-.12-.79,3.51,3.51,0,0,0-2.66-3A6.74,6.74,0,0,0,197.1,32.25Z" fill="#ec2226" fill-rule="evenodd"/>
    <path d="M209.31,32.26a5.35,5.35,0,0,0-4.27,3,6.94,6.94,0,0,0,.21,6.14,4.84,4.84,0,0,0,1.31,1.6A5.23,5.23,0,0,0,210,44a5.68,5.68,0,0,0,5.41-4.52,9.67,9.67,0,0,0,0-3.22,6.45,6.45,0,0,0-.91-2,6.56,6.56,0,0,0-1.93-1.54A6.49,6.49,0,0,0,209.31,32.26ZM211.12,34a4.36,4.36,0,0,1,.81.49,4,4,0,0,1,1.34,3.07,4.69,4.69,0,0,1-1.52,4.1,2.54,2.54,0,0,1-1.82.65,2,2,0,0,1-1.1-.21,3.66,3.66,0,0,1-2-2.35,4.69,4.69,0,0,1-.17-1.62,4.49,4.49,0,0,1,.17-1.63,3.61,3.61,0,0,1,2.63-2.66,3.74,3.74,0,0,1,1.63.16Z" fill="#ec2226" fill-rule="evenodd"/>
    <path d="M219.9,32.45l-1.08.2c-.17,0-.17.05,0,.59a28.86,28.86,0,0,1,.36,6.63v4h2V42.5a15.84,15.84,0,0,1,.49-3.61,7.46,7.46,0,0,1,2.22-3.83c.81-.59,1.74-.57,2,0s.25.95.25,4.5v3.61h1.84v-.71c0-.37.09-1.39.13-2.23a9.51,9.51,0,0,1,.48-3.07,5.06,5.06,0,0,1,2.39-2.63,2.27,2.27,0,0,1,.9-.15c.53,0,.58,0,.76.18.35.33.36.47.31,4.4,0,2-.07,3.9-.1,4.16v.49h1.05c.78,0,1,0,1-.08s.09-2.05.2-4.4c.24-4.83.24-4.91-.21-5.61a2.75,2.75,0,0,0-2.43-1,5.22,5.22,0,0,0-4,1.86l-.23.28-.08-.31a2.25,2.25,0,0,0-1.34-1.45,4,4,0,0,0-3.7.82,5.89,5.89,0,0,0-1.35,1.48c-.19.29-.36.44-.37.39a4.43,4.43,0,0,1-.09-.72,14.84,14.84,0,0,0-.33-2.38l-.06-.2Z" fill="#ec2226" fill-rule="evenodd"/>
    <path d="M186.94,41.34a2.27,2.27,0,0,0-.58.42,1.39,1.39,0,0,0,0,1.5,1.89,1.89,0,0,0,2.29.35,1.18,1.18,0,0,0,.43-1.85,1.85,1.85,0,0,0-.4-.33,1.48,1.48,0,0,0-.85-.21A1.6,1.6,0,0,0,186.94,41.34Z" fill="#ec2226" fill-rule="evenodd"/>
  </g>
</svg>
