<svg xmlns="http://www.w3.org/2000/svg" xmlns:xlink="http://www.w3.org/1999/xlink" width="51.334" height="49.354" viewBox="0 0 51.334 49.354">
  <defs>
    <linearGradient id="linear-gradient" x1="0.5" y1="-0.044" x2="0.5" y2="1" gradientUnits="objectBoundingBox">
      <stop offset="0" stop-color="#ff2a2a"/>
      <stop offset="1" stop-color="#fdb342"/>
    </linearGradient>
  </defs>
  <path id="student" d="M52.975,10.993,29.284,3.1a2.1,2.1,0,0,0-1.234,0l-23.667,7.9H4.334l-.247.123H4.063l-.247.148c0,.025-.025.025-.049.049l-.2.173-.173.2c0,.025-.025.025-.025.049l-.148.222c0,.025,0,.025-.025.049l-.1.222-.074.271v.074a.913.913,0,0,0-.025.3V32.611a1.974,1.974,0,0,0,3.949,0v-17l8.292,2.764a15.6,15.6,0,0,0-2.369,8.317,15.795,15.795,0,0,0,7.4,13.376A23.715,23.715,0,0,0,8.8,49.294a2,2,0,0,0,.592,2.739,1.95,1.95,0,0,0,2.715-.568,19.742,19.742,0,0,1,33.118,0,1.975,1.975,0,0,0,1.653.888,1.851,1.851,0,0,0,1.061-.321,2,2,0,0,0,.592-2.739,23.714,23.714,0,0,0-11.475-9.23,15.794,15.794,0,0,0,7.4-13.376,15.6,15.6,0,0,0-2.369-8.317l10.883-3.628a1.974,1.974,0,0,0,0-3.751ZM28.667,38.534A11.846,11.846,0,0,1,16.821,26.688a11.994,11.994,0,0,1,2.3-7.033l8.934,2.986a1.974,1.974,0,0,0,1.234,0l8.934-2.986a11.992,11.992,0,0,1,2.3,7.033A11.846,11.846,0,0,1,28.667,38.534Z" transform="translate(-2.999 -3.003)" fill="#fff"/>
</svg>
