<svg id="Layer_1" data-name="Layer 1" xmlns="http://www.w3.org/2000/svg" viewBox="0 0 512 457.14"><defs><style>.cls-1{fill:#707070;}.cls-2{fill:#ed2024;}</style></defs><path class="cls-1" d="M390.1,313.9h36.57a12.2,12.2,0,0,0,12.19-12.19V265.14A12.21,12.21,0,0,0,426.67,253H390.1a12.21,12.21,0,0,0-12.2,12.19v36.57A12.21,12.21,0,0,0,390.1,313.9Zm0-48.76h36.57v36.57H390.1Z" transform="translate(0 -27.43)"/><path class="cls-2" d="M317,313.9h36.57a12.19,12.19,0,0,0,12.19-12.19V265.14A12.2,12.2,0,0,0,353.52,253H317a12.21,12.21,0,0,0-12.19,12.19v36.57A12.2,12.2,0,0,0,317,313.9Zm0-48.76h36.57v36.57H317ZM87.64,310.8A6.09,6.09,0,0,0,93,313.9h27.43a6.09,6.09,0,0,0,5.31-3.1l13.72-24.38a6.12,6.12,0,0,0,0-6l-13.72-24.38a6.1,6.1,0,0,0-5.31-3.11H93a6.1,6.1,0,0,0-5.31,3.11L73.93,280.44a6.07,6.07,0,0,0,0,6Zm8.88-45.66h20.3l10.28,18.29-10.28,18.28H96.52L86.23,283.43Zm70.36-9.08-13.72,24.38a6.12,6.12,0,0,0,0,6l13.72,24.38a6.09,6.09,0,0,0,5.31,3.1h27.43a6.09,6.09,0,0,0,5.31-3.1l13.72-24.38a6.12,6.12,0,0,0,0-6l-13.72-24.38a6.1,6.1,0,0,0-5.31-3.11H172.19A6.1,6.1,0,0,0,166.88,256.06Zm29.17,9.08,10.29,18.29-10.29,18.28H175.76l-10.29-18.28,10.29-18.29Z" transform="translate(0 -27.43)"/><path class="cls-1" d="M127.26,243.75a6.1,6.1,0,0,0,5.31,3.11H160a6.1,6.1,0,0,0,5.31-3.11L179,219.37a6.12,6.12,0,0,0,0-6L165.31,189A6.12,6.12,0,0,0,160,185.9H132.57a6.12,6.12,0,0,0-5.31,3.11l-13.71,24.38a6.07,6.07,0,0,0,0,6Zm8.88-45.65h20.29l10.29,18.28-10.29,18.29H136.14l-10.29-18.29Z" transform="translate(0 -27.43)"/><circle class="cls-1" cx="6.1" cy="408.38" r="6.1"/><path class="cls-1" d="M33.52,429.71H24.38a6.1,6.1,0,0,0,0,12.19h9.14a6.1,6.1,0,1,0,0-12.19Zm454.1,0h-9.14a6.1,6.1,0,1,0,0,12.19h9.14a6.1,6.1,0,0,0,0-12.19Z" transform="translate(0 -27.43)"/><circle class="cls-1" cx="505.9" cy="408.38" r="6.1"/><path class="cls-2" d="M360.09,454.1H334.77a6.11,6.11,0,0,0,0,12.19h25.32a6.11,6.11,0,0,0,0-12.19Zm-182.86,0H151.91a6.11,6.11,0,0,0,0,12.19h25.32a6.11,6.11,0,0,0,0-12.19Zm139.72,0H195.05a6.1,6.1,0,1,0,0,12.19h48.58v6.09h-24.2a6.1,6.1,0,1,0,0,12.19h76.19a6.1,6.1,0,0,0,0-12.19H268.37v-6.09H317a6.1,6.1,0,1,0,0-12.19Z" transform="translate(0 -27.43)"/><path class="cls-1" d="M459.34,429.71H304.74a12.27,12.27,0,0,0-1.73-6.32l-36.27-60.72h166a18.29,18.29,0,1,0,0-36.57H79.24a18.29,18.29,0,1,0,0,36.57h166L209,423.39a12.27,12.27,0,0,0-1.73,6.32H52.66a6.15,6.15,0,1,0-1.59,12.19,6,6,0,0,0,1.59,0H459.34a6.15,6.15,0,1,0,1.59-12.19,7,7,0,0,0-1.59,0ZM79.24,350.48a6.1,6.1,0,1,1,0-12.19H432.76a6.1,6.1,0,1,1,0,12.19Zm140.21,79.16L256,368.44l36.73,61.27H219.46s0-.06,0-.07ZM217,95.71a9.15,9.15,0,1,0-9.14-9.14A9.14,9.14,0,0,0,217,95.71ZM217,82a4.57,4.57,0,1,1-4.57,4.57A4.56,4.56,0,0,1,217,82ZM426.37,191.71a6.1,6.1,0,1,0,6.09,6.1A6.1,6.1,0,0,0,426.37,191.71Zm0,9.14a3,3,0,1,1,3.05-3A3,3,0,0,1,426.37,200.85Zm-67.05-97.52a6.1,6.1,0,1,0,6.1,6.09A6.09,6.09,0,0,0,359.32,103.33Zm0,9.14a3,3,0,1,1,3.05-3A3,3,0,0,1,359.32,112.47Zm131.81,7.62a6.1,6.1,0,1,0,6.1,6.1A6.1,6.1,0,0,0,491.13,120.09Zm0,9.14a3,3,0,1,1,3.05-3A3,3,0,0,1,491.13,129.23Zm-361.9,17.53a6.1,6.1,0,1,0-6.1,6.09A6.1,6.1,0,0,0,129.23,146.76Zm-9.15,0a3,3,0,1,1,3,3.05A3,3,0,0,1,120.08,146.76Z" transform="translate(0 -27.43)"/><path class="cls-2" d="M24.5,148.32l4.53-6-2.86-1.62-2.9,6.67h-.1l-3-6.63-2.91,1.67,4.48,5.82v.09l-7-.9v3.24l7.06-.91v.1l-4.53,5.82L20,157.42l3.1-6.72h.09l2.87,6.68,3-1.72-4.58-5.72v-.1l7.2.86v-3.24l-7.2.95Zm81.86-105-2.62,3.35,1.57,1,1.79-3.87h.05l1.65,3.84,1.73-1-2.64-3.29v-.06l4.15.5V41.88l-4.15.55v0L110.5,39,108.85,38l-1.67,3.84h-.06L105.42,38l-1.68,1,2.59,3.35v0l-4-.52v1.87l4.07-.52ZM444.1,41.69V38.52l-7.07.93v-.09l4.45-5.85-2.81-1.59-2.85,6.55h-.1L432.83,32,430,33.6l4.4,5.71v.09l-6.88-.88v3.17l6.93-.88v.09L430,46.6l2.67,1.69,3-6.6h.09l2.81,6.55,2.95-1.68L437,40.94v-.09ZM295.55,34l4.14-4.8-2.33-1.52-2.8,5.49h-.09l-2.14-5.75-2.55,1.25,3.48,5.15v.08l-5.87-1.13-.17,2.74,6-.4v.09l-4.13,4.67,2.21,1.59,3-5.51h.08l2.06,5.79L299,40.46l-3.56-5.07v-.08l6,1.1.17-2.74-6.13.43Z" transform="translate(0 -27.43)"/></svg>