<svg xmlns="http://www.w3.org/2000/svg" version="1.1" xmlns:xlink="http://www.w3.org/1999/xlink" width="512" height="512" x="0" y="0" viewBox="0 0 168 168" style="enable-background:new 0 0 512 512" xml:space="preserve" class=""><g><path fill="#707070" d="M128 103h12a4.004 4.004 0 0 0 4-4V87a4.004 4.004 0 0 0-4-4h-12a4.004 4.004 0 0 0-4 4v12a4.004 4.004 0 0 0 4 4zm0-16h12l.003 12H128z" opacity="1" data-original="#2d4356"></path><path fill="#fc6736" d="M104 103h12a4.004 4.004 0 0 0 4-4V87a4.004 4.004 0 0 0-4-4h-12a4.004 4.004 0 0 0-4 4v12a4.004 4.004 0 0 0 4 4zm0-16h12l.003 12H104zM28.757 101.98A2 2 0 0 0 30.5 103h9a2 2 0 0 0 1.743-1.02l4.5-8a1.998 1.998 0 0 0 0-1.96l-4.5-8A2 2 0 0 0 39.5 83h-9a2 2 0 0 0-1.743 1.02l-4.5 8a1.998 1.998 0 0 0 0 1.96zM31.67 87h6.66l3.375 6-3.375 6h-6.66l-3.375-6zM54.757 84.02l-4.5 8a1.998 1.998 0 0 0 0 1.96l4.5 8A2 2 0 0 0 56.5 103h9a2 2 0 0 0 1.743-1.02l4.5-8a1.998 1.998 0 0 0 0-1.96l-4.5-8A2 2 0 0 0 65.5 83h-9a2 2 0 0 0-1.743 1.02zM64.33 87l3.375 6-3.375 6h-6.66l-3.375-6 3.375-6z" opacity="1" data-original="#0bceb2" class=""></path><path fill="#707070" d="M41.757 79.98A2 2 0 0 0 43.5 81h9a2 2 0 0 0 1.743-1.02l4.5-8a1.998 1.998 0 0 0 0-1.96l-4.5-8A2 2 0 0 0 52.5 61h-9a2 2 0 0 0-1.743 1.02l-4.5 8a1.998 1.998 0 0 0 0 1.96zM44.67 65h6.66l3.375 6-3.375 6h-6.66l-3.375-6z" opacity="1" data-original="#2d4356"></path><circle cx="2" cy="143" r="2" fill="#707070" opacity="1" data-original="#2d4356"></circle><path fill="#707070" d="M11 141H8a2 2 0 0 0 0 4h3a2 2 0 0 0 0-4zM160 141h-3a2 2 0 0 0 0 4h3a2 2 0 0 0 0-4z" opacity="1" data-original="#2d4356"></path><circle cx="166" cy="143" r="2" fill="#707070" opacity="1" data-original="#2d4356"></circle><path fill="#fc6736" d="M118.154 149h-8.308a2.006 2.006 0 0 0 0 4h8.308a2.006 2.006 0 0 0 0-4zM58.154 149h-8.308a2.006 2.006 0 0 0 0 4h8.308a2.006 2.006 0 0 0 0-4zM104 149H64a2 2 0 0 0 0 4h15.94v2H72a2 2 0 0 0 0 4h25a2 2 0 0 0 0-4h-8.94v-2H104a2 2 0 0 0 0-4z" opacity="1" data-original="#0bceb2" class=""></path><g fill="#2d4356"><path d="M150.721 141H99.994a4.038 4.038 0 0 0-.568-2.074L87.524 119H142a6 6 0 0 0 0-12H26a6 6 0 0 0 0 12h54.476l-11.902 19.926a4.038 4.038 0 0 0-.568 2.074H17.279a2.017 2.017 0 1 0 0 4H150.72a2.017 2.017 0 1 0 0-4zM26 115a2 2 0 0 1 0-4h116a2 2 0 0 1 0 4zm46.008 25.977 11.995-20.082L96.056 141H72.01c.001-.008-.004-.02-.002-.023zM71.207 31.405a3 3 0 1 0-3-3 3.003 3.003 0 0 0 3 3zm0-4.5a1.5 1.5 0 1 1-1.5 1.5 1.501 1.501 0 0 1 1.5-1.5zM139.902 62.905a2 2 0 1 0 2 2 2.002 2.002 0 0 0-2-2zm0 3a1 1 0 1 1 1-1 1.001 1.001 0 0 1-1 1zM117.902 33.905a2 2 0 1 0 2 2 2.002 2.002 0 0 0-2-2zm0 3a1 1 0 1 1 1-1 1.001 1.001 0 0 1-1 1zM161.152 39.405a2 2 0 1 0 2 2 2.002 2.002 0 0 0-2-2zm0 3a1 1 0 1 1 1-1 1.001 1.001 0 0 1-1 1zM42.402 48.155a2 2 0 1 0-2 2 2.002 2.002 0 0 0 2-2zm-3 0a1 1 0 1 1 1 1 1.001 1.001 0 0 1-1-1z" fill="#707070" opacity="1" data-original="#2d4356"></path></g><path fill="#fc6736" d="m8.04 48.666 1.487-1.955-.939-.532-.954 2.19h-.032l-.97-2.175-.955.548 1.471 1.909v.031l-2.3-.297v1.063l2.316-.297v.032l-1.487 1.908.892.564 1.018-2.207h.03l.939 2.191.986-.563-1.502-1.878v-.031l2.362.281v-1.063l-2.362.312zM34.898 14.202l-.857 1.099.514.325.586-1.271h.018l.54 1.262.568-.325-.865-1.081v-.018l1.361.162v-.612l-1.361.18v-.018l.856-1.126-.54-.307-.55 1.261h-.018l-.558-1.252-.551.316.848 1.099v.018l-1.325-.171v.612l1.334-.171zM145.719 13.681v-1.043l-2.317.306v-.03l1.459-1.918-.921-.522-.936 2.148h-.032l-.95-2.133-.938.537 1.444 1.873v.03l-2.257-.291v1.043l2.272-.291v.03l-1.459 1.872.875.553.998-2.164h.03l.921 2.149.968-.553-1.474-1.842v-.03zM96.978 11.162l1.359-1.573-.765-.499-.921 1.799-.027-.002L95.92 9l-.836.412 1.142 1.69-.002.026-1.927-.372-.056.898 1.972-.129-.002.027-1.356 1.533.723.523.976-1.81.026.002.677 1.899.863-.423-1.17-1.665.002-.026 1.98.362.056-.899-2.011.14z" opacity="1" data-original="#0bceb2" class=""></path></g></svg>