<svg xmlns="http://www.w3.org/2000/svg" viewBox="0 0 34.11 34.14"><defs><style>.cls-1{fill:#ec1f24;fill-rule:evenodd;}</style></defs><g id="Layer_2" data-name="Layer 2"><g id="Group_5775" data-name="Group 5775"><path id="Path_353" data-name="Path 353" class="cls-1" d="M12.08,25.08l-8.4,8.39a2.13,2.13,0,0,1-3.1-2.92l.09-.09,8.39-8.39a13.86,13.86,0,1,1,3,3M20.24,4.27a9.6,9.6,0,1,0,9.6,9.6h0a9.61,9.61,0,0,0-9.6-9.6"/><path id="Path_354" data-name="Path 354" class="cls-1" d="M20.4,24.39A10.4,10.4,0,1,0,10,14a10.39,10.39,0,0,0,10.4,10.4h0m9.74-10.9-.06,0-.32-.1a4.7,4.7,0,0,1-.63-.22,4.69,4.69,0,0,1,1,0c0,.1,0,.2,0,.3M27.21,7a9.74,9.74,0,0,1,2.88,5.84c-1.29-.15-1.34.12-1.35.23-.06.32.42.45.93.6l.3.09h0l-.16.21a1.44,1.44,0,0,0-.18.25,2.7,2.7,0,0,1-1.24.36c-.13,0-.42-.55-.56-.8-.26-.47-.4-.73-.62-.69a.23.23,0,0,0-.17.12c-.09.18.05.46.35,1,.1.19.2.39.29.58.29.64,1.1.61,1.49.57a1.31,1.31,0,0,1-.39.42,3.14,3.14,0,0,0-1.11,1.7,5.42,5.42,0,0,1-1.18,2.28c-.65.85-.71.82-1,.68a1.23,1.23,0,0,0-.23-.11c-.31-.14-.3-.69-.29-1.22,0-.19,0-.38,0-.55a3.67,3.67,0,0,1,0-.74,1.93,1.93,0,0,0,0-.48,1,1,0,0,0-.21-.51.83.83,0,0,1-.18-.42c0-.31-.08-.89-.62-.89h0l-.39,0a4.69,4.69,0,0,1-1.4,0c-.52-.13-.77-1.17-.66-1.6a1.18,1.18,0,0,1,.5-.75l0,0a2.25,2.25,0,0,0,.47-.67l.07-.12c.07-.12.72-.18,1-.21l.45-.06c.08,0,.11,0,.23.36,0,.08.05.17.09.26a.41.41,0,0,0,.24.24,1.48,1.48,0,0,0,1-.16.43.43,0,0,1,.35-.05,4,4,0,0,0,1.34,0,.16.16,0,0,0,.14-.17v-.75a.16.16,0,0,0-.16-.16h0s-.42,0-.72,0c-.12,0-.24-.31-.28-.51a.16.16,0,0,0-.19-.13.13.13,0,0,0-.1.06,3,3,0,0,1-.21.26c0-.05,0-.12-.06-.16-.11-.33-.19-.53-.35-.59a.24.24,0,0,0-.2,0c-.24.15-.14.37-.08.49a.73.73,0,0,1,.08.25.18.18,0,0,1,0,.16.54.54,0,0,1-.38.15s0-.06,0-.08a.65.65,0,0,0-.08-.59.44.44,0,0,0-.29-.14c-.41,0-1,.48-1.19.63a.59.59,0,0,1-.55.17h-.16a.72.72,0,0,1-.11-.62v0a.6.6,0,0,1,.3.12.15.15,0,0,0,.19,0c.25-.2.23-.31.23-.35a.19.19,0,0,0-.05-.1.86.86,0,0,1,.1-.38l0,0c.41,0,1-.88,1.11-1.08l.1.09a.83.83,0,0,0,.55.29c.5,0,.82-.74.86-1.12a.48.48,0,0,0-.09-.38L25.58,8c0-.43-.14-.69-.26-.77a.21.21,0,0,0-.17,0c-.24.06-.39.48-.43,1.24a.31.31,0,0,1-.07.21c-.07.05-.27,0-.42-.05L24,8.54a.19.19,0,0,1-.14-.11,1.39,1.39,0,0,1,.07-1,1.83,1.83,0,0,1,1.88-.72c.33.06.33.18.34.36s0,.4.33.46.59-.24.76-.52M24.46,12a.3.3,0,0,0,.26.09.9.9,0,0,0,.64-.26.55.55,0,0,0,.1-.22c.06.14.12.22.24.22s.13,0,.32-.2c.08.22.24.45.49.46s.43,0,.58,0v.44a3.42,3.42,0,0,1-1,0,.75.75,0,0,0-.65.06,1.26,1.26,0,0,1-.69.14.09.09,0,0,1-.06-.06l-.09-.24c-.08-.26-.19-.59-.49-.59l-.12,0a2.87,2.87,0,0,1-.41,0l-.35,0a1.77,1.77,0,0,0,.17-.12,1.8,1.8,0,0,1,.95-.55l.06,0c.06.07,0,.17,0,.31a.46.46,0,0,0,0,.38M24.52,9a.48.48,0,0,0,.31-.08A.55.55,0,0,0,25,8.47a3,3,0,0,1,.14-.83,4.89,4.89,0,0,1,.09.53.15.15,0,0,0,.16.15h0a.21.21,0,0,1,0,.11c0,.3-.29.84-.54.84s-.22-.1-.33-.2L24.52,9M19.79,4.26H20l-.39.25c.09-.09.15-.17.21-.24m.87,0a10.08,10.08,0,0,1,1.91.24v.06a7,7,0,0,1-1.85,2.94,3.47,3.47,0,0,0-1,1.13.61.61,0,0,1-.3.33l-.05,0a2.45,2.45,0,0,1,0-.81c0-.13,0-.24,0-.32a1,1,0,0,1,.07-.29.9.9,0,0,0-.15-1,.3.3,0,0,1-.08-.16c0-.06.13-.13.2-.19s.23-.14.23-.27a.82.82,0,0,0-.13-.37,1.85,1.85,0,0,1-.18-.44,3.69,3.69,0,0,1,1.28-.89m-1.34.06-.3.32a5.3,5.3,0,0,0-.8,1c-.09.18-.13.19-.13.19a.44.44,0,0,1-.19-.07,2.49,2.49,0,0,0-.6-.2,3.89,3.89,0,0,1-1.05-.33,9.45,9.45,0,0,1,3.08-.87M10.65,14a9.76,9.76,0,0,1,3.93-7.82.55.55,0,0,1,.28.09.14.14,0,0,1,.06.11c0,.06,0,.12,0,.16,0,.34.06.5.43.5a2.74,2.74,0,0,0,1-.3.31.31,0,0,0,0,.13.26.26,0,0,0,.21.16.76.76,0,0,0,.3,0l-.47.32c-.6.39-1.16.76-1.13,1.13a1,1,0,0,0,.21.64l.06.07a.21.21,0,0,0,.18.09c.12,0,.18-.11.25-.23s.16-.25.23-.23c.31.1.5-.25.66-.54A1.81,1.81,0,0,1,17.05,8a1.57,1.57,0,0,1,.22.45c.09.25.18.48.4.42l.11,0c.09,0,.23-.09.3-.05s.11.16.13.34a4.08,4.08,0,0,0,.17.77,1.09,1.09,0,0,1,.09.5.2.2,0,0,1-.11,0c-.18,0-.23-.08-.32-.3s-.18-.46-.5-.36a.32.32,0,0,1-.28-.07.2.2,0,0,0-.24,0c-.1.08-.07.16,0,.41l.11.26a1.17,1.17,0,0,1,.09.24l-.08,0h-.32a1.31,1.31,0,0,0-1.16.35,4.89,4.89,0,0,0-.75,1.31,3.07,3.07,0,0,1-.44.84c-.09,0-.25-.1-.39-.22a.84.84,0,0,0-.5-.26s-1,0-1.32.47a.56.56,0,0,0,0,.53.53.53,0,0,0,.3.32.77.77,0,0,0,.63-.2l.09-.05a.58.58,0,0,1,0,.14.47.47,0,0,0,0,.52,1.1,1.1,0,0,0,.36.35l.08,0-.08.08a.31.31,0,0,0-.14.28.24.24,0,0,0,.16.2,1.34,1.34,0,0,0,.44.1,1.11,1.11,0,0,1-.64.13.46.46,0,0,1-.33-.23,1.14,1.14,0,0,1-.18-.44c-.07-.35-.17-.51-.89-.72a2.48,2.48,0,0,0-.94-.06c-.22,0-.35,0-.42,0V14m.45.43a2.06,2.06,0,0,1,.82.05c.6.18.62.27.67.48a1.48,1.48,0,0,0,.21.54.79.79,0,0,0,.56.38l.16,0a1.77,1.77,0,0,0,1-.36.18.18,0,0,0,.09-.22c0-.15-.2-.18-.45-.2l-.28,0a.43.43,0,0,0,.16-.29.39.39,0,0,0-.23-.33.67.67,0,0,1-.26-.24c-.06-.1,0-.12,0-.2a.64.64,0,0,0,.06-.45.27.27,0,0,0-.14-.19c-.14,0-.27,0-.43.13s-.27.18-.35.16-.08-.09-.1-.13a.21.21,0,0,1,0-.24c.16-.23.76-.32,1-.32a.79.79,0,0,1,.29.19c.2.16.44.36.7.26s.36-.4.63-1a4.82,4.82,0,0,1,.68-1.21,1,1,0,0,1,.91-.26,1.86,1.86,0,0,0,.41,0,.42.42,0,0,0,.3-.19c.08-.14,0-.3-.08-.52l-.06-.13a.65.65,0,0,0,.24,0h0a.53.53,0,0,1,.08.17c.08.2.2.54.64.51a.45.45,0,0,0,.37-.18c.13-.19.05-.45-.05-.78a3.38,3.38,0,0,1-.16-.7.72.72,0,0,0-.28-.6.68.68,0,0,0-.59,0h0l-.08-.2a1.37,1.37,0,0,0-.35-.62A.26.26,0,0,0,17,7.64c-.18,0-.29.24-.42.47s-.2.38-.27.39c-.32-.11-.51.19-.6.35a.72.72,0,0,1-.11-.41c0-.18.64-.61,1-.84a3.1,3.1,0,0,0,.83-.66c0-.07.13-.22,0-.33s-.23-.06-.38,0a1.12,1.12,0,0,1-.4.1.7.7,0,0,1,.11-.21c0-.07.11-.19,0-.29a.21.21,0,0,0-.28,0,3,3,0,0,1-1.15.45h-.08s0-.12,0-.19,0-.1,0-.16A.52.52,0,0,0,15.07,6l-.14-.08c.32-.21.65-.41,1-.59a2.87,2.87,0,0,0,1.32.49,2.55,2.55,0,0,1,.53.18.75.75,0,0,0,.32.1c.15,0,.28-.09.42-.37A3.74,3.74,0,0,1,19.08,5a.26.26,0,0,0,0,.15,2.11,2.11,0,0,0,.22.54,1.3,1.3,0,0,1,.08.17l-.06,0a.64.64,0,0,0-.36.41.56.56,0,0,0,.15.43.58.58,0,0,1,.09.66,1.09,1.09,0,0,0-.08.39c0,.07,0,.18,0,.3-.06.56-.07,1,.15,1.12a.34.34,0,0,0,.17.05.73.73,0,0,0,.21-.06A.94.94,0,0,0,20,8.77a3.15,3.15,0,0,1,.89-1,7.19,7.19,0,0,0,2-3.17A9.8,9.8,0,0,1,27,6.78c-.14.24-.32.46-.46.43s-.06,0-.06-.15,0-.56-.6-.67a2.13,2.13,0,0,0-2.25.93,1.62,1.62,0,0,0-.05,1.26.57.57,0,0,0,.36.28l.22.05A.33.33,0,0,0,24,9a2.51,2.51,0,0,1-.83.94c-.2,0-.37.18-.44.48a.67.67,0,0,0,0,.37h0a.66.66,0,0,0-.48-.07A.33.33,0,0,0,22,11a1.09,1.09,0,0,0,.15.86.36.36,0,0,0,.28.16h.18a.58.58,0,0,0-.28.21l-.07.12a2,2,0,0,1-.4.57l0,0a1.53,1.53,0,0,0-.61.92c-.13.58.15,1.81.9,2a4.78,4.78,0,0,0,1.51,0l.36,0c.18,0,.26.09.3.59a1.1,1.1,0,0,0,.23.57.69.69,0,0,1,.16.37,1.79,1.79,0,0,1,0,.4,3.57,3.57,0,0,0,0,.8c0,.16,0,.33,0,.52,0,.61,0,1.31.49,1.53l.2.1a.89.89,0,0,0,.39.12c.25,0,.5-.23,1-.9A5.69,5.69,0,0,0,28,17.58a2.77,2.77,0,0,1,1-1.5c.36-.26.63-.68.56-.9a.21.21,0,0,0-.19-.13h-.1c-.26,0-1.05.13-1.27-.36l-.06-.11c.17.22.33.36.52.34.87-.13,1.37-.3,1.49-.54a1.15,1.15,0,0,1,.14-.19l.07-.09a9.75,9.75,0,0,1-19.49.3,1.29,1.29,0,0,0,.44,0"/><path id="Path_355" data-name="Path 355" class="cls-1" d="M14.54,17.66a1.58,1.58,0,0,1,1.05,1.28,8.52,8.52,0,0,0,1.55,3.39,1.22,1.22,0,0,0,.87.6.42.42,0,0,0,.29-.12.37.37,0,0,0,.11-.27c0-.07,0-.16,0-.24a2.42,2.42,0,0,0,0-.76c-.08-.43-.08-.63,0-.78a.28.28,0,0,1,.12-.05.32.32,0,0,0,.24-.14.3.3,0,0,0,0-.26,1.22,1.22,0,0,0-.07-.17c-.07-.19-.11-.28,0-.45a4.18,4.18,0,0,0,.81-1.6,1.69,1.69,0,0,1,.15-.43.89.89,0,0,0,.12-.71.55.55,0,0,0-.39-.29,4.28,4.28,0,0,1-1.24-.72,5.94,5.94,0,0,0-.52-.35,4,4,0,0,0-1.31-.41l-.34-.24a1.24,1.24,0,0,0-.63-.33.36.36,0,0,0-.32.2,4.22,4.22,0,0,1-.73.95,3,3,0,0,1-.3.23c-.25.16-.5.32-.54.6a.76.76,0,0,0,.27.58,3.38,3.38,0,0,0,.75.5m-.3-1.41L14.6,16a4.41,4.41,0,0,0,.79-1s0,0,0,0a1.18,1.18,0,0,1,.43.26l.4.27.06,0a4.5,4.5,0,0,1,1.23.38c.14.08.31.2.49.33a4.58,4.58,0,0,0,1.34.77c.07,0,.16.06.18.11s0,.28-.12.44a2.47,2.47,0,0,0-.18.52,3.58,3.58,0,0,1-.73,1.44.64.64,0,0,0-.09.78s0,.09,0,.13h0a.46.46,0,0,0-.33.2,1.44,1.44,0,0,0-.06,1,2.16,2.16,0,0,1,0,.67c0,.1,0,.19,0,.28s0,0,0,0a.07.07,0,0,1-.07,0c-.12,0-.34-.12-.6-.47a8.13,8.13,0,0,1-1.49-3.24,1.92,1.92,0,0,0-1.23-1.52,2.62,2.62,0,0,1-.66-.44c-.09-.09-.19-.21-.18-.31s.2-.25.39-.37"/><path id="Path_356" data-name="Path 356" class="cls-1" d="M18.62,6.12a.16.16,0,0,0-.21-.06.73.73,0,0,0-.4.61c0,.08-.12.23-.2.34s-.38.47-.13.68a.38.38,0,0,0,.25.08,1,1,0,0,0,.76-.48,1.12,1.12,0,0,0-.06-1.17m-.22,1a.62.62,0,0,1-.49.32h0a1.19,1.19,0,0,1,.16-.23.91.91,0,0,0,.28-.54.31.31,0,0,1,.09-.22.75.75,0,0,1,0,.67"/><path id="Path_357" data-name="Path 357" class="cls-1" d="M21.41,9a.61.61,0,0,0,.3-.08c.64-.32.57-1.32.56-1.37a.14.14,0,0,0-.07-.11.14.14,0,0,0-.13,0c-.14,0-.86.23-1,.59a.88.88,0,0,0,0,.79.42.42,0,0,0,.37.21m-.09-.86A1.37,1.37,0,0,1,22,7.82c0,.26-.08.7-.38.85a.49.49,0,0,1-.16.05.11.11,0,0,1-.1-.06.57.57,0,0,1,0-.48"/></g></g></svg>