<svg id="search-image" xmlns="http://www.w3.org/2000/svg" xmlns:xlink="http://www.w3.org/1999/xlink" width="426.83" height="413.447" viewBox="0 0 426.83 413.447">
  <defs>
    <clipPath id="clip-path">
      <rect id="Rectangle_16" data-name="Rectangle 16" width="426.83" height="413.447" fill="none"/>
    </clipPath>
    <clipPath id="clip-path-6">
      <rect id="Rectangle_9" data-name="Rectangle 9" width="28.79" height="81.802" fill="none"/>
    </clipPath>
    <clipPath id="clip-path-8">
      <rect id="Rectangle_12" data-name="Rectangle 12" width="2.964" height="3.132" fill="none"/>
    </clipPath>
    <clipPath id="clip-path-9">
      <rect id="Rectangle_13" data-name="Rectangle 13" width="67.63" height="10.169" fill="none"/>
    </clipPath>
  </defs>
  <g id="Group_22" data-name="Group 22" clip-path="url(#clip-path)">
    <g id="Group_2" data-name="Group 2">
      <g id="Group_1" data-name="Group 1" clip-path="url(#clip-path)">
        <path id="Path_1" data-name="Path 1" d="M66.763,49.061A33.381,33.381,0,1,0,4.608,65.925H4.59l.095.125c1.28,2.158,2.884,3.7,4.5,5.966L28.571,97.692a6.028,6.028,0,0,0,9.622,0L57.251,72.44A71.752,71.752,0,0,0,62.1,66.017l.07-.091h-.014a33.185,33.185,0,0,0,4.607-16.865M33.382,63.6A14.691,14.691,0,1,1,48.073,48.9,14.691,14.691,0,0,1,33.382,63.6" transform="translate(0 -1.358)" fill="#f5f5f5"/>
        <path id="Path_2" data-name="Path 2" d="M464.5,272.489a14.716,14.716,0,1,0-27.4,7.435h-.008l.042.055c.565.951,1.271,1.631,1.986,2.631l8.544,11.318a2.657,2.657,0,0,0,4.242,0l8.4-11.132a31.86,31.86,0,0,0,2.136-2.832l.031-.04h-.006a14.625,14.625,0,0,0,2.031-7.435M449.781,278.9a6.477,6.477,0,1,1,6.476-6.476,6.476,6.476,0,0,1-6.476,6.476" transform="translate(-37.667 -22.318)" fill="#f5f5f5"/>
        <path id="Path_3" data-name="Path 3" d="M416.566,368.942A36.847,36.847,0,1,1,379.718,332.1a36.848,36.848,0,0,1,36.847,36.847" transform="translate(-29.685 -28.752)" fill="#f5f5f5"/>
        <path id="Path_4" data-name="Path 4" d="M380.3,400.2a30.669,30.669,0,1,1,30.669-30.668A30.7,30.7,0,0,1,380.3,400.2m0-56.089a25.42,25.42,0,1,0,25.421,25.421A25.449,25.449,0,0,0,380.3,344.108" transform="translate(-30.271 -29.338)" fill="#fff"/>
        <path id="Path_5" data-name="Path 5" d="M381.915,381.773a11.295,11.295,0,1,1,11.3-11.294,11.308,11.308,0,0,1-11.3,11.294m0-17.341a6.046,6.046,0,1,0,6.047,6.047,6.054,6.054,0,0,0-6.047-6.047" transform="translate(-32.088 -31.098)" fill="#fff"/>
        <path id="Path_6" data-name="Path 6" d="M378.684,371.548H364.406l2.489,4.4-33.6,15.4,1.134,1.889,33.717-15.222,2.311,4.374Z" transform="translate(-28.856 -32.168)" fill="#e0e0e0"/>
        <path id="Path_7" data-name="Path 7" d="M331.354,393.015l-.356-.347A6.827,6.827,0,0,0,324.325,391l-13.4,3.9,7.464,3.279-3,7.975,12.576-4.485a6.827,6.827,0,0,0,4.525-6.769Z" transform="translate(-26.919 -33.829)" fill="#e0e0e0"/>
        <path id="Path_8" data-name="Path 8" d="M152.914,396.483a2.552,2.552,0,0,1,.276-.09l.793-.232,3.054-.871,11.422-3.206-.1.184c-.585-1.957-1.241-4.152-1.944-6.505l-.033-.108.091-.076a36.7,36.7,0,0,0,7.964-9.374,25.765,25.765,0,0,0,2.667-6.385,18.692,18.692,0,0,0,.431-7.308,23.059,23.059,0,0,0-7.507-13.7,27.615,27.615,0,0,0-15.549-6.693,22.771,22.771,0,0,0-12.488,2.5,24.955,24.955,0,0,0-9.3,7.828,22.53,22.53,0,0,0-4,10.633c-.055.92-.2,1.826-.178,2.727s.051,1.794.077,2.675a27.562,27.562,0,0,0,.913,5.063,23.666,23.666,0,0,0,1.858,4.494,22.22,22.22,0,0,0,2.634,3.735,24.685,24.685,0,0,0,6.361,5.133,32.855,32.855,0,0,0,11.33,3.917l.065.01.013.059q.57,2.717.871,4.149c.092.456.163.808.216,1.069a3.507,3.507,0,0,1,.066.374,2.658,2.658,0,0,1-.091-.334c-.062-.253-.145-.6-.253-1.04l-.984-4.177.078.069a32.382,32.382,0,0,1-11.463-3.826,24.869,24.869,0,0,1-6.481-5.161,22.562,22.562,0,0,1-2.7-3.787,23.988,23.988,0,0,1-1.913-4.567,27.893,27.893,0,0,1-.949-5.143q-.044-1.341-.088-2.715c-.024-.915.12-1.839.173-2.773A22.946,22.946,0,0,1,132.3,352.17a25.388,25.388,0,0,1,9.471-8,23.23,23.23,0,0,1,12.752-2.554,28.057,28.057,0,0,1,15.83,6.826,22.781,22.781,0,0,1,5.126,6.5,13.906,13.906,0,0,1,.871,1.825,12.922,12.922,0,0,1,.718,1.864c.193.634.4,1.259.576,1.889q.173.969.343,1.926a19.089,19.089,0,0,1-.463,7.481,26.056,26.056,0,0,1-2.736,6.483,36.823,36.823,0,0,1-8.1,9.437l.058-.184,1.9,6.519.042.145-.144.038-11.552,3.071-3.041.794-.775.2a1.608,1.608,0,0,1-.255.055" transform="translate(-11.088 -29.568)" fill="#e0e0e0"/>
        <path id="Path_9" data-name="Path 9" d="M172.355,401.7a69.083,69.083,0,0,1-7.939,2.432,69.052,69.052,0,0,1-8.072,1.95,69.469,69.469,0,0,1,7.94-2.432,69.227,69.227,0,0,1,8.071-1.95" transform="translate(-13.536 -34.778)" fill="#e0e0e0"/>
        <path id="Path_10" data-name="Path 10" d="M169.469,409.882a10.051,10.051,0,0,1-5.694,1.366,13.942,13.942,0,0,1,2.833-.744,13.957,13.957,0,0,1,2.862-.622" transform="translate(-14.179 -35.485)" fill="#e0e0e0"/>
        <path id="Path_11" data-name="Path 11" d="M157.948,397.735a1.128,1.128,0,0,1-.089-.26c-.056-.2-.125-.457-.212-.775-.185-.719-.442-1.72-.769-2.991-.654-2.639-1.587-6.394-2.735-11.019l-1.864-7.614a5.283,5.283,0,0,0-.8-1.884,1.334,1.334,0,0,0-1.666-.554,1.939,1.939,0,0,0-.859,1.741,2.983,2.983,0,0,0,.815,1.967,4.816,4.816,0,0,0,4.227,1.4,4.92,4.92,0,0,0,3.7-2.806,7.351,7.351,0,0,0,.529-4.954,4.39,4.39,0,0,0-1.135-2.234,1.805,1.805,0,0,0-2.189-.3,1.834,1.834,0,0,0-.412,2.179,4.953,4.953,0,0,0,1.705,1.87,9.2,9.2,0,0,0,4.671,1.927,5.184,5.184,0,0,0,2.4-.359,4.85,4.85,0,0,0,1.868-1.455,3.8,3.8,0,0,0,.843-2.12,2.749,2.749,0,0,0-.691-2.047,1.857,1.857,0,0,0-1.873-.644,2.274,2.274,0,0,0-1.387,1.444c-.453,1.345-.053,2.841.108,4.215.442,2.777.94,5.354,1.395,7.707.943,4.669,1.709,8.461,2.247,11.125l.612,3.025c.061.324.11.584.149.789a1.108,1.108,0,0,1,.034.272,1.106,1.106,0,0,1-.084-.261c-.051-.2-.116-.459-.2-.778l-.7-3.005c-.594-2.614-1.44-6.4-2.4-11.1-.478-2.35-1-4.924-1.458-7.711-.1-.7-.223-1.4-.3-2.142a5.3,5.3,0,0,1,.185-2.288,2.711,2.711,0,0,1,1.672-1.726,2.311,2.311,0,0,1,2.341.765,3.214,3.214,0,0,1,.819,2.383,4.265,4.265,0,0,1-.934,2.387,5.329,5.329,0,0,1-2.052,1.607,5.663,5.663,0,0,1-2.624.4A9.668,9.668,0,0,1,155.9,371.9a5.418,5.418,0,0,1-1.866-2.071,2.319,2.319,0,0,1,.578-2.783,2.293,2.293,0,0,1,2.819.343,4.865,4.865,0,0,1,1.282,2.485,7.832,7.832,0,0,1-.576,5.291,5.4,5.4,0,0,1-4.075,3.057,5.277,5.277,0,0,1-4.639-1.57,3.437,3.437,0,0,1-.92-2.275,2.361,2.361,0,0,1,1.115-2.132,1.6,1.6,0,0,1,1.256-.058,2.061,2.061,0,0,1,.945.749,5.671,5.671,0,0,1,.863,2.047l1.806,7.629c1.083,4.64,1.962,8.408,2.58,11.055l.677,3.012c.067.322.121.581.163.786a1.1,1.1,0,0,1,.039.271" transform="translate(-12.857 -31.712)" fill="#e0e0e0"/>
        <path id="Path_12" data-name="Path 12" d="M172,405.442a45.629,45.629,0,0,1-6.43,2.016,45.611,45.611,0,0,1-6.563,1.534,45.81,45.81,0,0,1,6.43-2.016A45.5,45.5,0,0,1,172,405.442" transform="translate(-13.767 -35.101)" fill="#e0e0e0"/>
      </g>
    </g>
    <g id="Group_4" data-name="Group 4">
      <g id="Group_3" data-name="Group 3" clip-path="url(#clip-path)">
        <path id="Path_13" data-name="Path 13" d="M408.159,451.6c0,.132-87.172.237-194.68.237-107.545,0-194.7-.106-194.7-.237s87.153-.237,194.7-.237c107.508,0,194.68.106,194.68.237" transform="translate(-1.626 -39.078)" fill="#263238"/>
      </g>
    </g>
    <rect id="Rectangle_3" data-name="Rectangle 3" width="357.013" height="22.87" transform="translate(33.435 45.091)" fill="#e0e0e0"/>
    <rect id="Rectangle_4" data-name="Rectangle 4" width="357.013" height="200.221" transform="translate(33.382 88.972)" fill="#fff9f9"/>
    <path id="Path_14" data-name="Path 14" d="M36.6,72.876H85.622L90.48,58.73h79.46L174.8,72.876H393.616V94.534H36.6Z" transform="translate(-3.169 -5.085)" fill="#ebebeb"/>
    <g id="Group_6" data-name="Group 6">
      <g id="Group_5" data-name="Group 5" clip-path="url(#clip-path)">
        <path id="Path_15" data-name="Path 15" d="M48.994,59.094a2.683,2.683,0,1,1-2.683-2.683,2.683,2.683,0,0,1,2.683,2.683" transform="translate(-3.777 -4.884)" fill="#263238"/>
        <path id="Path_16" data-name="Path 16" d="M58.084,59.094A2.683,2.683,0,1,1,55.4,56.411a2.683,2.683,0,0,1,2.683,2.683" transform="translate(-4.564 -4.884)" fill="#263238"/>
        <path id="Path_17" data-name="Path 17" d="M67.174,59.094a2.683,2.683,0,1,1-2.683-2.683,2.683,2.683,0,0,1,2.683,2.683" transform="translate(-5.351 -4.884)" fill="#263238"/>
        <path id="Path_18" data-name="Path 18" d="M360.394,91.924H115.459a6.8,6.8,0,1,1,0-13.6H360.394a6.8,6.8,0,0,1,0,13.6" transform="translate(-9.408 -6.782)" fill="#fafafa"/>
        <path id="Path_19" data-name="Path 19" d="M122.133,86.455v2.3H120.97V86.634c0-.649-.3-.947-.813-.947-.559,0-.962.343-.962,1.081v1.983h-1.164V83.219H119.2v1.939a1.757,1.757,0,0,1,1.275-.478,1.573,1.573,0,0,1,1.662,1.775" transform="translate(-10.219 -7.205)" fill="#e0e0e0"/>
        <path id="Path_20" data-name="Path 20" d="M126.217,88.618a1.661,1.661,0,0,1-.947.254,1.323,1.323,0,0,1-1.5-1.44V85.785h-.618v-.9h.618v-.976h1.164v.976h1v.9h-1v1.633a.468.468,0,0,0,.5.53.782.782,0,0,0,.47-.15Z" transform="translate(-10.662 -7.265)" fill="#e0e0e0"/>
        <path id="Path_21" data-name="Path 21" d="M129.671,88.618a1.661,1.661,0,0,1-.947.254,1.323,1.323,0,0,1-1.5-1.44V85.785h-.618v-.9h.618v-.976h1.164v.976h1v.9h-1v1.633a.468.468,0,0,0,.5.53.782.782,0,0,0,.469-.15Z" transform="translate(-10.961 -7.265)" fill="#e0e0e0"/>
        <path id="Path_22" data-name="Path 22" d="M135.051,86.884a1.949,1.949,0,0,1-2,2.065,1.553,1.553,0,0,1-1.208-.485v1.872h-1.164V84.878h1.112v.462a1.557,1.557,0,0,1,1.26-.522,1.948,1.948,0,0,1,2,2.065m-1.178,0a1.025,1.025,0,1,0-1.021,1.111,1.012,1.012,0,0,0,1.021-1.111" transform="translate(-11.314 -7.344)" fill="#e0e0e0"/>
        <path id="Path_23" data-name="Path 23" d="M136.005,85.542a.723.723,0,0,1,1.447,0,.723.723,0,1,1-1.447,0m0,2.677a.723.723,0,0,1,1.447,0,.723.723,0,1,1-1.447,0" transform="translate(-11.775 -7.344)" fill="#e0e0e0"/>
        <path id="Path_24" data-name="Path 24" d="M140.49,82.4h1.037l-2.461,7.024H138.03Z" transform="translate(-11.95 -7.134)" fill="#e0e0e0"/>
        <path id="Path_25" data-name="Path 25" d="M143.1,82.4h1.037l-2.461,7.024h-1.037Z" transform="translate(-12.176 -7.134)" fill="#e0e0e0"/>
        <path id="Path_26" data-name="Path 26" d="M362.643,134.54h-213.4a12.048,12.048,0,1,1,0-24.1h213.4a12.048,12.048,0,1,1,0,24.1" transform="translate(-11.878 -9.562)" fill="#fafafa"/>
        <path id="Path_27" data-name="Path 27" d="M362.622,134.517a12.706,12.706,0,0,0,4.932-1.116,12.123,12.123,0,0,0,6.484-7.338,12.171,12.171,0,0,0,.5-4.412,11.852,11.852,0,0,0-4.947-8.86,11.829,11.829,0,0,0-5.519-2.152,27.966,27.966,0,0,0-3.189-.091l-3.328,0-30.679.036-177.64.069a11.814,11.814,0,0,0-5.524,22.255,12.145,12.145,0,0,0,5.926,1.37l12.374,0,47.165.014,79.863.051,53.841.076,14.638.045,3.806.023c.858.008,1.3.025,1.3.025s-.439.016-1.3.025l-3.806.024-14.638.044-53.841.076-79.863.051-47.165.014-12.374,0a12.612,12.612,0,0,1-6.146-1.422,12.29,12.29,0,0,1,5.745-23.148l177.64.07,30.679.035,3.328,0a28.271,28.271,0,0,1,3.218.1,12.05,12.05,0,0,1,5.622,2.213,12.067,12.067,0,0,1,2.661,17.023,12.032,12.032,0,0,1-4.79,3.857,12.462,12.462,0,0,1-3.673.982c-.859.048-1.3.048-1.3.048" transform="translate(-11.857 -9.539)" fill="#263238"/>
        <path id="Path_28" data-name="Path 28" d="M155.739,125.937l.456-1.009a3.411,3.411,0,0,0,1.912.6c.795,0,1.118-.265,1.118-.621,0-1.084-3.37-.34-3.37-2.492,0-.986.795-1.8,2.442-1.8a3.884,3.884,0,0,1,2.011.513l-.414,1.018a3.274,3.274,0,0,0-1.606-.455c-.8,0-1.1.3-1.1.662,0,1.068,3.37.331,3.37,2.459,0,.968-.8,1.8-2.459,1.8a4.131,4.131,0,0,1-2.359-.67" transform="translate(-13.484 -10.443)" fill="#e0e0e0"/>
        <path id="Path_29" data-name="Path 29" d="M166.229,124.776h-3.37a1.188,1.188,0,0,0,1.275.894,1.512,1.512,0,0,0,1.118-.43l.687.744a2.6,2.6,0,0,1-4.38-1.573,2.268,2.268,0,0,1,2.376-2.294,2.205,2.205,0,0,1,2.318,2.31c0,.1-.016.24-.025.348m-3.386-.754h2.194a1.113,1.113,0,0,0-2.194,0" transform="translate(-13.988 -10.573)" fill="#e0e0e0"/>
        <path id="Path_30" data-name="Path 30" d="M171.423,124.1v2.542h-1.208v-.554a1.463,1.463,0,0,1-1.358.62c-1.043,0-1.663-.579-1.663-1.349,0-.786.554-1.333,1.912-1.333h1.027c0-.554-.331-.878-1.027-.878a2.139,2.139,0,0,0-1.282.414l-.464-.9a3.429,3.429,0,0,1,1.921-.538c1.357,0,2.144.629,2.144,1.978m-1.292,1.134v-.456h-.886c-.6,0-.795.225-.795.522,0,.322.273.538.729.538a.952.952,0,0,0,.952-.6" transform="translate(-14.475 -10.573)" fill="#e0e0e0"/>
        <path id="Path_31" data-name="Path 31" d="M175.87,122.119v1.192c-.108-.008-.191-.016-.29-.016a1.094,1.094,0,0,0-1.184,1.242v2.1H173.1v-4.455h1.233v.588a1.8,1.8,0,0,1,1.532-.654" transform="translate(-14.987 -10.573)" fill="#e0e0e0"/>
        <path id="Path_32" data-name="Path 32" d="M176.569,124.413a2.3,2.3,0,0,1,2.484-2.294,2.045,2.045,0,0,1,1.995,1.134l-1,.538a1.112,1.112,0,0,0-1-.613,1.235,1.235,0,0,0,0,2.467,1.1,1.1,0,0,0,1-.612l1,.546a2.066,2.066,0,0,1-1.995,1.125,2.3,2.3,0,0,1-2.484-2.293" transform="translate(-15.287 -10.573)" fill="#e0e0e0"/>
        <path id="Path_33" data-name="Path 33" d="M186.808,123.935v2.55h-1.292v-2.352c0-.72-.331-1.051-.9-1.051-.62,0-1.068.381-1.068,1.2v2.2h-1.292v-6.144h1.292v2.153a1.958,1.958,0,0,1,1.416-.53,1.746,1.746,0,0,1,1.846,1.97" transform="translate(-15.779 -10.419)" fill="#e0e0e0"/>
        <path id="Path_34" data-name="Path 34" d="M190.743,126.177a.8.8,0,0,1,1.606,0,.8.8,0,1,1-1.606,0" transform="translate(-16.514 -10.855)" fill="#e0e0e0"/>
        <path id="Path_35" data-name="Path 35" d="M193.119,126.177a.8.8,0,0,1,1.606,0,.8.8,0,1,1-1.606,0" transform="translate(-16.72 -10.855)" fill="#e0e0e0"/>
        <path id="Path_36" data-name="Path 36" d="M195.5,126.177a.8.8,0,0,1,1.606,0,.8.8,0,1,1-1.606,0" transform="translate(-16.926 -10.855)" fill="#e0e0e0"/>
        <path id="Path_37" data-name="Path 37" d="M106.366,159.763c0,.132-8.565.237-19.128.237s-19.13-.106-19.13-.237,8.563-.238,19.13-.238,19.128.106,19.128.238" transform="translate(-5.897 -13.811)"/>
        <rect id="Rectangle_5" data-name="Rectangle 5" width="39.75" height="39.75" transform="translate(62.211 156.881)" fill="#ff2a2a"/>
        <path id="Path_38" data-name="Path 38" d="M355.187,181.986c0,.132-49.345.237-110.2.237-60.875,0-110.208-.106-110.208-.237s49.333-.237,110.208-.237c60.853,0,110.2.106,110.2.237" transform="translate(-11.669 -15.736)"/>
        <path id="Path_39" data-name="Path 39" d="M195.273,198.371c0,.132-13,.238-29.038.238s-29.04-.106-29.04-.238,13-.237,29.04-.237,29.038.106,29.038.237" transform="translate(-11.878 -17.154)"/>
        <path id="Path_40" data-name="Path 40" d="M320.166,213.563c0,.132-40.962.237-91.481.237-50.536,0-91.49-.106-91.49-.237s40.954-.237,91.49-.237c50.519,0,91.481.106,91.481.237" transform="translate(-11.878 -18.469)" fill="#e0e0e0"/>
        <path id="Path_41" data-name="Path 41" d="M106.366,237.709c0,.132-8.565.237-19.128.237s-19.13-.106-19.13-.237,8.563-.238,19.13-.238,19.128.106,19.128.238" transform="translate(-5.897 -20.56)"/>
        <rect id="Rectangle_6" data-name="Rectangle 6" width="39.75" height="39.75" transform="translate(62.211 228.08)" fill="#ff2a2a"/>
        <path id="Path_42" data-name="Path 42" d="M368.281,259.932c0,.132-52.275.237-116.744.237-64.492,0-116.756-.106-116.756-.237s52.264-.237,116.756-.237c64.469,0,116.744.106,116.744.237" transform="translate(-11.669 -22.484)"/>
        <path id="Path_43" data-name="Path 43" d="M195.273,276.318c0,.132-13,.238-29.038.238s-29.04-.106-29.04-.238,13-.237,29.04-.237,29.038.106,29.038.237" transform="translate(-11.878 -23.903)"/>
        <path id="Path_44" data-name="Path 44" d="M352.032,291.51c0,.132-48.1.237-107.414.237-59.337,0-107.423-.106-107.423-.237s48.086-.237,107.423-.237c59.317,0,107.414.106,107.414.237" transform="translate(-11.878 -25.218)" fill="#e0e0e0"/>
        <path id="Path_45" data-name="Path 45" d="M393.594,293.922c0-1.566-.075-95.72-.191-244.58l.191.192L36.61,49.581h-.028l.237-.238c-.007,87.3-.015,170.25-.021,244.58l-.216-.217,357.013.217-357.013.217h-.217v-.217c-.006-74.33-.014-157.28-.021-244.58v-.237h.267l356.984.047h.191v.191c-.116,148.859-.19,243.015-.191,244.58" transform="translate(-3.147 -4.251)" fill="#263238"/>
        <path id="Path_46" data-name="Path 46" d="M166.69,68.743c0,.132-12.605.237-28.152.237s-28.154-.106-28.154-.237,12.6-.237,28.154-.237,28.152.106,28.152.237" transform="translate(-9.557 -5.931)"/>
        <rect id="Rectangle_7" data-name="Rectangle 7" width="50.003" height="15.062" transform="translate(56.339 107.77)" fill="#455a64"/>
        <path id="Path_47" data-name="Path 47" d="M206.77,161.151c0,.132-15.548.237-34.723.237s-34.726-.106-34.726-.237,15.545-.237,34.726-.237,34.723.106,34.723.237" transform="translate(-11.889 -13.932)" fill="#ff2a2a"/>
        <path id="Path_48" data-name="Path 48" d="M206.77,237.709c0,.132-15.548.237-34.723.237s-34.726-.106-34.726-.237,15.545-.238,34.726-.238,34.723.106,34.723.238" transform="translate(-11.889 -20.56)" fill="#ff2a2a"/>
        <path id="Path_49" data-name="Path 49" d="M378.433,126.922a5.8,5.8,0,1,1,5.8-5.8,5.81,5.81,0,0,1-5.8,5.8m0-10.694a4.89,4.89,0,1,0,4.89,4.89,4.9,4.9,0,0,0-4.89-4.89" transform="translate(-32.262 -9.984)" fill="#ff2a2a"/>
        <path id="Path_50" data-name="Path 50" d="M386.387,130.4a.459.459,0,0,1-.323-.132l-3.781-3.755a.457.457,0,1,1,.643-.649l3.783,3.755a.457.457,0,0,1,0,.647.449.449,0,0,1-.322.134" transform="translate(-33.086 -10.885)" fill="#ff2a2a"/>
        <path id="Path_51" data-name="Path 51" d="M275.471,197.246c0,.132-14.958.238-33.406.238s-33.409-.106-33.409-.238,14.955-.237,33.409-.237,33.406.106,33.406.237" transform="translate(-18.065 -17.057)"/>
        <path id="Path_52" data-name="Path 52" d="M325.756,196.121c0,.132-7.824.237-17.474.237s-17.476-.106-17.476-.237,7.823-.238,17.476-.238,17.474.106,17.474.238" transform="translate(-25.178 -16.959)"/>
        <path id="Path_53" data-name="Path 53" d="M275.124,276.318c0,.132-14.958.238-33.406.238s-33.409-.106-33.409-.238,14.955-.237,33.409-.237,33.406.106,33.406.237" transform="translate(-18.035 -23.903)"/>
      </g>
    </g>
    <g id="Group_11" data-name="Group 11">
      <g id="Group_10" data-name="Group 10" clip-path="url(#clip-path)">
        <path id="Path_54" data-name="Path 54" d="M82.41,296.921C75,300.76,69.317,307.369,65.23,314.646s-6.719,15.263-9.328,23.191L53.62,378.723c8.623-14.67,15.544-31.915,17.413-48.828l-5.738-.512c3.847-.586,7.077-3.374,9.131-6.68s3.113-7.117,4.145-10.87l-7,1.04A25.943,25.943,0,0,0,82.41,296.921" transform="translate(-4.642 -25.707)" fill="#455a64"/>
        <g id="Group_9" data-name="Group 9" transform="translate(48.977 271.214)" opacity="0.3">
          <g id="Group_8" data-name="Group 8">
            <g id="Group_7" data-name="Group 7" clip-path="url(#clip-path-6)">
              <path id="Path_55" data-name="Path 55" d="M82.41,296.921C75,300.76,69.317,307.369,65.23,314.646s-6.719,15.263-9.328,23.191L53.62,378.723c8.623-14.67,15.544-31.915,17.413-48.828l-5.738-.512c3.847-.586,7.077-3.374,9.131-6.68s3.113-7.117,4.145-10.87l-7,1.04A25.943,25.943,0,0,0,82.41,296.921" transform="translate(-53.62 -296.921)"/>
            </g>
          </g>
        </g>
        <path id="Path_56" data-name="Path 56" d="M50.465,387.983s-18.716-22.4-18.5-43.788h7.56s-8.212-5.4-7.562-8.425.866-14.472.866-14.472l6.913,1.727s-5.185-2.591-5.832-6.7,1.512-23.113,1.512-23.113,8.424,8.857,11.017,17.93,9.4,19.657,7.4,47.307-3.371,29.53-3.371,29.53" transform="translate(-2.764 -25.386)" fill="#455a64"/>
        <path id="Path_57" data-name="Path 57" d="M62.609,392.409S82.886,378.9,87.391,361.66l-6.078-1.654s7.783-2.545,7.923-5.119,2.47-11.825,2.47-11.825l-5.935-.123s4.735-.949,6.155-4.108,3.841-18.913,3.841-18.913-8.71,5.278-12.78,12-11.855,13.748-16.3,36.415-4.079,24.071-4.079,24.071" transform="translate(-5.42 -27.698)" fill="#455a64"/>
        <path id="Path_58" data-name="Path 58" d="M41.35,314.6a.92.92,0,0,1,.074.231c.044.182.1.408.169.688.146.643.349,1.531.6,2.656.523,2.307,1.216,5.66,2.01,9.816,1.6,8.308,3.484,19.85,4.972,32.676s2.274,24.5,2.615,32.954c.175,4.226.266,7.649.283,10.015.007,1.154.013,2.063.016,2.724,0,.288-.005.521-.007.708a.921.921,0,0,1-.019.242.91.91,0,0,1-.029-.241c-.011-.187-.024-.419-.04-.708-.026-.659-.061-1.567-.106-2.72-.073-2.363-.216-5.782-.434-10-.427-8.444-1.275-20.1-2.751-32.916s-3.319-24.352-4.83-32.669c-.751-4.16-1.393-7.521-1.86-9.839-.219-1.133-.393-2.026-.518-2.674-.05-.284-.09-.513-.123-.7a.922.922,0,0,1-.026-.241" transform="translate(-3.58 -27.238)" fill="#263238"/>
        <path id="Path_59" data-name="Path 59" d="M45.742,407.029S28.614,387.595,23.3,375.847l4.014-1.715a10.4,10.4,0,0,1-8.148-2.67,30.78,30.78,0,0,1-5.538-6.859l5.289-.893a19.663,19.663,0,0,1-11.556-8.952c6.24,1.027,11.887,4.455,16.539,8.739A82.3,82.3,0,0,1,33.92,375.11a39.564,39.564,0,0,1,3.892,6.4c2.878,5.95,7.939,18.383,7.929,25.519" transform="translate(-0.637 -30.714)" fill="#455a64"/>
        <path id="Path_60" data-name="Path 60" d="M87.231,332.3a.711.711,0,0,1-.073.2c-.07.153-.154.34-.258.567l-1.032,2.161c-.912,1.87-2.206,4.586-3.775,7.956-3.141,6.738-7.285,16.139-11.379,26.718s-7.347,20.329-9.555,27.427c-1.107,3.549-1.977,6.43-2.559,8.425q-.436,1.447-.691,2.293c-.076.237-.139.433-.191.594a.746.746,0,0,1-.08.2.709.709,0,0,1,.034-.211l.145-.606q.223-.854.6-2.317c.528-2.012,1.349-4.91,2.416-8.474,2.127-7.129,5.341-16.9,9.433-27.5s8.3-19.983,11.519-26.689c1.609-3.354,2.95-6.051,3.913-7.895l1.113-2.122.3-.546a.719.719,0,0,1,.117-.179" transform="translate(-4.99 -28.77)" fill="#263238"/>
        <path id="Path_61" data-name="Path 61" d="M49.782,417.951a8,8,0,0,1-.274-1.386c-.137-.9-.367-2.188-.686-3.774a79.328,79.328,0,0,0-3.479-12.141,79.287,79.287,0,0,0-5.414-11.413c-.809-1.4-1.491-2.523-1.979-3.286a8.147,8.147,0,0,1-.711-1.221,7.98,7.98,0,0,1,.864,1.118c.538.733,1.265,1.831,2.115,3.217a68.921,68.921,0,0,1,5.569,11.417,69.023,69.023,0,0,1,3.365,12.246c.278,1.6.458,2.907.539,3.813a7.953,7.953,0,0,1,.09,1.41" transform="translate(-3.224 -33.309)" fill="#263238"/>
        <rect id="Rectangle_10" data-name="Rectangle 10" width="37.487" height="7.647" transform="translate(31.671 380.07)" fill="#ff2a2a"/>
        <path id="Path_62" data-name="Path 62" d="M38.584,424.467l4.055,25.72H65.291l3.779-25.72Z" transform="translate(-3.341 -36.75)" fill="#ff2a2a"/>
        <path id="Path_63" data-name="Path 63" d="M70.194,424.445c0,.132-7.091.237-15.837.237s-15.839-.106-15.839-.237,7.09-.237,15.839-.237,15.837.106,15.837.237" transform="translate(-3.335 -36.727)" fill="#263238"/>
      </g>
    </g>
    <g id="Group_19" data-name="Group 19">
      <g id="Group_18" data-name="Group 18" clip-path="url(#clip-path)">
        <path id="Path_64" data-name="Path 64" d="M251.943,431.847v18.971l38.254-.185c-.278-3.846-21.273-11.522-21.273-11.522l.417-7.264Z" transform="translate(-21.813 -37.389)" fill="#455a64"/>
        <g id="Group_14" data-name="Group 14" transform="translate(235.232 399.932)" opacity="0.6">
          <g id="Group_13" data-name="Group 13">
            <g id="Group_12" data-name="Group 12" clip-path="url(#clip-path-8)">
              <path id="Path_65" data-name="Path 65" d="M258.613,437.912a1.658,1.658,0,0,0-1.048,1.9,1.491,1.491,0,0,0,1.765,1.118,1.751,1.751,0,0,0,1.1-2.013,1.526,1.526,0,0,0-1.957-.947" transform="translate(-257.528 -437.839)" fill="#fff"/>
            </g>
          </g>
        </g>
        <path id="Path_66" data-name="Path 66" d="M251.943,452.329V449.3l36.523.432s1.9,1.145,1.731,2.412Z" transform="translate(-21.813 -38.9)" fill="#263238"/>
        <path id="Path_67" data-name="Path 67" d="M270.207,440.184c0,.2-.931.3-1.836.947-.922.621-1.381,1.481-1.553,1.406-.172-.036.089-1.217,1.2-1.979s2.23-.554,2.191-.374" transform="translate(-23.097 -38.095)" fill="#263238"/>
        <path id="Path_68" data-name="Path 68" d="M275.784,442.115c.045.19-.755.537-1.374,1.379-.643.822-.789,1.725-.975,1.719-.174.034-.319-1.117.469-2.148s1.873-1.137,1.879-.95" transform="translate(-23.662 -38.271)" fill="#263238"/>
        <path id="Path_69" data-name="Path 69" d="M278.466,447.091c-.168.045-.441-.935.021-2.02s1.324-1.527,1.406-1.365c.107.16-.449.747-.816,1.644-.385.887-.427,1.718-.611,1.74" transform="translate(-24.089 -38.413)" fill="#263238"/>
        <path id="Path_70" data-name="Path 70" d="M269.751,434.23c-.075.181-.932-.079-1.981.013-1.05.069-1.862.455-1.962.288-.11-.141.678-.881,1.915-.971s2.117.514,2.028.67" transform="translate(-23.012 -37.536)" fill="#263238"/>
        <path id="Path_71" data-name="Path 71" d="M269.935,440.557a2.8,2.8,0,0,0,.082-1.159A6.43,6.43,0,0,0,269,436.407a5.885,5.885,0,0,0-1.5-1.575,1.3,1.3,0,0,0-1.292-.227,1.458,1.458,0,0,0-.754,1.25,5.015,5.015,0,0,0,3.361,4.438,4.8,4.8,0,0,0,5.167-1.535,3.5,3.5,0,0,0,.686-1.171,1.27,1.27,0,0,0,.005-.759.9.9,0,0,0-.521-.549,1.626,1.626,0,0,0-1.192.118,7.117,7.117,0,0,0-.891.508,7.965,7.965,0,0,0-2.187,2.164,3.022,3.022,0,0,0-.528,1.017,11.06,11.06,0,0,1,2.913-2.831c.512-.294,1.183-.716,1.724-.528.237.1.332.376.218.709a3.052,3.052,0,0,1-.6.966,4.345,4.345,0,0,1-4.626,1.342,4.559,4.559,0,0,1-3.03-3.856.95.95,0,0,1,.451-.821.873.873,0,0,1,.852.169,5.614,5.614,0,0,1,1.424,1.409,6.685,6.685,0,0,1,1.115,2.779c.106.718.082,1.13.129,1.133" transform="translate(-22.983 -37.619)" fill="#263238"/>
        <path id="Path_72" data-name="Path 72" d="M235.25,434.678l.648,4.88-.433,11.01-14.342.35-.512-11.36,1.631-6.748Z" transform="translate(-19.1 -37.472)" fill="#455a64"/>
        <path id="Path_73" data-name="Path 73" d="M229.107,449.917c-.088,0,.119-3.364.461-7.522s.69-7.534.776-7.538-.12,3.363-.461,7.523-.689,7.533-.776,7.538" transform="translate(-19.834 -37.649)" fill="#263238"/>
        <path id="Path_74" data-name="Path 74" d="M235.562,450.245l-14.491.168v2.015l14.5-.017Z" transform="translate(-19.14 -38.982)" fill="#263238"/>
        <path id="Path_75" data-name="Path 75" d="M221.111,442.909a1.93,1.93,0,0,1,.367-.581,9.947,9.947,0,0,1,1.278-1.368,9.78,9.78,0,0,1,2.316-1.555,7.638,7.638,0,0,1,8.937,1.653,6.574,6.574,0,0,1,1.05,1.56,1.84,1.84,0,0,1,.228.649,14.937,14.937,0,0,0-1.5-2,7.638,7.638,0,0,0-5.376-2.205,8.773,8.773,0,0,0-5.455,2.13c-1.2.978-1.784,1.765-1.844,1.714" transform="translate(-19.143 -37.976)" fill="#263238"/>
        <path id="Path_76" data-name="Path 76" d="M229.028,97.919l-.152,49.586,21.274,1.015.615-12.061s7.556,1.5,9.505-5.517c1.246-4.483.934-39.125.934-39.125Z" transform="translate(-19.816 -7.949)" fill="#b78876"/>
        <path id="Path_77" data-name="Path 77" d="M263.33,94.65c-3.35.959-4.078,6.436-4.078,6.436L254,112.694c-2.677-2.1-6.272-1.976-6.953,2.729-.491,3.4,3.735,4.087,3.735,4.087-2.461,4.188-4.13,7.576-7.712,11.558-3.878,4.311-6.051,4.745-10.257,4.816h-4.637s-2.27-7.369-6.473-25.8c-4.664-20.445,19.512-17.811,23.994-23.029,7.3-8.5,28.2,4.568,17.638,7.591" transform="translate(-19.143 -7.292)" fill="#263238"/>
        <path id="Path_78" data-name="Path 78" d="M268.944,89.7a4.641,4.641,0,0,0-4.632-3.859,2.883,2.883,0,0,0-.6-3.669,4.713,4.713,0,0,0-3.831-.934,13.962,13.962,0,0,0-3.818,1.373,6.446,6.446,0,0,0-2.464-3.262,7.428,7.428,0,0,0-4.1-1.018c-6.528,0-9.97,4.473-13.472,9.027a5.47,5.47,0,0,1-2.116,2.009,5.75,5.75,0,0,1-1.972.221,14.193,14.193,0,0,0-12.07,7.506c-2.286,4.416-3.992,14.638,1.922,20.975l3.566,7.959,34.1-27.019c.242.126,2.379,1.168,4.025.3,4.083-2.149,2.37-5.734,2.37-5.734.325-.169,3.445-1.7,3.1-3.877" transform="translate(-18.852 -6.782)" fill="#263238"/>
        <path id="Path_79" data-name="Path 79" d="M239.086,119.869a10.011,10.011,0,0,1-1.626,7.219c-.142-.071.541-1.59.978-3.572.453-1.978.489-3.643.648-3.646" transform="translate(-20.557 -10.378)" fill="#455a64"/>
        <path id="Path_80" data-name="Path 80" d="M241.931,117.205a9.047,9.047,0,0,1-.2,3.624,9.02,9.02,0,0,1-1.123,3.453,19.472,19.472,0,0,1,.594-3.551,19.419,19.419,0,0,1,.727-3.526" transform="translate(-20.829 -10.147)" fill="#455a64"/>
        <path id="Path_81" data-name="Path 81" d="M249.611,108.246c.051.071-.552.511-1.316,1.407A13.616,13.616,0,0,0,246,113.609a33.205,33.205,0,0,0-1.271,4.459,7.514,7.514,0,0,1-.527,1.875,6.7,6.7,0,0,1,.152-1.947,21.92,21.92,0,0,1,1.144-4.583,11.542,11.542,0,0,1,2.516-4.021,4.032,4.032,0,0,1,1.6-1.148" transform="translate(-21.14 -9.371)" fill="#455a64"/>
        <path id="Path_82" data-name="Path 82" d="M253.177,102.146a2.76,2.76,0,0,1,.413,1.342,8.92,8.92,0,0,1-1.62,6.458c-.523.7-.95,1.033-1,.988a18.606,18.606,0,0,0,1.909-4.192,18.575,18.575,0,0,0,.294-4.6" transform="translate(-21.728 -8.844)" fill="#455a64"/>
        <path id="Path_83" data-name="Path 83" d="M225.339,115.56c-.073.13-.724-.1-1.455-.5s-1.264-.845-1.192-.975.724.1,1.455.5,1.264.845,1.192.975" transform="translate(-19.28 -9.874)" fill="#455a64"/>
        <path id="Path_84" data-name="Path 84" d="M236.63,109.909c.141.02.054,1.071-.607,2.157s-1.544,1.657-1.627,1.542c-.1-.119.567-.818,1.166-1.82s.917-1.912,1.069-1.878" transform="translate(-20.293 -9.516)" fill="#455a64"/>
        <path id="Path_85" data-name="Path 85" d="M240.022,108.051a4.264,4.264,0,0,1-.946,2.578c-.853,1.294-1.926,1.989-2.008,1.874-.1-.121.76-.956,1.558-2.172a22.066,22.066,0,0,1,1.4-2.28" transform="translate(-20.524 -9.355)" fill="#455a64"/>
        <path id="Path_86" data-name="Path 86" d="M254.812,85.12c-.037.043-.4-.3-1.166-.74a7.871,7.871,0,0,0-3.564-.922,9.555,9.555,0,0,0-5.229,1.406,12.955,12.955,0,0,0-4.455,4.961,22.319,22.319,0,0,0-1.808,4.649l-.085.312-.286-.15a10.588,10.588,0,0,0-4.746-1.214,11.219,11.219,0,0,0-3.864.583,16.446,16.446,0,0,0-3.155,1.578,3.282,3.282,0,0,1,.712-.631A9.828,9.828,0,0,1,229.5,93.7a11.052,11.052,0,0,1,3.979-.72,10.815,10.815,0,0,1,4.984,1.2l-.371.162a21.894,21.894,0,0,1,1.832-4.773,13.162,13.162,0,0,1,4.671-5.132,9.73,9.73,0,0,1,5.5-1.361,7.586,7.586,0,0,1,3.655,1.123,5.575,5.575,0,0,1,.817.649c.172.165.255.258.242.271" transform="translate(-19.606 -7.191)" fill="#455a64"/>
        <path id="Path_87" data-name="Path 87" d="M267.334,88.2c-.038-.01.592-.159,1.22.554a2.111,2.111,0,0,1,.49,1.553,2.415,2.415,0,0,1-1.236,1.767,3.509,3.509,0,0,1-2.585.355,7.5,7.5,0,0,1-2.666-1.292,25.911,25.911,0,0,0-2.608-1.788,10.863,10.863,0,0,0-3.142-1.1,13.28,13.28,0,0,0-6.414.439,17.544,17.544,0,0,0-4.742,2.41,48.813,48.813,0,0,0-3.784,3.2,5.4,5.4,0,0,1,.841-1.048,20.485,20.485,0,0,1,2.718-2.463,17.042,17.042,0,0,1,4.812-2.574,13.457,13.457,0,0,1,6.668-.5,11.164,11.164,0,0,1,3.3,1.171,25.006,25.006,0,0,1,2.643,1.846A7.187,7.187,0,0,0,265.323,92a3.135,3.135,0,0,0,2.3-.25,2.111,2.111,0,0,0,1.127-1.473,1.932,1.932,0,0,0-.355-1.386,1.869,1.869,0,0,0-1.056-.683" transform="translate(-20.94 -7.576)" fill="#455a64"/>
        <path id="Path_88" data-name="Path 88" d="M368.6,129.913c-.8-.712-11.636,3.832-11.636,3.832s-8.083,6.341-11.41,10.086L343.5,145.54l-30.743,23.908-37.817-15.732-8.205,21.1s42.454,16.9,48.923,14.007c7.029-3.145,33.2-30.533,33.26-30.627h0l3.779-3.641s2-.038,3.514-.129,5.955-3.039,5.955-3.039a8.621,8.621,0,0,0,.861-2.586,1.655,1.655,0,0,0-.821-1.878,4.237,4.237,0,0,0-1.709-4.74,3.8,3.8,0,0,0,1.011-1.911c.374-1.39-1.428-2.7-1.428-2.7s6.287-4.276,7.814-5.026,1.509-1.914.706-2.627" transform="translate(-23.093 -11.241)" fill="#b78876"/>
        <path id="Path_89" data-name="Path 89" d="M275.458,356.747c.126-1.388.2-2.455.2-3.124l4.27-68.171s-3.59-19.908-5.287-25.191l-15.266-5.909-20.336,7.921c-.136-1.641-.218-2.648-.218-2.648l-29.955,10.354s-.775,20.435,0,26.655c.249,2,1.033,7.16,1.982,13.243,0,0,.965,13.219,1.163,13.957.726,2.695.894,9.295.894,15.909,0,8.405.457,18.406.98,23.162s.779,57.033.779,57.033h22.1l2.839-83.273c.476-8.924,1.191-22.571,1.65-32.443l5.191,30.746c0,1.128,3.159,18.707,3.159,18.707a165.179,165.179,0,0,0-1.355,16.68c-.364,15.5-2.186,49.583-2.186,49.583H267.7s6.5-49.222,7.761-63.19Z" transform="translate(-18.053 -22.021)" fill="#263238"/>
        <path id="Path_90" data-name="Path 90" d="M284.843,282.925a8.318,8.318,0,0,1-1.994-1.062,27.72,27.72,0,0,1-7.8-7.55,8.355,8.355,0,0,1-1.128-1.957,15.336,15.336,0,0,1,1.395,1.763,36.7,36.7,0,0,0,7.722,7.472,15.465,15.465,0,0,1,1.808,1.335" transform="translate(-23.715 -23.58)" fill="#455a64"/>
        <path id="Path_91" data-name="Path 91" d="M243.277,295.626a2.626,2.626,0,0,1-.424-.68,21.7,21.7,0,0,1-.93-1.968,32.255,32.255,0,0,1-2.451-14.065,21.7,21.7,0,0,1,.209-2.167,2.653,2.653,0,0,1,.169-.783c.076.008-.029,1.137-.048,2.96a38.466,38.466,0,0,0,2.428,13.933c.635,1.709,1.115,2.736,1.047,2.77" transform="translate(-20.729 -23.893)" fill="#455a64"/>
        <path id="Path_92" data-name="Path 92" d="M246.677,322.7a5.826,5.826,0,0,1-.284-1.186c-.16-.868-.36-1.961-.6-3.263-.48-2.862-1.113-6.626-1.813-10.788-1.222-7.648-2.054-12.855-2.442-15.276a22.577,22.577,0,0,1,1.045,4.415c.527,2.751,1.19,6.563,1.88,10.781s1.274,8.041,1.672,10.812c.177,1.313.326,2.413.445,3.287a5.818,5.818,0,0,1,.1,1.216" transform="translate(-20.912 -25.297)" fill="#455a64"/>
        <path id="Path_93" data-name="Path 93" d="M189.727,201.108s-2.92,20.547-3.466,27.746c-.328,4.334,4.074,10.089,7.434,10.51,3.413.427,14.69,1.094,14.69,1.094l.94-12.886-.293-2.563-3.517-.662,1.06-20.438Z" transform="translate(-16.125 -17.412)" fill="#b78876"/>
        <path id="Path_94" data-name="Path 94" d="M207.871,204.932a4.951,4.951,0,0,1,.131,1.116c.055.721.1,1.765.126,3.054.058,2.582,0,6.15-.223,10.081s-.534,7.484-.789,10.049c-.129,1.283-.244,2.32-.334,3.036a4.919,4.919,0,0,1-.191,1.107,4.922,4.922,0,0,1,0-1.124c.048-.822.108-1.841.179-3.048.172-2.681.4-6.179.646-10.049.221-3.923.335-7.478.365-10.052.012-1.208.022-2.228.03-3.051a4.972,4.972,0,0,1,.059-1.122" transform="translate(-17.884 -17.743)" fill="#aa6550"/>
        <g id="Group_17" data-name="Group 17" transform="translate(190.924 240.198)" opacity="0.3">
          <g id="Group_16" data-name="Group 16">
            <g id="Group_15" data-name="Group 15" clip-path="url(#clip-path-9)">
              <path id="Path_95" data-name="Path 95" d="M209.192,271.1c5.755,2.137,12.061,2.317,18.176,1.782s12.153-1.757,18.264-2.337a87.6,87.6,0,0,1,27.668,1.791,4.956,4.956,0,0,0,1.95.185,1.634,1.634,0,0,0,1.385-1.224c.158-1.021-.96-1.734-1.913-2.134a81.586,81.586,0,0,0-65.7,1.468" transform="translate(-209.021 -262.965)"/>
            </g>
          </g>
        </g>
        <path id="Path_96" data-name="Path 96" d="M295.166,164.6l-32.439-16.152a105.692,105.692,0,0,0-15.42-.674H225.834s-26.021,7.676-30.316,14.748l-11.153,33.434,22.046,3.329,2.75,24.019s-2.736,27.813-2.736,31.855a29.769,29.769,0,0,0,.344,5.585s44.112-6.706,54.974-3.17,13.8,3.17,13.8,3.17-.908-11.544-1.714-18.242l-2.518-33.515-1.86-25.591,20.415,6.249Z" transform="translate(-15.962 -12.79)" fill="#ff2a2a"/>
        <path id="Path_97" data-name="Path 97" d="M207.436,202.227c-.08.009-.3-1.383-.786-3.605a61.311,61.311,0,0,0-2.552-8.529,68.622,68.622,0,0,0-3.784-8.144l-1.332-2.4a3.89,3.89,0,0,1-.45-.9,4.244,4.244,0,0,1,.619.814c.374.538.882,1.335,1.477,2.337a54.166,54.166,0,0,1,3.942,8.142,49.059,49.059,0,0,1,2.428,8.62c.2,1.124.332,2.039.39,2.674a3.742,3.742,0,0,1,.048.99" transform="translate(-17.188 -15.467)" fill="#263238"/>
        <path id="Path_98" data-name="Path 98" d="M251.433,214.855a1.662,1.662,0,0,1-.114.441l-.413,1.236c-.18.537-.413,1.189-.716,1.934s-.617,1.606-1.039,2.527c-.795,1.863-1.851,4.034-3.127,6.389a79.481,79.481,0,0,1-9.975,14.256c-1.776,2.007-3.454,3.742-4.932,5.127-.721.711-1.419,1.305-2.018,1.842s-1.129.981-1.572,1.335l-1.018.811a1.711,1.711,0,0,1-.375.259c-.011-.013.1-.126.315-.331l.961-.877c.423-.374.937-.834,1.514-1.39s1.26-1.163,1.963-1.886c1.443-1.409,3.087-3.16,4.837-5.172,1.729-2.028,3.55-4.325,5.323-6.841,1.755-2.525,3.289-5.023,4.6-7.341,1.29-2.332,2.371-4.478,3.2-6.315.439-.909.778-1.756,1.1-2.49s.581-1.375.787-1.9l.494-1.2a1.671,1.671,0,0,1,.2-.409" transform="translate(-19.578 -18.602)" fill="#263238"/>
        <path id="Path_99" data-name="Path 99" d="M270.022,150.945a10.464,10.464,0,0,0-1.709,4.07,14.2,14.2,0,0,0,.029,4.795,56.925,56.925,0,0,0,1.37,5.792c1.12,4.088,2.305,7.74,3.2,10.369l1.077,3.112a5.748,5.748,0,0,1,.349,1.159,5.789,5.789,0,0,1-.528-1.091c-.305-.716-.732-1.76-1.224-3.064-.985-2.605-2.226-6.253-3.35-10.356a50.955,50.955,0,0,1-1.345-5.855,13.931,13.931,0,0,1,.077-4.929,8.928,8.928,0,0,1,1.255-3.078,3.392,3.392,0,0,1,.795-.924" transform="translate(-23.178 -13.069)" fill="#263238"/>
        <path id="Path_100" data-name="Path 100" d="M202.028,189.292a4.572,4.572,0,0,1-1.729,1.174,8.725,8.725,0,0,1-9.544-1.452,4.574,4.574,0,0,1-1.3-1.635c.065-.049.536.595,1.519,1.379a9.171,9.171,0,0,0,9.2,1.4c1.172-.457,1.814-.932,1.861-.865" transform="translate(-16.402 -16.223)" fill="#fff"/>
        <path id="Path_101" data-name="Path 101" d="M265.266,172.961a4.529,4.529,0,0,1-.273.7c-.2.454-.51,1.113-.957,1.938a26.487,26.487,0,0,1-4.824,6.309,21.8,21.8,0,0,1-10.3,5.6,19.228,19.228,0,0,1-6.982.3,20.59,20.59,0,0,1-7.066-2.512c-4.485-2.506-8.271-5.675-12.42-7.19A19.49,19.49,0,0,0,211,177.481a20.378,20.378,0,0,0-7.116,3.262c-1.5,1.111-2.2,1.883-2.242,1.84a14,14,0,0,1,2.13-1.988,19.849,19.849,0,0,1,7.146-3.44,19.646,19.646,0,0,1,11.686.547c4.247,1.53,8.07,4.717,12.5,7.184a20.266,20.266,0,0,0,6.9,2.467,18.942,18.942,0,0,0,6.821-.267,21.709,21.709,0,0,0,10.16-5.42,27.767,27.767,0,0,0,4.893-6.156c.469-.807.808-1.45,1.031-1.888a4.536,4.536,0,0,1,.36-.661" transform="translate(-17.458 -14.975)" fill="#fff"/>
        <path id="Path_102" data-name="Path 102" d="M292.6,160.136a4.285,4.285,0,0,1,.422,1.051,12.66,12.66,0,0,1,.527,3.047,14.117,14.117,0,0,1-.509,4.566,13.894,13.894,0,0,1-2.567,5.009,36.35,36.35,0,0,1-4.072,3.85,10.919,10.919,0,0,0-2.763,3.481,5.934,5.934,0,0,0-.606,2.907c.055.71.206,1.089.163,1.1-.016.006-.061-.084-.136-.263a3.488,3.488,0,0,1-.21-.82,5.724,5.724,0,0,1,.482-3.064,10.82,10.82,0,0,1,2.773-3.666,39.641,39.641,0,0,0,4-3.827,14.385,14.385,0,0,0,3.109-9.263,21.585,21.585,0,0,0-.613-4.111" transform="translate(-24.485 -13.864)" fill="#fff"/>
        <path id="Path_103" data-name="Path 103" d="M233.588,243.877a3.879,3.879,0,0,1-.952.332,20.26,20.26,0,0,1-2.687.574,9.452,9.452,0,0,1-4.1-.239,6.086,6.086,0,0,1-2.151-1.21,18.262,18.262,0,0,1-1.753-1.919,9.118,9.118,0,0,0-1.835-1.694,8.674,8.674,0,0,0-2.094-1,9.191,9.191,0,0,0-3.916-.375,8.393,8.393,0,0,0-2.579.726,6.532,6.532,0,0,1-.908.419,2.988,2.988,0,0,1,.825-.585,7.6,7.6,0,0,1,2.614-.894,9.158,9.158,0,0,1,4.095.29,8.873,8.873,0,0,1,2.221,1.034,9.343,9.343,0,0,1,1.938,1.772,19.017,19.017,0,0,0,1.7,1.88,5.758,5.758,0,0,0,1.979,1.143,9.552,9.552,0,0,0,3.923.322c2.273-.262,3.659-.659,3.678-.571" transform="translate(-18.235 -20.597)" fill="#fff"/>
        <path id="Path_104" data-name="Path 104" d="M278.629,241.44c.009.014-.09.1-.289.247a8.218,8.218,0,0,1-.9.609,13.56,13.56,0,0,1-3.692,1.544,15.545,15.545,0,0,1-5.927.343,14.582,14.582,0,0,1-6.738-2.7,67.67,67.67,0,0,1-5.388-4.846,17.376,17.376,0,0,0-4.783-3.3,9.169,9.169,0,0,0-3.8-.84c-.928.015-1.436.154-1.446.107a1.179,1.179,0,0,1,.361-.123,5.426,5.426,0,0,1,1.078-.169,8.793,8.793,0,0,1,3.937.716,17.052,17.052,0,0,1,4.946,3.28c1.671,1.48,3.332,3.285,5.375,4.786a14.411,14.411,0,0,0,6.518,2.653,15.775,15.775,0,0,0,5.787-.235,14.921,14.921,0,0,0,3.681-1.379c.825-.437,1.255-.732,1.281-.694" transform="translate(-21.269 -20.112)" fill="#fff"/>
      </g>
    </g>
    <g id="Group_21" data-name="Group 21">
      <g id="Group_20" data-name="Group 20" clip-path="url(#clip-path)">
        <path id="Path_105" data-name="Path 105" d="M364.236,91.4a46.684,46.684,0,1,1,42.679-1.218A46.459,46.459,0,0,1,364.236,91.4M403.159,9.976a43.543,43.543,0,1,0,19.378,18.27,43.554,43.554,0,0,0-19.378-18.27" transform="translate(-29.233 -0.223)" fill="#263238"/>
        <path id="Path_106" data-name="Path 106" d="M449.364,150.314h0a5.805,5.805,0,0,1-7.988-1.893L410.834,98.931a1,1,0,0,1,.325-1.372l6.515-4.021a1,1,0,0,1,1.354.3l32.122,48.325a5.8,5.8,0,0,1-1.787,8.154" transform="translate(-35.557 -8.086)" fill="#263238"/>
        <path id="Path_107" data-name="Path 107" d="M365.465,88.823A46.685,46.685,0,1,1,408.143,87.6a46.459,46.459,0,0,1-42.679,1.219M404.388,7.4a43.543,43.543,0,1,0,19.378,18.27A43.554,43.554,0,0,0,404.388,7.4" transform="translate(-29.339 0)" fill="#455a64"/>
        <path id="Path_108" data-name="Path 108" d="M450.691,149.283l-.472.291a4.532,4.532,0,0,1-6.235-1.477L411.5,95.467l8.184-5.049,32.479,52.63a4.531,4.531,0,0,1-1.476,6.235" transform="translate(-35.627 -7.828)" fill="#455a64"/>
        <path id="Path_109" data-name="Path 109" d="M351.859,36.583a9.221,9.221,0,0,1,.259-1.442,13.091,13.091,0,0,1,.432-1.665,21.457,21.457,0,0,1,.729-2.161q.236-.593.49-1.235c.174-.427.4-.851.615-1.3.408-.91.965-1.818,1.525-2.787a36.131,36.131,0,0,1,4.472-5.735,36.175,36.175,0,0,1,5.613-4.627,31.576,31.576,0,0,1,2.745-1.6c.444-.224.861-.464,1.284-.65l1.221-.522a21.494,21.494,0,0,1,2.14-.788,13.023,13.023,0,0,1,1.653-.476,9.152,9.152,0,0,1,1.434-.3,9.207,9.207,0,0,1-1.387.466,15.424,15.424,0,0,0-1.619.545c-.621.242-1.344.47-2.1.842l-1.2.543c-.415.192-.823.438-1.259.667-.881.44-1.757,1.027-2.692,1.616a34.368,34.368,0,0,0-9.964,10.239c-.563.951-1.125,1.841-1.542,2.734-.217.442-.451.857-.632,1.276s-.347.824-.511,1.211c-.351.763-.56,1.493-.785,2.119a15.368,15.368,0,0,0-.5,1.634,9.208,9.208,0,0,1-.428,1.4" transform="translate(-30.463 -0.977)" fill="#e0e0e0"/>
      </g>
    </g>
  </g>
</svg>
