<svg xmlns="http://www.w3.org/2000/svg" width="65.48" height="63.454" viewBox="0 0 65.48 63.454">
  <path id="earning-a-degree" d="M42.485,67.648a60.112,60.112,0,0,1-11.89-1.168,1.557,1.557,0,0,1-1.248-1.525V51.6L22.534,49.57a1.557,1.557,0,0,1,0-2.983l19.5-5.825a1.556,1.556,0,0,1,.891,0L62.4,46.576a1.558,1.558,0,0,1,1.148,1.5c0,.016,0,.032,0,.048v6.9l.81,1.949a1.557,1.557,0,0,1-2.367,1.846,1.557,1.557,0,0,1-2.366-1.846l.81-1.947V50.168L42.93,55.4a1.556,1.556,0,0,1-.891,0L32.46,52.535V63.666a58.265,58.265,0,0,0,20.049,0V56.253a1.556,1.556,0,0,1,3.113,0v8.7a1.556,1.556,0,0,1-1.248,1.525A60.126,60.126,0,0,1,42.485,67.648Zm-11.1-18.682,11.1,3.315,14.066-4.2-14.066-4.2-14.066,4.2,2.893.864ZM24.028,62.542H5.634A5.641,5.641,0,0,1,0,56.908V37.023a1.556,1.556,0,0,1,1.556-1.556H3.408a1.556,1.556,0,1,1,0,3.113H3.113V56.908a2.524,2.524,0,0,0,2.522,2.521H6.694V13.061A1.556,1.556,0,0,1,8.25,11.5h5.36a8.078,8.078,0,0,1,15.765,0H48.188a1.556,1.556,0,0,1,1.556,1.556V36.82a1.556,1.556,0,1,1-3.113,0v-22.2H29.458a8.078,8.078,0,0,1-10.876,6.189V25.3l2.113-.993a1.555,1.555,0,0,1,1.291-.015L24.4,25.361v-1.7a1.556,1.556,0,0,1,3.113,0v4.085a1.556,1.556,0,0,1-2.186,1.424l-3.954-1.748L17.687,29.16a1.556,1.556,0,0,1-2.218-1.409v-9.1a8.055,8.055,0,0,1-1.941-4.029H9.807V59.429H24.029a1.556,1.556,0,1,1,0,3.113ZM16.53,13.15c0,.04,0,.08,0,.121a4.964,4.964,0,0,0,9.929,0c0-.042,0-.085,0-.127,0-.022,0-.044,0-.067a4.964,4.964,0,0,0-9.921-.006C16.532,13.1,16.531,13.124,16.53,13.15ZM24.6,41.619H20.232a1.556,1.556,0,1,1,0-3.113H24.6a1.556,1.556,0,1,1,0,3.113Zm11.6-5.962H20.232a1.556,1.556,0,1,1,0-3.113H36.207a1.556,1.556,0,1,1,0,3.113Zm4.759-7.584h-4.7a1.556,1.556,0,0,1,0-3.113h4.7a1.556,1.556,0,0,1,0,3.113Zm-.1-5.627h-4.7a1.556,1.556,0,0,1,0-3.113h4.7a1.556,1.556,0,0,1,0,3.113Z" transform="translate(0.5 -4.694)" fill="#ff2a2a" stroke="#fff" stroke-width="1"/>
</svg>
