<svg xmlns="http://www.w3.org/2000/svg" width="64.74" height="62.454" viewBox="0 0 64.74 62.454">
  <g id="brain" transform="translate(-0.029 -1.13)">
    <path id="Path_5198" data-name="Path 5198" d="M20.923,27.411a.979.979,0,1,0,1.618-1.1,5.543,5.543,0,0,0-7.728-1.568,1.012,1.012,0,0,0,1.092,1.629,3.611,3.611,0,0,1,5.017,1.042Z" transform="translate(0.168 0.262)" fill="#fff"/>
    <path id="Path_5199" data-name="Path 5199" d="M16.715,41.609a3.611,3.611,0,0,1-2.8-4.289A1.012,1.012,0,0,0,12,37.006a5.543,5.543,0,0,0,4.36,6.575h.192a1.012,1.012,0,0,0,.182-1.942Z" transform="translate(0.137 0.408)" fill="#fff"/>
    <path id="Path_5200" data-name="Path 5200" d="M22.023,37.413a1.012,1.012,0,1,0-1.932.293,5.543,5.543,0,0,0,5.462,4.825,5.432,5.432,0,0,0,.809-.051.981.981,0,1,0-.283-1.942,3.621,3.621,0,0,1-4.056-3.126Z" transform="translate(0.231 0.406)" fill="#fff"/>
    <path id="Path_5201" data-name="Path 5201" d="M61.047,39.367A3.692,3.692,0,0,0,57.5,42.078H54.108l-5.139-5.9a1.012,1.012,0,0,0-.738-.334H34.544V28.9H48.231a1.012,1.012,0,0,0,.738-.334l5.139-5.9H57.5a3.7,3.7,0,1,0,0-1.962H53.663a1.012,1.012,0,0,0-.738.334l-5.139,5.9H34.544V23.253H47.371a.951.951,0,0,0,.738-.344L51.69,18.7a.951.951,0,0,0,.233-.637V14.149a3.672,3.672,0,1,0-1.962,0V17.73L46.926,21.29H34.544V16.6h4.481a1.012,1.012,0,0,0,.829-.425l1.254-2.023a3.793,3.793,0,0,0,1.012.162,3.7,3.7,0,1,0-3.682-3.733,3.632,3.632,0,0,0,1.012,2.5l-1.012,1.558H34.544V7.058a.769.769,0,0,0,0-.212A8.517,8.517,0,0,0,26.452,1.13a8.608,8.608,0,0,0-7.779,5.058A8.527,8.527,0,0,0,7.607,14.321a8.092,8.092,0,0,0,.324,2.316,8.568,8.568,0,0,0-4.9,12.28A7.779,7.779,0,0,0,4.865,42.26a8.548,8.548,0,0,0,6.262,13.059,7.779,7.779,0,0,0,11.309,6.626,7.738,7.738,0,0,0,4.785,1.639,7.84,7.84,0,0,0,7.273-5.007h0a1.011,1.011,0,0,0,0-.233.506.506,0,0,0,0-.121V50.13h3.945l1.012,1.558a3.632,3.632,0,0,0-1.012,2.5,3.7,3.7,0,1,0,3.7-3.692,3.794,3.794,0,0,0-1.012.162l-1.275-2.114a1.012,1.012,0,0,0-.829-.465H34.544V43.484H46.916l3.035,3.561v3.52a3.723,3.723,0,1,0,1.962,0V46.62a.951.951,0,0,0-.233-.637L48.1,41.795a.951.951,0,0,0-.738-.344H34.544V37.809H47.786l5.139,5.9a1.012,1.012,0,0,0,.738.334H57.5a3.692,3.692,0,1,0,3.551-4.673Zm0-19.452a1.74,1.74,0,1,1-1.74,1.74A1.74,1.74,0,0,1,61.047,19.915ZM49.212,10.578a1.74,1.74,0,1,1,1.73,1.73,1.74,1.74,0,0,1-1.73-1.73Zm-7.081-1.74a1.752,1.752,0,1,0,.01,0Zm-9.559,6.777v4.6a5.493,5.493,0,0,0-5.493.354A.981.981,0,0,0,28.172,22.2a3.5,3.5,0,0,1,4.4.384v9.327a5.422,5.422,0,0,0-5.493.364,1.012,1.012,0,0,0,1.1,1.629,3.48,3.48,0,0,1,4.39.364V57.99a5.806,5.806,0,0,1-8.436,2.762,5.483,5.483,0,0,0,1.254-6.545,1.012,1.012,0,1,0-1.75.87A3.6,3.6,0,0,1,21.93,59.9a1.214,1.214,0,0,0-.212.172,5.8,5.8,0,0,1-8.659-4.906c1.72-.5,4.967-1.74,5.442-4.188a.978.978,0,0,0-1.912-.415c-.293,1.457-3.348,2.539-4.562,2.8A6.575,6.575,0,0,1,7.232,42.391,1,1,0,0,0,6.7,40.732a5.816,5.816,0,0,1-1.861-10.7,3.591,3.591,0,0,1,5.007,1.012.982.982,0,1,0,1.618-1.113,5.553,5.553,0,0,0-6.828-2.023A6.545,6.545,0,0,1,8.679,18.5a4.35,4.35,0,0,0,3.692,2.094,4.228,4.228,0,0,0,1.487-.263,1.012,1.012,0,1,0-.668-1.841,2.4,2.4,0,0,1-3.035-1.457.364.364,0,0,0,0-.091A6.565,6.565,0,0,1,18.9,8.363h.2c2.8.546,3.631,3.116,3.2,5.412a1.012,1.012,0,0,0,.779,1.143h.182a1.012,1.012,0,0,0,1.012-.8c.637-3.419-.829-6.292-3.621-7.374a6.616,6.616,0,0,1,5.9-3.7,6.535,6.535,0,0,1,6.14,4.269Zm9.559,36.79a1.746,1.746,0,1,0,.01,0Zm10.54,1.73a1.744,1.744,0,1,1,.01,0ZM61.037,44.8a1.725,1.725,0,1,1,.01,0Z" transform="translate(0)" fill="#fff"/>
  </g>
</svg>
