<svg xmlns="http://www.w3.org/2000/svg" width="74" height="66" viewBox="0 0 61.411 61.5">
  <g id="phone-call" transform="translate(-0.344 0)">
    <g id="Group_267" data-name="Group 267" transform="translate(0.344 0)">
      <path id="Path_5242" data-name="Path 5242" d="M48.9,61.946a6.049,6.049,0,0,0-4.387-2.012,6.255,6.255,0,0,0-4.439,2l-4.1,4.089c-.337-.182-.675-.35-1-.519-.467-.234-.909-.454-1.285-.688a44.58,44.58,0,0,1-10.683-9.735,26.3,26.3,0,0,1-3.5-5.529c1.064-.973,2.051-1.986,3.011-2.959.363-.363.727-.74,1.09-1.1a5.955,5.955,0,0,0,0-8.982l-3.544-3.544c-.4-.4-.818-.818-1.207-1.233-.779-.8-1.6-1.635-2.44-2.414a6.144,6.144,0,0,0-4.348-1.908,6.358,6.358,0,0,0-4.413,1.908l-.026.026L3.215,33.792A9.5,9.5,0,0,0,.4,39.828a22.754,22.754,0,0,0,1.661,9.631,55.888,55.888,0,0,0,9.93,16.562,61.083,61.083,0,0,0,20.34,15.926,31.69,31.69,0,0,0,11.422,3.375c.273.013.558.026.818.026a9.781,9.781,0,0,0,7.489-3.219c.013-.026.039-.039.052-.065a29.507,29.507,0,0,1,2.271-2.349c.558-.532,1.129-1.09,1.687-1.674a6.475,6.475,0,0,0,1.96-4.491,6.238,6.238,0,0,0-2-4.452Zm4.647,13.668c-.013,0-.013.013,0,0-.506.545-1.025,1.038-1.584,1.584a34.129,34.129,0,0,0-2.505,2.6,6.257,6.257,0,0,1-4.88,2.064c-.195,0-.4,0-.6-.013A28.152,28.152,0,0,1,33.86,78.807,57.658,57.658,0,0,1,14.7,63.8,52.7,52.7,0,0,1,5.356,48.239,18.533,18.533,0,0,1,3.9,40.113a5.958,5.958,0,0,1,1.791-3.855l4.426-4.426a2.951,2.951,0,0,1,1.973-.922,2.776,2.776,0,0,1,1.9.909l.039.039c.792.74,1.545,1.506,2.336,2.323.4.415.818.831,1.233,1.259l3.544,3.544c1.376,1.376,1.376,2.648,0,4.024-.376.376-.74.753-1.116,1.116-1.09,1.116-2.129,2.155-3.258,3.167-.026.026-.052.039-.065.065a2.647,2.647,0,0,0-.675,2.946l.039.117a28.449,28.449,0,0,0,4.193,6.84l.013.013A47.641,47.641,0,0,0,31.8,67.761a17.722,17.722,0,0,0,1.6.87c.467.234.909.454,1.285.688.052.026.1.065.156.091a2.814,2.814,0,0,0,1.285.325,2.775,2.775,0,0,0,1.973-.9L42.531,64.4a2.936,2.936,0,0,1,1.96-.974,2.644,2.644,0,0,1,1.869.948l.026.026,7.152,7.152C54.875,72.875,54.875,74.238,53.551,75.614Z" transform="translate(-0.344 -23.849)" fill="#EC1C24"/>
      <path id="Path_5243" data-name="Path 5243" d="M246.386,89.4a16.705,16.705,0,0,1,13.6,13.6,1.742,1.742,0,0,0,1.726,1.454,2.318,2.318,0,0,0,.3-.026,1.754,1.754,0,0,0,1.441-2.025A20.2,20.2,0,0,0,247,85.949a1.761,1.761,0,0,0-2.025,1.428A1.733,1.733,0,0,0,246.386,89.4Z" transform="translate(-213.195 -74.772)" fill="#EC1C24"/>
      <path id="Path_5244" data-name="Path 5244" d="M277.913,27.129a33.261,33.261,0,0,0-27.1-27.1,1.75,1.75,0,1,0-.571,3.453A29.708,29.708,0,0,1,274.46,27.7a1.742,1.742,0,0,0,1.726,1.454,2.317,2.317,0,0,0,.3-.026A1.72,1.72,0,0,0,277.913,27.129Z" transform="translate(-216.529 0)" fill="#EC1C24"/>
    </g>
  </g>
</svg>
