<svg xmlns="http://www.w3.org/2000/svg" width="45.742" height="63.071" viewBox="0 0 45.742 63.071">
  <g id="male" transform="translate(-65.05 -4.449)">
    <g id="Group_187" data-name="Group 187" transform="translate(76.289 25.253)">
      <path id="Path_5187" data-name="Path 5187" d="M154.4,165.44a11.42,11.42,0,0,1-11.4-11.4v-3.719a.392.392,0,0,1,.014-.127.711.711,0,0,1,.693-.594h21.383a.7.7,0,0,1,.707.707v3.734A11.411,11.411,0,0,1,154.4,165.44Zm-9.985-14.411v3.012a9.985,9.985,0,1,0,19.969,0v-3.012Z" transform="translate(-143 -149.6)" fill="#fff" stroke="#fff" stroke-width="0.5"/>
    </g>
    <g id="Group_188" data-name="Group 188" transform="translate(65.3 38.066)">
      <path id="Path_5188" data-name="Path 5188" d="M109.368,269.4H66.007a.7.7,0,0,1-.707-.707v-6.689a16.691,16.691,0,0,1,16.052-16.66v-4.441a.707.707,0,1,1,1.414,0v5.134a.7.7,0,0,1-.707.707h-.085a15.276,15.276,0,0,0-15.26,15.26v5.982h41.933v-5.982a15.276,15.276,0,0,0-15.26-15.26H93.3a.7.7,0,0,1-.707-.707v-5.134a.707.707,0,1,1,1.414,0v4.441a16.691,16.691,0,0,1,16.052,16.66V268.7A.688.688,0,0,1,109.368,269.4Z" transform="translate(-65.3 -240.2)" fill="#fff" stroke="#fff" stroke-width="0.5"/>
    </g>
    <g id="Group_189" data-name="Group 189" transform="translate(81.342 43.204)">
      <path id="Path_5189" data-name="Path 5189" d="M185.075,280.782a.9.9,0,0,1-.325-.071l-5.629-2.843a.705.705,0,0,1,.636-1.259l5.318,2.673,5.318-2.673a.705.705,0,1,1,.636,1.259l-5.629,2.843A.839.839,0,0,1,185.075,280.782Z" transform="translate(-178.729 -276.529)" fill="#fff" stroke="#fff" stroke-width="0.5"/>
    </g>
    <g id="Group_190" data-name="Group 190" transform="translate(71.866 46.287)">
      <path id="Path_5190" data-name="Path 5190" d="M127.551,307.348a.9.9,0,0,1-.325-.071l-15.1-7.609a.705.705,0,1,1,.636-1.259l14.793,7.453,14.793-7.453a.705.705,0,1,1,.636,1.259l-15.1,7.609A.839.839,0,0,1,127.551,307.348Z" transform="translate(-111.729 -298.329)" fill="#fff" stroke="#fff" stroke-width="0.5"/>
    </g>
    <g id="Group_191" data-name="Group 191" transform="translate(75.327 55.504)">
      <path id="Path_5191" data-name="Path 5191" d="M136.907,375.267a.7.7,0,0,1-.707-.707V364.207a.707.707,0,0,1,1.414,0v10.352A.7.7,0,0,1,136.907,375.267Z" transform="translate(-136.2 -363.5)" fill="#fff" stroke="#fff" stroke-width="0.5"/>
    </g>
    <g id="Group_192" data-name="Group 192" transform="translate(98.634 55.504)">
      <path id="Path_5192" data-name="Path 5192" d="M301.707,375.267a.7.7,0,0,1-.707-.707V364.207a.707.707,0,1,1,1.414,0v10.352A.7.7,0,0,1,301.707,375.267Z" transform="translate(-301 -363.5)" fill="#fff" stroke="#fff" stroke-width="0.5"/>
    </g>
    <g id="Group_193" data-name="Group 193" transform="translate(76.289 16.824)">
      <path id="Path_5193" data-name="Path 5193" d="M165.091,99.857a.7.7,0,0,1-.707-.707V90.707a.707.707,0,1,1,1.414,0V99.15A.7.7,0,0,1,165.091,99.857Zm-21.383,0A.7.7,0,0,1,143,99.15V90.707a.707.707,0,1,1,1.414,0V99.15A.7.7,0,0,1,143.707,99.857Z" transform="translate(-143 -90)" fill="#fff" stroke="#fff" stroke-width="0.5"/>
    </g>
    <g id="Group_194" data-name="Group 194" transform="translate(66.587 4.77)">
      <path id="Path_5194" data-name="Path 5194" d="M95.147,21.845a4.947,4.947,0,0,1-1.768-.269l-17.961-6.9a1.335,1.335,0,0,1-1.018-1.23c0-.509.339-1.259,1.938-1.867L92.46,5.383a8.521,8.521,0,0,1,5.162-.354l17.975,6.9a1.335,1.335,0,0,1,1.018,1.23c0,.509-.339,1.259-1.938,1.867L98.555,21.222A10.213,10.213,0,0,1,95.147,21.845ZM75.942,13.373l17.947,6.887a7.11,7.11,0,0,0,4.144-.354l16.122-6.194a3.11,3.11,0,0,0,.891-.481L97.113,6.344a7.231,7.231,0,0,0-4.144.354L76.847,12.892A3.489,3.489,0,0,0,75.942,13.373Z" transform="translate(-74.4 -4.77)" fill="#fff" stroke="#fff" stroke-width="0.5"/>
    </g>
    <g id="Group_195" data-name="Group 195" transform="translate(83.742 10.714)">
      <path id="Path_5195" data-name="Path 5195" d="M199.646,52c-2.206,0-3.946-1.146-3.946-2.6s1.74-2.6,3.946-2.6,3.946,1.146,3.946,2.6S201.866,52,199.646,52Zm0-3.8c-1.542,0-2.531.707-2.531,1.188s.99,1.188,2.531,1.188,2.532-.707,2.532-1.188S201.2,48.2,199.646,48.2Z" transform="translate(-195.7 -46.8)" fill="#fff" stroke="#fff" stroke-width="0.5"/>
    </g>
    <g id="Group_196" data-name="Group 196" transform="translate(90.219 12.595)">
      <path id="Path_5196" data-name="Path 5196" d="M259.376,73.309a.7.7,0,0,1-.707-.707V61.514H242.207a.707.707,0,1,1,0-1.414h17.169a.7.7,0,0,1,.707.707V72.6A.709.709,0,0,1,259.376,73.309Z" transform="translate(-241.5 -60.1)" fill="#fff" stroke="#fff" stroke-width="0.5"/>
    </g>
    <g id="Group_197" data-name="Group 197" transform="translate(105.649 24.39)">
      <path id="Path_5197" data-name="Path 5197" d="M353.047,151.222c-1.4,0-2.447-1.669-2.447-3.861s1.047-3.861,2.447-3.861,2.447,1.669,2.447,3.861S354.433,151.222,353.047,151.222Zm0-6.308c-.41,0-1.032.976-1.032,2.447s.622,2.447,1.032,2.447,1.032-.976,1.032-2.447S353.457,144.914,353.047,144.914Z" transform="translate(-350.6 -143.5)" fill="#fff" stroke="#fff" stroke-width="0.5"/>
    </g>
  </g>
</svg>
