<svg xmlns="http://www.w3.org/2000/svg" width="66.25" height="62.454" viewBox="0 0 66.25 62.454">
  <path id="graduate" d="M44,68.893c1.273.649-.312,3.858-1.6,3.247C41.114,71.452,42.725,68.283,44,68.893ZM67.237,32.457a1.958,1.958,0,0,1-.987,1.715l-7.69,4.469L58.6,52.253a2.433,2.433,0,0,1-1.208,2.091l-3.455,2,.013,5.962a2.686,2.686,0,1,1-2.039,0l-.013-4.78-8.093,4.7q1.111.429,2.3.857c3.325,1.026,3.845,5.469,1.793,9.755-1.559,3.118-4.78,6.339-8.236,4.871A136.044,136.044,0,0,0,24.669,67.5a21.751,21.751,0,0,0-6.118,5.352,27.366,27.366,0,0,0-7.456-5.845A30.711,30.711,0,0,1,17,63.385,131.543,131.543,0,0,0,3.379,57.644c-6.131-3.325.727-17.2,7.079-14.393,2.78,2.143,5.612,4.261,8.547,6.183l-.039-10.717-7.7-4.43a1.985,1.985,0,0,1-.013-3.416L17.732,27.1,36.49,16.219a4.448,4.448,0,0,1,4.443,0l25.3,14.523a1.955,1.955,0,0,1,1,1.715ZM18.629,61.931a12.547,12.547,0,0,1,4.365-7.56c-1.325-.792-2.663-1.624-3.975-2.481v-.013c-3.014-1.961-5.962-4.053-8.781-6.248-1.624-1.793-4.456.039-6.2,3.39-1.572,3.325-1.26,6.43.7,6.937A128.09,128.09,0,0,1,18.629,61.931Zm4,4.443-3.234-1.767a25.115,25.115,0,0,0-4.572,2.3,25.711,25.711,0,0,1,3.65,2.949,22.232,22.232,0,0,1,4.157-3.481ZM28.1,57.28c-1.091-.572-2.169-1.2-3.234-1.793A10.6,10.6,0,0,0,20.538,62.9c1.13.585,2.247,1.2,3.351,1.819A14.1,14.1,0,0,1,28.1,57.28Zm9.184,16.081a11.466,11.466,0,0,1,4.975-9.548c-.364-.143-.714-.286-1.065-.429-3.78-1.507-7.521-3.221-11.158-5.092a12.087,12.087,0,0,0-4.261,7.482l1.026.559-.065.039c3.611,2.143,7.144,4.481,10.548,6.989Zm2.728,2.065c2.065,2.026,5.144-1.494,6.053-3.494,1.819-3.715,1.169-8-2.1-6.7C40.516,66.542,38.048,73.232,40.01,75.427ZM51.883,55.176l-.026-12.652-10.847,6.3a4.434,4.434,0,0,1-4.469-.026L21.006,39.887l.039,10.872A123.29,123.29,0,0,0,41.283,61.216C41.309,61.424,51.493,55.371,51.883,55.176Zm1.052,8.976a.65.65,0,0,0,0,1.3A.65.65,0,0,0,52.935,64.152Zm3.624-11.9L56.52,39.822c-.377.221-2.286,1.325-2.624,1.52l.026,12.652,2.442-1.416A.367.367,0,0,0,56.559,52.253Zm8.573-19.8L39.919,17.986a2.406,2.406,0,0,0-2.4,0L12.38,32.587,37.594,47.07a2.36,2.36,0,0,0,2.4,0l10.859-6.313L38.243,33.4a1.016,1.016,0,0,1,1.026-1.754l13.613,7.937.234-.13,5.443-3.17Z" transform="translate(-0.987 -15.625)" fill="#EC1C24"/>
</svg>
