<svg xmlns="http://www.w3.org/2000/svg" width="52.039" height="63.006" viewBox="0 0 52.039 63.006">
  <g id="online-education_1_" data-name="online-education(1)" transform="translate(104.146 126.292)">
    <g id="Group_186" data-name="Group 186" transform="translate(-103.896 -126.036)">
      <path id="Path_5180" data-name="Path 5180" d="M147.18,189.558a4.631,4.631,0,0,0-3.828,2.581.695.695,0,0,0,1.258.589,3.233,3.233,0,0,1,2.569-1.78.73.73,0,0,1,.614.242,1.056,1.056,0,0,1-.083.95,3.435,3.435,0,0,1-2,1.688.694.694,0,0,0,.2,1.36.71.71,0,0,0,.2-.029,4.775,4.775,0,0,0,2.855-2.43,2.355,2.355,0,0,0,0-2.283A2.016,2.016,0,0,0,147.18,189.558Z" transform="translate(-113.249 -142.558)" fill="#EC1C24" stroke="#EC1C24" stroke-width="0.5"/>
      <path id="Path_5181" data-name="Path 5181" d="M73.286,166.466a2.235,2.235,0,0,0-1.865-1h-26.5a4.472,4.472,0,0,0-4.132,2.746l-3.546,8.442h-14.4c-.008,0-.014,0-.022,0a.683.683,0,0,0-.235.047c-.014.006-.026.013-.04.02a.649.649,0,0,0-.09.046.692.692,0,0,0-.08.069.318.318,0,0,0-.033.028.691.691,0,0,0-.128.19c-.008.016-.013.032-.019.048a.69.69,0,0,0-.049.241v1.09a4.508,4.508,0,0,0,2.787,4.176l10.3,4.272h0a.681.681,0,0,0,.266.053H66.842a.694.694,0,0,0,.694-.694v-3.509l5.949-14.162A2.233,2.233,0,0,0,73.286,166.466ZM26.324,178.042H36.656l-1.533,3.647Zm-2.794.4v-.05L34.8,183.059v2.146L25.46,181.33a3.122,3.122,0,0,1-1.931-2.892Zm42.618,7.113H36.19v-2.26H66.147ZM72.2,168.034,66.38,181.9H36.541l5.524-13.151a3.087,3.087,0,0,1,2.851-1.9h26.5a.852.852,0,0,1,.785,1.18Z" transform="translate(-22.14 -124.439)" fill="#EC1C24" stroke="#EC1C24" stroke-width="0.5"/>
      <path id="Path_5182" data-name="Path 5182" d="M87.593,67.779a.695.695,0,0,0,.642-1.232,3.937,3.937,0,0,0-3.829,0,.694.694,0,1,0,.642,1.231A2.584,2.584,0,0,1,87.593,67.779Z" transform="translate(-68.687 -49.673)" fill="#EC1C24" stroke="#EC1C24" stroke-width="0.5"/>
      <path id="Path_5183" data-name="Path 5183" d="M112.664,66.547a3.937,3.937,0,0,0-3.829,0,.694.694,0,0,0,.642,1.231,2.582,2.582,0,0,1,2.544,0,.694.694,0,0,0,.642-1.231Z" transform="translate(-87.058 -49.673)" fill="#EC1C24" stroke="#EC1C24" stroke-width="0.5"/>
      <path id="Path_5184" data-name="Path 5184" d="M95.937,92.342H88.626a.695.695,0,0,0-.554,1.113c1.345,1.78,2.758,2.684,4.2,2.687h.006c1.442,0,2.86-.9,4.215-2.685a.695.695,0,0,0-.553-1.115Zm-3.662,2.411h0a3.186,3.186,0,0,1-2.108-1.022h4.23A3.2,3.2,0,0,1,92.276,94.753Z" transform="translate(-71.619 -69.447)" fill="#EC1C24" stroke="#EC1C24" stroke-width="0.5"/>
      <path id="Path_5185" data-name="Path 5185" d="M65,166.883h0a.7.7,0,0,0-.694.694c0,1.263,0,6.487,0,6.7a.692.692,0,0,0,.693.661h.026a.7.7,0,0,0,.669-.717c-.007-.238-.006-4.838,0-6.642A.7.7,0,0,0,65,166.883Z" transform="translate(-53.849 -125.505)" fill="#EC1C24" stroke="#EC1C24" stroke-width="0.5"/>
      <path id="Path_5186" data-name="Path 5186" d="M31.742,20.872H34.69a.7.7,0,0,0,.694-.694V15.558a2.164,2.164,0,0,0-1.474-2.044v-6l6.271,2.06v2.76s0,.008,0,.011,0,.009,0,.014l.133,3.66h-.424a1.749,1.749,0,0,0-1.747,1.747v1.74a4.461,4.461,0,0,0,2.83,4.126,11.152,11.152,0,0,0,2.953,4.731l-.02.84a2.33,2.33,0,0,1-.087.631l-3.768,1.494-2.894,1.147A5.244,5.244,0,0,0,32.7,37.519V48.742a.694.694,0,1,0,1.389,0V37.518a3.838,3.838,0,0,1,3.183-3.637l11.924,5.761a.09.09,0,0,0,.013,0,.683.683,0,0,0,.282.065H49.5a.683.683,0,0,0,.282-.065s.009,0,.013,0l11.927-5.762a3.847,3.847,0,0,1,3.188,3.674.679.679,0,0,0,.694.676.709.709,0,0,0,.694-.712,5.242,5.242,0,0,0-4.462-5.04l-6.647-2.635a2.369,2.369,0,0,1-.1-.656l-.019-.817a11.136,11.136,0,0,0,2.962-4.741,4.461,4.461,0,0,0,2.82-4.124V17.769a1.75,1.75,0,0,0-1.748-1.747H58.7l.142-3.658s0-.009,0-.014,0-.008,0-.013V9.569l6.794-2.233a1.229,1.229,0,0,0,0-2.335L51.286.288a5.683,5.683,0,0,0-3.569,0L33.366,5a1.227,1.227,0,0,0-.845,1.168v7.344a2.164,2.164,0,0,0-1.474,2.044v4.619a.7.7,0,0,0,.7.7Zm7.792-1.365v-1.74a.358.358,0,0,1,.358-.358h.474l.14,3.844c.015.18.041.358.065.535A3.061,3.061,0,0,1,39.534,19.508Zm-.459,13.7,5-1.983,3.65,6.163Zm12.193,4.18,3.65-6.163,5,1.983Zm2.608-7.129L49.5,37.654l-4.374-7.385a3.594,3.594,0,0,0,.15-.815,11,11,0,0,0,2.515,1.3,5.03,5.03,0,0,0,1.708.3h.02a5.03,5.03,0,0,0,1.708-.3,11,11,0,0,0,2.507-1.3,3.653,3.653,0,0,0,.147.8Zm-3.126-.81a3.632,3.632,0,0,1-1.24.217h0a3.459,3.459,0,0,1-1.249-.217,9.715,9.715,0,0,1-6.367-8.281l-.3-8.271a41.142,41.142,0,0,1,15.837,0l-.319,8.269c0,.008,0,.015,0,.023a9.722,9.722,0,0,1-6.363,8.259ZM59.109,17.41a.359.359,0,0,1,.359.358v1.738a3.064,3.064,0,0,1-1.028,2.275c.023-.175.049-.35.063-.528,0-.017-.006-.031-.006-.047l.147-3.8ZM48.15,1.607a4.293,4.293,0,0,1,2.7,0L64.738,6.169l-5.9,1.937V7.178c0-.024-.011-.044-.013-.067a.671.671,0,0,0-.027-.135.627.627,0,0,0-.05-.122.694.694,0,0,0-.072-.108.635.635,0,0,0-.2-.167.675.675,0,0,0-.128-.055c-.022-.007-.039-.022-.062-.026a43.793,43.793,0,0,0-4.631-.714.694.694,0,0,0-.137,1.382c1.3.129,2.623.335,3.931.591V11.5a42.5,42.5,0,0,0-15.881,0V7.756A41.436,41.436,0,0,1,49.5,6.967a.694.694,0,0,0,0-1.389,42.97,42.97,0,0,0-8.767.919.6.6,0,0,0-.061.026.641.641,0,0,0-.128.056.678.678,0,0,0-.108.072.694.694,0,0,0-.092.094.639.639,0,0,0-.074.109.649.649,0,0,0-.049.12.7.7,0,0,0-.028.138c0,.022-.013.042-.013.065v.936L34.264,6.17ZM32.436,15.558a.78.78,0,0,1,1.56,0v3.925h-1.56Z" transform="translate(-28.839 0)" fill="#EC1C24" stroke="#EC1C24" stroke-width="0.5"/>
    </g>
  </g>
</svg>
