<svg xmlns="http://www.w3.org/2000/svg" width="62.5" height="62.5" viewBox="0 0 62.5 62.5">
  <g id="layer1" transform="translate(-0.529 -280.596)">
    <path id="path3216" d="M11.988,280.6a3.141,3.141,0,0,0-3.125,3.125v7.292H3.654a3.141,3.141,0,0,0-3.125,3.125v25.5a1.042,1.042,0,1,0,2.083,0v-25.5A1.017,1.017,0,0,1,3.654,293.1H8.863v2.083H5.738A1.042,1.042,0,0,0,4.7,296.221v29.167a1.042,1.042,0,0,0,1.042,1.042H57.821a1.042,1.042,0,0,0,1.042-1.042V296.221a1.042,1.042,0,0,0-1.042-1.042H54.7V293.1H59.9a1.017,1.017,0,0,1,1.042,1.042v37.5a1.017,1.017,0,0,1-1.042,1.042H3.654a1.017,1.017,0,0,1-1.042-1.042V316.013a1.042,1.042,0,1,0-2.083,0v15.625a3.141,3.141,0,0,0,3.125,3.125H25.4a13.658,13.658,0,0,1-3.455,6.25H19.275a1.042,1.042,0,0,0,0,2.083h25a1.042,1.042,0,0,0,0-2.083H41.61a13.632,13.632,0,0,1-3.489-6.25H59.9a3.141,3.141,0,0,0,3.125-3.125v-37.5a3.141,3.141,0,0,0-3.125-3.125H54.7v-7.292a3.141,3.141,0,0,0-3.125-3.125Zm0,2.083H51.571a1.017,1.017,0,0,1,1.042,1.042v29.167a1.017,1.017,0,0,1-1.042,1.042H47.4V312.32a6.249,6.249,0,1,0-8.333,0v1.611H11.988a1.017,1.017,0,0,1-1.042-1.042V283.721a1.017,1.017,0,0,1,1.042-1.042Zm3.544,3.123a1.042,1.042,0,1,0,0,2.083h12.5a1.042,1.042,0,1,0,0-2.083Zm32.915,7.3a1.042,1.042,0,1,0,0-2.083H15.063a1.042,1.042,0,0,0,.05,2.083Zm-7.29,5.206a1.043,1.043,0,0,0,0-2.085H15.063a1.043,1.043,0,1,0,.05,2.085Zm7.29,0a1.043,1.043,0,0,0,0-2.085H45.271a1.043,1.043,0,1,0,.054,2.085ZM6.779,297.263H8.863v15.625a3.141,3.141,0,0,0,3.125,3.125H39.071v5.208a1.042,1.042,0,0,0,1.619.867l2.547-1.7,2.547,1.7a1.042,1.042,0,0,0,1.619-.867v-5.208h4.167a3.141,3.141,0,0,0,3.125-3.125V297.263h2.083v27.083h-50Zm8.333,4.165a1.042,1.042,0,0,0,0,2.083H33.859a1.042,1.042,0,0,0,0-2.083Zm28.127,2.083a4.168,4.168,0,1,1-4.167,4.169A4.154,4.154,0,0,1,43.24,303.511Zm-25.006,5.214a1.042,1.042,0,0,0,0-2.083H15.063a1.042,1.042,0,0,0,.05,2.083Zm14.587,0a1.042,1.042,0,0,0,0-2.083H22.352a1.042,1.042,0,0,0,.05,2.083Zm8.333,4.838a6.1,6.1,0,0,0,4.167,0v5.709l-1.506-1a1.042,1.042,0,0,0-1.156,0l-1.506,1ZM29.692,328.513a1.042,1.042,0,0,0,0,2.083h4.167a1.042,1.042,0,0,0,0-2.083Zm-2.148,6.25h8.474a13.387,13.387,0,0,0,2.889,6.25H24.642a13.139,13.139,0,0,0,2.9-6.25Z" fill="#ff2a2a"/>
  </g>
</svg>
