<?xml version="1.0" encoding="utf-8"?>
<!-- Generator: Adobe Illustrator 25.4.1, SVG Export Plug-In . SVG Version: 6.00 Build 0)  -->
<svg version="1.1" id="Layer_1" xmlns="http://www.w3.org/2000/svg" xmlns:xlink="http://www.w3.org/1999/xlink" x="0px" y="0px"
	 width="25px" height="25px" viewBox="0 0 25 25" style="enable-background:new 0 0 25 25;" xml:space="preserve">
<style type="text/css">
	.st0{fill:#2D2D2D;}
</style>
<g>
	<g>
		<path class="st0" d="M11.2,9.4C9,9.4,7.2,7.6,7.2,5.3S9,1.2,11.2,1.2s4.1,1.8,4.1,4.1S13.5,9.4,11.2,9.4z M11.2,2.5
			c-1.5,0-2.7,1.2-2.7,2.8s1.2,2.8,2.8,2.8s2.8-1.2,2.8-2.8S12.8,2.5,11.2,2.5z"/>
	</g>
	<g>
		<path class="st0" d="M17.7,21.6H8.9l2.8-12.3h8.7L17.7,21.6z M10.4,20.3h6.1l2.2-9.6h-6L10.4,20.3z"/>
	</g>
	<g>
		<path class="st0" d="M10.3,18.8H7.9c-2,0-3.9-1.7-3.9-3.9v-1.8c0-2,1.7-3.9,3.9-3.9h2.5v1.4H7.9c-1.4,0-2.5,1.1-2.5,2.5v1.8
			c0,1.4,1.1,2.5,2.5,2.5h2.4V18.8z"/>
	</g>
	<g>
		<path class="st0" d="M10.9,16.1H7.8c-0.7,0-1.1-0.5-1.1-1.1v-1.5h1.4v1.4h2.8V16.1z"/>
	</g>
	<g>
		<rect x="9.4" y="13.5" transform="matrix(0.731 -0.6824 0.6824 0.731 -7.2298 10.7887)" class="st0" width="1.4" height="2"/>
	</g>
	<g>
		<path class="st0" d="M14.5,23.8H8.2c-0.9,0-1.6-0.7-1.6-1.6v-2.6h1.4v2.6c0,0.1,0.1,0.2,0.2,0.2h6.2c0.1,0,0.2-0.1,0.2-0.2v-0.3
			H16v0.3C16.1,23,15.3,23.8,14.5,23.8z"/>
	</g>
	<g>
		<path class="st0" d="M18.8,18.8h-1.1v-1.4h1.1c0.3,0,0.6-0.2,0.6-0.5l0.1-0.3c0-0.1,0-0.3-0.1-0.5C19.3,16.1,19.2,16,19,16h-0.6
			v-1.4H19c0.6,0,1,0.2,1.5,0.7c0.3,0.5,0.6,1,0.5,1.6l-0.1,0.3C20.5,18.1,19.7,18.8,18.8,18.8z"/>
	</g>
</g>
</svg>
