<svg xmlns="http://www.w3.org/2000/svg" width="23" height="24.533" viewBox="0 0 23 24.533">
  <g id="download" transform="translate(-16)">
    <g id="Group_25586" data-name="Group 25586" transform="translate(21.367)">
      <g id="Group_25585" data-name="Group 25585">
        <path id="Path_14143" data-name="Path 14143" d="M140.2,11.183a.765.765,0,0,0-.7-.449h-3.067V.767A.767.767,0,0,0,135.665,0H132.6a.767.767,0,0,0-.767.767v9.967h-3.067A.766.766,0,0,0,128.188,12l5.367,6.133a.765.765,0,0,0,1.153,0L140.075,12A.764.764,0,0,0,140.2,11.183Z" transform="translate(-127.998)" fill="#fff"/>
      </g>
    </g>
    <g id="Group_25588" data-name="Group 25588" transform="translate(16 16.867)">
      <g id="Group_25587" data-name="Group 25587" transform="translate(0)">
        <path id="Path_14144" data-name="Path 14144" d="M35.933,352v4.6H19.067V352H16v6.133a1.533,1.533,0,0,0,1.533,1.533H37.467A1.532,1.532,0,0,0,39,358.133V352Z" transform="translate(-16 -352)" fill="#fff"/>
      </g>
    </g>
  </g>
</svg>
