<svg xmlns="http://www.w3.org/2000/svg" width="265.125" height="42.831" viewBox="0 0 265.125 42.831">
  <g id="logo-01" transform="translate(-93.46 -358.03)">
    <path id="Path_1" data-name="Path 1" d="M184.33,370.292l12.085,15.06a1.5,1.5,0,0,0,1.3.634h2.407a1.559,1.559,0,0,0,1.65-1.659V363.4a1.633,1.633,0,0,0-.453-1.206,1.613,1.613,0,0,0-1.2-.453h-2.13a1.637,1.637,0,0,0-1.21.453,1.6,1.6,0,0,0-.467,1.206l.035,14-11.892-15.025a1.579,1.579,0,0,0-1.3-.634h-2.553a1.644,1.644,0,0,0-1.21.453,1.6,1.6,0,0,0-.467,1.206v20.927a1.615,1.615,0,0,0,.467,1.206,1.637,1.637,0,0,0,1.21.453h2.13a1.559,1.559,0,0,0,1.659-1.659l-.066-14.035h0Zm22.45-8.622a1.644,1.644,0,0,0-1.21.453,1.6,1.6,0,0,0-.467,1.206v20.962a1.615,1.615,0,0,0,.467,1.206,1.637,1.637,0,0,0,1.21.453h12.556a1.559,1.559,0,0,0,1.659-1.659v-.911a1.559,1.559,0,0,0-1.659-1.659H210.6l-.026-18.392a1.651,1.651,0,0,0-.453-1.206,1.626,1.626,0,0,0-1.206-.453h-2.13Zm16.438.035a1.644,1.644,0,0,0-1.21.453,1.6,1.6,0,0,0-.467,1.206v20.927a1.615,1.615,0,0,0,.467,1.206,1.637,1.637,0,0,0,1.21.453h2.13a1.559,1.559,0,0,0,1.659-1.659l-.035-20.927a1.651,1.651,0,0,0-.453-1.206,1.626,1.626,0,0,0-1.206-.453h-2.1Zm12.477,8.586,12.085,15.06a1.5,1.5,0,0,0,1.3.634h2.407a1.559,1.559,0,0,0,1.65-1.659V363.4a1.633,1.633,0,0,0-.453-1.206,1.612,1.612,0,0,0-1.2-.453h-2.13a1.637,1.637,0,0,0-1.21.453,1.6,1.6,0,0,0-.467,1.206l.035,14-11.891-15.025a1.579,1.579,0,0,0-1.3-.634h-2.553a1.644,1.644,0,0,0-1.21.453,1.6,1.6,0,0,0-.467,1.206v20.927a1.615,1.615,0,0,0,.467,1.206,1.637,1.637,0,0,0,1.21.453h2.13a1.559,1.559,0,0,0,1.659-1.659l-.066-14.035Zm22.45-8.586a1.644,1.644,0,0,0-1.21.453,1.6,1.6,0,0,0-.466,1.206v20.962a1.615,1.615,0,0,0,.466,1.206,1.637,1.637,0,0,0,1.21.453h13.678a1.651,1.651,0,0,0,1.21-.453,1.6,1.6,0,0,0,.466-1.206v-.911a1.608,1.608,0,0,0-.466-1.206,1.669,1.669,0,0,0-1.21-.453h-9.885L261.9,376h8.7a1.622,1.622,0,0,0,1.206-.462,1.668,1.668,0,0,0,.453-1.215v-.955a1.654,1.654,0,0,0-.453-1.215,1.632,1.632,0,0,0-1.206-.462h-8.7v-5.757h9.885a1.654,1.654,0,0,0,1.21-.453,1.6,1.6,0,0,0,.467-1.206v-.911a1.608,1.608,0,0,0-.467-1.206,1.637,1.637,0,0,0-1.21-.453H258.144Z" transform="translate(-47.855 -2.038)" fill="#e96a32" fill-rule="evenodd"/>
    <path id="Path_2" data-name="Path 2" d="M417.155,379.275l-7.072-16.9a1.655,1.655,0,0,0-1.527-1.021h-2.3A1.73,1.73,0,0,0,404.7,362a1.7,1.7,0,0,0,.035,1.681l9.092,20.962a1.587,1.587,0,0,0,.612.726,1.664,1.664,0,0,0,.915.268h3.428a1.643,1.643,0,0,0,.92-.268,1.666,1.666,0,0,0,.612-.726l9.057-20.962a1.5,1.5,0,0,0-1.532-2.324h-2.064a1.655,1.655,0,0,0-1.527,1.021l-7.094,16.9h0Zm15.412-17.921a1.637,1.637,0,0,0-1.21.453,1.6,1.6,0,0,0-.467,1.206V383.94a1.615,1.615,0,0,0,.467,1.206,1.637,1.637,0,0,0,1.21.453h2.13a1.559,1.559,0,0,0,1.659-1.659l-.035-20.927a1.658,1.658,0,0,0-.453-1.206,1.626,1.626,0,0,0-1.206-.453h-2.1Zm8.419,0a1.637,1.637,0,0,0-1.21.453,1.6,1.6,0,0,0-.467,1.206v20.962a1.615,1.615,0,0,0,.467,1.206,1.637,1.637,0,0,0,1.21.453h7.79a19.761,19.761,0,0,0,5.457-.7,12.594,12.594,0,0,0,3.978-1.826,10.3,10.3,0,0,0,2.592-2.724,10.907,10.907,0,0,0,1.461-3.288,14.355,14.355,0,0,0,.431-3.587,14.119,14.119,0,0,0-.312-3.023,13.715,13.715,0,0,0-.951-2.839,8.757,8.757,0,0,0-1.747-2.509,12.376,12.376,0,0,0-2.605-1.989,12.929,12.929,0,0,0-3.618-1.334,21.441,21.441,0,0,0-4.691-.471h-7.79Zm7.79,20.051h-4V365.584h4a12.487,12.487,0,0,1,3.288.4,7.257,7.257,0,0,1,2.4,1.109,5.987,5.987,0,0,1,1.571,1.721,7.25,7.25,0,0,1,.876,2.17,11.656,11.656,0,0,1,.26,2.535,9.871,9.871,0,0,1-.453,3.094,7.235,7.235,0,0,1-1.4,2.482,6.206,6.206,0,0,1-2.614,1.7,11.273,11.273,0,0,1-3.921.612Zm17.309-20.051a1.637,1.637,0,0,0-1.21.453,1.6,1.6,0,0,0-.466,1.206v20.962a1.615,1.615,0,0,0,.466,1.206,1.637,1.637,0,0,0,1.21.453h2.13a1.559,1.559,0,0,0,1.659-1.659v-8.327h12.063v8.327a1.658,1.658,0,0,0,.453,1.206,1.627,1.627,0,0,0,1.206.453h2.13a1.559,1.559,0,0,0,1.659-1.659V363.014a1.559,1.559,0,0,0-1.659-1.659H483.6a1.559,1.559,0,0,0-1.659,1.659v8.327H469.875v-8.327a1.658,1.658,0,0,0-.453-1.206,1.627,1.627,0,0,0-1.206-.453Zm34.086,9.467-5.462-8.666a1.57,1.57,0,0,0-1.43-.766h-2.13c-.9,0-1.479.233-1.734.7a1.87,1.87,0,0,0,.334,1.866l4.929,7.689c.216.348.51.783.889,1.294s.612.849.7,1a10.213,10.213,0,0,1,1.237,2.227l-.035.277V385.2a.422.422,0,0,0,.44.44H502.5a.415.415,0,0,0,.317-.123.428.428,0,0,0,.123-.317v-.423c0-1.672-.013-3.226-.035-4.669v-2.9l.035-.761-.035-.277a8.04,8.04,0,0,1,1.171-2.227q1.155-1.6,1.593-2.3l4.863-7.719q.713-1.155.339-1.848c-.255-.462-.832-.687-1.734-.687h-2.068a1.554,1.554,0,0,0-1.426.766l-5.466,8.666h0Zm27.172,13.819-2.165-5.136h-9.467l-2.161,5.136a1.613,1.613,0,0,1-.612.726,1.678,1.678,0,0,1-.92.268h-2.064a1.489,1.489,0,0,1-1.523-2.328l8.991-20.962a1.587,1.587,0,0,1,.612-.726,1.674,1.674,0,0,1,.915-.268h3.023a1.643,1.643,0,0,1,.92.268,1.665,1.665,0,0,1,.612.726l8.991,20.962a1.491,1.491,0,0,1-1.532,2.328h-2.095a1.642,1.642,0,0,1-.92-.268,1.665,1.665,0,0,1-.612-.726h0Zm-6.892-16.46-2.927,7.059h5.884Z" transform="translate(-174.149 -1.859)" fill="#6b6260" fill-rule="evenodd"/>
    <path id="Path_3" data-name="Path 3" d="M105.453,383.019l-8.371,8.366a2.122,2.122,0,0,1-3-3l8.366-8.362a13.839,13.839,0,1,1,3.01,3h0Zm8.133-20.742a9.572,9.572,0,1,0,9.572,9.572,9.576,9.576,0,0,0-9.572-9.572Z" fill="#eb703b" fill-rule="evenodd"/>
    <path id="Path_4" data-name="Path 4" d="M126.379,386.868A10.369,10.369,0,1,0,116.01,376.5a10.37,10.37,0,0,0,10.369,10.369Zm9.7-10.866-.062-.026c-.088-.031-.2-.066-.326-.1a4.966,4.966,0,0,1-.625-.211,4.628,4.628,0,0,1,.986.031c.009.1.018.2.022.3h0Zm-2.922-6.456a9.684,9.684,0,0,1,2.869,5.823c-1.281-.15-1.329.119-1.347.22-.053.321.423.458.929.6.114.035.224.062.3.092a.016.016,0,0,1,.013,0,1.2,1.2,0,0,1-.154.207,1.549,1.549,0,0,0-.185.255,2.657,2.657,0,0,1-1.237.356c-.128-.018-.418-.546-.559-.8-.26-.471-.4-.731-.616-.691a.223.223,0,0,0-.167.123c-.088.176.048.458.339,1.021.1.194.2.387.29.581.29.634,1.1.6,1.488.563a1.3,1.3,0,0,1-.387.427,3.109,3.109,0,0,0-1.113,1.686,5.3,5.3,0,0,1-1.175,2.271c-.647.854-.7.823-.986.678-.066-.035-.136-.07-.22-.106-.312-.132-.3-.687-.29-1.219,0-.185.009-.374,0-.546a3.491,3.491,0,0,1,.022-.735,1.873,1.873,0,0,0,.013-.48,1.027,1.027,0,0,0-.216-.515.858.858,0,0,1-.176-.418c-.026-.308-.079-.885-.621-.885h-.009c-.1,0-.233.013-.383.026a4.7,4.7,0,0,1-1.4-.022c-.511-.123-.757-1.162-.66-1.6a1.163,1.163,0,0,1,.5-.739l.031-.022a2.338,2.338,0,0,0,.475-.665l.066-.119c.07-.119.717-.185.964-.211a3.433,3.433,0,0,0,.453-.062c.075-.018.11,0,.229.361.026.079.053.167.088.255a.407.407,0,0,0,.246.242,1.511,1.511,0,0,0,.964-.163.426.426,0,0,1,.348-.044,3.88,3.88,0,0,0,1.334.018.162.162,0,0,0,.145-.163V374.4a.153.153,0,0,0-.048-.114.149.149,0,0,0-.119-.044s-.423.018-.722,0c-.119,0-.238-.308-.277-.51a.16.16,0,0,0-.123-.128.165.165,0,0,0-.167.066,1.911,1.911,0,0,1-.207.255,1.249,1.249,0,0,1-.057-.167c-.11-.326-.189-.528-.343-.581a.217.217,0,0,0-.194.022c-.242.145-.141.37-.084.488a.83.83,0,0,1,.084.255.2.2,0,0,1-.04.163.557.557,0,0,1-.387.141.425.425,0,0,1,.013-.079.644.644,0,0,0-.084-.581.4.4,0,0,0-.286-.136c-.414-.031-1.017.471-1.188.625a.573.573,0,0,1-.546.163c-.053,0-.11-.013-.163-.013h0a.71.71,0,0,1-.114-.616v-.013a.564.564,0,0,1,.295.11.159.159,0,0,0,.194-.013c.246-.207.233-.312.229-.356a.2.2,0,0,0-.044-.1.75.75,0,0,1,.1-.374c.013-.018.026-.031.035-.031.4,0,.981-.885,1.1-1.078.026.022.066.062.1.088a.813.813,0,0,0,.55.29c.5,0,.814-.739.863-1.118a.479.479,0,0,0-.092-.378.413.413,0,0,0-.106-.079c-.053-.431-.136-.691-.255-.775a.221.221,0,0,0-.172-.035c-.242.062-.387.475-.436,1.232a.317.317,0,0,1-.066.211c-.07.048-.264-.009-.418-.057a2.414,2.414,0,0,0-.255-.066.206.206,0,0,1-.141-.11,1.348,1.348,0,0,1,.066-.99,1.821,1.821,0,0,1,1.879-.722c.321.062.326.176.334.365,0,.15.018.4.326.458.326.062.59-.242.757-.519h0Zm-2.746,4.92a.314.314,0,0,0,.264.092.866.866,0,0,0,.634-.26.5.5,0,0,0,.106-.216c.057.141.123.22.233.22.04,0,.136,0,.321-.2.084.211.233.445.489.458.194.009.431.009.585,0v.444a3.467,3.467,0,0,1-1.008,0,.732.732,0,0,0-.651.053,1.208,1.208,0,0,1-.691.145.092.092,0,0,1-.057-.057c-.031-.084-.057-.163-.084-.238-.088-.264-.194-.59-.493-.59a.438.438,0,0,0-.123.018,3.408,3.408,0,0,1-.409.053l-.352.04a1.3,1.3,0,0,0,.167-.128,1.88,1.88,0,0,1,.955-.546.068.068,0,0,1,.062.026c.053.066.04.167.013.308a.423.423,0,0,0,.04.378h0Zm.062-2.935a.468.468,0,0,0,.317-.075A.564.564,0,0,0,131,371a2.971,2.971,0,0,1,.136-.827,4.035,4.035,0,0,1,.092.528.155.155,0,0,0,.158.145s.013,0,.018.009a.22.22,0,0,1,.013.119c-.035.29-.282.832-.541.832-.114,0-.22-.1-.321-.2-.026-.022-.048-.048-.075-.07h0Zm-4.713-4.731c.062,0,.123-.009.189-.009a4.642,4.642,0,0,0-.392.255c.084-.092.154-.172.207-.242h0Zm.871-.013a9.686,9.686,0,0,1,1.906.238.287.287,0,0,0,0,.062,7.106,7.106,0,0,1-1.848,2.931,3.579,3.579,0,0,0-.955,1.127.6.6,0,0,1-.3.326.107.107,0,0,1-.048.018,2.321,2.321,0,0,1-.009-.805c.013-.132.022-.242.022-.326a1.047,1.047,0,0,1,.062-.286.892.892,0,0,0-.141-.968c-.057-.066-.088-.128-.079-.163.009-.062.123-.132.2-.185.11-.07.229-.141.229-.277a.893.893,0,0,0-.128-.361,1.974,1.974,0,0,1-.185-.445,3.709,3.709,0,0,1,1.276-.885h0Zm-1.329.053c-.1.106-.207.22-.3.321a5.21,5.21,0,0,0-.8.964c-.088.176-.128.189-.128.189a1.078,1.078,0,0,1-.185-.07,2.688,2.688,0,0,0-.6-.207,3.8,3.8,0,0,1-1.047-.33,9.582,9.582,0,0,1,3.067-.867h0Zm-8.648,9.66a9.712,9.712,0,0,1,3.912-7.79.563.563,0,0,1,.286.084.151.151,0,0,1,.062.114c0,.062.009.114.013.163.022.334.053.493.422.493a2.843,2.843,0,0,0,.973-.3.312.312,0,0,0,.022.128.289.289,0,0,0,.216.167.708.708,0,0,0,.3-.009c-.136.1-.312.216-.471.321-.594.392-1.153.761-1.122,1.131a.885.885,0,0,0,.216.629l.057.07a.2.2,0,0,0,.176.092c.123,0,.185-.114.251-.224.1-.167.163-.255.233-.229.308.1.5-.251.656-.537a1.744,1.744,0,0,1,.18-.29,1.379,1.379,0,0,1,.22.449c.092.246.176.475.392.423.031-.009.07-.022.114-.04.092-.04.229-.092.3-.053s.106.158.123.339a3.654,3.654,0,0,0,.176.761c.057.189.132.445.092.506-.009.013-.044.026-.114.031-.18.009-.229-.079-.317-.3-.062-.158-.176-.449-.5-.352a.306.306,0,0,1-.277-.066.19.19,0,0,0-.242-.013c-.1.084-.07.167.022.414.04.1.075.18.106.255a1.675,1.675,0,0,1,.092.242.739.739,0,0,1-.079.022,1.113,1.113,0,0,1-.321,0,1.332,1.332,0,0,0-1.162.352,4.906,4.906,0,0,0-.739,1.307,3.237,3.237,0,0,1-.445.832c-.088.035-.251-.1-.383-.211a.842.842,0,0,0-.5-.264c-.009,0-1.012.013-1.32.471a.544.544,0,0,0-.035.533.5.5,0,0,0,.3.312.782.782,0,0,0,.629-.194c.026-.018.053-.035.084-.053a.285.285,0,0,1-.048.141.455.455,0,0,0,.022.515,1.026,1.026,0,0,0,.361.343c.026.018.062.04.079.053a.6.6,0,0,1-.075.075.333.333,0,0,0-.15.282.267.267,0,0,0,.163.2,1.51,1.51,0,0,0,.436.1,1.124,1.124,0,0,1-.634.132.494.494,0,0,1-.334-.229,1.25,1.25,0,0,1-.172-.444c-.075-.343-.176-.5-.893-.717a2.355,2.355,0,0,0-.933-.062c-.22.018-.348.026-.422-.04V376.5h0Zm.449.427a2.047,2.047,0,0,1,.814.053c.6.18.625.264.669.471a1.451,1.451,0,0,0,.216.546.8.8,0,0,0,.555.378,1.017,1.017,0,0,0,.163.013,1.777,1.777,0,0,0,.959-.348.208.208,0,0,0,.088-.229c-.044-.15-.207-.172-.458-.2-.088-.013-.194-.026-.277-.044a.41.41,0,0,0,.158-.295.384.384,0,0,0-.233-.326.774.774,0,0,1-.26-.242c-.057-.092-.048-.114,0-.2a.629.629,0,0,0,.066-.449.237.237,0,0,0-.145-.185c-.136-.057-.268.031-.422.132-.11.07-.273.18-.356.154-.044-.013-.079-.084-.1-.128a.228.228,0,0,1,0-.229c.154-.229.761-.326,1.052-.326.062,0,.194.11.29.189.194.163.44.365.7.264.207-.075.356-.4.629-1a4.68,4.68,0,0,1,.673-1.21,1.035,1.035,0,0,1,.911-.26,1.575,1.575,0,0,0,.409-.009.4.4,0,0,0,.3-.189c.075-.145.009-.295-.088-.519-.018-.04-.035-.084-.053-.128a.573.573,0,0,0,.238-.022.053.053,0,0,0,.022,0,.747.747,0,0,1,.079.167c.079.2.2.537.643.506a.446.446,0,0,0,.361-.172c.132-.189.053-.449-.048-.783a3.671,3.671,0,0,1-.163-.7.718.718,0,0,0-.282-.585.649.649,0,0,0-.59.031h0c-.026-.053-.053-.132-.079-.194a1.359,1.359,0,0,0-.356-.616.27.27,0,0,0-.22-.053c-.176.035-.286.238-.414.471-.066.119-.207.37-.273.383-.317-.106-.506.189-.6.352a.712.712,0,0,1-.106-.409c-.013-.18.629-.607.977-.836a2.976,2.976,0,0,0,.827-.66c.048-.075.132-.22.035-.334s-.229-.062-.383,0a1.048,1.048,0,0,1-.4.1,1.012,1.012,0,0,1,.11-.207c.044-.07.119-.189.013-.286s-.224,0-.277.035a2.861,2.861,0,0,1-1.144.453h-.079a1.549,1.549,0,0,1-.018-.189c0-.048-.009-.1-.013-.167a.5.5,0,0,0-.18-.343.692.692,0,0,0-.136-.079,9.323,9.323,0,0,1,.99-.59,2.8,2.8,0,0,0,1.311.484,2.11,2.11,0,0,1,.528.185.851.851,0,0,0,.321.1c.145,0,.277-.092.414-.365a3.879,3.879,0,0,1,.563-.691.3.3,0,0,0-.013.15,2.576,2.576,0,0,0,.211.537,1.55,1.55,0,0,1,.084.176.329.329,0,0,1-.066.04.651.651,0,0,0-.352.4.536.536,0,0,0,.15.422.582.582,0,0,1,.079.665,1.213,1.213,0,0,0-.079.387c0,.066-.009.176-.022.295-.053.559-.07.964.158,1.113a.286.286,0,0,0,.163.048.508.508,0,0,0,.211-.057.906.906,0,0,0,.431-.462,3.163,3.163,0,0,1,.88-1.034,7.115,7.115,0,0,0,1.958-3.16,9.7,9.7,0,0,1,4.062,2.214c-.136.238-.312.453-.458.427-.053-.009-.057-.009-.062-.15-.009-.207-.026-.555-.6-.665a2.119,2.119,0,0,0-2.245.924,1.616,1.616,0,0,0-.048,1.259.535.535,0,0,0,.361.273c.066.013.136.035.211.057a.345.345,0,0,0-.123.128c-.326.524-.717.933-.836.933-.2,0-.365.18-.436.484a.738.738,0,0,0-.009.365l0,0a.641.641,0,0,0-.48-.075.322.322,0,0,0-.2.238,1.154,1.154,0,0,0,.145.867.354.354,0,0,0,.286.15c.044,0,.088,0,.132.009a.165.165,0,0,1,.048,0,.533.533,0,0,0-.282.211l-.07.123a2,2,0,0,1-.4.568l-.031.022a1.517,1.517,0,0,0-.612.92c-.132.572.158,1.8.9,1.985a4.992,4.992,0,0,0,1.51.031c.145-.013.273-.022.361-.026.172,0,.26.088.3.59a1.125,1.125,0,0,0,.229.568.783.783,0,0,1,.163.365,1.74,1.74,0,0,1-.013.4,3.917,3.917,0,0,0-.026.792c.009.163,0,.334,0,.524-.013.612-.031,1.3.484,1.523a2.084,2.084,0,0,1,.2.1.892.892,0,0,0,.387.123c.255,0,.5-.229,1.008-.893a5.56,5.56,0,0,0,1.232-2.394,2.85,2.85,0,0,1,.986-1.5c.365-.264.625-.682.559-.893a.194.194,0,0,0-.189-.136.534.534,0,0,0-.1.009c-.26.031-1.043.123-1.267-.365-.018-.035-.035-.075-.053-.11.163.22.326.365.511.339.871-.123,1.369-.3,1.483-.533a1.1,1.1,0,0,1,.141-.189c.022-.031.048-.057.07-.088a9.718,9.718,0,0,1-19.426.3,1.465,1.465,0,0,0,.44,0Z" transform="translate(-12.626 -4.535)" fill="#eb703b" fill-rule="evenodd"/>
    <path id="Path_5" data-name="Path 5" d="M125.005,394.12a1.579,1.579,0,0,1,1.043,1.276,8.428,8.428,0,0,0,1.545,3.376,1.228,1.228,0,0,0,.863.6.4.4,0,0,0,.29-.114.385.385,0,0,0,.11-.277c0-.079.009-.158.018-.246a2.6,2.6,0,0,0-.018-.753c-.079-.422-.075-.629.013-.775.013-.026.048-.035.119-.053a.328.328,0,0,0,.242-.141.324.324,0,0,0,.013-.26c-.018-.062-.044-.119-.066-.176-.075-.185-.114-.277.035-.449a3.943,3.943,0,0,0,.81-1.6,1.792,1.792,0,0,1,.154-.427.876.876,0,0,0,.119-.709.556.556,0,0,0-.387-.286,4.476,4.476,0,0,1-1.237-.717c-.185-.132-.361-.26-.515-.352a4.353,4.353,0,0,0-1.307-.409c-.119-.075-.233-.158-.339-.238a1.251,1.251,0,0,0-.629-.326.351.351,0,0,0-.312.194,4.155,4.155,0,0,1-.735.955,2.163,2.163,0,0,1-.3.22c-.246.163-.5.33-.533.6a.726.726,0,0,0,.273.572,2.969,2.969,0,0,0,.739.5h0Zm-.3-1.4a2.307,2.307,0,0,0,.348-.26,4.5,4.5,0,0,0,.788-1.021c.022-.035.031-.035.035-.035a1.356,1.356,0,0,1,.436.26c.119.088.251.185.392.273a.148.148,0,0,0,.062.022,4.134,4.134,0,0,1,1.223.37c.141.084.312.207.489.335a4.813,4.813,0,0,0,1.334.766c.07.022.163.057.185.11.04.084-.048.273-.123.44a2,2,0,0,0-.176.51,3.644,3.644,0,0,1-.735,1.435.647.647,0,0,0-.088.779l.053.132h-.013a.451.451,0,0,0-.326.2,1.4,1.4,0,0,0-.053,1,2.279,2.279,0,0,1,.013.665c-.009.092-.018.185-.018.277a.048.048,0,0,1-.018.044.087.087,0,0,1-.062.022c-.123,0-.343-.123-.6-.471a8.107,8.107,0,0,1-1.488-3.23,1.894,1.894,0,0,0-1.21-1.51,2.785,2.785,0,0,1-.665-.444c-.088-.088-.189-.211-.18-.308.013-.123.2-.246.387-.365Z" transform="translate(-17.097 -18.499)" fill="#eb703b" fill-rule="evenodd"/>
    <path id="Path_6" data-name="Path 6" d="M134.184,371.774a.164.164,0,0,0-.216-.066.739.739,0,0,0-.4.612c0,.084-.119.229-.2.335-.15.189-.378.471-.128.682a.364.364,0,0,0,.242.079.965.965,0,0,0,.766-.48,1.115,1.115,0,0,0-.062-1.162Zm-.216.995a.648.648,0,0,1-.484.321h-.026a1.52,1.52,0,0,1,.163-.233.928.928,0,0,0,.273-.537.344.344,0,0,1,.088-.216.74.74,0,0,1-.013.669Z" transform="translate(-22.209 -7.649)" fill="#eb703b" fill-rule="evenodd"/>
    <path id="Path_7" data-name="Path 7" d="M141.246,376.47a.693.693,0,0,0,.3-.079c.634-.317.559-1.32.555-1.36a.144.144,0,0,0-.066-.119.177.177,0,0,0-.132-.026c-.141.035-.858.229-1.039.59a.886.886,0,0,0,.009.788.423.423,0,0,0,.37.211h0Zm-.088-.854a1.262,1.262,0,0,1,.625-.361c-.013.26-.079.691-.378.841a.38.38,0,0,1-.158.048.09.09,0,0,1-.092-.057.594.594,0,0,1,0-.475Z" transform="translate(-26.494 -9.436)" fill="#eb703b" fill-rule="evenodd"/>
    <path id="Path_8" data-name="Path 8" d="M216.613,438.73l1.6.242a4.112,4.112,0,0,1-1.408,1.989,3.613,3.613,0,0,1-2.2.687,2.884,2.884,0,0,1-2.214-.854,3.518,3.518,0,0,1-.8-2.487,5.436,5.436,0,0,1,.537-2.416,3.93,3.93,0,0,1,1.483-1.681,3.882,3.882,0,0,1,2.064-.581,2.979,2.979,0,0,1,2.029.673,2.77,2.77,0,0,1,.911,1.84l-1.523.15a1.611,1.611,0,0,0-.489-.981,1.441,1.441,0,0,0-.959-.3,2.1,2.1,0,0,0-1.228.4,2.73,2.73,0,0,0-.911,1.259,4.547,4.547,0,0,0-.343,1.708,2.117,2.117,0,0,0,.444,1.439,1.4,1.4,0,0,0,1.1.506,1.784,1.784,0,0,0,1.127-.4,2.4,2.4,0,0,0,.766-1.188h0Zm2.707-.26a5.579,5.579,0,0,1,.207-1.448,5.127,5.127,0,0,1,.823-1.769,4.033,4.033,0,0,1,1.391-1.188,4.085,4.085,0,0,1,1.91-.436,3.12,3.12,0,0,1,2.319.893,3.218,3.218,0,0,1,.885,2.368,5.168,5.168,0,0,1-.577,2.372,4.323,4.323,0,0,1-1.562,1.769,4.105,4.105,0,0,1-2.236.616,3.186,3.186,0,0,1-1.818-.493,2.725,2.725,0,0,1-1.039-1.219,3.78,3.78,0,0,1-.308-1.47h0Zm1.576-.031a1.93,1.93,0,0,0,.484,1.338,1.634,1.634,0,0,0,1.276.541,2.084,2.084,0,0,0,1.237-.427,3.145,3.145,0,0,0,.981-1.289,4.091,4.091,0,0,0,.387-1.686,2.022,2.022,0,0,0-.489-1.439,1.637,1.637,0,0,0-1.25-.519,2.21,2.21,0,0,0-1.9,1.091,4.194,4.194,0,0,0-.731,2.394h0Zm10.8,3.072h-1.514l-.286-6.465-1.228,6.465h-1.435l1.62-7.741h2.271l.238,5.321,2.434-5.321h2.289l-1.413,7.741h-1.444l1.347-6.421-2.883,6.421h0Zm6.135,0h-1.589l1.62-7.741H241a3.588,3.588,0,0,1,1.325.2,1.585,1.585,0,0,1,.775.656,2.027,2.027,0,0,1,.286,1.091,2.93,2.93,0,0,1-.229,1.14,2.768,2.768,0,0,1-.555.889,2.537,2.537,0,0,1-.709.506,3.872,3.872,0,0,1-1.025.26,12,12,0,0,1-1.4.053h-1.017l-.616,2.953h0Zm.885-4.251h.489a5.71,5.71,0,0,0,1.681-.158,1.392,1.392,0,0,0,.665-.5,1.316,1.316,0,0,0,.242-.761.78.78,0,0,0-.123-.458.7.7,0,0,0-.348-.26,3.827,3.827,0,0,0-1-.079h-1.14l-.467,2.218Zm10.567,2.544h-3.072l-.937,1.708h-1.65l4.37-7.741h1.8l1.25,7.741h-1.51l-.251-1.708h0Zm-.194-1.3-.458-3.112-1.708,3.112Zm4.546,3.006h-1.589l1.62-7.741h3.433a4.231,4.231,0,0,1,1.382.18,1.582,1.582,0,0,1,.8.669,2.182,2.182,0,0,1,.3,1.175,2.314,2.314,0,0,1-.59,1.628,2.825,2.825,0,0,1-1.787.8,3.246,3.246,0,0,1,.577.726,19.144,19.144,0,0,1,1.188,2.566h-1.708q-.2-.654-.81-2.038a2.4,2.4,0,0,0-.7-1.008,1.5,1.5,0,0,0-.792-.154h-.651l-.669,3.2h0Zm.911-4.357h.845a5.877,5.877,0,0,0,1.7-.154,1.343,1.343,0,0,0,.656-.484,1.159,1.159,0,0,0,.238-.687.707.707,0,0,0-.343-.638,2.1,2.1,0,0,0-.915-.128h-1.752l-.436,2.086h0Zm5.272,4.357,1.62-7.741h5.73l-.268,1.3h-4.141l-.378,1.752h4.014l-.268,1.3h-4.027l-.458,2.1h4.493l-.268,1.3h-6.043Zm10.2,0,1.62-7.741h1.589l-.687,3.288,3.574-3.288h2.13l-3.464,3.037,2.544,4.7h-1.8l-1.9-3.688-1.514,1.325-.493,2.359h-1.589Zm12.895-1.708.251,1.708h1.51l-1.25-7.741h-1.8l-4.37,7.741h1.65l.937-1.708h3.072Zm-.189-1.3h-2.165l1.708-3.112.458,3.112Zm4.542,3.006h-1.589l1.62-7.741h3.433a4.231,4.231,0,0,1,1.382.18,1.583,1.583,0,0,1,.8.669,2.182,2.182,0,0,1,.3,1.175,2.314,2.314,0,0,1-.59,1.628,2.825,2.825,0,0,1-1.787.8,3.246,3.246,0,0,1,.577.726,19.144,19.144,0,0,1,1.188,2.566h-1.708q-.2-.654-.81-2.038a2.4,2.4,0,0,0-.7-1.008,1.5,1.5,0,0,0-.792-.154h-.651l-.669,3.2h0Zm.911-4.357h.845a5.877,5.877,0,0,0,1.7-.154,1.343,1.343,0,0,0,.656-.484,1.159,1.159,0,0,0,.238-.687.707.707,0,0,0-.343-.638,2.1,2.1,0,0,0-.915-.128H288.6l-.436,2.086h0Zm5.77,1.316a5.58,5.58,0,0,1,.207-1.448,5.127,5.127,0,0,1,.823-1.769,3.994,3.994,0,0,1,1.391-1.188,4.085,4.085,0,0,1,1.91-.436,3.12,3.12,0,0,1,2.319.893,3.218,3.218,0,0,1,.885,2.368,5.168,5.168,0,0,1-.577,2.372,4.323,4.323,0,0,1-1.562,1.769,4.1,4.1,0,0,1-2.236.616,3.186,3.186,0,0,1-1.818-.493,2.725,2.725,0,0,1-1.039-1.219,3.781,3.781,0,0,1-.308-1.47h0Zm1.576-.031a1.93,1.93,0,0,0,.484,1.338,1.634,1.634,0,0,0,1.276.541,2.084,2.084,0,0,0,1.237-.427,3.145,3.145,0,0,0,.981-1.289,4.091,4.091,0,0,0,.387-1.686,2.022,2.022,0,0,0-.488-1.439,1.637,1.637,0,0,0-1.25-.519,2.21,2.21,0,0,0-1.9,1.091,4.194,4.194,0,0,0-.731,2.394h0Zm6.659,1.611H303.7l-.255,1.206a2.731,2.731,0,0,1-.7,1.479,1.83,1.83,0,0,1-1.241.449l.15-.7a1.142,1.142,0,0,0,.59-.3,1.372,1.372,0,0,0,.308-.673h-.691l.312-1.461h0Zm11.284-1.32,1.6.242a4.112,4.112,0,0,1-1.408,1.989,3.613,3.613,0,0,1-2.2.687,2.884,2.884,0,0,1-2.214-.854,3.518,3.518,0,0,1-.8-2.487,5.436,5.436,0,0,1,.537-2.416,3.931,3.931,0,0,1,1.483-1.681,3.882,3.882,0,0,1,2.064-.581,2.979,2.979,0,0,1,2.029.673,2.77,2.77,0,0,1,.911,1.84l-1.523.15a1.611,1.611,0,0,0-.488-.981,1.441,1.441,0,0,0-.959-.3,2.1,2.1,0,0,0-1.228.4,2.73,2.73,0,0,0-.911,1.259,4.547,4.547,0,0,0-.343,1.708,2.117,2.117,0,0,0,.444,1.439,1.4,1.4,0,0,0,1.1.506,1.784,1.784,0,0,0,1.127-.4,2.4,2.4,0,0,0,.766-1.188h0Zm7.535-.678h-3l-.726,3.459h-1.589l1.62-7.741h1.589l-.625,2.984h3.006l.625-2.984h1.589l-1.62,7.741h-1.589l.726-3.459h0Zm2.975.418a5.579,5.579,0,0,1,.207-1.448,5.126,5.126,0,0,1,.823-1.769,3.994,3.994,0,0,1,1.391-1.188,4.085,4.085,0,0,1,1.91-.436,3.12,3.12,0,0,1,2.319.893,3.218,3.218,0,0,1,.885,2.368,5.168,5.168,0,0,1-.577,2.372,4.323,4.323,0,0,1-1.562,1.769,4.1,4.1,0,0,1-2.236.616,3.186,3.186,0,0,1-1.818-.493,2.725,2.725,0,0,1-1.039-1.219,3.78,3.78,0,0,1-.308-1.47h0Zm1.576-.031a1.93,1.93,0,0,0,.484,1.338,1.634,1.634,0,0,0,1.276.541,2.084,2.084,0,0,0,1.237-.427,3.145,3.145,0,0,0,.981-1.289,4.091,4.091,0,0,0,.387-1.686,2.022,2.022,0,0,0-.488-1.439,1.637,1.637,0,0,0-1.25-.519,2.21,2.21,0,0,0-1.9,1.091,4.194,4.194,0,0,0-.731,2.394h0Zm6.83.031a5.579,5.579,0,0,1,.207-1.448,5.126,5.126,0,0,1,.823-1.769,4.033,4.033,0,0,1,1.391-1.188,4.085,4.085,0,0,1,1.91-.436,3.12,3.12,0,0,1,2.319.893,3.218,3.218,0,0,1,.885,2.368,5.168,5.168,0,0,1-.577,2.372,4.323,4.323,0,0,1-1.562,1.769,4.1,4.1,0,0,1-2.236.616,3.186,3.186,0,0,1-1.818-.493,2.725,2.725,0,0,1-1.039-1.219,3.78,3.78,0,0,1-.308-1.47h0Zm1.58-.031a1.93,1.93,0,0,0,.484,1.338,1.634,1.634,0,0,0,1.276.541,2.084,2.084,0,0,0,1.237-.427,3.145,3.145,0,0,0,.981-1.289,4.091,4.091,0,0,0,.387-1.686,2.022,2.022,0,0,0-.488-1.439,1.637,1.637,0,0,0-1.25-.519,2.21,2.21,0,0,0-1.9,1.091,4.194,4.194,0,0,0-.731,2.394h0Zm6.571.577,1.514-.079a1.714,1.714,0,0,0,.246.973,1.638,1.638,0,0,0,1.289.409,1.8,1.8,0,0,0,1.131-.282.844.844,0,0,0,.348-.678.733.733,0,0,0-.286-.581,5.29,5.29,0,0,0-1.1-.568,9.841,9.841,0,0,1-1.312-.656,1.9,1.9,0,0,1-.651-.682,1.948,1.948,0,0,1-.238-.977,2.114,2.114,0,0,1,.709-1.628,2.928,2.928,0,0,1,2.046-.647,3.166,3.166,0,0,1,2.108.638,2.362,2.362,0,0,1,.823,1.7l-1.523.07a1.245,1.245,0,0,0-.4-.849,1.51,1.51,0,0,0-1.012-.295,1.49,1.49,0,0,0-.942.233.725.725,0,0,0-.282.585.688.688,0,0,0,.26.55,5.345,5.345,0,0,0,1.144.607,6.4,6.4,0,0,1,1.7.937,1.817,1.817,0,0,1,.541,1.36,2.261,2.261,0,0,1-.81,1.752,3.268,3.268,0,0,1-2.258.726,4.111,4.111,0,0,1-1.73-.335,2.074,2.074,0,0,1-1.034-.929,2.806,2.806,0,0,1-.277-1.369h0Zm6.971,2.5,1.62-7.741h5.73l-.268,1.3h-4.141l-.378,1.752h4.014l-.268,1.3h-4.027l-.458,2.1h4.493l-.268,1.3H347.5Zm10.2,0,1.62-7.741h1.589l-.687,3.288,3.574-3.288h2.13l-3.464,3.037,2.544,4.7h-1.8l-1.9-3.688-1.514,1.325-.493,2.359H357.7ZM370.6,439.8l.251,1.708h1.51l-1.25-7.741h-1.8l-4.37,7.741h1.65l.937-1.708h3.072Zm-.189-1.3H368.24l1.708-3.112.458,3.112Zm4.542,3.006h-1.589l1.62-7.741h3.433a4.231,4.231,0,0,1,1.382.18,1.582,1.582,0,0,1,.8.669,2.182,2.182,0,0,1,.3,1.175,2.314,2.314,0,0,1-.59,1.628,2.825,2.825,0,0,1-1.787.8,3.245,3.245,0,0,1,.577.726,19.14,19.14,0,0,1,1.188,2.566h-1.708q-.2-.654-.81-2.038a2.4,2.4,0,0,0-.7-1.008,1.5,1.5,0,0,0-.792-.154h-.651l-.669,3.2h0Zm.911-4.357h.845a5.877,5.877,0,0,0,1.7-.154,1.343,1.343,0,0,0,.656-.484,1.159,1.159,0,0,0,.238-.687.707.707,0,0,0-.343-.638,2.1,2.1,0,0,0-.915-.128H376.29l-.436,2.086h0Zm5.77,1.316a5.579,5.579,0,0,1,.207-1.448,5.127,5.127,0,0,1,.823-1.769,4.034,4.034,0,0,1,1.391-1.188,4.085,4.085,0,0,1,1.91-.436,3.12,3.12,0,0,1,2.319.893,3.218,3.218,0,0,1,.885,2.368,5.168,5.168,0,0,1-.577,2.372,4.323,4.323,0,0,1-1.562,1.769,4.1,4.1,0,0,1-2.236.616,3.186,3.186,0,0,1-1.818-.493,2.725,2.725,0,0,1-1.039-1.219,3.78,3.78,0,0,1-.308-1.47h0Zm1.58-.031a1.93,1.93,0,0,0,.484,1.338,1.634,1.634,0,0,0,1.276.541,2.084,2.084,0,0,0,1.237-.427,3.145,3.145,0,0,0,.981-1.289,4.091,4.091,0,0,0,.387-1.686,2.022,2.022,0,0,0-.488-1.439,1.637,1.637,0,0,0-1.25-.519,2.21,2.21,0,0,0-1.9,1.091,4.194,4.194,0,0,0-.731,2.394Z" transform="translate(-66.147 -42.323)" fill="#282624" fill-rule="evenodd"/>
  </g>
</svg>
