<?xml version="1.0" encoding="utf-8"?>
<!-- Generator: Adobe Illustrator 25.4.1, SVG Export Plug-In . SVG Version: 6.00 Build 0)  -->
<svg version="1.1" id="Layer_1" xmlns="http://www.w3.org/2000/svg" xmlns:xlink="http://www.w3.org/1999/xlink" x="0px" y="0px"
	 viewBox="0 0 64 64" style="enable-background:new 0 0 64 64;" xml:space="preserve">
<style type="text/css">
	.st0{clip-path:url(#SVGID_00000059288921863488763050000009365722388157042563_);fill:#97323B;}
	.st1{clip-path:url(#SVGID_00000021097628710348463430000013939616665928488068_);fill:#97323B;}
	.st2{clip-path:url(#SVGID_00000074409315859172832240000003509350900152642239_);fill:#97323B;}
	.st3{clip-path:url(#SVGID_00000054976971838586435480000000823759602745813141_);fill:#97323B;}
</style>
<g>
	<g>
		<defs>
			<rect id="SVGID_1_" x="0.2" width="63.8" height="63.6"/>
		</defs>
		<clipPath id="SVGID_00000167393542271641483710000009782040682325757324_">
			<use xlink:href="#SVGID_1_"  style="overflow:visible;"/>
		</clipPath>
		<path style="clip-path:url(#SVGID_00000167393542271641483710000009782040682325757324_);fill:#97323B;" d="M41.6,63.6
			c-5.9,0-11.6-2.3-15.7-6.5L6.8,38.1c-8.7-8.7-8.7-22.8,0-31.5c1.9-1.8,4.8-1.8,6.7,0l8.3,8.2c1.8,1.8,1.8,4.7,0,6.5
			c-3.6,3.6-3.6,9.5,0,13.2l7.6,7.6c3.6,3.6,9.5,3.6,13.2,0c1.8-1.8,4.7-1.8,6.5,0c0,0,0,0,0,0l8.3,8.3c1.8,1.8,1.9,4.8,0,6.7
			c0,0,0,0,0,0C53.2,61.3,47.5,63.7,41.6,63.6 M10.1,7.4c-0.7,0-1.3,0.3-1.8,0.7c-7.8,7.8-7.8,20.5,0,28.3l19.1,19.1
			c7.8,7.8,20.5,7.8,28.3,0c0,0,0,0,0,0c0.5-0.5,0.7-1.1,0.7-1.8c0-0.7-0.3-1.3-0.7-1.8l-8.3-8.3c-0.9-0.9-2.4-0.9-3.4,0
			c-4.5,4.5-11.8,4.5-16.3,0c0,0,0,0,0,0l-3.8-3.8l0.8-0.8l-0.8,0.8l-3.7-3.7c-4.5-4.5-4.5-11.8,0-16.3c0.9-0.9,0.9-2.4,0-3.4
			c0,0,0,0,0,0l-8.3-8.3C11.4,7.7,10.8,7.4,10.1,7.4"/>
	</g>
	<g>
		<defs>
			<rect id="SVGID_00000157987110746372726650000017673477968745855360_" x="0.2" width="63.8" height="63.6"/>
		</defs>
		<clipPath id="SVGID_00000106856876779240891270000004951066604569119126_">
			<use xlink:href="#SVGID_00000157987110746372726650000017673477968745855360_"  style="overflow:visible;"/>
		</clipPath>
		<path style="clip-path:url(#SVGID_00000106856876779240891270000004951066604569119126_);fill:#97323B;" d="M62.8,34.2L62.8,34.2
			c-0.7,0-1.2-0.5-1.1-1.2c0,0,0,0,0,0C62.5,16.9,50.1,3.1,33.9,2.3c-1-0.1-2.1,0-3.1,0c-0.6,0.1-1.2-0.4-1.2-1
			c-0.1-0.6,0.4-1.2,1-1.2c0,0,0.1,0,0.1,0c17.4-1,32.3,12.3,33.3,29.7c0.1,1.1,0.1,2.3,0,3.4C63.9,33.7,63.4,34.2,62.8,34.2"/>
	</g>
	<g>
		<defs>
			<rect id="SVGID_00000155121771652252921210000004985102982276551063_" x="0.2" width="63.8" height="63.6"/>
		</defs>
		<clipPath id="SVGID_00000010269198084006707690000010240536384909688706_">
			<use xlink:href="#SVGID_00000155121771652252921210000004985102982276551063_"  style="overflow:visible;"/>
		</clipPath>
		<path style="clip-path:url(#SVGID_00000010269198084006707690000010240536384909688706_);fill:#97323B;" d="M55.5,33.9L55.5,33.9
			c-0.7,0-1.1-0.6-1.1-1.2C55,20.6,45.7,10.2,33.6,9.6c-0.8,0-1.6,0-2.4,0c-0.6,0.1-1.2-0.4-1.2-1c-0.1-0.6,0.4-1.2,1-1.2
			c0,0,0.1,0,0.1,0c13.4-0.8,24.8,9.4,25.6,22.8c0,0.9,0.1,1.8,0,2.6C56.6,33.4,56.1,33.8,55.5,33.9"/>
	</g>
	<g>
		<defs>
			<rect id="SVGID_00000005229882405099230690000014982964855840015753_" x="0.2" width="63.8" height="63.6"/>
		</defs>
		<clipPath id="SVGID_00000178205344331377617240000016842219739600422075_">
			<use xlink:href="#SVGID_00000005229882405099230690000014982964855840015753_"  style="overflow:visible;"/>
		</clipPath>
		<path style="clip-path:url(#SVGID_00000178205344331377617240000016842219739600422075_);fill:#97323B;" d="M48.2,33.5L48.2,33.5
			c-0.7,0-1.2-0.6-1.1-1.2v0c0.4-8.1-5.8-15-13.9-15.4c-0.5,0-1.1,0-1.6,0c-0.6,0-1.1-0.4-1.2-1.1c0-0.6,0.5-1.1,1.1-1.2
			c0,0,0,0,0,0c9.3-0.5,17.3,6.6,17.9,15.9c0,0.6,0,1.2,0,1.8C49.4,33,48.8,33.5,48.2,33.5"/>
	</g>
</g>
</svg>
